<svg width="430" height="498" viewBox="0 0 430 498" fill="none" xmlns="http://www.w3.org/2000/svg">
<rect width="430" height="498" fill="#ADEACC"/>
<g opacity="0.6">
<path opacity="0.1" d="M253.332 388C350.903 388 430 383.729 430 378.461C430 373.193 350.903 368.922 253.332 368.922C155.761 368.922 76.6635 373.193 76.6635 378.461C76.6635 383.729 155.761 388 253.332 388Z" fill="#1B262C"/>
<path d="M390.84 186.717V337.61" stroke="#287699" stroke-width="3.8063" stroke-miterlimit="10"/>
<path d="M361.626 186.164C361.626 186.164 387.249 197.016 420.124 184.851L402.374 144.552L376.06 143.93L361.626 186.164Z" fill="#ED6663"/>
<path d="M409.35 160.381C398.99 172.063 382.276 177.04 364.665 177.385L361.695 186.164C361.695 186.164 387.318 197.016 420.193 184.851L409.35 160.381Z" fill="#CE5757"/>
<path d="M60.5667 274.294C57.5969 271.668 52.348 268.488 46.3393 265.585C43.853 269.456 41.0904 273.88 40.6069 274.847C40.5379 274.986 40.5379 275.055 40.5379 274.986C40.5379 274.986 40.5379 274.916 40.6069 274.847C41.0213 273.811 42.8861 268.765 44.4055 264.686C40.745 263.027 36.8774 261.507 33.0788 260.263L31.3522 270.009L32.0429 259.917C20.1637 256.254 9.25141 255.701 8.07731 263.442C7.73199 265.585 8.56076 267.935 10.2183 270.354C14.7075 269.94 21.1997 269.387 21.1997 269.387L11.8068 272.428C15.3982 276.645 21.2687 280.93 27.968 284.87L33.3551 273.672L29.004 285.492C36.1177 289.501 44.0602 293.096 51.4501 295.515C52.0026 292.75 52.417 290.815 52.417 290.815L52.6242 295.93C54.0746 296.413 55.4559 296.759 56.7681 297.174L57.3206 294.824L57.8041 297.45C64.5034 299.109 70.2358 299.524 73.4128 298.141C73.4128 298.003 75.6919 287.773 60.5667 274.294Z" fill="#287699"/>
<path d="M72.584 298.28C72.8603 298.211 73.1365 298.072 73.4128 298.003C73.4128 298.003 75.6919 287.842 60.5667 274.294C57.5969 271.668 52.348 268.488 46.3393 265.585C44.1292 269.041 41.712 272.843 40.8832 274.363C52.0026 279.686 63.3293 287.358 72.584 298.28Z" fill="#3194AF"/>
<path d="M40.8141 274.294C41.4357 272.635 43.0932 268.281 44.4055 264.686C40.745 263.027 36.8774 261.507 33.0788 260.263L31.3522 270.009L32.0428 259.917C20.1636 256.254 9.25138 255.701 8.07727 263.442C8.07727 263.58 8.07727 263.65 8.07727 263.788C16.5032 265.378 28.5205 268.419 40.8141 274.294Z" fill="#3194AF"/>
<path d="M76.5898 259.641L71.4099 260.816L76.1063 258.258C75.6229 256.876 75.0704 255.424 74.3106 253.903C72.8603 250.793 70.7883 247.199 68.4401 243.812L63.8128 247.337L67.0588 241.876C59.8761 232.061 50.3451 224.181 45.7177 231.853C43.7839 235.033 43.6458 240.079 45.0271 245.678L55.594 245.332L45.3724 247.199C46.4084 251.069 48.135 255.148 50.3451 259.088L53.9365 257.498L50.8285 259.986C53.1767 263.995 56.0775 267.797 59.4617 271.046L66.7135 263.097L60.4286 272.013C64.8487 276.022 69.9595 279.064 75.5538 280.239C75.6919 280.239 80.8028 273.05 76.5898 259.641Z" fill="#287699"/>
<path d="M75.2776 280.17C75.4157 280.17 75.5538 280.239 75.692 280.239C75.692 280.239 80.8028 273.05 76.5898 259.641L71.4099 260.816L76.1063 258.258C75.6229 256.876 75.0704 255.424 74.3107 253.903C72.8603 250.793 70.7883 247.199 68.4401 243.812L63.8128 247.337L67.0588 241.876C60.3595 232.683 51.5192 225.149 46.6156 230.748C50.5523 236.001 67.0588 258.949 75.2776 280.17Z" fill="#3194AF"/>
<path d="M87.9164 219.066L80.9409 221.416L87.7783 217.131C87.7092 216.439 87.6402 215.817 87.5711 215.126L83.9107 215.817L87.433 213.674C86.6042 208.49 84.8776 202.062 82.3912 195.426L68.7854 200.679L81.7696 193.836C78.3855 184.92 73.8272 176.003 68.8545 169.851L61.5336 175.035L67.3351 168.123C62.8458 163.146 58.0803 160.589 53.5911 162.524C48.2041 164.943 46.6156 176.556 48.2731 190.519L51.9336 190.449L48.3422 191.141C49.1019 197.293 50.4832 203.859 52.417 210.287L66.3681 205.587L53.0386 212.361C56.0084 221.554 60.0832 230.333 65.125 237.107L70.6502 231.577L66.161 238.42C70.443 243.742 75.3466 247.544 80.8027 248.996C80.9409 248.996 88.7452 235.932 87.9164 219.066Z" fill="#287699"/>
<path d="M80.9409 248.996C80.9409 248.996 88.6762 235.932 87.9165 219.066L80.9409 221.416L87.7784 217.131C87.7093 216.439 87.6402 215.817 87.5712 215.126L83.9107 215.817L87.433 213.674C86.6043 208.49 84.8776 202.062 82.3913 195.426L68.7855 200.679L81.7697 193.836C78.3855 184.92 73.8272 176.003 68.8545 169.851L61.5337 175.035L67.3351 168.123C62.8459 163.146 58.0804 160.589 53.5912 162.524C53.5912 162.524 73.8963 210.91 80.4575 248.927C80.6647 248.927 80.8028 248.927 80.9409 248.996Z" fill="#3194AF"/>
<path d="M108.912 253.627L112.365 254.387C112.918 253.489 113.401 252.521 113.885 251.553L102.006 244.434L114.437 250.516C118.374 242.567 121.689 233.098 124.037 223.766L111.606 219.757L124.383 222.522C126.455 214.158 127.767 205.933 128.181 199.09L118.512 197.362L128.25 197.638C128.665 188.998 127.56 182.777 124.728 181.602C119.203 179.252 110.224 182.5 101.039 201.578L106.702 203.997L100.417 202.961C98.3453 207.384 96.2733 212.638 94.2014 218.789C93.3726 221.347 92.6129 223.766 91.9222 226.116L102.075 232.268L91.2316 228.743C91.0244 229.503 90.8172 230.333 90.61 231.093L95.1683 234.273L90.4028 231.992C88.2618 241.047 87.6402 248.235 87.7783 253.765L93.856 253.627L87.7783 254.733C88.2618 266.829 92.5438 271.046 92.5438 271.046C101.384 268.419 106.495 264.548 112.02 255.148L108.912 253.627Z" fill="#287699"/>
<path d="M124.659 181.602C124.521 181.533 124.383 181.533 124.314 181.464C106.771 203.997 94.6848 261.299 92.751 270.977C101.453 268.35 106.495 264.479 111.951 255.148L108.912 253.627L112.365 254.387C112.918 253.489 113.401 252.521 113.885 251.553L102.006 244.434L114.437 250.516C118.374 242.567 121.689 233.098 124.037 223.766L111.606 219.757L124.383 222.522C126.455 214.158 127.767 205.933 128.181 199.09L118.512 197.362L128.25 197.638C128.596 188.998 127.491 182.777 124.659 181.602Z" fill="#3194AF"/>
<path d="M23.4788 267.728C29.6946 270.354 82.5984 283.488 85.5682 333.186C85.5682 333.186 90.1955 248.996 65.194 195.081" stroke="#1B262C" stroke-width="0.9516" stroke-miterlimit="10" stroke-linecap="round" stroke-linejoin="round"/>
<path d="M57.3207 245.678C57.3207 245.678 85.5683 285.147 85.5683 333.186C89.8503 249.341 112.158 203.583 112.158 203.583" stroke="#1B262C" stroke-width="0.9516" stroke-miterlimit="10" stroke-linecap="round" stroke-linejoin="round"/>
<path d="M95.4446 325.306H72.6531C72.6531 325.306 66.5063 374.452 86.2589 380.12C105.942 385.788 95.4446 325.306 95.4446 325.306Z" fill="#ED6663"/>
<path d="M95.9971 325.306H78.1092C78.1092 325.306 73.2747 374.452 88.7452 380.12C104.285 385.788 95.9971 325.306 95.9971 325.306Z" fill="#CE5757"/>
<path d="M171.727 71.0829H234.157L235.733 131.987L171 130.531L171.727 71.0829Z" stroke="#D4EFF8" stroke-width="3.3511" stroke-miterlimit="10"/>
<path d="M182.637 81.8807H222.156L223.126 120.462L182.153 119.612L182.637 81.8807Z" fill="#D4EFF8"/>
<path d="M256.705 148.851H340.107L341.804 208.421L255.856 206.965L256.705 148.851Z" stroke="#D4EFF8" stroke-width="3.4996" stroke-miterlimit="10"/>
<path d="M268.949 159.406H326.772L327.863 197.138L268.342 196.289L268.949 159.406Z" fill="#D4EFF8"/>
<path d="M258.443 255.148C258.443 238.005 253.194 232.683 246.632 232.683H152.842C146.35 232.683 141.032 232.614 141.032 249.756V341.274C141.032 337.195 146.281 342.449 152.842 342.449H246.632C253.125 342.449 258.443 337.195 258.443 341.274V255.148V255.148Z" fill="#FFC7C8"/>
<path d="M375.853 249.825C375.853 232.683 370.604 232.752 364.043 232.752H270.253C263.761 232.752 258.443 232.683 258.443 249.825V341.343C258.443 337.264 263.692 342.518 270.253 342.518H364.043C370.535 342.518 375.853 337.264 375.853 341.343V249.825V249.825Z" fill="#FFC7C8"/>
<path opacity="0.7" d="M141.032 302.98V341.343C141.032 337.264 146.35 342.518 152.911 342.518H247.599C252.365 342.518 256.509 339.684 258.443 339.753V341.343C258.443 340.582 258.65 340.098 258.995 339.891C259.34 340.098 259.548 340.513 259.548 341.343V339.822C261.412 339.753 265.487 342.587 270.253 342.587H364.043C370.535 342.587 375.853 337.334 375.853 341.412V249.825C375.853 248.927 375.853 248.028 375.784 247.199L141.032 302.98Z" fill="#DBADB0"/>
<path d="M147.731 325.928C147.731 332.08 142.759 337.126 136.543 337.126H111.956C105.809 337.126 100.767 332.149 100.767 325.928V285.63C100.767 279.479 105.74 274.433 111.956 274.433H136.543C142.69 274.433 147.731 279.409 147.731 285.63V325.928Z" fill="#DBADB0"/>
<path d="M146.626 325.928C146.626 332.08 141.654 337.126 135.438 337.126H110.851C104.704 337.126 99.6621 332.149 99.6621 325.928V285.63C99.6621 279.479 104.635 274.433 110.851 274.433H135.438C141.585 274.433 146.626 279.409 146.626 285.63V325.928Z" fill="#DBADB0"/>
<path d="M416.049 325.928C416.049 332.08 411.076 337.126 404.86 337.126H380.273C374.126 337.126 369.085 332.149 369.085 325.928V285.63C369.085 279.479 374.057 274.433 380.273 274.433H404.929C411.076 274.433 416.118 279.409 416.118 285.63V325.928H416.049Z" fill="#DBADB0"/>
<path d="M116.79 377.632C116.79 379.36 115.409 380.742 113.682 380.742C111.956 380.742 110.574 379.36 110.574 377.632V366.987C110.574 365.259 111.956 363.876 113.682 363.876C115.409 363.876 116.79 365.259 116.79 366.987V377.632Z" fill="#1B262C"/>
<path d="M403.548 377.632C403.548 379.36 402.167 380.742 400.44 380.742C398.714 380.742 397.332 379.36 397.332 377.632V366.987C397.332 365.259 398.714 363.876 400.44 363.876C402.167 363.876 403.548 365.259 403.548 366.987V377.632Z" fill="#1B262C"/>
<path d="M405.551 274.433H393.257C387.111 274.433 382.069 279.409 382.069 285.63V341.55H132.192V285.63C132.192 279.479 127.219 274.433 121.003 274.433H108.71C102.563 274.433 97.5211 279.409 97.5211 285.63V362.287C97.5211 365.535 98.9024 368.438 101.112 370.443C103.184 372.655 106.085 374.037 109.262 374.037L405.551 373.484C411.698 373.484 416.739 368.508 416.739 362.287V285.63C416.739 279.409 411.698 274.433 405.551 274.433Z" fill="#FFC7C8"/>
<path d="M258.443 339.338C258.443 345.49 253.47 350.536 247.254 350.536H139.375C133.228 350.536 128.186 345.559 128.186 339.338V329.246C128.186 323.094 133.159 318.049 139.375 318.049H247.254C253.401 318.049 258.443 323.025 258.443 329.246V339.338Z" fill="#FFD4D4"/>
<path d="M387.042 339.338C387.042 345.49 382.069 350.536 375.853 350.536H269.631C263.484 350.536 258.443 345.559 258.443 339.338V329.246C258.443 323.094 263.415 318.049 269.631 318.049H375.853C382 318.049 387.042 323.025 387.042 329.246V339.338Z" fill="#FFD4D4"/>
</g>
</svg>
