<svg width="430" height="300" viewBox="0 0 430 300" fill="none" xmlns="http://www.w3.org/2000/svg">
<rect width="430" height="300" rx="20" fill="#DFEDFB"/>
<path d="M393 10.2646H233.277V148.142H393V10.2646Z" fill="#95C0F4"/>
<path d="M389.916 12.5482H236.337V145.388H389.916V12.5482Z" fill="#DFEDFB"/>
<path d="M290.01 70.3639H256.347V28.3203L262.068 23.1885H290.01V70.3639Z" fill="white"/>
<path d="M256.347 28.3203H261.879L262.068 23.1885L256.347 28.3203Z" fill="#B0D4FF"/>
<path d="M278.57 27.2845H267.788V27.8024H278.57V27.2845Z" fill="#B0D4FF"/>
<path d="M281.088 28.8146H265.245V29.3325H281.088V28.8146Z" fill="#B0D4FF"/>
<path d="M286.668 38.7017H260.349V39.3608H286.668V38.7017Z" fill="#B0D4FF"/>
<path d="M286.668 40.7026H260.349V41.3618H286.668V40.7026Z" fill="#B0D4FF"/>
<path d="M286.668 42.7036H260.349V43.3628H286.668V42.7036Z" fill="#B0D4FF"/>
<path d="M286.668 44.7045H260.349V45.3636H286.668V44.7045Z" fill="#B0D4FF"/>
<path d="M286.668 66.15H260.349V66.8092H286.668V66.15Z" fill="#B0D4FF"/>
<path d="M328.875 128.65H295.212V86.6305L300.909 81.4987H328.875V128.65Z" fill="white"/>
<path d="M295.212 86.6305H300.744L300.909 81.4987L295.212 86.6305Z" fill="#B0D4FF"/>
<path d="M317.434 85.5712H306.653V86.0891H317.434V85.5712Z" fill="#B0D4FF"/>
<path d="M319.954 87.1249H304.111V87.6428H319.954V87.1249Z" fill="#B0D4FF"/>
<path d="M325.51 97.0118H299.191V97.671H325.51V97.0118Z" fill="#B0D4FF"/>
<path d="M325.51 99.0129H299.191V99.6721H325.51V99.0129Z" fill="#B0D4FF"/>
<path d="M325.51 101.014H299.191V101.673H325.51V101.014Z" fill="#B0D4FF"/>
<path d="M325.51 103.015H299.191V103.674H325.51V103.015Z" fill="#B0D4FF"/>
<path d="M325.51 109.182H299.191V109.842H325.51V109.182Z" fill="#B0D4FF"/>
<path d="M325.51 111.183H299.191V111.842H325.51V111.183Z" fill="#B0D4FF"/>
<path d="M325.51 113.514H299.191V114.173H325.51V113.514Z" fill="#B0D4FF"/>
<path d="M347.849 23.1885H329.276V39.5727H347.849V23.1885Z" fill="#B0D4FF"/>
<path d="M337.75 25.1423C337.75 24.695 338.104 24.3184 338.574 24.3184C339.022 24.3184 339.398 24.6715 339.398 25.1423C339.398 25.5896 339.045 25.9662 338.574 25.9662C338.127 25.9427 337.75 25.5896 337.75 25.1423Z" fill="#FFA412"/>
<path d="M347.261 44.7158L328.732 46.0093L329.873 62.3542L348.402 61.0608L347.261 44.7158Z" fill="white"/>
<path d="M337.397 48.3769C337.374 47.9297 337.703 47.5295 338.15 47.5059C338.598 47.4824 338.998 47.812 339.021 48.2592C339.045 48.7065 338.715 49.1067 338.268 49.1302C337.821 49.1538 337.421 48.8242 337.397 48.3769Z" fill="#B0D4FF"/>
<path d="M285.512 105.075L266.983 106.369L268.124 122.714L286.653 121.42L285.512 105.075Z" fill="white"/>
<path d="M275.627 108.735C275.603 108.288 275.933 107.888 276.38 107.864C276.827 107.841 277.227 108.17 277.251 108.617C277.275 109.065 276.945 109.465 276.498 109.488C276.05 109.512 275.674 109.182 275.627 108.735Z" fill="#B0D4FF"/>
<path d="M262.167 116.826L243.595 117.016L243.763 133.399L262.335 133.208L262.167 116.826Z" fill="white"/>
<path d="M252.109 119.893C252.109 119.446 252.462 119.069 252.91 119.069C253.357 119.069 253.734 119.423 253.734 119.87C253.734 120.317 253.381 120.694 252.933 120.694C252.486 120.717 252.109 120.341 252.109 119.893Z" fill="#B0D4FF"/>
<path d="M375.395 57.8766L357.111 54.6095L354.229 70.7382L372.513 74.0053L375.395 57.8766Z" fill="#EEF6FF"/>
<path d="M365.175 58.3111C365.246 57.9344 365.622 57.6755 365.999 57.7461C366.376 57.8167 366.635 58.1934 366.564 58.57C366.493 58.9467 366.117 59.2056 365.74 59.135C365.364 59.0644 365.105 58.6877 365.175 58.3111Z" fill="#78ACEA"/>
<path d="M318.312 44.3886L299.847 46.3871L301.61 62.6763L320.075 60.6778L318.312 44.3886Z" fill="#EEF6FF"/>
<path d="M308.607 47.6708C308.56 47.2941 308.842 46.941 309.242 46.8939C309.642 46.8468 309.972 47.1293 310.019 47.5295C310.066 47.9062 309.784 48.2593 309.384 48.3064C309.007 48.3299 308.654 48.0709 308.607 47.6708Z" fill="#78ACEA"/>
<path d="M270.058 83.1129L251.893 86.9855L255.309 103.009L273.474 99.1367L270.058 83.1129Z" fill="#BAE8E3"/>
<path d="M261.079 87.8075C260.75 87.5956 260.656 87.1483 260.868 86.8188C261.079 86.4892 261.527 86.395 261.856 86.6069C262.186 86.8188 262.28 87.266 262.068 87.5956C261.833 87.9252 261.385 88.0193 261.079 87.8075Z" fill="#FFA412"/>
<path d="M318.8 39.5727H301.121V27.6847L306.018 23.1885H318.8V39.5727Z" fill="white"/>
<path d="M301.027 27.6847H305.853L306.018 23.1885L301.027 27.6847Z" fill="#B0D4FF"/>
<path d="M310.02 24.6951C310.02 24.3655 310.278 24.1066 310.608 24.1066C310.938 24.1066 311.197 24.3655 311.197 24.6951C311.197 25.0247 310.938 25.2836 310.608 25.2836C310.278 25.2836 310.02 25.0247 310.02 24.6951Z" fill="#B0D4FF"/>
<path d="M370.472 136.843H352.793V124.955L357.69 120.458H370.472V136.843Z" fill="white"/>
<path d="M352.699 124.955H357.525L357.689 120.458L352.699 124.955Z" fill="#B0D4FF"/>
<path d="M361.714 121.988C361.714 121.659 361.973 121.4 362.303 121.4C362.632 121.4 362.891 121.659 362.891 121.988C362.891 122.318 362.632 122.577 362.303 122.577C361.973 122.553 361.714 122.294 361.714 121.988Z" fill="#B0D4FF"/>
<path d="M378.547 113.255H360.868V101.391L365.765 96.8707H378.547V113.255Z" fill="white"/>
<path d="M360.773 101.391H365.599L365.764 96.8707L360.773 101.391Z" fill="#B0D4FF"/>
<path d="M369.765 98.4008C369.765 98.0712 370.024 97.8123 370.354 97.8123C370.683 97.8123 370.942 98.0712 370.942 98.4008C370.942 98.7303 370.683 98.9893 370.354 98.9893C370.024 98.9893 369.765 98.7068 369.765 98.4008Z" fill="#B0D4FF"/>
<path d="M355.218 113.255H337.515V101.391L342.412 96.8707H355.218V113.255Z" fill="#BAE8E3"/>
<path d="M337.421 101.391H342.27L342.412 96.8707L337.421 101.391Z" fill="#A1D6CE"/>
<path d="M346.437 98.4008C346.437 98.0712 346.695 97.8123 347.025 97.8123C347.355 97.8123 347.614 98.0712 347.614 98.4008C347.614 98.7303 347.355 98.9893 347.025 98.9893C346.695 98.9893 346.437 98.7068 346.437 98.4008Z" fill="#F99746"/>
<path d="M383.537 35.4767H365.858V23.5887L370.754 19.0924H383.537V35.4767Z" fill="#BAE8E3"/>
<path d="M365.764 23.5887H370.589L370.754 19.0924L365.764 23.5887Z" fill="#A1D6CE"/>
<path d="M374.756 20.5991C374.756 20.2696 375.015 20.0106 375.345 20.0106C375.674 20.0106 375.933 20.2696 375.933 20.5991C375.933 20.9287 375.674 21.1877 375.345 21.1877C375.015 21.1877 374.756 20.9287 374.756 20.5991Z" fill="#F99746"/>
<path d="M177.441 48.2425H143.801C142.248 48.2425 141 46.9713 141 45.4412V12.9551C141 11.425 142.248 10.1538 143.801 10.1538H177.441C178.995 10.1538 180.242 11.425 180.242 12.9551V45.4176C180.242 46.9713 178.995 48.2425 177.441 48.2425Z" fill="#C0D8FB"/>
<path d="M175.981 46.5946H145.261C143.848 46.5946 142.695 45.4412 142.695 44.0287V14.3676C142.695 12.9551 143.848 11.8016 145.261 11.8016H175.981C177.394 11.8016 178.547 12.9551 178.547 14.3676V44.0287C178.547 45.4412 177.394 46.5946 175.981 46.5946Z" fill="#DFEBFD"/>
<path d="M159.809 15.2856C159.809 14.8383 160.162 14.4617 160.633 14.4617C161.08 14.4617 161.456 14.8148 161.456 15.2856C161.456 15.7329 161.103 16.1095 160.633 16.1095C160.162 16.086 159.809 15.7329 159.809 15.2856Z" fill="#B7D3F3"/>
<path d="M166.377 16.4392C166.589 16.039 167.083 15.8977 167.483 16.1332C167.884 16.345 168.025 16.8394 167.789 17.2396C167.577 17.6398 167.083 17.781 166.683 17.5456C166.283 17.3102 166.142 16.8158 166.377 16.4392Z" fill="#B7D3F3"/>
<path d="M172.003 20.8882C172.379 20.6528 172.874 20.747 173.133 21.1236C173.368 21.5003 173.274 21.9946 172.897 22.2536C172.52 22.489 172.026 22.3948 171.767 22.0182C171.508 21.6415 171.626 21.1472 172.003 20.8882Z" fill="#B7D3F3"/>
<path d="M174.78 27.8092C175.227 27.8092 175.604 28.1623 175.604 28.6331C175.604 29.0804 175.251 29.457 174.78 29.457C174.333 29.457 173.956 29.1039 173.956 28.6331C173.956 28.1623 174.333 27.8092 174.78 27.8092Z" fill="#B7D3F3"/>
<path d="M173.344 35.8365C173.65 36.1426 173.65 36.6605 173.344 36.99C173.038 37.296 172.521 37.296 172.191 36.99C171.885 36.684 171.885 36.1661 172.191 35.8365C172.521 35.507 173.038 35.507 173.344 35.8365Z" fill="#B7D3F3"/>
<path d="M168.26 40.9449C168.566 41.2509 168.566 41.7688 168.26 42.0983C167.954 42.4044 167.436 42.4044 167.106 42.0983C166.8 41.7923 166.8 41.2744 167.106 40.9449C167.413 40.6388 167.93 40.6388 168.26 40.9449Z" fill="#B7D3F3"/>
<path d="M159.809 43.5814C159.809 43.1341 160.162 42.7574 160.633 42.7574C161.08 42.7574 161.456 43.1106 161.456 43.5814C161.456 44.0522 161.103 44.4053 160.633 44.4053C160.162 44.4053 159.809 44.0522 159.809 43.5814Z" fill="#B7D3F3"/>
<path d="M154.842 16.4392C154.63 16.039 154.135 15.8977 153.735 16.1332C153.335 16.345 153.194 16.8394 153.429 17.2396C153.641 17.6398 154.135 17.781 154.536 17.5456C154.912 17.3102 155.053 16.8158 154.842 16.4392Z" fill="#B7D3F3"/>
<path d="M149.215 20.8882C148.839 20.6528 148.344 20.747 148.085 21.1236C147.85 21.5003 147.944 21.9946 148.321 22.2536C148.697 22.489 149.192 22.3948 149.451 22.0182C149.71 21.6415 149.592 21.1472 149.215 20.8882Z" fill="#B7D3F3"/>
<path d="M146.438 27.8092C145.99 27.8092 145.614 28.1623 145.614 28.6331C145.614 29.0804 145.967 29.457 146.438 29.457C146.885 29.457 147.262 29.1039 147.262 28.6331C147.262 28.1623 146.885 27.8092 146.438 27.8092Z" fill="#B7D3F3"/>
<path d="M147.85 35.8365C147.544 36.1426 147.544 36.6605 147.85 36.99C148.156 37.296 148.674 37.296 149.004 36.99C149.31 36.684 149.31 36.1661 149.004 35.8365C148.698 35.507 148.18 35.507 147.85 35.8365Z" fill="#B7D3F3"/>
<path d="M152.958 40.9449C152.652 41.2509 152.652 41.7688 152.958 42.0983C153.264 42.4044 153.782 42.4044 154.112 42.0983C154.418 41.7923 154.418 41.2744 154.112 40.9449C153.805 40.6388 153.288 40.6388 152.958 40.9449Z" fill="#B7D3F3"/>
<path d="M160.397 28.6331C160.397 28.1859 160.751 27.8092 161.221 27.8092C161.669 27.8092 162.045 28.1623 162.045 28.6331C162.045 29.0804 161.692 29.457 161.221 29.457C160.774 29.4335 160.397 29.0804 160.397 28.6331Z" fill="#B7D3F3"/>
<path d="M161.315 18.4636H161.104V28.6332H161.315V18.4636Z" fill="#B7D3F3"/>
<path d="M166.289 24.1208L160.901 28.3516L161.308 28.87L166.696 24.6392L166.289 24.1208Z" fill="#B7D3F3"/>
<path d="M317.853 272.687H317.95C318.604 272.687 319.159 272.132 319.126 271.479L317.33 193.637L312.041 193.017L316.546 271.479C316.612 272.165 317.167 272.687 317.853 272.687Z" fill="#B0D4FF"/>
<path d="M348.675 272.687H348.773C349.426 272.687 349.981 272.132 349.949 271.479L348.153 193.637L342.863 193.017L347.369 271.479C347.435 272.165 347.99 272.687 348.675 272.687Z" fill="#95C0F4"/>
<path d="M263.585 272.687H263.487C262.834 272.687 262.279 272.132 262.312 271.479L264.108 193.637L269.397 193.017L264.891 271.479C264.826 272.165 264.271 272.687 263.585 272.687Z" fill="#B0D4FF"/>
<path d="M352.17 188.805V135.452C352.17 126.081 344.562 118.473 335.191 118.473H296.76C287.389 118.473 279.781 126.081 279.781 135.452V190.829L352.17 188.805Z" fill="#B0D4FF"/>
<path d="M272.858 197.229H347.075C349.883 197.229 352.169 194.943 352.169 192.135V188.805H272.858V197.229Z" fill="#95C0F4"/>
<path d="M263.977 197.229H320.105C322.195 197.229 323.893 195.531 323.893 193.441V192.56C323.893 190.47 322.195 188.772 320.105 188.772H263.977C261.887 188.772 260.189 190.47 260.189 192.56V193.441C260.189 195.531 261.887 197.229 263.977 197.229Z" fill="#CAE5FF"/>
<path d="M379.334 274.32H379.498C380.379 274.32 381.098 273.569 381.065 272.622L378.681 163.63L371.694 162.781L377.669 272.654C377.702 273.569 378.453 274.32 379.334 274.32Z" fill="#78ACEA"/>
<path d="M95.6891 274.32H95.5259C94.6443 274.32 93.9259 273.569 93.9586 272.622L96.3422 163.63L103.33 162.781L97.387 272.622C97.3217 273.569 96.6034 274.32 95.6891 274.32Z" fill="#78ACEA"/>
<path d="M387.759 165.622H88.4406C85.9918 165.622 84 163.63 84 161.181V156.904C84 154.455 85.9918 152.463 88.4406 152.463H387.759C390.208 152.463 392.2 154.455 392.2 156.904V161.181C392.2 163.663 390.241 165.622 387.759 165.622Z" fill="#78ACEA"/>
<path d="M308.661 152.496H257.332L241.888 114.098H293.151L308.661 152.496Z" fill="#2B478B"/>
<path d="M256.745 150.994H324.497V152.496H257.333L256.745 150.994Z" fill="#2B478B"/>
<path d="M270.295 133.297C269.904 131.958 270.687 130.848 272.026 130.848C273.365 130.848 274.769 131.958 275.16 133.297C275.552 134.636 274.769 135.746 273.43 135.746C272.091 135.746 270.687 134.636 270.295 133.297Z" fill="white"/>
</svg>
