<?xml version="1.0" standalone="no"?>
<!DOCTYPE svg PUBLIC "-//W3C//DTD SVG 20010904//EN"
 "http://www.w3.org/TR/2001/REC-SVG-20010904/DTD/svg10.dtd">
<svg version="1.0" xmlns="http://www.w3.org/2000/svg"
 width="700.000000pt" height="700.000000pt" viewBox="0 0 700.000000 700.000000"
 preserveAspectRatio="xMidYMid meet">
<metadata>
Created by potrace 1.11, written by Peter Selinger 2001-2013
</metadata>
<g transform="translate(0.000000,700.000000) scale(0.100000,-0.100000)"
fill="#000000" stroke="none">
<path d="M0 6135 l0 -865 335 0 335 0 0 530 0 530 530 0 530 0 0 335 0 335
-865 0 -865 0 0 -865z"/>
<path d="M5264 6665 l0 -335 528 0 528 0 0 -530 0 -530 335 0 335 0 0 865 0
865 -863 0 -863 0 0 -335z"/>
<path d="M2160 5562 c-7 -3 -10 -682 -10 -2012 l0 -2008 415 0 415 0 0 734 c0
580 3 734 13 735 104 5 641 -1 647 -8 9 -9 102 -189 465 -898 50 -99 136 -266
190 -371 l98 -192 444 0 c506 0 469 -8 415 91 -16 29 -62 115 -102 192 -40 77
-80 154 -90 170 -10 17 -50 93 -90 170 -40 77 -76 145 -80 150 -6 9 -36 65
-180 340 -29 55 -65 123 -80 150 -15 28 -58 109 -95 180 -37 72 -81 154 -97
183 -16 30 -28 55 -26 57 2 1 35 19 74 38 222 112 414 292 510 480 58 112 104
272 122 417 9 73 8 310 -1 385 -44 363 -253 666 -575 833 -103 54 -185 85
-311 117 -103 27 -110 28 -194 40 -27 4 -57 8 -68 10 -68 13 -338 18 -1022 19
-427 1 -782 0 -787 -2z m1627 -682 c127 -21 176 -36 247 -73 124 -66 228 -210
251 -349 3 -18 8 -42 12 -53 7 -24 6 -210 -1 -245 -3 -14 -9 -41 -12 -60 -18
-102 -114 -240 -214 -306 -150 -99 -225 -111 -714 -111 l-376 -1 0 604 0 604
374 0 c206 -1 401 -5 433 -10z"/>
<path d="M0 865 l0 -865 865 0 865 0 0 335 0 335 -530 0 -530 0 0 530 0 530
-335 0 -335 0 0 -865z"/>
<path d="M6320 1200 l0 -530 -528 0 -528 0 1 -332 0 -333 863 -3 862 -2 0 865
0 865 -335 0 -335 0 0 -530z"/>
</g>
</svg>
