<svg width="199" height="409" viewBox="0 0 199 409" fill="none" xmlns="http://www.w3.org/2000/svg">
<rect x="2.18701" width="193.929" height="409" rx="26" fill="white"/>
<path d="M0 92.4029C0 91.2983 0.895431 90.4029 2 90.4029H2.18717V116.649H2C0.895431 116.649 0 115.753 0 114.649V92.4029Z" fill="white"/>
<path d="M0 125.21C0 124.106 0.895431 123.21 2 123.21H2.18717V149.456H2C0.895431 149.456 0 148.561 0 147.456V125.21Z" fill="white"/>
<path d="M196.116 90.4029H196.303C197.407 90.4029 198.303 91.2983 198.303 92.4029V114.649C198.303 115.753 197.407 116.649 196.303 116.649H196.116V90.4029Z" fill="white"/>
<path d="M9.47778 21.8716C9.47778 13.8187 16.006 7.2905 24.0589 7.2905H174.244C182.297 7.2905 188.825 13.8187 188.825 21.8716H9.47778Z" fill="black"/>
<path d="M87.4094 16.0724C87.4269 16.3978 87.5525 16.6228 87.7861 16.7472C87.9062 16.8127 88.0416 16.8455 88.1923 16.8455C88.474 16.8455 88.7142 16.7287 88.913 16.495C89.1117 16.2592 89.2525 15.782 89.3355 15.0635C89.2045 15.271 89.0418 15.4173 88.8474 15.5025C88.6553 15.5855 88.4478 15.627 88.2251 15.627C87.773 15.627 87.4149 15.4861 87.1506 15.2044C86.8886 14.9227 86.7576 14.5602 86.7576 14.1169C86.7576 13.691 86.8875 13.3165 87.1474 12.9933C87.4072 12.6701 87.7905 12.5085 88.2971 12.5085C88.9807 12.5085 89.4524 12.8164 89.7122 13.4322C89.8564 13.7707 89.9284 14.1944 89.9284 14.7032C89.9284 15.2775 89.8422 15.7864 89.6696 16.2297C89.3836 16.9678 88.8988 17.3369 88.2152 17.3369C87.7566 17.3369 87.4083 17.2167 87.1703 16.9765C86.9323 16.7363 86.8133 16.435 86.8133 16.0724H87.4094ZM88.3037 15.1094C88.5374 15.1094 88.7503 15.033 88.9424 14.8801C89.1368 14.725 89.234 14.4554 89.234 14.071C89.234 13.726 89.1466 13.4694 88.9719 13.3012C88.7994 13.1309 88.5788 13.0457 88.3102 13.0457C88.022 13.0457 87.7927 13.1429 87.6223 13.3373C87.4542 13.5294 87.3701 13.7871 87.3701 14.1103C87.3701 14.416 87.4444 14.6595 87.5929 14.8408C87.7414 15.0199 87.9783 15.1094 88.3037 15.1094ZM90.993 13.7434H91.6776V14.4575H90.993V13.7434ZM90.993 16.4917H91.6776V17.2058H90.993V16.4917ZM94.3309 15.5451V13.4191L92.8274 15.5451H94.3309ZM94.3408 17.2058V16.0593H92.2836V15.4828L94.4325 12.502H94.9304V15.5451H95.6215V16.0593H94.9304V17.2058H94.3408ZM96.0539 17.2058C96.0758 16.8018 96.1588 16.4502 96.3029 16.1511C96.4492 15.8519 96.7331 15.58 97.1546 15.3354L97.7835 14.9718C98.0652 14.808 98.2628 14.6683 98.3764 14.5525C98.5555 14.3713 98.645 14.1638 98.645 13.9302C98.645 13.6572 98.5631 13.441 98.3993 13.2816C98.2355 13.12 98.0172 13.0392 97.7442 13.0392C97.3402 13.0392 97.0607 13.192 96.9056 13.4978C96.8226 13.6615 96.7768 13.8887 96.768 14.1791H96.1686C96.1751 13.7707 96.2505 13.4377 96.3946 13.18C96.6501 12.7258 97.1011 12.4987 97.7475 12.4987C98.2847 12.4987 98.6767 12.6439 98.9234 12.9343C99.1724 13.2248 99.2969 13.548 99.2969 13.9039C99.2969 14.2796 99.1647 14.6006 98.9005 14.867C98.7476 15.022 98.4736 15.2098 98.0783 15.4304L97.6295 15.6794C97.4155 15.7973 97.2474 15.9098 97.1251 16.0168C96.9067 16.2067 96.7691 16.4175 96.7123 16.649H99.2739V17.2058H96.0539ZM104.42 15.2339L103.69 13.108L102.913 15.2339H104.42ZM103.349 12.3939H104.086L105.832 17.2058H105.118L104.63 15.7645H102.726L102.206 17.2058H101.537L103.349 12.3939ZM106.408 12.3939H107.342L108.724 16.4622L110.097 12.3939H111.02V17.2058H110.401V14.3658C110.401 14.2675 110.404 14.1049 110.408 13.8777C110.412 13.6506 110.414 13.4071 110.414 13.1473L109.042 17.2058H108.397L107.014 13.1473V13.2947C107.014 13.4126 107.017 13.5928 107.021 13.8352C107.027 14.0754 107.031 14.2523 107.031 14.3658V17.2058H106.408V12.3939Z" fill="white"/>
<path fill-rule="evenodd" clip-rule="evenodd" d="M140.025 12.6013C141.219 12.6013 142.307 13.0412 143.142 13.7626L143.721 13.1229C142.733 12.2649 141.442 11.6649 140.025 11.6649C138.609 11.6649 137.32 12.2631 136.333 13.1183L136.911 13.7589C137.745 13.0397 138.832 12.6013 140.025 12.6013Z" fill="#FCFCFC"/>
<path fill-rule="evenodd" clip-rule="evenodd" d="M140.025 14.4476C140.74 14.4476 141.394 14.7074 141.899 15.1355L142.511 14.4585C141.844 13.8859 140.977 13.5118 140.025 13.5118C139.074 13.5118 138.207 13.885 137.541 14.4558L138.153 15.1337C138.657 14.7065 139.31 14.4476 140.025 14.4476Z" fill="#FCFCFC"/>
<path fill-rule="evenodd" clip-rule="evenodd" d="M141.285 15.8126C140.944 15.5294 140.505 15.3332 140.024 15.3332C139.545 15.3332 139.106 15.529 138.765 15.8111L140.024 17.2056L141.285 15.8126Z" fill="#FCFCFC"/>
<path d="M24.0588 12.3939H26.8208V12.8568H24.5982V14.0038H26.5525V14.4539H24.5982V16.1718H24.0588V12.3939ZM27.3331 13.4303H27.8291V16.1718H27.3331V13.4303ZM27.3331 12.3939H27.8291V12.9185H27.3331V12.3939ZM29.5909 13.3686C29.8186 13.3686 30.0174 13.4217 30.1872 13.528C30.2794 13.588 30.3733 13.6755 30.4691 13.7903V13.4432H30.919V15.9481C30.919 16.2978 30.8648 16.5739 30.7564 16.7762C30.554 17.15 30.1719 17.3369 29.6099 17.3369C29.2973 17.3369 29.0344 17.27 28.8211 17.1363C28.6079 17.0042 28.4887 16.7968 28.4634 16.5139H28.9594C28.9829 16.6373 29.0298 16.7325 29.1003 16.7993C29.2105 16.9022 29.384 16.9537 29.6207 16.9537C29.9948 16.9537 30.2396 16.8285 30.3553 16.5782C30.4239 16.4307 30.4555 16.1675 30.4501 15.7886C30.3526 15.9292 30.2351 16.0338 30.0978 16.1024C29.9604 16.171 29.7788 16.2053 29.553 16.2053C29.2385 16.2053 28.963 16.0998 28.7263 15.8889C28.4914 15.6763 28.3739 15.3257 28.3739 14.8371C28.3739 14.3759 28.4923 14.0158 28.729 13.7569C28.9675 13.498 29.2548 13.3686 29.5909 13.3686ZM30.4691 14.7831C30.4691 14.4419 30.395 14.189 30.2468 14.0244C30.0987 13.8598 29.9098 13.7775 29.6804 13.7775C29.337 13.7775 29.1021 13.9301 28.9756 14.2353C28.9088 14.3981 28.8753 14.6116 28.8753 14.8756C28.8753 15.186 28.9413 15.4226 29.0732 15.5855C29.2069 15.7466 29.3858 15.8272 29.6099 15.8272C29.9604 15.8272 30.2071 15.6772 30.3498 15.3771C30.4293 15.2074 30.4691 15.0094 30.4691 14.7831ZM31.6536 13.4174H32.136V13.8083C32.2517 13.6729 32.3565 13.5743 32.4505 13.5126C32.6113 13.408 32.7938 13.3557 32.998 13.3557C33.2293 13.3557 33.4154 13.4097 33.5563 13.5177C33.6358 13.5795 33.7081 13.6703 33.7732 13.7903C33.8816 13.6429 34.009 13.534 34.1553 13.4637C34.3017 13.3917 34.4661 13.3557 34.6486 13.3557C35.039 13.3557 35.3046 13.4894 35.4455 13.7569C35.5214 13.9009 35.5594 14.0947 35.5594 14.3381V16.1718H35.0525V14.2584C35.0525 14.075 35.0037 13.9489 34.9061 13.8804C34.8104 13.8118 34.6929 13.7775 34.5538 13.7775C34.3622 13.7775 34.1969 13.8384 34.0578 13.9601C33.9204 14.0818 33.8518 14.285 33.8518 14.5696V16.1718H33.3558V14.3741C33.3558 14.1873 33.3323 14.051 33.2853 13.9652C33.2112 13.8366 33.073 13.7723 32.8706 13.7723C32.6863 13.7723 32.5182 13.8401 32.3664 13.9755C32.2165 14.111 32.1415 14.3561 32.1415 14.711V16.1718H31.6536V13.4174ZM36.6517 15.4389C36.6517 15.5726 36.7032 15.678 36.8062 15.7552C36.9092 15.8324 37.0311 15.8709 37.1721 15.8709C37.3438 15.8709 37.51 15.8332 37.6708 15.7578C37.9419 15.6326 38.0774 15.4277 38.0774 15.1431V14.7702C38.0178 14.8062 37.941 14.8362 37.847 14.8602C37.753 14.8842 37.6609 14.9014 37.5705 14.9116L37.2751 14.9477C37.098 14.9699 36.9652 15.0051 36.8767 15.0531C36.7267 15.1337 36.6517 15.2623 36.6517 15.4389ZM37.8334 14.5027C37.9455 14.489 38.0205 14.4444 38.0584 14.369C38.0801 14.3279 38.0909 14.2687 38.0909 14.1915C38.0909 14.0338 38.0313 13.9198 37.9121 13.8495C37.7946 13.7775 37.6256 13.7415 37.4052 13.7415C37.1504 13.7415 36.9697 13.8066 36.8631 13.9369C36.8035 14.0089 36.7646 14.1161 36.7466 14.2584H36.2912C36.3002 13.9189 36.4159 13.6832 36.6381 13.5512C36.8622 13.4174 37.1215 13.3506 37.416 13.3506C37.7576 13.3506 38.0349 13.4123 38.2482 13.5357C38.4596 13.6592 38.5653 13.8512 38.5653 14.1118V15.6986C38.5653 15.7466 38.5752 15.7852 38.5951 15.8144C38.6168 15.8435 38.661 15.8581 38.7279 15.8581C38.7496 15.8581 38.774 15.8572 38.8011 15.8555C38.8282 15.8521 38.8571 15.8478 38.8878 15.8426V16.1847C38.8119 16.2053 38.7541 16.2181 38.7144 16.2233C38.6746 16.2284 38.6204 16.231 38.5517 16.231C38.3837 16.231 38.2617 16.1744 38.1858 16.0612C38.1461 16.0012 38.118 15.9164 38.1018 15.8066C38.0024 15.9301 37.8597 16.0372 37.6735 16.1281C37.4874 16.219 37.2823 16.2644 37.0583 16.2644C36.789 16.2644 36.5686 16.1873 36.3969 16.033C36.227 15.8769 36.1421 15.6823 36.1421 15.4492C36.1421 15.1937 36.2261 14.9957 36.3942 14.8551C36.5622 14.7145 36.7827 14.6279 37.0555 14.5953L37.8334 14.5027Z" fill="white"/>
<path fill-rule="evenodd" clip-rule="evenodd" d="M161.332 11.9943C160.985 11.9943 160.705 12.2876 160.705 12.6522V16.9278C160.705 17.2908 160.986 17.5856 161.332 17.5856H173.514C173.861 17.5856 174.141 17.2924 174.141 16.9278V12.6522C174.141 12.2892 173.86 11.9943 173.514 11.9943H161.332ZM161.331 11.6649H173.514C174.032 11.6649 174.452 12.1067 174.452 12.6517V16.9273C174.452 17.4746 174.032 17.914 173.514 17.914H161.331C160.813 17.914 160.392 17.4722 160.392 16.9273V12.6517C160.392 12.1044 160.812 11.6649 161.331 11.6649Z" fill="white"/>
<path fill-rule="evenodd" clip-rule="evenodd" d="M161.517 12.2898C161.241 12.2898 161.017 12.5136 161.017 12.7898V16.789C161.017 17.0651 161.241 17.289 161.517 17.289H166.641V12.2898H161.517Z" fill="white"/>
<path fill-rule="evenodd" clip-rule="evenodd" d="M175.702 14.9345C175.702 15.4854 175.295 15.9412 174.765 16.017V13.852C175.295 13.9278 175.702 14.3835 175.702 14.9345Z" fill="white"/>
<path d="M150.071 15.654H150.737V16.1523H150.071V17.2676H149.457V16.1523H147.269V15.7926L149.42 12.4632H150.071V15.654ZM147.962 15.654H149.457V13.298L149.384 13.43L147.962 15.654Z" fill="white"/>
<path d="M154.436 17.2676H151.288V16.8287L152.951 14.9808C153.198 14.7015 153.367 14.4749 153.459 14.3011C153.554 14.1251 153.601 13.9436 153.601 13.7566C153.601 13.5059 153.525 13.3002 153.374 13.1396C153.222 12.979 153.019 12.8987 152.766 12.8987C152.463 12.8987 152.226 12.9856 152.057 13.1594C151.89 13.331 151.806 13.5708 151.806 13.8787H151.196C151.196 13.4366 151.338 13.0791 151.621 12.8063C151.907 12.5335 152.289 12.3972 152.766 12.3972C153.213 12.3972 153.566 12.5148 153.826 12.7502C154.085 12.9834 154.215 13.2947 154.215 13.6841C154.215 14.157 153.914 14.7202 153.311 15.3735L152.024 16.7693H154.436V17.2676Z" fill="white"/>
<path d="M155.03 13.3871C155.03 13.0989 155.121 12.8613 155.304 12.6743C155.489 12.4874 155.725 12.3939 156.013 12.3939C156.306 12.3939 156.542 12.4885 156.723 12.6776C156.905 12.8646 156.997 13.1077 156.997 13.4069V13.6412C156.997 13.9315 156.904 14.1691 156.719 14.3539C156.537 14.5365 156.304 14.6278 156.02 14.6278C155.734 14.6278 155.497 14.5365 155.31 14.3539C155.123 14.1691 155.03 13.9238 155.03 13.6181V13.3871ZM155.485 13.6412C155.485 13.8127 155.534 13.9546 155.631 14.0668C155.727 14.1768 155.857 14.2318 156.02 14.2318C156.176 14.2318 156.302 14.1779 156.396 14.0701C156.493 13.9623 156.541 13.8149 156.541 13.628V13.3871C156.541 13.2155 156.494 13.0736 156.399 12.9614C156.305 12.8492 156.176 12.7931 156.013 12.7931C155.851 12.7931 155.722 12.8492 155.627 12.9614C155.533 13.0736 155.485 13.2199 155.485 13.4003V13.6412ZM157.37 16.0896C157.37 15.8014 157.461 15.5649 157.643 15.3801C157.828 15.1931 158.065 15.0996 158.353 15.0996C158.641 15.0996 158.877 15.192 159.062 15.3768C159.247 15.5616 159.339 15.8069 159.339 16.1127V16.3469C159.339 16.6351 159.247 16.8727 159.062 17.0597C158.88 17.2445 158.645 17.3369 158.359 17.3369C158.073 17.3369 157.837 17.2456 157.65 17.063C157.463 16.8782 157.37 16.6329 157.37 16.3271V16.0896ZM157.825 16.3469C157.825 16.5207 157.873 16.6637 157.97 16.7759C158.067 16.8859 158.197 16.9409 158.359 16.9409C158.518 16.9409 158.644 16.887 158.739 16.7792C158.833 16.6692 158.881 16.5207 158.881 16.3337V16.0896C158.881 15.9158 158.832 15.7739 158.736 15.6639C158.641 15.5539 158.513 15.4989 158.353 15.4989C158.197 15.4989 158.069 15.5539 157.97 15.6639C157.873 15.7717 157.825 15.918 157.825 16.1028V16.3469ZM156.159 16.9046L155.812 16.6868L158.158 12.9317L158.505 13.1495L156.159 16.9046Z" fill="white"/>
</svg>
