<svg width="205" height="191" viewBox="0 0 205 191" fill="none" xmlns="http://www.w3.org/2000/svg">
<path d="M121.298 0.293977C141.33 1.88854 146.282 11.3384 148.539 24.4726C151.527 41.9205 142.002 63.7241 143.311 81.8853C144.226 94.6418 150.688 105.166 161.288 111.183C166.449 114.112 172.626 116.068 176.268 120.423C179.491 124.276 180.447 129.781 179.835 135.614C178.039 152.785 161.774 173.128 142.094 182.838C131.553 188.033 120.651 190.249 110.538 190.844C89.6497 192.078 50.7675 184.726 32.5391 152.105C22.7115 134.523 20.2274 112.392 24.3397 88.8846C29.2492 60.7364 55.5428 -4.92612 121.298 0.293977Z" fill="#BCDFFD"/>
<mask id="mask0" mask-type="alpha" maskUnits="userSpaceOnUse" x="22" y="0" width="159" height="191">
<path d="M121.298 0.293977C141.33 1.88854 146.282 11.3384 148.539 24.4726C151.527 41.9205 142.002 63.7241 143.311 81.8853C144.226 94.6418 150.688 105.166 161.288 111.183C166.449 114.112 172.626 116.068 176.268 120.423C179.491 124.276 180.447 129.781 179.835 135.614C178.039 152.785 161.774 173.128 142.094 182.838C131.553 188.033 120.651 190.249 110.538 190.844C89.6497 192.078 50.7675 184.726 32.5391 152.105C22.7115 134.523 20.2274 112.392 24.3397 88.8846C29.2492 60.7364 55.5428 -4.92612 121.298 0.293977Z" fill="#BCDFFD"/>
</mask>
<g mask="url(#mask0)">
<path d="M89.3723 150.559C89.3723 150.559 78.7224 177.819 75.9529 191.348C75.9529 191.348 144.771 204.356 141.834 188.83C138.896 173.304 134.7 159.456 130.445 150.719L89.3723 150.559Z" fill="#121B46"/>
</g>
<path d="M87.8281 155.158C89.6829 155.049 91.5376 154.999 93.3923 154.923L98.9565 154.789C102.666 154.697 106.375 154.688 110.076 154.672C113.786 154.68 117.495 154.697 121.196 154.781L126.761 154.915C128.615 154.999 130.47 155.041 132.325 155.158C130.47 155.267 128.615 155.318 126.761 155.402L121.196 155.536C117.487 155.628 113.778 155.637 110.076 155.645C106.367 155.637 102.658 155.62 98.9565 155.528L93.3923 155.393C91.5292 155.318 89.6829 155.276 87.8281 155.158Z" fill="white"/>
<path d="M94.307 155.528C94.0805 156.753 93.644 157.936 93.1069 159.061C92.5698 160.194 91.89 161.26 91.0676 162.233C90.2283 163.181 89.238 164.063 88.0295 164.575C86.8462 165.12 85.4614 165.212 84.2781 164.81C85.5286 164.801 86.6867 164.499 87.6854 163.895C88.6841 163.307 89.5485 162.493 90.3206 161.595C91.8732 159.791 93.0901 157.684 94.307 155.528Z" fill="white"/>
<path d="M113.375 155.041C113.517 158.179 113.627 161.318 113.685 164.449L113.786 169.157L113.82 173.865V174.05L113.685 174.184C111.982 175.904 110.295 177.642 108.574 179.345L107.743 180.168L107.76 179.001C107.802 175.031 107.785 171.053 107.878 167.084C107.953 163.114 108.046 159.136 108.239 155.167C108.432 159.136 108.524 163.114 108.599 167.084C108.692 171.053 108.675 175.031 108.717 179.001L107.894 178.657C109.598 176.937 111.335 175.25 113.056 173.546L112.922 173.857L112.955 169.148L113.056 164.44C113.123 161.318 113.232 158.179 113.375 155.041Z" fill="white"/>
<path d="M127.793 155.158C127.927 156.291 128.12 157.39 128.397 158.448C128.691 159.497 129.069 160.512 129.656 161.368C130.235 162.233 131.066 162.871 132.031 163.257C132.996 163.693 134.113 163.735 135.254 163.836C134.171 164.13 132.963 164.331 131.796 163.987C130.621 163.702 129.547 162.929 128.859 161.922C128.188 160.907 127.81 159.749 127.659 158.599C127.499 157.441 127.525 156.274 127.793 155.158Z" fill="white"/>
<path d="M162.689 86.2729L154.825 86.5079C154.825 86.5079 152.283 98.0727 148.8 113.506C147.65 111.677 146.567 109.948 145.577 108.337C142.069 115.21 137.772 121.614 133.139 127.782C135.766 132.238 138.779 137.098 142.203 142.167C142.254 142.234 142.296 142.309 142.346 142.376C148.422 151.34 162.437 148.05 163.864 137.316C163.881 137.19 163.898 137.072 163.914 136.947C166.046 120.858 166.407 103.217 162.689 86.2729Z" fill="#F7BB8B"/>
<path d="M158.04 74.641C157.864 72.5933 157.595 70.4532 157.259 70.5203C156.705 70.6378 156.378 72.0645 156.143 73.8773C156.789 74.0787 157.427 74.3305 158.04 74.641Z" fill="#F28766"/>
<path d="M161.363 77.1505C161.33 74.9516 161.17 70.6463 160.44 70.2519C159.869 69.9413 159.24 72.6941 158.812 75.0523C159.811 75.6482 160.7 76.3616 161.363 77.1505Z" fill="#F28766"/>
<path d="M166.843 74.2383C166.323 74.6159 165.442 75.6734 164.309 78.6611C164.309 78.6611 165.073 71.9387 164.317 70.982C163.713 70.2267 162.219 75.3461 161.623 77.5029C162.001 78.0149 162.295 78.5604 162.454 79.1227C162.689 79.9871 162.748 80.7676 162.664 81.4642C163.596 83.9903 162.043 86.9528 159.349 87.876C158.3 88.2369 157.226 88.2872 156.16 88.1445C155.329 88.4299 154.439 88.5138 153.642 88.3795C154.246 89.4454 154.976 90.528 155.858 91.6022L161.33 90.5616C161.33 90.5616 167.322 79.2485 167.397 74.5152C167.397 74.2131 167.095 74.062 166.843 74.2383Z" fill="#F7BB8B"/>
<path d="M147.642 125.701C147.574 123.653 147.667 121.614 147.809 119.583C147.877 118.567 147.977 117.552 148.078 116.545C148.187 115.537 148.305 114.522 148.447 113.515L149.236 113.775C148.246 115.286 147.239 116.78 146.097 118.198C146.811 116.519 147.642 114.925 148.506 113.339L149.412 111.669L149.295 113.599C149.236 114.614 149.144 115.63 149.052 116.637C148.942 117.652 148.842 118.659 148.707 119.667C148.431 121.698 148.112 123.703 147.642 125.701Z" fill="#121B46"/>
<path d="M150.419 71.4099L159.853 89.076C160.255 89.8397 161.137 90.209 161.967 89.974C163.705 89.4872 166.466 88.3878 167.146 86.1638C168.161 82.8488 159.643 66.3492 159.643 66.3492L150.419 71.4099Z" fill="#DFDFDF"/>
<path d="M140.281 48.4736L137.092 49.4304C136.127 49.7157 135.531 50.6725 135.682 51.6628C136.119 54.5498 137.394 60.8609 141.02 69.2449C141.423 70.1849 142.472 70.6716 143.445 70.3779L146.274 69.5303L140.281 48.4736Z" fill="#28AD92"/>
<path d="M155.984 39.9377L140.961 44.4277C138.754 45.0907 138.838 51.897 141.154 59.6264C143.471 67.3559 147.13 73.0963 149.345 72.4333L164.368 67.9433L155.984 39.9377Z" fill="#35C4A6"/>
<path d="M164.174 52.7537C166.491 60.4915 166.575 67.2894 164.368 67.9524C162.16 68.6154 158.493 62.875 156.177 55.1455C153.86 47.4077 153.776 40.6098 155.983 39.9468C158.191 39.2838 161.858 45.0159 164.174 52.7537Z" fill="#3CDEBC"/>
<path d="M184.317 21.8694L156.496 43.3373L156.588 45.2507C156.949 52.5186 159.282 59.7613 163.218 65.8206L197.896 66.0304L184.317 21.8694Z" fill="#DFDFDF"/>
<path d="M202.679 40.4755C206.372 52.804 204.802 64.1674 199.179 65.8542C194.824 67.1551 189.31 62.2707 185.332 54.2727C184.174 51.948 183.15 49.3547 182.311 46.5684C181.564 44.0591 181.026 41.5833 180.699 39.2334C179.424 30.0101 181.337 22.5324 185.81 21.1897C191.441 19.5112 198.995 28.147 202.679 40.4755Z" fill="#C4C4C4"/>
<path d="M191.19 43.9164C193.481 51.5787 193.741 58.8549 192.264 63.6806C188.378 60.4579 184.602 54.2307 182.311 46.5684C180.019 38.9061 179.751 31.6214 181.236 26.7958C185.122 30.0185 188.899 36.2541 191.19 43.9164Z" fill="#919191"/>
<path d="M191.324 38.3934L194.337 48.4644L185.34 54.2803C184.182 51.9556 183.158 49.3624 182.319 46.5761C181.572 44.0667 181.035 41.5909 180.708 39.2411L191.324 38.3934Z" fill="#EBEBEB"/>
<path d="M195.126 42.7415C195.957 45.5194 195.604 48.0874 194.337 48.4651C193.07 48.8428 191.366 46.8957 190.535 44.1178C189.704 41.3399 190.057 38.7718 191.324 38.3942C192.591 38.0165 194.287 39.9552 195.126 42.7415Z" fill="#35C4A6"/>
<path d="M159.29 41.6924C159.659 43.8241 160.112 45.9306 160.591 48.0287C161.086 50.1184 161.606 52.1997 162.269 54.2307C162.924 56.2701 163.662 58.2759 164.56 60.2145C165.492 62.1364 166.541 63.9995 167.85 65.7283C166.256 64.2513 164.946 62.4721 163.88 60.5586C162.823 58.6367 162.026 56.5974 161.338 54.5244C160.683 52.4431 160.196 50.3198 159.844 48.1714C159.491 46.0313 159.29 43.8576 159.29 41.6924Z" fill="#121B46"/>
<path d="M147.146 69.5553C149.127 68.5649 151.191 67.8516 153.281 67.2138C155.379 66.6011 157.494 66.064 159.693 65.8038C157.712 66.8025 155.648 67.5075 153.558 68.1453C151.468 68.758 149.353 69.3035 147.146 69.5553Z" fill="#121B46"/>
<path d="M193.842 42.8253C193.959 43.3121 194.06 43.8072 194.11 44.3192C194.127 44.571 194.152 44.8311 194.119 45.0997C194.102 45.234 194.077 45.3766 194.018 45.5193C193.959 45.6536 193.85 45.8298 193.632 45.897C193.414 45.9641 193.204 45.897 193.061 45.8214C192.91 45.7459 192.793 45.6452 192.684 45.5445C192.474 45.3347 192.306 45.1165 192.163 44.8815C191.886 44.4115 191.685 43.908 191.559 43.3876C191.433 42.8673 191.383 42.3302 191.416 41.7847C191.433 41.5077 191.484 41.2308 191.576 40.9538C191.626 40.8111 191.685 40.6769 191.786 40.5342C191.878 40.3999 192.029 40.2405 192.256 40.1985C192.482 40.1649 192.658 40.2656 192.776 40.358C192.902 40.4587 192.977 40.5678 193.061 40.6769C193.212 40.9035 193.313 41.1384 193.414 41.3734C193.59 41.8518 193.716 42.3386 193.842 42.8253ZM193.842 42.8253C193.724 42.3386 193.531 41.8686 193.271 41.4406C193.145 41.2308 192.986 41.0377 192.818 40.8699C192.658 40.7104 192.407 40.6097 192.356 40.6685C192.314 40.702 192.239 40.8867 192.23 41.0965C192.205 41.3063 192.23 41.5329 192.247 41.7679C192.298 42.2295 192.39 42.6911 192.499 43.1442C192.617 43.5974 192.734 44.059 192.902 44.487C192.986 44.6968 193.078 44.915 193.196 45.0913C193.305 45.2759 193.456 45.4102 193.514 45.4186C193.59 45.4522 193.766 45.2424 193.833 45.0325C193.909 44.8143 193.959 44.5626 193.976 44.3192C194.01 43.824 193.959 43.3205 193.842 42.8253Z" fill="#121B46"/>
<path d="M186.675 22.1296C188.882 22.608 190.963 23.6403 192.785 25.025C193.683 25.73 194.497 26.5525 195.202 27.4588C195.923 28.3652 196.494 29.3387 197.098 30.2955C199.423 34.1896 201.261 38.3606 202.671 42.6827C203.334 44.8564 203.829 47.0888 204.139 49.3463C204.45 51.6039 204.5 53.9202 204.123 56.1946C203.737 58.4437 203.082 60.6845 201.79 62.6148C201.11 63.5463 200.22 64.3688 199.138 64.7884C198.063 65.2248 196.83 65.1829 195.789 64.7465C196.326 64.9227 196.888 64.9815 197.442 64.9395C197.996 64.9143 198.542 64.7716 199.037 64.545C200.036 64.0835 200.808 63.261 201.395 62.3462C202.537 60.4747 203.099 58.2591 203.376 56.0855C203.93 51.6878 203.04 47.2147 201.731 42.9765C200.422 38.7131 198.592 34.5924 196.444 30.6815C195.89 29.7164 195.353 28.7177 194.706 27.8365C194.06 26.9469 193.313 26.1244 192.474 25.4027C190.812 23.9256 188.815 22.8178 186.675 22.1296Z" fill="#121B46"/>
<path d="M154.406 90.1336C154.406 90.1336 151.15 82.9664 151.469 81.3299C151.796 79.7018 155.505 75.707 157.251 76.3616C159.005 77.0162 156.311 82.0684 156.311 82.0684C156.311 82.0684 160.667 87.3641 160.18 90.0581C159.702 92.7436 154.406 90.1336 154.406 90.1336Z" fill="#F7BB8B"/>
<path d="M122.59 84.3596C122.59 84.3596 136.807 91.8876 139.249 94.8166C141.691 97.754 148.212 111.601 148.212 111.601L134.029 130.669C134.029 130.678 118.889 108.102 122.59 84.3596Z" fill="#FDB32C"/>
<path d="M125.41 89.3027C124.806 88.2956 124.613 87.3053 124.713 86.3905C123.908 85.8115 123.194 85.1652 122.548 84.3847C122.296 83.4784 121.717 81.2628 121.281 78.7702C120.895 76.5378 120.618 74.0872 120.811 72.157V72.1486C120.903 71.2002 121.104 70.3778 121.465 69.7735L99.8632 57.6296C99.88 57.7052 99.8884 57.7639 99.9052 57.8394C100.249 59.8452 102.851 75.5811 100.182 83.9316C98.554 84.6785 96.5566 85.2072 94.0808 85.2995C91.412 85.3918 88.7936 86.3402 86.8549 88.1697C84.7568 90.142 82.8937 93.4654 82.8601 99.0044C84.8407 99.2478 86.8129 99.6422 88.7852 99.9947C94.6767 101.052 100.56 102.185 106.468 103.159C114.08 104.418 121.893 104.694 129.598 105.55C129.254 99.8101 128.121 93.8598 125.41 89.3027Z" fill="#F7BB8B"/>
<path d="M121.273 78.7703C109.531 80.2557 103.581 66.232 103.363 65.7032C105.528 69.1441 108.675 70.8898 111.747 71.7122C115.524 72.7445 119.191 72.4004 120.735 72.1738C120.761 72.1654 120.786 72.1654 120.811 72.157C120.618 74.0873 120.886 76.5379 121.273 78.7703Z" fill="#EBA771"/>
<path d="M99.6451 83.7385C99.6451 83.7385 113.501 99.0547 117.571 96.6125C121.642 94.1703 122.674 84.8212 122.674 84.8212C122.674 84.8212 136.639 96.9314 138.594 100.842C140.55 104.753 140.39 112.416 135.498 124.475C130.605 136.535 132.443 152.833 132.443 152.833H87.7446C87.7446 152.833 91.4961 145.012 90.3547 135.881C89.2133 126.758 78.4542 97.5777 78.4542 97.5777C78.4542 97.5777 76.3393 84.2253 99.6451 83.7385Z" fill="#FDB32C"/>
<path d="M99.2339 85.3668C100.333 86.5585 101.433 87.7502 102.591 88.8748C103.724 90.0246 104.89 91.1408 106.107 92.1982C107.324 93.2473 108.558 94.2879 109.867 95.1859C111.168 96.1007 112.544 96.9232 113.996 97.4687C115.448 98.0226 116.992 98.1904 118.385 97.5946C119.779 97.049 120.811 95.8237 121.541 94.4474C122.271 93.0542 122.699 91.5016 122.993 89.9239C123.312 88.3461 123.454 86.7347 123.513 85.115C123.773 88.3377 123.564 91.6947 122.212 94.7747C121.541 96.2937 120.383 97.7372 118.746 98.4422C117.941 98.7947 117.051 98.9541 116.17 98.9122C115.297 98.8702 114.449 98.6688 113.66 98.3834C112.083 97.7792 110.656 96.9064 109.33 95.9329C108.004 94.9509 106.762 93.8851 105.595 92.7437C103.262 90.4778 101.114 88.0104 99.2339 85.3668Z" fill="#121B46"/>
<path d="M131.478 103.402C132.241 105.567 133.274 107.565 134.331 109.587C135.372 111.602 136.362 113.792 136.589 116.159C136.832 118.509 136.513 120.858 135.9 123.082C135.288 125.315 134.398 127.43 133.441 129.494C134.046 127.287 134.692 125.105 135.162 122.898C135.615 120.699 135.867 118.458 135.623 116.259C135.43 114.061 134.558 111.988 133.651 109.906C133.198 108.866 132.736 107.808 132.359 106.726C131.998 105.635 131.671 104.535 131.478 103.402Z" fill="#121B46"/>
<path d="M110.564 129.033C112.133 128.47 113.812 128.361 115.457 128.487C117.093 128.638 118.73 129.033 120.181 129.855C118.52 129.78 116.959 129.578 115.373 129.461C113.786 129.31 112.209 129.234 110.564 129.033Z" fill="#121B46"/>
<path d="M73.8215 125.055C72.9067 124.199 71.9836 123.359 71.0772 122.503C66.8726 118.517 62.5337 114.724 58.371 110.754C57.2129 112.013 56.0379 113.314 54.8462 114.656C52.1606 117.686 49.4247 120.926 46.6887 124.35C43.2059 128.722 43.0632 134.874 46.3447 139.406C48.5183 142.402 50.8011 145.381 53.2181 148.302C60.2425 156.812 68.2909 164.843 77.4471 171.498L83.1539 166.102C83.1539 166.102 75.1475 151.81 65.555 134.311C68.3832 131.131 71.1527 128.017 73.8215 125.055Z" fill="#F7BB8B"/>
<path d="M77.0693 169.879C77.0693 169.879 80.099 182.316 83.1874 185.9C83.3888 186.126 83.7162 186.042 83.7833 185.749C83.926 185.119 83.8756 183.743 82.7426 180.764C82.7426 180.764 86.6367 186.303 87.8368 186.512C89.037 186.722 85.0925 178.984 85.0925 178.984C85.0925 178.984 90.128 184.742 91.219 184.481C92.31 184.23 87.5011 177.054 87.5011 177.054C87.5011 177.054 93.0318 182.685 93.4178 182.165C94.3745 180.873 86.8214 172.757 87.7613 172.052C88.5922 171.431 91.0847 172.556 92.2597 173.353C92.503 173.521 92.822 173.445 92.9562 173.177C93.2164 172.648 93.3759 171.725 92.2009 170.81C90.3881 169.392 86.4269 166.396 80.4767 165.464L77.0693 169.879Z" fill="#F7BB8B"/>
<path d="M61.8289 130.51C62.7268 130.862 63.415 131.424 64.0445 132.037C64.6571 132.675 65.2194 133.355 65.5719 134.253C64.6739 133.9 63.9857 133.338 63.3563 132.725C62.7436 132.096 62.1813 131.408 61.8289 130.51Z" fill="#121B46"/>
<path d="M54.4934 114.052L70.7915 129.049L91.3278 107.858C91.3278 107.858 92.6622 85.8702 88.2562 85.4758C81.7101 84.8799 60.687 105.089 54.4934 114.052Z" fill="#FDB32C"/>
<path d="M84.4043 114.95L92.7128 107.12L86.687 122.201L84.4043 114.95Z" fill="#121B46"/>
<path d="M132.325 52.4683C132.082 46.0985 131.31 39.544 129.119 33.9126C126.299 26.6616 112.997 23.8333 103.732 31.8985C99.4267 35.6415 98.5204 42.431 98.7721 48.6246C98.5455 48.5155 98.3441 48.4316 98.2182 48.398C96.3299 47.928 94.4332 49.3463 93.8709 51.1255C93.4178 52.5355 93.7283 54.1384 94.5339 55.3805C95.2053 56.4128 96.2964 57.3779 97.4545 57.8227C97.7483 57.9318 99.0491 58.15 99.9722 58.0745C100.862 62.1532 102.935 65.913 106.149 68.5818C110.203 71.9472 115.389 73.2984 120.551 72.2241C124.562 71.3933 130.496 68.8252 131.973 64.6542C132.359 63.5631 132.392 62.3966 132.409 61.2468C132.417 60.9783 132.417 60.7181 132.417 60.4495C132.434 57.8731 132.434 55.1791 132.325 52.4683Z" fill="#F7BB8B"/>
<path d="M132.409 60.4412C132.073 60.5335 131.713 60.5755 131.352 60.5755C129.077 60.5755 127.231 58.7291 127.231 56.4548C127.231 54.1804 129.077 52.3341 131.352 52.3341C131.687 52.3341 132.015 52.3761 132.325 52.4516C132.434 55.1791 132.434 57.8731 132.409 60.4412Z" fill="#EBA771"/>
<path d="M106.72 56.4631C106.72 58.7375 108.566 60.5838 110.841 60.5838C113.115 60.5838 114.961 58.7375 114.961 56.4631C114.961 54.1887 113.115 52.3424 110.841 52.3424C108.566 52.3424 106.72 54.1887 106.72 56.4631Z" fill="#EBA771"/>
<path d="M125.065 48.4652C125.065 49.808 125.594 50.899 126.257 50.899C126.912 50.899 127.449 49.808 127.449 48.4652C127.449 47.1224 126.92 46.0314 126.257 46.0314C125.594 46.0314 125.065 47.1224 125.065 48.4652Z" fill="#121B46"/>
<path d="M128.683 45.2593C128.481 45.6537 128.221 45.9978 127.877 46.3C127.541 46.6021 127.113 46.8371 126.635 46.9462L126.618 46.9546C126.383 47.0049 126.148 46.8623 126.089 46.6273C126.039 46.3923 126.182 46.1573 126.417 46.0985C126.459 46.0901 126.492 46.0901 126.534 46.0901C127.197 46.1153 127.936 45.7125 128.439 45.125L128.448 45.1166C128.498 45.0579 128.59 45.0495 128.649 45.0998C128.699 45.1334 128.708 45.2005 128.683 45.2593Z" fill="#121B46"/>
<path d="M111.646 48.137C112.149 48.7245 112.888 49.1273 113.551 49.1022C113.794 49.0938 113.996 49.2784 114.013 49.5218C114.021 49.7652 113.836 49.9666 113.593 49.9834C113.551 49.9834 113.517 49.9834 113.475 49.975L113.45 49.9666C112.972 49.8575 112.544 49.6225 112.208 49.3204C111.872 49.0182 111.604 48.6742 111.403 48.2797C111.369 48.2126 111.394 48.1202 111.461 48.0867C111.52 48.0531 111.596 48.0699 111.637 48.1202L111.646 48.137Z" fill="#121B46"/>
<path d="M113.232 49.1617C113.643 48.7169 114.08 48.4232 114.592 48.205C115.095 47.9868 115.657 47.8777 116.211 47.9196C116.757 47.97 117.286 48.1294 117.747 48.3728C117.982 48.4903 118.192 48.6498 118.41 48.784L118.998 49.2708C119.107 49.3631 119.124 49.531 119.031 49.6401C118.947 49.7492 118.788 49.766 118.679 49.6904L118.654 49.6736L118.083 49.2708C117.873 49.1701 117.68 49.0358 117.47 48.9603C117.051 48.7757 116.614 48.6917 116.186 48.6833C115.758 48.6833 115.339 48.8008 114.961 48.9939C114.592 49.1785 114.222 49.489 113.996 49.7827L113.971 49.8163C113.803 50.0261 113.492 50.0597 113.282 49.8918C113.073 49.724 113.039 49.4135 113.207 49.2037C113.215 49.1869 113.224 49.1785 113.232 49.1617Z" fill="#121B46"/>
<path d="M125.569 55.8336C125.158 56.6393 124.529 57.3275 123.773 57.873C123.018 58.4185 122.078 58.7626 121.113 58.7542C120.148 58.729 119.199 58.4017 118.461 57.8394C118.075 57.5876 117.764 57.2268 117.437 56.9246C117.16 56.5638 116.883 56.2029 116.64 55.8336C117.009 56.1022 117.345 56.3875 117.68 56.6645C118.058 56.8911 118.394 57.168 118.771 57.361C119.51 57.7807 120.316 58.0157 121.121 58.0324C121.935 58.0492 122.741 57.7975 123.488 57.3946C124.218 56.9918 124.915 56.4547 125.569 55.8336Z" fill="#121B46"/>
<path d="M122.355 60.1558C122.019 60.4579 121.549 60.567 121.104 60.5838C120.651 60.567 120.198 60.4495 119.854 60.1558C120.29 60.2229 120.693 60.3152 121.104 60.2984C121.516 60.3152 121.919 60.2397 122.355 60.1558Z" fill="#121B46"/>
<path d="M118.125 40.014C117.571 39.5188 116.942 39.3593 116.279 39.3342C115.624 39.3174 114.953 39.3929 114.315 39.6111C113.669 39.8041 113.081 40.165 112.586 40.6014C112.066 41.021 111.705 41.5749 111.403 42.1121C111.252 42.389 111.353 42.7331 111.621 42.8842C111.839 43.0101 112.108 42.9681 112.284 42.8086L112.335 42.7667C112.721 42.4142 113.09 42.0785 113.509 41.8351C113.912 41.5666 114.357 41.4155 114.81 41.298C115.263 41.1889 115.733 41.1385 116.22 41.1637C116.699 41.1805 117.202 41.2057 117.722 41.0798L117.874 41.0462C118.192 40.9707 118.385 40.6434 118.31 40.3245C118.276 40.1986 118.209 40.0895 118.125 40.014Z" fill="#121B46"/>
<path d="M124.075 40.014C124.629 39.5188 125.259 39.3593 125.922 39.3342C126.576 39.3174 127.248 39.3929 127.885 39.6111C128.532 39.8041 129.119 40.165 129.614 40.6014C130.135 41.021 130.495 41.5749 130.798 42.1121C130.949 42.389 130.848 42.7331 130.579 42.8842C130.361 43.0101 130.093 42.9681 129.916 42.8086L129.866 42.7667C129.48 42.4142 129.111 42.0785 128.691 41.8351C128.288 41.5666 127.843 41.4155 127.39 41.298C126.937 41.1889 126.467 41.1385 125.98 41.1637C125.502 41.1805 124.998 41.2057 124.478 41.0798L124.327 41.0462C124.008 40.9707 123.815 40.6434 123.891 40.3245C123.916 40.1986 123.983 40.0895 124.075 40.014Z" fill="#121B46"/>
<path d="M121.373 44.7472C121.583 45.662 121.742 46.5767 121.91 47.4831C122.086 48.3811 122.254 49.2791 122.506 50.1351C122.565 50.3533 122.632 50.5632 122.707 50.7646C122.766 50.9324 122.917 51.2513 122.917 51.5535C122.951 52.1577 122.556 52.762 122.061 52.997C121.558 53.2823 120.97 53.2403 120.509 53.0809C120.039 52.913 119.636 52.6613 119.275 52.3424C120.131 52.6613 121.13 52.913 121.725 52.4598C122.028 52.2332 122.187 51.9227 122.145 51.587C122.128 51.4192 122.078 51.3101 121.969 51.0499C121.877 50.8233 121.793 50.5883 121.725 50.3617C121.465 49.4302 121.331 48.4986 121.281 47.5587C121.23 46.6187 121.256 45.6788 121.373 44.7472Z" fill="#121B46"/>
<path d="M95.3647 52.4432C95.3479 51.8809 95.5074 51.2682 96.0025 50.8318C96.5313 50.4038 97.2698 50.4458 97.8405 50.6556C98.4447 50.8654 98.9399 51.2766 99.3259 51.7382C99.7204 52.2082 100.014 52.7117 100.249 53.2908C100.333 53.5006 100.232 53.7356 100.023 53.8195C99.8631 53.8867 99.6952 53.8447 99.5777 53.7272L99.5525 53.702C99.1581 53.2992 98.6629 52.8712 98.1846 52.7369C97.9496 52.6782 97.7733 52.6866 97.6139 52.7957C97.446 52.9132 97.3118 53.1649 97.2027 53.4251C96.9928 53.9622 96.867 54.5833 97.3285 54.835C97.8069 55.1036 98.5035 55.0448 99.1329 54.9609C98.5454 55.2211 97.8908 55.4393 97.1523 55.2295C96.7746 55.1036 96.4809 54.684 96.4557 54.2979C96.4222 53.9119 96.4725 53.5594 96.5732 53.2153C96.6739 52.8796 96.8166 52.5187 97.1523 52.2166C97.488 51.9145 98.0251 51.8389 98.4028 51.9564C99.1749 52.1914 99.6952 52.6362 100.182 53.1481L99.4854 53.5594C99.1161 52.6278 98.5035 51.6543 97.6139 51.2179C97.1691 51.0081 96.6488 50.899 96.2291 51.134C95.7759 51.3689 95.5074 51.9061 95.3647 52.4432Z" fill="#121B46"/>
<path d="M130.336 36.0191C129.807 33.728 128.859 31.6047 127.239 29.8423C123.79 26.0657 118.276 25.0418 113.165 24.9243C109.724 24.8404 106.183 25.0922 103.086 26.5944C98.193 28.9527 95.2557 33.9462 91.6637 38.0165C86.3009 44.1011 79.0079 48.44 71.1106 50.2611C64.6484 51.7466 57.9261 51.5619 51.3128 52.1578C44.6996 52.7453 37.8681 54.2727 32.7907 58.5528C28.8379 61.8763 26.1355 66.7355 21.528 69.077C18.9767 70.3862 16.0646 70.7806 13.2027 71.1583L8.52814 71.7626C1.65473 72.6689 -2.23936 80.3564 1.37778 86.2815C1.39457 86.3234 1.42814 86.357 1.44492 86.4074C3.81998 90.2175 7.64694 93.1801 9.09044 97.4434C10.4081 101.346 9.50167 105.618 9.81219 109.722C10.3241 116.175 13.9916 122.159 19.0607 126.179C24.1381 130.199 30.508 132.356 36.945 133.061C39.3032 133.321 41.6783 133.397 44.0534 133.279C43.7428 130.149 44.6324 126.926 46.697 124.333C49.4329 120.909 52.1772 117.678 54.8544 114.631C54.8964 114.581 54.9384 114.53 54.9887 114.488L54.5019 114.035C60.6956 105.081 81.7186 84.8632 88.2564 85.459C89.8341 85.0981 91.3112 85.1065 92.6456 85.4087C93.1156 85.3331 93.5939 85.2912 94.0723 85.2744C96.5481 85.1905 98.5539 84.6701 100.174 83.9232C102.767 75.8245 100.4 60.7936 99.9302 58.0493C99.0071 58.1248 97.7398 57.915 97.4461 57.8059C96.2879 57.3695 95.1969 56.396 94.5339 55.3637C93.7198 54.1216 93.4177 52.5271 93.8709 51.1088C94.3912 49.4722 96.0529 48.1546 97.7902 48.3225C98.6042 49.7156 99.5945 50.9996 100.736 52.1326C101.088 52.4851 101.516 52.846 102.02 52.8124C102.666 52.7789 103.086 52.1326 103.388 51.5536C103.782 50.815 104.454 50.0597 104.848 49.3212C109.489 49.5897 114.206 47.5252 117.16 43.9332C118.066 42.8338 118.805 41.6085 119.543 40.3916C120.534 38.7635 121.516 37.1353 122.506 35.5072C124.696 37.9494 128.162 42.3722 131.419 42.7583C131.419 42.7918 131.528 39.5775 130.336 36.0191Z" fill="#121B46"/>
</svg>
