<svg width="206" height="197" viewBox="0 0 206 197" fill="none" xmlns="http://www.w3.org/2000/svg">
<path d="M205.908 83.0388C205.908 136.334 159.122 179.539 101.408 179.539C43.6944 179.539 0 154.834 0 101.539C0 48.2431 60.5 67.5389 97.5 35.0387C134.5 2.53857 205.908 29.7434 205.908 83.0388Z" fill="#88B5CE"/>
<path d="M47.0891 121.817L44.2786 114.101C44.2786 114.101 55.6302 99.9189 72.0467 91.7865C88.4633 83.6443 108.088 81.3335 125.269 86.917C142.45 92.5006 154.289 102.14 151.617 106.464C148.946 110.788 118.407 136.961 118.407 136.961L60.0893 135.81L47.0891 121.817Z" fill="#B3EDEE"/>
<path d="M87.927 86.5898C88.1853 94.8114 88.4435 103.043 88.7017 111.265C88.7414 112.415 88.7712 113.575 88.8109 114.726C88.8805 116.908 92.277 116.918 92.2174 114.726C91.9592 106.504 91.701 98.2726 91.4428 90.051C91.403 88.9006 91.3732 87.7402 91.3335 86.5898C91.264 84.408 87.8675 84.398 87.927 86.5898Z" fill="white" stroke="#020106" stroke-miterlimit="10"/>
<path d="M116.659 86.5898C116.917 94.8114 117.175 103.043 117.433 111.265C117.473 112.415 117.503 113.575 117.542 114.726C117.612 116.908 121.008 116.918 120.949 114.726C120.691 106.504 120.432 98.2726 120.174 90.051C120.135 88.9006 120.105 87.7402 120.065 86.5898C119.986 84.408 116.589 84.398 116.659 86.5898Z" fill="white" stroke="#020106" stroke-miterlimit="10"/>
<path d="M140.395 168.984L134.853 148.475C134.853 148.475 122.548 133.986 123.611 108.815H86.1694C86.1694 108.815 84.0242 141.394 73.6757 149.655L70.1699 169.699L140.395 168.984Z" fill="white" stroke="#020106" stroke-miterlimit="10"/>
<path d="M112.934 79.5186C108.972 78.15 105.059 78.2987 102.556 79.6475C100.053 78.2888 96.1402 78.1401 92.1775 79.5186C86.3279 81.5418 82.6037 86.0939 83.8451 89.6841C85.0865 93.2742 90.8368 94.5536 96.6864 92.5304C99.06 91.7072 101.066 90.4675 102.556 89.0493C104.036 90.4675 106.052 91.7072 108.425 92.5304C114.275 94.5536 120.025 93.2742 121.267 89.6841C122.508 86.0939 118.784 81.5418 112.934 79.5186Z" fill="white" stroke="#020106" stroke-miterlimit="10"/>
<path d="M138.19 71.6342C138.19 43.8255 122.349 21.283 102.804 21.283C83.2594 21.283 67.4089 43.8255 67.4089 71.6342C67.4089 72.9433 67.4586 74.2326 67.5281 75.5218H138.081C138.14 74.2326 138.19 72.9433 138.19 71.6342Z" fill="#020106"/>
<path d="M101.632 20.4896C107.298 20.4896 111.892 15.9028 111.892 10.2448C111.892 4.58675 107.298 0 101.632 0C95.9665 0 91.3733 4.58675 91.3733 10.2448C91.3733 15.9028 95.9665 20.4896 101.632 20.4896Z" fill="#020106"/>
<path d="M109.051 81.4426C108.982 84.3385 106.549 86.6592 103.649 86.5898L101.394 86.5402C98.4942 86.4708 96.1703 84.041 96.2398 81.1451L96.498 70.2953C96.5675 67.3994 99.0007 65.0787 101.901 65.1481L104.155 65.1977C107.055 65.2671 109.379 67.6969 109.31 70.5928L109.051 81.4426Z" fill="#FFFEFD" stroke="#020106" stroke-miterlimit="10"/>
<path d="M128.745 52.4537C128.586 55.2604 126.163 57.3926 123.332 57.234C120.502 57.0753 118.337 54.6653 118.506 51.8686C118.675 49.0719 121.088 46.9297 123.918 47.0884C126.739 47.247 128.904 49.657 128.745 52.4537Z" fill="#FFFEFD" stroke="#020106" stroke-miterlimit="10"/>
<path d="M121.286 52.6719C121.286 52.5628 121.296 52.4636 121.306 52.3546C121.306 52.3248 121.316 52.305 121.316 52.2752C121.306 52.4537 121.306 52.3546 121.316 52.305C121.326 52.2455 121.336 52.176 121.356 52.1165C121.386 51.9777 121.426 51.8388 121.465 51.7C121.485 51.6306 121.515 51.5611 121.545 51.4917C121.594 51.3727 121.495 51.5909 121.555 51.4719C121.574 51.4322 121.594 51.3925 121.614 51.3529C121.654 51.2835 121.694 51.214 121.733 51.1446C121.753 51.1049 121.783 51.0752 121.803 51.0355C121.823 51.0157 121.912 50.8967 121.863 50.9562C121.813 51.0256 121.892 50.9165 121.912 50.8967C121.942 50.8669 121.972 50.8273 122.002 50.7975C122.031 50.7677 122.071 50.7281 122.101 50.6983C122.111 50.6884 122.131 50.6686 122.141 50.6587C122.151 50.6487 122.25 50.5694 122.18 50.619C122.121 50.6686 122.23 50.5892 122.25 50.5694C122.29 50.5396 122.329 50.5198 122.379 50.4901C122.419 50.4603 122.468 50.4405 122.508 50.4206C122.528 50.4107 122.558 50.4008 122.578 50.3909C122.687 50.3413 122.508 50.4107 122.597 50.381C122.717 50.3413 122.826 50.3016 122.945 50.2719C123.005 50.252 123.074 50.2421 123.144 50.2322C123.173 50.2223 123.263 50.2223 123.144 50.2322C123.183 50.2322 123.223 50.2223 123.263 50.2223C123.412 50.2124 123.571 50.2124 123.72 50.2124C123.809 50.2124 123.898 50.2223 123.988 50.2322C124.018 50.2322 124.047 50.2421 124.077 50.2421C124.137 50.252 124.137 50.252 124.097 50.2421C124.127 50.2421 124.167 50.252 124.196 50.262C124.445 50.3016 124.703 50.1925 124.782 49.9347C124.842 49.7066 124.703 49.3892 124.455 49.3495C123.332 49.171 122.111 49.29 121.296 50.1628C120.8 50.6983 120.512 51.4025 120.413 52.1165C120.383 52.305 120.363 52.4934 120.363 52.6719C120.343 53.2769 121.286 53.2868 121.286 52.6719Z" fill="#020202"/>
<path d="M88.557 53.9435C88.7199 51.1439 86.557 48.7412 83.7261 48.577C80.8952 48.4127 78.4683 50.5491 78.3054 53.3487C78.1425 56.1483 80.3054 58.551 83.1363 58.7152C85.9672 58.8795 88.3941 56.7431 88.557 53.9435Z" fill="#FFFEFD" stroke="#020106" stroke-miterlimit="10"/>
<path d="M86.6363 54.4671C86.6859 54.0406 86.6363 53.5745 86.5469 53.158C86.3582 52.315 85.8517 51.5414 85.077 51.1348C84.4513 50.8075 83.7264 50.7083 83.0312 50.748C82.7729 50.7579 82.5544 50.9563 82.5544 51.224C82.5544 51.472 82.7729 51.71 83.0312 51.7001C83.1901 51.6902 83.3589 51.6902 83.5178 51.7001C83.5873 51.7001 83.6568 51.71 83.7264 51.71C83.7661 51.71 83.8058 51.7199 83.8455 51.7199C83.7661 51.71 83.8257 51.7199 83.8654 51.7298C83.9846 51.7497 84.1137 51.7794 84.2329 51.8092C84.2924 51.829 84.352 51.8488 84.4116 51.8687C84.4315 51.8786 84.4513 51.8885 84.4712 51.8885C84.5209 51.9084 84.5109 51.9084 84.4414 51.8786C84.4613 51.8885 84.4811 51.8984 84.501 51.9084C84.5904 51.948 84.6798 51.9976 84.7592 52.0472C84.7989 52.0769 84.8387 52.0968 84.8784 52.1265C84.9082 52.1464 84.9876 52.186 84.8685 52.1166C84.8983 52.1265 84.9181 52.1563 84.938 52.1761C85.0075 52.2356 85.077 52.3051 85.1366 52.3745C85.1664 52.4042 85.1962 52.4439 85.2161 52.4736C85.2757 52.5431 85.1465 52.3844 85.2061 52.4538C85.2161 52.4736 85.2359 52.4935 85.2459 52.5133C85.2955 52.5827 85.3452 52.6621 85.3849 52.7315C85.4048 52.7712 85.4246 52.8108 85.4445 52.8505C85.4544 52.8604 85.4544 52.8803 85.4644 52.8902C85.4743 52.9001 85.4743 52.9199 85.4842 52.9299C85.5041 52.9794 85.4941 52.9596 85.4644 52.8803C85.4644 52.9398 85.5239 53.0389 85.5438 53.0985C85.5736 53.1778 85.5935 53.267 85.6133 53.3464C85.6332 53.4158 85.6431 53.4951 85.663 53.5646C85.6729 53.5943 85.6729 53.634 85.6828 53.6637C85.7027 53.7431 85.6729 53.5348 85.6729 53.6142C85.6729 53.634 85.6729 53.6538 85.6828 53.6737C85.6928 53.8026 85.7027 53.9216 85.7027 54.0505C85.7027 54.1795 85.7027 54.3183 85.6828 54.4571C85.653 54.715 85.9212 54.9332 86.1596 54.9332C86.4476 54.9431 86.6065 54.7249 86.6363 54.4671Z" fill="#020202"/>
<path d="M119.022 57.7596C118.585 65.3069 112.05 71.1284 104.493 70.6921L99.9738 70.4342C92.416 69.9978 86.5863 63.4721 87.0233 55.9249L87.7483 43.3098C88.1853 35.7626 94.7201 29.941 102.278 30.3774L106.797 30.6352C114.354 31.0716 120.184 37.5973 119.747 45.1446L119.022 57.7596Z" fill="white" stroke="#020106" stroke-miterlimit="10"/>
<path d="M103.678 44.371L101.633 51.7199L105.516 51.7794L103.678 44.371Z" fill="#F76A59"/>
<path d="M95.0877 47.3066C95.0182 48.338 94.1144 49.1215 93.0816 49.052C92.0487 48.9826 91.2641 48.0801 91.3336 47.0487C91.4032 46.0173 92.3069 45.2338 93.3398 45.3032C94.3726 45.3727 95.1572 46.2652 95.0877 47.3066Z" fill="#0C0C0C"/>
<path d="M115 47.3066C114.931 48.338 114.027 49.1215 112.994 49.052C111.961 48.9826 111.176 48.0801 111.246 47.0487C111.316 46.0173 112.219 45.2338 113.252 45.3032C114.285 45.3727 115.07 46.2652 115 47.3066Z" fill="#0C0C0C"/>
<path d="M96.0113 55.0521C95.7531 57.2934 93.737 58.9001 91.4925 58.6422C89.248 58.3844 87.6391 56.3711 87.8973 54.1298C88.1555 51.8884 90.1716 50.2818 92.4161 50.5396C94.6507 50.7876 96.2596 52.8107 96.0113 55.0521Z" fill="#FCD9E7"/>
<path d="M118.387 55.0521C118.129 57.2934 116.113 58.9001 113.868 58.6422C111.624 58.3844 110.015 56.3711 110.273 54.1298C110.531 51.8884 112.547 50.2818 114.792 50.5396C117.026 50.7876 118.635 52.8107 118.387 55.0521Z" fill="#FCD9E7"/>
<path d="M101.126 58.4141C101.464 59.2175 102.427 59.753 103.202 60.0208C104.642 60.5067 106.37 60.4076 107.462 59.2472C107.78 58.91 108.098 58.4736 108.197 58.0174C108.336 57.3629 107.333 57.0852 107.194 57.7397C107.184 57.8092 107.155 57.8687 107.135 57.9282C107.184 57.7794 107.075 58.0472 107.045 58.0968C106.906 58.3447 106.827 58.4439 106.598 58.6522C106.092 59.1282 105.347 59.3067 104.622 59.2571C103.887 59.2075 103.013 58.9398 102.507 58.4935C102.417 58.4141 102.328 58.3249 102.248 58.2356C102.229 58.2158 102.119 58.0769 102.209 58.196C102.189 58.1662 102.159 58.1265 102.139 58.0968C102.1 58.0373 102.05 57.9679 102.02 57.8984C101.911 57.6406 101.533 57.5811 101.315 57.71C101.047 57.8588 101.017 58.1563 101.126 58.4141Z" fill="#0C0C0C"/>
<path d="M80.9059 44.3709C80.9059 44.3709 90.2613 45.7792 100.014 39.5808C109.767 33.3823 110.233 31.2798 110.233 31.2798C110.233 31.2798 112.736 41.2469 123.611 42.4271C134.486 43.6073 115.864 26.9855 111.236 25.5078C106.608 24.0301 91.7609 26.9855 87.8579 31.7063C83.9648 36.427 78.6416 40.999 80.9059 44.3709Z" fill="#020106"/>
<path d="M99.7161 152.363C112.607 170.68 145.51 168.578 157.358 161.467C175.473 150.597 181.223 122.561 168.352 104.233L99.7161 152.363Z" fill="#E3D5F8"/>
<path d="M142.583 140.459C161.536 127.169 173.071 110.952 168.349 104.237C163.627 97.5217 144.436 102.852 125.484 116.142C106.531 129.432 94.9957 145.649 99.7177 152.364C104.44 159.079 123.631 153.749 142.583 140.459Z" fill="#FCD9E7" stroke="#020106" stroke-miterlimit="10"/>
<path d="M99.7161 152.363C112.607 170.68 145.51 168.578 157.358 161.467C175.473 150.597 181.223 122.561 168.352 104.233" stroke="#020106" stroke-miterlimit="10"/>
<path d="M163.803 158.789C163.664 159.672 161.121 159.999 158.122 159.523C155.123 159.047 152.819 157.936 152.958 157.054C153.097 156.171 155.639 155.844 158.639 156.32C161.628 156.796 163.942 157.907 163.803 158.789Z" fill="white" stroke="#020106" stroke-miterlimit="10"/>
<path d="M160.992 161.953C160.853 162.836 158.311 163.163 155.311 162.687C152.312 162.211 150.008 161.1 150.147 160.217C150.286 159.335 152.829 159.007 155.828 159.484C158.827 159.969 161.141 161.07 160.992 161.953Z" fill="white" stroke="#020106" stroke-miterlimit="10"/>
<path d="M155.362 164.026C155.262 164.918 152.74 165.365 149.721 165.027C146.702 164.69 144.348 163.698 144.447 162.806C144.546 161.913 147.069 161.467 150.088 161.804C153.097 162.141 155.461 163.143 155.362 164.026Z" fill="white" stroke="#020106" stroke-miterlimit="10"/>
<path d="M167.359 154.396C167.289 155.021 165.869 155.378 164.19 155.189C162.512 155.001 161.201 154.336 161.281 153.712C161.35 153.087 162.77 152.73 164.449 152.918C166.127 153.107 167.428 153.771 167.359 154.396Z" fill="white" stroke="#020106" stroke-miterlimit="10"/>
<path d="M147.665 165.732C147.595 166.356 146.175 166.713 144.497 166.525C142.818 166.337 141.507 165.672 141.587 165.047C141.656 164.422 143.076 164.065 144.755 164.254C146.423 164.442 147.734 165.097 147.665 165.732Z" fill="white" stroke="#020106" stroke-miterlimit="10"/>
<path d="M168.421 112.554C166.117 109.628 162.085 109.112 158.5 110.154C152.293 111.969 151.071 120.29 151.071 120.29C151.071 120.29 142.838 111.731 134.406 120.29C126.561 128.253 132.43 134.204 133.274 134.987C132.341 134.164 125.111 128.055 121.496 134.124C117.632 140.611 123.472 145.678 123.472 145.678C123.472 145.678 117.265 144.201 113.272 149.953C111.942 151.877 111.743 153.483 112.081 154.783C120.383 153.255 131.506 148.227 142.57 140.472C155.828 131.179 165.442 120.458 168.421 112.554Z" fill="#FDE084" stroke="#020106" stroke-miterlimit="10"/>
<path d="M158.013 127.41C158.44 126.964 158.857 126.528 159.255 126.091C157.189 124.445 153.246 122.124 149.472 121.797C147.357 121.618 145.579 122.085 144.169 123.195C144.149 123.176 144.119 123.156 144.099 123.126L142.848 124.435C142.868 124.455 142.888 124.475 142.918 124.495C139.203 129.503 143.295 138.012 144.02 139.42C144.516 139.053 145.013 138.696 145.5 138.329C144.765 136.822 142.401 131.476 143.454 127.519C143.772 130.881 145.817 135.374 146.791 137.348C147.287 136.971 147.774 136.584 148.261 136.197C146.582 132.716 145.261 128.819 145.192 126.726C148.042 129.572 150.306 132.052 151.568 133.46C152.035 133.063 152.481 132.667 152.928 132.27C151.617 130.802 149.234 128.184 146.235 125.199C146.403 125.189 146.592 125.189 146.821 125.209C149.105 125.387 153.137 127.063 155.828 129.572C156.265 129.146 156.692 128.729 157.109 128.303C154.587 125.942 150.962 124.147 148.161 123.582C148.529 123.562 148.906 123.562 149.303 123.592C152.591 123.89 156.196 126.022 158.013 127.41Z" fill="#AE89F0" stroke="#020106" stroke-width="0.5" stroke-miterlimit="10"/>
<path d="M145.738 123.86C142.093 119.437 138.448 115.013 134.803 110.6C128.994 103.559 123.184 96.5073 117.374 89.4659C116.043 87.8493 114.712 86.2328 113.381 84.6162C112.796 83.9022 111.832 83.6245 111.018 84.16C110.303 84.6262 109.985 85.8163 110.561 86.5204C114.206 90.9436 117.851 95.3668 121.495 99.7801C127.305 106.822 133.115 113.873 138.925 120.914C140.256 122.531 141.587 124.147 142.917 125.764C143.503 126.478 144.467 126.756 145.281 126.22C145.996 125.754 146.314 124.564 145.738 123.86Z" fill="#AE89F0" stroke="#020106" stroke-miterlimit="10"/>
<path d="M142.58 140.462C144.576 139.063 146.483 137.625 148.31 136.177C145.261 135.642 138.548 135.076 134.416 139.252C131.884 141.81 131.188 144.915 131.159 147.523C134.893 145.52 138.736 143.159 142.58 140.462Z" fill="#FDE084" stroke="#020106" stroke-miterlimit="10"/>
<path d="M154.567 125.03C150.456 126.676 149.88 132.181 149.85 134.928C154.418 131.159 158.351 127.291 161.46 123.592C160.268 123.503 158.033 123.642 154.567 125.03Z" fill="#FDE084" stroke="#020106" stroke-miterlimit="10"/>
<path d="M66.3167 127.946C66.3167 127.946 83.1405 127.192 87.9374 126.042C92.7243 124.891 96.1903 123.79 96.1903 123.79L106.132 140.214C106.132 140.214 92.625 151.351 77.1717 156.449C77.1717 156.449 62.2051 161.06 53.6145 159.345C45.0238 157.629 37.5753 154.654 35.5294 147.87C33.4935 141.096 32.9969 126.557 44.2789 114.101C55.561 101.654 64.5589 122.075 66.3167 127.946Z" fill="#B3EDEE"/>
<path d="M98.1665 135.076L93.3696 126.944C93.3696 126.944 91.5522 125.377 94.3032 124.425C97.0542 123.463 100.421 121.975 100.421 121.975C100.421 121.975 101.662 121.202 102.963 123.066C104.264 124.931 111.047 133.985 111.047 133.985C111.047 133.985 112.279 136.098 111.047 136.812C109.816 137.526 103.271 142.445 103.271 142.445C103.271 142.445 102.606 142.941 101.464 140.878C100.322 138.825 98.1665 135.076 98.1665 135.076Z" fill="white"/>
<path d="M103.639 123.84C103.639 123.84 100.828 121.936 102.804 120.637C104.781 119.337 114.295 112.147 117.324 109.509C120.353 106.881 127.613 100.514 127.613 100.514C127.613 100.514 130.473 97.8859 131.308 97.9751C132.152 98.0545 132.033 99.6214 131.308 100.613C130.583 101.605 130.215 102.706 130.215 102.706C130.215 102.706 133.115 98.9669 134.237 98.9867C135.36 98.9966 134.466 101.059 133.88 102.091C133.294 103.122 132.529 105.463 132.529 105.463C132.529 105.463 136.8 100.514 137.832 101.059C138.865 101.605 135.399 106.722 135.399 106.722C135.399 106.722 138.488 103.846 139.59 104.005C140.693 104.164 137.634 108.18 133.224 113.794C128.815 119.407 116.162 132.339 116.162 132.339L113.51 134.372C113.51 134.372 112.249 135.949 111.316 134.372C110.362 132.805 104.284 124.574 103.639 123.84Z" fill="white"/>
<path d="M64.8168 127.916C64.8168 127.916 89.7446 128.898 102.794 120.637C115.844 112.375 130.036 97.0229 131.605 98.0147C133.185 98.9965 126.977 106.673 126.977 106.673C126.977 106.673 133.582 98.0147 134.764 98.9965C135.945 99.9784 129.639 108.636 129.639 108.636C129.639 108.636 137.088 99.9784 138.19 101.159C139.292 102.339 131.615 111.582 131.615 111.582C131.615 111.582 138.508 102.924 139.888 104.104C141.269 105.284 121.883 127.906 109.309 137.943C96.7363 147.979 66.7932 167.06 44.1397 156.637C22.1714 146.531 36.135 104.045 83.9745 86.5897" stroke="#020106" stroke-miterlimit="10"/>
<path d="M101.464 121.43C101.464 121.43 108.396 128.65 112.011 135.701" stroke="#020106" stroke-miterlimit="10"/>
<path d="M92.2275 125.03C92.2275 125.03 100.401 138.597 102.556 142.951" stroke="#020106" stroke-miterlimit="10"/>
<path d="M120.811 85.6178C120.811 85.6178 143.99 91.36 151.618 102.874" stroke="#020106" stroke-miterlimit="10"/>
<path d="M34 170.066L186 168.518" stroke="#020106" stroke-miterlimit="10"/>
<path d="M65.7112 186.767C72.0353 186.767 77.1621 182.144 77.1621 176.443C77.1621 170.741 72.0353 166.118 65.7112 166.118C59.387 166.118 54.2603 170.741 54.2603 176.443C54.2603 182.144 59.387 186.767 65.7112 186.767Z" fill="#F76A59" stroke="#020106" stroke-miterlimit="10"/>
<path d="M63.417 169.649C63.417 169.649 58.501 173.993 60.5965 175.57C62.265 176.819 66.2475 171.94 66.2475 171.94C66.2475 171.94 67.2207 177.395 69.3858 176.314C71.5508 175.233 69.2467 170.938 69.2467 170.938C69.2467 170.938 74.5004 172.872 75.5929 170.413C76.6754 167.953 70.8755 167.884 70.8755 167.884C70.8755 167.884 75.0963 165.751 73.3484 163.272C71.9679 161.308 66.0091 167.447 66.0091 167.447C66.0091 167.447 57.627 162.439 56.9417 165.742C56.2863 168.975 63.417 169.649 63.417 169.649Z" fill="#46B7A1" stroke="#020106" stroke-miterlimit="10"/>
<path d="M67.2602 168.142C66.8332 166.346 66.3962 164.551 65.9691 162.756C65.9095 162.508 65.85 162.251 65.7904 162.003C65.6613 161.477 64.9959 161.09 64.4198 161.239C63.814 161.398 63.4565 161.913 63.5856 162.479C64.0127 164.274 64.4496 166.069 64.8767 167.864C64.9363 168.112 64.9959 168.37 65.0554 168.618C65.1846 169.143 65.85 169.53 66.426 169.381C67.0318 169.223 67.3993 168.707 67.2602 168.142Z" fill="#46B7A1" stroke="#020106" stroke-width="0.75" stroke-miterlimit="10"/>
<path d="M102.376 187.834C105.493 183.609 104.225 177.393 99.5445 173.949C94.8636 170.505 88.5421 171.137 85.4251 175.362C82.3081 179.586 83.5759 185.803 88.2568 189.247C92.9377 192.691 99.2591 192.059 102.376 187.834Z" fill="#F76A59" stroke="#020106" stroke-miterlimit="10"/>
<path d="M98.3852 173.953C98.3852 173.953 92.8732 171.494 92.3469 173.844C91.9297 175.718 97.541 177.196 97.541 177.196C97.541 177.196 93.34 180.082 95.0681 181.48C96.7961 182.879 99.5273 179.328 99.5273 179.328C99.5273 179.328 99.9047 184.466 102.378 184.436C104.85 184.406 102.715 179.527 102.715 179.527C102.715 179.527 106.112 182.254 107.532 179.844C108.654 177.94 101.245 175.292 101.245 175.292C101.245 175.292 102.258 166.376 99.2293 167.06C96.24 167.735 98.3852 173.953 98.3852 173.953Z" fill="#46B7A1" stroke="#020106" stroke-miterlimit="10"/>
<path d="M101.106 176.601C102.447 175.56 103.788 174.518 105.129 173.477C105.317 173.328 105.506 173.18 105.695 173.041C106.092 172.733 106.161 172.029 105.814 171.603C105.456 171.156 104.88 171.047 104.463 171.375C103.122 172.416 101.782 173.457 100.441 174.499C100.252 174.647 100.064 174.796 99.8749 174.935C99.4776 175.242 99.4081 175.947 99.7557 176.373C100.113 176.819 100.689 176.928 101.106 176.601Z" fill="#46B7A1" stroke="#020106" stroke-width="0.75" stroke-miterlimit="10"/>
<path d="M132.937 195.325C132.937 195.325 126.512 199.084 120.007 191.706C118.269 189.742 117.057 186.886 117.057 186.886L119.123 182.333L123.115 184.109L124.903 180.419L128.21 178.942L130.127 181.59L132.937 178.277L135.152 179.527C135.152 179.537 140.475 190.753 132.937 195.325Z" fill="#FAE9EF" stroke="#020106" stroke-miterlimit="10"/>
<path d="M121.288 188.74C121.506 189.008 121.725 189.286 121.943 189.553C121.993 189.603 122.042 189.633 122.102 189.653C122.162 189.682 122.221 189.702 122.291 189.692C122.41 189.692 122.559 189.643 122.638 189.544C122.728 189.444 122.787 189.325 122.787 189.196C122.777 189.157 122.777 189.107 122.767 189.067C122.748 188.988 122.698 188.909 122.638 188.849C122.42 188.582 122.201 188.304 121.983 188.036C121.933 187.986 121.884 187.957 121.824 187.937C121.764 187.907 121.705 187.887 121.635 187.897C121.516 187.897 121.367 187.947 121.288 188.046C121.198 188.145 121.139 188.264 121.139 188.393C121.149 188.433 121.149 188.482 121.159 188.522C121.188 188.601 121.228 188.681 121.288 188.74Z" fill="#C9727B"/>
<path d="M126.104 192.558C126.194 192.638 126.283 192.727 126.353 192.816C126.323 192.787 126.303 192.747 126.273 192.717C126.343 192.806 126.402 192.896 126.452 192.995C126.482 193.054 126.522 193.104 126.581 193.134C126.631 193.173 126.68 193.203 126.75 193.223C126.819 193.243 126.879 193.243 126.949 193.233C127.018 193.233 127.078 193.213 127.137 193.173C127.247 193.104 127.336 193.005 127.366 192.876C127.376 192.836 127.376 192.787 127.386 192.747C127.386 192.658 127.366 192.578 127.316 192.499C127.247 192.36 127.157 192.241 127.058 192.112C126.988 192.023 126.909 191.934 126.819 191.864C126.77 191.815 126.72 191.785 126.661 191.765C126.601 191.735 126.541 191.715 126.472 191.725C126.402 191.725 126.343 191.735 126.283 191.765C126.224 191.785 126.164 191.815 126.124 191.864C126.035 191.963 125.975 192.082 125.975 192.211C125.985 192.251 125.985 192.301 125.995 192.34C125.995 192.43 126.035 192.499 126.104 192.558Z" fill="#C9727B"/>
<path d="M126.075 186.876C126.174 187.074 126.263 187.272 126.363 187.471C126.392 187.53 126.432 187.58 126.492 187.61C126.541 187.649 126.591 187.679 126.661 187.699C126.73 187.719 126.79 187.719 126.859 187.709C126.929 187.709 126.988 187.689 127.048 187.649C127.157 187.58 127.247 187.481 127.276 187.352C127.286 187.312 127.286 187.262 127.296 187.223C127.296 187.134 127.276 187.054 127.227 186.975C127.127 186.776 127.038 186.578 126.939 186.38C126.909 186.32 126.869 186.271 126.81 186.241C126.76 186.201 126.71 186.172 126.641 186.152C126.571 186.132 126.512 186.132 126.442 186.142C126.373 186.142 126.313 186.162 126.253 186.201C126.144 186.271 126.055 186.37 126.025 186.499C126.015 186.538 126.015 186.588 126.005 186.628C126.005 186.717 126.035 186.796 126.075 186.876Z" fill="#C9727B"/>
<path d="M131.239 192.261C131.259 192.301 131.278 192.34 131.288 192.38C131.278 192.34 131.259 192.301 131.239 192.261C131.368 192.558 131.457 192.856 131.507 193.163C131.527 193.282 131.636 193.401 131.735 193.461C131.845 193.52 132.003 193.55 132.123 193.511C132.242 193.471 132.361 193.401 132.421 193.282C132.44 193.243 132.45 193.203 132.47 193.163C132.49 193.074 132.49 192.985 132.47 192.896C132.401 192.499 132.272 192.122 132.103 191.755C132.053 191.646 131.914 191.557 131.805 191.527C131.686 191.497 131.527 191.507 131.417 191.577C131.308 191.646 131.219 191.745 131.189 191.874C131.179 191.914 131.179 191.963 131.169 192.003C131.169 192.102 131.199 192.182 131.239 192.261Z" fill="#C9727B"/>
<path d="M132.739 188.016C132.739 188.334 132.818 188.641 132.957 188.929C132.987 188.988 133.027 189.038 133.086 189.068C133.136 189.107 133.185 189.137 133.255 189.157C133.324 189.177 133.384 189.177 133.454 189.167C133.523 189.167 133.583 189.147 133.642 189.107C133.752 189.038 133.841 188.939 133.871 188.81C133.881 188.77 133.881 188.72 133.891 188.681C133.891 188.591 133.871 188.512 133.821 188.433C133.801 188.403 133.791 188.373 133.771 188.334C133.791 188.373 133.801 188.413 133.821 188.453C133.771 188.344 133.742 188.225 133.722 188.096C133.732 188.135 133.732 188.185 133.742 188.225C133.732 188.155 133.732 188.086 133.732 188.016C133.732 187.887 133.672 187.758 133.583 187.669C133.533 187.62 133.483 187.59 133.424 187.57C133.364 187.54 133.305 187.52 133.235 187.53C133.106 187.54 132.977 187.58 132.887 187.679C132.788 187.768 132.739 187.887 132.739 188.016Z" fill="#C9727B"/>
<path d="M130.901 183.801C130.981 184.099 131.06 184.386 131.15 184.684C131.179 184.803 131.269 184.922 131.378 184.981C131.487 185.041 131.646 185.071 131.765 185.031C131.885 184.991 132.004 184.922 132.063 184.803C132.123 184.684 132.153 184.555 132.113 184.416C132.034 184.119 131.954 183.831 131.865 183.534C131.835 183.414 131.746 183.295 131.636 183.236C131.527 183.176 131.368 183.147 131.249 183.186C131.13 183.226 131.011 183.295 130.951 183.415C130.891 183.534 130.872 183.672 130.901 183.801Z" fill="#C9727B"/>
<path d="M133.94 185.348C133.989 185.497 134.039 185.646 134.089 185.795C134.109 185.864 134.138 185.914 134.178 185.963C134.218 186.013 134.258 186.062 134.317 186.092C134.377 186.132 134.436 186.152 134.506 186.152C134.575 186.162 134.635 186.162 134.705 186.142C134.744 186.122 134.784 186.112 134.824 186.092C134.903 186.052 134.953 185.993 135.002 185.914C135.022 185.874 135.032 185.834 135.052 185.795C135.072 185.705 135.072 185.616 135.052 185.527C135.002 185.378 134.953 185.229 134.903 185.081C134.883 185.011 134.854 184.962 134.814 184.912C134.774 184.862 134.734 184.813 134.675 184.783C134.615 184.743 134.556 184.724 134.486 184.724C134.417 184.714 134.357 184.714 134.287 184.733C134.248 184.753 134.208 184.763 134.168 184.783C134.089 184.823 134.039 184.882 133.989 184.962C133.97 185.001 133.96 185.041 133.94 185.081C133.91 185.17 133.91 185.259 133.94 185.348Z" fill="#C9727B"/>
<path d="M129.074 188.74C129.124 188.889 129.173 189.038 129.223 189.186C129.243 189.256 129.273 189.306 129.312 189.355C129.352 189.405 129.392 189.454 129.451 189.484C129.511 189.524 129.571 189.544 129.64 189.544C129.71 189.553 129.769 189.553 129.839 189.534C129.879 189.514 129.918 189.504 129.958 189.484C130.037 189.444 130.087 189.385 130.137 189.306C130.157 189.266 130.167 189.226 130.186 189.186C130.206 189.097 130.206 189.008 130.186 188.919C130.137 188.77 130.087 188.621 130.037 188.472C130.018 188.403 129.988 188.353 129.948 188.304C129.908 188.254 129.869 188.205 129.809 188.175C129.749 188.135 129.69 188.115 129.62 188.115C129.551 188.105 129.491 188.105 129.422 188.125C129.382 188.145 129.342 188.155 129.303 188.175C129.223 188.215 129.173 188.274 129.124 188.353C129.104 188.393 129.094 188.433 129.074 188.472C129.044 188.562 129.044 188.651 129.074 188.74Z" fill="#C9727B"/>
<path d="M146.98 171.989C146.98 171.989 161.212 171.761 162.443 179.765C163.426 186.162 155.938 189.504 153.872 190.386C151.807 191.269 146.513 192.469 146.037 192.013C145.56 191.567 143.484 188.026 143.484 188.026L140.872 185.448L141.756 180.261L140.276 176.452L143.484 173.18C143.484 173.17 144.716 171.88 146.98 171.989Z" fill="#FAE9EF" stroke="#020106" stroke-miterlimit="10"/>
<path d="M146.652 192.112L151.081 185.219L148.42 181.133C148.42 181.133 151.32 177.553 151.618 176.442C151.916 175.332 146.046 172.029 146.046 172.029" fill="#FAE9EF"/>
<path d="M146.652 192.112L151.081 185.219L148.42 181.133C148.42 181.133 151.32 177.553 151.618 176.442C151.916 175.332 146.046 172.029 146.046 172.029" stroke="#020106" stroke-miterlimit="10"/>
<path d="M153.535 188.353C153.893 188.155 154.26 187.957 154.618 187.758C154.727 187.699 154.816 187.58 154.846 187.461C154.876 187.342 154.866 187.183 154.796 187.074C154.647 186.846 154.359 186.767 154.121 186.895C153.763 187.094 153.396 187.292 153.038 187.491C152.929 187.55 152.84 187.669 152.81 187.788C152.78 187.907 152.79 188.066 152.86 188.175C152.999 188.403 153.287 188.482 153.535 188.353Z" fill="#C9727B"/>
<path d="M158.362 183.633C158.491 183.563 158.62 183.504 158.759 183.434C158.818 183.405 158.868 183.365 158.898 183.305C158.938 183.256 158.967 183.206 158.987 183.137C159.007 183.067 159.007 183.008 158.997 182.938C158.997 182.869 158.977 182.81 158.938 182.75C158.908 182.72 158.888 182.681 158.858 182.651C158.799 182.591 158.719 182.552 158.64 182.522C158.6 182.512 158.55 182.512 158.511 182.502C158.421 182.502 158.342 182.522 158.262 182.571C158.133 182.641 158.004 182.7 157.865 182.77C157.805 182.8 157.756 182.839 157.726 182.899C157.686 182.948 157.656 182.998 157.637 183.067C157.617 183.137 157.617 183.196 157.627 183.266C157.627 183.335 157.647 183.395 157.686 183.454C157.716 183.484 157.736 183.524 157.766 183.553C157.825 183.613 157.905 183.652 157.984 183.682C158.024 183.692 158.074 183.692 158.113 183.702C158.203 183.702 158.282 183.682 158.362 183.633Z" fill="#C9727B"/>
<path d="M153.127 181.441C153.515 181.302 153.912 181.163 154.299 181.034C154.419 180.995 154.528 180.925 154.597 180.806C154.657 180.697 154.687 180.539 154.647 180.419C154.607 180.3 154.538 180.181 154.419 180.122C154.309 180.062 154.16 180.033 154.031 180.072C153.644 180.211 153.247 180.35 152.859 180.479C152.74 180.519 152.631 180.588 152.561 180.707C152.502 180.816 152.472 180.975 152.512 181.094C152.551 181.213 152.621 181.332 152.74 181.391C152.859 181.451 152.998 181.491 153.127 181.441Z" fill="#C9727B"/>
<path d="M159.325 179.844C159.583 179.775 159.851 179.715 160.11 179.646C160.229 179.616 160.348 179.527 160.408 179.418C160.467 179.309 160.497 179.15 160.457 179.031C160.417 178.912 160.348 178.793 160.229 178.733C160.11 178.674 159.98 178.654 159.841 178.684C159.583 178.753 159.315 178.813 159.057 178.882C158.938 178.912 158.818 179.001 158.759 179.11C158.699 179.219 158.67 179.378 158.709 179.497C158.749 179.616 158.818 179.735 158.938 179.795C159.067 179.864 159.196 179.884 159.325 179.844Z" fill="#C9727B"/>
<path d="M155.382 177.97C155.611 177.91 155.839 177.841 156.078 177.781C156.197 177.752 156.316 177.662 156.376 177.553C156.415 177.494 156.435 177.434 156.435 177.365C156.445 177.295 156.445 177.236 156.425 177.166C156.386 177.047 156.316 176.928 156.197 176.869C156.078 176.809 155.949 176.78 155.81 176.819C155.581 176.879 155.353 176.948 155.114 177.008C154.995 177.038 154.876 177.127 154.816 177.236C154.777 177.295 154.757 177.355 154.757 177.424C154.747 177.494 154.747 177.553 154.767 177.623C154.806 177.742 154.876 177.861 154.995 177.92C155.114 177.98 155.253 178.009 155.382 177.97Z" fill="#C9727B"/>
<path d="M154.618 184.327C154.687 184.297 154.747 184.258 154.816 184.228C154.876 184.198 154.926 184.158 154.955 184.099C154.995 184.049 155.025 184 155.045 183.93C155.065 183.861 155.065 183.801 155.055 183.732C155.055 183.662 155.035 183.603 154.995 183.543C154.965 183.514 154.945 183.474 154.916 183.444C154.856 183.385 154.777 183.345 154.697 183.315C154.657 183.305 154.608 183.305 154.568 183.296C154.479 183.296 154.399 183.315 154.32 183.365C154.25 183.395 154.191 183.434 154.121 183.464C154.062 183.494 154.012 183.534 153.982 183.593C153.942 183.643 153.913 183.692 153.893 183.762C153.873 183.831 153.873 183.891 153.883 183.96C153.883 184.029 153.903 184.089 153.942 184.148C153.972 184.178 153.992 184.218 154.022 184.248C154.081 184.307 154.161 184.347 154.24 184.377C154.28 184.386 154.33 184.386 154.369 184.396C154.459 184.396 154.548 184.377 154.618 184.327Z" fill="#C9727B"/>
<path d="M152.989 174.747C153.187 174.747 153.386 174.747 153.585 174.747C153.714 174.747 153.843 174.687 153.932 174.598C153.982 174.548 154.012 174.499 154.031 174.439C154.061 174.38 154.081 174.32 154.071 174.251C154.061 174.122 154.022 173.993 153.922 173.904C153.823 173.814 153.704 173.755 153.575 173.755C153.376 173.755 153.177 173.755 152.979 173.755C152.85 173.755 152.721 173.814 152.631 173.904C152.581 173.953 152.552 174.003 152.532 174.062C152.502 174.122 152.482 174.181 152.492 174.251C152.502 174.38 152.542 174.509 152.641 174.598C152.73 174.687 152.85 174.747 152.989 174.747Z" fill="#C9727B"/>
</svg>
