<svg width="179" height="192" viewBox="0 0 179 192" fill="none" xmlns="http://www.w3.org/2000/svg">
<circle cx="89.5" cy="102.5" r="89.5" fill="#A4E6C2"/>
<ellipse cx="89.5" cy="158" rx="59.5" ry="8" fill="#888888" fill-opacity="0.5"/>
<path d="M37.8682 151.794L27.3242 106.833L41.4492 95.4929H122.021L151.266 109.021L140.523 151.794L133.162 158.16H48.0144L41.4492 155.375L37.8682 151.794Z" fill="#913B16"/>
<path d="M48.7877 159.446C42.1708 159.446 36.485 154.731 35.2595 148.229L27.6161 113.048C20.7088 112.384 15.6357 108.87 13.8174 103.372C10.7974 94.2282 16.905 87.5079 19.8175 84.9415C20.287 77.9188 21.8109 71.0433 24.3455 64.4702C24.7792 61.6213 25.8694 58.6133 27.5883 55.5257L27.6599 55.4063C36.0513 41.6235 48.6246 30.7771 63.0639 24.8605L63.2072 24.8008C64.2377 21.7252 66.434 19.8431 68.4195 18.8285C70.4447 12.9796 77.6704 10.3018 80.9768 9.3628C82.5803 8.90921 84.3509 8.22882 84.6493 7.63198C85.0392 6.1598 77.5749 4.79504 77.5749 4.79504C77.5749 4.79504 81.0325 0.310854 89.1932 0.0084593C94.127 -0.17059 98.834 2.50321 102.435 7.02719C103.43 8.28054 104.205 9.70498 104.715 11.2249C109.271 13.7953 112.565 18.6216 113.13 23.6032C113.158 23.6111 113.293 23.6589 113.293 23.6589C114.244 24.0011 115.199 24.3671 116.254 24.7929L116.381 24.8486C130.848 30.7771 143.421 41.6235 151.817 55.4063L151.888 55.5257C153.607 58.6133 154.697 61.6213 155.131 64.4702C157.666 71.0433 159.186 77.9188 159.659 84.9415C162.58 87.5198 168.675 94.2322 165.659 103.372C163.841 108.87 158.768 112.384 151.86 113.048L144.217 148.229C142.992 154.731 137.302 159.446 130.689 159.446H48.7877ZM141.953 98.6726L131.509 90.3249L121.068 98.6726L110.627 90.3249L100.187 98.6726L89.7423 90.3249L79.3017 98.6726L68.8611 90.3249L58.4206 98.6726L47.976 90.3249L37.5315 98.6726L27.0869 90.3249L38.8803 147.549C39.7795 152.312 43.9414 155.761 48.7877 155.761H130.689C135.539 155.761 139.697 152.312 140.596 147.549L152.394 90.3249L141.953 98.6726Z" fill="#913B16"/>
<path d="M89.7382 90.3248L79.3016 98.6725L83.3043 155.761H89.7382H96.172L100.175 98.6725L89.7382 90.3248ZM47.9759 90.3248L37.5393 98.6725L54.8474 155.761H61.2813H67.7111L58.4125 98.6725L47.9759 90.3248ZM131.5 90.3248L141.937 98.6725L124.629 155.761H118.195H111.765L121.064 98.6725L131.5 90.3248Z" fill="#7E2C11"/>
<g style="mix-blend-mode:multiply" opacity="0.302">
<path d="M27.0869 90.3288L32.9916 118.977C39.9984 118.205 48.4296 114.735 56.5385 108.206C56.5385 108.206 66.8836 121.471 78.677 108.206C78.677 108.206 80.7102 115.022 89.7383 115.022C98.7663 115.022 100.8 108.206 100.8 108.206C112.597 121.471 122.938 108.206 122.938 108.206C122.938 108.206 130.796 112.133 126.833 128.586C121.084 152.435 58.906 155.761 39.4015 149.351C40.8856 153.155 44.578 155.761 48.7877 155.761H130.689C135.539 155.761 139.697 152.312 140.596 147.549L152.39 90.3288V90.3248L141.953 98.6725L134.521 92.736L134.099 92.3938L131.508 90.3248L121.068 98.6725L110.627 90.3248L100.187 98.6725L89.7423 90.3248L79.3017 98.6725L68.8611 90.3248L58.4206 98.6725L53.7812 94.9642L47.976 90.3248L37.5315 98.6725L27.0869 90.3248V90.3288Z" fill="#762D10"/>
</g>
<path d="M156.134 90.5119C156.134 90.5119 156.11 90.496 156.07 90.4642C154.546 55.1437 125.437 26.9733 89.7385 26.9733C54.04 26.9733 24.9306 55.1437 23.4067 90.4642C23.3669 90.496 23.343 90.5119 23.343 90.5119C23.343 90.5119 14.3149 96.8145 17.319 105.902C20.7289 116.219 39.3739 116.036 56.5387 102.214C56.5387 102.214 66.8798 115.483 78.6772 102.214C78.6772 102.214 80.7104 109.034 89.7385 109.034C98.7665 109.034 100.8 102.214 100.8 102.214C112.597 115.483 122.938 102.214 122.938 102.214C140.103 116.036 158.748 116.219 162.158 105.902C165.162 96.8145 156.134 90.5119 156.134 90.5119Z" fill="#913B16"/>
<path d="M156.134 86.8275C156.134 86.8275 156.11 86.8076 156.07 86.7797C154.546 51.4593 125.437 23.2888 89.7385 23.2888C54.04 23.2888 24.9306 51.4593 23.4067 86.7797C23.3669 86.8076 23.343 86.8275 23.343 86.8275C23.343 86.8275 14.3149 93.126 17.319 102.214C20.7289 112.535 39.3739 112.352 56.5387 98.5293C56.5387 98.5293 66.8798 111.799 78.6772 98.5293C78.6772 98.5293 80.7104 105.349 89.7385 105.349C98.7665 105.349 100.8 98.5293 100.8 98.5293C112.597 111.799 122.938 98.5293 122.938 98.5293C140.103 112.352 158.748 112.535 162.158 102.214C165.162 93.126 156.134 86.8275 156.134 86.8275Z" fill="#CD7A48"/>
<path d="M155.103 78.0779C149.612 46.9432 122.449 23.2888 89.7383 23.2888C57.028 23.2888 29.8642 46.9432 24.3734 78.0779C26.8801 80.9745 31.3682 82.6337 37.0501 82.6337C46.3169 82.6337 55.9855 78.4559 63.7443 71.2581C64.4327 72.9571 65.4035 74.8948 66.7524 76.8286C70.2816 81.8817 77.1333 87.9018 89.7383 87.9018C102.343 87.9018 109.195 81.8817 112.724 76.8286C114.073 74.8948 115.044 72.9571 115.732 71.2581C123.491 78.4559 133.16 82.6337 142.427 82.6337C148.108 82.6337 152.597 80.9745 155.103 78.0779ZM156.134 86.8275C156.134 86.8275 156.11 86.8076 156.07 86.7797C155.39 70.9876 149.183 56.6358 139.351 45.5825C133.446 43.6646 127.979 41.89 124.872 42.8768C119.468 44.5997 114.59 68.0074 114.59 68.0074C114.59 68.0074 127.697 76.2954 129.173 85.0171C130.649 93.7388 124.319 93.2494 122.938 92.3263C122.938 92.3263 124.462 96.1898 126.503 101.187C142.602 112.32 158.983 111.823 162.158 102.214C165.162 93.126 156.134 86.8275 156.134 86.8275ZM162.158 96.0147C158.748 106.332 140.103 106.149 122.938 92.3263C122.938 92.3263 112.597 105.596 100.8 92.3263C100.8 92.3263 98.7664 99.1461 89.7383 99.1461C80.7103 99.1461 78.6771 92.3263 78.6771 92.3263C66.8797 105.596 56.5386 92.3263 56.5386 92.3263C39.3737 106.149 20.7287 106.332 17.3188 96.0147C17.2512 95.8078 17.1955 95.6088 17.1398 95.4059C16.5788 97.4153 16.4912 99.7071 17.3188 102.214C20.7287 112.535 39.3737 112.352 56.5386 98.5293C56.5386 98.5293 66.8797 111.799 78.6771 98.5293C78.6771 98.5293 80.7103 105.349 89.7383 105.349C98.7664 105.349 100.8 98.5293 100.8 98.5293C112.597 111.799 122.938 98.5293 122.938 98.5293C140.103 112.352 158.748 112.535 162.158 102.214C162.985 99.7071 162.898 97.4153 162.337 95.4059C162.281 95.6088 162.225 95.8078 162.158 96.0147Z" fill="#BE5F2B"/>
<path fill-rule="evenodd" clip-rule="evenodd" d="M140.107 78.8856C131.246 78.8856 122.007 74.8908 114.591 68.0074C113.93 69.6347 113.003 71.4849 111.714 73.3351C108.34 78.1654 101.791 83.9229 89.7385 83.9229C77.6865 83.9229 71.1372 78.1654 67.7632 73.3351C66.474 71.4849 65.5469 69.6347 64.8864 68.0074C57.4698 74.8908 48.2309 78.8856 39.3699 78.8856C32.3472 78.8856 27.2145 76.2397 25.6468 71.8072C23.6255 66.1094 25.9372 60.0059 28.2331 55.8877L28.2609 55.836L28.2888 55.7882C41.809 33.5901 64.779 20.3405 89.7385 20.3405C114.698 20.3405 137.668 33.5901 151.188 55.7882L151.216 55.836L151.244 55.8877C153.54 60.0059 155.851 66.1094 153.83 71.8072C152.263 76.2397 147.13 78.8856 140.107 78.8856ZM140.107 75.9373C145.693 75.9373 149.927 74.0035 151.053 70.8244C152.728 66.0896 150.572 60.738 148.67 57.3241C136.2 36.8448 114.467 23.2888 89.7385 23.2888C65.0098 23.2888 43.2772 36.8448 30.8074 57.3241C28.9055 60.738 26.7489 66.0896 28.424 70.8244C29.5501 73.9996 33.7836 75.9373 39.3699 75.9373C47.2839 75.9373 57.9155 72.0499 66.2751 62.3176C66.2751 62.3176 68.8693 80.9745 89.7385 80.9745C110.608 80.9745 113.202 62.3176 113.202 62.3176C121.562 72.0499 132.193 75.9373 140.107 75.9373Z" fill="#913B16"/>
<path d="M148.669 57.3201C136.2 36.8448 114.467 23.2888 89.7383 23.2888C65.0096 23.2888 43.277 36.8448 30.8072 57.3201C28.9053 60.738 26.7487 66.0896 28.4238 70.8204C31.1454 78.5037 52.0146 78.9175 66.2749 62.3176C66.2749 62.3176 68.8691 80.9745 89.7383 80.9745C110.607 80.9745 113.202 62.3176 113.202 62.3176C127.458 78.9175 148.331 78.5037 151.053 70.8204C152.728 66.0896 150.571 60.738 148.669 57.3201Z" fill="#FFFFB8"/>
<path d="M151.053 70.8244C152.728 66.0896 150.571 60.738 148.669 57.3241C136.2 36.8448 114.467 23.2888 89.7384 23.2888C80.4955 23.2888 71.6743 25.1828 63.5972 28.6245C63.5693 28.6444 63.5534 28.6523 63.5534 28.6523C63.5534 28.6523 61.1144 39.069 76.4688 44.1063C91.8273 49.1435 106.076 43.9829 110.623 39.1924C110.623 39.1924 126.718 41.1102 134.21 52.1317C141.702 63.1492 131.994 70.7807 113.202 57.3838C113.202 57.3838 113.122 59.799 113.946 63.1452C128.178 78.8896 148.375 78.3724 151.053 70.8244Z" fill="#FDCC83"/>
<path d="M69.4061 22.2742C69.4061 22.2742 64.8383 23.2053 63.6765 27.9322C62.5147 32.6551 69.6408 42.2641 89.006 42.2641C108.375 42.2641 112.406 31.5728 112.406 26.3048C112.406 21.0368 108.419 15.534 103.402 13.4809C98.3802 11.4278 69.4061 22.2742 69.4061 22.2742Z" fill="#913B16"/>
<path d="M151.053 65.8866C148.332 73.5698 127.458 73.9837 113.202 57.3838C113.202 57.3838 110.608 76.0368 89.7388 76.0368C68.8696 76.0368 66.2753 57.3838 66.2753 57.3838C52.019 73.9837 31.1459 73.5698 28.4243 65.8866C28.2731 65.4529 28.1617 65.0113 28.0662 64.5696C27.6962 66.6347 27.7041 68.7872 28.4243 70.8244C31.1459 78.5037 52.019 78.9175 66.2753 62.3176C66.2753 62.3176 68.8696 80.9745 89.7388 80.9745C110.608 80.9745 113.202 62.3176 113.202 62.3176C127.458 78.9175 148.332 78.5037 151.053 70.8244C151.773 68.7872 151.781 66.6347 151.411 64.5696C151.316 65.0113 151.204 65.4529 151.053 65.8866Z" fill="#FDCC83"/>
<path d="M94.1627 74.3577C94.1627 75.9533 92.5672 77.2464 90.5976 77.2464C88.6321 77.2464 87.0365 75.9533 87.0365 74.3577C87.0365 72.7662 88.6321 71.4731 90.5976 71.4731C92.5672 71.4731 94.1627 72.7662 94.1627 74.3577ZM80.8932 66.3443C80.8932 67.6494 79.5881 68.7077 77.9766 68.7077C76.3652 68.7077 75.0562 67.6494 75.0562 66.3443C75.0562 65.0392 76.3652 63.9808 77.9766 63.9808C79.5881 63.9808 80.8932 65.0392 80.8932 66.3443ZM104.11 66.3443C104.11 67.3191 103.135 68.1109 101.929 68.1109C100.728 68.1109 99.749 67.3191 99.749 66.3443C99.749 65.3695 100.728 64.5777 101.929 64.5777C103.135 64.5777 104.11 65.3695 104.11 66.3443Z" fill="#BE5F2B"/>
<path d="M73.8508 96.4086C73.8508 97.7614 72.494 98.8595 70.8229 98.8595C69.1518 98.8595 67.795 97.7614 67.795 96.4086C67.795 95.0518 69.1518 93.9536 70.8229 93.9536C72.494 93.9536 73.8508 95.0518 73.8508 96.4086ZM62.5747 89.5927C62.5747 90.7029 61.4646 91.6021 60.0959 91.6021C58.7231 91.6021 57.613 90.7029 57.613 89.5927C57.613 88.4866 58.7231 87.5874 60.0959 87.5874C61.4646 87.5874 62.5747 88.4866 62.5747 89.5927ZM105.626 96.4086C105.626 97.7614 106.983 98.8595 108.654 98.8595C110.325 98.8595 111.682 97.7614 111.682 96.4086C111.682 95.0518 110.325 93.9536 108.654 93.9536C106.983 93.9536 105.626 95.0518 105.626 96.4086ZM116.902 89.5927C116.902 90.7029 118.012 91.6021 119.381 91.6021C120.754 91.6021 121.864 90.7029 121.864 89.5927C121.864 88.4866 120.754 87.5874 119.381 87.5874C118.012 87.5874 116.902 88.4866 116.902 89.5927ZM87.8843 98.8595C87.8843 99.6872 88.7159 100.36 89.7385 100.36C90.761 100.36 91.5926 99.6872 91.5926 98.8595C91.5926 98.0319 90.761 97.3595 89.7385 97.3595C88.7159 97.3595 87.8843 98.0319 87.8843 98.8595Z" fill="#FDCC83"/>
<path d="M127.207 60.6306C127.207 62.2262 125.612 63.5193 123.646 63.5193C121.677 63.5193 120.081 62.2262 120.081 60.6306C120.081 59.0391 121.677 57.7459 123.646 57.7459C125.612 57.7459 127.207 59.0391 127.207 60.6306ZM142.164 67.0804C142.164 68.3457 140.903 69.3682 139.343 69.3682C137.783 69.3682 136.518 68.3457 136.518 67.0804C136.518 65.8191 137.783 64.7925 139.343 64.7925C140.903 64.7925 142.164 65.8191 142.164 67.0804ZM143.179 58.4661C143.179 59.4131 142.228 60.181 141.058 60.181C139.888 60.181 138.941 59.4131 138.941 58.4661C138.941 57.5191 139.888 56.7512 141.058 56.7512C142.228 56.7512 143.179 57.5191 143.179 58.4661ZM52.2693 60.6306C52.2693 62.2262 53.8648 63.5193 55.8304 63.5193C57.7999 63.5193 59.3955 62.2262 59.3955 60.6306C59.3955 59.0391 57.7999 57.7459 55.8304 57.7459C53.8648 57.7459 52.2693 59.0391 52.2693 60.6306ZM37.3127 67.0804C37.3127 68.3457 38.574 69.3682 40.1337 69.3682C41.6934 69.3682 42.9587 68.3457 42.9587 67.0804C42.9587 65.8191 41.6934 64.7925 40.1337 64.7925C38.574 64.7925 37.3127 65.8191 37.3127 67.0804ZM36.2981 58.4661C36.2981 59.4131 37.249 60.181 38.4188 60.181C39.5886 60.181 40.5356 59.4131 40.5356 58.4661C40.5356 57.5191 39.5886 56.7512 38.4188 56.7512C37.249 56.7512 36.2981 57.5191 36.2981 58.4661Z" fill="#BE5F2B"/>
<path d="M39.3932 98.382C39.3932 99.9736 40.9888 101.267 42.9583 101.267C44.9239 101.267 46.5194 99.9736 46.5194 98.382C46.5194 96.7865 44.9239 95.4934 42.9583 95.4934C40.9888 95.4934 39.3932 96.7865 39.3932 98.382ZM25.7656 103.555C25.7656 104.816 27.0269 105.842 28.5866 105.842C30.1463 105.842 31.4116 104.816 31.4116 103.555C31.4116 102.289 30.1463 101.267 28.5866 101.267C27.0269 101.267 25.7656 102.289 25.7656 103.555ZM24.751 94.9403C24.751 95.8873 25.6979 96.6552 26.8677 96.6552C28.0415 96.6552 28.9885 95.8873 28.9885 94.9403C28.9885 93.9933 28.0415 93.2214 26.8677 93.2214C25.6979 93.2214 24.751 93.9933 24.751 94.9403ZM140.083 98.382C140.083 99.9736 138.487 101.267 136.518 101.267C134.552 101.267 132.956 99.9736 132.956 98.382C132.956 96.7865 134.552 95.4934 136.518 95.4934C138.487 95.4934 140.083 96.7865 140.083 98.382ZM153.71 103.555C153.71 104.816 152.449 105.842 150.889 105.842C149.33 105.842 148.064 104.816 148.064 103.555C148.064 102.289 149.33 101.267 150.889 101.267C152.449 101.267 153.71 102.289 153.71 103.555ZM154.725 94.9403C154.725 95.8873 153.778 96.6552 152.608 96.6552C151.434 96.6552 150.487 95.8873 150.487 94.9403C150.487 93.9933 151.434 93.2214 152.608 93.2214C153.778 93.2214 154.725 93.9933 154.725 94.9403Z" fill="#FDCC83"/>
<path d="M71.591 21.558C71.591 21.558 67.5604 22.3777 66.5338 26.5475C65.5073 30.7174 71.7979 39.1924 88.8872 39.1924C105.976 39.1924 109.53 29.7585 109.53 25.1111C109.53 20.4638 106.012 15.6096 101.588 13.7992C97.1592 11.9888 71.591 21.558 71.591 21.558Z" fill="#EE3E6C"/>
<path d="M101.79 13.8907C98.623 15.4147 94.5328 17.4359 91.9664 17.7542C90.3669 17.9532 86.7779 17.6786 83.1293 17.5712C76.9183 19.5646 71.5906 21.558 71.5906 21.558C71.5906 21.558 70.2656 21.8326 68.9406 22.8512C68.9327 22.879 66.422 32.1936 83.4118 32.9893C100.425 33.7891 105.538 24.5899 105.538 24.5899C105.538 24.5899 107.842 31.3739 103.131 35.8303C108.172 32.6591 109.529 27.976 109.529 25.1112C109.529 20.5355 106.119 15.7648 101.79 13.8907Z" fill="#D7205A"/>
<path d="M84.745 3.29503C84.745 3.29503 89.643 3.66506 89.2332 7.00731C88.8273 10.3535 83.806 12.5181 81.0725 13.2939C78.6653 13.9743 71.2606 16.4611 69.1916 21.4506C68.6544 22.7438 69.0006 24.2557 70.0311 25.2067C72.2115 27.2319 77.392 30.427 88.1748 30.1485C103.844 29.7386 108.089 16.6004 102.049 9.00869C96.0092 1.417 88.8273 1.50056 84.745 3.29503Z" fill="#913B16"/>
<path d="M85.059 4.53637C85.059 4.53637 89.1612 4.84274 88.819 7.64784C88.4769 10.449 84.2712 12.2594 81.9833 12.9119C80.1013 13.4451 74.5707 15.2913 72.434 18.9319C71.5666 20.4041 71.9486 22.2941 73.2855 23.3644C75.3744 25.0395 79.7074 27.2398 87.9278 27.025C101.054 26.6828 104.607 15.6772 99.5501 9.32295C94.4929 2.96471 88.4768 3.03235 85.059 4.53637Z" fill="#EE3E6C"/>
<path d="M57.167 125.828C56.5065 125.828 55.9734 125.291 55.9734 124.635C55.9734 123.863 55.3447 123.234 54.5728 123.234C53.8009 123.234 53.1722 123.863 53.1722 124.635C53.1722 125.291 52.6391 125.828 51.9786 125.828C51.3181 125.828 50.7849 125.291 50.7849 124.635C50.7849 122.546 52.4839 120.847 54.5728 120.847C56.6617 120.847 58.3607 122.546 58.3607 124.635C58.3607 125.291 57.8275 125.828 57.167 125.828ZM127.498 125.828C126.837 125.828 126.304 125.291 126.304 124.635C126.304 123.863 125.675 123.234 124.903 123.234C124.131 123.234 123.503 123.863 123.503 124.635C123.503 125.291 122.97 125.828 122.309 125.828C121.649 125.828 121.115 125.291 121.115 124.635C121.115 122.546 122.814 120.847 124.903 120.847C126.992 120.847 128.691 122.546 128.691 124.635C128.691 125.291 128.158 125.828 127.498 125.828ZM89.7381 134.638C84.0443 134.638 79.4089 130.006 79.4089 124.313C79.4089 123.652 79.9421 123.119 80.6026 123.119C81.2631 123.119 81.7963 123.652 81.7963 124.313C81.7963 128.689 85.3573 132.25 89.7381 132.25C94.1188 132.25 97.6799 128.689 97.6799 124.313C97.6799 123.652 98.2131 123.119 98.8736 123.119C99.5341 123.119 100.067 123.652 100.067 124.313C100.067 130.006 95.4319 134.638 89.7381 134.638Z" fill="#CD7A48"/>
<path d="M52.6275 133.448C52.6275 134.769 49.5558 135.843 45.7719 135.843C41.984 135.843 38.9163 134.769 38.9163 133.448C38.9163 132.123 41.984 131.049 45.7719 131.049C49.5558 131.049 52.6275 132.123 52.6275 133.448ZM140.561 133.448C140.561 134.769 137.493 135.843 133.705 135.843C129.921 135.843 126.849 134.769 126.849 133.448C126.849 132.123 129.921 131.049 133.705 131.049C137.493 131.049 140.561 132.123 140.561 133.448Z" fill="#EA2C68"/>
</svg>
