<svg width="157" height="168" viewBox="0 0 157 168" fill="none" xmlns="http://www.w3.org/2000/svg">
<circle cx="78.3125" cy="89.6875" r="78.3125" fill="#DD8250"/>
<ellipse cx="78.3125" cy="138.25" rx="52.0625" ry="7" fill="#888888" fill-opacity="0.5"/>
<path d="M33.1347 132.82L23.9087 93.4786L36.2681 83.5563H106.769L132.358 95.3935L122.958 132.82L116.517 138.39H42.0126L36.2681 135.953L33.1347 132.82Z" fill="#913B16"/>
<path d="M42.6892 139.515C36.8995 139.515 31.9244 135.39 30.8521 129.701L24.1641 98.9173C18.1202 98.3358 13.6813 95.2617 12.0902 90.4502C9.44775 82.4497 14.7919 76.5694 17.3403 74.3238C17.7512 68.1789 19.0846 62.1629 21.3023 56.4114C21.6818 53.9187 22.6357 51.2866 24.1397 48.585L24.2024 48.4805C31.5449 36.4206 42.5465 26.93 55.1809 21.7529L55.3063 21.7007C56.208 19.0095 58.1298 17.3628 59.8671 16.475C61.6391 11.3571 67.9616 9.01408 70.8547 8.19245C72.2578 7.79555 73.807 7.20021 74.0681 6.67799C74.4093 5.38983 67.878 4.19566 67.878 4.19566C67.878 4.19566 70.9035 0.271997 78.044 0.00740189C82.3611 -0.149266 86.4797 2.19031 89.6305 6.14879C90.5009 7.24547 91.1798 8.49186 91.6254 9.82179C95.6118 12.0709 98.4944 16.2939 98.9888 20.6528C99.0132 20.6597 99.1316 20.7015 99.1316 20.7015C99.9637 21.0009 100.799 21.3212 101.722 21.6938L101.833 21.7425C114.492 26.93 125.494 36.4206 132.84 48.4805L132.902 48.585C134.406 51.2866 135.36 53.9187 135.74 56.4114C137.957 62.1629 139.287 68.1789 139.702 74.3238C142.257 76.5798 147.591 82.4532 144.952 90.4502C143.361 95.2617 138.922 98.3358 132.878 98.9173L126.19 129.701C125.118 135.39 120.139 139.515 114.353 139.515H42.6892ZM124.209 86.3385L115.07 79.0343L105.934 86.3385L96.799 79.0343L87.6635 86.3385L78.5245 79.0343L69.389 86.3385L60.2535 79.0343L51.118 86.3385L41.979 79.0343L32.84 86.3385L23.7011 79.0343L34.0203 129.105C34.8071 133.273 38.4488 136.291 42.6892 136.291H114.353C118.597 136.291 122.235 133.273 123.022 129.105L133.344 79.0343L124.209 86.3385Z" fill="#913B16"/>
<path d="M78.5212 79.0342L69.3891 86.3385L72.8916 136.291H78.5212H84.1508L87.6532 86.3385L78.5212 79.0342ZM41.9792 79.0342L32.8472 86.3385L47.9918 136.291H53.6214H59.2475L51.1112 86.3385L41.9792 79.0342ZM115.063 79.0342L124.195 86.3385L109.051 136.291H103.421H97.7948L105.931 86.3385L115.063 79.0342Z" fill="#7E2C11"/>
<g style="mix-blend-mode:multiply" opacity="0.302">
<path d="M23.7012 79.0377L28.8677 104.105C34.9987 103.429 42.376 100.393 49.4713 94.6802C49.4713 94.6802 58.5233 106.288 68.8425 94.6802C68.8425 94.6802 70.6216 100.644 78.5211 100.644C86.4207 100.644 88.1997 94.6802 88.1997 94.6802C98.5224 106.288 107.571 94.6802 107.571 94.6802C107.571 94.6802 114.447 98.1164 110.979 112.512C105.948 133.381 51.5428 136.291 34.4765 130.683C35.7751 134.011 39.0059 136.291 42.6893 136.291H114.353C118.597 136.291 122.235 133.273 123.022 129.105L133.341 79.0377V79.0342L124.209 86.3385L117.706 81.144L117.337 80.8446L115.07 79.0342L105.935 86.3385L96.7991 79.0342L87.6636 86.3385L78.5246 79.0342L69.3891 86.3385L60.2536 79.0342L51.1181 86.3385L47.0587 83.0937L41.9791 79.0342L32.8401 86.3385L23.7012 79.0342V79.0377Z" fill="#762D10"/>
</g>
<path d="M136.617 79.1979C136.617 79.1979 136.597 79.184 136.562 79.1562C135.228 48.2507 109.758 23.6016 78.5214 23.6016C47.2852 23.6016 21.8145 48.2507 20.481 79.1562C20.4462 79.184 20.4253 79.1979 20.4253 79.1979C20.4253 79.1979 12.5258 84.7127 15.1543 92.6644C18.138 101.692 34.4524 101.532 49.4716 89.4371C49.4716 89.4371 58.5201 101.048 68.8428 89.4371C68.8428 89.4371 70.6218 95.4044 78.5214 95.4044C86.4209 95.4044 88.2 89.4371 88.2 89.4371C98.5227 101.048 107.571 89.4371 107.571 89.4371C122.59 101.532 138.905 101.692 141.888 92.6644C144.517 84.7127 136.617 79.1979 136.617 79.1979Z" fill="#913B16"/>
<path d="M136.617 75.974C136.617 75.974 136.597 75.9566 136.562 75.9323C135.228 45.0268 109.758 20.3777 78.5214 20.3777C47.2852 20.3777 21.8145 45.0268 20.481 75.9323C20.4462 75.9566 20.4253 75.974 20.4253 75.974C20.4253 75.974 12.5258 81.4853 15.1543 89.437C18.138 98.4681 34.4524 98.308 49.4716 86.2132C49.4716 86.2132 58.5201 97.824 68.8428 86.2132C68.8428 86.2132 70.6218 92.1805 78.5214 92.1805C86.4209 92.1805 88.2 86.2132 88.2 86.2132C98.5227 97.824 107.571 86.2132 107.571 86.2132C122.59 98.308 138.905 98.4681 141.888 89.437C144.517 81.4853 136.617 75.974 136.617 75.974Z" fill="#CD7A48"/>
<path d="M135.715 68.3182C130.911 41.0753 107.143 20.3777 78.5212 20.3777C49.8996 20.3777 26.1313 41.0753 21.3268 68.3182C23.5202 70.8527 27.4473 72.3045 32.4189 72.3045C40.5274 72.3045 48.9875 68.6489 55.7764 62.3509C56.3787 63.8375 57.2282 65.533 58.4084 67.225C61.4965 71.6465 67.4917 76.914 78.5212 76.914C89.5506 76.914 95.5458 71.6465 98.6339 67.225C99.8141 65.533 100.664 63.8375 101.266 62.3509C108.055 68.6489 116.515 72.3045 124.623 72.3045C129.595 72.3045 133.522 70.8527 135.715 68.3182ZM136.617 75.974C136.617 75.974 136.596 75.9566 136.561 75.9323C135.966 62.1141 130.535 49.5563 121.932 39.8846C116.766 38.2066 111.982 36.6538 109.263 37.5172C104.535 39.0247 100.267 59.5065 100.267 59.5065C100.267 59.5065 111.735 66.7585 113.026 74.3899C114.318 82.0214 108.779 81.5932 107.571 80.7855C107.571 80.7855 108.904 84.166 110.69 88.5388C124.777 98.2801 139.11 97.8449 141.888 89.437C144.517 81.4853 136.617 75.974 136.617 75.974ZM141.888 84.0129C138.905 93.0404 122.59 92.8803 107.571 80.7855C107.571 80.7855 98.5225 92.3963 88.1998 80.7855C88.1998 80.7855 86.4207 86.7528 78.5212 86.7528C70.6216 86.7528 68.8425 80.7855 68.8425 80.7855C58.5199 92.3963 49.4714 80.7855 49.4714 80.7855C34.4521 92.8803 18.1378 93.0404 15.1541 84.0129C15.0949 83.8318 15.0462 83.6577 14.9974 83.4802C14.5065 85.2383 14.4299 87.2437 15.1541 89.437C18.1378 98.4681 34.4521 98.308 49.4714 86.2132C49.4714 86.2132 58.5199 97.824 68.8425 86.2132C68.8425 86.2132 70.6216 92.1805 78.5212 92.1805C86.4207 92.1805 88.1998 86.2132 88.1998 86.2132C98.5225 97.824 107.571 86.2132 107.571 86.2132C122.59 98.308 138.905 98.4681 141.888 89.437C142.612 87.2437 142.536 85.2383 142.045 83.4802C141.996 83.6577 141.947 83.8318 141.888 84.0129Z" fill="#BE5F2B"/>
<path fill-rule="evenodd" clip-rule="evenodd" d="M122.594 69.0249C114.84 69.0249 106.756 65.5295 100.267 59.5064C99.6889 60.9304 98.8777 62.5493 97.7496 64.1682C94.7973 68.3948 89.0667 73.4325 78.5212 73.4325C67.9757 73.4325 62.2452 68.3948 59.2928 64.1682C58.1648 62.5493 57.3536 60.9304 56.7757 59.5064C50.2862 65.5295 42.2021 69.0249 34.4487 69.0249C28.3039 69.0249 23.8127 66.7097 22.441 62.8313C20.6724 57.8458 22.6951 52.5051 24.704 48.9018L24.7283 48.8565L24.7527 48.8147C36.5829 29.3913 56.6817 17.7979 78.5212 17.7979C100.361 17.7979 120.46 29.3913 132.29 48.8147L132.314 48.8565L132.339 48.9018C134.347 52.5051 136.37 57.8458 134.602 62.8313C133.23 66.7097 128.739 69.0249 122.594 69.0249ZM122.594 66.4451C127.482 66.4451 131.186 64.7531 132.171 61.9714C133.637 57.8284 131.75 53.1457 130.086 50.1586C119.175 32.2392 100.159 20.3777 78.5212 20.3777C56.8836 20.3777 37.8676 32.2392 26.9565 50.1586C25.2924 53.1457 23.4054 57.8284 24.8711 61.9714C25.8564 64.7496 29.5607 66.4451 34.4487 66.4451C41.3735 66.4451 50.6761 63.0437 57.9907 54.5279C57.9907 54.5279 60.2607 70.8527 78.5212 70.8527C96.7818 70.8527 99.0517 54.5279 99.0517 54.5279C106.366 63.0437 115.669 66.4451 122.594 66.4451Z" fill="#913B16"/>
<path d="M130.086 50.1551C119.175 32.2392 100.159 20.3777 78.521 20.3777C56.8833 20.3777 37.8673 32.2392 26.9562 50.1551C25.2921 53.1457 23.4051 57.8284 24.8708 61.9679C27.2522 68.6907 45.5127 69.0528 57.9905 54.5279C57.9905 54.5279 60.2604 70.8527 78.521 70.8527C96.7815 70.8527 99.0514 54.5279 99.0514 54.5279C111.526 69.0528 129.79 68.6907 132.171 61.9679C133.637 57.8284 131.75 53.1457 130.086 50.1551Z" fill="#FFFFB8"/>
<path d="M132.171 61.9714C133.637 57.8284 131.75 53.1457 130.086 50.1586C119.175 32.2392 100.159 20.3777 78.5213 20.3777C70.4337 20.3777 62.7152 22.0349 55.6477 25.0464C55.6233 25.0638 55.6094 25.0708 55.6094 25.0708C55.6094 25.0708 53.4752 34.1854 66.9104 38.593C80.3491 43.0006 92.8164 38.4851 96.7957 34.2933C96.7957 34.2933 110.878 35.9714 117.434 45.6152C123.99 55.2555 115.495 61.9331 99.0517 50.2108C99.0517 50.2108 98.9821 52.3241 99.7028 55.252C112.156 69.0284 129.828 68.5758 132.171 61.9714Z" fill="#FDCC83"/>
<path d="M60.7304 19.4899C60.7304 19.4899 56.7337 20.3046 55.717 24.4406C54.7004 28.5732 60.9358 36.9811 77.8804 36.9811C94.8284 36.9811 98.3552 27.6262 98.3552 23.0167C98.3552 18.4072 94.8667 13.5922 90.4765 11.7958C86.0828 9.99931 60.7304 19.4899 60.7304 19.4899Z" fill="#913B16"/>
<path d="M132.172 57.6508C129.79 64.3736 111.526 64.7357 99.052 50.2108C99.052 50.2108 96.782 66.5322 78.5215 66.5322C60.2609 66.5322 57.991 50.2108 57.991 50.2108C45.5167 64.7357 27.2527 64.3736 24.8713 57.6508C24.739 57.2713 24.6416 56.8849 24.558 56.4984C24.2342 58.3053 24.2412 60.1888 24.8713 61.9714C27.2527 68.6907 45.5167 69.0528 57.991 54.5279C57.991 54.5279 60.2609 70.8527 78.5215 70.8527C96.782 70.8527 99.052 54.5279 99.052 54.5279C111.526 69.0528 129.79 68.6907 132.172 61.9714C132.802 60.1888 132.809 58.3053 132.485 56.4984C132.401 56.8849 132.304 57.2713 132.172 57.6508Z" fill="#FDCC83"/>
<path d="M82.3925 65.063C82.3925 66.4591 80.9965 67.5906 79.2731 67.5906C77.5532 67.5906 76.1572 66.4591 76.1572 65.063C76.1572 63.6704 77.5532 62.5389 79.2731 62.5389C80.9965 62.5389 82.3925 63.6704 82.3925 65.063ZM70.7817 58.0513C70.7817 59.1932 69.6398 60.1193 68.2297 60.1193C66.8197 60.1193 65.6743 59.1932 65.6743 58.0513C65.6743 56.9093 66.8197 55.9832 68.2297 55.9832C69.6398 55.9832 70.7817 56.9093 70.7817 58.0513ZM91.0963 58.0513C91.0963 58.9042 90.2434 59.597 89.1885 59.597C88.1371 59.597 87.2806 58.9042 87.2806 58.0513C87.2806 57.1983 88.1371 56.5055 89.1885 56.5055C90.2434 56.5055 91.0963 57.1983 91.0963 58.0513Z" fill="#BE5F2B"/>
<path d="M64.6192 84.3575C64.6192 85.5412 63.432 86.5021 61.9698 86.5021C60.5075 86.5021 59.3203 85.5412 59.3203 84.3575C59.3203 83.1703 60.5075 82.2094 61.9698 82.2094C63.432 82.2094 64.6192 83.1703 64.6192 84.3575ZM54.7526 78.3937C54.7526 79.365 53.7812 80.1518 52.5836 80.1518C51.3825 80.1518 50.4111 79.365 50.4111 78.3937C50.4111 77.4258 51.3825 76.639 52.5836 76.639C53.7812 76.639 54.7526 77.4258 54.7526 78.3937ZM92.4226 84.3575C92.4226 85.5412 93.6098 86.5021 95.072 86.5021C96.5342 86.5021 97.7214 85.5412 97.7214 84.3575C97.7214 83.1703 96.5342 82.2094 95.072 82.2094C93.6098 82.2094 92.4226 83.1703 92.4226 84.3575ZM102.289 78.3937C102.289 79.365 103.261 80.1518 104.458 80.1518C105.659 80.1518 106.631 79.365 106.631 78.3937C106.631 77.4258 105.659 76.639 104.458 76.639C103.261 76.639 102.289 77.4258 102.289 78.3937ZM76.8985 86.5021C76.8985 87.2263 77.6261 87.8146 78.5209 87.8146C79.4156 87.8146 80.1433 87.2263 80.1433 86.5021C80.1433 85.7779 79.4156 85.1896 78.5209 85.1896C77.6261 85.1896 76.8985 85.7779 76.8985 86.5021Z" fill="#FDCC83"/>
<path d="M111.307 53.0518C111.307 54.4479 109.911 55.5794 108.191 55.5794C106.468 55.5794 105.072 54.4479 105.072 53.0518C105.072 51.6592 106.468 50.5277 108.191 50.5277C109.911 50.5277 111.307 51.6592 111.307 53.0518ZM124.394 58.6953C124.394 59.8025 123.29 60.6972 121.926 60.6972C120.561 60.6972 119.454 59.8025 119.454 58.6953C119.454 57.5917 120.561 56.6935 121.926 56.6935C123.29 56.6935 124.394 57.5917 124.394 58.6953ZM125.282 51.1579C125.282 51.9865 124.45 52.6584 123.426 52.6584C122.402 52.6584 121.574 51.9865 121.574 51.1579C121.574 50.3292 122.402 49.6573 123.426 49.6573C124.45 49.6573 125.282 50.3292 125.282 51.1579ZM45.736 53.0518C45.736 54.4479 47.1321 55.5794 48.852 55.5794C50.5753 55.5794 51.9714 54.4479 51.9714 53.0518C51.9714 51.6592 50.5753 50.5277 48.852 50.5277C47.1321 50.5277 45.736 51.6592 45.736 53.0518ZM32.649 58.6953C32.649 59.8025 33.7527 60.6972 35.1174 60.6972C36.4822 60.6972 37.5893 59.8025 37.5893 58.6953C37.5893 57.5917 36.4822 56.6935 35.1174 56.6935C33.7527 56.6935 32.649 57.5917 32.649 58.6953ZM31.7612 51.1579C31.7612 51.9865 32.5933 52.6584 33.6169 52.6584C34.6404 52.6584 35.469 51.9865 35.469 51.1579C35.469 50.3292 34.6404 49.6573 33.6169 49.6573C32.5933 49.6573 31.7612 50.3292 31.7612 51.1579Z" fill="#BE5F2B"/>
<path d="M34.4692 86.0843C34.4692 87.4769 35.8653 88.6084 37.5886 88.6084C39.3085 88.6084 40.7046 87.4769 40.7046 86.0843C40.7046 84.6882 39.3085 83.5567 37.5886 83.5567C35.8653 83.5567 34.4692 84.6882 34.4692 86.0843ZM22.545 90.6103C22.545 91.7139 23.6486 92.6121 25.0134 92.6121C26.3782 92.6121 27.4853 91.7139 27.4853 90.6103C27.4853 89.5031 26.3782 88.6084 25.0134 88.6084C23.6486 88.6084 22.545 89.5031 22.545 90.6103ZM21.6572 83.0728C21.6572 83.9014 22.4858 84.5733 23.5094 84.5733C24.5364 84.5733 25.365 83.9014 25.365 83.0728C25.365 82.2442 24.5364 81.5688 23.5094 81.5688C22.4858 81.5688 21.6572 82.2442 21.6572 83.0728ZM122.572 86.0843C122.572 87.4769 121.176 88.6084 119.453 88.6084C117.733 88.6084 116.337 87.4769 116.337 86.0843C116.337 84.6882 117.733 83.5567 119.453 83.5567C121.176 83.5567 122.572 84.6882 122.572 86.0843ZM134.497 90.6103C134.497 91.7139 133.393 92.6121 132.028 92.6121C130.663 92.6121 129.556 91.7139 129.556 90.6103C129.556 89.5031 130.663 88.6084 132.028 88.6084C133.393 88.6084 134.497 89.5031 134.497 90.6103ZM135.384 83.0728C135.384 83.9014 134.556 84.5733 133.532 84.5733C132.505 84.5733 131.677 83.9014 131.677 83.0728C131.677 82.2442 132.505 81.5688 133.532 81.5688C134.556 81.5688 135.384 82.2442 135.384 83.0728Z" fill="#FDCC83"/>
<path d="M62.642 18.8633C62.642 18.8633 59.1153 19.5805 58.217 23.2291C57.3188 26.8777 62.8231 34.2933 77.7762 34.2933C92.7293 34.2933 95.8383 26.0387 95.8383 21.9723C95.8383 17.9058 92.7606 13.6584 88.8892 12.0743C85.0142 10.4902 62.642 18.8633 62.642 18.8633Z" fill="#EE3E6C"/>
<path d="M89.0666 12.1544C86.2953 13.4878 82.7163 15.2564 80.4707 15.535C79.0711 15.709 75.9308 15.4688 72.7383 15.3748C67.3036 17.119 62.6419 18.8633 62.6419 18.8633C62.6419 18.8633 61.4825 19.1035 60.3232 19.9948C60.3162 20.0191 58.1194 28.1694 72.9854 28.8657C87.8724 29.5655 92.3462 21.5162 92.3462 21.5162C92.3462 21.5162 94.3619 27.4522 90.2398 31.3515C94.6509 28.5767 95.8381 24.479 95.8381 21.9723C95.8381 17.9685 92.8544 13.7942 89.0666 12.1544Z" fill="#D7205A"/>
<path d="M74.1515 2.88315C74.1515 2.88315 78.4373 3.20693 78.0787 6.1314C77.7236 9.05935 73.3299 10.9533 70.9381 11.6322C68.8318 12.2275 62.3527 14.4035 60.5423 18.7693C60.0723 19.9008 60.3752 21.2238 61.2769 22.0559C63.1848 23.8279 67.7177 26.6236 77.1526 26.3799C90.8628 26.0213 94.5776 14.5253 89.2926 7.88261C84.0077 1.23988 77.7236 1.31299 74.1515 2.88315Z" fill="#913B16"/>
<path d="M74.4267 3.96932C74.4267 3.96932 78.0161 4.23739 77.7167 6.69186C77.4173 9.14285 73.7373 10.7269 71.7355 11.2979C70.0887 11.7644 65.2494 13.3799 63.3798 16.5654C62.6209 17.8536 62.9551 19.5073 64.1249 20.4438C65.9527 21.9096 69.7441 23.8348 76.9369 23.6468C88.4224 23.3474 91.5314 13.7176 87.1064 8.15758C82.6814 2.59412 77.4173 2.65331 74.4267 3.96932Z" fill="#EE3E6C"/>
<path d="M50.0214 110.1C49.4434 110.1 48.9769 109.63 48.9769 109.055C48.9769 108.38 48.4268 107.83 47.7514 107.83C47.076 107.83 46.5259 108.38 46.5259 109.055C46.5259 109.63 46.0594 110.1 45.4815 110.1C44.9035 110.1 44.437 109.63 44.437 109.055C44.437 107.228 45.9236 105.741 47.7514 105.741C49.5792 105.741 51.0658 107.228 51.0658 109.055C51.0658 109.63 50.5993 110.1 50.0214 110.1ZM111.561 110.1C110.983 110.1 110.516 109.63 110.516 109.055C110.516 108.38 109.966 107.83 109.291 107.83C108.615 107.83 108.065 108.38 108.065 109.055C108.065 109.63 107.599 110.1 107.021 110.1C106.443 110.1 105.976 109.63 105.976 109.055C105.976 107.228 107.463 105.741 109.291 105.741C111.118 105.741 112.605 107.228 112.605 109.055C112.605 109.63 112.139 110.1 111.561 110.1ZM78.521 117.808C73.539 117.808 69.483 113.756 69.483 108.773C69.483 108.196 69.9496 107.729 70.5275 107.729C71.1054 107.729 71.5719 108.196 71.5719 108.773C71.5719 112.603 74.6879 115.719 78.521 115.719C82.3542 115.719 85.4701 112.603 85.4701 108.773C85.4701 108.196 85.9367 107.729 86.5146 107.729C87.0925 107.729 87.559 108.196 87.559 108.773C87.559 113.756 83.5031 117.808 78.521 117.808Z" fill="#CD7A48"/>
<path d="M46.0491 116.767C46.0491 117.923 43.3613 118.863 40.0504 118.863C36.736 118.863 34.0518 117.923 34.0518 116.767C34.0518 115.608 36.736 114.668 40.0504 114.668C43.3613 114.668 46.0491 115.608 46.0491 116.767ZM122.991 116.767C122.991 117.923 120.306 118.863 116.992 118.863C113.681 118.863 110.993 117.923 110.993 116.767C110.993 115.608 113.681 114.668 116.992 114.668C120.306 114.668 122.991 115.608 122.991 116.767Z" fill="#EA2C68"/>
</svg>
