<svg width="200" height="189" viewBox="0 0 200 189" fill="none" xmlns="http://www.w3.org/2000/svg">
<path d="M180.709 105.158C186.154 105.767 192.001 106.155 197.608 105.95C199.352 105.89 199.856 103.545 198.099 103.413C192.589 102.97 186.668 103.085 181.036 103.451C179.866 103.518 179.525 105.034 180.709 105.158Z" fill="#E8947E"/>
<path d="M173.219 112.652C183.508 70.9716 157.99 28.8591 116.221 18.5914C74.4526 8.32363 32.2513 33.7887 21.9619 75.4693C11.6725 117.15 37.1913 159.262 78.9598 169.53C120.728 179.798 162.93 154.333 173.219 112.652Z" fill="#FDB03C"/>
<path d="M113.089 80.7861L147.987 112.303L163.302 91.7851L173.344 94.6544C173.344 94.6544 157.521 133.72 147.043 130.521C128.67 124.906 111.421 111.445 111.421 111.445L113.089 80.7861Z" fill="#BF847D"/>
<mask id="mask0" mask-type="alpha" maskUnits="userSpaceOnUse" x="19" y="16" width="157" height="156">
<path d="M173.219 112.652C183.508 70.9717 157.99 28.8593 116.221 18.5915C74.4526 8.32375 32.2513 33.7889 21.9619 75.4694C11.6725 117.15 37.1913 159.262 78.9598 169.53C120.728 179.798 162.93 154.333 173.219 112.652Z" fill="#DADADA"/>
</mask>
<g mask="url(#mask0)">
<path d="M124.985 125.35L125.479 179.336C88.3446 193.204 58.7263 170.452 58.7263 170.452V146.293L57.5537 103.119C58.7263 85.9246 74.7245 77.4763 74.7245 77.4763C81.3425 74.1842 91.4383 72.32 100.521 72.7563C110.02 73.2323 112.345 77.7539 116.26 86.4006C119.42 93.3814 124.985 99.9259 124.985 125.35Z" fill="#152B49"/>
</g>
<path d="M78.7608 115.625C78.7608 115.625 73.1269 148.76 81.0742 147.944C107.214 145.258 122.778 144.897 122.778 144.897L127.105 153.88C127.2 155.403 77.5963 169.584 69.6333 164.888C53.4574 155.375 55.4448 132.196 57.1253 116.581L78.7608 115.625Z" fill="#BF847D"/>
<path d="M62.0649 89.514C62.0649 89.514 54.3738 96.8915 52.6448 124.815L82.4552 121.523C82.4353 121.523 87.4037 73.9857 62.0649 89.514Z" fill="#152B49"/>
<path d="M76.9904 31.01L77.6661 39.8748C77.6661 39.8748 70.1141 40.8862 72.2604 47.7679C74.4068 54.6495 79.5739 51.6351 79.5739 51.6351C79.5739 51.6351 80.8657 69.2457 98.9507 63.673C113.339 59.2307 112.465 40.6284 110.636 24.7828C109.921 18.635 104.098 14.4108 98.0167 15.6007L87.1458 17.7227C80.8657 18.9126 76.4935 24.6242 76.9904 31.01Z" fill="#BF847D"/>
<path d="M77.6655 47.2126L82.5346 73.1328C83.6276 78.9832 89.4109 82.7116 95.1941 81.3233C100.56 80.0541 103.998 74.8185 103.044 69.3846L100.401 54.5306L77.6655 47.2126Z" fill="#BF847D"/>
<path d="M97.6586 47.5101C97.7182 47.4704 97.8772 47.748 98.2151 47.7877C98.533 47.8274 99.0299 47.4902 99.1491 46.7763C99.3081 46.0822 99.2286 45.1699 99.1292 44.099C99.0497 42.9487 98.9504 41.8183 98.8709 40.6483C98.5728 35.7498 98.5529 31.7438 98.8311 31.724C99.1094 31.7041 99.6062 35.6705 99.9043 40.5689C99.9639 41.7588 100.024 42.8893 100.083 44.0197C100.123 45.0708 100.163 46.102 99.8646 46.9746C99.6261 47.867 98.692 48.4223 98.1157 48.1645C97.5394 47.8869 97.6188 47.5101 97.6586 47.5101Z" fill="#251A51"/>
<path d="M103.521 61.8485C103.601 61.9476 102.885 62.7409 101.395 63.5937C99.924 64.4464 97.6186 65.2794 94.9754 65.3389C92.3322 65.3984 90.007 64.6646 88.4966 63.8713C86.9663 63.078 86.231 62.3244 86.3105 62.2253C86.4496 61.9476 89.9673 64.4464 94.9754 64.3076C99.9637 64.2085 103.382 61.5708 103.521 61.8485Z" fill="#251A51"/>
<path d="M99.9838 51.1592C100.083 51.2386 99.8447 51.8137 99.0497 52.369C98.2747 52.9243 96.8438 53.3804 95.3532 52.9044C93.8627 52.4086 92.9684 51.2187 92.6703 50.3263C92.3523 49.3942 92.4914 48.7992 92.6305 48.7992C92.7895 48.7794 92.9088 49.3149 93.346 50.009C93.7633 50.7031 94.5583 51.5559 95.6911 51.9128C96.8239 52.2698 97.9766 52.0318 98.7119 51.7145C99.4671 51.417 99.8646 51.0402 99.9838 51.1592Z" fill="#251A51"/>
<path d="M77.0893 48.6206C77.0893 48.7396 76.6521 48.9577 75.8572 48.7198C75.4796 48.6008 74.9827 48.2636 74.7641 47.6885C74.6647 47.4109 74.6051 47.0539 74.7244 46.6969C74.8039 46.3399 75.1417 45.9631 75.5193 45.8441C76.036 45.6458 76.7515 45.7648 77.0893 46.3201L76.2149 46.7762C75.6385 45.3285 75.3603 44.2179 75.5789 44.1188C75.7975 44.0196 76.4335 44.9715 77.1291 46.3796L76.2546 46.8357C76.2348 46.7961 76.0956 46.7366 75.9168 46.8159C75.718 46.8754 75.6385 47.0935 75.6982 47.4109C75.7578 47.7083 75.9565 47.9265 76.195 48.0851C76.6521 48.3628 77.1092 48.4619 77.0893 48.6206Z" fill="#251A51"/>
<path d="M91.021 31.1488C90.9416 31.4265 90.1267 31.4265 89.2125 31.6644C88.2984 31.8826 87.6028 32.2991 87.3842 32.1007C87.1656 31.9222 87.722 30.9902 88.9542 30.6728C90.1665 30.3555 91.1204 30.891 91.021 31.1488Z" fill="#251A51"/>
<path d="M106.642 28.6699C106.522 28.9475 105.628 28.8087 104.575 28.9079C103.521 28.9872 102.667 29.2649 102.508 29.0269C102.329 28.8087 103.144 27.9956 104.495 27.8766C105.827 27.7576 106.781 28.4319 106.642 28.6699Z" fill="#251A51"/>
<path d="M77.6656 39.8747C82.7135 34.9564 84.204 26.7857 85.5555 19.8842C90.2258 23.2755 96.6648 24.1084 102.051 22.0261C103.74 24.0092 105.727 25.7346 107.933 27.1427C108.549 27.5393 109.304 27.9359 110 27.7178C110.855 27.46 111.232 26.4882 111.431 25.6354C112.067 22.8788 112.107 19.9437 111.133 17.2863C110.179 14.6288 108.152 12.2886 105.509 11.2772C102.687 10.1865 99.5067 10.6624 96.5853 11.416C92.1734 12.5663 87.9204 14.3115 83.9854 16.612C80.1299 18.8728 76.4136 21.8476 74.7839 26.0122C73.1543 30.1769 73.1543 38.2485 77.1092 40.3506" fill="#152B49"/>
<path d="M103.034 73.0634C121.206 74.0199 135.552 97.9306 135.552 97.9306L119.168 120.825L108.894 109.846C108.894 109.846 102.077 84.5406 103.034 73.0634Z" fill="#152B49"/>
<path d="M121.206 144.796C121.206 144.796 141.422 135.337 140.866 137.003C140.31 138.669 137.567 138.728 134.805 141.406C134.805 141.406 152.87 141.604 151.995 143.091C151.121 144.579 139.375 144.956 139.296 145.194C139.217 145.451 152.154 145.769 151.856 147.137C151.558 148.505 139.554 148.168 139.554 148.168C139.554 148.168 150.684 149.358 150.465 150.826C150.246 152.313 139.972 151.242 139.972 151.242C139.972 151.242 148.557 152.214 148.339 153.563C148.199 154.376 123.178 154.574 123.119 155.169C123.099 155.486 121.206 144.796 121.206 144.796Z" fill="#BF847D"/>
<path d="M81.4815 123.149C81.402 123.149 81.4219 122.415 81.5014 121.106C81.5809 119.797 81.7399 117.913 81.9386 115.573C82.356 110.913 83.0118 104.467 83.7869 97.3674C83.9657 95.6024 84.0452 93.8969 83.8067 92.2905C83.5881 90.6841 82.9522 89.2562 82.0579 88.0862C80.2295 85.7262 77.6459 84.4966 75.4399 83.981C73.2141 83.4455 71.3062 83.4653 70.0144 83.505C68.7028 83.5447 67.9873 83.624 67.9674 83.5447C67.9476 83.4852 68.663 83.267 69.9747 83.0885C71.2863 82.9299 73.234 82.7911 75.5989 83.2472C77.9241 83.7033 80.7661 84.9329 82.8131 87.4912C83.8266 88.7604 84.5619 90.3866 84.8203 92.1318C85.0985 93.877 84.9992 95.6817 84.8203 97.4666C84.0452 104.586 83.29 110.992 82.6739 115.633C82.3758 117.953 82.1175 119.837 81.8989 121.126C81.7001 122.455 81.5411 123.169 81.4815 123.149Z" fill="black"/>
<path d="M82.813 121.543C82.8528 121.82 76.056 122.772 67.6495 123.665C59.2429 124.557 52.4064 125.033 52.3666 124.755C52.3269 124.478 59.1237 123.526 67.5302 122.633C75.9368 121.741 82.7733 121.245 82.813 121.543Z" fill="black"/>
<path d="M158.637 148.998C158.895 147.293 158.836 145.687 159.789 144.179C161.697 141.185 164.38 141.938 167.004 143.267C169.667 144.596 172.171 145.409 175.072 144.16C179.584 142.216 181.71 135.394 177.398 132.201C176.006 131.17 174.615 132.875 174.814 134.184C175.072 136.009 175.986 138.031 174.416 139.598C172.31 141.7 169.846 139.935 167.759 138.983C165.493 137.972 163.089 137.734 160.743 138.686C156.729 140.312 153.808 145.746 156.987 149.435C157.464 149.95 158.537 149.732 158.637 148.998Z" fill="#B01630"/>
<path d="M42.9587 19.8788C39.8385 22.8734 38.6461 27.5339 41.6271 31.1234C44.4293 34.5147 49.8548 35.2286 53.3526 32.5315C61.7989 26.0267 52.9949 14.0086 43.8729 16.4876C42.1836 16.9437 42.601 19.3434 44.2703 19.4425C46.9334 19.6012 49.7952 19.7003 51.9217 21.5645C54.2072 23.5675 54.2668 26.9588 52.3788 29.2593C47.4104 35.3674 38.7653 26.3836 43.9921 20.9299C44.6678 20.2358 43.6543 19.2244 42.9587 19.8788Z" fill="#FB4E5A"/>
<path d="M54.831 63.0186C51.7108 66.0132 50.5184 70.6737 53.4995 74.2632C56.3016 77.6545 61.7271 78.3684 65.2249 75.6713C73.6712 69.1664 64.8672 57.1484 55.7452 59.6273C54.0559 60.0835 54.4733 62.4831 56.1427 62.5823C58.8057 62.7409 61.6675 62.8401 63.794 64.7043C66.0795 66.7073 66.1391 70.0985 64.2511 72.399C59.2827 78.5072 50.6376 69.5234 55.8644 64.0498C56.5401 63.3756 55.5266 62.3641 54.831 63.0186Z" fill="#152B49"/>
<path d="M9.51904 138.181C11.6654 146.154 14.0304 154.027 16.4947 161.9C17.0909 163.804 18.8795 164.379 20.5092 163.288C26.9283 158.945 33.3475 154.662 39.409 149.842C40.5815 148.91 40.3232 147.046 39.1705 146.253C32.0557 141.374 22.4369 134.175 13.4143 134.136C11.1089 134.116 9.51904 137.348 11.8443 138.697C15.4811 140.799 19.8533 141.533 23.7486 143.159C28.24 145.023 32.6917 147.205 36.6465 150.041C36.726 148.732 36.8254 147.423 36.9049 146.114C30.1081 150.279 23.7088 154.959 17.2499 159.62C18.5218 159.877 19.7937 160.135 21.0656 160.373C18.3429 152.599 15.5209 144.885 12.4603 137.21C11.8244 135.603 9.06194 136.476 9.51904 138.181Z" fill="#FB4E5A"/>
<path d="M160.448 40.0341C163.879 35.5609 167.259 30.7381 169.858 25.7231C170.81 23.887 168.27 22.5353 167.116 24.1652C163.906 28.65 161.142 33.7542 158.768 38.7364C158.304 39.753 159.674 41.0345 160.448 40.0341Z" fill="#EDC483"/>
<path d="M1.15189 78.059C6.03697 80.8734 11.2618 83.5901 16.5746 85.5079C18.5199 86.2107 19.5264 83.5158 17.759 82.5855C12.8916 79.9922 7.46866 77.9228 2.21777 76.2227C1.13067 75.8891 0.0401543 77.4158 1.15189 78.059Z" fill="#EDC483"/>
<path d="M45.0335 95.5827C44.9341 95.5034 44.8348 95.424 44.7553 95.3249C43.5032 94.2143 41.4364 93.9962 40.2042 95.3249C38.972 96.6734 39.0118 98.5178 40.2042 99.8664C40.2837 99.9655 40.3632 100.065 40.4626 100.144C41.5954 101.413 43.9007 101.374 45.0335 100.144C46.1464 98.9343 46.3849 96.7726 45.0335 95.5827Z" fill="#251A51"/>
<path d="M124.945 121.84C124.687 121.82 124.448 116.942 123.951 110.893C123.454 104.824 123.673 99.8466 123.991 99.8664C124.249 99.8862 124.488 104.765 124.985 110.814C125.501 116.882 125.263 121.86 124.945 121.84Z" fill="#251A51"/>
<path d="M106.641 34.8971C106.403 35.0359 105.926 34.7979 105.449 34.2624C104.992 33.7468 104.793 33.1122 105.032 32.9535C105.27 32.8147 105.747 33.0527 106.224 33.5882C106.701 34.084 106.9 34.7384 106.641 34.8971Z" fill="#251A51"/>
<path d="M93.2069 36.7811C92.9684 36.9199 92.4915 36.6819 92.0145 36.1465C91.5574 35.6308 91.3587 34.9962 91.5971 34.8376C91.8356 34.6988 92.3126 34.9367 92.7896 35.4722C93.2665 35.968 93.4653 36.6224 93.2069 36.7811Z" fill="#251A51"/>
<path d="M176.298 88.0151C177.534 84.3998 178.186 79.479 178.358 77.4705C174.239 77.8052 165.073 79.479 161.366 83.496C156.732 88.5172 167.03 97.5555 170.119 97.5555C173.209 97.5555 174.754 92.5342 176.298 88.0151Z" fill="#BF847D"/>
<path d="M156.36 92.3908L164.688 67.9062L175.955 68.9264L176.445 70.4567L168.117 98.512H167.137L156.36 92.3908Z" fill="#567BB1"/>
<path d="M175.489 69.8713L165.393 68.8627L157.316 91.5561L166.907 96.5991L175.489 69.8713Z" fill="#A0F2FE"/>
<path d="M165.043 79.3216C165.351 77.9303 161.911 77.268 160.356 77.8275C158.802 78.3869 158.474 80.1473 159.247 80.7747C160.02 81.4022 164.657 81.0608 165.043 79.3216Z" fill="#BF847D"/>
<path d="M178.358 76.8524C178.358 74.3262 176.864 71.8076 171.424 70.8592C168.951 70.4034 169.446 71.8931 171.424 73.3158C172.611 74.1694 175.573 74.3262 175.573 77.3577C175.573 82.6816 178.358 79.8359 178.358 76.8524Z" fill="#BF847D"/>
<path d="M177.402 78.6618C177.402 75.5605 174.305 74.8242 168.628 73.7277C166.048 73.2008 168.123 76.4528 170.707 76.9922C173.263 77.5261 174.532 78.9051 173.723 84.0637C173.454 85.7756 177.402 86.2566 177.402 78.6618Z" fill="#BF847D"/>
<path d="M175.399 85.6234C175.921 82.1601 174.223 80.3618 168.608 79.4626C166.056 79.0305 166.567 80.4428 168.609 81.7915C169.833 82.6008 173.308 82.7495 172.263 87.0603C171.914 88.4988 174.972 88.4516 175.399 85.6234Z" fill="#BF847D"/>
<path d="M173.48 87.0887C172.786 84.6544 172.455 84.1964 168.192 83.2891C166.255 82.8531 166.642 84.2781 168.192 85.6389C169.122 86.4554 170.452 86.0396 170.452 90.5005C170.452 91.7446 174.255 89.8104 173.48 87.0887Z" fill="#BF847D"/>
</svg>
