<svg width="195" height="206" viewBox="0 0 195 206" fill="none" xmlns="http://www.w3.org/2000/svg">
<path d="M98.2522 7.61104C153.316 0.782934 194.381 44.9855 194.381 86.8468C194.381 141.391 129.174 114.742 85.5206 151.98C41.8675 189.218 -10.8299 139.95 3.06285 92.4368C16.9556 44.924 58.313 12.5696 98.2522 7.61104Z" fill="#E5E5E5"/>
<g clip-path="url(#clip0)">
<path d="M119.632 172.97L114.462 168.878L122.013 159.09L129.634 164.991L129.206 165.627C127.274 168.447 119.175 179.817 117.237 181.195C115.081 182.743 119.632 172.97 119.632 172.97Z" fill="#F15D46"/>
<path d="M116.591 181.061C116.499 180.991 119.274 177.288 122.786 172.793C126.298 168.298 129.22 164.716 129.311 164.786C129.402 164.857 126.628 168.56 123.116 173.054C119.604 177.549 116.682 181.132 116.591 181.061Z" fill="#263238"/>
<path d="M120.552 173.98C120.531 174.1 120.201 174.143 119.801 174.136C119.4 174.129 119.07 174.079 119.049 173.966C119.035 173.853 119.365 173.712 119.801 173.712C120.243 173.712 120.573 173.867 120.552 173.98Z" fill="#263238"/>
<path d="M120.412 174.871C120.377 174.984 120.004 174.977 119.569 174.913C119.133 174.849 118.768 174.765 118.768 174.644C118.768 174.531 119.154 174.425 119.625 174.489C120.096 174.56 120.447 174.758 120.412 174.871Z" fill="#263238"/>
<path d="M126.979 167.691C126.923 167.705 126.803 167.486 126.663 167.104C126.53 166.722 126.368 166.164 126.389 165.507C126.41 164.85 126.67 164.277 126.958 163.952C127.246 163.627 127.52 163.549 127.541 163.592C127.576 163.648 127.386 163.804 127.197 164.129C127.007 164.447 126.832 164.949 126.811 165.521C126.789 166.101 126.895 166.631 126.951 167.026C127.014 167.422 127.035 167.676 126.979 167.691Z" fill="#263238"/>
<path d="M119.562 173.238C119.52 173.125 119.73 172.941 120.004 172.765C120.278 172.588 120.538 172.475 120.622 172.56C120.7 172.645 120.545 172.92 120.229 173.118C119.92 173.323 119.604 173.344 119.562 173.238Z" fill="#263238"/>
<path d="M119.182 172.694C119.098 172.616 119.232 172.298 119.484 171.987C119.737 171.676 120.011 171.479 120.11 171.542C120.208 171.606 120.075 171.924 119.808 172.249C119.548 172.574 119.267 172.772 119.182 172.694Z" fill="#263238"/>
<path d="M85.3903 88.8523C85.3903 88.8523 69.9657 130.081 72.0448 137.783C74.1239 145.486 115.72 176.072 115.72 176.072L127.014 159.719C127.014 159.719 94.5707 133.89 94.4723 132.462C94.367 131.035 107.354 96.7813 107.354 96.7813L85.3903 88.8523Z" fill="#094B77"/>
<path d="M111.238 168.482C111.154 168.418 113.297 165.443 116.022 161.839C118.747 158.235 121.023 155.359 121.107 155.422C121.191 155.486 119.049 158.461 116.317 162.065C113.599 165.676 111.323 168.546 111.238 168.482Z" fill="#455A64"/>
<path d="M112.622 10.4521C113.999 13.2224 114.722 15.6251 117.455 17.0526C118.684 17.6957 120.187 18.0632 120.932 19.2434C121.739 20.5295 121.36 22.3881 122.378 23.5118C123.861 25.1442 126.902 23.8227 128.567 25.2573C130.056 26.5435 129.578 29.2996 131.18 30.4303C132.086 31.0663 133.315 30.9249 134.34 31.3278C136.026 31.985 136.827 33.9425 137.045 35.7446C137.22 37.1862 137.143 38.7056 136.511 40.02C135.886 41.3345 134.649 42.4087 133.209 42.5571C131.299 42.762 129.129 41.4334 127.583 42.5783C127.035 42.9881 126.712 43.6242 126.291 44.1612C125.329 45.3909 123.748 46.1046 122.196 46.0057C120.644 45.9068 119.162 45.0022 118.361 43.6595C117.293 41.8716 117.363 39.3982 115.797 38.0272C114.982 37.3064 113.872 37.0519 112.854 36.6703C111.836 36.2887 110.789 35.6527 110.48 34.6068C110.185 33.5892 109.595 32.939 109.012 32.0627C108.232 30.8825 107.186 32.3242 106.153 31.7447C105.121 31.1652 105.514 30.0345 105.423 28.8402" fill="#263238"/>
<path d="M94.4583 50.5003L81.1268 46.0128C81.1268 46.0128 75.2337 63.0864 73.4286 63.256C63.4264 64.1747 52.7219 60.8392 48.9711 59.5177C48.5918 59.0866 48.1563 58.5707 47.6717 57.9347C47.2573 57.3905 46.9412 56.7757 46.7305 56.1255C46.4776 55.3341 46.1756 54.274 46.1967 53.638C46.2177 52.8536 45.2835 52.4508 44.8481 53.0161C44.4126 53.5815 44.3072 55.7369 45.2906 58.0548C46.2809 60.3728 42.783 58.5283 41.4976 57.8781C40.2122 57.228 36.1383 55.4047 35.6326 55.645C34.8811 55.9983 35.1199 56.8676 36.4193 57.4895C37.7328 58.1184 41.4836 60.2385 41.1113 60.9028C40.7461 61.56 34.2419 58.1608 34.2419 58.1608C34.2419 58.1608 32.9705 57.2068 32.514 57.9629C31.6922 59.3268 38.8636 62.4222 39.552 62.7048C40.0296 62.8956 39.6503 63.6377 39.1446 63.4044C38.6248 63.1642 32.7387 59.8639 31.8888 61.242C31.2356 62.302 37.7679 63.8497 38.6108 65.2136C39.4537 66.5775 33.7783 63.5317 33.1953 64.5705C32.9776 64.9592 32.8652 65.2772 36.3842 66.5492C38.091 67.1711 41.301 67.9273 44.2089 68.5633L44.1948 68.5986C44.1948 68.5986 79.2795 84.379 86.8443 69.164C94.8657 53.0373 94.4583 50.5003 94.4583 50.5003Z" fill="#CC8C75"/>
<path d="M107.642 36.3665L113.465 36.4725L118.087 49.8077L114.322 65.0863C113.219 69.5526 118.213 78.4781 118.087 83.4037L85.4253 88.7251L84.737 66.7824L84.7229 66.0474L73.4214 60.3727L77.1511 51.1787C82.8897 37.6526 92.9129 36.8329 92.9129 36.8329L107.642 36.3665Z" fill="#26C1E1"/>
<path d="M113.704 36.5078C113.704 36.5149 113.641 36.5431 113.514 36.5855C113.388 36.6279 113.198 36.6845 112.938 36.741C112.432 36.8753 111.646 36.9106 110.677 36.9671L110.747 36.8329C111.351 37.8222 112.102 39.0448 112.98 40.4723L113.128 40.7197L112.847 40.6702C111.695 40.4723 110.36 40.3875 108.935 40.543L109.068 40.3734C109.223 41.7585 109.201 43.292 109.693 44.7973L109.791 45.0941L109.489 45.0163C108.106 44.663 106.624 44.2743 105.233 43.4475L105.507 43.3273C105.247 44.6418 104.966 46.0198 104.685 47.4261L104.622 47.73L104.383 47.5392C103.821 47.0869 103.245 46.5781 102.704 46.0198C102.178 45.4898 101.693 44.9315 101.236 44.352L101.503 44.3803C100.218 45.3979 98.9676 46.3873 97.7665 47.3484L97.5347 47.5321L97.4785 47.2424C97.2116 45.928 96.9587 44.663 96.7058 43.4475L96.9306 43.5747C95.5188 44.0694 94.1842 44.5428 92.941 44.981L92.66 45.0799L92.7373 44.7973C93.1658 43.2001 93.5521 41.7444 93.8963 40.444L94.0016 40.6066C92.66 40.3734 91.5081 40.1755 90.5318 40.0059L90.3843 39.9776L90.4686 39.8575C91.1148 38.9105 91.6205 38.1685 91.9857 37.6244C92.1473 37.3912 92.2807 37.2074 92.3931 37.0519C92.4844 36.9247 92.5406 36.8611 92.5477 36.8682C92.5547 36.8753 92.5196 36.9459 92.4353 37.0802C92.3369 37.2427 92.2175 37.4336 92.07 37.6809C91.7188 38.2321 91.2342 38.9953 90.6231 39.9635L90.5599 39.8222C91.5362 39.9706 92.6952 40.1472 94.0438 40.3522L94.1842 40.3734L94.1491 40.5147C93.819 41.815 93.4467 43.2779 93.0464 44.8821L92.8427 44.6983C94.0859 44.246 95.4134 43.7655 96.8253 43.2567L97.0079 43.1931L97.05 43.3909C97.3029 44.6065 97.5628 45.8714 97.8367 47.1859L97.5487 47.0799C98.7498 46.1188 100 45.1294 101.278 44.1047L101.426 43.9846L101.545 44.133C101.988 44.6983 102.465 45.2425 102.985 45.7654C103.519 46.3096 104.081 46.8113 104.636 47.2565L104.334 47.3696C104.622 45.9633 104.896 44.5852 105.163 43.2708L105.212 43.0164L105.437 43.1507C106.743 43.9351 108.218 44.3379 109.581 44.6913L109.377 44.9103C108.871 43.3344 108.906 41.7656 108.773 40.4087L108.759 40.2532L108.913 40.2391C110.367 40.0978 111.73 40.1967 112.903 40.4158L112.77 40.6137C111.927 39.172 111.196 37.9353 110.606 36.9318L110.529 36.8046L110.669 36.7975C111.66 36.7693 112.411 36.7622 112.924 36.6562C113.437 36.5643 113.697 36.4937 113.704 36.5078Z" fill="#455A64"/>
<path d="M120.152 42.1118C120.145 42.1259 119.927 42.0058 119.47 41.8715C119.021 41.7514 118.297 41.6171 117.405 41.8362L117.455 41.7585C117.595 42.5358 117.799 43.4686 118.087 44.5357C118.368 45.6028 118.726 46.8113 119.042 48.1681L119.091 48.3731L118.894 48.3165C117.23 47.8289 115.27 47.4614 113.205 46.7618L113.402 46.6063C113.612 48.6204 113.605 50.8818 113.725 53.2492L113.732 53.4542L113.528 53.4259C111.723 53.1574 109.89 52.5779 108.014 51.963C107.797 51.8994 107.53 51.8076 107.466 51.9065C107.34 52.0054 107.256 52.2457 107.157 52.486C106.968 52.9524 106.771 53.4259 106.574 53.8994C106.181 54.8534 105.788 55.8216 105.387 56.7968L105.268 57.0865L105.071 56.8392C103.87 55.341 102.613 53.7722 101.335 52.1751L101.054 51.8288L101.306 51.8641C99.2484 53.2846 97.2396 54.6767 95.301 56.0194L95.1043 56.1608L95.027 55.9276C94.3527 53.97 93.6925 52.069 93.0603 50.2387L93.3202 50.3306C91.0936 51.7864 88.8249 52.8959 86.6404 53.7156L86.3875 53.8075L86.4227 53.539C86.8511 50.479 87.2374 47.73 87.5676 45.3555L87.7361 45.4898C85.7132 46.2954 83.8449 46.4509 82.3628 46.3661L82.2434 46.359L82.2856 46.2459C82.8334 44.776 83.2549 43.6382 83.5499 42.8397C83.6903 42.4722 83.8027 42.1825 83.887 41.9705C83.9643 41.7726 84.0064 41.6807 84.0134 41.6807C84.0205 41.6807 83.9924 41.7867 83.9292 41.9846C83.8589 42.2037 83.7606 42.5005 83.6342 42.875C83.3532 43.6806 82.9599 44.8325 82.4471 46.3095L82.3698 46.1894C83.8308 46.2459 85.6711 46.0693 87.6378 45.2636L87.8415 45.1788L87.8134 45.3979C87.4973 47.7794 87.1391 50.5285 86.7317 53.5955L86.521 53.4259C88.6844 52.5991 90.925 51.4896 93.1235 50.0409L93.3132 49.9136L93.3904 50.1257C94.0296 51.956 94.6899 53.857 95.3712 55.8145L95.0902 55.7226C97.0289 54.3799 99.0377 52.9877 101.096 51.5602L101.236 51.4613L101.349 51.5956L101.63 51.9418C102.908 53.539 104.165 55.1149 105.359 56.6131L105.043 56.6555C105.444 55.6732 105.844 54.7121 106.237 53.758C106.434 53.2846 106.631 52.8111 106.82 52.3447C106.926 52.1256 106.975 51.85 107.249 51.6238C107.326 51.5744 107.382 51.532 107.502 51.5108C107.6 51.5037 107.67 51.5108 107.74 51.5249C107.881 51.5532 108 51.5885 108.127 51.6238C110.002 52.2457 111.807 52.8252 113.591 53.0938L113.395 53.2704C113.282 50.8818 113.31 48.6416 113.114 46.6417L113.093 46.4085L113.31 46.4862C115.347 47.2 117.293 47.5816 118.972 48.0904L118.817 48.2317C118.522 46.882 118.178 45.6735 117.911 44.5923C117.637 43.5181 117.448 42.5711 117.328 41.7867L117.321 41.7231L117.384 41.709C118.311 41.504 119.042 41.6595 119.499 41.8079C119.948 41.9563 120.152 42.1118 120.152 42.1118Z" fill="#455A64"/>
<path d="M84.9197 65.8848C84.9056 65.906 84.6458 65.8 84.2173 65.5103C83.8029 65.2135 83.2129 64.7329 82.7071 63.9414C82.1944 63.1711 81.8362 62.0404 81.9415 60.8037C81.9907 59.5812 82.377 58.2172 83.2129 57.0583C83.845 56.1537 84.6598 55.447 85.5308 54.9735L85.4324 55.1078C85.6994 53.0938 85.9452 51.3624 86.1348 50.1327C86.3245 48.9031 86.4509 48.1893 86.4931 48.1893C86.5352 48.1964 86.479 48.9243 86.3526 50.161C86.2262 51.3977 86.0295 53.1362 85.7836 55.1502L85.7766 55.235L85.6853 55.2845C84.9057 55.7226 84.1119 56.4081 83.5219 57.2632C82.7352 58.3657 82.356 59.6448 82.2927 60.8108C82.1804 61.9839 82.4824 63.0298 82.9389 63.786C83.3885 64.5563 83.9363 65.0509 84.3086 65.376C84.6949 65.7082 84.9337 65.8566 84.9197 65.8848Z" fill="#455A64"/>
<path d="M86.1488 51.0798C86.0575 51.1222 85.7344 50.6557 85.4323 50.0339C85.1303 49.412 84.9547 48.8678 85.053 48.8184C85.1443 48.7759 85.4674 49.2424 85.7695 49.8642C86.0715 50.4932 86.2401 51.0374 86.1488 51.0798Z" fill="#455A64"/>
<path d="M107.249 36.5572L108.253 13.4626L99.1361 6.51587L90.8478 10.5935C90.8478 10.5935 90.5739 21.0595 90.8478 25.5965C91.1218 30.1334 95.6733 30.621 95.6733 30.621C95.6733 30.621 95.5679 33.2782 95.4626 36.0767C95.3361 39.4617 98.0474 42.2602 101.412 42.232C104.545 42.2037 107.108 39.7091 107.249 36.5572Z" fill="#CC8C75"/>
<path d="M91.7539 18.2257C91.7539 18.5438 92.0138 18.8052 92.3299 18.8052C92.6459 18.8052 92.9058 18.5438 92.9058 18.2257C92.9058 17.9077 92.6459 17.6463 92.3299 17.6463C92.0138 17.6392 91.7539 17.9007 91.7539 18.2257Z" fill="#263238"/>
<path d="M91.1919 17.5898C91.2692 17.6675 91.6906 17.3 92.3158 17.2647C92.9339 17.2223 93.4045 17.5332 93.4677 17.4484C93.5028 17.4131 93.4256 17.2717 93.2148 17.1304C93.0112 16.9891 92.674 16.8619 92.2877 16.8831C91.9014 16.9043 91.5783 17.0739 91.3956 17.2364C91.22 17.4131 91.1568 17.5544 91.1919 17.5898Z" fill="#263238"/>
<path d="M98.4478 18.2257C98.4478 18.5438 98.7076 18.8052 99.0237 18.8052C99.3398 18.8052 99.5997 18.5438 99.5997 18.2257C99.5997 17.9077 99.3398 17.6463 99.0237 17.6463C98.7006 17.6392 98.4478 17.9007 98.4478 18.2257Z" fill="#263238"/>
<path d="M98.0826 17.5898C98.1598 17.6675 98.5813 17.3 99.2064 17.2647C99.8245 17.2223 100.295 17.5332 100.358 17.4484C100.393 17.4131 100.316 17.2717 100.105 17.1304C99.9018 16.9891 99.5646 16.8619 99.1783 16.8831C98.792 16.9043 98.4689 17.0739 98.2863 17.2364C98.1107 17.4131 98.0475 17.5544 98.0826 17.5898Z" fill="#263238"/>
<path d="M97.8998 23.4623C97.1272 23.851 95.7575 24.4022 94.8936 24.5011C94.8936 24.5011 95.6592 25.6035 96.9516 25.0877C98.2932 24.5647 97.8998 23.4623 97.8998 23.4623Z" fill="white"/>
<path d="M95.6733 30.6211C95.6733 30.6211 98.7147 30.6564 101.651 28.5929C101.651 28.5929 100.295 31.9285 95.7717 31.7377L95.6733 30.6211Z" fill="#D78776"/>
<path d="M121.374 26.5152C120.974 26.5364 120.377 26.4728 119.738 26.1406C119.091 25.8226 118.459 25.2219 117.953 24.4022C117.441 23.5895 117.047 22.5789 116.619 21.5259C115.776 19.4129 115.144 17.4554 114.708 16.0279C114.638 15.8017 114.582 15.5968 114.519 15.3989C114.484 15.1587 114.441 14.9396 114.399 14.777C111.941 5.31447 103.667 3.54774 102.037 3.54774C100.281 3.54774 97.2117 2.57958 92.7374 7.2508C91.9858 8.03522 91.445 8.82671 91.0376 9.61114C89.8857 11.0669 89.2746 12.6782 89.0428 13.8866C88.7689 15.2717 88.8883 16.141 88.9374 16.141C89.0217 16.141 89.0358 15.2859 89.387 13.9714C89.5626 13.3142 89.8365 12.5368 90.2509 11.7383C89.5977 14.671 90.7075 16.9678 90.7075 16.9678L92.3089 16.5226L98.0545 14.558C97.5348 12.77 98.3004 10.544 98.7359 9.50514L98.778 9.46273C100.091 16.254 106.371 16.883 106.371 16.883L107.432 31.7447C115.067 30.1051 114.898 19.8228 114.849 17.731C115.193 18.9112 115.643 20.261 116.211 21.6743C116.64 22.7273 117.047 23.752 117.609 24.6C118.157 25.4551 118.881 26.0911 119.59 26.395C120.299 26.713 120.953 26.7342 121.374 26.6636C121.796 26.5788 121.999 26.4445 121.992 26.4233C121.999 26.4021 121.781 26.4869 121.374 26.5152Z" fill="#263238"/>
<path d="M95.8418 22.8757C95.8418 22.8404 95.4555 22.798 94.8234 22.7485C94.6618 22.7415 94.5073 22.7203 94.4792 22.6001C94.437 22.48 94.5003 22.2962 94.5705 22.0984C94.7039 21.6885 94.8444 21.2574 94.999 20.8051C95.294 19.8794 95.5468 19.0455 95.7224 18.4307C95.898 17.8229 95.9823 17.4342 95.9542 17.4272C95.9191 17.413 95.7716 17.7805 95.5538 18.3812C95.3361 18.9748 95.0551 19.8087 94.7601 20.7274C94.6197 21.1797 94.4792 21.6178 94.3528 22.0277C94.2966 22.2185 94.2052 22.4376 94.2895 22.6779C94.3387 22.798 94.4511 22.8828 94.5564 22.904C94.6548 22.9323 94.7461 22.9252 94.8234 22.9252C95.4485 22.9252 95.8418 22.9111 95.8418 22.8757Z" fill="#263238"/>
<path d="M108.731 22.6849C108.703 21.9288 108.703 21.1514 108.97 20.4447C109.244 19.7381 109.841 19.1162 110.592 19.0384C111.456 18.9466 112.285 19.6674 112.425 20.5295C112.559 21.3917 112.067 22.2821 111.309 22.7132C110.557 23.1372 109.595 23.1302 108.801 22.7839" fill="#E5BAAB"/>
<path d="M110.044 22.0206C110.072 21.9711 110.29 22.0842 110.606 21.9853C110.929 21.9075 111.253 21.5401 111.281 21.0171C111.302 20.7627 111.245 20.5295 111.119 20.4093C110.993 20.2892 110.789 20.2539 110.627 20.2609C110.29 20.2892 110.051 20.3811 110.03 20.3245C110.016 20.2892 110.185 20.1125 110.585 19.9995C110.789 19.9571 111.077 19.9429 111.344 20.1479C111.611 20.3669 111.674 20.7274 111.653 21.0454C111.632 21.3704 111.512 21.6743 111.316 21.8934C111.126 22.1125 110.866 22.2255 110.648 22.2467C110.213 22.2962 110.009 22.0489 110.044 22.0206Z" fill="#D78776"/>
<path d="M103.133 202.502V195.887L115.446 195.81L115.544 205.484L114.779 205.541C111.379 205.753 97.4926 206.375 95.2168 205.696C92.6882 204.94 103.133 202.502 103.133 202.502Z" fill="#F15D46"/>
<path d="M94.9358 205.089C94.9358 204.968 99.5435 204.877 105.226 204.877C110.908 204.877 115.516 204.968 115.516 205.089C115.516 205.202 110.908 205.301 105.226 205.301C99.5435 205.301 94.9358 205.209 94.9358 205.089Z" fill="#263238"/>
<path d="M102.915 203.852C102.81 203.908 102.571 203.668 102.325 203.35C102.079 203.032 101.918 202.735 101.995 202.65C102.072 202.566 102.395 202.742 102.655 203.089C102.929 203.435 103.021 203.795 102.915 203.852Z" fill="#263238"/>
<path d="M102.135 204.283C102.023 204.325 101.805 204.029 101.581 203.647C101.356 203.265 101.201 202.926 101.293 202.848C101.384 202.778 101.7 203.018 101.939 203.428C102.185 203.845 102.241 204.248 102.135 204.283Z" fill="#263238"/>
<path d="M111.801 205.046C111.751 205.011 111.85 204.778 112.067 204.431C112.285 204.085 112.622 203.619 113.149 203.23C113.676 202.841 114.287 202.686 114.715 202.721C115.151 202.749 115.376 202.919 115.355 202.961C115.334 203.025 115.095 202.969 114.722 203.018C114.357 203.06 113.859 203.23 113.395 203.569C112.931 203.908 112.573 204.318 112.306 204.608C112.032 204.905 111.85 205.082 111.801 205.046Z" fill="#263238"/>
<path d="M102.88 202.608C102.936 202.509 103.217 202.559 103.526 202.665C103.835 202.778 104.081 202.912 104.067 203.025C104.053 203.138 103.737 203.187 103.386 203.06C103.034 202.94 102.824 202.707 102.88 202.608Z" fill="#263238"/>
<path d="M103.077 201.965C103.084 201.852 103.421 201.76 103.814 201.76C104.214 201.767 104.538 201.866 104.545 201.979C104.552 202.092 104.222 202.184 103.807 202.184C103.393 202.184 103.063 202.085 103.077 201.965Z" fill="#263238"/>
<path d="M92.1333 87.7216L85.3833 88.8523L89.2676 93.6578C90.3844 116.293 90.1104 138.215 91.143 149.147C91.2975 150.808 98.2653 202.884 97.5769 201.661L118.087 202.523L111.962 150.228L114.863 103.778C118.01 98.2937 118.93 91.7921 117.434 85.6368L116.928 83.545" fill="#006FB9"/>
<path d="M122.702 131.056L30.9265 104.145C28.0396 103.297 26.3749 100.251 27.2178 97.3467L43.5415 40.9882C44.3844 38.0837 47.4117 36.4088 50.2985 37.2569L142.074 64.1676C144.961 65.0156 146.625 68.0615 145.782 70.966L129.459 127.324C128.616 130.236 125.588 131.904 122.702 131.056Z" fill="#FDD610"/>
<path d="M127.738 76.8456C126.6 80.7678 122.519 83.0221 118.628 81.8773C114.729 80.7324 112.489 76.6266 113.627 72.7115C114.764 68.7894 118.845 66.535 122.737 67.6799C126.635 68.8176 128.876 72.9235 127.738 76.8456Z" fill="#006FB9"/>
<path d="M129.199 85.0291C128.475 85.0291 127.745 84.9231 127.028 84.7181C125.047 84.1387 123.418 82.8172 122.428 81.001C121.437 79.1848 121.205 77.0859 121.788 75.1001C122.364 73.1072 123.678 71.4677 125.483 70.4713C127.288 69.4749 129.374 69.2487 131.348 69.8211C135.429 71.0154 137.782 75.3333 136.595 79.4392C136.019 81.432 134.705 83.0716 132.9 84.068C131.741 84.7111 130.477 85.0291 129.199 85.0291ZM129.171 70.2381C128.012 70.2381 126.867 70.5278 125.82 71.1073C124.184 72.0119 122.996 73.503 122.47 75.305C121.95 77.1071 122.154 79.0081 123.053 80.6547C123.952 82.3013 125.434 83.4956 127.225 84.0256C129.016 84.5485 130.905 84.3436 132.542 83.439C134.179 82.5345 135.366 81.0434 135.892 79.2413C136.967 75.5171 134.839 71.6091 131.137 70.5208C130.491 70.33 129.831 70.2381 129.171 70.2381Z" fill="#006FB9"/>
<path d="M41.7362 81.1494L40.0786 86.8594L39.4956 86.6898L40.9987 81.5027L39.6642 81.114L39.8117 80.5911L41.7362 81.1494Z" fill="#006FB9"/>
<path d="M46.07 88.0467L45.9154 88.5696L41.9329 87.4036L42.0523 86.9866L45.0866 85.3542C45.9084 84.9019 46.1472 84.5556 46.2596 84.1669C46.4493 83.5026 46.1051 82.9656 45.2411 82.7112C44.5739 82.5133 44.0049 82.5698 43.5062 82.8949L43.1972 82.4144C43.7872 82.0186 44.5739 81.9338 45.4448 82.1882C46.5968 82.5274 47.1587 83.326 46.8777 84.28C46.7162 84.8242 46.4071 85.2694 45.4308 85.7923L42.9443 87.135L46.07 88.0467Z" fill="#006FB9"/>
<path d="M52.3284 88.8169L51.1905 88.4848L50.755 89.983L50.1791 89.8204L50.6145 88.3222L47.4116 87.3823L47.531 86.9583L51.633 84.0538L52.2863 84.2376L48.3177 87.0714L50.7831 87.7922L51.1694 86.4707L51.7384 86.6403L51.3591 87.9618L52.497 88.294L52.3284 88.8169Z" fill="#006FB9"/>
<path d="M61.0312 91.3681L59.8933 91.0359L59.4579 92.5341L58.8749 92.3645L59.3104 90.8663L56.1074 89.9264L56.2268 89.5024L60.3288 86.5979L60.975 86.7887L57.0065 89.6225L59.4719 90.3434L59.8582 89.0218L60.4272 89.1915L60.0479 90.513L61.1857 90.8451L61.0312 91.3681Z" fill="#006FB9"/>
<path d="M66.0392 92.6473C65.7582 93.6154 64.8662 94.1808 63.4755 93.7709C62.6607 93.5306 61.9583 93.0147 61.6562 92.4423L62.0777 92.0607C62.3305 92.5483 62.8995 93.0218 63.63 93.2338C64.5923 93.5165 65.2455 93.1914 65.4422 92.4988C65.6529 91.7639 65.3368 91.1773 63.8899 90.7533L62.6817 90.4L63.8056 87.6227L66.9102 88.5343L66.7627 89.0573L64.1708 88.294L63.4474 90.0537L64.1779 90.2657C65.8847 90.7675 66.3342 91.6367 66.0392 92.6473Z" fill="#006FB9"/>
<path d="M71.6584 94.2655C71.3494 95.3326 70.3169 95.7778 69.2141 95.4527C67.7039 95.0075 67.1912 93.7143 67.711 91.9122C68.2729 89.9688 69.6215 89.2692 71.1597 89.7215C71.6725 89.8699 72.122 90.1031 72.417 90.4282L72.0448 90.831C71.8059 90.5483 71.4407 90.3646 71.0193 90.2374C69.7971 89.877 68.7786 90.4423 68.3291 91.99C68.294 92.1172 68.2518 92.2868 68.2167 92.4634C68.6803 91.9193 69.4459 91.7638 70.2326 91.997C71.3705 92.3221 71.9605 93.2196 71.6584 94.2655ZM71.0754 94.11C71.2932 93.3609 70.8788 92.7179 70.0078 92.4634C69.1368 92.209 68.3923 92.5765 68.1886 93.2832C68.006 93.9122 68.3501 94.6612 69.3335 94.951C70.1483 95.1842 70.8577 94.8733 71.0754 94.11Z" fill="#006FB9"/>
<path d="M79.4057 96.6118C79.1317 97.5658 78.2256 98.0958 76.856 97.7C76.0342 97.4598 75.3318 96.9439 75.0227 96.3644L75.4441 95.9828C75.697 96.4704 76.273 96.9439 77.0105 97.1559C77.9517 97.4315 78.5979 97.1418 78.8016 96.4351C78.9983 95.7496 78.6541 95.163 77.6005 94.8521L77.1931 94.732L77.3195 94.3009L79.4689 92.7815L76.568 91.9335L76.7225 91.4105L80.375 92.4776L80.2556 92.8946L78.0641 94.4564C79.2441 94.8733 79.6726 95.6931 79.4057 96.6118Z" fill="#006FB9"/>
<path d="M85.1162 98.2089C84.8071 99.276 83.7746 99.7212 82.6719 99.3961C81.1617 98.9509 80.649 97.6577 81.1687 95.8556C81.7306 93.9122 83.0792 93.2126 84.6175 93.6648C85.1302 93.8133 85.5798 94.0465 85.8748 94.3715L85.5025 94.7744C85.2637 94.4917 84.8984 94.3079 84.477 94.1807C83.2548 93.8203 82.2364 94.3857 81.7868 95.9333C81.7517 96.0605 81.7096 96.2301 81.6744 96.4068C82.138 95.8627 82.9036 95.7072 83.6903 95.9404C84.8212 96.2655 85.4182 97.17 85.1162 98.2089ZM84.5332 98.0605C84.7509 97.3114 84.3365 96.6683 83.4656 96.4139C82.5946 96.1595 81.8501 96.5269 81.6464 97.2336C81.4637 97.8626 81.8079 98.6117 82.7913 98.8944C83.606 99.1346 84.3155 98.8166 84.5332 98.0605Z" fill="#006FB9"/>
<path d="M91.494 95.7354L91.3746 96.1523L87.4622 100.753L86.8301 100.569L90.6652 96.0675L87.7432 95.2125L87.4341 96.2796L86.8582 96.1099L87.3218 94.5199L91.494 95.7354Z" fill="#006FB9"/>
<path d="M99.6068 98.117L99.4874 98.5339L95.575 103.134L94.9429 102.951L98.778 98.4491L95.856 97.5941L95.5469 98.6611L94.971 98.4915L95.4345 96.9015L99.6068 98.117Z" fill="#006FB9"/>
<path d="M104.004 103.869C103.709 104.88 102.676 105.262 101.32 104.866C99.9578 104.463 99.3116 103.594 99.6066 102.583C99.8033 101.898 100.33 101.53 101.11 101.502C100.597 101.106 100.407 100.583 100.583 99.9826C100.85 99.0498 101.805 98.7035 103.006 99.0569C104.207 99.4102 104.839 100.223 104.573 101.156C104.397 101.749 103.947 102.089 103.301 102.145C103.94 102.59 104.193 103.198 104.004 103.869ZM103.4 103.686C103.603 102.986 103.133 102.371 102.121 102.074C101.117 101.778 100.393 102.046 100.19 102.746C99.9859 103.452 100.449 104.067 101.454 104.364C102.472 104.661 103.196 104.399 103.4 103.686ZM102.262 101.608C103.147 101.869 103.786 101.622 103.968 101C104.158 100.357 103.709 99.7989 102.859 99.5515C102.002 99.2971 101.342 99.5304 101.159 100.166C100.976 100.802 101.377 101.354 102.262 101.608Z" fill="#006FB9"/>
<path d="M109.89 104.173C109.328 106.117 107.979 106.816 106.441 106.364C105.928 106.216 105.479 105.982 105.184 105.657L105.556 105.255C105.788 105.537 106.16 105.721 106.581 105.848C107.804 106.209 108.822 105.643 109.272 104.096C109.307 103.968 109.349 103.799 109.384 103.622C108.92 104.166 108.155 104.322 107.368 104.096C106.244 103.763 105.647 102.866 105.949 101.82C106.258 100.753 107.291 100.315 108.394 100.633C109.904 101.078 110.416 102.371 109.89 104.173ZM109.419 102.802C109.602 102.173 109.257 101.424 108.274 101.142C107.459 100.901 106.75 101.219 106.532 101.975C106.314 102.725 106.729 103.368 107.6 103.629C108.464 103.884 109.215 103.516 109.419 102.802Z" fill="#006FB9"/>
<path d="M116.457 103.057L114.8 108.767L114.217 108.597L115.72 103.41L114.385 103.014L114.533 102.491L116.457 103.057Z" fill="#006FB9"/>
<path d="M120.791 109.954L120.643 110.477L116.661 109.311L116.78 108.894L119.815 107.262C120.636 106.816 120.875 106.463 120.988 106.074C121.177 105.41 120.833 104.866 119.969 104.619C119.302 104.421 118.733 104.477 118.234 104.802L117.925 104.322C118.515 103.926 119.302 103.841 120.173 104.096C121.325 104.435 121.887 105.233 121.606 106.187C121.444 106.732 121.135 107.177 120.159 107.7L117.672 109.042L120.791 109.954Z" fill="#006FB9"/>
<path d="M126.206 110.329C125.933 111.283 125.026 111.813 123.657 111.417C122.835 111.177 122.133 110.661 121.823 110.081L122.245 109.7C122.498 110.187 123.074 110.661 123.811 110.88C124.752 111.155 125.399 110.866 125.602 110.159C125.799 109.473 125.455 108.887 124.394 108.576L123.987 108.456L124.113 108.025L126.263 106.505L123.362 105.657L123.516 105.134L127.162 106.201L127.042 106.618L124.851 108.18C126.052 108.597 126.473 109.417 126.206 110.329Z" fill="#006FB9"/>
<path d="M80.9156 103.448L80.1985 105.925L125.658 119.249L126.375 116.773L80.9156 103.448Z" fill="#006FB9"/>
<path d="M101.627 114.882L100.908 117.365L124.228 124.2L124.947 121.717L101.627 114.882Z" fill="#006FB9"/>
<path d="M55.4191 79.8491L43.0359 76.2167C41.1886 75.6725 40.128 73.7291 40.6618 71.8705L42.8673 64.2666C43.4081 62.408 45.3397 61.3409 47.187 61.878L59.5633 65.5103C61.4106 66.0545 62.4712 67.9979 61.9374 69.8565L59.7389 77.4605C59.205 79.3261 57.2664 80.3932 55.4191 79.8491Z" fill="#006FB9"/>
<path d="M40.8442 71.2699L41.1111 70.3512L50.9306 73.2345C52.0615 73.5666 53.2556 72.9094 53.5857 71.7716C53.9158 70.6338 53.2556 69.4183 52.1317 69.1003L42.3052 66.217L42.5721 65.2983L52.3916 68.1816C54.0282 68.6622 54.9694 70.3936 54.4988 72.0402C54.0212 73.6867 52.3003 74.6408 50.6637 74.1602L40.8442 71.2699Z" fill="white"/>
<path d="M54.1778 71.4311L53.9097 72.3535L60.6513 74.3372L60.9194 73.4147L54.1778 71.4311Z" fill="white"/>
<path d="M98.5737 64.1447L49.5183 49.7598L48.292 53.9931L97.3473 68.3781L98.5737 64.1447Z" fill="#006FB9"/>
<path d="M106.273 5.98589C105.254 5.59014 104.425 4.69264 104.165 3.62554C103.906 2.55844 104.264 1.35 105.093 0.636247C105.928 -0.0775098 107.214 -0.218848 108.148 0.346504C108.914 0.805852 109.377 1.64681 109.665 2.49484C109.862 3.06019 109.995 3.67501 109.848 4.2545C109.63 5.12373 108.815 5.73854 107.958 5.97175C107.101 6.20496 106.188 6.12722 105.303 6.04242" fill="#263238"/>
<path d="M124.373 18.5791C124.331 18.572 124.535 18.247 124.415 17.6534C124.352 17.3636 124.205 17.0173 123.924 16.7064C123.65 16.3954 123.228 16.141 122.716 16.0068C122.203 15.8654 121.613 15.8372 120.981 15.8796C120.349 15.922 119.66 16.035 118.916 16.0492C118.178 16.0633 117.349 15.9644 116.633 15.505C115.881 15.0457 115.516 14.1694 115.27 13.3779C114.786 11.7808 113.957 10.4098 113.023 9.32148C112.081 8.23318 111.049 7.43462 110.115 6.87634C108.232 5.76683 106.841 5.59016 106.87 5.50536C106.87 5.49122 106.954 5.49829 107.115 5.52656C107.277 5.55483 107.516 5.58309 107.811 5.6679C108.415 5.80923 109.265 6.11311 110.241 6.64313C111.21 7.18021 112.299 7.97877 113.275 9.08827C114.252 10.1907 115.123 11.6253 115.621 13.2577C115.874 14.0492 116.197 14.7983 116.83 15.1941C117.448 15.5969 118.213 15.71 118.909 15.7029C119.618 15.6958 120.306 15.5969 120.96 15.5686C121.613 15.5333 122.238 15.5757 122.786 15.7524C123.334 15.9149 123.79 16.2117 124.078 16.5721C124.373 16.9255 124.507 17.3141 124.556 17.6322C124.598 17.9502 124.549 18.2046 124.493 18.36C124.436 18.5155 124.38 18.5862 124.373 18.5791Z" fill="#263238"/>
<path d="M111.4 22.6426C111.421 22.6073 111.737 22.8758 111.737 23.4906C111.73 23.7804 111.611 24.162 111.316 24.4376C111.028 24.7132 110.571 24.8899 110.101 24.8192C109.63 24.7415 109.258 24.4235 109.068 24.0701C108.871 23.7097 108.878 23.314 108.97 23.0383C109.159 22.4589 109.546 22.3034 109.553 22.3458C109.595 22.3882 109.314 22.6143 109.23 23.1019C109.188 23.3422 109.209 23.639 109.377 23.9005C109.532 24.162 109.827 24.3952 110.171 24.4517C110.515 24.5083 110.859 24.3811 111.098 24.1832C111.337 23.9853 111.449 23.7168 111.491 23.4694C111.541 22.9677 111.344 22.6709 111.4 22.6426Z" fill="#E0E0E0"/>
<path d="M109.581 6.87627C109.49 6.95401 108.59 5.80917 107.045 4.99648C105.507 4.16258 104.06 4.05658 104.074 3.94351C104.06 3.85164 105.598 3.78804 107.221 4.66433C108.85 5.51943 109.665 6.83387 109.581 6.87627Z" fill="#E8505B"/>
<path d="M112.201 21.7733C112.201 21.7238 112.397 21.7097 112.524 21.9429C112.58 22.0489 112.608 22.2185 112.531 22.3881C112.447 22.5648 112.25 22.6778 112.053 22.6849C111.857 22.692 111.66 22.6001 111.562 22.4517C111.456 22.3104 111.442 22.1549 111.456 22.0418C111.491 21.8016 111.625 21.7168 111.66 21.7521C111.709 21.7804 111.681 21.8934 111.723 22.0348C111.765 22.1832 111.864 22.3174 112.046 22.3033C112.222 22.2962 112.292 22.1761 112.278 22.0277C112.271 21.9005 112.187 21.8298 112.201 21.7733Z" fill="#E0E0E0"/>
<path d="M107.396 35.8506C107.417 35.8506 107.481 36.1191 107.474 36.6138C107.474 37.1085 107.382 37.8364 107.066 38.6703C106.743 39.4971 106.174 40.437 105.254 41.2002C104.348 41.9705 103.084 42.4864 101.721 42.5783C100.358 42.656 99.0378 42.2956 98.0475 41.6384C97.0501 40.9882 96.3687 40.1261 95.9473 39.3487C95.5329 38.5572 95.3573 37.8505 95.2941 37.3558C95.2309 36.8612 95.266 36.5856 95.28 36.5856C95.3643 36.5644 95.3151 37.7092 96.1791 39.2144C96.6146 39.9494 97.2819 40.748 98.2301 41.3416C99.1713 41.9423 100.408 42.2673 101.693 42.1967C102.978 42.1119 104.165 41.6384 105.029 40.9317C105.9 40.225 106.469 39.3487 106.813 38.5714C107.495 36.9742 107.312 35.8365 107.396 35.8506Z" fill="#455A64"/>
<path d="M117.384 197.852C117.384 197.88 117.104 197.916 116.598 197.965C116.092 198.015 115.355 198.064 114.448 198.106C112.629 198.198 110.115 198.241 107.34 198.191C104.566 198.149 102.051 198.064 100.239 197.993C99.3961 197.951 98.6797 197.923 98.0897 197.894C97.5839 197.859 97.303 197.831 97.303 197.81C97.303 197.781 97.5839 197.76 98.0967 197.753C98.6024 197.739 99.3399 197.732 100.253 197.732C102.072 197.732 104.58 197.781 107.354 197.817C110.129 197.859 112.636 197.859 114.448 197.838C115.291 197.831 116.008 197.824 116.598 197.817C117.104 197.81 117.384 197.824 117.384 197.852Z" fill="#263238"/>
<path d="M121.381 59.8145L109.335 51.843C109.335 51.843 103.442 68.9166 101.637 69.0862C91.6345 70.0049 80.9299 66.6694 77.1791 65.3479C76.7998 64.9168 76.3644 64.4009 75.8797 63.7649C75.4653 63.2207 75.1492 62.6059 74.9385 61.9557C74.6856 61.1642 74.3836 60.1042 74.4047 59.4682C74.4257 58.6838 73.4916 58.281 73.0561 58.8463C72.6206 59.4117 72.5152 61.5671 73.4986 63.885C74.489 66.2029 70.991 64.3585 69.7056 63.7083C68.4203 63.0582 64.3464 61.2349 63.8406 61.4752C63.0891 61.8285 63.3279 62.6978 64.6273 63.3197C65.9408 63.9486 69.6916 66.0687 69.3193 66.733C68.9541 67.3902 62.4499 63.991 62.4499 63.991C62.4499 63.991 61.1785 63.037 60.722 63.7931C59.9002 65.157 67.0717 68.2523 67.76 68.535C68.2376 68.7258 67.8583 69.4679 67.3526 69.2346C66.8328 68.9944 60.9468 65.6941 60.0969 67.0722C59.4436 68.1322 65.9759 69.6799 66.8188 71.0438C67.6617 72.4077 61.9863 69.3618 61.4033 70.4007C61.1856 70.7894 61.0732 71.1074 64.5922 72.3794C66.299 73.0013 69.509 73.7575 72.4169 74.3935L72.4028 74.4288C72.4028 74.4288 108.267 90.5837 115.052 74.9942C122.259 58.4082 121.381 59.8145 121.381 59.8145Z" fill="#CC8C75"/>
<path d="M113.465 36.4724C113.465 36.4724 124.429 37.7727 123.263 50.8889C122.083 64.2665 116.584 74.146 116.584 74.146L102.213 66.5562C105.437 59.984 107.909 53.1856 109.461 46.1046L113.465 36.4724Z" fill="#26C1E1"/>
<path d="M113.704 36.5079C113.732 36.5927 112.51 36.9248 110.683 37.052L110.817 36.7976C111.231 37.476 111.688 38.2181 112.166 39.0095C112.461 39.5113 112.749 39.9989 113.022 40.4512L113.226 40.7975L112.833 40.7197C110.592 40.2886 108.92 40.4936 108.913 40.3876C108.906 40.3523 109.321 40.2533 110.03 40.2038C110.74 40.1544 111.744 40.1614 112.896 40.3593L112.713 40.6279C112.439 40.1756 112.144 39.695 111.842 39.1933C111.372 38.4018 110.929 37.6527 110.529 36.9601L110.381 36.7128L110.662 36.6987C111.568 36.6633 112.327 36.5997 112.854 36.5503C113.395 36.522 113.697 36.4725 113.704 36.5079Z" fill="#455A64"/>
<path d="M120.152 42.1119C120.145 42.1755 119.133 41.9211 117.384 41.8787L117.497 41.7444C117.911 43.4051 118.466 45.61 119.098 48.1541L119.175 48.4509L118.887 48.3732C117.504 47.9916 115.994 47.5746 114.42 47.1365C114.006 47.0234 113.605 46.9103 113.205 46.7972L113.444 46.6064C113.542 49.0445 113.634 51.3059 113.711 53.2423L113.718 53.4543L113.521 53.3977C111.786 52.9101 110.332 52.5002 109.237 52.1893C108.766 52.0479 108.373 51.9278 108.049 51.8289C107.776 51.7441 107.635 51.6875 107.642 51.6734C107.649 51.6593 107.797 51.6805 108.078 51.737C108.408 51.8147 108.808 51.9066 109.286 52.0126C110.388 52.2882 111.856 52.6557 113.591 53.0868L113.402 53.2423C113.303 51.2989 113.191 49.0445 113.072 46.6064L113.058 46.345L113.31 46.4156C113.711 46.5287 114.118 46.6418 114.526 46.7548C116.092 47.193 117.595 47.617 118.972 48.0057L118.754 48.2248C118.164 45.6665 117.658 43.4475 117.272 41.7727L117.237 41.6313L117.384 41.6384C118.262 41.6879 118.965 41.801 119.428 41.8999C119.906 42.02 120.152 42.0907 120.152 42.1119Z" fill="#455A64"/>
<path d="M121.037 60.0265C121.023 60.0406 120.819 59.8851 120.524 59.5035C120.229 59.129 119.913 58.5071 119.442 57.7863L119.639 57.7792C118.817 59.3975 117.504 61.7013 115.664 64.1323L115.516 64.3231L115.369 64.1323C114.694 63.249 113.971 62.302 113.233 61.3338C112.678 60.606 112.145 59.8922 111.618 59.2067L111.885 59.235C110.972 60.0335 110.108 60.7968 109.3 61.5105C108.899 61.8639 108.506 62.2031 108.134 62.5211C107.951 62.6836 107.769 62.8391 107.593 62.9946L107.333 63.2207L107.27 63.2772L107.235 63.3055L107.2 63.3338C107.186 63.3408 107.186 63.3479 107.158 63.355C107.136 63.4115 106.926 63.2702 106.975 63.1995C106.982 63.1571 106.975 63.1854 106.982 63.1712L106.989 63.1571L106.996 63.1359C107.003 63.1288 106.996 63.1288 106.996 63.1571C106.982 63.1924 107.045 63.2772 107.066 63.2702C107.101 63.2772 107.073 63.2702 107.059 63.2772L106.94 63.3196L106.898 63.1854C106.476 61.7932 106.181 60.6554 106.013 59.8498C105.837 59.0512 105.844 58.5848 105.879 58.5848C105.907 58.5848 105.949 59.03 106.167 59.8145C106.378 60.5989 106.715 61.7225 107.165 63.1006L107.003 63.0016C107.045 63.0016 107.066 62.9804 107.158 63.0016C107.207 63.0016 107.291 63.1147 107.277 63.1783C107.27 63.2348 107.256 63.256 107.249 63.2772C107.235 63.2702 107.277 63.3055 107.214 63.2631C107.179 63.2419 107.101 63.2278 107.115 63.2278C107.108 63.2066 107.094 63.1783 107.073 63.1571C107.059 63.143 107.059 63.15 107.031 63.1147L107.038 63.1076L107.066 63.0794L107.129 63.0228L107.382 62.7896C107.558 62.6342 107.733 62.4716 107.916 62.3091C108.281 61.9769 108.668 61.6307 109.061 61.2773C109.862 60.5565 110.726 59.7862 111.625 58.9806L111.772 58.8463L111.892 59.0018C112.418 59.6873 112.959 60.401 113.514 61.1289C114.252 62.1041 114.968 63.0511 115.642 63.9415H115.354C117.202 61.5388 118.543 59.2844 119.421 57.7015L119.52 57.5319L119.618 57.6944C120.068 58.4506 120.349 59.0795 120.608 59.4682C120.875 59.8286 121.058 60.0123 121.037 60.0265Z" fill="#455A64"/>
<path d="M108.626 49.949C108.654 49.9561 108.604 50.2034 108.506 50.6345C108.408 51.0726 108.239 51.6945 108.014 52.4648C107.572 53.9983 106.884 56.1043 105.999 58.3798C105.107 60.6554 104.186 62.6624 103.47 64.0899C103.112 64.8036 102.81 65.376 102.585 65.7647C102.367 66.1534 102.234 66.3654 102.206 66.3513C102.156 66.323 102.571 65.4326 103.224 63.9768C103.877 62.521 104.755 60.5069 105.64 58.2455C106.525 55.9841 107.249 53.9065 107.755 52.3942C108.267 50.8748 108.569 49.9349 108.626 49.949Z" fill="#455A64"/>
<path d="M113.704 36.5079C113.732 36.5927 112.51 36.9248 110.683 37.052L110.817 36.7976C111.231 37.476 111.688 38.2181 112.166 39.0095C112.461 39.5113 112.749 39.9989 113.022 40.4512L113.226 40.7975L112.833 40.7197C110.592 40.2886 108.92 40.4936 108.913 40.3876C108.906 40.3523 109.321 40.2533 110.03 40.2038C110.74 40.1544 111.744 40.1614 112.896 40.3593L112.713 40.6279C112.439 40.1756 112.144 39.695 111.842 39.1933C111.372 38.4018 110.929 37.6527 110.529 36.9601L110.381 36.7128L110.662 36.6987C111.568 36.6633 112.327 36.5997 112.854 36.5503C113.395 36.522 113.697 36.4725 113.704 36.5079Z" fill="#455A64"/>
<path d="M120.152 42.1119C120.145 42.1755 119.133 41.9211 117.384 41.8787L117.497 41.7444C117.911 43.4051 118.466 45.61 119.098 48.1541L119.175 48.4509L118.887 48.3732C117.504 47.9916 115.994 47.5746 114.42 47.1365C114.006 47.0234 113.605 46.9103 113.205 46.7972L113.444 46.6064C113.542 49.0445 113.634 51.3059 113.711 53.2423L113.718 53.4543L113.521 53.3977C111.786 52.9101 110.332 52.5002 109.237 52.1893C108.766 52.0479 108.373 51.9278 108.049 51.8289C107.776 51.7441 107.635 51.6875 107.642 51.6734C107.649 51.6593 107.797 51.6805 108.078 51.737C108.408 51.8147 108.808 51.9066 109.286 52.0126C110.388 52.2882 111.856 52.6557 113.591 53.0868L113.402 53.2423C113.303 51.2989 113.191 49.0445 113.072 46.6064L113.058 46.345L113.31 46.4156C113.711 46.5287 114.118 46.6418 114.526 46.7548C116.092 47.193 117.595 47.617 118.972 48.0057L118.754 48.2248C118.164 45.6665 117.658 43.4475 117.272 41.7727L117.237 41.6313L117.384 41.6384C118.262 41.6879 118.965 41.801 119.428 41.8999C119.906 42.02 120.152 42.0907 120.152 42.1119Z" fill="#455A64"/>
<path d="M121.037 60.0265C121.023 60.0406 120.819 59.8851 120.524 59.5035C120.229 59.129 119.913 58.5071 119.442 57.7863L119.639 57.7792C118.817 59.3975 117.504 61.7013 115.664 64.1323L115.516 64.3231L115.369 64.1323C114.694 63.249 113.971 62.302 113.233 61.3338C112.678 60.606 112.145 59.8922 111.618 59.2067L111.885 59.235C110.972 60.0335 110.108 60.7968 109.3 61.5105C108.899 61.8639 108.506 62.2031 108.134 62.5211C107.951 62.6836 107.769 62.8391 107.593 62.9946L107.333 63.2207L107.27 63.2772L107.235 63.3055L107.2 63.3338C107.186 63.3408 107.186 63.3479 107.158 63.355C107.136 63.4115 106.926 63.2702 106.975 63.1995C106.982 63.1571 106.975 63.1854 106.982 63.1712L106.989 63.1571L106.996 63.1359C107.003 63.1288 106.996 63.1288 106.996 63.1571C106.982 63.1924 107.045 63.2772 107.066 63.2702C107.101 63.2772 107.073 63.2702 107.059 63.2772L106.94 63.3196L106.898 63.1854C106.476 61.7932 106.181 60.6554 106.013 59.8498C105.837 59.0512 105.844 58.5848 105.879 58.5848C105.907 58.5848 105.949 59.03 106.167 59.8145C106.378 60.5989 106.715 61.7225 107.165 63.1006L107.003 63.0016C107.045 63.0016 107.066 62.9804 107.158 63.0016C107.207 63.0016 107.291 63.1147 107.277 63.1783C107.27 63.2348 107.256 63.256 107.249 63.2772C107.235 63.2702 107.277 63.3055 107.214 63.2631C107.179 63.2419 107.101 63.2278 107.115 63.2278C107.108 63.2066 107.094 63.1783 107.073 63.1571C107.059 63.143 107.059 63.15 107.031 63.1147L107.038 63.1076L107.066 63.0794L107.129 63.0228L107.382 62.7896C107.558 62.6342 107.733 62.4716 107.916 62.3091C108.281 61.9769 108.668 61.6307 109.061 61.2773C109.862 60.5565 110.726 59.7862 111.625 58.9806L111.772 58.8463L111.892 59.0018C112.418 59.6873 112.959 60.401 113.514 61.1289C114.252 62.1041 114.968 63.0511 115.642 63.9415H115.354C117.202 61.5388 118.543 59.2844 119.421 57.7015L119.52 57.5319L119.618 57.6944C120.068 58.4506 120.349 59.0795 120.608 59.4682C120.875 59.8286 121.058 60.0123 121.037 60.0265Z" fill="#455A64"/>
<path d="M108.626 49.9491C108.654 49.9562 108.604 50.2035 108.506 50.6346C108.408 51.0728 108.239 51.6947 108.014 52.4649C107.572 53.9985 106.884 56.1044 105.999 58.3799C105.107 60.6555 104.186 62.6625 103.47 64.09C103.112 64.8037 102.81 65.3762 102.585 65.7648C102.367 66.1535 102.234 66.3655 102.206 66.3514C102.156 66.3231 102.571 65.4327 103.224 63.9769C103.877 62.5211 104.755 60.5071 105.64 58.2457C106.525 55.9843 107.249 53.9066 107.755 52.3943C108.267 50.8749 108.569 49.935 108.626 49.9491Z" fill="#455A64"/>
</g>
<defs>
<clipPath id="clip0">
<rect x="27" y="0.000244141" width="119" height="206" fill="white"/>
</clipPath>
</defs>
</svg>
