<svg width="164" height="174" viewBox="0 0 164 174" fill="none" xmlns="http://www.w3.org/2000/svg">
<path d="M82.138 6.41441C128.546 0.659627 163.156 37.9139 163.156 73.195C163.156 119.165 108.199 96.7051 71.4077 128.089C34.6165 159.474 -9.79722 117.95 1.91168 77.9062C13.6206 37.8621 48.4769 10.5935 82.138 6.41441Z" fill="#EECF37"/>
<g clip-path="url(#clip0)">
<path d="M100.158 145.78L95.8008 142.331L102.165 134.082L108.588 139.056L108.227 139.592C106.599 141.968 99.773 151.551 98.1391 152.713C96.3217 154.017 100.158 145.78 100.158 145.78Z" fill="#F15D46"/>
<path d="M97.5946 152.6C97.5177 152.54 99.856 149.419 102.816 145.631C105.776 141.843 108.239 138.823 108.315 138.883C108.392 138.942 106.054 142.063 103.094 145.851C100.134 149.639 97.6716 152.659 97.5946 152.6Z" fill="#263238"/>
<path d="M100.933 146.632C100.915 146.733 100.637 146.769 100.3 146.763C99.9624 146.757 99.6841 146.715 99.6664 146.62C99.6545 146.524 99.9328 146.405 100.3 146.405C100.673 146.405 100.951 146.536 100.933 146.632Z" fill="#263238"/>
<path d="M100.815 147.382C100.785 147.477 100.472 147.471 100.105 147.418C99.7375 147.364 99.4297 147.293 99.4297 147.192C99.4297 147.096 99.7553 147.007 100.152 147.06C100.549 147.12 100.845 147.287 100.815 147.382Z" fill="#263238"/>
<path d="M106.35 141.331C106.303 141.343 106.202 141.158 106.084 140.836C105.971 140.515 105.835 140.044 105.853 139.49C105.87 138.936 106.089 138.454 106.332 138.18C106.575 137.906 106.806 137.841 106.824 137.876C106.853 137.924 106.693 138.055 106.533 138.329C106.374 138.597 106.226 139.02 106.208 139.502C106.19 139.991 106.279 140.437 106.326 140.771C106.38 141.104 106.397 141.319 106.35 141.331Z" fill="#263238"/>
<path d="M100.098 146.006C100.063 145.911 100.24 145.756 100.471 145.607C100.702 145.458 100.921 145.363 100.992 145.435C101.057 145.506 100.927 145.738 100.661 145.905C100.4 146.078 100.134 146.096 100.098 146.006Z" fill="#263238"/>
<path d="M99.7791 145.548C99.708 145.482 99.8205 145.214 100.034 144.952C100.247 144.69 100.478 144.523 100.561 144.577C100.643 144.63 100.531 144.898 100.306 145.172C100.087 145.446 99.8501 145.613 99.7791 145.548Z" fill="#263238"/>
<path d="M71.2984 74.8853C71.2984 74.8853 58.2984 109.633 60.0506 116.125C61.8029 122.617 96.8603 148.395 96.8603 148.395L106.379 134.612C106.379 134.612 79.0356 112.843 78.9527 111.64C78.8639 110.437 89.8098 81.5679 89.8098 81.5679L71.2984 74.8853Z" fill="#094B77"/>
<path d="M93.0836 141.998C93.0125 141.944 94.8181 139.437 97.115 136.399C99.4119 133.362 101.33 130.938 101.401 130.991C101.472 131.045 99.6664 133.552 97.3636 136.59C95.0726 139.633 93.1546 142.052 93.0836 141.998Z" fill="#455A64"/>
<path d="M94.2494 8.80898C95.4097 11.1437 96.0194 13.1688 98.3222 14.3719C99.3582 14.9139 100.625 15.2236 101.253 16.2183C101.933 17.3023 101.614 18.8687 102.472 19.8157C103.721 21.1916 106.284 20.0778 107.687 21.2869C108.942 22.3709 108.54 24.6937 109.89 25.6467C110.653 26.1827 111.689 26.0636 112.554 26.4031C113.974 26.957 114.649 28.6068 114.833 30.1256C114.981 31.3407 114.916 32.6212 114.383 33.729C113.856 34.8369 112.814 35.7422 111.6 35.8673C109.99 36.04 108.161 34.9202 106.859 35.8851C106.397 36.2306 106.125 36.7666 105.769 37.2193C104.958 38.2556 103.626 38.8572 102.318 38.7738C101.01 38.6904 99.7608 37.928 99.0859 36.7964C98.1861 35.2895 98.2453 33.2049 96.9251 32.0494C96.2384 31.4419 95.3031 31.2275 94.4447 30.9059C93.5864 30.5842 92.7043 30.0482 92.4438 29.1667C92.1952 28.309 91.6979 27.7611 91.2066 27.0225C90.5495 26.0279 89.6674 27.2429 88.7972 26.7545C87.927 26.2661 88.2585 25.3132 88.1815 24.3066" fill="#263238"/>
<path d="M78.9407 42.5618L67.7048 38.7797C67.7048 38.7797 62.738 53.1695 61.2166 53.3125C52.7867 54.0868 43.7649 51.2755 40.6037 50.1617C40.284 49.7984 39.917 49.3636 39.5085 48.8276C39.1592 48.369 38.8928 47.8508 38.7152 47.3028C38.5021 46.6358 38.2476 45.7424 38.2653 45.2063C38.2831 44.5452 37.4958 44.2057 37.1287 44.6822C36.7617 45.1587 36.6729 46.9753 37.5017 48.9288C38.3364 50.8824 35.3883 49.3279 34.305 48.7799C33.2216 48.232 29.7881 46.6953 29.3619 46.8978C28.7285 47.1956 28.9297 47.9282 30.0249 48.4524C31.1319 48.9824 34.2931 50.7693 33.9794 51.3291C33.6715 51.883 28.1897 49.0182 28.1897 49.0182C28.1897 49.0182 27.1183 48.2141 26.7335 48.8514C26.0408 50.0009 32.085 52.6097 32.6652 52.8479C33.0677 53.0087 32.748 53.6341 32.3218 53.4376C31.8837 53.2351 26.9229 50.4536 26.2066 51.615C25.656 52.5084 31.1615 53.8128 31.8719 54.9623C32.5823 56.1118 27.799 53.5448 27.3077 54.4203C27.1242 54.7479 27.0295 55.0159 29.9953 56.088C31.4338 56.6121 34.1392 57.2494 36.59 57.7855L36.5782 57.8152C36.5782 57.8152 66.1478 71.1151 72.5235 58.2917C79.284 44.7001 78.9407 42.5618 78.9407 42.5618Z" fill="#CC8C75"/>
<path d="M90.0525 30.6498L94.96 30.7391L98.8553 41.9782L95.6823 54.8551C94.7528 58.6193 98.9618 66.1418 98.8553 70.2932L71.328 74.7781L70.7478 56.2846L70.736 55.6651L61.2109 50.8824L64.3544 43.1336C69.1909 31.7338 77.6385 31.0429 77.6385 31.0429L90.0525 30.6498Z" fill="#26C1E1"/>
<path d="M95.1612 30.7689C95.1612 30.7749 95.108 30.7987 95.0014 30.8344C94.8948 30.8702 94.735 30.9178 94.516 30.9655C94.0897 31.0786 93.4267 31.1084 92.6098 31.1561L92.669 31.0429C93.1781 31.8767 93.8115 32.9071 94.5515 34.1103L94.6758 34.3187L94.439 34.277C93.4682 34.1103 92.3434 34.0388 91.1417 34.1698L91.2541 34.0269C91.3844 35.1943 91.3666 36.4867 91.781 37.7553L91.8639 38.0055L91.6093 37.94C90.4431 37.6422 89.194 37.3146 88.0219 36.6177L88.2528 36.5165C88.0337 37.6243 87.7969 38.7857 87.5601 39.971L87.5069 40.2271L87.3056 40.0663C86.832 39.6851 86.3466 39.2563 85.8907 38.7857C85.4468 38.339 85.0383 37.8685 84.6535 37.3801L84.8785 37.4039C83.7951 38.2616 82.7414 39.0955 81.7291 39.9055L81.5337 40.0603L81.4864 39.8161C81.2614 38.7083 81.0483 37.6422 80.8352 36.6177L81.0246 36.725C79.8347 37.1419 78.71 37.5409 77.6622 37.9102L77.4254 37.9936L77.4905 37.7553C77.8516 36.4093 78.1772 35.1823 78.4673 34.0864L78.556 34.2234C77.4254 34.0269 76.4545 33.8601 75.6316 33.7172L75.5073 33.6933L75.5784 33.5921C76.123 32.794 76.5492 32.1686 76.8571 31.71C76.9932 31.5134 77.1057 31.3586 77.2004 31.2275C77.2774 31.1203 77.3247 31.0667 77.3306 31.0727C77.3366 31.0786 77.307 31.1382 77.2359 31.2514C77.153 31.3883 77.0524 31.5492 76.9281 31.7576C76.6321 32.2222 76.2236 32.8654 75.7086 33.6814L75.6553 33.5623C76.4782 33.6874 77.455 33.8363 78.5916 34.009L78.71 34.0269L78.6804 34.146C78.4021 35.2419 78.0884 36.4748 77.7509 37.8268L77.5793 37.672C78.6271 37.2908 79.7459 36.8858 80.9358 36.4569L81.0897 36.4033L81.1253 36.5701C81.3384 37.5945 81.5574 38.6607 81.7883 39.7685L81.5456 39.6791C82.5579 38.8691 83.6116 38.0353 84.689 37.1717L84.8133 37.0704L84.914 37.1955C85.2869 37.672 85.6895 38.1306 86.1275 38.5713C86.5775 39.0299 87.051 39.4528 87.5187 39.8281L87.2642 39.9233C87.5069 38.7381 87.7377 37.5767 87.9627 36.4688L88.0041 36.2544L88.1936 36.3676C89.2947 37.0287 90.5378 37.3682 91.6863 37.666L91.5146 37.8506C91.0884 36.5224 91.118 35.2002 91.0055 34.0566L90.9937 33.9256L91.1239 33.9137C92.3493 33.7946 93.4978 33.878 94.4864 34.0626L94.3739 34.2294C93.6635 33.0143 93.0478 31.972 92.5506 31.1263L92.4855 31.0191L92.6039 31.0131C93.4386 30.9893 94.072 30.9833 94.5041 30.894C94.9363 30.8166 95.1553 30.757 95.1612 30.7689Z" fill="#455A64"/>
<path d="M100.595 35.492C100.59 35.5039 100.406 35.4027 100.021 35.2895C99.6424 35.1883 99.0326 35.0751 98.2808 35.2597L98.3222 35.1942C98.4406 35.8494 98.6123 36.6356 98.855 37.535C99.0918 38.4343 99.3937 39.4528 99.6601 40.5964L99.7016 40.7691L99.5358 40.7214C98.1328 40.3105 96.4812 40.0008 94.7407 39.4111L94.9065 39.2801C95.0841 40.9775 95.0781 42.8835 95.1788 44.8787L95.1847 45.0515L95.013 45.0276C93.4916 44.8013 91.9465 44.3129 90.3659 43.7947C90.1824 43.7411 89.9575 43.6637 89.9042 43.7471C89.7976 43.8305 89.7266 44.033 89.6437 44.2355C89.4839 44.6286 89.3181 45.0276 89.1524 45.4267C88.8209 46.2308 88.4893 47.0467 88.1519 47.8687L88.0513 48.1129L87.8855 47.9044C86.8732 46.6417 85.8136 45.3195 84.7362 43.9734L84.4994 43.6816L84.7125 43.7114C82.978 44.9085 81.2849 46.0819 79.651 47.2135L79.4852 47.3326L79.4201 47.1361C78.8518 45.4863 78.2954 43.8841 77.7626 42.3415L77.9816 42.4189C76.105 43.6458 74.1929 44.5809 72.3518 45.2718L72.1387 45.3493L72.1683 45.1229C72.5294 42.544 72.855 40.2271 73.1332 38.2259L73.2753 38.339C71.5704 39.018 69.9957 39.149 68.7466 39.0776L68.646 39.0716L68.6815 38.9763C69.1433 37.7375 69.4985 36.7785 69.7471 36.1055C69.8655 35.7958 69.9602 35.5516 70.0312 35.3729C70.0964 35.2061 70.1319 35.1287 70.1378 35.1287C70.1437 35.1287 70.12 35.2181 70.0668 35.3848C70.0076 35.5695 69.9247 35.8196 69.8181 36.1353C69.5813 36.8143 69.2498 37.7851 68.8177 39.0299L68.7526 38.9287C69.9839 38.9763 71.5349 38.8274 73.1924 38.1484L73.3641 38.077L73.3404 38.2616C73.074 40.2688 72.7721 42.5857 72.4288 45.1706L72.2512 45.0276C74.0745 44.3308 75.9629 43.3957 77.8158 42.1747L77.9757 42.0675L78.0408 42.2462C78.5795 43.7888 79.136 45.391 79.7102 47.0408L79.4734 46.9634C81.1073 45.8317 82.8004 44.6584 84.5349 43.4553L84.6533 43.3719L84.748 43.485L84.9848 43.7769C86.0622 45.1229 87.1219 46.4511 88.1282 47.7138L87.8618 47.7496C88.1993 46.9217 88.5367 46.1116 88.8682 45.3076C89.034 44.9085 89.1997 44.5095 89.3596 44.1164C89.4484 43.9317 89.4898 43.6995 89.7207 43.5089C89.7858 43.4672 89.8332 43.4314 89.9338 43.4136C90.0167 43.4076 90.0759 43.4136 90.1351 43.4255C90.2535 43.4493 90.3541 43.4791 90.4607 43.5089C92.0413 44.033 93.5627 44.5214 95.0663 44.7477L94.9006 44.8966C94.8058 42.8835 94.8295 40.9954 94.6638 39.3099L94.646 39.1133L94.8295 39.1788C96.5463 39.7804 98.1861 40.102 99.6009 40.5308L99.4707 40.65C99.222 39.5124 98.932 38.4939 98.707 37.5826C98.4761 36.6773 98.3163 35.8792 98.2157 35.2181L98.2097 35.1644L98.263 35.1525C99.0444 34.9798 99.6601 35.1108 100.045 35.2359C100.424 35.361 100.595 35.492 100.595 35.492Z" fill="#455A64"/>
<path d="M70.9015 55.5282C70.8897 55.546 70.6707 55.4567 70.3095 55.2125C69.9603 54.9623 69.463 54.5573 69.0368 53.8902C68.6046 53.241 68.3027 52.2881 68.3915 51.2458C68.433 50.2154 68.7585 49.0659 69.463 48.0891C69.9958 47.3267 70.6825 46.7311 71.4166 46.332L71.3337 46.4452C71.5586 44.7477 71.7658 43.2885 71.9257 42.2522C72.0855 41.2158 72.1921 40.6142 72.2276 40.6142C72.2631 40.6202 72.2157 41.2337 72.1092 42.276C72.0026 43.3183 71.8369 44.7835 71.6297 46.4809L71.6238 46.5524L71.5468 46.5941C70.8897 46.9634 70.2208 47.5411 69.7235 48.2618C69.0605 49.1909 68.7408 50.269 68.6875 51.2517C68.5928 52.2404 68.8473 53.1219 69.2321 53.7592C69.611 54.4084 70.0728 54.8253 70.3865 55.0993C70.7121 55.3793 70.9134 55.5043 70.9015 55.5282Z" fill="#455A64"/>
<path d="M71.9378 43.0502C71.8608 43.086 71.5885 42.6929 71.334 42.1688C71.0794 41.6446 70.9314 41.186 71.0143 41.1443C71.0913 41.1086 71.3636 41.5017 71.6181 42.0258C71.8727 42.5559 72.0148 43.0145 71.9378 43.0502Z" fill="#455A64"/>
<path d="M89.7209 30.8106L90.5674 11.3463L82.8834 5.49149L75.898 8.92813C75.898 8.92813 75.6671 17.749 75.898 21.5728C76.1289 25.3966 79.965 25.8075 79.965 25.8075C79.965 25.8075 79.8762 28.047 79.7874 30.4056C79.6808 33.2585 81.9659 35.6171 84.8015 35.5933C87.4417 35.5695 89.6025 33.467 89.7209 30.8106Z" fill="#CC8C75"/>
<path d="M76.6616 15.3606C76.6616 15.6286 76.8807 15.849 77.147 15.849C77.4134 15.849 77.6325 15.6286 77.6325 15.3606C77.6325 15.0926 77.4134 14.8722 77.147 14.8722C76.8807 14.8663 76.6616 15.0866 76.6616 15.3606Z" fill="#263238"/>
<path d="M76.188 14.8246C76.2532 14.8901 76.6083 14.5804 77.1352 14.5506C77.6562 14.5149 78.0528 14.7769 78.1061 14.7055C78.1357 14.6757 78.0705 14.5566 77.893 14.4374C77.7213 14.3183 77.4371 14.2111 77.1115 14.229C76.7859 14.2468 76.5136 14.3898 76.3597 14.5268C76.2117 14.6757 76.1584 14.7948 76.188 14.8246Z" fill="#263238"/>
<path d="M82.3037 15.3606C82.3037 15.6286 82.5227 15.849 82.7891 15.849C83.0555 15.849 83.2746 15.6286 83.2746 15.3606C83.2746 15.0926 83.0555 14.8722 82.7891 14.8722C82.5168 14.8663 82.3037 15.0866 82.3037 15.3606Z" fill="#263238"/>
<path d="M81.9957 14.8246C82.0608 14.8901 82.416 14.5804 82.9428 14.5506C83.4638 14.5149 83.8604 14.7769 83.9137 14.7055C83.9433 14.6757 83.8782 14.5566 83.7006 14.4374C83.5289 14.3183 83.2447 14.2111 82.9192 14.229C82.5936 14.2468 82.3212 14.3898 82.1673 14.5268C82.0193 14.6757 81.9661 14.7948 81.9957 14.8246Z" fill="#263238"/>
<path d="M81.8413 19.7741C81.1901 20.1017 80.0358 20.5662 79.3076 20.6496C79.3076 20.6496 79.9529 21.5788 81.0421 21.144C82.1728 20.7032 81.8413 19.7741 81.8413 19.7741Z" fill="white"/>
<path d="M79.9648 25.8075C79.9648 25.8075 82.5281 25.8373 85.0026 24.0981C85.0026 24.0981 83.8601 26.9094 80.0477 26.7486L79.9648 25.8075Z" fill="#D78776"/>
<path d="M101.626 22.3471C101.288 22.3649 100.785 22.3113 100.246 22.0314C99.7017 21.7634 99.1689 21.2571 98.7427 20.5662C98.3105 19.8813 97.979 19.0296 97.6179 18.1421C96.9075 16.3613 96.3747 14.7114 96.0077 13.5083C95.9485 13.3177 95.9011 13.145 95.8479 12.9782C95.8183 12.7757 95.7827 12.5911 95.7472 12.4541C93.6753 4.47896 86.7017 2.98995 85.3283 2.98995C83.8483 2.98995 81.2613 2.17397 77.4904 6.11091C76.857 6.77203 76.4011 7.43911 76.0578 8.10023C75.0869 9.32717 74.5719 10.6851 74.3765 11.7036C74.1457 12.871 74.2463 13.6036 74.2877 13.6036C74.3588 13.6036 74.3706 12.8829 74.6666 11.7751C74.8146 11.2212 75.0455 10.566 75.3948 9.893C74.8442 12.3648 75.7795 14.3005 75.7795 14.3005L77.1293 13.9252L81.9717 12.2695C81.5337 10.7626 82.1789 8.88643 82.5459 8.01089L82.5815 7.97515C83.6885 13.6989 88.9808 14.229 88.9808 14.229L89.8747 26.7545C96.3096 25.3727 96.1675 16.7067 96.1261 14.9437C96.4162 15.9384 96.795 17.076 97.2745 18.2672C97.6357 19.1546 97.979 20.0183 98.4526 20.733C98.9143 21.4537 99.5241 21.9897 100.122 22.2458C100.72 22.5138 101.27 22.5317 101.626 22.4721C101.981 22.4007 102.153 22.2875 102.147 22.2696C102.153 22.2518 101.969 22.3232 101.626 22.3471Z" fill="#263238"/>
<path d="M80.1071 19.2797C80.1071 19.2499 79.7815 19.2142 79.2487 19.1725C79.1126 19.1665 78.9823 19.1487 78.9586 19.0474C78.9231 18.9462 78.9764 18.7913 79.0356 18.6245C79.1481 18.2791 79.2665 17.9158 79.3967 17.5346C79.6454 16.7543 79.8585 16.0515 80.0065 15.5334C80.1545 15.0211 80.2255 14.6936 80.2018 14.6876C80.1722 14.6757 80.0479 14.9854 79.8644 15.4917C79.6809 15.992 79.4441 16.6948 79.1954 17.4691C79.077 17.8503 78.9586 18.2195 78.8521 18.565C78.8047 18.7258 78.7278 18.9104 78.7988 19.1129C78.8403 19.2142 78.935 19.2857 79.0238 19.3035C79.1066 19.3274 79.1836 19.3214 79.2487 19.3214C79.7756 19.3214 80.1071 19.3095 80.1071 19.2797Z" fill="#263238"/>
<path d="M90.9697 19.1189C90.946 18.4816 90.946 17.8264 91.1709 17.2308C91.4018 16.6352 91.905 16.1111 92.5384 16.0456C93.2666 15.9681 93.9651 16.5757 94.0835 17.3023C94.196 18.0289 93.7816 18.7794 93.1422 19.1427C92.5088 19.5001 91.6978 19.4941 91.0289 19.2023" fill="#E5BAAB"/>
<path d="M92.0765 18.559C92.1002 18.5173 92.2837 18.6126 92.5501 18.5292C92.8224 18.4637 93.0947 18.154 93.1184 17.7133C93.1361 17.4988 93.0888 17.3023 92.9822 17.201C92.8757 17.0998 92.704 17.07 92.5678 17.076C92.2837 17.0998 92.0824 17.1772 92.0646 17.1296C92.0528 17.0998 92.1949 16.9509 92.5323 16.8556C92.704 16.8199 92.9467 16.8079 93.1717 16.9807C93.3966 17.1653 93.4499 17.4691 93.4321 17.7371C93.4144 18.0111 93.3137 18.2672 93.148 18.4518C92.9881 18.6364 92.7691 18.7317 92.5856 18.7496C92.2186 18.7913 92.0469 18.5828 92.0765 18.559Z" fill="#D78776"/>
<path d="M86.252 170.67V165.095L96.6295 165.03L96.7124 173.184L96.0671 173.231C93.2019 173.41 81.4983 173.934 79.5803 173.362C77.4492 172.725 86.252 170.67 86.252 170.67Z" fill="#F15D46"/>
<path d="M79.3438 172.85C79.3438 172.749 83.2272 172.671 88.0163 172.671C92.8055 172.671 96.6889 172.749 96.6889 172.85C96.6889 172.945 92.8055 173.029 88.0163 173.029C83.2272 173.029 79.3438 172.951 79.3438 172.85Z" fill="#263238"/>
<path d="M86.0688 171.808C85.98 171.856 85.7787 171.653 85.5715 171.385C85.3643 171.117 85.2281 170.867 85.2933 170.795C85.3584 170.724 85.6307 170.873 85.8497 171.165C86.0806 171.456 86.1576 171.76 86.0688 171.808Z" fill="#263238"/>
<path d="M85.4116 172.171C85.3169 172.207 85.1334 171.957 84.9439 171.635C84.7545 171.313 84.6242 171.028 84.7012 170.962C84.7782 170.903 85.0446 171.105 85.2458 171.45C85.453 171.802 85.5004 172.141 85.4116 172.171Z" fill="#263238"/>
<path d="M93.5573 172.814C93.5159 172.785 93.5988 172.588 93.7823 172.296C93.9658 172.004 94.25 171.611 94.694 171.284C95.138 170.956 95.653 170.825 96.0141 170.855C96.3811 170.879 96.5706 171.022 96.5528 171.057C96.535 171.111 96.3338 171.063 96.02 171.105C95.7122 171.141 95.2919 171.284 94.9012 171.57C94.5104 171.855 94.2085 172.201 93.9836 172.445C93.7527 172.695 93.5988 172.844 93.5573 172.814Z" fill="#263238"/>
<path d="M86.0389 170.76C86.0862 170.676 86.323 170.718 86.5835 170.807C86.844 170.903 87.0512 171.016 87.0393 171.111C87.0275 171.206 86.7611 171.248 86.4651 171.141C86.1691 171.039 85.9915 170.843 86.0389 170.76Z" fill="#263238"/>
<path d="M86.2045 170.218C86.2104 170.122 86.4945 170.045 86.8261 170.045C87.1635 170.051 87.4358 170.134 87.4417 170.229C87.4476 170.325 87.1694 170.402 86.8201 170.402C86.4709 170.402 86.1926 170.319 86.2045 170.218Z" fill="#263238"/>
<path d="M76.9815 73.9323L71.2925 74.8853L74.5662 78.9354C75.5074 98.0126 75.2765 116.488 76.1468 125.702C76.277 127.102 82.1495 170.992 81.5694 169.961L98.8553 170.688L93.6932 126.613L96.1381 87.4644C98.7902 82.8425 99.5657 77.363 98.3048 72.1753L97.8786 70.4123" fill="#006FB9"/>
<path d="M102.745 110.455L25.3957 87.7741C22.9627 87.0594 21.5597 84.4923 22.27 82.0444L36.0278 34.545C36.7382 32.0971 39.2896 30.6855 41.7227 31.4002L119.071 54.0808C121.505 54.7955 122.908 57.3626 122.197 59.8105L108.439 107.31C107.729 109.764 105.178 111.169 102.745 110.455Z" fill="#FDD610"/>
<path d="M106.989 64.7659C106.03 68.0715 102.59 69.9715 99.3108 69.0066C96.0253 68.0418 94.1368 64.5813 95.0959 61.2817C96.0549 57.9761 99.4943 56.0761 102.774 57.041C106.059 57.9999 107.948 61.4603 106.989 64.7659Z" fill="#006FB9"/>
<path d="M108.22 71.663C107.611 71.663 106.995 71.5737 106.391 71.401C104.722 70.9126 103.348 69.7988 102.514 68.2681C101.679 66.7374 101.484 64.9684 101.975 63.2948C102.46 61.6152 103.567 60.2334 105.089 59.3936C106.61 58.5538 108.368 58.3632 110.032 58.8456C113.471 59.8522 115.454 63.4914 114.454 66.9518C113.968 68.6314 112.861 70.0132 111.34 70.853C110.363 71.395 109.298 71.663 108.22 71.663ZM108.197 59.1971C107.22 59.1971 106.255 59.4413 105.373 59.9296C103.994 60.692 102.993 61.9487 102.549 63.4675C102.111 64.9863 102.283 66.5885 103.04 67.9762C103.798 69.364 105.047 70.3706 106.557 70.8173C108.066 71.258 109.659 71.0853 111.038 70.3229C112.417 69.5606 113.418 68.3038 113.862 66.785C114.768 63.6462 112.974 60.3525 109.854 59.4353C109.31 59.2745 108.753 59.1971 108.197 59.1971Z" fill="#006FB9"/>
<path d="M34.5066 68.3932L33.1095 73.2057L32.6182 73.0627L33.885 68.691L32.7602 68.3634L32.8846 67.9226L34.5066 68.3932Z" fill="#006FB9"/>
<path d="M38.1592 74.2063L38.0289 74.647L34.6724 73.6643L34.773 73.3129L37.3304 71.937C38.023 71.5558 38.2243 71.264 38.319 70.9364C38.4788 70.3765 38.1888 69.9239 37.4606 69.7095C36.8982 69.5427 36.4187 69.5904 35.9984 69.8643L35.7379 69.4593C36.2352 69.1258 36.8982 69.0543 37.6323 69.2687C38.6031 69.5546 39.0767 70.2276 38.8399 71.0317C38.7038 71.4903 38.4433 71.8656 37.6204 72.3063L35.5248 73.4379L38.1592 74.2063Z" fill="#006FB9"/>
<path d="M43.4339 74.8555L42.4749 74.5755L42.1079 75.8382L41.6225 75.7012L41.9895 74.4386L39.29 73.6464L39.3907 73.289L42.8479 70.8411L43.3984 70.996L40.0537 73.3843L42.1316 73.9918L42.4572 72.8781L42.9367 73.021L42.617 74.1348L43.576 74.4147L43.4339 74.8555Z" fill="#006FB9"/>
<path d="M50.7685 77.0056L49.8095 76.7257L49.4424 77.9884L48.9511 77.8454L49.3181 76.5827L46.6187 75.7906L46.7193 75.4332L50.1765 72.9853L50.7211 73.1461L47.3764 75.5345L49.4543 76.142L49.7799 75.0282L50.2594 75.1711L49.9397 76.2849L50.8987 76.5649L50.7685 77.0056Z" fill="#006FB9"/>
<path d="M54.9894 78.0837C54.7526 78.8996 54.0008 79.3761 52.8287 79.0307C52.1419 78.8282 51.55 78.3934 51.2954 77.9109L51.6506 77.5893C51.8637 78.0003 52.3432 78.3993 52.9589 78.578C53.7699 78.8162 54.3205 78.5423 54.4862 77.9586C54.6638 77.3391 54.3974 76.8448 53.1779 76.4874L52.1597 76.1896L53.1069 73.8489L55.7235 74.6172L55.5991 75.058L53.4147 74.4147L52.805 75.8978L53.4206 76.0765C54.8592 76.4993 55.238 77.2319 54.9894 78.0837Z" fill="#006FB9"/>
<path d="M59.7253 79.4476C59.4648 80.3469 58.5946 80.7222 57.6651 80.4482C56.3924 80.073 55.9602 78.983 56.3983 77.4642C56.8719 75.8263 58.0085 75.2367 59.3049 75.6178C59.7371 75.7429 60.116 75.9395 60.3646 76.2134L60.0508 76.5529C59.8496 76.3147 59.5417 76.1598 59.1865 76.0526C58.1565 75.7489 57.2981 76.2254 56.9192 77.5297C56.8896 77.6369 56.8541 77.7799 56.8245 77.9288C57.2152 77.4702 57.8605 77.3391 58.5235 77.5357C59.4825 77.8097 59.9798 78.5661 59.7253 79.4476ZM59.2339 79.3165C59.4174 78.6852 59.0681 78.1432 58.3341 77.9288C57.6 77.7144 56.9725 78.0241 56.8008 78.6197C56.6469 79.1498 56.937 79.7811 57.7658 80.0253C58.4525 80.2219 59.0504 79.9598 59.2339 79.3165Z" fill="#006FB9"/>
<path d="M66.2545 81.425C66.0237 82.229 65.26 82.6757 64.1056 82.3422C63.413 82.1397 62.821 81.7049 62.5605 81.2165L62.9157 80.8949C63.1289 81.3058 63.6143 81.7049 64.2359 81.8836C65.0291 82.1159 65.5737 81.8717 65.7454 81.2761C65.9112 80.6983 65.6211 80.204 64.7331 79.9419L64.3898 79.8407L64.4963 79.4773L66.3078 78.1968L63.8629 77.4821L63.9931 77.0413L67.0715 77.9407L66.9708 78.2921L65.1238 79.6084C66.1184 79.9598 66.4795 80.6507 66.2545 81.425Z" fill="#006FB9"/>
<path d="M71.0675 82.771C70.8071 83.6704 69.9368 84.0456 69.0074 83.7716C67.7347 83.3964 67.3025 82.3065 67.7406 80.7877C68.2142 79.1498 69.3508 78.5601 70.6472 78.9413C71.0794 79.0664 71.4582 79.2629 71.7069 79.5369L71.3931 79.8764C71.1918 79.6381 70.884 79.4833 70.5288 79.3761C69.4988 79.0723 68.6404 79.5488 68.2615 80.8532C68.2319 80.9604 68.1964 81.1033 68.1668 81.2522C68.5575 80.7936 69.2028 80.6626 69.8658 80.8591C70.8189 81.1331 71.3221 81.8955 71.0675 82.771ZM70.5762 82.6459C70.7597 82.0146 70.4104 81.4726 69.6764 81.2582C68.9423 81.0438 68.3148 81.3535 68.1431 81.9491C67.9892 82.4792 68.2793 83.1105 69.1081 83.3488C69.7948 83.5513 70.3927 83.2832 70.5762 82.6459Z" fill="#006FB9"/>
<path d="M76.443 80.6864L76.3424 81.0378L73.045 84.9152L72.5122 84.7604L75.7444 80.9664L73.2818 80.2457L73.0213 81.1451L72.5359 81.0021L72.9266 79.662L76.443 80.6864Z" fill="#006FB9"/>
<path d="M83.2804 82.6936L83.1798 83.045L79.8824 86.9224L79.3496 86.7675L82.5818 82.9736L80.1192 82.2529L79.8587 83.1522L79.3733 83.0093L79.764 81.6692L83.2804 82.6936Z" fill="#006FB9"/>
<path d="M86.9862 87.5418C86.7376 88.3935 85.8674 88.7152 84.7248 88.3816C83.5764 88.0421 83.0318 87.3095 83.2804 86.4578C83.4461 85.8801 83.8901 85.5704 84.5472 85.5466C84.1151 85.213 83.9553 84.7723 84.1032 84.266C84.3282 83.4798 85.1333 83.188 86.1456 83.4858C87.1579 83.7836 87.6907 84.4685 87.4657 85.2547C87.3177 85.755 86.9389 86.0409 86.3942 86.0885C86.9329 86.4638 87.146 86.976 86.9862 87.5418ZM86.4771 87.387C86.6488 86.7973 86.2521 86.2791 85.3997 86.029C84.5532 85.7788 83.9434 86.0052 83.7717 86.5948C83.6001 87.1904 83.9908 87.7086 84.8373 87.9587C85.6957 88.2089 86.3054 87.9885 86.4771 87.387ZM85.5181 85.6359C86.264 85.8563 86.8027 85.6478 86.9566 85.1237C87.1165 84.5817 86.7376 84.1111 86.0213 83.9027C85.2991 83.6883 84.7426 83.8848 84.5887 84.4209C84.4348 84.9569 84.7722 85.4215 85.5181 85.6359Z" fill="#006FB9"/>
<path d="M91.9468 87.798C91.4732 89.4359 90.3366 90.0255 89.0401 89.6443C88.608 89.5192 88.2291 89.3227 87.9805 89.0487L88.2942 88.7092C88.4896 88.9475 88.8033 89.1023 89.1585 89.2095C90.1886 89.5133 91.047 89.0368 91.4258 87.7324C91.4554 87.6252 91.4909 87.4823 91.5205 87.3334C91.1298 87.792 90.4846 87.923 89.8215 87.7324C88.8744 87.4525 88.3712 86.6961 88.6257 85.8146C88.8862 84.9152 89.7564 84.546 90.6858 84.814C91.9586 85.1892 92.3908 86.2792 91.9468 87.798ZM91.5501 86.6425C91.7041 86.1124 91.414 85.481 90.5852 85.2428C89.8985 85.0403 89.3006 85.3083 89.1171 85.9456C88.9336 86.577 89.2828 87.119 90.0169 87.3393C90.745 87.5538 91.3785 87.244 91.5501 86.6425Z" fill="#006FB9"/>
<path d="M97.4822 86.8569L96.0851 91.6694L95.5938 91.5264L96.8606 87.1547L95.7358 86.8212L95.8601 86.3804L97.4822 86.8569Z" fill="#006FB9"/>
<path d="M101.135 92.67L101.01 93.1107L97.6538 92.128L97.7544 91.7766L100.312 90.4007C101.004 90.0255 101.206 89.7277 101.3 89.4001C101.46 88.8403 101.17 88.3816 100.442 88.1732C99.8797 88.0064 99.4002 88.0541 98.9799 88.328L98.7194 87.923C99.2167 87.5895 99.8797 87.518 100.614 87.7324C101.585 88.0183 102.058 88.6914 101.821 89.4954C101.685 89.954 101.425 90.3293 100.602 90.77L98.5063 91.9017L101.135 92.67Z" fill="#006FB9"/>
<path d="M105.699 92.9857C105.468 93.7897 104.704 94.2364 103.55 93.9029C102.857 93.7004 102.265 93.2656 102.005 92.7772L102.36 92.4556C102.573 92.8665 103.059 93.2656 103.68 93.4502C104.473 93.6825 105.018 93.4383 105.19 92.8427C105.356 92.265 105.065 91.7706 104.172 91.5086L103.828 91.4073L103.935 91.044L105.746 89.7634L103.301 89.0487L103.432 88.608L106.504 89.5073L106.403 89.8587L104.556 91.175C105.569 91.5264 105.924 92.2173 105.699 92.9857Z" fill="#006FB9"/>
<path d="M67.5267 87.1869L66.9224 89.2741L105.236 100.504L105.84 98.4167L67.5267 87.1869Z" fill="#006FB9"/>
<path d="M84.983 96.8235L84.377 98.9164L104.031 104.677L104.637 102.584L84.983 96.8235Z" fill="#006FB9"/>
<path d="M46.0384 67.2973L35.6017 64.2359C34.0448 63.7772 33.1509 62.1393 33.6008 60.5729L35.4596 54.1642C35.9154 52.5978 37.5434 51.6984 39.1003 52.1511L49.5311 55.2125C51.088 55.6711 51.9819 57.309 51.532 58.8754L49.6791 65.2841C49.2292 66.8565 47.5953 67.7559 46.0384 67.2973Z" fill="#006FB9"/>
<path d="M33.7544 60.0666L33.9793 59.2923L42.2553 61.7224C43.2084 62.0023 44.2148 61.4484 44.493 60.4895C44.7712 59.5306 44.2148 58.5062 43.2676 58.2381L34.9857 55.8081L35.2107 55.0338L43.4866 57.4638C44.866 57.8689 45.6592 59.3281 45.2626 60.7158C44.86 62.1036 43.4097 62.9077 42.0303 62.5027L33.7544 60.0666Z" fill="white"/>
<path d="M44.9921 60.2025L44.7661 60.98L50.448 62.6519L50.674 61.8744L44.9921 60.2025Z" fill="white"/>
<path d="M82.4097 54.0615L41.0654 41.9377L40.0319 45.5056L81.3761 57.6294L82.4097 54.0615Z" fill="#006FB9"/>
<path d="M88.898 5.04477C88.0396 4.71123 87.3411 3.95482 87.122 3.05546C86.903 2.1561 87.2049 1.13761 87.9035 0.536053C88.6079 -0.0655069 89.6912 -0.184628 90.4786 0.291855C91.1239 0.678998 91.5146 1.38777 91.7573 2.10249C91.923 2.57897 92.0355 3.09715 91.9112 3.58554C91.7277 4.31814 91.041 4.83631 90.3188 5.03286C89.5965 5.22941 88.8269 5.16389 88.081 5.09242" fill="#263238"/>
<path d="M104.154 15.6584C104.118 15.6525 104.29 15.3785 104.189 14.8782C104.136 14.634 104.011 14.3421 103.775 14.0801C103.544 13.818 103.189 13.6036 102.756 13.4904C102.324 13.3713 101.827 13.3475 101.294 13.3832C100.761 13.4189 100.181 13.5142 99.5538 13.5262C98.9322 13.5381 98.2337 13.4547 97.6298 13.0675C96.9964 12.6804 96.6886 11.9418 96.4814 11.2748C96.0729 9.92871 95.3744 8.77324 94.587 7.85601C93.7938 6.93878 92.9235 6.26574 92.1362 5.79522C90.5497 4.86012 89.3776 4.71122 89.4012 4.63975C89.4012 4.62783 89.4723 4.63379 89.6084 4.65761C89.7446 4.68144 89.9459 4.70526 90.1945 4.77673C90.7036 4.89586 91.4199 5.15196 92.2428 5.59867C93.0597 6.05133 93.9773 6.72436 94.8001 7.65946C95.623 8.5886 96.3571 9.79767 96.7774 11.1735C96.9905 11.8406 97.2628 12.4719 97.7956 12.8055C98.3165 13.145 98.9618 13.2403 99.5479 13.2343C100.146 13.2284 100.726 13.145 101.276 13.1211C101.827 13.0914 102.354 13.1271 102.816 13.276C103.277 13.413 103.662 13.6631 103.905 13.9669C104.154 14.2647 104.266 14.5923 104.307 14.8603C104.343 15.1283 104.302 15.3427 104.254 15.4738C104.207 15.6048 104.159 15.6644 104.154 15.6584Z" fill="#263238"/>
<path d="M93.2193 19.0831C93.2371 19.0534 93.5035 19.2797 93.5035 19.7979C93.4976 20.0421 93.3969 20.3637 93.1483 20.596C92.9056 20.8283 92.5208 20.9772 92.1242 20.9176C91.7275 20.8521 91.4138 20.5841 91.2539 20.2863C91.0882 19.9825 91.0941 19.649 91.1711 19.4167C91.3309 18.9283 91.6565 18.7973 91.6624 18.833C91.6979 18.8687 91.4611 19.0593 91.3901 19.4703C91.3546 19.6728 91.3723 19.9229 91.5144 20.1433C91.6446 20.3637 91.8933 20.5602 92.1834 20.6079C92.4734 20.6555 92.7635 20.5483 92.9648 20.3816C93.166 20.2148 93.2608 19.9885 93.2963 19.78C93.3377 19.3571 93.172 19.107 93.2193 19.0831Z" fill="#E0E0E0"/>
<path d="M91.6862 5.79525C91.6092 5.86076 90.8515 4.89589 89.5491 4.21094C88.2527 3.50813 87.0332 3.41879 87.045 3.32349C87.0332 3.24606 88.3296 3.19246 89.6971 3.93101C91.0705 4.65169 91.7572 5.75951 91.6862 5.79525Z" fill="#E8505B"/>
<path d="M93.8945 18.3506C93.8945 18.3089 94.0603 18.297 94.1668 18.4935C94.2142 18.5829 94.2379 18.7258 94.1728 18.8687C94.1017 19.0176 93.936 19.1129 93.7702 19.1189C93.6044 19.1249 93.4387 19.0474 93.3558 18.9223C93.267 18.8032 93.2552 18.6722 93.267 18.5769C93.2966 18.3744 93.4091 18.3029 93.4387 18.3327C93.4801 18.3565 93.4565 18.4518 93.492 18.5709C93.5275 18.696 93.6104 18.8092 93.7643 18.7973C93.9123 18.7913 93.9715 18.6901 93.9596 18.565C93.9537 18.4578 93.8827 18.3982 93.8945 18.3506Z" fill="#E0E0E0"/>
<path d="M89.8449 30.215C89.8627 30.215 89.916 30.4413 89.9101 30.8583C89.9101 31.2752 89.8331 31.8886 89.5667 32.5915C89.2944 33.2883 88.8149 34.0805 88.0394 34.7237C87.2757 35.3729 86.2101 35.8077 85.0617 35.8851C83.9132 35.9507 82.8003 35.6469 81.9656 35.093C81.125 34.545 80.5508 33.8184 80.1956 33.1632C79.8463 32.4962 79.6983 31.9006 79.645 31.4836C79.5917 31.0667 79.6213 30.8344 79.6332 30.8344C79.7042 30.8166 79.6628 31.7814 80.3909 33.0501C80.758 33.6695 81.3203 34.3425 82.1195 34.8428C82.9128 35.3491 83.9547 35.6231 85.038 35.5635C86.1213 35.492 87.1218 35.093 87.8499 34.4974C88.584 33.9018 89.0635 33.1632 89.3536 32.5081C89.9278 31.162 89.7739 30.2031 89.8449 30.215Z" fill="#455A64"/>
<path d="M98.2632 166.751C98.2632 166.775 98.0265 166.805 97.6002 166.846C97.174 166.888 96.5524 166.93 95.7887 166.966C94.2555 167.043 92.1362 167.079 89.7979 167.037C87.4595 167.001 85.3402 166.93 83.8129 166.87C83.1025 166.835 82.4987 166.811 82.0014 166.787C81.5752 166.757 81.3384 166.733 81.3384 166.715C81.3384 166.692 81.5752 166.674 82.0073 166.668C82.4336 166.656 83.0551 166.65 83.8247 166.65C85.358 166.65 87.4714 166.692 89.8097 166.721C92.148 166.757 94.2614 166.757 95.7887 166.739C96.4991 166.733 97.103 166.727 97.6002 166.721C98.0265 166.715 98.2632 166.727 98.2632 166.751Z" fill="#263238"/>
<path d="M101.632 50.4119L91.4792 43.6935C91.4792 43.6935 86.5124 58.0833 84.991 58.2262C76.5612 59.0005 67.5393 56.1892 64.3781 55.0755C64.0584 54.7121 63.6914 54.2774 63.2829 53.7413C62.9336 53.2827 62.6673 52.7645 62.4897 52.2166C62.2765 51.5495 62.022 50.6561 62.0397 50.12C62.0575 49.4589 61.2702 49.1194 60.9031 49.5959C60.5361 50.0724 60.4473 51.889 61.2761 53.8426C62.1108 55.7961 59.1627 54.2416 58.0794 53.6937C56.996 53.1457 53.5625 51.609 53.1363 51.8116C52.5029 52.1094 52.7041 52.8419 53.7993 53.3661C54.9063 53.8962 58.0675 55.683 57.7538 56.2428C57.4459 56.7968 51.9642 53.9319 51.9642 53.9319C51.9642 53.9319 50.8927 53.1278 50.5079 53.7651C49.8153 54.9146 55.8594 57.5234 56.4396 57.7616C56.8421 57.9224 56.5224 58.5478 56.0962 58.3513C55.6581 58.1488 50.6973 55.3673 49.981 56.5287C49.4305 57.4221 54.9359 58.7265 55.6463 59.876C56.3567 61.0255 51.5734 58.4585 51.0821 59.334C50.8986 59.6616 50.8039 59.9296 53.7697 61.0017C55.2082 61.5258 57.9136 62.1631 60.3644 62.6992L60.3526 62.729C60.3526 62.729 90.5794 76.3445 96.2979 63.2055C102.372 49.2266 101.632 50.4119 101.632 50.4119Z" fill="#CC8C75"/>
<path d="M94.9602 30.7391C94.9602 30.7391 104.201 31.835 103.218 42.8894C102.224 54.1642 97.5886 62.4907 97.5886 62.4907L85.4766 56.094C88.1938 50.5549 90.2776 44.8251 91.5859 38.8572L94.9602 30.7391Z" fill="#26C1E1"/>
<path d="M95.161 30.7689C95.1846 30.8404 94.1546 31.1203 92.6154 31.2275L92.7279 31.0131C93.0772 31.5849 93.462 32.2103 93.8645 32.8773C94.1131 33.3002 94.3559 33.7112 94.5867 34.0924L94.7584 34.3842L94.4269 34.3187C92.5385 33.9554 91.1295 34.1281 91.1236 34.0388C91.1177 34.009 91.467 33.9256 92.0649 33.8839C92.6628 33.8422 93.5093 33.8482 94.4802 34.0149L94.3263 34.2413C94.0954 33.8601 93.8467 33.4551 93.5922 33.0322C93.1956 32.3651 92.8226 31.7338 92.4852 31.1501L92.3609 30.9416L92.5977 30.9297C93.3613 30.8999 94.0007 30.8463 94.4447 30.8046C94.9005 30.7808 95.155 30.7391 95.161 30.7689Z" fill="#455A64"/>
<path d="M100.596 35.492C100.59 35.5456 99.7373 35.3312 98.2633 35.2955L98.358 35.1823C98.7073 36.582 99.175 38.4402 99.7077 40.5844L99.7729 40.8346L99.5302 40.769C98.3639 40.4474 97.0912 40.096 95.7651 39.7267C95.4158 39.6314 95.0784 39.5362 94.741 39.4409L94.9423 39.28C95.0251 41.3349 95.1021 43.2408 95.1672 44.8728L95.1731 45.0514L95.0074 45.0038C93.5452 44.5928 92.3198 44.2474 91.3963 43.9853C90.9996 43.8662 90.6681 43.7649 90.3958 43.6816C90.1649 43.6101 90.0465 43.5624 90.0525 43.5505C90.0584 43.5386 90.1827 43.5565 90.4195 43.6041C90.6977 43.6696 91.0352 43.7471 91.4377 43.8364C92.3671 44.0687 93.6044 44.3784 95.0666 44.7417L94.9067 44.8728C94.8239 43.2348 94.7291 41.3349 94.6285 39.28L94.6167 39.0597L94.8298 39.1192C95.1672 39.2145 95.5106 39.3098 95.8539 39.4051C97.174 39.7744 98.4409 40.1318 99.6012 40.4593L99.4177 40.644C98.9204 38.4879 98.4942 36.6177 98.1686 35.2061L98.139 35.087L98.2633 35.0929C99.0033 35.1346 99.5953 35.2299 99.986 35.3133C100.389 35.4146 100.596 35.4741 100.596 35.492Z" fill="#455A64"/>
<path d="M101.342 50.5906C101.33 50.6025 101.158 50.4714 100.91 50.1498C100.661 49.8341 100.395 49.31 99.9979 48.7025L100.164 48.6965C99.4711 50.0605 98.3641 52.0021 96.8131 54.051L96.6887 54.2118L96.5644 54.051C95.9961 53.3065 95.3864 52.5084 94.7648 51.6924C94.2971 51.0789 93.8472 50.4774 93.4032 49.8997L93.6282 49.9235C92.8586 50.5965 92.1304 51.2398 91.4497 51.8413C91.1122 52.1391 90.7807 52.425 90.467 52.693C90.313 52.83 90.1591 52.9611 90.0111 53.0921L89.7921 53.2827L89.7388 53.3303L89.7092 53.3541L89.6796 53.378C89.6678 53.3839 89.6678 53.3899 89.6441 53.3958C89.6263 53.4435 89.4487 53.3244 89.4902 53.2648C89.4961 53.2291 89.4902 53.2529 89.4961 53.241L89.502 53.2291L89.5079 53.2112C89.5139 53.2052 89.5079 53.2052 89.5079 53.2291C89.4961 53.2589 89.5494 53.3303 89.5671 53.3244C89.5967 53.3303 89.5731 53.3244 89.5612 53.3303L89.4606 53.3661L89.4251 53.2529C89.0699 52.0796 88.8212 51.1206 88.6792 50.4417C88.5312 49.7686 88.5371 49.3755 88.5667 49.3755C88.5904 49.3755 88.6259 49.7508 88.8094 50.4119C88.987 51.073 89.2712 52.02 89.65 53.1814L89.5139 53.098C89.5494 53.098 89.5671 53.0802 89.6441 53.098C89.6855 53.098 89.7566 53.1933 89.7447 53.2469C89.7388 53.2946 89.727 53.3125 89.7211 53.3303C89.7092 53.3244 89.7447 53.3541 89.6915 53.3184C89.6619 53.3005 89.5967 53.2886 89.6086 53.2886C89.6027 53.2708 89.5908 53.2469 89.5731 53.2291C89.5612 53.2172 89.5612 53.2231 89.5375 53.1933L89.5435 53.1874L89.5671 53.1636L89.6204 53.1159L89.8335 52.9194C89.9815 52.7883 90.1295 52.6513 90.2834 52.5143C90.5913 52.2344 90.9169 51.9426 91.2484 51.6448C91.9232 51.0373 92.6514 50.388 93.4091 49.7091L93.5335 49.5959L93.6341 49.7269C94.0781 50.3047 94.5339 50.9062 95.0016 51.5197C95.6232 52.3416 96.227 53.1397 96.7953 53.8902H96.5526C98.1095 51.8651 99.2402 49.9652 99.9802 48.631L100.063 48.4881L100.146 48.6251C100.525 49.2624 100.762 49.7924 100.981 50.12C101.206 50.4238 101.359 50.5786 101.342 50.5906Z" fill="#455A64"/>
<path d="M90.8809 42.0973C90.9045 42.1032 90.8631 42.3117 90.7802 42.675C90.6974 43.0443 90.5553 43.5684 90.3658 44.2176C89.9929 45.5101 89.4127 47.285 88.6668 49.2028C87.915 51.1207 87.1395 52.8122 86.5357 54.0153C86.2338 54.6168 85.9792 55.0993 85.7898 55.4269C85.6063 55.7544 85.4938 55.9331 85.4701 55.9212C85.4287 55.8974 85.778 55.1469 86.3285 53.92C86.879 52.693 87.619 50.9956 88.3649 49.0896C89.1108 47.1837 89.7206 45.4326 90.1468 44.158C90.579 42.8775 90.8335 42.0853 90.8809 42.0973Z" fill="#455A64"/>
<path d="M95.161 30.7689C95.1846 30.8404 94.1546 31.1203 92.6154 31.2275L92.7279 31.0131C93.0772 31.5849 93.462 32.2103 93.8645 32.8773C94.1131 33.3002 94.3559 33.7112 94.5867 34.0924L94.7584 34.3842L94.4269 34.3187C92.5385 33.9554 91.1295 34.1281 91.1236 34.0388C91.1177 34.009 91.467 33.9256 92.0649 33.8839C92.6628 33.8422 93.5093 33.8482 94.4802 34.0149L94.3263 34.2413C94.0954 33.8601 93.8467 33.4551 93.5922 33.0322C93.1956 32.3651 92.8226 31.7338 92.4852 31.1501L92.3609 30.9416L92.5977 30.9297C93.3613 30.8999 94.0007 30.8463 94.4447 30.8046C94.9005 30.7808 95.155 30.7391 95.161 30.7689Z" fill="#455A64"/>
<path d="M100.595 35.492C100.589 35.5457 99.7369 35.3312 98.2628 35.2955L98.3575 35.1823C98.7068 36.582 99.1745 38.4403 99.7073 40.5845L99.7724 40.8346L99.5297 40.7691C98.3635 40.4475 97.0907 40.0961 95.7646 39.7268C95.4154 39.6315 95.0779 39.5362 94.7405 39.4409L94.9418 39.2801C95.0247 41.3349 95.1016 43.2409 95.1667 44.8728L95.1726 45.0515L95.0069 45.0038C93.5447 44.5929 92.3193 44.2474 91.3958 43.9854C90.9991 43.8662 90.6676 43.765 90.3953 43.6816C90.1644 43.6101 90.046 43.5625 90.052 43.5506C90.0579 43.5387 90.1822 43.5565 90.419 43.6042C90.6972 43.6697 91.0347 43.7471 91.4372 43.8365C92.3666 44.0687 93.6039 44.3785 95.0661 44.7418L94.9063 44.8728C94.8234 43.2349 94.7287 41.3349 94.628 39.2801L94.6162 39.0597L94.8293 39.1193C95.1667 39.2146 95.5101 39.3099 95.8534 39.4052C97.1736 39.7744 98.4404 40.1318 99.6007 40.4594L99.4172 40.644C98.9199 38.4879 98.4937 36.6177 98.1681 35.2062L98.1385 35.087L98.2628 35.093C99.0028 35.1347 99.5948 35.23 99.9855 35.3134C100.388 35.4146 100.595 35.4742 100.595 35.492Z" fill="#455A64"/>
<path d="M101.341 50.5906C101.329 50.6025 101.158 50.4715 100.909 50.1499C100.66 49.8342 100.394 49.3101 99.9974 48.7025L100.163 48.6966C99.4706 50.0605 98.3636 52.0022 96.8126 54.0511L96.6882 54.2119L96.5639 54.0511C95.9956 53.3066 95.3859 52.5085 94.7643 51.6925C94.2966 51.079 93.8467 50.4774 93.4027 49.8997L93.6277 49.9235C92.8581 50.5966 92.13 51.2398 91.4492 51.8414C91.1117 52.1392 90.7802 52.4251 90.4665 52.6931C90.3126 52.8301 90.1586 52.9611 90.0106 53.0921L89.7916 53.2827L89.7383 53.3304L89.7087 53.3542L89.6791 53.378C89.6673 53.384 89.6673 53.3899 89.6436 53.3959C89.6259 53.4436 89.4483 53.3244 89.4897 53.2649C89.4956 53.2291 89.4897 53.253 89.4956 53.241L89.5015 53.2291L89.5075 53.2113C89.5134 53.2053 89.5075 53.2053 89.5075 53.2291C89.4956 53.2589 89.5489 53.3304 89.5667 53.3244C89.5963 53.3304 89.5726 53.3244 89.5607 53.3304L89.4601 53.3661L89.4246 53.253C89.0694 52.0796 88.8208 51.1207 88.6787 50.4417C88.5307 49.7687 88.5366 49.3756 88.5662 49.3756C88.5899 49.3756 88.6254 49.7508 88.8089 50.4119C88.9865 51.073 89.2707 52.0201 89.6495 53.1815L89.5134 53.0981C89.5489 53.0981 89.5667 53.0802 89.6436 53.0981C89.6851 53.0981 89.7561 53.1934 89.7443 53.247C89.7383 53.2946 89.7265 53.3125 89.7206 53.3304C89.7087 53.3244 89.7443 53.3542 89.691 53.3185C89.6614 53.3006 89.5963 53.2887 89.6081 53.2887C89.6022 53.2708 89.5903 53.247 89.5726 53.2291C89.5607 53.2172 89.5607 53.2232 89.5371 53.1934L89.543 53.1874L89.5667 53.1636L89.6199 53.116L89.8331 52.9194C89.981 52.7884 90.129 52.6514 90.283 52.5144C90.5908 52.2345 90.9164 51.9426 91.2479 51.6448C91.9228 51.0373 92.6509 50.3881 93.4086 49.7091L93.533 49.5959L93.6336 49.727C94.0776 50.3047 94.5334 50.9063 95.0011 51.5197C95.6227 52.3417 96.2265 53.1398 96.7948 53.8903H96.5521C98.109 51.8652 99.2397 49.9652 99.9797 48.6311L100.063 48.4881L100.145 48.6251C100.524 49.2624 100.761 49.7925 100.98 50.1201C101.205 50.4238 101.359 50.5787 101.341 50.5906Z" fill="#455A64"/>
<path d="M90.8809 42.0973C90.9045 42.1032 90.8631 42.3117 90.7802 42.675C90.6973 43.0443 90.5553 43.5684 90.3658 44.2176C89.9929 45.5101 89.4127 47.285 88.6668 49.2028C87.915 51.1207 87.1395 52.8122 86.5357 54.0153C86.2338 54.6169 85.9792 55.0993 85.7898 55.4269C85.6063 55.7545 85.4938 55.9332 85.4701 55.9212C85.4287 55.8974 85.778 55.147 86.3285 53.92C86.879 52.6931 87.619 50.9956 88.3649 49.0897C89.1108 47.1837 89.7206 45.4327 90.1468 44.1581C90.579 42.8775 90.8335 42.0854 90.8809 42.0973Z" fill="#455A64"/>
</g>
<defs>
<clipPath id="clip0">
<rect width="100.294" height="173.618" fill="white" transform="translate(22.0864)"/>
</clipPath>
</defs>
</svg>
