<svg width="131" height="200" viewBox="0 0 131 200" fill="none" xmlns="http://www.w3.org/2000/svg">
<path d="M57.1711 9.95319L57.2149 12.1435C57.2149 12.1435 58.1074 29.1188 58.0527 31.6705C57.9979 34.2223 49.4829 48.7827 49.4829 48.7827L54.7124 57.3086L67.1974 34.8575L64.2076 10.7636L64.1309 10.1667" fill="#FFBE9D"/>
<path d="M63.5124 7.33025L61.8313 1.14798L55.2603 4.94824C55.2603 5.49583 57.2261 9.9532 57.2261 9.9532L58.3651 11.136C58.3651 11.136 64.0764 10.5336 64.1969 10.4734C64.3174 10.4132 63.5124 7.33025 63.5124 7.33025Z" fill="#FFBE9D"/>
<path d="M62.0338 1.58599C62.0338 1.58599 62.0721 1.63528 62.0995 1.71742C62.3514 2.38547 63.0851 5.40269 62.7511 5.6272C62.4171 5.85171 61.289 5.90647 61.1083 5.52863C60.9276 5.15079 60.3034 1.69551 60.3034 1.69551C60.3034 1.69551 60.2377 1.14792 61.1029 0.781037C61.6395 0.572953 62.0338 1.58599 62.0338 1.58599Z" fill="#FFBE9D"/>
<path d="M59.9535 0.972727C59.9535 0.972727 59.9918 1.02201 60.0192 1.09867C60.2711 1.7722 61.0048 4.78394 60.6708 5.00845C60.3368 5.23296 59.2087 5.28772 59.028 4.90988C58.8473 4.53205 58.2231 1.07677 58.2231 1.07677C58.2231 1.07677 58.1628 0.52918 59.0226 0.167772C59.5592 -0.0457876 59.9535 0.972727 59.9535 0.972727Z" fill="#FFBE9D"/>
<path d="M58.0529 0.907017C58.0848 0.945086 58.1073 0.990096 58.1186 1.03844C58.3705 1.7065 59.0988 4.72371 58.7648 4.94822C58.4308 5.17273 57.3082 5.22749 57.122 4.84965C56.9358 4.47182 56.3171 1.01653 56.3171 1.01653C56.3171 1.01653 56.2514 0.468947 57.1165 0.107539C57.6587 -0.127924 58.0529 0.907017 58.0529 0.907017Z" fill="#FFBE9D"/>
<path d="M56.1691 0.830344C56.201 0.868413 56.2235 0.913423 56.2348 0.961764C56.4867 1.62982 57.215 4.64703 56.881 4.87154C56.547 5.09606 55.4189 5.15081 55.2382 4.77298C55.0575 4.39514 54.4333 0.93986 54.4333 0.93986C54.4333 0.93986 54.3676 0.392274 55.2327 0.0308661C55.7749 -0.188169 56.1691 0.830344 56.1691 0.830344Z" fill="#FFBE9D"/>
<path d="M60.8728 4.65251C60.8593 4.14432 60.7802 3.64001 60.6374 3.15212C60.5597 2.65826 60.4198 2.17621 60.2212 1.71744C60.2347 2.22563 60.3138 2.72994 60.4567 3.21783C60.5344 3.71169 60.6742 4.19373 60.8728 4.65251Z" fill="#EB996E"/>
<path d="M59.0932 5.11794C59.0378 4.40159 58.9149 3.69206 58.7263 2.99878C58.611 2.28919 58.4276 1.59237 58.1787 0.917938C58.241 1.63341 58.3638 2.34232 58.5456 3.03711C58.668 3.74515 58.8512 4.44134 59.0932 5.11794Z" fill="#EB996E"/>
<g opacity="0.78">
<path d="M57.2695 5.43558C57.2073 4.71828 57.0846 4.00753 56.9026 3.31094C56.7801 2.60289 56.5969 1.9067 56.355 1.2301C56.4105 1.94824 56.5333 2.65959 56.7219 3.35475C56.8382 4.06412 57.0215 4.76085 57.2695 5.43558Z" fill="#EB996E"/>
</g>
<path d="M58.6936 9.35081L56.7004 7.7409C55.827 7.03703 55.2599 6.02252 55.1178 4.90986L55.0083 4.06111L61.0318 2.84546C61.0318 2.84546 61.0318 5.08509 59.3343 5.11247L61.4534 6.20765L58.6936 9.35081Z" fill="#FFBE9D"/>
<path d="M61.1634 6.64026C61.1361 6.64026 61.0046 6.39385 60.6432 6.05982C60.1438 5.59912 59.4936 5.3363 58.8143 5.32058H58.1681L58.7759 5.09607L60.1668 4.58133C60.4452 4.43261 60.6748 4.20685 60.8282 3.93106C60.9817 3.65527 61.0524 3.34112 61.032 3.02618C61.0271 2.97801 61.0179 2.93037 61.0046 2.88381L61.1744 2.9769C59.4933 3.39307 57.971 3.74352 56.8594 3.93518C56.3118 4.03374 55.8518 4.09398 55.5342 4.13231C55.3726 4.15523 55.2085 4.15523 55.0469 4.13231C55.6288 3.96304 56.2192 3.82412 56.8156 3.71614C57.9108 3.48068 59.4221 3.09737 61.1032 2.6812L61.2346 2.64835L61.273 2.77429C61.2921 2.83704 61.3068 2.90109 61.3168 2.96595C61.3584 3.34968 61.2676 3.73611 61.0594 4.06112C60.8648 4.35225 60.6087 4.59712 60.3092 4.77846L58.9019 5.26034L58.8636 5.03035C59.5968 5.0601 60.289 5.37671 60.7911 5.91197C60.982 6.11436 61.1111 6.36702 61.1634 6.64026Z" fill="#EB996E"/>
<path d="M60.7965 3.85305C60.8457 3.85305 60.9443 4.12685 61.251 4.40064C61.3286 4.47619 61.428 4.52532 61.5352 4.54105C61.6424 4.55678 61.7518 4.53831 61.8478 4.48826C61.9547 4.39915 62.0359 4.28319 62.083 4.1523C62.1302 4.02141 62.1416 3.88031 62.1161 3.74354C62.045 3.06453 62.0066 2.42933 61.9464 1.99126C61.8862 1.55319 61.8095 1.27391 61.8533 1.25749C61.8971 1.24106 62.0231 1.49843 62.1435 1.95293C62.2686 2.53796 62.3545 3.13066 62.4009 3.72711C62.4311 3.91391 62.408 4.10542 62.3344 4.27974C62.2608 4.45406 62.1396 4.60413 61.9847 4.71277C61.8423 4.78559 61.6799 4.80949 61.5225 4.78079C61.3651 4.75209 61.2216 4.67238 61.1141 4.55397C60.9843 4.41247 60.8871 4.24424 60.8293 4.06114C60.791 3.93519 60.78 3.864 60.7965 3.85305Z" fill="#EB996E"/>
<path d="M40.3275 23.7195C41.7841 23.6319 43.1366 24.519 44.1606 25.5813C45.1846 26.6437 45.9403 27.9031 46.9862 28.9271C47.7637 29.6883 48.7056 30.3454 49.1765 31.3255C49.9267 32.8916 49.297 34.9122 50.2717 36.3688C50.8193 37.1847 51.7447 37.6666 52.2978 38.4716C52.9823 39.4846 52.933 40.8098 52.7797 42.0254C52.7429 42.8802 52.4426 43.7027 51.9199 44.38C51.4321 44.8347 50.8396 45.162 50.195 45.3329C45.4155 46.9499 40.2547 47.0608 35.4102 45.6505" fill="#263238"/>
<path d="M30.29 33.483C30.1645 32.4827 30.2412 31.4674 30.5156 30.4973C30.7899 29.5272 31.2562 28.6221 31.8869 27.8356C32.5177 27.0491 33.2999 26.3973 34.1872 25.9188C35.0746 25.4404 36.049 25.1449 37.0527 25.0501C38.9962 24.9001 40.9238 25.496 42.4436 26.7167C43.9633 27.9374 44.961 29.6911 45.2336 31.6212C45.7014 34.3694 46.0231 37.1404 46.1974 39.9226C46.1481 43.7886 43.8866 45.289 42.9721 45.7435C42.6425 45.8635 42.3011 45.9479 41.9536 45.9954C41.9536 45.9954 41.9536 45.9954 41.9536 46.0228L42.8133 50.4582C43.2021 53.3659 41.5812 55.9341 38.679 56.3777C35.7768 56.8212 33.4934 54.5706 33.0498 51.6629L30.29 33.483Z" fill="#FFBE9D"/>
<path d="M44.5653 33.9047C44.5051 33.9923 44.0178 33.7185 43.3387 33.8171C42.6597 33.9156 42.2436 34.3099 42.1724 34.2387C42.1012 34.1675 42.1724 34.058 42.375 33.8718C42.6297 33.6353 42.9508 33.4825 43.2949 33.4338C43.6349 33.3854 43.9816 33.4447 44.2861 33.6035C44.5106 33.7295 44.5982 33.8609 44.5653 33.9047Z" fill="#263238"/>
<path d="M38.7509 35.1641C38.6852 35.2517 38.2033 34.9779 37.5243 35.0765C36.8453 35.1751 36.4291 35.5693 36.3524 35.5036C36.2758 35.4379 36.3524 35.3174 36.555 35.1367C36.809 34.8958 37.1332 34.7424 37.4805 34.6987C37.8199 34.6451 38.1676 34.7027 38.4716 34.8629C38.6906 34.9889 38.7837 35.1203 38.7509 35.1641Z" fill="#263238"/>
<path d="M41.0229 38.2525C41.3532 38.0973 41.7005 37.9815 42.0579 37.9075C42.2221 37.8637 42.3755 37.8089 42.3864 37.6939C42.3739 37.5183 42.309 37.3505 42.2002 37.2121L41.5212 36.0128C40.9082 35.0011 40.3754 33.9428 39.9277 32.8478C40.6245 33.8051 41.2417 34.8179 41.7731 35.8759C42.0031 36.2976 42.2221 36.7028 42.4357 37.0861C42.5684 37.2743 42.6322 37.5025 42.6164 37.7323C42.5997 37.7945 42.5694 37.8523 42.5277 37.9016C42.4861 37.9508 42.4341 37.9902 42.3755 38.017C42.2875 38.0531 42.1956 38.0788 42.1017 38.0937C41.7509 38.1953 41.388 38.2487 41.0229 38.2525Z" fill="#263238"/>
<path d="M41.9259 46.0228C41.9259 46.0228 39.4344 46.5978 36.001 45.1577C36.001 45.1577 37.4795 48.3501 42.1613 47.2166L41.9259 46.0228Z" fill="#EB996E"/>
<path d="M40.9628 39.8679C40.8178 39.7341 40.6417 39.6385 40.4505 39.5897C40.2593 39.5409 40.059 39.5406 39.8676 39.5886C39.7257 39.6227 39.592 39.6849 39.4745 39.7714C39.3569 39.8579 39.2579 39.967 39.1831 40.0924C39.1126 40.2146 39.0806 40.3553 39.0914 40.496C39.1021 40.6367 39.1551 40.7708 39.2433 40.8809C39.3667 40.982 39.517 41.0447 39.6757 41.0612C39.8343 41.0777 39.9943 41.0474 40.1359 40.974C40.4271 40.8164 40.6855 40.6045 40.8971 40.3498C40.9625 40.2867 41.0162 40.2125 41.0559 40.1307C41.0748 40.0915 41.0813 40.0473 41.0745 40.0042C41.0676 39.9612 41.0478 39.9212 41.0175 39.8898" fill="#EB996E"/>
<path d="M39.1558 38.9863C39.2599 38.9863 39.3639 39.6762 40.0429 40.0814C40.7219 40.4867 41.4721 40.306 41.4886 40.4045C41.505 40.5031 41.3407 40.5688 41.0231 40.6236C40.6081 40.6896 40.1831 40.6061 39.8239 40.3881C39.4768 40.1821 39.225 39.8476 39.123 39.4572C39.0518 39.1779 39.1065 38.9917 39.1558 38.9863Z" fill="#263238"/>
<path d="M38.2849 33.034C38.2465 33.2257 37.5785 33.2311 36.8228 33.4392C36.0671 33.6473 35.4812 33.943 35.3553 33.7951C35.3005 33.7294 35.3553 33.5433 35.6072 33.3352C35.9104 33.076 36.2686 32.889 36.6547 32.7885C37.0408 32.6879 37.4447 32.6764 37.8358 32.7547C38.1535 32.8259 38.3123 32.9464 38.2849 33.034Z" fill="#263238"/>
<path d="M43.9086 31.8895C43.8155 32.0538 43.361 31.9662 42.8135 32.0374C42.2659 32.1085 41.8278 32.2838 41.7183 32.1414C41.6088 31.999 41.7183 31.9114 41.888 31.7416C42.1327 31.5338 42.4341 31.4041 42.7532 31.3693C43.0719 31.3267 43.3958 31.3862 43.6786 31.539C43.8594 31.665 43.947 31.8074 43.9086 31.8895Z" fill="#263238"/>
<path d="M45.9895 30.7779C45.19 31.999 42.6547 31.2434 41.1214 30.4055C40.3228 30.917 39.356 31.0962 38.4271 30.9049C37.4982 30.7136 36.6809 30.167 36.1493 29.3816C35.2732 30.4767 33.4935 30.1318 32.8638 28.8723C32.2341 27.6128 32.5791 25.8825 33.4716 24.7818C34.3684 23.7539 35.6041 23.0817 36.9543 22.8872C38.5038 22.5861 40.1075 22.7457 41.5673 23.3461C43.0271 23.9466 44.2789 24.9616 45.1681 26.2658C46.0114 27.5417 46.5207 29.2556 46.0169 30.7834" fill="#263238"/>
<path d="M33.6799 24.6887C30.8051 24.1411 28.0343 27.005 27.744 29.0694C27.2457 32.6288 27.744 33.0723 27.076 34.7753C26.6543 35.8705 25.1923 37.0204 24.6173 38.1649C23.9931 39.3915 23.9985 41.4504 24.4311 42.7756C24.7925 43.8708 26.2765 46.9537 26.2765 46.9537C26.2765 46.9537 30.5477 46.8168 32.7326 46.2582C33.2971 46.1425 33.8263 45.8948 34.2768 45.5354C34.6929 45.1576 33.8332 43.8543 33.9154 43.3013C34.1399 41.7242 35.3172 40.8097 35.0105 39.2546C34.5615 37.1902 32.9352 37.0642 32.968 34.967C32.968 33.8718 34.6601 32.229 34.8134 31.1338C34.9667 30.0387 35.6129 26.1508 33.7182 24.7161" fill="#263238"/>
<path d="M28.8169 47.0687C28.8169 47.0687 28.6088 46.8278 28.2693 46.3897C27.7622 45.7725 27.3353 45.0936 26.9989 44.3691C26.4915 43.3017 26.2761 42.1189 26.3747 40.9412C26.4291 40.2262 26.6245 39.529 26.9497 38.89C27.2749 38.2509 27.7234 37.6825 28.2693 37.2176C28.8607 36.7412 29.5343 36.3798 30.1092 35.8979C30.6806 35.4381 31.0988 34.8156 31.3084 34.1128C31.4787 33.4902 31.5978 32.8547 31.6644 32.2126C31.7211 31.6652 31.8293 31.1244 31.9875 30.5972C32.0918 30.2194 32.2737 29.8674 32.5217 29.5638C32.7697 29.2602 33.0782 29.0117 33.4276 28.834C33.6973 28.7237 33.9851 28.6643 34.2764 28.6588C34.2024 28.6338 34.1244 28.6226 34.0464 28.6259C33.8215 28.6223 33.5982 28.6633 33.3893 28.7464C33.0099 28.9108 32.6711 29.1563 32.3967 29.4656C32.1224 29.775 31.9191 30.1407 31.8013 30.537C31.6232 31.0706 31.5003 31.6211 31.4344 32.1798C31.3621 32.8078 31.2375 33.4288 31.062 34.0361C30.8617 34.687 30.466 35.2606 29.9285 35.6789C29.3809 36.1388 28.7019 36.4948 28.0832 36.9986C27.513 37.4838 27.0458 38.0783 26.7092 38.7469C26.3725 39.4156 26.1731 40.1449 26.1228 40.8919C26.0322 42.108 26.2705 43.3261 26.8127 44.4184C27.1701 45.148 27.6271 45.8243 28.1708 46.428C28.3624 46.6361 28.5267 46.7949 28.6362 46.8935C28.6879 46.9601 28.7487 47.0191 28.8169 47.0687Z" fill="#455A64"/>
<path d="M49.7131 45.2068C49.7131 45.2068 49.7569 45.1576 49.8226 45.0535C49.9119 44.8975 49.9923 44.7366 50.0635 44.5716C50.3116 43.9556 50.438 43.2973 50.4359 42.6332C50.4407 41.6375 50.1615 40.6611 49.631 39.8186C49.2983 39.3424 48.9323 38.8904 48.5358 38.466C48.1276 38.0299 47.8341 37.4993 47.6815 36.9218C47.4242 35.7226 47.8184 34.5124 47.7363 33.3954C47.7145 32.404 47.4433 31.4342 46.9478 30.5753C46.606 30.0056 46.1513 29.5118 45.6117 29.1242C45.4638 29.0224 45.3102 28.9291 45.1517 28.8449L44.9819 28.7682C45.1569 28.9217 45.3397 29.0661 45.5295 29.2008C46.0344 29.6056 46.4564 30.1038 46.7725 30.6684C47.2278 31.5098 47.4703 32.4497 47.4789 33.4063C47.4889 33.974 47.4541 34.5416 47.3749 35.1038C47.2868 35.7261 47.2997 36.3585 47.4132 36.9766C47.5754 37.5911 47.8877 38.1556 48.3222 38.6194C48.7158 39.0348 49.0816 39.4756 49.4174 39.939C49.9375 40.7407 50.2221 41.6723 50.2388 42.6277C50.2572 43.2747 50.1608 43.9199 49.954 44.5333C49.8171 44.9714 49.6912 45.1959 49.7131 45.2068Z" fill="#455A64"/>
<path d="M37.5513 23.3143C38.1699 23.3061 38.7883 23.3409 39.4021 23.4184C40.8737 23.6651 42.2218 24.3931 43.2352 25.4883C44.1946 26.631 44.8317 28.009 45.0806 29.4802C45.1657 30.0951 45.1968 30.7162 45.1737 31.3365C45.2329 31.1765 45.268 31.0086 45.2777 30.8382C45.3315 30.3798 45.3315 29.9167 45.2777 29.4583C45.0774 27.9306 44.4404 26.4932 43.4433 25.3185C42.3941 24.1812 40.9799 23.4469 39.4459 23.2432C38.9859 23.1866 38.5206 23.1866 38.0605 23.2432C37.8881 23.24 37.7162 23.264 37.5513 23.3143Z" fill="#455A64"/>
<path d="M41.6797 28.9928C41.7224 28.8526 41.7427 28.7066 41.74 28.5602C41.7529 28.1584 41.7106 27.7567 41.614 27.3664C41.4631 26.715 41.1812 26.1011 40.7855 25.5621C40.3898 25.0231 39.8885 24.5702 39.3122 24.2311C38.7359 23.892 38.0967 23.6737 37.4333 23.5895C36.7699 23.5053 36.0964 23.557 35.4536 23.7414C35.0693 23.8465 34.7009 24.003 34.3585 24.2068C34.1175 24.3602 33.9971 24.4587 34.008 24.4752C34.4881 24.2463 34.9886 24.063 35.5029 23.9276C36.7553 23.6075 38.0835 23.7958 39.1976 24.4514C40.3117 25.1069 41.1213 26.1764 41.4497 27.4267C41.5697 27.9414 41.6466 28.4653 41.6797 28.9928Z" fill="#455A64"/>
<path d="M29.2823 72.2358C29.2823 72.2358 31.177 76.5508 31.0675 78.5933C30.9579 80.6358 29.003 87.2726 29.003 87.2726L52.1606 89.4356L52.2646 84.0802L51.5692 62.0507L64.4813 42.4087L54.7123 36.7466L45.2117 49.6423L42.8077 48.7114L32.4036 50.0257V51.8327L32.1079 51.8656C29.8261 52.3506 27.6395 53.2071 25.6354 54.4009C23.8134 55.5359 22.3693 57.1862 21.4861 59.1427C20.6029 61.0991 20.3204 63.2738 20.6742 65.391C21.0959 68.0194 21.9173 71.2118 23.4943 73.0572C26.5279 76.5946 29.2823 72.2358 29.2823 72.2358Z" fill="#5EBBFF"/>
<path d="M25.9969 61.9521C25.9969 61.9521 24.8141 55.2278 25.1426 54.7404C25.5478 54.1654 30.4159 52.0737 30.4871 52.2872L31.5549 59.6797L25.9969 61.9521Z" fill="#FAFAFA"/>
<path d="M45.7318 62.3245L45.1787 75.2202H50.0468V62.3245H45.7318Z" fill="#FAFAFA"/>
<path d="M37.677 68.7751C37.768 68.7647 37.8598 68.7647 37.9508 68.7751H38.7886L41.992 68.7258H42.0851V68.8244C42.1179 71.9183 42.1344 76.5454 42.1344 81.7201V81.8625H36.9761V81.7201C37.1568 78.002 37.3211 74.7712 37.436 72.4111C37.5018 71.3159 37.551 70.4015 37.5894 69.7443C37.5894 69.4541 37.6222 69.1968 37.6387 69.038C37.6291 68.9616 37.6291 68.8843 37.6387 68.808C37.6443 68.8955 37.6443 68.9833 37.6387 69.0708C37.6387 69.2679 37.6387 69.5089 37.6387 69.8046C37.6387 70.4726 37.5948 71.3816 37.562 72.5097C37.4799 74.826 37.3649 78.0239 37.2334 81.7091L37.0965 81.5668H41.9646L41.8222 81.7091C41.8222 76.5344 41.8222 71.9073 41.8715 68.8134L41.9646 68.9065L38.8324 68.808H37.9727L37.677 68.7751Z" fill="#FAFAFA"/>
<path d="M56.4538 54.3461L51.3174 51.0989L55.8295 44.5114L61.0918 47.567L56.4538 54.3461Z" fill="#FAFAFA"/>
<g opacity="0.4">
<path d="M51.3173 54.7404H36.2422V59.6304H51.3173V54.7404Z" fill="white"/>
</g>
<path d="M51.0985 68.0414C51.072 67.8929 51.072 67.7408 51.0985 67.5923C51.1368 67.3021 51.1861 66.886 51.2299 66.3767C51.3488 65.0396 51.3488 63.6945 51.2299 62.3574C51.1048 61.0201 50.8592 59.6969 50.4961 58.4038C50.2223 57.4127 49.9978 56.8103 50.0416 56.7939C50.0854 56.7775 50.1347 56.9253 50.2497 57.1936C50.4174 57.569 50.5654 57.9528 50.6933 58.3436C51.1134 59.638 51.3888 60.975 51.5146 62.33C51.6423 63.6849 51.6147 65.05 51.4325 66.3986C51.3793 66.8057 51.3043 67.2097 51.208 67.6088C51.1946 67.7579 51.1577 67.9039 51.0985 68.0414Z" fill="#263238"/>
<path d="M58.4086 38.8877C58.1526 39.2935 57.8573 39.6732 57.527 40.0212C56.9794 40.6947 56.1526 41.6147 55.2491 42.6222L54.2853 43.6846L54.2032 43.7777L54.1046 43.7119C53.2777 43.1644 52.5714 42.6551 52.0785 42.2992C51.7992 42.1288 51.5433 41.9226 51.3174 41.6859C51.618 41.8122 51.9043 41.9701 52.1716 42.1568C52.6918 42.4744 53.4201 42.9344 54.2579 43.482H54.0827L55.0355 42.3868C55.939 41.3792 56.7659 40.4867 57.3737 39.846C57.6882 39.4951 58.0347 39.1743 58.4086 38.8877Z" fill="#FAFAFA"/>
<path d="M63.7318 43.5477C63.2063 43.3598 62.6987 43.1252 62.215 42.8468C61.2896 42.3814 60.0247 41.7133 58.6393 40.9686C57.2539 40.2239 56.0054 39.5284 55.1073 39.0192C54.6095 38.7646 54.1334 38.4697 53.6836 38.1376C54.2107 38.326 54.7201 38.5605 55.2059 38.8385C56.1258 39.3094 57.3962 39.972 58.7762 40.7167C60.1561 41.4614 61.4101 42.1569 62.3081 42.6661C62.8068 42.9191 63.2831 43.214 63.7318 43.5477Z" fill="#263238"/>
<path d="M11.645 177.844L9.1644 189.058L4.64132 197.371C4.56267 197.513 4.51439 197.67 4.49954 197.832C4.48469 197.994 4.50359 198.158 4.55505 198.312C4.6065 198.467 4.68939 198.609 4.79849 198.729C4.90759 198.85 5.04052 198.947 5.18891 199.014C5.36164 199.095 5.55173 199.133 5.74261 199.125C5.9335 199.116 6.11939 199.061 6.28408 198.964C8.38682 197.749 16.1023 193.236 16.2392 192.393C16.398 191.429 19.6452 180.73 19.6452 180.73L11.645 177.844Z" fill="#5EBBFF"/>
<g opacity="0.6">
<path d="M5.18359 199.003L16.3818 191.643L16.2668 192.114C16.1659 192.512 15.9322 192.864 15.6042 193.111C14.6897 193.768 12.1325 195.536 6.2952 198.942C6.12944 199.037 5.94313 199.09 5.75234 199.097C5.56155 199.103 5.372 199.064 5.20002 198.981L5.18359 199.003Z" fill="white"/>
</g>
<g opacity="0.6">
<path d="M14.9961 187.481C14.8335 187.548 14.7015 187.674 14.6257 187.832C14.5498 187.991 14.5355 188.172 14.5854 188.341C14.6461 188.505 14.7676 188.639 14.9247 188.715C15.0818 188.792 15.2623 188.805 15.4287 188.752C15.6006 188.681 15.7401 188.548 15.8201 188.381C15.9 188.213 15.9147 188.021 15.8613 187.843C15.7786 187.678 15.6358 187.552 15.4626 187.49C15.2893 187.427 15.0987 187.434 14.9303 187.509" fill="white"/>
</g>
<path d="M8.92866 194.753C8.74739 194.343 8.489 193.971 8.16752 193.658C7.79698 193.4 7.38075 193.214 6.94092 193.11C6.94092 193.078 7.09972 193.028 7.37351 193.056C7.72502 193.102 8.05581 193.248 8.32632 193.477C8.6037 193.703 8.80766 194.006 8.91224 194.348C8.98342 194.578 8.96152 194.753 8.92866 194.753Z" fill="#263238"/>
<path d="M7.76774 196.051C7.70203 196.084 7.43371 195.635 6.89707 195.328C6.5556 195.171 6.20443 195.036 5.8457 194.923C6.04345 194.858 6.25392 194.841 6.45964 194.873C6.66536 194.905 6.86038 194.986 7.02849 195.109C7.61989 195.465 7.83345 196.035 7.76774 196.051Z" fill="#263238"/>
<path d="M10.9057 193.198C10.5107 192.768 10.0862 192.365 9.63533 191.993C9.1352 191.691 8.6136 191.426 8.07471 191.199C8.6877 191.229 9.27951 191.433 9.78088 191.787C10.2822 192.141 10.6724 192.63 10.9057 193.198Z" fill="#263238"/>
<path d="M11.9184 189.852C11.8746 189.913 11.3215 189.502 10.5275 189.277C9.73352 189.053 9.04904 189.086 9.03809 189.015C9.54198 188.83 10.0948 188.83 10.5987 189.015C11.1246 189.127 11.5927 189.424 11.9184 189.852Z" fill="#263238"/>
<path d="M12.7344 186.578C12.2859 186.299 11.8014 186.084 11.2942 185.937C10.7728 185.866 10.2441 185.866 9.72266 185.937C9.72266 185.91 9.8705 185.8 10.1607 185.713C10.5487 185.608 10.9558 185.597 11.349 185.68C11.7483 185.76 12.1234 185.932 12.4442 186.183C12.6577 186.392 12.7563 186.539 12.7344 186.578Z" fill="#263238"/>
<path d="M11.453 185.318C11.4474 185.173 11.4775 185.028 11.5406 184.897C11.6728 184.518 11.8795 184.17 12.1485 183.873C12.3245 183.635 12.5751 183.463 12.8603 183.385C12.9561 183.37 13.0544 183.383 13.1423 183.424C13.2302 183.465 13.3037 183.532 13.3532 183.615C13.4343 183.786 13.4518 183.98 13.4024 184.163C13.2892 184.534 13.0485 184.853 12.7228 185.063C12.3971 185.274 12.0074 185.362 11.6228 185.313C11.2433 185.26 10.8881 185.095 10.6024 184.839C10.3167 184.584 10.1134 184.249 10.0184 183.878C9.99665 183.785 9.9947 183.688 10.0126 183.593C10.0305 183.499 10.0679 183.41 10.1224 183.331C10.1871 183.252 10.2761 183.198 10.3754 183.176C10.4747 183.154 10.5784 183.166 10.67 183.21C10.9268 183.335 11.1474 183.523 11.3107 183.758C11.5535 184.075 11.7388 184.433 11.8582 184.815C11.9156 184.949 11.9418 185.095 11.9349 185.242C11.7506 184.749 11.4921 184.287 11.1683 183.873C11.0291 183.67 10.8406 183.506 10.6207 183.396C10.5722 183.372 10.5168 183.366 10.4639 183.377C10.411 183.389 10.3639 183.419 10.3305 183.462C10.2977 183.516 10.2768 183.576 10.2693 183.638C10.2617 183.7 10.2676 183.764 10.2867 183.823C10.3778 184.141 10.5585 184.425 10.8071 184.643C11.0557 184.86 11.3617 185.002 11.6885 185.05C12.0135 185.088 12.3419 185.015 12.6196 184.842C12.8973 184.669 13.1078 184.406 13.2163 184.097C13.2624 183.974 13.2624 183.837 13.2163 183.714C13.1914 183.666 13.152 183.628 13.1037 183.604C13.0554 183.58 13.0008 183.573 12.9479 183.582C12.7085 183.649 12.496 183.789 12.3401 183.982C11.9659 184.37 11.6653 184.823 11.453 185.318Z" fill="#263238"/>
<g opacity="0.3">
<path d="M11.354 179.059L11.02 180.658L18.9436 182.98L19.6226 180.735L11.6443 177.844L11.354 179.059Z" fill="black"/>
</g>
<path d="M47.9496 181.994L47.276 190.958C47.276 190.958 56.1634 194.649 56.2017 196.319L38.772 195.646L39.2429 181.633L47.9496 181.994Z" fill="#5EBBFF"/>
<g opacity="0.6">
<path d="M41.9159 189.995C41.7467 190.04 41.6001 190.146 41.5041 190.292C41.4081 190.439 41.3695 190.616 41.3957 190.789C41.429 190.963 41.5288 191.117 41.6738 191.22C41.8189 191.322 41.9979 191.364 42.1732 191.336C42.3527 191.288 42.5081 191.176 42.6092 191.02C42.7104 190.864 42.7501 190.676 42.7208 190.493C42.6618 190.318 42.5379 190.173 42.3748 190.088C42.2117 190.002 42.0219 189.983 41.8447 190.033" fill="white"/>
</g>
<g opacity="0.6">
<path d="M38.772 195.646L38.876 194.233L55.5501 195.41C55.5501 195.41 56.3112 195.777 56.2017 196.319L38.772 195.646Z" fill="white"/>
</g>
<path d="M47.5609 190.882C47.5609 190.964 47.1283 190.986 46.7012 191.243C46.274 191.501 46.0331 191.851 45.9564 191.818C45.8798 191.785 46.0276 191.271 46.5533 190.991C47.079 190.712 47.5937 190.805 47.5609 190.882Z" fill="#263238"/>
<path d="M49.3625 191.709C49.3625 191.791 49.0066 191.922 48.6999 192.256C48.3933 192.59 48.3002 192.979 48.2126 192.974C48.125 192.968 48.0976 192.481 48.4809 192.059C48.8642 191.637 49.3625 191.626 49.3625 191.709Z" fill="#263238"/>
<path d="M50.3316 193.937C50.2549 193.937 50.1509 193.521 50.3863 193.067C50.6218 192.612 51.0325 192.437 51.0654 192.519C51.0982 192.601 50.8408 192.831 50.6547 193.209C50.4685 193.587 50.4028 193.932 50.3316 193.937Z" fill="#263238"/>
<path d="M47.4903 188.823C47.452 188.9 47.0632 188.763 46.5813 188.779C46.0995 188.795 45.7216 188.932 45.6778 188.856C45.634 188.779 46.0064 188.489 46.5759 188.483C47.1453 188.478 47.5341 188.757 47.4903 188.823Z" fill="#263238"/>
<g opacity="0.3">
<path d="M47.8131 183.769L47.6981 185.368L39.1338 184.957L39.1885 183.111L47.8131 183.769Z" fill="black"/>
</g>
<path d="M47.594 187.01C47.3038 187.077 47.001 187.064 46.7178 186.972C46.405 186.903 46.1017 186.796 45.8143 186.654C45.6456 186.571 45.4827 186.476 45.3269 186.37C45.2296 186.314 45.1426 186.241 45.0696 186.156C45.0185 186.091 44.9907 186.011 44.9907 185.929C44.9907 185.846 45.0185 185.766 45.0696 185.702C45.1143 185.643 45.1725 185.596 45.2392 185.564C45.3059 185.533 45.3792 185.518 45.4529 185.521C45.5627 185.523 45.6716 185.541 45.776 185.576C45.9646 185.628 46.1479 185.697 46.3236 185.784C46.6119 185.924 46.8762 186.109 47.1066 186.331C47.4954 186.726 47.6213 187.049 47.594 187.065C47.5666 187.082 47.3694 186.813 46.9697 186.49C46.7343 186.302 46.4769 186.144 46.2031 186.019C46.0436 185.95 45.8788 185.893 45.7103 185.849C45.5295 185.789 45.3707 185.784 45.3215 185.849C45.2722 185.915 45.3215 185.893 45.3215 185.948C45.3754 186.008 45.4381 186.06 45.5076 186.101C45.651 186.206 45.801 186.301 45.9567 186.386C46.2229 186.529 46.5014 186.649 46.789 186.742C47.0635 186.812 47.3325 186.902 47.594 187.01Z" fill="#263238"/>
<path d="M47.4732 187.125C47.3186 186.871 47.2495 186.573 47.276 186.277C47.2755 185.952 47.3292 185.63 47.4348 185.324C47.4967 185.142 47.5775 184.968 47.6758 184.804C47.7254 184.694 47.8013 184.598 47.8968 184.524C47.9923 184.451 48.1045 184.402 48.2234 184.382C48.301 184.387 48.3756 184.413 48.4386 184.459C48.5016 184.505 48.5504 184.567 48.5793 184.639C48.6205 184.743 48.6463 184.851 48.656 184.962C48.6837 185.158 48.6837 185.358 48.656 185.554C48.5925 185.878 48.4516 186.183 48.2453 186.441C47.8893 186.879 47.5279 186.988 47.5225 186.939C47.517 186.89 47.8017 186.742 48.0701 186.315C48.2264 186.068 48.3308 185.793 48.3767 185.504C48.4014 185.337 48.4014 185.168 48.3767 185.001C48.3767 184.814 48.2946 184.661 48.2234 184.678C48.1522 184.694 47.9879 184.809 47.9113 184.951C47.8177 185.098 47.7388 185.254 47.6758 185.417C47.5684 185.694 47.5002 185.986 47.4732 186.282C47.4458 186.791 47.5225 187.114 47.4732 187.125Z" fill="#263238"/>
<path d="M25.8656 67.1652L30.3722 67.4171C30.6899 68.6837 31.1168 69.9204 31.6481 71.1133C35.2786 64.8106 38.0932 56.3722 38.7941 52.9772C38.6901 52.6377 38.5696 52.2653 38.4218 51.8437C38.3116 51.2113 38.3302 50.5631 38.4765 49.9381C38.6025 49.1824 38.8106 48.1639 38.8763 47.693C39.0679 46.2583 39.2979 46.0502 39.8017 46.1981C40.4807 46.4171 39.5224 50.2228 40.0755 50.305C40.3767 50.3488 40.7435 49.0455 40.8476 47.9777C40.9516 46.9099 41.439 43.597 41.7949 43.3944C42.3425 43.0713 42.7642 43.5806 42.6327 44.6484C42.5013 45.7162 42.3316 48.9415 42.901 48.9853C43.4705 49.0291 43.925 43.5696 43.925 43.5696C43.925 43.5696 43.8374 42.3868 44.4726 42.4142C45.6554 42.4635 44.73 48.2187 44.6314 48.7608C44.5602 49.1386 45.179 49.2098 45.2283 48.7991C45.2776 48.3884 45.5678 43.3232 46.7725 43.3835C47.6924 43.4163 46.0552 48.1256 46.5754 49.2153C47.0956 50.305 47.4515 45.5081 48.3331 45.5738C48.6617 45.5738 48.8807 45.6614 48.3003 48.3775C47.7151 50.5374 47.0113 52.6635 46.1921 54.7459C44.7957 62.2753 38.6682 86.3637 29.0635 81.9556C23.6862 79.486 21.1782 67.2693 21.1782 67.2693L25.8656 67.1652Z" fill="#FFBE9D"/>
<path d="M46.2086 54.7404C46.2182 54.6838 46.2347 54.6286 46.2579 54.5761C46.2963 54.4557 46.351 54.2969 46.4167 54.1052C46.5646 53.6671 46.7781 53.0593 47.0464 52.2872C47.3148 51.5151 47.6433 50.5295 47.9719 49.3905C48.1362 48.8429 48.273 48.2077 48.399 47.5451C48.4592 47.2166 48.5249 46.8771 48.5633 46.5266C48.577 46.3535 48.577 46.1795 48.5633 46.0064C48.5633 45.8257 48.5249 45.6833 48.3826 45.6778C48.2402 45.6724 48.1361 45.76 48.0376 45.9133C47.9446 46.0752 47.8676 46.2458 47.8076 46.4226C47.6817 46.784 47.5776 47.1673 47.479 47.5615C47.3805 47.9558 47.2874 48.361 47.1669 48.7717C47.1161 48.9987 47.0233 49.2141 46.8931 49.4069C46.8576 49.451 46.8064 49.4796 46.7503 49.4867C46.6941 49.4939 46.6374 49.479 46.592 49.4452C46.5388 49.3958 46.496 49.3362 46.466 49.27C46.4181 49.158 46.3849 49.0402 46.3674 48.9196C46.3502 47.9993 46.4421 47.0802 46.6412 46.1816C46.7234 45.7216 46.8055 45.2562 46.8657 44.7853C46.8976 44.5492 46.9159 44.3115 46.9205 44.0734C46.9205 43.8598 46.9205 43.5642 46.7946 43.5258C46.6686 43.4875 46.466 43.6134 46.3565 43.8106C46.2289 44.0141 46.1277 44.2331 46.0553 44.4622C45.9014 44.9421 45.7825 45.4326 45.6994 45.9297C45.6118 46.439 45.5461 46.9537 45.4858 47.4739C45.4858 47.7368 45.4365 48.0215 45.4092 48.2625L45.3763 48.6622C45.3808 48.7473 45.367 48.8324 45.3358 48.9118C45.3046 48.9911 45.2568 49.0629 45.1956 49.1222C45.1164 49.1809 45.0204 49.2125 44.9218 49.2125C44.8232 49.2125 44.7272 49.1809 44.648 49.1222C44.6039 49.0929 44.5661 49.055 44.5369 49.0108C44.5078 48.9665 44.4878 48.9169 44.4783 48.8648C44.4699 48.8159 44.4699 48.7659 44.4783 48.717V48.6184C44.5166 48.3501 44.5604 48.0708 44.5987 47.8134C44.6754 47.2658 44.7411 46.7183 44.7959 46.1707C44.8506 45.6231 44.8835 45.0755 44.8944 44.5279C44.9218 43.9752 44.8665 43.4215 44.7301 42.8851C44.6991 42.7485 44.6168 42.6289 44.5002 42.5511C44.4443 42.5342 44.3846 42.5346 44.3289 42.5522C44.2732 42.5698 44.2241 42.6038 44.188 42.6497C44.0412 42.9227 43.982 43.2344 44.0183 43.5422C43.9197 44.6374 43.7993 45.6833 43.6459 46.7237C43.5638 47.2713 43.4816 47.7642 43.3502 48.2734C43.3176 48.4034 43.2774 48.5314 43.2298 48.6567C43.1861 48.8113 43.0963 48.9488 42.9724 49.051C42.9159 49.0782 42.8519 49.0859 42.7905 49.0731C42.7292 49.0602 42.6737 49.0274 42.6329 48.9798C42.5799 48.9187 42.539 48.8481 42.5124 48.7717C42.4638 48.6444 42.4289 48.5122 42.4084 48.3775C42.2955 47.3772 42.2863 46.3679 42.381 45.3657C42.4443 44.8995 42.4681 44.4287 42.4522 43.9584C42.4399 43.7586 42.3494 43.5717 42.2003 43.4382C42.1663 43.4148 42.1276 43.3993 42.0869 43.3926C42.0461 43.386 42.0045 43.3885 41.9648 43.3999C41.9184 43.411 41.874 43.4295 41.8334 43.4546C41.8049 43.4736 41.7821 43.5002 41.7677 43.5313C41.6049 43.9453 41.4838 44.3746 41.4063 44.8126C41.3187 45.2507 41.242 45.6888 41.1708 46.1214C41.0996 46.554 41.0394 46.9756 40.9846 47.3973C40.9299 47.8189 40.897 48.2351 40.8149 48.6458C40.7466 49.0515 40.6384 49.4496 40.4918 49.834C40.4571 49.9311 40.4131 50.0247 40.3604 50.1133C40.2947 50.2009 40.2618 50.3159 40.0866 50.3707C40.042 50.3786 39.9961 50.3735 39.9544 50.3561C39.9126 50.3386 39.8768 50.3094 39.8511 50.2721C39.8201 50.2189 39.7962 50.1618 39.78 50.1024C39.7598 50.0012 39.747 49.8987 39.7416 49.7957C39.7416 49.0127 39.8511 48.2953 39.8895 47.6054C39.9224 47.274 39.9224 46.9401 39.8895 46.6087C39.8895 46.4609 39.8238 46.2911 39.7361 46.2528C39.6782 46.2243 39.6145 46.2095 39.55 46.2095C39.4854 46.2095 39.4217 46.2243 39.3638 46.2528C39.1738 46.4605 39.0549 46.7232 39.0243 47.003C38.9586 47.2877 38.9312 47.5506 38.8764 47.8408C38.6848 48.936 38.4822 49.8614 38.3891 50.6226C38.3403 50.9585 38.3403 51.2997 38.3891 51.6356C38.4548 51.9094 38.5479 52.1558 38.5972 52.3475L38.7286 52.7965C38.7503 52.8449 38.7633 52.8968 38.7669 52.9498C38.7397 52.9037 38.7194 52.8539 38.7067 52.802L38.5479 52.3694C38.4822 52.1722 38.3891 51.9477 38.3069 51.6466C38.2571 51.3034 38.2571 50.9548 38.3069 50.6116C38.3891 49.834 38.5753 48.9086 38.7505 47.8189C38.7998 47.5506 38.8271 47.2713 38.8929 46.9701C38.9202 46.8191 38.9605 46.6707 39.0133 46.5266C39.059 46.3585 39.1592 46.2102 39.2981 46.105C39.3826 46.0608 39.4765 46.0378 39.5719 46.0378C39.6672 46.0378 39.7611 46.0608 39.8457 46.105C40.0647 46.2309 40.0702 46.439 40.1085 46.5978C40.1412 46.942 40.1412 47.2885 40.1085 47.6327C40.0757 48.3336 39.9661 49.0674 39.9826 49.8231C39.9874 49.9114 39.9984 49.9992 40.0154 50.0859C40.0154 50.1735 40.0811 50.2064 40.0702 50.19C40.0592 50.1735 40.1578 50.1133 40.1961 50.0421C40.2406 49.9603 40.2808 49.8762 40.3166 49.7902C40.4504 49.4164 40.5511 49.0317 40.6178 48.6403C40.6944 48.246 40.7163 47.8299 40.7766 47.4082C40.8368 46.9866 40.8861 46.554 40.9573 46.1214C41.0285 45.6888 41.0996 45.2452 41.1873 44.8017C41.2654 44.3359 41.3958 43.8803 41.576 43.4437C41.6104 43.3708 41.6657 43.3098 41.7348 43.2685C41.7951 43.2332 41.8595 43.2057 41.9265 43.1863C42.0004 43.167 42.0776 43.1633 42.1531 43.1755C42.2285 43.1878 42.3006 43.2157 42.3646 43.2575C42.4716 43.3427 42.5603 43.4488 42.6252 43.5693C42.6902 43.6897 42.73 43.8221 42.7424 43.9584C42.7753 44.2074 42.7753 44.4596 42.7424 44.7086C42.7424 44.9441 42.6986 45.185 42.6822 45.426C42.5837 46.4037 42.5837 47.3888 42.6822 48.3665C42.7016 48.482 42.7309 48.5955 42.7698 48.706C42.7873 48.7495 42.8113 48.7901 42.841 48.8265C42.841 48.936 42.841 48.8539 42.841 48.8703C42.841 48.8867 42.841 48.8703 42.841 48.832C42.8979 48.7555 42.9422 48.6705 42.9724 48.5801C43.0107 48.4651 43.0491 48.3446 43.0819 48.2241C43.2024 47.7368 43.29 47.222 43.3667 46.7073C43.52 45.6724 43.635 44.6155 43.7335 43.5422C43.6904 43.162 43.7711 42.7779 43.9635 42.4471C44.0349 42.3498 44.1364 42.2788 44.2522 42.2451C44.3681 42.2115 44.4918 42.217 44.6042 42.2609C44.7017 42.3124 44.7872 42.3839 44.8551 42.4707C44.9231 42.5575 44.9719 42.6577 44.9985 42.7647C45.1469 43.3288 45.2078 43.9124 45.1792 44.4951C45.1792 45.0426 45.1299 45.6231 45.0751 46.1816C45.0204 46.7402 44.9547 47.2768 44.878 47.8244C44.8397 48.0982 44.7959 48.372 44.7575 48.6348C44.7192 48.81 44.7575 48.8155 44.7575 48.8648C44.7896 48.8847 44.8266 48.8952 44.8643 48.8952C44.902 48.8952 44.939 48.8847 44.9711 48.8648C45.0313 48.8265 45.0368 48.7443 45.0478 48.5965L45.0861 48.1967C45.0861 47.9339 45.1408 47.6492 45.1627 47.4082C45.223 46.8606 45.2942 46.3569 45.3818 45.8476C45.4678 45.3357 45.5904 44.8306 45.7487 44.3362C45.8307 44.0863 45.9429 43.8472 46.0827 43.6244C46.1602 43.5038 46.2607 43.3996 46.3784 43.3177C46.4423 43.2612 46.5213 43.2245 46.6058 43.2122C46.6903 43.2 46.7765 43.2126 46.8539 43.2487C46.9312 43.2848 46.9964 43.3426 47.0413 43.4152C47.0862 43.4878 47.1089 43.5719 47.1067 43.6572C47.1265 43.7859 47.1357 43.9159 47.1341 44.046C47.1262 44.2935 47.1043 44.5403 47.0684 44.7853C47.0081 45.2672 46.9205 45.7326 46.8384 46.1926C46.6397 47.0655 46.5442 47.9587 46.5536 48.8539C46.5634 48.9506 46.5893 49.045 46.6303 49.1331C46.6444 49.1664 46.6628 49.1977 46.685 49.2262C46.685 49.2262 46.685 49.2262 46.685 49.1988C46.789 49.0297 46.8648 48.8447 46.9096 48.6512C47.03 48.2515 47.1231 47.8463 47.2272 47.452C47.3312 47.0578 47.4352 46.669 47.5721 46.2966C47.638 46.1063 47.7224 45.9229 47.824 45.749C47.8763 45.6554 47.9471 45.5734 48.0321 45.5081C48.0802 45.469 48.1363 45.4409 48.1964 45.426C48.2543 45.4149 48.3137 45.4149 48.3716 45.426C48.4348 45.4319 48.4952 45.455 48.5463 45.4926C48.5974 45.5302 48.6373 45.581 48.6618 45.6395C48.6992 45.7357 48.7195 45.8376 48.7221 45.9407C48.7277 46.1238 48.7167 46.3071 48.6892 46.4883C48.6509 46.8497 48.5797 47.1892 48.514 47.5232C48.396 48.1479 48.2443 48.7658 48.0595 49.3741C47.72 50.513 47.375 51.4768 47.0903 52.2599C46.8055 53.0429 46.5427 53.6562 46.4112 54.0614C46.3346 54.2531 46.2689 54.4064 46.2251 54.5269C46.1813 54.6473 46.2141 54.7459 46.2086 54.7404Z" fill="#EB996E"/>
<path d="M21.1455 67.7128C22.0162 70.7903 23.7192 75.5433 25.5262 80.5593C25.5849 80.7206 25.6899 80.8609 25.8281 80.9627C25.9663 81.0645 26.1315 81.1232 26.3029 81.1314C26.4744 81.1396 26.6444 81.097 26.7917 81.0088C26.939 80.9206 27.0569 80.7909 27.1306 80.6359L31.6209 71.1353C31.6209 71.1353 30.5257 63.3321 30.6297 63.6059C30.7338 63.8797 21.3645 64.619 21.3645 64.619L21.1455 67.7128Z" fill="#5EBBFF"/>
<path d="M33.2908 68.441C33.2908 68.441 33.1703 68.3479 32.9458 68.2877C32.7937 68.2412 32.6316 68.238 32.4777 68.2786C32.3239 68.3193 32.1845 68.4021 32.0752 68.5177L31.9602 68.6491L31.889 68.4794C31.648 67.8661 31.3414 67.0721 31.0347 66.1959C30.5548 64.9934 30.1614 63.7582 29.8574 62.4997C30.4298 63.6624 30.9131 64.8669 31.3031 66.1028C31.6207 66.9735 31.8944 67.7784 32.0971 68.4027L31.9109 68.3698C32.0697 68.2079 32.2817 68.1088 32.5077 68.0906C32.6723 68.0756 32.8379 68.1019 32.9896 68.1672C33.236 68.2603 33.3017 68.4301 33.2908 68.441Z" fill="#263238"/>
<path d="M26.9229 77.4763C27.0932 77.0061 27.3115 76.5547 27.5745 76.1293C28.0071 75.3188 28.6204 74.2017 29.3213 72.9806C30.0222 71.7595 30.6629 70.6589 31.1393 69.8703C31.3749 69.429 31.6517 69.011 31.9661 68.6218C31.7925 69.0906 31.5743 69.5417 31.3145 69.9689C30.8819 70.7848 30.2631 71.8964 29.5677 73.123C28.8723 74.3496 28.2261 75.4448 27.7497 76.2333C27.5127 76.6721 27.236 77.0882 26.9229 77.4763Z" fill="#263238"/>
<path d="M23.9323 76.0471C24.1756 75.8403 24.4377 75.657 24.7154 75.4995C25.2246 75.1709 25.9639 74.7109 26.8619 74.1634L26.8126 74.3112C26.3143 73.1448 25.7175 71.7814 25.1042 70.3138C24.3266 68.4684 23.6311 66.7709 23.1219 65.506L23.2752 65.5553C22.5633 65.9441 21.9829 66.2507 21.5832 66.4588C21.3792 66.5807 21.1625 66.6798 20.937 66.7545C21.1163 66.5991 21.3129 66.465 21.5229 66.3548C21.9117 66.1138 22.4703 65.7798 23.1657 65.3746L23.2643 65.3143L23.3135 65.4239C23.8611 66.6724 24.584 68.3535 25.3615 70.2043C25.9748 71.6773 26.5388 73.0463 27.0043 74.2181L27.0426 74.3167L26.955 74.366C26.046 74.9136 25.3122 75.3242 24.7647 75.6145C24.5024 75.7863 24.2236 75.9312 23.9323 76.0471Z" fill="#FAFAFA"/>
<path d="M48.2944 184.25C49.0967 184.227 49.8613 183.905 50.4379 183.347C51.0145 182.788 51.3613 182.034 51.4102 181.233C52.3466 166.076 56.563 97.1292 55.7197 94.9662C54.7669 92.5349 52.2644 84.0802 52.2644 84.0802L29.9064 83.0452C29.9064 83.0452 24.3429 91.8066 23.5434 95.1907C22.8206 98.2079 2.56534 162.035 0.0464348 175.588C-0.0782252 176.261 0.050159 176.956 0.406932 177.54C0.763705 178.124 1.32372 178.556 1.97942 178.753L48.2944 184.25Z" fill="#263238"/>
<path d="M34.3208 83.5217C34.3208 83.5217 34.2934 83.6038 34.2222 83.7626L33.9046 84.4526L32.6561 87.092C32.4097 87.6779 32.1414 88.3295 31.8402 89.0359C31.5391 89.7423 31.2105 90.5199 30.9148 91.3686C30.6191 92.2174 30.2577 93.1154 29.9237 94.0792C29.5896 95.0429 29.2775 96.0724 28.9271 97.1511L27.9359 100.568C27.6128 101.762 27.3062 103.01 26.9667 104.303C26.6272 105.595 26.3589 106.942 26.0358 108.327C25.7127 109.713 25.4225 111.142 25.1432 112.615C24.5409 115.55 23.9495 118.638 23.3252 121.847C22.701 125.056 22.0329 128.364 21.2499 131.737C20.872 133.423 20.434 135.066 20.0287 136.709C19.6235 138.352 19.1471 139.94 18.6653 141.5C17.7179 144.627 16.6775 147.606 15.6152 150.41C13.4686 156.022 11.2345 160.956 9.31792 165.058C7.40136 169.159 5.72027 172.434 4.57033 174.695L3.23969 177.307C3.09184 177.592 2.97137 177.816 2.88376 177.975C2.84655 178.053 2.80449 178.128 2.75781 178.2C2.78749 178.119 2.82225 178.04 2.86186 177.964C2.93852 177.8 3.04803 177.57 3.19041 177.28C3.49158 176.666 3.92418 175.785 4.48272 174.657C5.57789 172.384 7.22066 169.093 9.14269 164.981C11.0647 160.869 13.2496 155.935 15.3797 150.327C16.4311 147.524 17.466 144.55 18.4134 141.429C18.8898 139.874 19.3169 138.27 19.7659 136.649C20.2149 135.028 20.6092 133.363 20.9761 131.671C21.7591 128.303 22.4162 124.985 23.0569 121.787C23.6976 118.589 24.278 115.495 24.8913 112.56C25.1816 111.087 25.5101 109.658 25.8058 108.273C26.1015 106.887 26.4465 105.535 26.7477 104.242C27.0488 102.95 27.4048 101.702 27.7333 100.508C28.0619 99.3141 28.4233 98.1806 28.7464 97.0909L29.7539 93.997C30.0934 93.0333 30.4493 92.1352 30.7669 91.2919C31.0846 90.4487 31.4076 89.6492 31.7198 88.9647C32.0319 88.2802 32.3057 87.6067 32.5576 87.0262C33.1052 85.8818 33.5542 85.0002 33.8499 84.4033L34.1949 83.7298L34.3208 83.5217Z" fill="#455A64"/>
<path d="M14.5801 180.1C14.5801 180.1 14.5801 180.018 14.6348 179.853C14.6896 179.689 14.7498 179.432 14.832 179.125L15.6095 176.332C16.2831 173.89 17.2523 170.386 18.457 166.06C19.6617 161.734 21.0471 156.548 22.553 150.793C23.2977 147.913 24.0753 144.89 24.8857 141.758C25.6961 138.625 26.4792 135.362 27.3115 132.033C28.1438 128.703 28.8995 125.461 29.6607 122.285C30.4218 119.109 31.1008 116.092 31.7798 113.195C33.0995 107.397 34.2604 102.162 35.2077 97.7644C36.1551 93.3673 36.9052 89.8135 37.4364 87.3603C37.6938 86.1391 37.8964 85.1699 38.0388 84.5238C38.1099 84.2116 38.1647 83.9762 38.203 83.79C38.2414 83.6038 38.2687 83.5381 38.2687 83.5381C38.2609 83.6245 38.2481 83.7105 38.2304 83.7955C38.1976 83.9707 38.1538 84.2171 38.0935 84.5347C37.9676 85.1973 37.7814 86.1775 37.5459 87.3822L36.6424 91.8614C36.2755 93.6137 35.8648 95.6069 35.4049 97.8082C34.4849 102.189 33.3459 107.446 32.0317 113.256C31.3691 116.152 30.6792 119.203 29.929 122.351C29.1788 125.5 28.3903 128.763 27.5908 132.104C26.7913 135.444 25.948 138.675 25.154 141.823C24.36 144.972 23.5605 147.984 22.8103 150.859C21.2826 156.614 19.8698 161.81 18.6541 166.114L17.0114 171.957C16.5131 173.671 16.0805 175.15 15.73 176.338C15.3796 177.526 15.0948 178.468 14.9032 179.12C14.8101 179.426 14.7334 179.667 14.6841 179.837C14.6348 180.007 14.5801 180.1 14.5801 180.1Z" fill="#455A64"/>
<path d="M41.2255 83.5928C41.2255 83.5928 41.2255 83.675 41.2639 83.8447L41.357 84.6004C41.3953 84.9344 41.4446 85.3451 41.4993 85.8215C41.5541 86.2979 41.5705 86.8729 41.6089 87.5026C41.6089 87.8202 41.6472 88.1542 41.6636 88.5047C41.68 88.8552 41.6636 89.2275 41.6636 89.5999V90.8046C41.6636 91.2207 41.6253 91.6588 41.6089 92.1078C41.5924 92.5568 41.5651 93.0223 41.5377 93.4987C41.5103 93.9751 41.4501 94.4734 41.4008 94.9827C41.3296 96.0012 41.1544 97.0635 41.0175 98.1915C40.678 100.431 40.2289 102.868 39.654 105.469C39.079 108.07 38.4055 110.83 37.7046 113.738C37.0036 116.645 36.2753 119.701 35.673 122.893C35.0707 126.086 34.5778 129.415 34.1288 132.837C33.6798 136.26 33.3567 139.595 32.9734 142.831C32.5901 146.067 32.2615 149.188 31.8782 152.14L31.2868 156.477C31.0568 157.873 30.8542 159.215 30.6242 160.551C30.3943 161.887 30.1588 163.125 29.9014 164.335C29.6441 165.545 29.3867 166.7 29.1293 167.801C28.872 168.902 28.5817 169.942 28.3079 170.928C28.0341 171.913 27.7275 172.822 27.4647 173.666C27.3278 174.093 27.2073 174.509 27.0649 174.903C26.9225 175.297 26.7802 175.675 26.6487 176.037C26.3804 176.754 26.134 177.417 25.9095 178.008C25.4276 179.18 25.006 180.067 24.7431 180.68L24.4255 181.37C24.3544 181.524 24.3105 181.6 24.3105 181.6C24.3105 181.6 24.3105 181.513 24.3982 181.354C24.4858 181.195 24.5679 180.954 24.6884 180.653C24.9403 180.04 25.34 179.142 25.7836 177.97L26.4899 175.987L26.9006 174.859C27.0375 174.465 27.1525 174.043 27.284 173.616C27.5413 172.757 27.8315 171.842 28.1053 170.878L28.9048 167.757L29.6605 164.291C29.9069 163.081 30.1205 161.816 30.3669 160.507C30.6133 159.198 30.7885 157.835 31.0075 156.439C31.2266 155.042 31.3909 153.591 31.588 152.107C31.9549 149.139 32.3108 146.023 32.6832 142.798C33.0555 139.573 33.4005 136.227 33.8386 132.783C34.2766 129.338 34.7914 126.02 35.3937 122.817C35.9961 119.613 36.7353 116.558 37.4417 113.655C38.1481 110.753 38.8381 107.988 39.4185 105.398C39.9989 102.808 40.4589 100.371 40.8149 98.1368C40.9572 97.0416 41.1379 95.9464 41.2146 94.9389C41.2694 94.4351 41.3132 93.9423 41.3624 93.4659C41.4117 92.9894 41.4172 92.524 41.4446 92.075C41.472 91.6259 41.5048 91.1988 41.5103 90.7772C41.5158 90.3555 41.5103 89.9613 41.5103 89.578C41.5103 89.1947 41.5103 88.8278 41.5103 88.4828C41.5103 88.1378 41.4774 87.8038 41.4665 87.4862C41.4336 86.8565 41.4336 86.2924 41.3843 85.8106C41.3351 85.3287 41.3022 84.918 41.2694 84.584C41.2365 84.2499 41.2201 84.009 41.2036 83.8283C41.2058 83.7494 41.2131 83.6708 41.2255 83.5928Z" fill="#455A64"/>
<path d="M38.7836 183.599C38.7587 183.516 38.7386 183.432 38.7234 183.347C38.6905 183.166 38.6413 182.92 38.581 182.602C38.5208 182.285 38.4496 181.863 38.362 181.381C38.2744 180.899 38.1594 180.352 38.1046 179.738C38.0499 179.125 37.9513 178.408 37.8582 177.641C37.7651 176.874 37.7487 176.031 37.683 175.133C37.683 174.684 37.6282 174.213 37.6118 173.737C37.5954 173.26 37.6118 172.757 37.6118 172.242C37.6118 171.727 37.6118 171.207 37.6118 170.665C37.6118 170.123 37.6556 169.57 37.672 169.022C37.6885 168.474 37.7213 167.872 37.7432 167.281C37.7651 166.689 37.8418 166.082 37.8856 165.463C37.9677 164.225 38.1265 162.949 38.2799 161.63C38.4332 160.31 38.6522 158.941 38.8274 157.534C39.0027 156.126 39.2874 154.686 39.5722 153.213C40.6673 147.305 42.1458 140.881 43.5148 134.102C44.7991 127.728 45.7586 121.293 46.3896 114.822C46.981 108.853 47.2055 103.459 47.2822 98.9417C47.2822 96.6747 47.2822 94.6212 47.2822 92.8251C47.2822 91.0291 47.2055 89.4739 47.1508 88.2035C47.096 86.9331 47.0467 85.9529 47.0194 85.2849C47.0194 84.9618 47.0194 84.7099 47.0194 84.5292C47.0194 84.3485 47.0194 84.2664 47.0194 84.2664C47.0194 84.2664 47.0194 84.354 47.0194 84.5237C47.0194 84.6935 47.0522 84.9618 47.0796 85.2849C47.1234 85.9474 47.2055 86.9276 47.2603 88.198C47.3151 89.4684 47.3917 91.0181 47.441 92.8197C47.4903 94.6212 47.5067 96.6528 47.4958 98.9417C47.4465 103.481 47.2384 108.886 46.6634 114.86C46.0438 121.343 45.0897 127.789 43.805 134.174C42.436 140.964 40.9302 147.381 39.8405 153.279C39.5557 154.746 39.3312 156.192 39.0848 157.588C38.8384 158.985 38.6522 160.354 38.5098 161.679C38.3675 163.004 38.1868 164.274 38.1046 165.512C38.0499 166.125 38.0006 166.728 37.9513 167.319C37.902 167.91 37.8965 168.491 37.8692 169.055C37.8418 169.619 37.8254 170.177 37.798 170.698V173.759C37.798 174.235 37.8418 174.701 37.8637 175.15C37.9184 176.048 37.9184 176.891 38.0115 177.652C38.1046 178.413 38.1649 179.12 38.2306 179.755C38.2963 180.39 38.3894 180.938 38.4606 181.398L38.6577 182.619C38.707 182.936 38.7398 183.166 38.7727 183.369C38.8055 183.571 38.7836 183.599 38.7836 183.599Z" fill="#455A64"/>
<path d="M51.0549 84.0254C51.0549 84.0254 51.0823 84.1075 51.1316 84.2718L51.3452 84.9946L51.6792 86.1829C51.8348 86.7236 51.9627 87.2719 52.0625 87.8257C52.183 88.4444 52.3527 89.1289 52.4732 89.8901C52.5937 90.6512 52.6977 91.4781 52.8236 92.3706C52.9496 93.2632 52.9715 94.2215 53.0536 95.24C53.1358 96.2585 53.1358 97.3318 53.1139 98.4653C53.1139 100.727 52.9277 103.196 52.6375 105.841C52.3472 108.486 51.8927 111.29 51.3671 114.225L49.6476 123.435C49.0453 126.628 48.5196 129.946 48.0432 133.358C47.5668 136.769 47.178 140.104 46.8604 143.335C46.5428 146.565 46.3128 149.692 46.1266 152.671C45.9405 155.65 45.8255 158.481 45.7707 161.137C45.7159 163.793 45.6831 166.262 45.694 168.518C45.705 170.774 45.7378 172.817 45.7926 174.607C45.8474 176.398 45.9131 177.942 45.9624 179.202C46.0116 180.461 46.0719 181.43 46.1047 182.104C46.1047 182.429 46.1157 182.681 46.1376 182.86C46.1376 183.035 46.1376 183.122 46.1376 183.122C46.1376 183.122 46.1376 183.035 46.1047 182.865L46.0445 182.109C46.0007 181.447 45.924 180.467 45.8528 179.207C45.7817 177.948 45.6886 176.404 45.6338 174.613C45.579 172.822 45.5188 170.78 45.4914 168.518C45.4641 166.257 45.4914 163.787 45.5352 161.131C45.579 158.475 45.705 155.655 45.8638 152.655C46.0226 149.654 46.2581 146.544 46.5811 143.307C46.9042 140.071 47.2766 136.736 47.7639 133.314C48.2513 129.891 48.766 126.578 49.3738 123.386L51.1097 114.181C51.6573 111.246 52.0789 108.442 52.402 105.814C52.7251 103.185 52.8784 100.716 52.9113 98.4598C52.9113 97.3318 52.8784 96.2695 52.8729 95.2455C52.8674 94.2215 52.7305 93.2796 52.6648 92.3871C52.5991 91.4945 52.4403 90.6731 52.3418 89.912C52.2432 89.1508 52.068 88.4718 51.9584 87.8475C51.8489 87.2233 51.7339 86.6812 51.597 86.2048C51.4601 85.7284 51.3725 85.3451 51.2904 85.0165C51.2083 84.688 51.148 84.4689 51.1042 84.2828C51.0604 84.0966 51.0549 84.0254 51.0549 84.0254Z" fill="#455A64"/>
<path d="M56.9391 196.02L99.7646 196.357L100.189 142.295L57.3637 141.958L56.9391 196.02Z" fill="#3F76E0"/>
<path d="M83.4217 143.902L82.6544 196.235L75.8916 196.183L77.3482 143.85L83.4217 143.902Z" fill="#5E91F6"/>
<path d="M32.7533 143.499L57.3205 143.694L100.147 144.032L57.2815 149.663L56.9173 196.04L32.3501 195.845L32.7533 143.499Z" fill="#2B62CD"/>
<path d="M46.1357 143.603L45.1603 195.949L37.8643 195.884L39.0608 143.551L46.1357 143.603Z" fill="#5E91F6"/>
<path d="M65.5786 127.671C65.5786 128.009 64.8633 128.347 63.5497 128.672C60.3625 129.376 57.09 129.612 53.8347 129.375C53.1064 129.375 52.3521 129.244 51.5587 129.127C50.7151 129.007 49.8808 128.829 49.0617 128.594C48.5228 128.431 48.0037 128.209 47.5141 127.931C46.8626 127.549 46.3066 127.025 45.8884 126.396C45.4436 125.691 45.2007 124.876 45.1861 124.042C45.1837 123.429 45.2535 122.818 45.3942 122.222C45.7772 120.368 46.3256 118.553 47.0329 116.798C47.4557 115.825 47.9834 114.9 48.6065 114.041C48.9262 113.583 49.2782 113.148 49.66 112.741C50.091 112.301 50.571 111.913 51.0905 111.583C51.6837 111.207 52.3404 110.943 53.0284 110.803C53.7655 110.661 54.5247 110.683 55.2523 110.868C56.3402 111.17 57.3424 111.722 58.1785 112.48C60.4697 114.411 62.3796 116.754 63.8098 119.386C64.7658 121.138 65.4042 123.044 65.6956 125.018C65.8647 126.422 65.6956 127.216 65.3835 127.281C64.6942 127.45 63.6928 124.68 60.9617 121.22C59.3731 119.244 57.5222 117.494 55.4604 116.018C55.0808 115.71 54.636 115.492 54.1598 115.381C54.0831 115.361 54.0025 115.361 53.9257 115.381C53.7969 115.431 53.6747 115.496 53.5616 115.576C53.3661 115.72 53.1833 115.881 53.0154 116.057C52.8203 116.278 52.5992 116.551 52.4041 116.824C51.9995 117.412 51.6553 118.04 51.3767 118.697C50.7859 120.193 50.295 121.727 49.9071 123.288C49.8399 123.508 49.7963 123.735 49.777 123.964H49.6469C49.4909 123.964 49.4519 124.042 49.5559 123.964L49.712 123.847C49.7437 123.893 49.7834 123.933 49.829 123.964C50.0212 124.09 50.2261 124.194 50.4403 124.276C51.0657 124.505 51.7041 124.696 52.3521 124.849C53.0153 125.031 53.6526 125.174 54.3159 125.304C55.6164 125.564 56.8259 125.746 57.9574 125.902C60.2334 126.201 62.1321 126.409 63.4457 126.656C64.7592 126.903 65.5656 127.346 65.5786 127.671Z" fill="#5E91F6"/>
<path d="M64.6937 128.061C64.5767 127.385 67.776 126.383 72.7701 124.914C75.6419 124.092 78.457 123.084 81.1976 121.896C81.8482 121.635 82.4641 121.294 83.0314 120.882C83.2265 120.713 83.3175 120.57 83.2915 120.583C83.2655 120.596 83.2915 120.778 83.2265 120.687C83.1465 120.428 83.0465 120.176 82.9273 119.933L82.3031 118.632C81.9198 117.829 81.4854 117.052 81.0025 116.304C80.5722 115.637 80.0611 115.025 79.4809 114.483C79.2103 114.235 78.9236 114.005 78.6225 113.794C78.3794 113.626 78.1175 113.486 77.8422 113.378C77.4353 113.19 76.9757 113.148 76.5417 113.261C75.9826 113.441 75.4684 113.738 75.0331 114.132C72.8109 115.985 70.8431 118.124 69.1806 120.492C66.3064 124.576 65.5521 127.762 64.8368 127.658C64.5247 127.658 64.2906 126.747 64.4076 125.174C64.62 122.953 65.2464 120.791 66.2544 118.801C67.7203 115.812 69.7064 113.109 72.1198 110.816C72.9852 109.968 74.0232 109.315 75.1631 108.904C76.5367 108.43 78.0293 108.43 79.4029 108.904C80.0285 109.13 80.6262 109.427 81.1846 109.788C81.6956 110.111 82.1785 110.477 82.6282 110.881C83.5257 111.684 84.3128 112.602 84.9692 113.612C85.5733 114.538 86.108 115.507 86.5689 116.512L87.1931 117.891C87.4927 118.514 87.7071 119.174 87.8304 119.855C87.9904 120.827 87.821 121.825 87.3492 122.69C86.9592 123.387 86.4168 123.987 85.7625 124.446C84.8584 125.063 83.8738 125.553 82.8363 125.902C79.8022 126.992 76.6578 127.747 73.4594 128.152C68.1011 128.88 64.7718 128.685 64.6937 128.061Z" fill="#5E91F6"/>
<path d="M24.9864 143.416L87.9307 143.91L88.0712 126.015L25.1269 125.521L24.9864 143.416Z" fill="#2B62CD"/>
<path d="M48.125 143.594L105.022 144.041L105.163 126.146L48.2656 125.699L48.125 143.594Z" fill="#3F76E0"/>
<path d="M87.6873 126.032L87.2841 144.006L80.6514 143.876L81.1196 125.98L87.6873 126.032Z" fill="#5E91F6"/>
<path d="M40.543 125.759L39.8927 143.576L32.5967 143.511L32.9868 125.603L40.543 125.759Z" fill="#5E91F6"/>
<path d="M103.337 195.036L127.604 195.226L127.845 164.599L103.578 164.409L103.337 195.036Z" fill="#3F76E0"/>
<path d="M118.329 165.504L117.9 195.169L114.063 195.143L114.882 165.478L118.329 165.504Z" fill="#5E91F6"/>
<path d="M89.6122 165.283L103.541 165.387L127.809 165.582L103.515 168.781L103.307 195.052L89.3911 194.948L89.6122 165.283Z" fill="#2B62CD"/>
<path d="M97.1947 165.348L96.6484 195L92.5127 194.974L93.189 165.309L97.1947 165.348Z" fill="#5E91F6"/>
<path d="M108.21 156.309C108.21 156.764 106.623 157.31 103.84 157.609C102.134 157.746 100.417 157.605 98.7551 157.193C97.9676 157.005 97.272 156.544 96.7912 155.893C96.5085 155.444 96.3513 154.927 96.336 154.397C96.3336 154.021 96.3728 153.646 96.4531 153.278C96.6754 152.207 96.9931 151.158 97.4025 150.144C97.6547 149.573 97.9641 149.028 98.3259 148.518C98.7458 147.921 99.2754 147.409 99.8865 147.01C100.269 146.767 100.696 146.603 101.143 146.527C101.589 146.451 102.046 146.465 102.488 146.568C103.148 146.76 103.757 147.097 104.269 147.556C105.586 148.681 106.672 150.05 107.469 151.588C108.769 154.189 108.587 156.127 108.158 156.192C107.729 156.257 107.027 154.774 105.453 152.888C104.545 151.8 103.5 150.834 102.345 150.014C102.173 149.875 101.973 149.773 101.759 149.715L101.668 149.78C101.452 149.959 101.263 150.169 101.109 150.404C100.891 150.717 100.708 151.053 100.563 151.406C100.229 152.253 99.9556 153.122 99.7435 154.007L99.6654 154.306H99.4574H99.2623C99.1712 154.306 99.1582 154.306 99.2623 154.306C99.3516 154.25 99.4308 154.18 99.4964 154.098L99.5744 154.02C99.6629 154.084 99.759 154.136 99.8605 154.176C101.218 154.632 102.616 154.959 104.035 155.151C106.506 155.528 108.21 155.827 108.21 156.309Z" fill="#5E91F6"/>
<path d="M107.69 156.543C107.599 156.023 109.407 155.333 112.19 154.41C113.782 153.902 115.345 153.307 116.872 152.628C117.201 152.489 117.511 152.31 117.795 152.095C117.874 151.978 117.874 152.03 117.795 152.095C117.736 152.207 117.705 152.332 117.704 152.459L117.223 151.445C117.011 150.997 116.772 150.563 116.508 150.144C116.293 149.797 116.03 149.482 115.728 149.208C115.507 148.981 115.247 148.796 114.96 148.662C114.83 148.617 114.688 148.617 114.557 148.662C114.294 148.73 114.052 148.864 113.855 149.052C112.615 150.058 111.501 151.211 110.538 152.485C108.861 154.683 108.315 156.452 107.781 156.387C107.248 156.322 106.923 154.228 108.276 151.185C109.085 149.427 110.214 147.835 111.605 146.49C112.137 145.963 112.776 145.555 113.478 145.293C114.353 144.987 115.307 144.987 116.183 145.293C116.577 145.423 116.952 145.603 117.301 145.826C117.612 146.03 117.908 146.256 118.186 146.503C118.723 146.981 119.195 147.528 119.59 148.128C119.936 148.677 120.249 149.246 120.527 149.832L120.878 150.625C121.072 151.038 121.208 151.476 121.281 151.926C121.386 152.583 121.267 153.257 120.943 153.838C120.686 154.289 120.336 154.679 119.915 154.982C119.369 155.354 118.774 155.647 118.147 155.854C116.392 156.464 114.572 156.865 112.723 157.05C109.68 157.258 107.794 157.024 107.69 156.543Z" fill="#5E91F6"/>
<path d="M85.2125 165.241L120.885 165.521L120.965 155.377L85.2921 155.097L85.2125 165.241Z" fill="#2B62CD"/>
<path d="M98.349 165.334L130.588 165.587L130.668 155.443L98.4286 155.19L98.349 165.334Z" fill="#3F76E0"/>
<path d="M120.747 155.385L120.526 165.568L116.754 165.49L117.027 155.359L120.747 155.385Z" fill="#5E91F6"/>
<path d="M94.0345 155.229L93.6704 165.322L89.5347 165.296L89.7557 155.138L94.0345 155.229Z" fill="#5E91F6"/>
</svg>
