<svg width="165" height="193" viewBox="0 0 165 193" fill="none" xmlns="http://www.w3.org/2000/svg">
<path d="M164.399 87.3772C164.399 145.523 127.224 192.659 81.3661 192.659C35.5081 192.659 0.789551 165.706 0.789551 107.56C0.789551 49.415 48.8614 70.4667 78.2607 35.009C107.66 -0.448695 164.399 29.2318 164.399 87.3772Z" fill="#F4AC59"/>
<g clip-path="url(#clip0_805_1043)">
<path d="M115.281 187C135.861 187 152.543 177.345 152.543 165.436C152.543 153.527 135.861 143.872 115.281 143.872C94.7022 143.872 78.0195 153.527 78.0195 165.436C78.0195 177.345 94.7022 187 115.281 187Z" fill="#E79535"/>
<path d="M89.8984 136.459C90.4027 136.74 90.6828 137.19 90.6828 137.583C90.6828 137.976 90.6828 141.345 90.6828 141.794C90.6828 142.187 90.4027 142.58 89.8984 142.861L60.7053 159.764C59.6406 160.382 57.9036 160.382 56.839 159.764L4.78446 129.608C4.28016 129.328 4 128.878 4 128.485C4 128.092 4 124.723 4 124.33C4 123.937 4.28016 123.487 4.78446 123.207L33.9776 106.304C35.0422 105.686 36.7792 105.686 37.8439 106.304L89.8984 136.459Z" fill="#37474F"/>
<path d="M4.78431 125.453L56.8949 155.553C57.9595 156.17 59.6965 156.17 60.7611 155.553L89.9543 138.65C91.0189 138.032 91.0189 137.021 89.9543 136.403L37.8997 106.247C36.8351 105.63 35.0981 105.63 34.0335 106.247L4.78431 123.207C3.71968 123.824 3.71968 124.835 4.78431 125.453Z" fill="#37474F"/>
<path d="M33.0245 133.427C33.0245 133.483 32.9685 133.596 32.9124 133.652L28.5979 136.123C28.3738 136.291 27.8695 136.179 27.4772 136.01L23.8351 133.932C23.611 133.82 23.4429 133.652 23.4429 133.483C23.4429 133.427 23.4429 132.585 23.4429 132.416C23.4429 132.36 23.4989 132.248 23.5549 132.192L27.8695 129.721C28.0936 129.552 28.5979 129.665 28.9901 129.833L32.6323 131.911C32.8564 132.079 33.0245 132.248 33.0245 132.36C33.0245 132.472 33.0245 133.259 33.0245 133.427Z" fill="#E75656"/>
<path opacity="0.25" d="M23.4429 132.36C23.4429 132.529 23.4429 133.315 23.4429 133.427C23.4429 133.539 23.5549 133.764 23.8351 133.876L27.4772 135.954C27.7014 136.066 27.9255 136.123 28.1496 136.179V135.112C27.9255 135.112 27.7014 134.999 27.4772 134.887L23.8351 132.809C23.5549 132.641 23.4429 132.472 23.4429 132.36Z" fill="black"/>
<path opacity="0.5" d="M33.0246 132.36C33.0246 132.416 32.9686 132.529 32.9126 132.529L28.598 134.999C28.486 135.056 28.3179 135.112 28.0938 135.056V136.123C28.2618 136.123 28.486 136.123 28.598 136.066L32.9126 133.595C33.0246 133.539 33.0246 133.483 33.0246 133.371C33.0246 133.259 33.0246 132.472 33.0246 132.36Z" fill="white"/>
<path d="M27.8696 129.665L23.5551 132.135C23.331 132.304 23.443 132.585 23.7792 132.809L27.4214 134.887C27.8136 135.112 28.3179 135.168 28.542 134.999L32.8565 132.529C33.0807 132.36 32.9686 132.079 32.6324 131.855L28.9903 129.777C28.6541 129.608 28.1498 129.552 27.8696 129.665Z" fill="#E75656"/>
<path d="M40.6451 128.991C40.6451 129.047 40.5891 129.159 40.533 129.215L36.2185 131.686C35.9944 131.855 35.4901 131.742 35.0978 131.574L31.4557 129.496C31.2316 129.384 31.0635 129.215 31.0635 129.047C31.0635 128.991 31.0635 128.148 31.0635 127.98C31.0635 127.924 31.1195 127.811 31.1755 127.755L35.4901 125.284C35.7142 125.116 36.2185 125.228 36.6107 125.397L40.2529 127.474C40.477 127.643 40.6451 127.811 40.6451 127.924C40.6451 128.036 40.6451 128.822 40.6451 128.991Z" fill="#E75656"/>
<path opacity="0.25" d="M31.1196 127.924C31.1196 128.092 31.1196 128.878 31.1196 128.991C31.1196 129.103 31.2317 129.328 31.5119 129.44L35.154 131.518C35.3781 131.63 35.6023 131.686 35.8264 131.742V130.675C35.6023 130.675 35.3781 130.563 35.154 130.451L31.5119 128.373C31.2317 128.261 31.1196 128.092 31.1196 127.924Z" fill="black"/>
<path opacity="0.5" d="M40.6452 127.98C40.6452 128.036 40.5892 128.148 40.5332 128.148L36.2187 130.619C36.1066 130.675 35.9385 130.732 35.7144 130.675V131.742C35.8825 131.742 36.1066 131.742 36.2187 131.686L40.5332 129.215C40.6452 129.159 40.6452 129.103 40.6452 128.991C40.6452 128.822 40.6452 128.036 40.6452 127.98Z" fill="white"/>
<path d="M35.5459 125.228L31.2314 127.699C31.0072 127.868 31.1193 128.148 31.4555 128.373L35.0976 130.451C35.4899 130.675 35.9941 130.732 36.2183 130.563L40.5328 128.092C40.7569 127.924 40.6449 127.643 40.3087 127.418L36.6665 125.341C36.2743 125.172 35.77 125.116 35.5459 125.228Z" fill="#E75656"/>
<path d="M48.3214 124.554C48.3214 124.611 48.2653 124.723 48.2093 124.779L43.8948 127.25C43.6706 127.418 43.1663 127.306 42.7741 127.138L39.132 125.06C38.9078 124.948 38.7397 124.779 38.7397 124.611C38.7397 124.554 38.7397 123.712 38.7397 123.544C38.7397 123.487 38.7958 123.375 38.8518 123.319L43.1663 120.848C43.3905 120.68 43.8948 120.792 44.287 120.96L47.9291 123.038C48.1533 123.207 48.3214 123.375 48.3214 123.487C48.3214 123.6 48.3214 124.386 48.3214 124.554Z" fill="#E75656"/>
<path opacity="0.25" d="M38.7397 123.487C38.7397 123.656 38.7397 124.442 38.7397 124.554C38.7397 124.667 38.8518 124.891 39.132 125.004L42.7741 127.081C42.9982 127.194 43.2224 127.25 43.4465 127.306V126.239C43.2224 126.239 42.9982 126.127 42.7741 126.014L39.132 123.937C38.9078 123.824 38.7397 123.656 38.7397 123.487Z" fill="black"/>
<path opacity="0.5" d="M48.3215 123.544C48.3215 123.6 48.2655 123.712 48.2095 123.712L43.8949 126.183C43.7829 126.239 43.6148 126.295 43.3906 126.239V127.306C43.5587 127.306 43.7829 127.306 43.8949 127.25L48.2095 124.779C48.3215 124.723 48.3215 124.667 48.3215 124.554C48.3215 124.442 48.3215 123.6 48.3215 123.544Z" fill="white"/>
<path d="M43.1665 120.792L38.852 123.263C38.6278 123.431 38.7399 123.712 39.0761 123.937L42.7182 126.014C43.1105 126.239 43.6148 126.295 43.8389 126.127L48.1534 123.656C48.3775 123.487 48.2655 123.207 47.9293 122.982L44.2871 120.904C43.9509 120.736 43.4467 120.68 43.1665 120.792Z" fill="#E75656"/>
<path d="M71.295 146.736C71.295 146.792 71.239 146.905 71.1829 146.961L66.8684 149.432C66.6443 149.6 66.14 149.488 65.7477 149.319L62.1056 147.241C61.8815 147.129 61.7134 146.961 61.7134 146.792C61.7134 146.736 61.7134 145.894 61.7134 145.725C61.7134 145.669 61.7694 145.557 61.8254 145.501L66.14 143.03C66.3641 142.861 66.8684 142.974 67.2606 143.142L70.9028 145.22C71.1269 145.388 71.295 145.557 71.295 145.669C71.295 145.781 71.295 146.568 71.295 146.736Z" fill="#E0E0E0"/>
<path d="M71.2951 145.669C71.2951 145.725 71.2391 145.838 71.1831 145.838L66.8686 148.308C66.7565 148.365 66.5884 148.421 66.3643 148.365V149.432C66.5324 149.432 66.7565 149.432 66.8686 149.375L71.1831 146.905C71.2951 146.848 71.2951 146.792 71.2951 146.68C71.2951 146.568 71.2951 145.781 71.2951 145.669Z" fill="#F0F0F0"/>
<path opacity="0.2" d="M61.7695 145.669C61.7695 145.838 61.7695 146.624 61.7695 146.736C61.7695 146.848 61.8816 147.073 62.1618 147.185L65.8039 149.263C66.028 149.375 66.2522 149.432 66.4763 149.488V148.421C66.2522 148.421 66.028 148.308 65.8039 148.196L62.1618 146.118C61.8816 145.95 61.7695 145.781 61.7695 145.669Z" fill="black"/>
<path d="M40.6451 137.863C40.6451 137.92 40.5891 138.032 40.533 138.088L36.2185 140.559C35.9944 140.727 35.4901 140.615 35.0978 140.447L31.4557 138.369C31.2316 138.256 31.0635 138.088 31.0635 137.92C31.0635 137.863 31.0635 137.021 31.0635 136.853C31.0635 136.796 31.1195 136.684 31.1755 136.628L35.4901 134.157C35.7142 133.989 36.2185 134.101 36.6107 134.269L40.2529 136.347C40.477 136.516 40.6451 136.684 40.6451 136.796C40.6451 136.909 40.7011 137.695 40.6451 137.863Z" fill="#E0E0E0"/>
<path d="M40.7009 136.796C40.7009 136.853 40.6449 136.965 40.5888 136.965L36.2743 139.436C36.1622 139.492 35.9942 139.548 35.77 139.492V140.559C35.9381 140.559 36.1622 140.559 36.2743 140.503L40.5888 138.032C40.7009 137.976 40.7009 137.92 40.7009 137.807C40.7009 137.695 40.6449 136.909 40.7009 136.796Z" fill="#F0F0F0"/>
<path opacity="0.2" d="M31.1196 136.796C31.1196 136.965 31.1196 137.751 31.1196 137.863C31.1196 137.976 31.2317 138.2 31.5119 138.313L35.154 140.39C35.3781 140.503 35.6023 140.559 35.8264 140.615V139.548C35.6023 139.548 35.3781 139.436 35.154 139.323L31.5119 137.246C31.2317 137.077 31.1196 136.909 31.1196 136.796Z" fill="black"/>
<path d="M55.9981 128.991C55.9981 129.047 55.9421 129.159 55.8861 129.215L51.5715 131.686C51.3474 131.855 50.8431 131.742 50.4509 131.574L46.8087 129.496C46.5846 129.384 46.4165 129.215 46.4165 129.047C46.4165 128.991 46.4165 128.148 46.4165 127.98C46.4165 127.924 46.4725 127.811 46.5286 127.755L50.8431 125.284C51.0672 125.116 51.5715 125.228 51.9638 125.397L55.6059 127.474C55.83 127.643 55.9981 127.811 55.9981 127.924C55.9981 128.036 55.9981 128.822 55.9981 128.991Z" fill="#E0E0E0"/>
<path d="M55.9983 127.98C55.9983 128.036 55.9422 128.148 55.8862 128.148L51.5717 130.619C51.4596 130.675 51.2915 130.732 51.0674 130.675V131.742C51.2355 131.742 51.4596 131.742 51.5717 131.686L55.8862 129.215C55.9983 129.159 55.9983 129.103 55.9983 128.991C55.9983 128.822 55.9983 128.036 55.9983 127.98Z" fill="#F0F0F0"/>
<path opacity="0.2" d="M46.4165 127.924C46.4165 128.092 46.4165 128.878 46.4165 128.991C46.4165 129.103 46.5286 129.328 46.8087 129.44L50.4509 131.518C50.675 131.63 50.8991 131.686 51.1233 131.742V130.675C50.8991 130.675 50.675 130.563 50.4509 130.451L46.8087 128.373C46.5286 128.261 46.4165 128.092 46.4165 127.924Z" fill="black"/>
<path d="M48.3214 133.427C48.3214 133.483 48.2653 133.596 48.2093 133.652L43.8948 136.123C43.6706 136.291 43.1663 136.179 42.7741 136.01L39.132 133.932C38.9078 133.82 38.7397 133.652 38.7397 133.483C38.7397 133.427 38.7397 132.585 38.7397 132.416C38.7397 132.36 38.7958 132.248 38.8518 132.192L43.1663 129.721C43.3905 129.552 43.8948 129.665 44.287 129.833L47.9291 131.911C48.1533 132.079 48.3214 132.248 48.3214 132.36C48.3214 132.472 48.3214 133.259 48.3214 133.427Z" fill="#E0E0E0"/>
<path d="M48.3215 132.36C48.3215 132.416 48.2655 132.529 48.2095 132.529L43.8949 134.999C43.7829 135.056 43.6148 135.112 43.3906 135.056V136.123C43.5587 136.123 43.7829 136.123 43.8949 136.066L48.2095 133.595C48.3215 133.539 48.3215 133.483 48.3215 133.371C48.3215 133.259 48.3215 132.472 48.3215 132.36Z" fill="#F0F0F0"/>
<path opacity="0.2" d="M38.7959 132.36C38.7959 132.529 38.7959 133.315 38.7959 133.427C38.7959 133.539 38.908 133.764 39.1881 133.876L42.8303 135.954C43.0544 136.066 43.2785 136.123 43.5027 136.179V135.112C43.2785 135.112 43.0544 134.999 42.8303 134.887L39.1881 132.809C38.908 132.697 38.7399 132.472 38.7959 132.36Z" fill="black"/>
<path d="M48.3214 142.3C48.3214 142.356 48.2653 142.468 48.2093 142.524L43.8948 144.995C43.6706 145.164 43.1663 145.051 42.7741 144.883L39.132 142.805C38.9078 142.693 38.7397 142.524 38.7397 142.356C38.7397 142.3 38.7397 141.457 38.7397 141.289C38.7397 141.233 38.7958 141.12 38.8518 141.064L43.1663 138.593C43.3905 138.425 43.8948 138.537 44.287 138.706L47.9291 140.783C48.1533 140.952 48.3214 141.12 48.3214 141.233C48.3214 141.345 48.3214 142.131 48.3214 142.3Z" fill="#E0E0E0"/>
<path d="M48.3215 141.233C48.3215 141.289 48.2655 141.401 48.2095 141.401L43.8949 143.872C43.7829 143.928 43.6148 143.984 43.3906 143.928V144.995C43.5587 144.995 43.7829 144.995 43.8949 144.939L48.2095 142.468C48.3215 142.412 48.3215 142.356 48.3215 142.244C48.3215 142.131 48.3215 141.345 48.3215 141.233Z" fill="#F0F0F0"/>
<path opacity="0.2" d="M38.7959 141.233C38.7959 141.401 38.7959 142.187 38.7959 142.3C38.7959 142.412 38.908 142.637 39.1881 142.749L42.8303 144.827C43.0544 144.939 43.2785 144.995 43.5027 145.051V143.984C43.2785 143.984 43.0544 143.872 42.8303 143.76L39.1881 141.682C38.908 141.514 38.7959 141.345 38.7959 141.233Z" fill="black"/>
<path d="M63.6187 133.427C63.6187 133.483 63.5627 133.596 63.5067 133.652L59.1921 136.123C58.968 136.291 58.4637 136.179 58.0715 136.01L54.4293 133.932C54.2052 133.82 54.0371 133.652 54.0371 133.483C54.0371 133.427 54.0371 132.585 54.0371 132.416C54.0371 132.36 54.0931 132.248 54.1492 132.192L58.4637 129.721C58.6878 129.552 59.1921 129.665 59.5844 129.833L63.2265 131.911C63.4506 132.079 63.6187 132.248 63.6187 132.36C63.6187 132.472 63.6187 133.259 63.6187 133.427Z" fill="#E0E0E0"/>
<path d="M63.6189 132.416C63.6189 132.472 63.5628 132.585 63.5068 132.585L59.1923 135.056C59.0802 135.112 58.9121 135.168 58.688 135.112V136.179C58.8561 136.179 59.0802 136.179 59.1923 136.123L63.5068 133.652C63.6189 133.595 63.6189 133.539 63.6189 133.427C63.6189 133.259 63.6189 132.472 63.6189 132.416Z" fill="#F0F0F0"/>
<path opacity="0.2" d="M54.0933 132.36C54.0933 132.529 54.0933 133.315 54.0933 133.427C54.0933 133.539 54.2053 133.764 54.4855 133.876L58.1276 135.954C58.3518 136.066 58.5759 136.123 58.8 136.179V135.112C58.5759 135.112 58.3518 134.999 58.1276 134.887L54.4855 132.809C54.2053 132.697 54.0933 132.529 54.0933 132.36Z" fill="black"/>
<path d="M55.9981 137.863C55.9981 137.92 55.9421 138.032 55.8861 138.088L51.5715 140.559C51.3474 140.727 50.8431 140.615 50.4509 140.447L46.8087 138.369C46.5846 138.256 46.4165 138.088 46.4165 137.92C46.4165 137.863 46.4165 137.021 46.4165 136.853C46.4165 136.796 46.4725 136.684 46.5286 136.628L50.8431 134.157C51.0672 133.989 51.5715 134.101 51.9638 134.269L55.6059 136.347C55.83 136.516 55.9981 136.684 55.9981 136.796C55.9981 136.909 55.9981 137.695 55.9981 137.863Z" fill="#E0E0E0"/>
<path d="M55.9983 136.796C55.9983 136.853 55.9422 136.965 55.8862 136.965L51.5717 139.436C51.4596 139.492 51.2915 139.548 51.0674 139.492V140.559C51.2355 140.559 51.4596 140.559 51.5717 140.503L55.8862 138.032C55.9983 137.976 55.9983 137.92 55.9983 137.807C55.9983 137.695 55.9983 136.909 55.9983 136.796Z" fill="#F0F0F0"/>
<path opacity="0.2" d="M46.4165 136.796C46.4165 136.965 46.4165 137.751 46.4165 137.863C46.4165 137.976 46.5286 138.2 46.8087 138.313L50.4509 140.39C50.675 140.503 50.8991 140.559 51.1233 140.615V139.548C50.8991 139.548 50.675 139.436 50.4509 139.323L46.8087 137.246C46.5846 137.077 46.4165 136.909 46.4165 136.796Z" fill="black"/>
<path d="M55.9981 146.736C55.9981 146.792 55.9421 146.905 55.8861 146.961L51.5715 149.432C51.3474 149.6 50.8431 149.488 50.4509 149.319L46.8087 147.241C46.5846 147.129 46.4165 146.961 46.4165 146.792C46.4165 146.736 46.4165 145.894 46.4165 145.725C46.4165 145.669 46.4725 145.557 46.5286 145.501L50.8431 143.03C51.0672 142.861 51.5715 142.974 51.9638 143.142L55.6059 145.22C55.83 145.388 55.9981 145.557 55.9981 145.669C55.9981 145.725 55.9981 146.568 55.9981 146.736Z" fill="#E0E0E0"/>
<path d="M55.9983 145.669C55.9983 145.725 55.9422 145.838 55.8862 145.838L51.5717 148.308C51.4596 148.365 51.2915 148.421 51.0674 148.365V149.432C51.2355 149.432 51.4596 149.432 51.5717 149.375L55.8862 146.905C55.9983 146.848 55.9983 146.792 55.9983 146.68C55.9983 146.568 55.9983 145.781 55.9983 145.669Z" fill="#F0F0F0"/>
<path opacity="0.2" d="M46.4165 145.669C46.4165 145.838 46.4165 146.624 46.4165 146.736C46.4165 146.848 46.5286 147.073 46.8087 147.185L50.4509 149.263C50.675 149.375 50.8991 149.432 51.1233 149.488V148.421C50.8991 148.421 50.675 148.308 50.4509 148.196L46.8087 146.118C46.5846 145.95 46.4165 145.781 46.4165 145.669Z" fill="black"/>
<path d="M71.295 137.863C71.295 137.92 71.239 138.032 71.1829 138.088L66.8684 140.559C66.6443 140.727 66.14 140.615 65.7477 140.447L62.1056 138.369C61.8815 138.256 61.7134 138.088 61.7134 137.92C61.7134 137.863 61.7134 137.021 61.7134 136.853C61.7134 136.796 61.7694 136.684 61.8254 136.628L66.14 134.157C66.3641 133.989 66.8684 134.101 67.2606 134.269L70.9028 136.347C71.1269 136.516 71.295 136.684 71.295 136.796C71.295 136.909 71.295 137.695 71.295 137.863Z" fill="#E0E0E0"/>
<path d="M71.2951 136.796C71.2951 136.853 71.2391 136.965 71.1831 136.965L66.8686 139.436C66.7565 139.492 66.5884 139.548 66.3643 139.492V140.559C66.5324 140.559 66.7565 140.559 66.8686 140.503L71.1831 138.032C71.2951 137.976 71.2951 137.92 71.2951 137.807C71.2951 137.695 71.2951 136.909 71.2951 136.796Z" fill="#F0F0F0"/>
<path opacity="0.2" d="M61.7695 136.796C61.7695 136.965 61.7695 137.751 61.7695 137.863C61.7695 137.976 61.8816 138.2 62.1618 138.313L65.8039 140.39C66.028 140.503 66.2522 140.559 66.4763 140.615V139.548C66.2522 139.548 66.028 139.436 65.8039 139.323L62.1618 137.246C61.8816 137.133 61.7695 136.909 61.7695 136.796Z" fill="black"/>
<path d="M63.6744 142.3C63.6744 142.356 63.6184 142.468 63.5623 142.524L59.2478 144.995C59.0237 145.164 58.5194 145.051 58.1271 144.883L54.485 142.805C54.2609 142.693 54.0928 142.524 54.0928 142.356C54.0928 142.3 54.0928 141.457 54.0928 141.289C54.0928 141.233 54.1488 141.12 54.2048 141.064L58.5194 138.593C58.7435 138.425 59.2478 138.537 59.64 138.706L63.2822 140.783C63.5063 140.952 63.6744 141.12 63.6744 141.233C63.6744 141.345 63.6744 142.131 63.6744 142.3Z" fill="#E0E0E0"/>
<path d="M63.6745 141.233C63.6745 141.289 63.6185 141.401 63.5625 141.401L59.2479 143.872C59.1359 143.928 58.9678 143.984 58.7437 143.928V144.995C58.9118 144.995 59.1359 144.995 59.2479 144.939L63.5625 142.468C63.6745 142.412 63.6745 142.356 63.6745 142.244C63.6745 142.131 63.6745 141.345 63.6745 141.233Z" fill="#F0F0F0"/>
<path opacity="0.2" d="M54.0928 141.233C54.0928 141.401 54.0928 142.187 54.0928 142.3C54.0928 142.412 54.2048 142.637 54.485 142.749L58.1271 144.827C58.3513 144.939 58.5754 144.995 58.7995 145.051V143.984C58.5754 143.984 58.3513 143.872 58.1271 143.76L54.485 141.682C54.2048 141.514 54.0928 141.345 54.0928 141.233Z" fill="black"/>
<path d="M55.9981 120.118C55.9981 120.174 55.9421 120.287 55.8861 120.343L51.5715 122.814C51.3474 122.982 50.8431 122.87 50.4509 122.701L46.8087 120.623C46.5846 120.511 46.4165 120.343 46.4165 120.174C46.4165 120.118 46.4165 119.276 46.4165 119.107C46.4165 119.051 46.4725 118.939 46.5286 118.883L50.8431 116.412C51.0672 116.243 51.5715 116.356 51.9638 116.524L55.6059 118.602C55.83 118.77 55.9981 118.939 55.9981 119.051C55.9981 119.163 55.9981 120.006 55.9981 120.118Z" fill="#E75656"/>
<path opacity="0.25" d="M46.4165 119.051C46.4165 119.22 46.4165 120.006 46.4165 120.118C46.4165 120.23 46.5286 120.455 46.8087 120.567L50.4509 122.645C50.675 122.757 50.8991 122.814 51.1233 122.87V121.803C50.8991 121.803 50.675 121.69 50.4509 121.578L46.8087 119.5C46.5286 119.388 46.4165 119.22 46.4165 119.051Z" fill="black"/>
<path opacity="0.5" d="M55.9983 119.107C55.9983 119.163 55.9422 119.276 55.8862 119.276L51.5717 121.747C51.4596 121.803 51.2915 121.859 51.0674 121.803V122.87C51.2355 122.87 51.4596 122.87 51.5717 122.814L55.8862 120.343C55.9983 120.287 55.9983 120.23 55.9983 120.118C55.9983 120.006 55.9983 119.22 55.9983 119.107Z" fill="white"/>
<path d="M50.8432 116.412L46.5287 118.883C46.3046 119.051 46.4167 119.332 46.7528 119.556L50.395 121.634C50.7872 121.859 51.2915 121.915 51.5156 121.747L55.8302 119.276C56.0543 119.107 55.9422 118.826 55.606 118.602L51.9639 116.524C51.5717 116.299 51.0674 116.243 50.8432 116.412Z" fill="#E75656"/>
<path d="M63.6187 124.554C63.6187 124.611 63.5627 124.723 63.5067 124.779L59.1921 127.25C58.968 127.418 58.4637 127.306 58.0715 127.138L54.4293 125.06C54.2052 124.948 54.0371 124.779 54.0371 124.611C54.0371 124.554 54.0371 123.712 54.0371 123.544C54.0371 123.487 54.0931 123.375 54.1492 123.319L58.4637 120.848C58.6878 120.68 59.1921 120.792 59.5844 120.96L63.2265 123.038C63.4506 123.207 63.6187 123.375 63.6187 123.487C63.6187 123.6 63.6187 124.386 63.6187 124.554Z" fill="#E75656"/>
<path opacity="0.25" d="M54.0933 123.487C54.0933 123.656 54.0933 124.442 54.0933 124.554C54.0933 124.667 54.2053 124.891 54.4855 125.004L58.1276 127.081C58.3518 127.194 58.5759 127.25 58.8 127.306V126.239C58.5759 126.239 58.3518 126.127 58.1276 126.014L54.4855 123.937C54.2053 123.824 54.0933 123.656 54.0933 123.487Z" fill="black"/>
<path opacity="0.5" d="M63.6189 123.544C63.6189 123.6 63.5628 123.712 63.5068 123.712L59.1923 126.183C59.0802 126.239 58.9121 126.295 58.688 126.239V127.306C58.8561 127.306 59.0802 127.306 59.1923 127.25L63.5068 124.779C63.6189 124.723 63.6189 124.667 63.6189 124.554C63.6189 124.442 63.6189 123.6 63.6189 123.544Z" fill="white"/>
<path d="M58.5195 120.792L54.205 123.263C53.9809 123.431 54.0929 123.712 54.4291 123.937L58.0713 126.014C58.4635 126.239 58.9678 126.295 59.1919 126.127L63.5064 123.656C63.7306 123.487 63.6185 123.207 63.2823 122.982L59.6402 120.904C59.2479 120.736 58.7437 120.68 58.5195 120.792Z" fill="#E75656"/>
<path d="M71.295 128.991C71.295 129.047 71.239 129.159 71.1829 129.215L66.8684 131.686C66.6443 131.855 66.14 131.742 65.7477 131.574L62.1056 129.496C61.8815 129.384 61.7134 129.215 61.7134 129.047C61.7134 128.991 61.7134 128.148 61.7134 127.98C61.7134 127.924 61.7694 127.811 61.8254 127.755L66.14 125.284C66.3641 125.116 66.8684 125.228 67.2606 125.397L70.9028 127.475C71.1269 127.643 71.295 127.811 71.295 127.924C71.295 128.036 71.295 128.822 71.295 128.991Z" fill="#E75656"/>
<path opacity="0.25" d="M61.7134 127.924C61.7134 128.092 61.7134 128.878 61.7134 128.991C61.7134 129.103 61.8254 129.328 62.1056 129.44L65.7477 131.518C65.9719 131.63 66.196 131.686 66.4201 131.742V130.675C66.196 130.675 65.9719 130.563 65.7477 130.451L62.1056 128.373C61.8815 128.261 61.7134 128.092 61.7134 127.924Z" fill="black"/>
<path opacity="0.5" d="M71.2951 127.98C71.2951 128.036 71.2391 128.148 71.1831 128.148L66.8686 130.619C66.7565 130.675 66.5884 130.732 66.3643 130.675V131.742C66.5324 131.742 66.7565 131.742 66.8686 131.686L71.1831 129.215C71.2951 129.159 71.2951 129.103 71.2951 128.991C71.2951 128.822 71.2951 128.036 71.2951 127.98Z" fill="white"/>
<path d="M66.1401 125.228L61.8256 127.699C61.6015 127.868 61.7135 128.148 62.0497 128.373L65.6919 130.451C66.0841 130.675 66.5884 130.732 66.8125 130.563L71.127 128.092C71.3512 127.924 71.2391 127.643 70.9029 127.418L67.2608 125.341C66.9246 125.172 66.4203 125.116 66.1401 125.228Z" fill="#E75656"/>
<path d="M78.9718 133.427C78.9718 133.483 78.9157 133.596 78.8597 133.652L74.5452 136.123C74.321 136.291 73.8167 136.179 73.4245 136.01L69.7824 133.933C69.5582 133.82 69.3901 133.652 69.3901 133.483C69.3901 133.427 69.3901 132.585 69.3901 132.416C69.3901 132.36 69.4462 132.248 69.5022 132.192L73.8167 129.721C74.0409 129.552 74.5452 129.665 74.9374 129.833L78.5795 131.911C78.8037 132.079 78.9718 132.248 78.9718 132.36C78.9718 132.472 78.9718 133.259 78.9718 133.427Z" fill="#E75656"/>
<path opacity="0.25" d="M69.3901 132.36C69.3901 132.529 69.3901 133.315 69.3901 133.427C69.3901 133.539 69.5022 133.764 69.7824 133.876L73.4245 135.954C73.6486 136.066 73.8728 136.123 74.0969 136.179V135.112C73.8728 135.112 73.6486 134.999 73.4245 134.887L69.7824 132.809C69.5022 132.697 69.3901 132.529 69.3901 132.36Z" fill="black"/>
<path opacity="0.5" d="M78.9719 132.416C78.9719 132.472 78.9159 132.585 78.8598 132.585L74.5453 135.056C74.4332 135.112 74.2651 135.168 74.041 135.112V136.179C74.2091 136.179 74.4332 136.179 74.5453 136.123L78.8598 133.652C78.9719 133.596 78.9719 133.539 78.9719 133.427C78.9719 133.259 78.9719 132.472 78.9719 132.416Z" fill="white"/>
<path d="M73.8169 129.665L69.5023 132.136C69.2782 132.304 69.3903 132.585 69.7265 132.809L73.3686 134.887C73.7608 135.112 74.2651 135.168 74.4893 134.999L78.8038 132.529C79.0279 132.36 78.9159 132.079 78.5797 131.855L74.9375 129.777C74.6013 129.608 74.041 129.552 73.8169 129.665Z" fill="#E75656"/>
<path d="M86.648 137.863C86.648 137.92 86.592 138.032 86.536 138.088L82.2214 140.559C81.9973 140.727 81.493 140.615 81.1008 140.447L77.4586 138.369C77.2345 138.256 77.0664 138.088 77.0664 137.92C77.0664 137.863 77.0664 137.021 77.0664 136.853C77.0664 136.796 77.1224 136.684 77.1785 136.628L81.493 134.157C81.7171 133.989 82.2214 134.101 82.6137 134.269L86.2558 136.347C86.4799 136.516 86.648 136.684 86.648 136.796C86.648 136.909 86.648 137.695 86.648 137.863Z" fill="#E75656"/>
<path opacity="0.25" d="M77.0664 136.796C77.0664 136.965 77.0664 137.751 77.0664 137.863C77.0664 137.976 77.1785 138.2 77.4586 138.313L81.1008 140.39C81.3249 140.503 81.549 140.559 81.7732 140.615V139.548C81.549 139.548 81.3249 139.436 81.1008 139.323L77.4586 137.246C77.1785 137.133 77.0664 136.965 77.0664 136.796Z" fill="black"/>
<path opacity="0.5" d="M86.6482 136.853C86.6482 136.909 86.5921 137.021 86.5361 137.021L82.2216 139.492C82.1095 139.548 81.9414 139.604 81.7173 139.548V140.615C81.8854 140.615 82.1095 140.615 82.2216 140.559L86.5361 138.088C86.6482 138.032 86.6482 137.976 86.6482 137.863C86.6482 137.751 86.6482 136.909 86.6482 136.853Z" fill="white"/>
<path d="M81.4931 134.101L77.1786 136.572C76.9545 136.74 77.0665 137.021 77.4027 137.246L81.0449 139.323C81.4371 139.548 81.9414 139.604 82.1655 139.436L86.4801 136.965C86.7042 136.796 86.5921 136.516 86.2559 136.291L82.6138 134.213C82.2216 134.045 81.7173 133.989 81.4931 134.101Z" fill="#E75656"/>
<path d="M78.9713 142.3C78.9713 142.356 78.9152 142.468 78.8592 142.524L74.5447 144.995C74.3205 145.164 73.8162 145.051 73.424 144.883L69.7819 142.805C69.5577 142.693 69.3896 142.524 69.3896 142.356C69.3896 142.3 69.3896 141.457 69.3896 141.289C69.3896 141.233 69.4457 141.12 69.5017 141.064L73.8162 138.593C74.0404 138.425 74.5447 138.537 74.9369 138.706L78.579 140.783C78.8032 140.952 78.9713 141.12 78.9713 141.233C78.9713 141.345 78.9713 142.131 78.9713 142.3Z" fill="#E75656"/>
<path opacity="0.25" d="M69.3896 141.233C69.3896 141.401 69.3896 142.187 69.3896 142.3C69.3896 142.412 69.5017 142.637 69.7819 142.749L73.424 144.827C73.6481 144.939 73.8723 144.995 74.0964 145.051V143.984C73.8723 143.984 73.6481 143.872 73.424 143.76L69.7819 141.682C69.5577 141.57 69.3896 141.345 69.3896 141.233Z" fill="black"/>
<path opacity="0.5" d="M78.9714 141.233C78.9714 141.289 78.9154 141.401 78.8594 141.401L74.5448 143.872C74.4328 143.928 74.2647 143.984 74.0405 143.928V144.995C74.2086 144.995 74.4328 144.995 74.5448 144.939L78.8594 142.468C78.9714 142.412 78.9714 142.356 78.9714 142.244C78.9714 142.131 78.9714 141.345 78.9714 141.233Z" fill="white"/>
<path d="M73.8164 138.537L69.5019 141.008C69.2777 141.177 69.3898 141.457 69.726 141.682L73.3681 143.76C73.7604 143.984 74.2647 144.041 74.4888 143.872L78.8033 141.401C79.0274 141.233 78.9154 140.952 78.5792 140.727L74.937 138.65C74.6008 138.481 74.0966 138.425 73.8164 138.537Z" fill="#E75656"/>
<path d="M63.6744 151.172C63.6744 151.229 63.6184 151.341 63.5623 151.397L59.2478 153.868C59.0237 154.036 58.5194 153.924 58.1271 153.756L54.485 151.678C54.2609 151.565 54.0928 151.397 54.0928 151.229C54.0928 151.172 54.0928 150.33 54.0928 150.162C54.0928 150.105 54.1488 149.993 54.2048 149.937L58.5194 147.466C58.7435 147.298 59.2478 147.41 59.64 147.578L63.2822 149.656C63.5063 149.825 63.6744 149.993 63.6744 150.105C63.6744 150.218 63.6744 151.004 63.6744 151.172Z" fill="#E75656"/>
<path opacity="0.25" d="M54.0928 150.105C54.0928 150.274 54.0928 151.06 54.0928 151.172C54.0928 151.285 54.2048 151.509 54.485 151.622L58.1271 153.699C58.3513 153.812 58.5754 153.868 58.7995 153.924V152.857C58.5754 152.857 58.3513 152.745 58.1271 152.632L54.485 150.555C54.2609 150.386 54.0928 150.218 54.0928 150.105Z" fill="black"/>
<path opacity="0.5" d="M63.6745 150.105C63.6745 150.162 63.6185 150.274 63.5625 150.274L59.2479 152.745C59.1359 152.801 58.9678 152.857 58.7437 152.801V153.868C58.9118 153.868 59.1359 153.868 59.2479 153.812L63.5625 151.341C63.6745 151.285 63.6745 151.229 63.6745 151.116C63.6745 151.004 63.6745 150.218 63.6745 150.105Z" fill="white"/>
<path d="M58.5195 147.41L54.205 149.881C53.9809 150.049 54.0929 150.33 54.4291 150.555L58.0713 152.632C58.4635 152.857 58.9678 152.913 59.1919 152.745L63.5064 150.274C63.7306 150.105 63.6185 149.825 63.2823 149.6L59.6402 147.522C59.304 147.354 58.7997 147.298 58.5195 147.41Z" fill="#E75656"/>
<path d="M36.6106 137.695C36.5546 137.695 36.5546 137.639 36.6106 137.695L35.4339 136.403L34.7055 136.853H34.6494C34.5934 136.853 34.5934 136.853 34.5934 136.853L34.2572 136.628L34.2012 136.572V136.516L35.3779 135.842H35.4339C35.4899 135.842 35.4899 135.842 35.4899 135.842L35.8261 136.01C35.8822 136.01 35.8822 136.066 35.9382 136.123L37.0588 137.414C37.0588 137.414 37.0588 137.47 37.1149 137.47V137.526L36.7787 137.751H36.7227C36.6106 137.695 36.6106 137.695 36.6106 137.695Z" fill="#455A64"/>
<path d="M42.3817 132.529C42.2697 132.472 42.2136 132.416 42.1576 132.304C42.1016 132.248 42.1016 132.135 42.1016 132.079C42.1016 132.023 42.1016 131.911 42.1576 131.855C42.2136 131.799 42.2697 131.742 42.3817 131.686C42.4938 131.63 42.6059 131.574 42.7179 131.574C42.83 131.518 42.9421 131.518 43.1102 131.518C43.2222 131.518 43.3903 131.518 43.5024 131.574C43.6145 131.63 43.7265 131.63 43.8386 131.686C43.9506 131.742 44.0067 131.799 44.0627 131.855C44.1187 131.911 44.1748 131.967 44.1748 132.023C44.2868 132.023 44.3989 132.023 44.511 132.079C44.623 132.135 44.7351 132.135 44.8472 132.192C44.9592 132.248 45.0153 132.304 45.0713 132.416C45.1273 132.472 45.1273 132.585 45.1273 132.641C45.1273 132.697 45.0713 132.809 45.0153 132.866C44.9592 132.922 44.9032 132.978 44.7911 133.09C44.6791 133.146 44.567 133.202 44.4549 133.202C44.3429 133.259 44.1748 133.259 44.0627 133.259C43.9506 133.259 43.7826 133.259 43.6705 133.202C43.5584 133.146 43.4463 133.146 43.3343 133.09C43.2222 133.034 43.1662 132.978 43.1102 132.922C43.0541 132.866 43.0541 132.809 42.9981 132.753C42.886 132.753 42.774 132.697 42.7179 132.697C42.5498 132.641 42.4938 132.585 42.3817 132.529ZM43.7265 132.809C43.7825 132.866 43.8946 132.866 43.9506 132.866C44.0627 132.866 44.1187 132.809 44.2308 132.809C44.3429 132.753 44.3989 132.697 44.3989 132.641C44.3989 132.585 44.3429 132.529 44.2868 132.529C44.2308 132.472 44.1187 132.472 44.0627 132.472C43.9506 132.472 43.8946 132.529 43.7825 132.529C43.6705 132.585 43.6144 132.641 43.6144 132.697C43.6705 132.753 43.6705 132.809 43.7265 132.809ZM42.83 132.248C42.886 132.304 42.9421 132.304 43.0541 132.304C43.1662 132.304 43.2222 132.304 43.2783 132.248C43.3343 132.192 43.3903 132.135 43.3903 132.135C43.3903 132.079 43.3343 132.023 43.2783 132.023C43.2222 131.967 43.1662 131.967 43.0541 131.967C42.9421 131.967 42.886 131.967 42.83 132.023C42.774 132.079 42.7179 132.135 42.7179 132.135C42.7179 132.192 42.774 132.192 42.83 132.248Z" fill="#455A64"/>
<path d="M50.1144 128.205C50.0023 128.148 49.8903 128.036 49.8342 127.98C49.7782 127.924 49.7222 127.811 49.7222 127.755C49.7222 127.699 49.7222 127.587 49.7782 127.531C49.8342 127.475 49.8903 127.418 50.0023 127.362C50.1144 127.306 50.2265 127.25 50.3385 127.25C50.4506 127.194 50.6187 127.194 50.7308 127.194C50.8428 127.194 51.0109 127.194 51.179 127.25C51.3471 127.306 51.4592 127.362 51.5713 127.418C51.6273 127.475 51.6833 127.475 51.7394 127.531C51.7954 127.587 51.7954 127.587 51.8514 127.643C51.9075 127.699 51.9075 127.699 51.9075 127.755C51.9075 127.811 51.9635 127.811 51.9635 127.868L52.3557 128.654C52.3557 128.654 52.3557 128.654 52.3557 128.71V128.766L51.9635 128.991H51.9075H51.8514L51.5713 128.485C51.4592 128.541 51.3471 128.541 51.2351 128.541C51.123 128.541 51.0109 128.541 50.8428 128.541C50.7308 128.541 50.5627 128.485 50.4506 128.485C50.3385 128.317 50.2265 128.261 50.1144 128.205ZM51.123 127.587C51.067 127.587 51.0109 127.531 50.9549 127.531C50.8989 127.531 50.8428 127.531 50.7868 127.531C50.7308 127.531 50.6747 127.531 50.6187 127.531C50.5627 127.531 50.5066 127.531 50.5066 127.587C50.4506 127.587 50.4506 127.643 50.4506 127.643C50.4506 127.643 50.4506 127.699 50.4506 127.755C50.4506 127.811 50.4506 127.811 50.5066 127.868C50.5066 127.924 50.5627 127.924 50.6187 127.924C50.6747 127.924 50.7308 127.98 50.7868 127.98C50.8428 127.98 50.8989 127.98 50.9549 127.98C51.0109 127.98 51.067 127.98 51.123 127.98C51.179 127.98 51.2351 127.98 51.2351 127.924C51.2911 127.924 51.2911 127.868 51.2911 127.868C51.2911 127.868 51.2911 127.811 51.2911 127.755C51.2911 127.699 51.2911 127.699 51.2351 127.643C51.179 127.643 51.179 127.643 51.123 127.587Z" fill="#455A64"/>
<path d="M44.8476 141.851H44.7916C44.7356 141.851 44.7356 141.851 44.7356 141.851L44.3994 141.682L43.6149 142.131H43.5589C43.5028 142.131 43.5028 142.131 43.5028 142.131L43.1667 141.907C43.1106 141.851 43.0546 141.851 43.0546 141.794L42.5503 140.615V140.559C42.5503 140.559 42.5503 140.559 42.6063 140.503L42.9986 140.278H43.0546C43.1106 140.278 43.1106 140.278 43.1106 140.278L44.3994 141.008L44.6235 140.896H44.6795C44.7356 140.896 44.7356 140.896 44.7356 140.896L45.0718 141.12L45.1278 141.177V141.233L44.9037 141.345L45.2399 141.514L45.2959 141.57V141.626L44.8476 141.851ZM43.839 141.345L43.2227 140.952L43.4468 141.514L43.839 141.345Z" fill="#455A64"/>
<path d="M51.4033 137.246C51.4593 137.246 51.4593 137.246 51.5153 137.246C51.5714 137.246 51.5714 137.246 51.6274 137.246C51.6834 137.246 51.6834 137.246 51.7395 137.246C51.7955 137.246 51.7955 137.246 51.8515 137.19C51.9076 137.19 51.9076 137.133 51.9076 137.133L51.9636 137.077C51.9636 137.021 51.9636 137.021 51.9076 136.965C51.9076 136.909 51.8515 136.909 51.7955 136.853C51.7395 136.796 51.6274 136.796 51.5714 136.796C51.4593 136.796 51.4033 136.796 51.3472 136.853L51.2912 136.909C51.2912 136.909 51.2912 136.965 51.2352 136.965V137.021C51.2352 137.021 51.2352 137.021 51.2352 137.077L50.843 137.302H50.7869C50.7309 137.302 50.7309 137.302 50.7309 137.302L49.6102 136.572L49.5542 136.516V136.46L50.6188 135.842H50.6749C50.7309 135.842 50.7309 135.842 50.7309 135.842L51.0671 136.066L51.1231 136.123V136.179L50.3947 136.572L50.6749 136.74C50.6749 136.684 50.6749 136.684 50.7309 136.628C50.7309 136.572 50.7869 136.572 50.843 136.516C50.955 136.46 51.0671 136.403 51.1791 136.403C51.2912 136.403 51.4033 136.347 51.5714 136.347C51.6834 136.347 51.8515 136.347 51.9636 136.403C52.0757 136.46 52.2438 136.516 52.3558 136.572C52.4679 136.628 52.58 136.74 52.636 136.796C52.692 136.853 52.7481 136.965 52.7481 137.021C52.7481 137.077 52.7481 137.19 52.692 137.246C52.636 137.302 52.58 137.358 52.4679 137.414C52.3558 137.47 52.2438 137.526 52.1317 137.583C52.0196 137.639 51.8515 137.639 51.7395 137.639C51.6274 137.639 51.5153 137.639 51.3472 137.583C51.2352 137.526 51.1231 137.526 51.0111 137.47C51.0111 137.47 50.955 137.47 50.955 137.414C50.955 137.358 50.955 137.414 50.955 137.358L51.2912 137.19H51.3472C51.4033 137.246 51.4033 137.246 51.4033 137.246Z" fill="#455A64"/>
<path d="M59.9762 132.192C60.0882 132.248 60.2003 132.36 60.2563 132.416C60.3124 132.472 60.3684 132.585 60.3684 132.641C60.3684 132.697 60.3684 132.809 60.3124 132.866C60.2563 132.922 60.2003 132.978 60.0882 133.09C59.9762 133.146 59.8641 133.202 59.752 133.202C59.64 133.259 59.4719 133.259 59.3598 133.259C59.2478 133.259 59.0797 133.259 58.9116 133.202C58.7435 133.146 58.6314 133.09 58.5193 133.034C58.4633 132.978 58.4073 132.978 58.3512 132.922C58.2952 132.866 58.2952 132.866 58.2392 132.809C58.1831 132.753 58.1831 132.753 58.1831 132.697C58.1831 132.641 58.1271 132.641 58.1271 132.585L57.7349 131.799C57.7349 131.799 57.7349 131.799 57.7349 131.742V131.686L58.1271 131.462H58.1831H58.2392L58.5193 131.967C58.6314 131.911 58.7435 131.911 58.8555 131.855C58.9676 131.855 59.0797 131.855 59.2477 131.855C59.3598 131.855 59.5279 131.911 59.64 131.911C59.696 132.023 59.8641 132.079 59.9762 132.192ZM58.9116 132.753C58.9676 132.809 59.0236 132.809 59.0797 132.809C59.1357 132.809 59.1917 132.809 59.2477 132.809C59.3038 132.809 59.3598 132.809 59.4158 132.809C59.4719 132.809 59.5279 132.753 59.5279 132.753C59.5839 132.753 59.5839 132.697 59.5839 132.697C59.5839 132.697 59.64 132.641 59.64 132.585C59.64 132.529 59.64 132.529 59.5839 132.472C59.5839 132.416 59.5279 132.416 59.4719 132.36C59.4158 132.304 59.3598 132.304 59.3038 132.304C59.2477 132.304 59.1917 132.304 59.1357 132.304C59.0797 132.304 59.0236 132.304 58.9676 132.304C58.9116 132.304 58.8555 132.36 58.8555 132.36C58.7995 132.36 58.7995 132.416 58.7995 132.416C58.7995 132.416 58.7435 132.472 58.7435 132.529C58.7435 132.585 58.7435 132.585 58.7995 132.641C58.8555 132.697 58.9116 132.753 58.9116 132.753Z" fill="#455A64"/>
<path d="M50.2825 145.725C50.2264 145.725 50.2264 145.725 50.2264 145.669L50.1704 145.613V144.995V144.939C50.1704 144.939 50.1704 144.883 50.2264 144.883L50.5066 144.714H50.5626C50.6187 144.714 50.6187 144.714 50.6187 144.714L52.7479 145.95L52.804 146.006V146.062L52.4678 146.231H52.4117C52.3557 146.231 52.3557 146.231 52.3557 146.231L50.8988 145.388V145.725C50.8988 145.725 50.8988 145.781 50.8428 145.781H50.7868L50.2825 145.725Z" fill="#455A64"/>
<path d="M59.1916 140.615C59.2476 140.671 59.3037 140.671 59.3597 140.727C59.4157 140.784 59.4718 140.784 59.4718 140.84C59.5278 140.896 59.5278 140.952 59.5278 141.008C59.5278 141.064 59.5278 141.12 59.5278 141.177V141.57L60.1442 141.233H60.2002C60.2562 141.233 60.2562 141.233 60.2562 141.233L60.5924 141.457L60.6485 141.514V141.57L59.3037 142.356H59.2476C59.1916 142.356 59.1916 142.356 59.1916 142.356L58.9114 142.187C58.8554 142.187 58.8554 142.131 58.7994 142.131C58.7994 142.131 58.7433 142.075 58.7433 142.019L58.7994 141.177C58.7994 141.12 58.7994 141.064 58.7433 141.008C58.6873 140.952 58.6873 140.952 58.6313 140.896C58.6313 140.896 58.5752 140.896 58.5752 140.84C58.5192 140.84 58.5192 140.84 58.4632 140.784C58.4071 140.784 58.3511 140.784 58.3511 140.784C58.2951 140.784 58.239 140.784 58.183 140.84C58.127 140.84 58.127 140.896 58.127 140.896C58.127 140.952 58.127 140.952 58.127 140.952C58.127 140.952 58.127 141.008 58.183 141.008L58.2391 141.064C58.2391 141.064 58.2951 141.12 58.2391 141.12C58.2391 141.12 58.239 141.177 58.183 141.177L57.9029 141.345H57.8468H57.7908C57.6787 141.289 57.6227 141.233 57.5667 141.177C57.5106 141.12 57.4546 141.008 57.4546 140.952C57.4546 140.896 57.4546 140.784 57.5106 140.727C57.5667 140.671 57.6227 140.559 57.7348 140.503C57.8468 140.447 57.9589 140.39 58.071 140.39C58.183 140.39 58.3511 140.334 58.4632 140.39C58.5752 140.39 58.7433 140.447 58.8554 140.447C58.9675 140.503 59.0795 140.559 59.1916 140.615Z" fill="#455A64"/>
<path d="M65.9717 135.786H66.0278C66.0838 135.786 66.0838 135.786 66.0838 135.786L66.42 136.01L66.476 136.066V136.123L66.5881 136.516C66.7562 136.46 66.9243 136.46 67.1484 136.46C67.3165 136.46 67.5407 136.516 67.7087 136.628C67.9329 136.796 68.101 136.909 68.101 137.077C68.101 137.246 67.9889 137.358 67.7648 137.526C67.6527 137.583 67.5407 137.639 67.3726 137.695C67.2605 137.751 67.0924 137.751 66.9803 137.751C66.8683 137.751 66.7562 137.751 66.6441 137.695C66.5321 137.695 66.42 137.639 66.364 137.583C66.364 137.583 66.3079 137.583 66.3079 137.526C66.3079 137.526 66.3079 137.526 66.3079 137.47L66.6441 137.302C66.7002 137.302 66.7002 137.246 66.7562 137.302C66.8122 137.302 66.8122 137.302 66.8683 137.302C66.9243 137.302 66.9803 137.302 67.0364 137.302C67.0924 137.302 67.1484 137.246 67.2045 137.246C67.2605 137.19 67.3165 137.133 67.3726 137.077C67.3726 137.021 67.3726 136.965 67.2605 136.909C67.2045 136.853 67.0924 136.853 67.0364 136.853C66.9243 136.853 66.8683 136.909 66.8122 136.909L66.5881 137.021H66.5321C66.476 137.021 66.476 137.021 66.476 137.021L66.1959 136.853L66.1398 136.796V136.74L66.0278 136.403L65.3554 136.796H65.2993C65.2433 136.796 65.2433 136.796 65.2433 136.796L64.9071 136.572L64.8511 136.516V136.46L65.9717 135.786Z" fill="#455A64"/>
<path d="M65.3555 144.995C65.4675 144.939 65.6356 144.883 65.7477 144.827C65.8598 144.827 66.0279 144.771 66.1399 144.827C66.308 144.827 66.4201 144.883 66.5322 144.939C66.6442 144.995 66.8123 145.051 66.9244 145.108C67.0365 145.164 67.1485 145.22 67.2046 145.276C67.3166 145.332 67.4287 145.388 67.4847 145.444C67.5968 145.501 67.7089 145.613 67.7649 145.669C67.8209 145.725 67.877 145.838 67.933 145.894C67.933 145.95 67.933 146.062 67.933 146.118C67.877 146.175 67.8209 146.287 67.7089 146.343C67.5968 146.399 67.4287 146.455 67.3166 146.511C67.2046 146.511 67.0365 146.568 66.9244 146.511C66.7563 146.511 66.6442 146.455 66.5322 146.399C66.4201 146.343 66.252 146.287 66.1399 146.231C66.0279 146.175 65.9718 146.118 65.8598 146.062C65.7477 146.006 65.6356 145.95 65.5796 145.894C65.4675 145.838 65.3555 145.725 65.2994 145.669C65.2434 145.613 65.1874 145.501 65.1313 145.444C65.1313 145.388 65.1313 145.276 65.1313 145.22C65.1313 145.164 65.2434 145.051 65.3555 144.995ZM67.0925 145.725C66.9244 145.613 66.7003 145.501 66.5322 145.388C66.4761 145.332 66.4201 145.332 66.3641 145.332C66.308 145.332 66.252 145.276 66.196 145.276C66.1399 145.276 66.0839 145.276 66.0279 145.276C65.9718 145.276 65.9158 145.276 65.8598 145.332C65.8037 145.388 65.8037 145.388 65.7477 145.444C65.7477 145.501 65.7477 145.501 65.7477 145.557C65.7477 145.613 65.8037 145.613 65.8037 145.669C65.8598 145.725 65.8598 145.725 65.9158 145.781C66.0839 145.894 66.252 146.006 66.4761 146.118C66.5322 146.175 66.5882 146.175 66.6442 146.175C66.7003 146.175 66.7563 146.231 66.8123 146.231C66.8684 146.231 66.9244 146.231 66.9804 146.231C67.0365 146.231 67.0925 146.231 67.1485 146.175C67.2046 146.118 67.2046 146.118 67.2606 146.062C67.2606 146.006 67.2606 146.006 67.2606 145.95C67.2606 145.894 67.2046 145.894 67.2046 145.838C67.2046 145.781 67.1485 145.725 67.0925 145.725Z" fill="#455A64"/>
<path d="M27.6454 132.978C27.5893 132.978 27.5893 132.978 27.5333 132.978L26.7488 132.809L27.8695 133.427L27.9255 133.483V133.539L27.5893 133.708H27.5333C27.4773 133.708 27.4773 133.708 27.4773 133.708L25.348 132.472L25.292 132.416V132.36L25.5722 132.192C25.6282 132.192 25.6282 132.192 25.6842 132.192C25.7403 132.192 25.7403 132.192 25.7963 132.192L27.1411 132.472L26.6368 131.686C26.6368 131.686 26.6368 131.686 26.6368 131.63C26.6368 131.63 26.6368 131.574 26.6928 131.574L26.973 131.405H27.029C27.085 131.405 27.085 131.405 27.085 131.405L29.2143 132.641L29.2703 132.697V132.753L28.9341 132.922H28.8781C28.8221 132.922 28.8221 132.922 28.8221 132.922L27.7014 132.304L28.0376 132.753V132.809C28.0376 132.809 28.0376 132.865 27.9816 132.865L27.8135 132.978C27.7014 132.978 27.7014 132.978 27.6454 132.978Z" fill="#FAFAFA"/>
<path d="M28.5417 131.462C28.5417 131.462 28.5977 131.518 28.6537 131.518C28.7098 131.574 28.7658 131.574 28.8218 131.63C28.8779 131.686 28.9339 131.686 28.9899 131.742C29.046 131.798 29.102 131.798 29.102 131.798C29.158 131.798 29.2141 131.855 29.2701 131.855C29.3261 131.855 29.3822 131.911 29.4382 131.911C29.4942 131.911 29.5503 131.911 29.6063 131.911C29.6623 131.911 29.7184 131.855 29.7744 131.855C29.8304 131.798 29.8865 131.798 29.8865 131.742C29.8865 131.686 29.8865 131.686 29.8865 131.63C29.8865 131.63 29.8865 131.574 29.8304 131.574L29.7744 131.518L29.7184 131.462C29.7184 131.462 29.7184 131.405 29.7744 131.405L30.1106 131.237H30.1666H30.2227C30.3347 131.293 30.4468 131.349 30.5028 131.462C30.5588 131.518 30.6149 131.63 30.6149 131.686C30.6149 131.742 30.6149 131.855 30.5588 131.911C30.5028 131.967 30.4468 132.079 30.3347 132.135C30.2227 132.192 30.1106 132.248 29.9425 132.304C29.7744 132.304 29.6623 132.36 29.4942 132.304C29.3261 132.304 29.2141 132.248 29.046 132.248C28.8779 132.192 28.7658 132.135 28.6537 132.079C28.5417 132.023 28.4856 131.967 28.3736 131.911C28.2615 131.855 28.1494 131.798 28.0934 131.742C27.9813 131.686 27.8693 131.574 27.8132 131.518C27.7572 131.405 27.7012 131.349 27.7012 131.237C27.7012 131.125 27.7012 131.068 27.7572 131.012C27.8132 130.956 27.8693 130.844 27.9813 130.788C28.0934 130.732 28.2055 130.675 28.3736 130.675C28.4856 130.619 28.6537 130.619 28.8218 130.619C28.9899 130.619 29.102 130.619 29.2701 130.675C29.3822 130.732 29.5503 130.732 29.6623 130.844C29.6623 130.844 29.7184 130.844 29.7184 130.9C29.7184 130.9 29.7184 130.9 29.7184 130.956L29.3822 131.125C29.3261 131.125 29.3261 131.125 29.3261 131.125C29.3261 131.125 29.2701 131.125 29.2141 131.125C29.158 131.125 29.158 131.125 29.102 131.068C29.046 131.068 28.9899 131.068 28.9899 131.068C28.9339 131.068 28.8779 131.068 28.8218 131.068C28.7658 131.068 28.7098 131.125 28.6537 131.125C28.5977 131.181 28.5417 131.181 28.5417 131.237C28.5417 131.293 28.5417 131.293 28.5417 131.349C28.5417 131.405 28.5977 131.405 28.5977 131.462C28.4856 131.405 28.5417 131.462 28.5417 131.462Z" fill="#FAFAFA"/>
<path d="M35.3216 128.541C35.2656 128.541 35.2656 128.541 35.2096 128.541L34.4251 128.373L35.5458 128.991L35.6018 129.047V129.103L35.2656 129.271H35.2096C35.1535 129.271 35.1535 129.271 35.1535 129.271L33.0243 128.036L32.9683 127.98V127.924L33.2484 127.755C33.3045 127.755 33.3045 127.755 33.3605 127.755C33.4165 127.755 33.4165 127.755 33.4726 127.755L34.8173 128.036L34.313 127.25C34.313 127.25 34.313 127.25 34.313 127.194C34.313 127.194 34.3131 127.138 34.3691 127.138L34.6492 126.969H34.7053C34.7613 126.969 34.7613 126.969 34.7613 126.969L36.8906 128.204L36.9466 128.261V128.317L36.6104 128.485H36.5544C36.4983 128.485 36.4983 128.485 36.4983 128.485L35.3777 127.868L35.7139 128.317V128.373C35.7139 128.373 35.7139 128.429 35.6578 128.429L35.4897 128.541C35.3777 128.541 35.3777 128.541 35.3216 128.541Z" fill="#FAFAFA"/>
<path d="M35.7136 126.351C35.8257 126.295 35.9378 126.239 36.0498 126.183C36.1619 126.127 36.274 126.127 36.386 126.127C36.4981 126.127 36.6102 126.127 36.7783 126.183C36.8903 126.239 37.0584 126.295 37.1705 126.351C37.3386 126.464 37.4507 126.52 37.5067 126.632C37.5627 126.744 37.5627 126.801 37.5627 126.913L38.6834 127.194H38.7394C38.7394 127.194 38.7955 127.194 38.7955 127.25C38.7955 127.25 38.7955 127.25 38.7955 127.306L38.4593 127.474C38.4032 127.474 38.4032 127.474 38.3472 127.474C38.2912 127.474 38.2912 127.474 38.2351 127.474L37.2265 127.25L37.0024 127.362L37.7308 127.755L37.7869 127.811V127.868L37.4507 128.036H37.3946C37.3386 128.036 37.3386 128.036 37.3386 128.036L35.2094 126.801L35.1533 126.744V126.688L35.7136 126.351ZM36.386 127.081L36.6662 126.913C36.7222 126.857 36.7783 126.857 36.7783 126.801C36.7783 126.744 36.7222 126.688 36.6662 126.632C36.5541 126.576 36.4981 126.576 36.386 126.576C36.33 126.576 36.2179 126.632 36.1619 126.632L35.8817 126.801L36.386 127.081Z" fill="#FAFAFA"/>
<path d="M43.2787 123.937C43.2226 123.937 43.2226 123.937 43.1666 123.937L42.3821 123.768L43.5028 124.386L43.5588 124.442V124.498L43.2226 124.667H43.1666C43.1106 124.667 43.1106 124.667 43.1106 124.667L40.9813 123.431L40.9253 123.375V123.319L41.2055 123.15C41.2615 123.15 41.2615 123.15 41.3175 123.15C41.3736 123.15 41.3736 123.15 41.4296 123.15L42.7744 123.431L42.2701 122.645C42.2701 122.645 42.2701 122.645 42.2701 122.589C42.2701 122.589 42.2701 122.533 42.3261 122.533L42.6063 122.364H42.6623C42.7183 122.364 42.7183 122.364 42.7183 122.364L44.8476 123.6L44.9036 123.656V123.712L44.5674 123.88H44.5114C44.4554 123.88 44.4554 123.88 44.4554 123.88L43.3347 123.263L43.6709 123.712V123.768C43.6709 123.768 43.6709 123.824 43.6149 123.824L43.4468 123.937C43.3347 123.937 43.3347 123.937 43.2787 123.937Z" fill="#FAFAFA"/>
<path d="M44.5116 123.038H44.4556C44.3996 123.038 44.3996 123.038 44.3996 123.038L44.0634 122.87L44.0073 122.814V122.757L44.7918 122.308H44.8478C44.9039 122.308 44.9038 122.308 44.9038 122.308L45.24 122.477L45.2961 122.533V122.589L44.5116 123.038Z" fill="#FAFAFA"/>
<path d="M50.7308 119.613C50.6748 119.613 50.6748 119.613 50.6188 119.613L49.8343 119.444L50.955 120.062L51.011 120.118V120.174L50.6748 120.343H50.6188C50.5627 120.343 50.5627 120.343 50.5627 120.343L48.4335 119.107L48.3774 119.051V118.995L48.6576 118.826C48.7136 118.826 48.7136 118.826 48.7697 118.826C48.8257 118.826 48.8257 118.826 48.8817 118.826L50.2265 119.107L49.7222 118.321C49.7222 118.321 49.7222 118.321 49.7222 118.265C49.7222 118.265 49.7222 118.209 49.7783 118.209L50.0584 118.04H50.1145C50.1705 118.04 50.1705 118.04 50.1705 118.04L52.2997 119.276L52.3558 119.332V119.388L52.0196 119.556H51.9635C51.9075 119.556 51.9075 119.556 51.9075 119.556L50.7869 118.939L51.1231 119.388V119.444C51.1231 119.444 51.1231 119.5 51.067 119.5L50.8989 119.613C50.7869 119.613 50.7869 119.613 50.7308 119.613Z" fill="#FAFAFA"/>
<path d="M52.7482 118.265L53.3086 118.602L53.3646 118.658V118.714L53.0284 118.883H52.9724C52.9163 118.883 52.9163 118.883 52.9163 118.883L52.356 118.546L51.9638 118.77H51.9077C51.8517 118.77 51.8517 118.77 51.8517 118.77L51.5155 118.602L51.4595 118.546V118.489L51.8517 118.265L51.2914 117.928L51.2354 117.872V117.816L51.5715 117.647H51.6276C51.6836 117.647 51.6836 117.647 51.6836 117.647L52.2439 117.984L52.6362 117.759H52.6922C52.7482 117.759 52.7482 117.759 52.7482 117.759L53.0844 117.928L53.1405 117.984V118.04L52.7482 118.265Z" fill="#FAFAFA"/>
<path d="M58.2952 123.768H58.2392C58.1831 123.768 58.1831 123.768 58.1831 123.768L57.7909 123.544L57.7349 123.487V123.431L59.1917 122.589H59.2477C59.3038 122.589 59.3038 122.589 59.3038 122.589L59.64 122.757L59.696 122.814V122.87L58.2952 123.768Z" fill="#FAFAFA"/>
<path d="M58.071 122.477C58.2391 122.589 58.2951 122.757 58.127 122.814C58.015 122.87 57.7348 122.87 57.5667 122.757C57.3986 122.645 57.3426 122.477 57.5107 122.42C57.6227 122.364 57.9029 122.364 58.071 122.477Z" fill="#FAFAFA"/>
<path d="M59.9763 123.6C59.8082 123.487 59.5281 123.487 59.416 123.544C59.3039 123.6 59.3039 123.768 59.472 123.88C59.6401 123.993 59.9203 123.993 60.0324 123.937C60.2005 123.824 60.1444 123.712 59.9763 123.6Z" fill="#FAFAFA"/>
<path d="M66.1402 127.811L65.4117 127.755C65.3557 127.755 65.3557 127.755 65.3557 127.755L65.2997 127.699L65.2437 127.418V127.362H65.2997L66.0281 127.418L65.916 126.969V126.913H65.9721L66.4764 126.969C66.5324 126.969 66.5324 126.969 66.5324 126.969L66.5884 127.025L66.7005 127.474L67.4289 127.531C67.485 127.531 67.485 127.531 67.485 127.531L67.541 127.587L67.597 127.868V127.924H67.541L66.8126 127.868L66.9246 128.317V128.373H66.8686L66.3643 128.317C66.3083 128.317 66.3083 128.317 66.3083 128.317L66.2522 128.261L66.1402 127.811Z" fill="#FAFAFA"/>
<path d="M73.5922 132.641H73.5362C73.4801 132.641 73.4801 132.641 73.4801 132.641L73.1439 132.472L73.0879 132.416V132.36L74.5447 131.518H74.6008C74.6568 131.518 74.6568 131.518 74.6568 131.518L74.993 131.686L75.049 131.742V131.798L73.5922 132.641Z" fill="#FAFAFA"/>
<path d="M57.0064 149.488C57.0624 149.488 57.0624 149.488 57.1184 149.488C57.1745 149.488 57.1745 149.488 57.2305 149.488L59.864 150.386C59.9201 150.386 59.9201 150.386 59.9201 150.386C59.9201 150.386 59.9761 150.386 59.9761 150.442C59.9761 150.442 59.9761 150.442 59.9761 150.498L59.6399 150.667C59.5839 150.667 59.5839 150.667 59.5278 150.667C59.4718 150.667 59.4718 150.667 59.4718 150.667L59.1356 150.555L58.4632 150.948L58.6874 151.172C58.6874 151.172 58.6874 151.172 58.7434 151.228C58.7434 151.228 58.7434 151.285 58.6874 151.285L58.3512 151.453H58.2951H58.2391C58.2391 151.453 58.2391 151.453 58.1831 151.397L56.6141 149.881L56.5581 149.825C56.5581 149.825 56.5581 149.768 56.6141 149.768L57.0064 149.488ZM58.071 150.555L58.4632 150.33L57.4546 149.993L58.071 150.555Z" fill="#FAFAFA"/>
<path d="M59.1354 149.263C59.1354 149.263 59.1914 149.319 59.2475 149.319C59.3035 149.375 59.3595 149.375 59.4156 149.432C59.4716 149.488 59.5276 149.488 59.5837 149.544C59.6397 149.6 59.6957 149.6 59.6957 149.6C59.7518 149.6 59.8078 149.656 59.8638 149.656C59.9199 149.656 59.9759 149.712 60.0319 149.712C60.088 149.712 60.144 149.712 60.2 149.712C60.2561 149.712 60.3121 149.656 60.3681 149.656C60.4242 149.6 60.4802 149.6 60.4802 149.544C60.4802 149.488 60.4802 149.488 60.4802 149.432C60.4802 149.375 60.4802 149.375 60.4242 149.375L60.3681 149.319L60.3121 149.263C60.3121 149.263 60.3121 149.207 60.3681 149.207L60.7043 149.038H60.7604H60.8164C60.9285 149.095 61.0405 149.151 61.0966 149.263C61.1526 149.319 61.2086 149.432 61.2086 149.488C61.2086 149.544 61.2086 149.656 61.1526 149.712C61.0966 149.768 61.0405 149.881 60.9285 149.937C60.8164 149.993 60.7043 150.049 60.5362 150.105C60.3681 150.105 60.2561 150.162 60.088 150.105C59.9199 150.105 59.8078 150.049 59.6397 150.049C59.4716 149.993 59.3595 149.937 59.2475 149.881C59.1354 149.825 59.0794 149.768 58.9673 149.712C58.8552 149.656 58.7432 149.6 58.6872 149.544C58.5751 149.488 58.463 149.375 58.407 149.319C58.351 149.207 58.2949 149.151 58.2949 149.038C58.2949 148.926 58.2949 148.87 58.351 148.814C58.407 148.758 58.463 148.645 58.5751 148.589C58.6872 148.533 58.7992 148.477 58.9673 148.477C59.0794 148.421 59.2475 148.421 59.4156 148.421C59.5837 148.421 59.6957 148.421 59.8638 148.477C59.9759 148.533 60.144 148.533 60.2561 148.645C60.2561 148.645 60.3121 148.645 60.3121 148.701C60.3121 148.701 60.3121 148.701 60.3121 148.758L59.9759 148.926C59.9199 148.926 59.9199 148.926 59.9199 148.926C59.9199 148.926 59.8638 148.926 59.8078 148.926C59.7518 148.926 59.7518 148.926 59.6957 148.87C59.6397 148.87 59.5837 148.87 59.5837 148.87C59.5276 148.87 59.4716 148.87 59.4156 148.87C59.3595 148.87 59.3035 148.926 59.2475 148.926C59.1914 148.982 59.1354 148.982 59.1354 149.038C59.1354 149.095 59.1354 149.095 59.1354 149.151C59.1354 149.207 59.1914 149.207 59.1914 149.263C59.0233 149.207 59.0794 149.207 59.1354 149.263Z" fill="#FAFAFA"/>
<path d="M73.2562 141.233H73.2002C73.1442 141.233 73.1442 141.233 73.1442 141.233L72.808 141.064L72.752 141.008V140.952L74.1528 140.11H74.2088C74.2648 140.11 74.2648 140.11 74.2648 140.11L74.601 140.278L74.6571 140.334V140.39L73.2562 141.233ZM74.0407 141.738H73.9847C73.9286 141.738 73.9286 141.738 73.9286 141.738L73.5924 141.57L73.5364 141.514V141.457L74.9372 140.615H74.9933C75.0493 140.615 75.0493 140.615 75.0493 140.615L75.3855 140.783L75.4415 140.84V140.896L74.0407 141.738Z" fill="#FAFAFA"/>
<path d="M82.2214 136.516L82.7817 136.853L82.8377 136.909V136.965L82.5016 137.133H82.4455C82.3895 137.133 82.3895 137.133 82.3895 137.133L81.8292 136.796L81.4369 137.021H81.3809C81.3249 137.021 81.3249 137.021 81.3249 137.021L80.9887 136.853L80.9326 136.796V136.74L81.3249 136.516L80.7645 136.179L80.7085 136.123V136.066L81.0447 135.898H81.1007C81.1568 135.898 81.1568 135.898 81.1568 135.898L81.7171 136.235L82.1093 136.01H82.1654C82.2214 136.01 82.2214 136.01 82.2214 136.01L82.5576 136.179L82.6136 136.235V136.291L82.2214 136.516Z" fill="#FAFAFA"/>
<path d="M58.8002 156.058C58.0717 156.058 57.3993 155.89 56.839 155.609L4.78446 125.453C4.28016 125.172 4 124.779 4 124.386C4 124.835 4 128.148 4 128.541C4 128.935 4.28016 129.328 4.78446 129.665L56.839 159.82C57.3433 160.101 58.0717 160.27 58.7441 160.27L58.8002 156.058Z" fill="#263238"/>
<path d="M90.6825 137.583C90.6825 137.976 90.4584 138.369 89.898 138.706L60.7049 155.553C60.2006 155.833 59.4722 156.002 58.7998 156.002V160.157C59.4722 160.157 60.2006 159.989 60.7049 159.708L89.898 142.805C90.4023 142.524 90.6825 142.131 90.6825 141.738C90.6825 141.345 90.6825 137.976 90.6825 137.583Z" fill="#455A64"/>
<path d="M35.8828 108.269C35.7147 108.269 35.5466 108.325 35.3785 108.381L8.76286 123.824C8.48269 123.993 8.48269 124.217 8.76286 124.386L19.5772 130.619C19.8574 130.788 20.2496 130.788 20.5298 130.619L35.8828 121.747V108.269Z" fill="#455A64"/>
<path d="M47.1453 114.671L36.331 108.438C36.2189 108.381 36.0508 108.325 35.8267 108.325V121.803L46.697 115.513L47.0893 115.289C47.4255 115.064 47.4255 114.839 47.1453 114.671Z" fill="#263238"/>
<path d="M46.753 115.457L36.3869 109.448C36.1067 109.28 35.7145 109.28 35.4343 109.448L9.21094 124.611L19.577 130.619C19.8572 130.788 20.2494 130.788 20.5296 130.619L46.753 115.457Z" fill="#E75656"/>
<path opacity="0.15" d="M46.753 115.457L36.3869 109.448C36.1067 109.28 35.7145 109.28 35.4343 109.448L9.21094 124.611L19.577 130.619C19.8572 130.788 20.2494 130.788 20.5296 130.619L46.753 115.457Z" fill="black"/>
<g opacity="0.5">
<path d="M21.9302 126.295L20.9777 126.857C20.6975 127.025 20.3613 127.081 19.9691 127.025C19.5208 126.969 19.1846 126.857 18.7924 126.688C18.6803 126.632 18.6803 126.576 18.6243 126.52C18.6243 126.464 18.6243 126.408 18.6803 126.351C18.7363 126.295 18.8484 126.295 18.9605 126.295C19.0725 126.295 19.1846 126.351 19.2406 126.408C19.4087 126.52 19.6329 126.576 19.801 126.576C20.0251 126.576 20.1932 126.576 20.3053 126.464L21.2578 125.902C21.3699 125.846 21.4259 125.734 21.4259 125.621C21.3699 125.509 21.3139 125.397 21.1458 125.284L20.3613 124.835C20.3053 125.004 20.2492 125.116 20.0811 125.228L19.1286 125.79C18.8484 125.958 18.5122 126.014 18.12 125.958C17.6717 125.902 17.3355 125.79 16.9433 125.621L16.3269 125.284C15.9907 125.06 15.7666 124.835 15.7106 124.611C15.6545 124.386 15.7666 124.161 15.9907 123.993L16.9433 123.431C17.2235 123.263 17.5597 123.207 17.9519 123.263C18.4001 123.319 18.7363 123.431 19.1286 123.6L21.6501 125.06C21.9862 125.284 22.2104 125.509 22.2664 125.734C22.3224 125.902 22.2104 126.127 21.9302 126.295ZM18.6803 123.824C18.5122 123.712 18.2881 123.656 18.12 123.656C17.8959 123.656 17.7278 123.656 17.6157 123.768L16.6631 124.33C16.5511 124.386 16.495 124.498 16.495 124.611C16.5511 124.723 16.6071 124.835 16.7752 124.948L17.3916 125.284C17.5597 125.397 17.7838 125.453 17.9519 125.453C18.176 125.453 18.3441 125.453 18.4562 125.341L19.4087 124.779C19.5208 124.723 19.5768 124.611 19.5768 124.498C19.5208 124.386 19.4648 124.274 19.2967 124.161L18.6803 123.824Z" fill="black"/>
<path d="M20.9778 123.038C21.0338 123.038 21.0898 123.094 21.1459 123.094C21.2019 123.094 21.2579 123.094 21.2579 123.094L22.5467 122.364C22.8268 122.196 23.163 122.14 23.5553 122.196C24.0035 122.252 24.3397 122.364 24.732 122.533L25.3483 122.87C25.6845 123.094 25.9086 123.319 25.9647 123.544C26.0207 123.768 25.9086 123.993 25.6845 124.161L24.732 124.723C24.4518 124.891 24.1156 124.947 23.7234 124.891C23.2751 124.835 22.9389 124.723 22.5467 124.554C22.4346 124.498 22.4346 124.442 22.3786 124.386C22.3786 124.33 22.3786 124.274 22.4346 124.217C22.4906 124.161 22.6027 124.161 22.7148 124.161C22.8268 124.161 22.9389 124.217 22.9949 124.274C23.163 124.386 23.3872 124.442 23.5553 124.442C23.7794 124.442 23.9475 124.442 24.0596 124.33L25.0121 123.768C25.1242 123.712 25.1802 123.6 25.1802 123.487C25.1242 123.375 25.0682 123.263 24.9001 123.15L24.2837 122.814C24.1156 122.701 23.8915 122.645 23.7234 122.645C23.4992 122.645 23.3311 122.645 23.2191 122.757L21.8182 123.544C21.7062 123.6 21.5381 123.656 21.3139 123.656C21.0898 123.656 20.9217 123.6 20.7536 123.487L19.1847 122.589C19.0726 122.533 19.0726 122.477 19.0166 122.42C19.0166 122.364 19.0166 122.308 19.0726 122.252L21.426 120.904C21.482 120.848 21.5941 120.848 21.7062 120.848C21.8182 120.848 21.9303 120.904 21.9863 120.96C22.0984 121.017 22.0984 121.073 22.1544 121.129C22.1544 121.185 22.1544 121.241 22.0984 121.297L20.1373 122.42C20.0812 122.42 20.0812 122.477 20.0812 122.477C20.0812 122.533 20.1373 122.533 20.1373 122.589L20.9778 123.038Z" fill="black"/>
<path d="M29.4384 121.915L28.4858 122.477C28.2057 122.645 27.8695 122.701 27.4772 122.645C27.029 122.589 26.6928 122.477 26.3006 122.308L23.7791 120.848C23.4429 120.623 23.2187 120.399 23.1627 120.174C23.1067 119.95 23.2187 119.725 23.4429 119.557L24.3954 118.995C24.6756 118.826 25.0118 118.77 25.404 118.826C25.8523 118.883 26.1885 118.995 26.5807 119.163L29.1022 120.623C29.4384 120.848 29.6625 121.073 29.7186 121.297C29.7746 121.578 29.6625 121.803 29.4384 121.915ZM27.8695 122.14L28.822 121.578C28.8781 121.522 28.9341 121.466 28.9901 121.41L24.3954 120.623L26.8609 122.027C27.029 122.14 27.2531 122.196 27.4212 122.196C27.5893 122.196 27.7574 122.196 27.8695 122.14ZM25.0678 119.388L24.1153 119.95C24.0592 120.006 24.0032 120.062 23.9472 120.118L28.5419 120.904L26.0764 119.5C25.9083 119.388 25.6842 119.332 25.5161 119.332C25.348 119.332 25.1799 119.332 25.0678 119.388Z" fill="black"/>
<path d="M32.9128 119.893L31.512 120.68C31.4559 120.736 31.3439 120.736 31.2318 120.736C31.1197 120.736 31.0077 120.68 30.9516 120.623C30.8396 120.567 30.8396 120.511 30.7835 120.455C30.7835 120.399 30.7835 120.343 30.8396 120.287L31.2878 120.006L28.15 118.209C27.9819 118.096 27.8138 118.04 27.5897 118.04C27.3655 118.04 27.1974 118.04 27.0854 118.096C27.0293 118.153 26.9173 118.153 26.8052 118.153C26.6931 118.153 26.5811 118.096 26.525 118.04C26.413 117.984 26.413 117.928 26.3569 117.872C26.3569 117.816 26.3569 117.759 26.413 117.703C26.6931 117.535 27.0293 117.479 27.4216 117.535C27.8698 117.591 28.206 117.703 28.5982 117.872L31.7361 119.669L32.1844 119.388C32.2404 119.332 32.3524 119.332 32.4645 119.332C32.5766 119.332 32.6886 119.388 32.7447 119.444C32.8567 119.5 32.8567 119.556 32.9128 119.613C33.0248 119.837 32.9688 119.893 32.9128 119.893Z" fill="black"/>
<path d="M35.9945 118.153L35.042 118.714C34.7618 118.883 34.4256 118.939 34.0334 118.883C33.5851 118.826 33.2489 118.714 32.8567 118.546L30.3352 117.086C29.999 116.861 29.7749 116.636 29.7189 116.412C29.6628 116.187 29.7749 115.963 29.999 115.794L30.9516 115.232C31.2318 115.064 31.568 115.008 31.9602 115.064C32.4084 115.12 32.7446 115.232 33.1369 115.401L35.6584 116.861C35.9945 117.086 36.2187 117.31 36.2747 117.535C36.3307 117.816 36.2187 117.984 35.9945 118.153ZM34.4256 118.321L35.3782 117.76C35.4342 117.703 35.4903 117.647 35.5463 117.591L30.8956 116.805L33.361 118.209C33.5291 118.321 33.7532 118.377 33.9213 118.377C34.0894 118.433 34.2575 118.377 34.4256 118.321ZM31.624 115.626L30.6714 116.187C30.6154 116.243 30.5594 116.299 30.5033 116.356L35.098 117.142L32.6326 115.738C32.4645 115.626 32.2403 115.569 32.0722 115.569C31.9041 115.513 31.7361 115.569 31.624 115.626Z" fill="black"/>
<path d="M40.4772 115.401C40.4772 115.457 40.4772 115.513 40.4211 115.569C40.3651 115.626 40.253 115.626 40.141 115.626C40.0289 115.626 39.9168 115.569 39.8608 115.513L38.1238 114.502C38.0677 114.671 38.0117 114.783 37.8436 114.896L36.8911 115.457C36.6109 115.626 36.2747 115.682 35.8825 115.626C35.4342 115.569 35.098 115.457 34.7058 115.289L33.1368 114.39C33.0248 114.334 33.0248 114.278 32.9688 114.222C32.9688 114.166 32.9687 114.109 33.0248 114.053C33.0808 113.997 33.1929 113.997 33.3049 113.997C33.417 113.997 33.5291 114.053 33.5851 114.109L35.154 115.008C35.3221 115.12 35.5463 115.176 35.7144 115.176C35.9385 115.176 36.1066 115.176 36.2187 115.064L37.1712 114.502C37.2833 114.446 37.3393 114.334 37.3393 114.222C37.2833 114.109 37.2272 113.997 37.0591 113.885L35.4902 112.986C35.3782 112.93 35.3782 112.874 35.3221 112.818C35.3221 112.762 35.3221 112.705 35.3782 112.649C35.4342 112.593 35.5463 112.593 35.6583 112.593C35.7704 112.593 35.8825 112.649 35.9385 112.705L40.3091 115.232C40.4211 115.289 40.4772 115.345 40.4772 115.401Z" fill="black"/>
</g>
<path d="M108.838 149.375L109.734 140.84L99.8723 141.457C99.8723 141.457 100.04 146.062 100.152 148.702C100.208 150.274 98.1353 153.138 98.1353 153.138C98.1353 153.138 102.786 155.609 105.251 154.71C107.717 153.868 109.062 150.779 109.006 150.105C109.006 149.488 108.838 149.375 108.838 149.375Z" fill="#FFBDA7"/>
<path d="M85.1357 162.684C84.9676 162.684 84.7434 164.257 85.5279 164.931C86.4804 165.717 89.3381 167.065 93.0923 166.671C96.9026 166.278 98.9197 165.211 100.489 164.088C102.002 162.965 104.187 161.337 105.868 161C107.437 160.719 109.174 160.045 109.734 159.596C110.238 159.147 110.238 157.125 110.238 157.125L85.1357 162.684Z" fill="#263238"/>
<path d="M108.838 149.375C108.838 149.375 109.286 149.375 109.398 149.881C109.51 150.442 109.622 152.071 109.846 152.969C110.183 154.261 110.351 156.844 110.126 157.911C109.902 158.922 107.325 159.596 105.644 160.157C103.963 160.719 101.946 161.898 100.209 163.19C98.4156 164.538 94.6614 165.885 92.196 165.829C89.2823 165.773 86.0324 164.818 85.3039 163.583C84.4074 162.011 83.735 160.214 88.1056 158.417C88.9461 158.08 91.8037 156.563 92.8123 156.002C95.5019 154.486 97.351 153.138 98.6397 150.386C98.8078 150.049 98.9199 149.712 99.2561 149.544C99.5363 149.432 99.8164 149.432 100.097 149.488C100.825 149.6 103.683 149.993 104.355 150.33C104.915 150.611 105.756 150.892 105.7 151.622C105.7 151.846 105.588 152.071 105.532 152.296C105.476 152.408 105.42 152.632 105.588 152.689C105.7 152.745 105.868 152.689 105.98 152.576C106.428 152.183 106.765 151.734 107.157 151.285C107.381 151.06 107.605 150.835 107.829 150.667C108.053 150.499 108.389 150.442 108.558 150.218C108.894 149.993 108.838 149.712 108.838 149.375Z" fill="#455A64"/>
<path d="M100.209 163.19C100.993 162.628 101.778 162.067 102.618 161.617C102.618 161.617 97.5191 164.369 95.4459 163.077C94.1571 162.235 94.7735 161.224 94.8295 160.887C94.8855 160.55 90.2348 158.192 88.9461 158.023C88.6099 158.192 88.2737 158.36 88.1056 158.417C83.735 160.214 84.4074 162.011 85.3039 163.583C86.0324 164.874 88.3857 165.885 92.1399 165.941C94.6054 165.941 98.4156 164.481 100.209 163.19Z" fill="#37474F"/>
<path d="M95.2217 159.877C92.5321 160.831 93.6528 161.337 94.3812 161.449C95.1096 161.561 99.7043 159.203 102.506 157.237C105.42 155.16 107.269 152.913 108.333 152.127C108.726 151.846 109.174 151.509 109.566 151.172C109.51 150.611 109.454 150.105 109.398 149.881C109.286 149.432 108.838 149.375 108.838 149.375C108.838 149.712 108.894 149.993 108.614 150.218C108.389 150.386 108.109 150.499 107.885 150.667C107.605 150.835 107.381 151.06 107.213 151.285C106.82 151.734 106.484 152.183 106.036 152.576C103.571 155.272 97.9113 158.922 95.2217 159.877Z" fill="#37474F"/>
<path d="M94.6052 161.056C94.6612 161.056 94.7173 161.056 94.7733 161C94.8854 160.944 94.8854 160.775 94.8293 160.663C94.1009 159.764 90.5148 157.687 88.5536 157.855C88.3855 157.855 88.2735 157.967 88.3295 158.136C88.3295 158.248 88.4416 158.36 88.6097 158.36C90.4588 158.192 93.8207 160.27 94.4371 161C94.4371 161.056 94.4931 161.056 94.6052 161.056Z" fill="#263238"/>
<path d="M96.9587 159.764C97.0147 159.764 97.0708 159.764 97.1268 159.708C97.2389 159.652 97.2389 159.483 97.1828 159.371C96.4544 158.473 92.8683 156.395 90.9072 156.563C90.7391 156.563 90.627 156.676 90.683 156.844C90.683 156.956 90.7951 157.069 90.9632 157.069C92.8123 156.9 96.1743 158.978 96.7906 159.708C96.7906 159.764 96.9027 159.764 96.9587 159.764Z" fill="#263238"/>
<path d="M99.3117 158.529C99.3678 158.529 99.4238 158.529 99.4798 158.473C99.5919 158.417 99.5919 158.248 99.5359 158.136C98.8074 157.237 95.2213 155.159 93.2602 155.328C93.0921 155.328 92.98 155.44 93.0361 155.609C93.0361 155.721 93.1481 155.833 93.3162 155.833C95.1653 155.665 98.5273 157.743 99.1436 158.473C99.1436 158.529 99.2557 158.529 99.3117 158.529Z" fill="#263238"/>
<path d="M101.497 157.125C101.553 157.125 101.609 157.125 101.665 157.069C101.777 157.013 101.777 156.844 101.721 156.732C100.993 155.833 97.4069 153.756 95.4457 153.924C95.2776 153.924 95.1656 154.036 95.2216 154.205C95.2216 154.317 95.3337 154.429 95.5018 154.429C97.3509 154.261 100.713 156.339 101.329 157.069C101.385 157.125 101.441 157.125 101.497 157.125Z" fill="#263238"/>
<path d="M103.682 155.721C103.738 155.721 103.794 155.721 103.85 155.665C103.963 155.609 103.963 155.44 103.907 155.328C102.898 154.093 99.1437 152.296 97.1826 152.464C97.0145 152.464 96.9024 152.576 96.9584 152.745C96.9584 152.857 97.0705 152.969 97.2386 152.969C99.0316 152.801 102.618 154.542 103.514 155.609C103.514 155.721 103.57 155.721 103.682 155.721Z" fill="#263238"/>
<path d="M128.281 154.036L126.04 145.95L136.07 144.434L136.518 152.239C136.518 152.239 137.583 155.047 136.966 156.058C136.35 157.069 129.682 158.248 129.066 157.574C128.449 156.9 128.281 154.036 128.281 154.036Z" fill="#FFBDA7"/>
<path d="M129.346 171.613C129.682 174.14 130.243 175.713 131.363 177.06C132.484 178.408 134.445 178.633 136.35 177.903C138.255 177.229 140.665 175.713 141.113 173.466C141.505 171.22 141.337 169.76 140.721 167.458L129.346 171.613Z" fill="#263238"/>
<path d="M136.518 152.239C137.302 152.183 137.19 155.609 137.863 158.978C138.591 162.572 139.936 163.864 140.552 166.784C141.281 170.097 141.169 171.669 139.936 173.916C138.703 176.162 134.053 178.857 131.475 176.218C129.402 174.084 129.122 171.445 129.122 167.963C129.066 164.425 129.066 161.898 128.729 159.259C128.393 156.732 127.609 154.486 128.337 154.092C128.393 154.486 128.505 154.935 128.561 155.272C128.617 155.553 128.785 156.9 129.234 156.844C129.234 156.507 129.234 156.226 129.178 155.889C129.122 155.609 129.122 155.272 129.346 155.047C129.57 154.823 130.298 154.486 130.635 154.373C131.419 154.149 132.82 153.812 133.604 153.643C133.996 153.531 134.389 153.475 134.781 153.419C135.117 153.362 135.509 153.362 135.79 153.419C135.958 153.475 136.182 153.531 136.238 153.699C136.294 153.812 136.294 153.924 136.294 154.092C136.294 154.317 136.35 154.542 136.462 154.766C136.518 154.879 136.574 154.991 136.686 154.935C136.798 154.879 136.798 154.823 136.798 154.71C136.798 154.317 136.686 153.98 136.63 153.531C136.63 153.306 136.518 153.026 136.518 152.801C136.574 152.689 136.574 152.464 136.518 152.239Z" fill="#455A64"/>
<path d="M140.273 165.829C140.385 166.335 141.057 169.479 140.105 170.209C139.04 170.996 138.311 168.525 138.311 168.525C138.311 168.525 135.734 168.188 132.092 170.097C132.316 170.602 131.868 172.399 130.803 172.175C129.738 171.95 129.122 168.244 129.122 168.244C129.178 171.501 129.458 174.084 131.475 176.162C134.053 178.801 138.704 176.106 139.936 173.86C141.169 171.613 141.281 170.041 140.553 166.728C140.441 166.447 140.385 166.11 140.273 165.829Z" fill="#37474F"/>
<path d="M138.031 168.805C138.143 170.041 139.488 169.423 139.432 167.682C139.376 165.941 138.031 161.954 137.863 158.978C137.583 154.879 137.359 152.183 136.518 152.239C136.518 152.296 136.518 152.296 136.518 152.352L136.742 154.036C136.798 154.261 136.798 154.486 136.854 154.766C137.022 157.293 137.134 162.179 137.527 164.425C137.919 166.728 137.919 167.57 138.031 168.805Z" fill="#37474F"/>
<path d="M132.484 170.041C132.148 168.862 131.867 168.075 131.419 165.829C130.971 163.583 129.57 159.09 128.898 156.732C128.674 156.339 128.562 155.553 128.506 155.384C128.449 155.047 128.337 154.598 128.281 154.261V154.205C127.777 154.486 128.001 156.451 128.281 157.406C128.562 158.417 128.898 159.484 129.234 160.944C130.13 163.808 130.243 168.075 130.803 169.704C131.363 171.276 132.82 171.22 132.484 170.041Z" fill="#37474F"/>
<path d="M131.98 170.209C132.036 170.209 132.036 170.209 132.092 170.153C132.092 170.153 134.949 168.412 138.255 168.749C138.423 168.749 138.592 168.637 138.592 168.525C138.648 168.356 138.536 168.244 138.367 168.244C134.837 167.907 131.924 169.648 131.812 169.76C131.643 169.872 131.643 169.985 131.7 170.153C131.756 170.209 131.868 170.266 131.98 170.209Z" fill="#263238"/>
<path d="M131.139 167.626C131.195 167.626 131.195 167.626 131.251 167.57C131.307 167.57 134.445 165.773 138.143 165.998C138.311 165.998 138.48 165.885 138.48 165.773C138.48 165.605 138.424 165.492 138.255 165.492C134.389 165.211 131.139 167.065 130.971 167.121C130.803 167.177 130.747 167.345 130.859 167.514C130.915 167.626 131.027 167.682 131.139 167.626Z" fill="#263238"/>
<path d="M137.751 163.527C137.863 163.527 137.975 163.414 137.975 163.302C138.031 163.134 137.919 163.021 137.751 163.021C134.109 162.46 130.635 164.538 130.467 164.594C130.299 164.706 130.299 164.818 130.355 164.987C130.467 165.099 130.635 165.099 130.747 165.043C130.803 165.043 134.109 163.021 137.527 163.527C137.695 163.527 137.751 163.527 137.751 163.527Z" fill="#263238"/>
<path d="M137.415 161.168C137.527 161.168 137.639 161.056 137.639 160.944C137.695 160.775 137.583 160.663 137.415 160.607C133.38 159.877 130.131 162.123 130.018 162.179C129.906 162.291 129.85 162.46 129.962 162.572C130.075 162.684 130.243 162.684 130.355 162.628C130.411 162.628 133.493 160.494 137.247 161.168C137.303 161.168 137.359 161.168 137.415 161.168Z" fill="#263238"/>
<path d="M137.023 158.529C137.135 158.529 137.247 158.417 137.247 158.304C137.303 158.136 137.191 158.023 137.079 157.967C133.268 157.237 129.794 159.54 129.626 159.652C129.514 159.764 129.458 159.933 129.514 160.045C129.626 160.157 129.794 160.157 129.906 160.101C129.962 160.101 133.324 157.855 136.854 158.529C136.911 158.529 136.967 158.529 137.023 158.529Z" fill="#263238"/>
<path d="M130.411 68.7352C132.708 87.8283 134.613 115.289 134.613 115.289C134.781 116.805 135.846 119.332 136.742 126.744C137.639 134.55 138.031 154.935 138.031 154.935C137.078 157.911 129.794 159.371 127.553 156.507C127.553 156.507 120.829 132.079 118.756 122.757C116.626 113.211 114.329 99.1156 114.329 99.1156L113.096 113.267C113.096 113.267 113.545 118.096 113.433 122.084C113.321 126.688 109.903 152.857 109.903 152.857C109.903 152.857 102.842 154.598 98.2477 151.172C98.2477 151.172 96.9589 119.613 96.7348 114.109C96.2865 103.271 97.071 82.7181 97.1831 68.7352H130.411Z" fill="#37474F"/>
<path d="M114.273 99.1718L111.752 85.0766C111.752 85.0766 106.429 84.4028 103.683 81.988C103.683 81.988 105.476 85.2451 110.519 86.4244L112.985 99.228L113.041 113.323L114.273 99.1718Z" fill="#263238"/>
<path d="M70.9593 48.1258C77.1789 48.7436 88.4415 49.9228 88.4415 49.9228C88.4415 49.9228 92.7561 42.2856 94.8293 38.0739C98.0232 31.7283 100.993 29.7066 105.027 29.3697L103.346 48.7436C103.346 48.7436 100.321 53.573 97.6309 57.7847C94.1569 63.1757 91.7475 63.3442 90.1786 63.0634C83.3986 61.7718 78.5797 60.1994 69.9507 56.8862L70.9593 48.1258Z" fill="#E6E6E6"/>
<path opacity="0.25" d="M88.4419 49.9229C91.0194 51.2145 92.7564 53.0115 93.5969 56.3808C93.6529 54.1346 92.5883 50.6529 89.0583 48.7997L88.4419 49.9229Z" fill="black"/>
<path d="M63.0588 56.2685C66.0846 57.2793 68.1017 56.83 70.1189 57.167C71.7439 57.4477 72.8085 58.2901 74.6016 59.4132C74.6016 59.4132 79.1402 53.5168 75.442 49.9228C74.0412 49.3613 72.2482 48.4628 71.1835 47.7889C70.5112 47.3396 69.6707 45.4303 69.2224 44.7565C68.55 43.6333 67.4293 42.791 66.4208 42.0048C65.7484 41.4432 65.188 40.7694 64.5156 40.2078C64.2915 40.0393 64.0674 39.7024 63.7312 39.8709C63.451 40.0393 63.1708 40.4324 63.2269 40.9378C63.2829 42.3417 64.2355 43.2964 64.9079 44.4757C64.9639 44.588 65.0199 44.7003 64.9639 44.7565C64.9079 44.8688 64.7398 44.8688 64.6277 44.8126C63.507 44.588 62.2743 44.3072 61.1537 44.4757C61.0416 44.4757 60.9295 44.5318 60.7614 44.588C60.033 44.9811 59.9209 46.1604 59.8649 46.8904C59.8089 47.9574 60.033 48.9682 60.4813 49.9228C61.8821 53.0676 63.0588 56.2685 63.0588 56.2685Z" fill="#F0997A"/>
<path d="M58.2962 32.3459L84.7997 39.5901L94.1572 69.8583L93.5969 70.476L68.3821 63.1195L57.7358 33.0198L58.2962 32.3459Z" fill="#E75656"/>
<path opacity="0.35" d="M84.2393 40.2078L93.5967 70.476L94.1571 69.8583L84.7996 39.5901L84.2393 40.2078Z" fill="black"/>
<path opacity="0.25" d="M57.7358 33.0198L84.2394 40.2078L93.5969 70.476L68.3821 63.1195L57.7358 33.0198Z" fill="black"/>
<g opacity="0.1">
<path d="M65.9727 38.7477C65.9727 38.7477 65.8606 38.2985 65.6925 37.7369C65.5244 37.1754 67.0933 37.3438 69.1105 38.13L73.8733 39.197C75.9465 39.9832 77.8517 40.5447 78.0198 41.1063L78.2999 42.1171L65.9727 38.7477Z" fill="black"/>
</g>
<path d="M64.1235 34.1991C64.0115 33.8621 64.6278 33.8621 65.4683 34.0306L66.9812 34.4237C66.9812 34.4237 66.2528 32.9636 69.8389 33.6937C73.7612 34.4799 73.9853 36.3892 73.9853 36.3892C73.9853 36.3892 74.4336 36.5576 75.8904 36.9507C77.1792 37.2877 77.3473 37.5123 77.5154 37.8492L77.7395 38.4669L64.2916 34.8168C64.2916 34.8168 64.2356 34.536 64.1235 34.1991Z" fill="#37474F"/>
<path d="M65.6363 36.0523C66.869 36.5015 67.4293 36.7261 67.6534 37.6246C67.9336 38.6355 67.9896 39.0285 67.9896 39.0285L75.0498 41.2186C75.0498 41.2186 74.5455 39.7586 74.4334 39.3093C74.3213 38.8039 75.2179 38.7478 76.4506 39.197L76.0584 37.9616L65.188 34.8168L65.6363 36.0523Z" fill="#37474F"/>
<path d="M65.6363 38.8039C65.6363 38.8039 65.5242 38.3546 65.3561 37.7931C65.188 37.2315 66.7569 37.4 68.7741 38.1862L73.5369 39.2531C75.6101 40.0393 77.5152 40.6009 77.6833 41.1624L77.9635 42.1733L65.6363 38.8039Z" fill="#37474F"/>
<path d="M58.2961 46.6658C57.3995 45.4303 57.5116 45.2619 57.9599 44.6441C58.4642 44.0264 59.5288 42.9595 61.0977 43.0156C62.1623 43.0718 63.283 43.0156 63.8433 43.2964C64.4036 43.5772 63.8994 44.7565 62.4985 45.0934C60.2572 45.5988 60.3132 46.2165 60.3132 46.2165C60.3132 46.2165 62.3304 45.7673 63.1709 45.7111C64.0114 45.655 65.4683 46.0481 66.4208 46.2165C67.3734 46.385 67.5415 47.5643 65.9726 48.0135C65.9726 48.0135 67.1493 48.182 67.7096 48.2943C68.8863 48.4628 69.3345 49.1366 68.382 49.8667C68.1578 50.0351 67.8217 50.2598 67.3174 50.2598C67.3174 50.2598 68.6061 50.2598 68.6061 50.709C68.6621 51.9445 67.8777 52.2252 65.3002 53.0114C64.5717 53.236 63.6752 54.1345 63.283 54.4153C62.8908 54.9207 62.8908 55.5946 63.0589 56.3246L60.8736 55.0892C60.2012 54.6399 59.7529 53.7976 60.0331 52.7868C60.0331 52.7868 58.6323 52.7868 58.5202 51.9444C58.4081 51.046 58.8564 50.0913 58.8564 50.0913C58.8564 50.0913 58.0159 49.6982 58.0719 48.6312C58.128 47.6204 58.5762 47.115 58.5762 47.115L58.2961 46.6658Z" fill="#FFBDA7"/>
<path d="M65.9726 47.9573C65.4683 47.9012 64.964 47.7889 64.4036 47.7889C63.8433 47.845 63.339 48.0697 62.8907 48.2943C61.9382 48.6874 61.0417 49.1928 60.2012 49.7543C61.2098 49.5297 62.1623 49.1366 63.1149 48.7435C63.5631 48.5189 64.0674 48.2943 64.5157 48.182C64.964 48.0697 65.4683 48.0697 65.9726 47.9573Z" fill="#F0997A"/>
<path d="M67.2612 50.2036C66.7008 50.0351 66.1405 50.0351 65.5802 50.1474C65.0198 50.2597 64.5155 50.4282 63.9552 50.6528C62.9466 51.1021 61.938 51.6075 61.0415 52.2252C62.1061 51.8883 63.1147 51.4952 64.1233 51.1021C65.1879 50.6528 66.1405 50.2036 67.2612 50.2036Z" fill="#F0997A"/>
<path d="M120.717 28.3027C122.678 28.6958 125.143 29.0328 127.665 29.6505C131.251 30.549 131.923 31.0544 134.165 32.346C134.165 32.346 134.949 40.2078 133.1 48.912C132.652 50.9337 131.195 56.437 130.971 60.7048C130.634 66.4328 130.803 69.0159 131.307 73.9577C131.307 73.9577 123.742 78.394 109.79 77.3832C98.8639 76.5409 97.0708 72.6661 97.0708 72.6661C97.0708 72.6661 97.1829 56.3808 97.463 48.2943C97.8553 37.6808 101.665 31.5036 104.019 29.6505L111.191 28.4712L120.717 28.3027Z" fill="#F5F5F5"/>
<path d="M123.743 5.50333C123.743 5.50333 125.424 5.61564 126.544 7.74957C127.105 8.81654 127.497 10.782 125.984 16.3415C125.031 19.9355 123.855 21.5078 123.294 22.5186C122.79 23.5295 121.669 23.8102 121.669 23.8102L121.781 19.5424L120.661 16.7907C120.661 16.7907 119.54 14.3198 119.316 12.1859C119.036 9.43426 120.1 7.86188 120.1 7.86188L123.743 5.50333Z" fill="#37474F"/>
<path d="M124.303 5.61563C123.911 3.20091 120.829 0.336947 114.945 1.03955e-05C113.096 -0.112302 111.359 0.168479 109.622 0.898509C108.109 1.57238 106.596 2.52704 104.971 2.30241C104.635 2.24626 104.187 2.1901 104.019 2.47088C103.963 2.58319 103.963 2.69551 103.963 2.80782C103.963 3.42554 104.355 4.04325 104.859 4.38019C104.075 4.43635 103.403 5.05406 103.29 5.78409C103.178 6.51412 103.571 7.35647 104.243 7.6934C103.907 8.25497 103.963 9.04115 104.355 9.60271C105.084 10.6135 106.372 10.3889 107.437 10.3327C108.502 10.2766 109.622 10.2204 110.687 10.1643C113.04 10.052 115.394 9.93965 117.747 9.77118C118.531 9.71503 119.316 9.71503 120.156 9.65887L124.303 5.61563Z" fill="#37474F"/>
<path d="M125.704 20.8901C123.462 21.9571 122.454 20.2162 122.454 20.2162V29.2574C120.044 32.5144 112.872 35.0976 111.975 35.0415C111.359 34.8168 110.014 31.5036 111.135 28.415V26.2811C111.135 26.2811 110.407 26.2811 109.23 26.1126C107.269 25.7757 105.644 24.821 105.027 22.6871C104.747 21.6201 104.579 20.834 104.411 18.8123C104.243 16.1168 104.635 14.5445 105.027 12.9159C105.308 11.512 104.747 10.1643 105.027 8.76038C105.252 7.74957 105.98 6.90723 106.933 6.40183C108.389 5.6718 110.014 5.6718 111.415 6.28951C113.208 7.01954 114.889 7.9742 116.85 8.19882C117.691 8.31114 118.531 8.31114 119.372 8.14267C119.428 9.04117 119.316 9.93966 119.372 10.8943C119.428 11.7928 119.596 12.7475 120.156 13.4775C120.324 13.7021 120.549 13.8706 120.605 14.0952C120.829 14.6568 120.38 15.2745 120.885 15.8361C121.053 16.0045 121.277 16.1168 121.557 16.173C121.725 16.173 121.837 16.173 122.005 16.173C122.286 16.0607 122.566 15.7237 122.734 15.4991C123.35 14.7129 124.135 14.0391 125.143 13.9829C126.208 13.9268 127.104 14.4883 127.553 15.443C128.561 17.5207 127.777 19.8793 125.704 20.8901Z" fill="#FFBDA7"/>
<path d="M111.191 26.2811C113.768 26.2811 116.066 25.9442 117.579 25.3264C119.092 24.7087 120.436 22.6309 120.885 20.5532C120.885 22.1817 120.156 25.1018 117.859 26.3372C115.561 27.5727 112.872 27.6288 111.191 27.6288V26.2811Z" fill="#F0997A"/>
<path d="M114.777 10.8381L116.963 11.7366C117.187 11.1189 116.907 10.3889 116.29 10.1643C115.674 9.93964 115.001 10.2204 114.777 10.8381Z" fill="#37474F"/>
<path d="M106.429 11.2874L108.67 10.3889C108.446 9.77118 107.773 9.43425 107.157 9.71503C106.541 9.93965 106.204 10.6697 106.429 11.2874Z" fill="#37474F"/>
<path d="M116.234 13.4213C116.234 13.9267 115.786 14.376 115.226 14.376C114.721 14.376 114.273 13.9267 114.273 13.3652C114.273 12.8598 114.721 12.4105 115.282 12.4105C115.842 12.4105 116.234 12.8598 116.234 13.4213Z" fill="#263238"/>
<path d="M108.95 13.0844C108.95 13.5898 108.502 14.039 107.941 14.039C107.437 14.039 106.989 13.5898 106.989 13.0282C106.989 12.5228 107.437 12.0736 107.997 12.0736C108.558 12.1297 109.006 12.579 108.95 13.0844Z" fill="#263238"/>
<path d="M112.368 12.0736L111.583 18.2508L108.333 17.0715C109.454 14.8814 110.799 13.2529 112.368 12.0736Z" fill="#F0997A"/>
<path d="M113.769 19.0369L110.407 20.16C110.687 21.1147 111.695 21.6763 112.648 21.3393C113.545 21.0585 114.105 19.9916 113.769 19.0369Z" fill="#B16668"/>
<path d="M113.433 19.6547C113.601 19.5985 113.713 19.5985 113.881 19.5985C113.881 20.3847 113.376 21.1147 112.648 21.3394C112.48 21.3955 112.256 21.3955 112.088 21.3955C111.92 20.6093 112.536 19.8231 113.433 19.6547Z" fill="#F28F8F"/>
<path d="M110.294 35.6592C110.294 35.6592 108.838 32.8514 108.894 31.7844L110.687 29.9874L111.191 34.5361L110.294 35.6592Z" fill="#E75656"/>
<path opacity="0.2" d="M110.294 35.6592C110.294 35.6592 108.838 32.8514 108.894 31.7844L110.687 29.9874L111.191 34.5361L110.294 35.6592Z" fill="black"/>
<path d="M112.704 34.6484L115.729 32.6268L118.251 34.3676L113.6 36.67L112.704 34.6484Z" fill="#E75656"/>
<path opacity="0.2" d="M112.704 34.6484L115.729 32.6268L118.251 34.3676L113.6 36.67L112.704 34.6484Z" fill="black"/>
<path d="M113.993 62.6142C112.48 54.0223 112.312 40.5448 112.48 38.1862L110.855 38.0178C109.678 40.8256 106.26 54.5838 106.316 61.2664C106.204 63.625 109.174 69.8583 110.743 69.9706C112.312 70.0268 114.273 64.0181 113.993 62.6142Z" fill="#E75656"/>
<path opacity="0.1" d="M113.993 62.6142C112.48 54.0223 112.312 40.5448 112.48 38.1862L110.855 38.0178C109.678 40.8256 106.26 54.5838 106.316 61.2664C106.204 63.625 109.174 69.8583 110.743 69.9706C112.312 70.0268 114.273 64.0181 113.993 62.6142Z" fill="white"/>
<path opacity="0.5" d="M110.743 38.3547C110.799 38.1862 110.855 38.1301 110.855 38.0178L112.48 38.1862C112.48 38.4109 112.48 38.5793 112.48 38.9163C111.919 38.9724 111.079 38.6355 110.743 38.3547Z" fill="black"/>
<path d="M112.76 34.4238C112.031 34.3115 111.191 34.3676 111.191 34.3676C111.191 34.3676 110.631 34.873 110.294 35.6031C110.294 35.6031 110.294 37.0631 110.855 37.9616C110.855 37.9616 111.471 38.4109 112.48 38.1301C112.48 38.1301 113.432 37.4562 113.656 36.5577C113.768 35.8277 113.152 34.6484 112.76 34.4238Z" fill="#E75656"/>
<path opacity="0.1" d="M112.76 34.4238C112.031 34.3115 111.191 34.3676 111.191 34.3676C111.191 34.3676 110.631 34.873 110.294 35.6031C110.294 35.6031 110.294 37.0631 110.855 37.9616C110.855 37.9616 111.471 38.4109 112.48 38.1301C112.48 38.1301 113.432 37.4562 113.656 36.5577C113.768 35.8277 113.152 34.6484 112.76 34.4238Z" fill="white"/>
<path d="M112.76 34.4237C112.816 34.4237 112.872 34.536 112.928 34.536C114.049 33.9183 114.273 33.6937 114.553 33.806C115.113 33.9745 116.458 36.3892 116.794 37.1754C117.13 37.9616 117.074 37.9616 118.139 37.2315C120.212 35.8838 122.397 34.0306 123.518 32.6267C125.199 30.4928 125.423 29.1451 125.423 29.1451C125.423 29.1451 124.807 27.8535 124.471 27.2357C123.798 26.0003 123.238 24.6526 122.509 24.7649V25.6072C122.397 26.6742 120.66 28.1342 118.923 29.2574C117.242 30.3243 114.889 31.6159 114.329 32.1775C113.88 32.5706 113.264 33.4691 112.76 34.4237Z" fill="#E6E6E6"/>
<path d="M107.269 35.3222C107.437 35.7715 108.837 32.3459 109.51 32.4021C109.846 32.4021 110.574 33.3567 111.191 34.3114C111.191 34.3114 111.583 34.3114 111.639 34.3114C111.247 33.3006 111.023 32.4021 110.911 31.7282C110.799 30.5489 111.079 28.3027 111.079 28.3027V26.2811C110.911 26.2811 110.743 26.2811 110.518 26.2811C110.35 26.4495 110.07 26.7303 109.734 27.1796C108.95 28.1904 107.493 30.2682 107.269 31.5597C107.044 33.6375 107.213 35.2099 107.269 35.3222Z" fill="#E6E6E6"/>
<path d="M137.975 82.7742C138.703 81.988 139.656 81.258 139.936 80.191C140.104 79.6294 140.048 79.0117 139.656 78.5625C139.6 78.4502 139.488 78.394 139.432 78.2817C139.432 78.1694 139.432 78.0571 139.432 78.0009C139.488 77.6078 139.544 77.1586 139.376 76.7655C139.208 76.4285 138.928 76.2039 138.591 76.0916C138.76 75.4739 138.76 74.8562 138.591 74.2385C138.367 73.5084 137.639 72.9469 137.135 73.7892C136.91 74.1823 136.742 74.5754 136.574 75.0246C136.182 76.0916 135.398 77.0463 135.285 78.1694C135.173 79.3487 135.51 82.7742 137.303 82.9427C137.471 82.8865 137.863 82.8865 137.975 82.7742Z" fill="#F0997A"/>
<path d="M128.337 77.4955C128.561 76.0355 128.842 74.6316 129.234 73.2277C129.346 72.7223 129.626 72.3292 129.906 71.9361C130.242 71.4868 130.523 70.9814 130.915 70.5322C131.923 69.2967 133.773 66.8259 135.622 64.355C140.104 62.9511 142.514 65.1412 143.522 69.746C141.393 71.7676 138.871 73.8454 136.798 75.9232C136.238 76.4847 135.958 76.9901 136.182 77.8325C136.294 78.2817 136.518 78.731 136.574 79.2364C136.63 79.8541 136.462 80.4718 136.406 81.0895C136.35 81.7072 136.574 82.4373 137.134 82.6619C137.415 82.7742 137.695 82.7742 138.031 82.7742C137.527 83.1673 136.966 83.5042 136.35 83.6727C135.734 83.8412 135.061 83.8973 134.445 83.6165C133.885 83.3358 133.436 82.8304 132.876 82.6057C132.54 82.4934 132.204 82.5496 131.867 82.4373C131.531 82.325 131.251 82.1565 131.027 81.8757C130.691 81.4265 130.523 80.8087 130.074 80.5841C129.85 80.4718 129.57 80.4157 129.346 80.3595C128.842 80.1349 128.505 79.6295 128.393 79.1241C128.169 78.6186 128.225 78.0571 128.337 77.4955Z" fill="#FFBDA7"/>
<path d="M131.251 30.9982C138.199 32.2898 138.367 33.9183 142.457 39.5901C146.548 45.2057 151.087 51.8883 152.375 54.6399C153.944 58.0654 154.336 59.4132 150.638 63.0633C148.733 64.9726 146.1 67.2189 143.41 69.7459C141.505 66.1519 138.871 64.3549 135.509 64.3549C138.143 60.8732 140.72 57.3354 140.72 57.3354L132.932 47.3958C132.988 47.4519 126.768 40.9378 131.251 30.9982Z" fill="#FFBDA7"/>
<path d="M148.957 48.2381C147.164 45.5988 145.035 42.8471 143.41 40.4886C141.785 38.13 139.6 34.536 137.695 33.1883C135.79 31.7844 134.165 31.279 130.522 30.549C127.721 35.3784 129.514 44.0264 131.139 46.048C132.764 48.0135 140.328 57.2793 140.328 57.2793L136.742 62.7264C136.742 62.7264 138.255 62.5018 141.001 64.9165C143.746 67.3312 143.914 69.8021 143.914 69.8021C143.914 69.8021 147.668 66.3766 150.47 63.7934C153.272 61.2102 153.72 60.0871 153.888 58.7955C154.28 55.7631 150.75 50.8775 148.957 48.2381Z" fill="#E6E6E6"/>
<path d="M137.639 61.3787L135.341 64.4111C135.341 64.4111 137.975 64.6919 139.992 66.7135C142.009 68.7352 142.401 71.3745 142.401 71.3745L145.595 68.5667C145.595 68.5667 145.371 65.815 142.738 63.5688C140.216 61.2664 137.639 61.3787 137.639 61.3787Z" fill="#F0F0F0"/>
<path opacity="0.25" d="M140.384 57.2231C142.514 59.3009 146.156 59.5817 147.389 59.5255C143.13 61.2664 139.768 58.234 139.768 58.234L140.384 57.2231Z" fill="black"/>
</g>
<defs>
<clipPath id="clip0_805_1043">
<rect width="150" height="187" fill="white" transform="translate(4)"/>
</clipPath>
</defs>
</svg>
