<svg width="237" height="238" viewBox="0 0 237 238" fill="none" xmlns="http://www.w3.org/2000/svg">
<path d="M194.243 155.546C157.952 200.976 99.4869 214.601 63.6574 185.98C27.8279 157.358 17.5241 114.63 53.8148 69.2003C90.1055 23.7703 114.526 70.2218 159.626 60.8673C204.727 51.5128 230.533 110.116 194.243 155.546Z" fill="#A14DE4"/>
<path d="M106.406 105.034C101.012 104.015 95.4751 104.015 90.0811 105.034C90.0811 105.034 85.4782 107.945 86.0305 100.598C85.1538 98.9232 83.8123 95.6442 86.4689 94.9954C88.031 94.7247 89.6312 94.7665 91.177 95.1181C93.3909 95.4452 95.6313 95.5567 97.8667 95.4513C98.2761 95.3829 98.6635 95.2185 98.9972 94.9716C99.3309 94.7248 99.6015 94.4024 99.7868 94.031C99.9895 93.6021 100.087 93.1311 100.072 92.657C100.057 92.1829 99.929 91.7192 99.6991 91.3043L98.9626 89.4192C98.9626 89.4192 95.4556 79.1612 84.9346 83.282C80.6736 84.9478 79.0253 79.2314 78.3063 76.2679C77.4997 72.9538 75.9303 67.1234 79.5952 64.8702C80.5728 64.3274 81.6547 63.9987 82.769 63.9057C90.0022 63.1342 93.3952 64.3441 92.9569 58.5312C92.5185 52.7184 92.5185 52.7271 97.9982 51.8504C104.135 50.8684 105.749 51.4383 106.985 50.3161C109.966 47.6157 102.934 45.2748 115.647 41.5486C128.36 37.8224 152.252 45.9323 152.909 51.7364L168.91 79.3541L162.115 100.396L139.1 107.191L106.406 105.034ZM80.9892 94.9866C86.2497 89.4981 89.029 91.2604 89.029 91.2604C88.2575 87.5956 81.3574 84.1061 77.3857 89.2877C73.414 94.4693 70.0298 91.8478 70.0298 91.8478C70.0298 91.8478 75.5796 100.598 80.9892 94.9866ZM108.09 35.9286C136.786 26.3632 151.235 37.9013 150.796 36.1565C150.463 34.7976 151.673 27.5468 152.269 24.3291C152.436 23.391 152.813 22.9965 152.409 22.7861C152.006 22.5756 151.734 22.8913 150.612 22.9C148.113 22.9 144.028 22.8036 143.51 22.7773C139.021 22.4704 136.654 19.7876 133.375 16.868C132.384 15.9912 131.727 20.2698 131.727 20.2698C131.727 20.2698 127.238 22.7861 126.799 18.4023C126.361 14.0185 123.179 16.7628 122.635 17.8587C122.091 18.9546 115.402 23.0052 115.402 23.0052C112.438 26.2931 108.274 24.8464 108.274 24.8464C103.785 21.6638 104.004 24.8464 104.004 24.8464L107.143 35.2798C107.143 35.2798 107.336 35.8584 107.397 36.1565C107.458 36.4546 108.011 35.9549 108.09 35.9286Z" fill="url(#paint0_linear_804_1020)"/>
<path d="M96.7708 172.632C96.7708 172.632 70.1789 178.488 75.7287 208C75.7287 208 55.7826 190.465 56.0018 163.286C56.0359 160.45 56.288 157.622 56.7558 154.825C58.2957 149.098 60.5864 143.6 63.5682 138.474C66.3002 133.862 69.691 129.673 73.6333 126.041C89.7655 111.478 112.754 107.086 133.007 100.615C147.912 95.8371 162.299 86.7013 162.089 68.8331C161.949 57.0671 153.9 48.9133 152.795 47.8436C160.121 51.8692 166.164 57.8763 170.234 65.177C185.069 91.8654 186.147 122.718 163.597 145.47C156.443 152.694 146.062 159.104 136.225 161.804L96.7708 172.632Z" fill="url(#paint1_linear_804_1020)"/>
<path d="M73.6333 126.041C69.6911 129.673 66.3003 133.862 63.5682 138.474C60.5865 143.6 58.2958 149.098 56.7559 154.825C58.334 145.225 62.332 135.414 68.0397 128.215C76.5179 117.528 89.0379 111.373 101.453 106.437C112.57 102.053 123.906 98.5988 134.769 93.5838C141.713 90.3836 149.849 86.7364 153.769 79.7574C155.817 75.8507 156.785 71.4681 156.574 67.062C155.513 46.2655 136.97 41.2855 126.046 40.7595C135.381 40.946 144.538 43.3502 152.76 47.7735C153.865 48.8431 161.914 56.9969 162.054 68.7629C162.273 86.6837 147.894 95.8633 133.007 100.598C112.754 107.086 89.7656 111.478 73.6333 126.041Z" fill="url(#paint2_linear_804_1020)"/>
<defs>
<linearGradient id="paint0_linear_804_1020" x1="74.7204" y1="55.2434" x2="201.85" y2="76.2855" gradientUnits="userSpaceOnUse">
<stop offset="0.03" stop-color="#F6A03C"/>
<stop offset="0.09" stop-color="#F59B3D"/>
<stop offset="0.16" stop-color="#F28E3E"/>
<stop offset="0.38" stop-color="#E34353"/>
<stop offset="0.43" stop-color="#E03357"/>
</linearGradient>
<linearGradient id="paint1_linear_804_1020" x1="177.125" y1="80.2835" x2="57.4134" y2="184.485" gradientUnits="userSpaceOnUse">
<stop stop-color="#E71981"/>
<stop offset="0.14" stop-color="#BD1F7E"/>
<stop offset="0.39" stop-color="#7C2778"/>
<stop offset="0.56" stop-color="#532D75"/>
<stop offset="0.66" stop-color="#432F74"/>
</linearGradient>
<linearGradient id="paint2_linear_804_1020" x1="64.9184" y1="132.31" x2="165.166" y2="42.2938" gradientUnits="userSpaceOnUse">
<stop offset="0.33" stop-color="#9A2676"/>
<stop offset="0.49" stop-color="#B03A81"/>
<stop offset="0.83" stop-color="#E86C9E"/>
<stop offset="0.84" stop-color="#EA6E9F"/>
</linearGradient>
</defs>
</svg>
