<svg width="174" height="180" viewBox="0 0 174 180" fill="none" xmlns="http://www.w3.org/2000/svg">
<path d="M105.393 179.981C47.2471 179.981 0.110926 142.805 0.110928 96.9475C0.11093 51.0895 27.0639 16.371 85.2093 16.371C143.355 16.371 122.303 64.4428 157.761 93.8421C193.218 123.241 163.538 179.981 105.393 179.981Z" fill="#F8E7D0"/>
<path d="M81.8972 47.6848V21.1562H82.4392C84.2934 21.1562 85.7985 19.6524 85.7985 17.7969V11.0781C85.7985 5.52072 81.2765 1 75.7204 1H60.2673C54.7099 1 50.1892 5.52072 50.1892 11.0781V17.7969C50.1892 19.6524 51.693 21.1562 53.5486 21.1562H54.0892V47.7767C52.752 48.463 51.9962 49.9904 52.3505 51.5219C52.7087 53.0756 54.0918 54.1267 55.6206 54.1267C55.8699 54.1267 56.1245 54.0978 56.3791 54.0401C56.9092 53.9167 57.4394 53.8157 57.9538 53.7369C59.5954 53.4876 60.808 52.0756 60.808 50.4156V37.4663H75.1785V50.4156C75.1785 52.0756 76.391 53.4876 78.0313 53.7369C88.4283 55.3208 96.2677 64.4397 96.2677 74.9509V162.611C96.2677 164.634 94.6208 166.281 92.5973 166.281H43.3891C41.3656 166.281 39.7187 164.634 39.7187 162.611V74.9509C39.7187 73.5179 39.8643 72.081 40.1504 70.6808C40.5205 68.862 39.3486 67.0878 37.5312 66.7165C35.7111 66.3464 33.9382 67.5182 33.5668 69.3357C33.1915 71.1781 32.9999 73.0678 32.9999 74.9509V162.611C32.9999 168.34 37.6598 173 43.3891 173H92.5973C98.3267 173 102.986 168.34 102.986 162.611V74.9509C102.986 62.1288 94.1038 50.8828 81.8972 47.6848ZM56.9079 11.0781C56.9079 9.22522 58.4144 7.71875 60.2673 7.71875H75.7204C77.572 7.71875 79.0798 9.22522 79.0798 11.0781V14.4375H56.9079V11.0781ZM60.808 30.7475V21.1562H75.1785V30.7475H60.808Z" fill="black" stroke="black" stroke-width="0.5"/>
<path d="M46.4374 142.455C46.4374 144.309 47.9426 145.814 49.7968 145.814H86.1896C88.0451 145.814 89.549 144.309 89.549 142.455V88.3883C89.549 86.5328 88.0451 85.029 86.1896 85.029H49.7968C47.9426 85.029 46.4374 86.5328 46.4374 88.3883V142.455ZM53.1562 91.7477H82.8302V139.095H53.1562V91.7477Z" fill="black" stroke="black" stroke-width="0.5"/>
<path d="M67.9938 105.343C62.4364 105.343 57.9157 109.865 57.9157 115.421C57.9157 120.978 62.4364 125.499 67.9938 125.499C73.5499 125.499 78.0719 120.978 78.0719 115.421C78.0719 109.865 73.5499 105.343 67.9938 105.343ZM67.9938 118.78C66.1409 118.78 64.6344 117.274 64.6344 115.421C64.6344 113.569 66.1409 112.061 67.9938 112.061C69.8454 112.061 71.3532 113.569 71.3532 115.421C71.3532 117.274 69.8454 118.78 67.9938 118.78Z" fill="black" stroke="black" stroke-width="0.5"/>
<path d="M52.2862 152.844C50.4306 152.844 48.9268 154.348 48.9268 156.203C48.9268 158.057 50.4333 159.562 52.2875 159.562C54.143 159.562 55.6468 158.057 55.6468 156.203C55.6468 154.348 54.143 152.844 52.2875 152.844H52.2862Z" fill="black" stroke="black" stroke-width="0.5"/>
<path d="M85.8799 152.844H65.7236C63.8694 152.844 62.3642 154.348 62.3642 156.203C62.3642 158.057 63.8694 159.562 65.7236 159.562H85.8799C87.7341 159.562 89.2392 158.057 89.2392 156.203C89.2392 154.348 87.7341 152.844 85.8799 152.844Z" fill="black" stroke="black" stroke-width="0.5"/>
<path d="M43.4638 60.9714C44.3234 60.9714 45.1829 60.6433 45.839 59.9872L45.8416 59.9859C47.1526 58.6737 47.1513 56.5478 45.8403 55.2355C44.5281 53.9233 42.4009 53.9246 41.0887 55.2369C39.7764 56.5478 39.7764 58.675 41.0887 59.9872C41.7448 60.6433 42.6043 60.9714 43.4638 60.9714Z" fill="black" stroke="black" stroke-width="0.5"/>
<path fill-rule="evenodd" clip-rule="evenodd" d="M154.489 123.009C152.12 122.811 150.039 124.572 149.841 126.941L149.545 130.489L120.595 130.489C119.936 130.489 119.316 130.656 118.775 130.951L118.408 127.224C118.155 124.653 115.865 122.774 113.294 123.027C110.722 123.28 108.843 125.57 109.096 128.142L113.022 167.992C112.993 168.182 112.978 168.376 112.978 168.574C112.978 170.677 114.683 172.383 116.787 172.383H151.063C152.753 172.383 154.186 171.282 154.684 169.758C154.863 169.343 154.978 168.892 155.018 168.416L158.421 127.657C158.619 125.288 156.859 123.207 154.489 123.009ZM146.683 164.766L148.909 138.106L120.595 138.106C120.201 138.106 119.821 138.046 119.463 137.935L122.107 164.766L146.683 164.766Z" fill="black"/>
</svg>
