<svg width="209" height="171" viewBox="0 0 209 171" fill="none" xmlns="http://www.w3.org/2000/svg">
<path d="M116.5 154C137.211 154 154 144.15 154 132C154 119.85 137.211 110 116.5 110C95.7893 110 79 119.85 79 132C79 144.15 95.7893 154 116.5 154Z" fill="#E0E0E0" fill-opacity="0.2"/>
<path d="M68.5 171C89.2107 171 106 161.374 106 149.5C106 137.626 89.2107 128 68.5 128C47.7893 128 31 137.626 31 149.5C31 161.374 47.7893 171 68.5 171Z" fill="#E0E0E0" fill-opacity="0.2"/>
<path d="M55.6829 43.9141C54.2199 43.9141 52.9109 45.229 52.9109 49.0138C52.9109 52.7987 52.6148 55.8372 54.9366 55.8372L55.6829 43.9141Z" fill="#5B3725"/>
<path opacity="0.1" d="M55.6829 43.9141C54.2199 43.9141 52.9109 45.229 52.9109 49.0138C52.9109 52.7987 52.6148 55.8372 54.9366 55.8372L55.6829 43.9141Z" fill="black"/>
<path d="M59.5447 71.9835L71.9417 71.1305C74.4886 70.6804 76.5558 68.2519 76.5558 65.705V43.5764C76.5558 41.0295 75.0276 39.6968 71.9417 39.7738L59.5447 40.6267C56.9978 41.0769 54.9307 43.5053 54.9307 46.0522V68.1749C54.9307 70.7278 56.9978 72.4277 59.5447 71.9835Z" fill="#5B3725"/>
<path d="M87.4185 62.8915C88.7334 66.0189 92.8677 70.7515 93.8806 71.9065C94.6328 72.7653 96.4453 74.4178 97.0317 75.4011C97.932 76.9055 102.161 80.4949 100.959 81.7565C98.8086 84.0191 95.8115 81.7269 94.6683 80.8207C93.0987 79.5827 91.2804 77.8058 89.8647 76.3902C87.0809 73.6004 84.3977 70.1177 82.763 67.7721C81.8686 66.4868 76.9228 54.2438 76.7925 51.2586C76.7451 50.1273 76.5734 42.9071 78.0304 42.3977C80.9505 42.5991 82.1884 43.8015 82.763 45.3415C83.3316 46.8696 83.6277 48.7828 84.0424 50.3642C84.9249 53.7108 86.9506 61.778 87.4185 62.8915Z" fill="#B16668"/>
<path d="M45.8385 131.806C44.9323 131.338 44.3519 132.493 43.5285 133.417C42.954 134.069 42.0537 135.094 41.9175 135.834C41.722 136.93 42.7052 138.653 43.801 139.601C44.8909 140.549 46.1584 141.23 46.5552 143.315C46.9521 145.394 47.7635 146.632 49.9195 147.568C52.2828 148.586 55.4517 148.261 56.5238 147.568C57.7972 146.744 56.6363 145.844 54.8535 143.291C52.5257 139.962 50.7132 137.581 50.7132 134.478L45.8385 131.806Z" fill="#263238"/>
<path d="M47.6985 129.076L45.7853 131.878C44.9561 133.092 45.2167 134.78 46.4309 135.609C46.4487 135.621 46.4724 135.633 46.4902 135.651C47.6511 136.403 49.2148 136.107 50.1506 135.082L53.1299 131.83L47.6985 129.076Z" fill="#B16668"/>
<path d="M77.87 150.476L82.5944 149.401L81.0291 142.517L76.3047 143.591L77.87 150.476Z" fill="#B16668"/>
<path d="M82.0642 147.064L81.9102 146.389C82.4077 146.484 84.5282 150.008 86.6368 151.536C88.9409 153.213 90.9429 154.202 91.9735 154.96C93.3536 155.973 91.3575 158.04 87.9636 158.223C86.2814 158.312 83.2133 157.803 82.2715 156.909C81.3297 156.014 80.6427 154.527 79.8964 153.882C79.1501 153.236 77.6337 152.674 77.1184 151.85C76.8341 151.394 76.7927 150.275 76.8223 149.309C76.8519 148.421 76.8815 147.449 77.1836 147.461C77.2073 147.562 77.3021 147.977 77.3021 147.977C77.7344 148.279 79.079 148.664 80.1747 148.61C80.9744 148.575 82.4611 148.391 82.0642 147.064Z" fill="#263238"/>
<path d="M82.0521 74.1927C82.1706 77.7644 82.8044 92.501 80.1982 99.3303C77.7579 105.727 75.5545 109.145 74.7786 110.472C74.0027 111.798 51.6431 133.566 51.6431 133.566C51.6431 133.566 47.8464 133.287 47.2482 129.609C47.2482 129.609 56.4112 114.037 58.3954 110.839C60.3796 107.646 67.4044 102.748 67.4044 102.748L66.7647 71.0831L82.0521 74.1927Z" fill="#1B2543"/>
<path opacity="0.3" d="M82.0521 74.1927C82.1706 77.7644 82.8044 92.501 80.1982 99.3303C77.7579 105.727 75.5545 109.145 74.7786 110.472C74.0027 111.798 51.6431 133.566 51.6431 133.566C51.6431 133.566 47.8464 133.287 47.2482 129.609C47.2482 129.609 56.4112 114.037 58.3954 110.839C60.3796 107.646 67.4044 102.748 67.4044 102.748L66.7647 71.0831L82.0521 74.1927Z" fill="black"/>
<path d="M74.1743 85.0853C74.1743 85.0853 76.0105 83.5393 78.4982 80.1099C82.1112 75.1167 81.5545 70.6863 81.5545 70.6863H80.0737L60.5216 71.089C58.5848 74.2638 58.1583 79.0852 58.8158 83.7763C60.1722 93.5138 68.2453 112.094 68.2453 112.094C68.1328 113.427 67.5701 119.024 68.8376 123.988C70.8396 131.818 76.3066 145.074 76.3066 145.074C76.3066 145.074 79.7302 145.56 81.4301 143.582C81.4301 143.582 78.4034 116.679 77.5919 109.784C76.7035 102.321 74.1743 85.0853 74.1743 85.0853Z" fill="#1B2543"/>
<path opacity="0.3" d="M74.1743 85.0853C74.1743 85.0853 76.0105 83.5393 78.4982 80.1099C82.1112 75.1167 81.5545 70.6863 81.5545 70.6863H80.0737L60.5216 71.089C58.5848 74.2638 58.1583 79.0852 58.8158 83.7763C60.1722 93.5138 68.2453 112.094 68.2453 112.094C68.1328 113.427 67.5701 119.024 68.8376 123.988C70.8396 131.818 76.3066 145.074 76.3066 145.074C76.3066 145.074 79.7302 145.56 81.4301 143.582C81.4301 143.582 78.4034 116.679 77.5919 109.784C76.7035 102.321 74.1743 85.0853 74.1743 85.0853Z" fill="#1B2543"/>
<path opacity="0.3" d="M76.9878 105.212C76.9878 105.212 74.7074 87.3005 74.1743 85.0852C74.1743 85.0852 78.1902 83.5571 79.4281 82.1533C79.4281 82.1533 78.5455 84.1139 75.6729 85.8612L76.9878 105.212Z" fill="black"/>
<path opacity="0.3" d="M67.3272 112.527C66.6993 114.861 66.7585 118.717 66.7585 118.717L68.032 117.609C67.9965 116.679 68.2393 112.095 68.2393 112.095C67.262 110.762 65.1179 104.436 65.1179 104.436L67.3272 112.527Z" fill="black"/>
<path d="M80.9564 59.699C81.2644 62.5302 82.0521 74.1868 82.0521 74.1868C72.6996 79.18 61.0963 75.869 59.3194 73.8137C60.9305 68.5185 63.2464 66.2855 64.5732 64.8758L61.5405 56.4176C61.5405 56.4176 61.1792 55.5528 61.1852 55.5469C61.3865 55.1975 65.6156 50.4353 61.5998 42.8656L67.0549 42.3681L75.0452 42.1371C76.7865 42.2319 78.0304 42.4036 78.0304 42.4036C79.1439 43.4461 80.9031 46.3188 82.0462 49.2329C82.7866 51.1165 83.5803 54.1254 80.9564 59.699Z" fill="#8B221E"/>
<path d="M62.7666 59.8352L68.0263 66.5875L64.5731 64.8817L62.7666 59.8352Z" fill="#5C1C19"/>
<path d="M51.8563 81.8216C52.0636 83.8532 52.2946 86.5897 52.7033 88.1534C54.1071 93.5611 55.9018 95.184 58.3006 95.344C62.121 95.5987 62.1447 94.1712 60.4329 91.7072C59.1654 89.8888 58.7271 88.1889 58.7271 88.1889C59.4793 88.7516 60.0835 89.184 60.5632 89.3735C61.5168 89.7467 62.1269 89.2373 62.2868 88.9056C62.4112 88.6509 61.7478 88.3903 61.0193 87.4959C60.0834 86.3527 59.6037 85.4465 58.3184 84.4988C57.8386 84.1434 57.6905 83.4978 57.5425 82.9174C57.347 82.1474 57.2167 69.8807 57.9097 67.3397L61.197 55.5409C63.8683 53.7048 65.6808 44.7905 61.6116 42.8596C56.4585 43.4223 56.0558 48.1134 51.8918 63.5252C51.1515 66.2617 51.4298 77.6281 51.8563 81.8216Z" fill="#B16668"/>
<path d="M63.8328 42.6643C63.8328 42.6643 65.13 43.3691 65.3965 47.1244C65.746 51.9398 63.4478 57.7089 60.9542 59.8353V64.0762C60.9542 64.0762 65.7756 60.0663 67.4044 55.0257C69.0333 49.9852 69.1577 45.0631 67.0609 42.3741C67.0609 42.3681 65.2366 41.9121 63.8328 42.6643Z" fill="#5B3725"/>
<path opacity="0.2" d="M63.8328 42.6643C63.8328 42.6643 65.13 43.3691 65.3965 47.1244C65.746 51.9398 63.4478 57.7089 60.9542 59.8353V64.0762C60.9542 64.0762 65.7756 60.0663 67.4044 55.0257C69.0333 49.9852 69.1577 45.0631 67.0609 42.3741C67.0609 42.3681 65.2366 41.9121 63.8328 42.6643Z" fill="black"/>
<path d="M75.0275 42.1193C75.0275 42.1193 79.5113 43.76 81.2645 47.4205C81.2645 47.4205 81.4244 44.5122 79.1796 42.8716C76.9229 41.2309 75.0275 42.1193 75.0275 42.1193Z" fill="#5B3725"/>
<path opacity="0.2" d="M75.0275 42.1193C75.0275 42.1193 79.5113 43.76 81.2645 47.4205C81.2645 47.4205 81.4244 44.5122 79.1796 42.8716C76.9229 41.2309 75.0275 42.1193 75.0275 42.1193Z" fill="black"/>
<path d="M83.5802 41.2309H73.665C66.427 41.2309 60.5632 35.367 60.5632 28.129C60.5632 21.7736 65.7162 16.6205 72.0717 16.6205C78.4272 16.6205 83.5802 21.7736 83.5802 28.129V41.2309Z" fill="#263238"/>
<path d="M79.4697 21.6373C80.684 22.354 82.1884 25.4103 82.0403 31.8191C81.9159 37.2505 80.1568 38.5951 79.2683 38.9801C78.3858 39.3651 76.68 39.1341 75.0215 38.8557V42.1134C75.0215 42.1134 77.3137 44.7729 77.1656 46.2714C77.0235 47.764 73.8606 48.1194 71.7164 46.6564C69.5723 45.1934 67.7657 42.3503 67.7657 42.3503L67.8013 34.8576C67.8013 34.8576 66.824 35.8053 65.1714 34.3601C63.8032 33.1636 63.3471 31.1557 64.4074 30.0718C65.4735 28.9938 67.44 29.284 68.1922 30.824C68.1922 30.824 70.8339 30.9188 74.3581 28.9879C77.8883 27.0569 79.2387 23.74 79.4697 21.6373Z" fill="#B16668"/>
<path d="M75.9752 30.4567C75.993 30.8477 75.7028 31.1794 75.3296 31.1971C74.9505 31.2149 74.6307 30.9128 74.6129 30.5219C74.5952 30.131 74.8854 29.7993 75.2585 29.7815C75.6376 29.7637 75.9575 30.0658 75.9752 30.4567Z" fill="#263238"/>
<g opacity="0.5">
<path opacity="0.5" d="M76.1588 35.059L77.7461 35.5624C77.6158 36.0185 77.1538 36.2732 76.7155 36.131C76.2772 35.9948 76.0285 35.515 76.1588 35.059Z" fill="#9A4A4D"/>
</g>
<path d="M81.5785 28.36L80.1984 27.4004C80.4531 27.0036 80.9625 26.9029 81.3475 27.1635C81.7266 27.43 81.8273 27.9631 81.5785 28.36Z" fill="#263238"/>
<path d="M81.2585 29.9651C81.2762 30.356 80.986 30.6877 80.6129 30.7055C80.2338 30.7232 79.9139 30.4212 79.8962 30.0302C79.8784 29.6393 80.1686 29.3076 80.5418 29.2899C80.9208 29.2662 81.2407 29.5742 81.2585 29.9651Z" fill="#263238"/>
<g opacity="0.5">
<path opacity="0.5" d="M78.0364 29.5742L78.143 33.6848L80.3108 33.0155L78.0364 29.5742Z" fill="#9A4A4D"/>
</g>
<g opacity="0.5">
<path opacity="0.5" d="M75.0275 38.8558C73.2802 38.6248 69.6849 37.5941 69.1281 36.1726C69.1281 36.1726 69.3177 37.067 70.3898 37.9851C71.4618 38.9031 75.0275 39.9397 75.0275 39.9397V38.8558Z" fill="#9A4A4D"/>
</g>
<path d="M62.3936 22.4074L59.7282 20.974C60.1073 20.21 61.0135 19.9079 61.748 20.3047C62.4824 20.7016 62.7727 21.6433 62.3936 22.4074Z" fill="#263238"/>
<path d="M102.967 29.5742C101.231 29.5742 99.6734 31.1379 99.6734 35.6335C99.6734 40.1351 99.318 43.7422 102.078 43.7422L102.967 29.5742Z" fill="#455A64"/>
<path d="M107.557 62.9212L122.282 60.8067C125.308 60.2736 127.761 57.3831 127.761 54.3564V28.0758C127.761 25.0491 125.308 23.0293 122.282 23.5624L107.557 25.6769C104.53 26.21 102.078 29.1005 102.078 32.1271V58.4019C102.078 61.4286 104.53 63.4543 107.557 62.9212Z" fill="#37474F"/>
<path d="M94.8401 120.653C93.9339 120.185 93.3534 121.34 92.5301 122.264C91.9556 122.916 91.0494 123.941 90.9191 124.681C90.7236 125.777 91.7068 127.5 92.8026 128.448C93.8924 129.396 95.16 130.077 95.5568 132.162C95.9537 134.247 96.7651 135.479 98.9211 136.415C101.284 137.433 104.453 137.108 105.525 136.415C106.799 135.591 105.638 134.691 103.855 132.138C101.527 128.809 99.7148 126.428 99.7148 123.325L94.8401 120.653Z" fill="#263238"/>
<path d="M96.6999 117.923L94.7867 120.724C93.9575 121.939 94.2181 123.627 95.4323 124.456C95.4501 124.468 95.4738 124.48 95.4916 124.497C96.6525 125.25 98.2162 124.954 99.152 123.929L102.131 120.677L96.6999 117.923Z" fill="#F28F8F"/>
<path d="M126.874 139.322L131.598 138.248L130.033 131.364L125.309 132.438L126.874 139.322Z" fill="#F28F8F"/>
<path d="M131.066 135.911L130.912 135.236C131.409 135.331 133.53 138.855 135.638 140.383C137.942 142.059 139.944 143.048 140.975 143.807C142.355 144.819 140.359 146.887 136.965 147.07C135.283 147.159 132.215 146.65 131.273 145.755C130.331 144.861 129.644 143.374 128.898 142.729C128.151 142.083 126.635 141.52 126.12 140.697C125.835 140.241 125.794 139.121 125.824 138.156C125.853 137.268 125.883 136.296 126.185 136.308C126.209 136.409 126.303 136.823 126.303 136.823C126.736 137.125 128.08 137.51 129.176 137.457C129.976 137.422 131.462 137.238 131.066 135.911Z" fill="#263238"/>
<path d="M133.227 60.6645C133.346 64.2361 131.8 81.3479 129.2 88.1772C126.76 94.5741 124.556 97.9917 123.78 99.3185C123.004 100.645 100.645 122.413 100.645 122.413C100.645 122.413 96.2498 122.809 96.2498 118.456C96.2498 118.456 105.49 103.411 107.474 100.219C109.458 97.0262 115.298 90.576 115.298 90.576L116.359 60.3979L133.227 60.6645Z" fill="#37474F"/>
<path d="M123.768 74.3942C123.768 74.3942 125.604 72.8482 128.092 69.4188C131.705 64.4256 131.699 60.167 131.699 60.167L129.668 59.9893L108.238 61.4049C108.238 65.0416 107.995 68.3586 108.41 73.0792C109.257 82.7575 115.89 101.243 115.89 101.243C115.778 102.576 116.566 107.871 117.833 112.835C119.835 120.665 125.302 133.921 125.302 133.921C125.302 133.921 128.726 134.407 130.426 132.428C130.426 132.428 127.399 105.526 126.588 98.6314C125.705 91.1683 123.768 74.3942 123.768 74.3942Z" fill="#37474F"/>
<path d="M125.989 94.0587C125.989 94.0587 124.301 76.6093 123.768 74.3941C123.768 74.3941 127.784 72.8659 129.022 71.4622C129.022 71.4622 128.14 73.4227 125.267 75.17L125.989 94.0587Z" fill="#263238"/>
<path d="M113.148 93.0103L115.891 101.243C115.891 101.243 116.092 104.501 116.536 106.793L115.352 107.966C115.352 107.966 114.724 104.181 115.091 101.439L113.148 93.0103Z" fill="#263238"/>
<path d="M132.015 53.7572C127.997 43.5776 127.824 34.6609 127 32L135.907 42.5203C135.907 42.5203 137.06 48.9523 138.506 53.4106C139.775 57.3286 141.464 62.1981 143.234 65.1586C143.545 65.6814 144.052 66.0573 144.629 66.2394C146.174 66.7211 146.935 67.4436 148.214 68.2365C149.212 68.8533 149.932 68.8827 149.903 69.1764C149.863 69.5523 149.448 70.2572 148.416 70.222C147.897 70.2043 147.171 69.987 146.266 69.6992C146.266 69.6992 147.257 71.2088 149.079 72.5422C151.546 74.3572 152.002 75.7552 148.26 76.8126C145.914 77.4763 143.654 76.513 140.495 71.7198C139.584 70.3394 138.161 68.1602 137.284 66.2453C135.007 61.27 133.226 56.8352 132.015 53.7572Z" fill="#FFA8A7"/>
<path d="M125.03 25.7301C128.85 25.7716 132.612 26.6245 133.903 30.6936C135.164 34.6621 136.799 46.1825 136.799 46.1825C136.799 46.1825 135.194 48.3148 129.834 47.9653L125.03 25.7301Z" fill="#DB2761"/>
<path opacity="0.1" d="M125.03 25.7301C128.85 25.7716 132.612 26.6245 133.903 30.6936C135.164 34.6621 136.799 46.1825 136.799 46.1825C136.799 46.1825 135.194 48.3148 129.834 47.9653L125.03 25.7301Z" fill="black"/>
<path d="M132.872 34.2057C132.872 30.1865 130.706 25.361 124.721 25L116.991 25.2347C115.082 25.71 112.957 26.1191 110.96 26.799L109.5 43.8325L108 62.9418C111.509 66.8768 125.334 67.5446 133 61.7746C133 61.7685 132.872 38.2249 132.872 34.2057Z" fill="#DB2761"/>
<path d="M112.388 27.2393C112.388 27.2393 114.666 28.6303 114.919 34.0934C115.301 42.3387 109.358 46.6842 109.358 46.6842L109 51C109 51 117.036 47.7839 118.745 37.3927C119.869 30.5683 116.912 26.199 116.912 26.199C115.585 25.5153 112.314 26.7756 112.388 27.2393Z" fill="#455A64"/>
<path d="M132 31C132 31 129.558 26.1126 125 25.2117C125 25.2117 126.972 24.5378 128.532 25.5947C128.537 25.5947 131.398 26.9851 132 31Z" fill="#455A64"/>
<path d="M112.959 12.1958L114.641 18.8415C115.002 20.2631 116.282 21.2641 117.751 21.2641H119.723V11.9885L112.959 12.1958Z" fill="#263238"/>
<path d="M133.409 11.401C134.313 7.57434 131.943 3.73974 128.116 2.83616C124.29 1.93258 120.455 4.30218 119.552 8.12881C118.648 11.9554 121.018 15.79 124.844 16.6936C128.671 17.5972 132.505 15.2276 133.409 11.401Z" fill="#263238"/>
<path d="M115.482 5.71019C115.482 5.71019 114.227 5.49696 113.243 6.49796C112.284 7.48119 112.479 9.29958 113.243 13.4872L116.217 13.8307L115.482 5.71019Z" fill="#263238"/>
<path d="M116.874 13.8307C116.43 14.0973 115.802 13.2444 115.257 12.6757C114.712 12.1071 112.935 11.3253 112.053 13.197C111.152 15.0983 112.562 17.6097 113.919 18.1723C115.82 18.9542 116.661 17.3017 116.661 17.3017L117.194 25.9612C117.194 25.9612 118.77 29.823 123.046 30.4035C127.322 30.984 126.44 27.4597 125.036 25.7302L125.03 23.0826C125.03 23.0826 127.222 23.4498 128.282 23.2484C129.846 22.9582 130.61 21.507 131.344 19.659C132.44 16.893 133.115 12.9837 132.168 8.02612C130.912 1.45151 123.638 1.31528 119.463 3.9392C115.281 6.56312 116.874 13.8307 116.874 13.8307Z" fill="#FFA8A7"/>
<path d="M116.874 14.5711C116.655 14.577 115.808 13.1732 115.257 12.6757C114.493 11.9827 115.476 5.71015 115.476 5.71015C115.861 0.568923 123.443 0.178 125.54 0.0299236C130.343 -0.313615 133.613 2.34584 132.304 5.69238C131.433 7.21461 129.656 7.63515 127.998 7.83653C125.172 8.18007 120.363 6.66376 119.759 6.58084C118.941 6.4683 118.764 7.262 118.325 9.42984C117.94 11.3311 117.62 14.5592 116.874 14.5711Z" fill="#263238"/>
<path d="M115.482 6.20174L112.811 4.76835C113.19 4.00428 114.096 3.7022 114.831 4.09905C115.571 4.49589 115.861 5.43174 115.482 6.20174Z" fill="#263238"/>
<path d="M125.024 23.0825C125.024 23.0825 121.068 22.2829 119.682 21.5484C118.758 21.0568 117.994 20.2039 117.769 19.6589C117.769 19.6589 118.029 20.8317 118.852 21.8919C119.865 23.1832 125.018 24.1368 125.018 24.1368V23.0825H125.024Z" fill="#F28F8F"/>
<path d="M125.148 13.6886C125.148 14.1447 124.793 14.5119 124.355 14.5119C123.916 14.5119 123.561 14.1388 123.561 13.6886C123.561 13.2325 123.916 12.8653 124.355 12.8653C124.793 12.8594 125.148 13.2325 125.148 13.6886Z" fill="#263238"/>
<path d="M124.308 10.6915L122.614 11.6273C122.365 11.1416 122.542 10.5375 123.01 10.2769C123.478 10.0163 124.059 10.2058 124.308 10.6915Z" fill="#263238"/>
<path d="M124.669 18.9897L126.481 19.6709C126.304 20.1921 125.753 20.4587 125.249 20.2691C124.746 20.0796 124.485 19.5051 124.669 18.9897Z" fill="#F28F8F"/>
<path d="M131.812 11.3548L130.266 10.1643C130.58 9.72003 131.184 9.63118 131.611 9.95695C132.037 10.2827 132.126 10.9106 131.812 11.3548Z" fill="#263238"/>
<path d="M131.338 13.2266C131.338 13.6827 130.983 14.0499 130.545 14.0499C130.106 14.0499 129.751 13.6768 129.751 13.2266C129.751 12.7706 130.106 12.4033 130.545 12.4033C130.983 12.4033 131.338 12.7706 131.338 13.2266Z" fill="#263238"/>
<path d="M128.009 13.3628L127.263 18.0835L129.875 17.7755L128.009 13.3628Z" fill="#F28F8F"/>
<path d="M108.517 44.8616C108.517 44.8616 104.832 53.6396 102.961 59.5508C101.764 63.3297 100.094 68.1807 100.319 71.5036C100.355 72.1077 100.621 72.6586 101.053 73.0791C102.185 74.1867 102.528 75.1463 103.286 76.396C103.879 77.3793 104.501 77.7287 104.341 77.9656C104.133 78.2618 103.464 78.6823 102.576 78.1789C102.131 77.9242 101.592 77.4207 100.935 76.7573C100.935 76.7573 101.13 78.4928 102.126 80.4533C103.464 83.1246 101.581 83.9539 99.5134 83.7406C97.1383 83.4859 95.9004 81.5669 95.2844 76.0525C95.1067 74.4592 95.1363 71.6339 95.3614 69.626C96.0484 63.5903 96.4453 59.0177 97.1857 55.914C99.0041 48.297 101.302 40.4489 103.488 35.2248C104.578 32.6186 106.888 29.6393 109.18 29.3313C113.486 37.1912 108.517 44.8616 108.517 44.8616Z" fill="#FFA8A7"/>
<path d="M111.069 27.4952C108.339 28.3955 105.839 29.7815 104.418 32.441C101.634 37.6711 98.8086 48.1905 98.8086 48.1905C100.23 49.8548 104.98 51.3238 107.361 50.6011L109.589 44.2575L111.768 39.9396C111.768 39.9455 116.027 30.6285 111.069 27.4952Z" fill="#DB2761"/>
<path opacity="0.1" d="M111.069 27.4952C108.339 28.3955 105.839 29.7815 104.418 32.441C101.634 37.6711 98.8086 48.1905 98.8086 48.1905C100.23 49.8548 104.98 51.3238 107.361 50.6011L109.589 44.2575L111.768 39.9396C111.768 39.9455 116.027 30.6285 111.069 27.4952Z" fill="black"/>
<path d="M100.929 76.7574C99.9459 76.5027 98.9804 75.9045 98.5895 76.9114C98.1986 77.9184 98.5303 79.9381 99.4128 80.8562C100.295 81.7743 102.753 82.4377 103.34 81.9223C103.932 81.413 102.694 77.2194 100.929 76.7574Z" fill="#B16668"/>
<path d="M11.6034 32.7134C11.479 32.7134 11.3487 32.6601 11.2657 32.5535C11.1058 32.3639 11.1295 32.0856 11.319 31.9256C11.781 31.5347 12.2608 31.1556 12.7287 30.8062C12.9242 30.6581 13.2026 30.6996 13.3507 30.895C13.4987 31.0905 13.4573 31.3689 13.2618 31.5169C12.8057 31.8605 12.3437 32.2277 11.8877 32.6068C11.8047 32.6838 11.704 32.7134 11.6034 32.7134Z" fill="#1B2543"/>
<path d="M29.6864 83.4149C29.1001 83.4149 28.5018 83.403 27.9095 83.3734C27.6667 83.3616 27.4771 83.1543 27.489 82.9114C27.5008 82.6686 27.7141 82.479 27.951 82.4909C29.1652 82.5442 30.3854 82.5442 31.5522 82.485C31.801 82.4731 32.0083 82.6627 32.0201 82.9055C32.032 83.1483 31.8424 83.3616 31.5996 83.3734C30.9717 83.3971 30.3321 83.4149 29.6864 83.4149ZM24.9006 83.1128C24.8828 83.1128 24.8651 83.1128 24.8473 83.1069C23.6271 82.9588 22.407 82.7456 21.2105 82.485C20.9736 82.4317 20.8196 82.1947 20.8729 81.9578C20.9262 81.7209 21.1631 81.5669 21.4001 81.6202C22.5669 81.8749 23.7634 82.0763 24.9539 82.2244C25.1968 82.254 25.3685 82.479 25.3389 82.7219C25.3152 82.947 25.1198 83.1128 24.9006 83.1128ZM34.6026 83.0654C34.3834 83.0654 34.1939 82.9055 34.1643 82.6864C34.1287 82.4435 34.2946 82.2184 34.5374 82.1829C35.7813 81.9993 36.96 81.7387 38.0321 81.4129C38.269 81.3418 38.5177 81.4721 38.5888 81.709C38.6599 81.946 38.5296 82.1888 38.2927 82.2658C37.1791 82.6034 35.959 82.8759 34.6677 83.0654C34.6441 83.0595 34.6204 83.0654 34.6026 83.0654ZM18.3674 81.7209C18.3201 81.7209 18.2786 81.715 18.2312 81.6972C17.0466 81.3122 15.8857 80.8502 14.7899 80.3171C14.5708 80.2105 14.476 79.944 14.5885 79.7248C14.6951 79.5057 14.9617 79.4109 15.1808 79.5234C16.2411 80.0387 17.3546 80.4889 18.5037 80.8561C18.7347 80.9331 18.865 81.1819 18.788 81.4129C18.7288 81.6024 18.557 81.7209 18.3674 81.7209ZM12.3437 78.866C12.2608 78.866 12.1778 78.8423 12.1008 78.7949C11.0702 78.1197 10.0751 77.3615 9.15707 76.5382C8.97346 76.3724 8.95569 76.094 9.12153 75.9104C9.28738 75.7267 9.56576 75.709 9.74938 75.8748C10.6378 76.6685 11.5915 77.397 12.5865 78.0486C12.7938 78.1848 12.8471 78.4573 12.7168 78.6646C12.6339 78.7949 12.4918 78.866 12.3437 78.866ZM7.31499 74.4888C7.19061 74.4888 7.06623 74.4355 6.9833 74.3348C6.17776 73.4167 5.42553 72.4217 4.7503 71.3792C4.61407 71.1719 4.6733 70.8994 4.88061 70.7632C5.08792 70.627 5.36038 70.6862 5.49661 70.8935C6.15407 71.9004 6.87669 72.86 7.65853 73.7484C7.81846 73.9321 7.80069 74.2164 7.61707 74.3763C7.5223 74.4533 7.42161 74.4888 7.31499 74.4888ZM3.60715 68.9507C3.44723 68.9507 3.28731 68.8619 3.21031 68.7079C2.66538 67.6181 2.17377 66.4749 1.76508 65.3021C1.68215 65.0711 1.80654 64.8164 2.03754 64.7335C2.26854 64.6506 2.52323 64.775 2.60615 65.006C3.00892 66.1432 3.47684 67.2508 4.00992 68.3111C4.12246 68.5302 4.03361 68.7967 3.81446 68.9093C3.74338 68.933 3.67231 68.9507 3.60715 68.9507ZM1.32085 62.6841C1.11946 62.6841 0.941769 62.5479 0.888461 62.3465C0.59823 61.156 0.379077 59.9299 0.231 58.7098C0.201384 58.4669 0.373154 58.2418 0.616 58.2181C0.858846 58.1885 1.078 58.3603 1.10761 58.6031C1.24977 59.7937 1.46892 60.9842 1.74731 62.1392C1.80654 62.3761 1.65846 62.619 1.42154 62.6782C1.386 62.6782 1.35046 62.6841 1.32085 62.6841ZM0.450154 56.0621C0.207308 56.0621 0.0118461 55.8667 0.00592307 55.6238C0 55.4343 0 55.2388 0 55.0493C0 54.0068 0.0592307 52.9584 0.177692 51.9278C0.207308 51.685 0.426461 51.5073 0.669307 51.5369C0.912153 51.5665 1.08985 51.7857 1.06023 52.0285C0.947692 53.0236 0.888461 54.0364 0.888461 55.0493C0.888461 55.2388 0.888461 55.4224 0.894384 55.612C0.900307 55.8548 0.704846 56.0621 0.456077 56.0621H0.450154ZM1.12538 49.4283C1.08985 49.4283 1.06023 49.4224 1.02469 49.4165C0.787769 49.3631 0.633769 49.1262 0.692999 48.8834C0.965461 47.6928 1.32085 46.4964 1.75323 45.3355C1.83615 45.1045 2.09677 44.986 2.32184 45.0748C2.55284 45.1578 2.67131 45.4184 2.58246 45.6435C2.16192 46.7688 1.81838 47.9298 1.55777 49.0788C1.51038 49.2861 1.32677 49.4283 1.12538 49.4283ZM3.37023 43.1439C3.30507 43.1439 3.234 43.1321 3.17477 43.0965C2.95561 42.9899 2.86677 42.7234 2.97338 42.5042C3.51238 41.4144 4.12838 40.3305 4.80954 39.2939C4.94577 39.0866 5.21823 39.0274 5.42553 39.1636C5.63284 39.2998 5.69207 39.5723 5.55584 39.7796C4.89838 40.7925 4.30015 41.8408 3.773 42.9011C3.69007 43.0551 3.53607 43.1439 3.37023 43.1439ZM6.95369 37.5111C6.85892 37.5111 6.75823 37.4815 6.6753 37.4163C6.48576 37.2623 6.45023 36.9839 6.60423 36.7944C7.3683 35.8348 8.19161 34.9049 9.05046 34.0283C9.22222 33.8565 9.50653 33.8506 9.6783 34.0224C9.85599 34.1942 9.85599 34.4785 9.68422 34.6502C8.84315 35.5032 8.04353 36.4094 7.29723 37.3452C7.2143 37.4518 7.08399 37.5111 6.95369 37.5111Z" fill="#1B2543"/>
<path d="M41.0173 81.1464C40.8574 81.1464 40.6974 81.0575 40.6204 80.9035C40.5079 80.6844 40.5967 80.4178 40.8159 80.3053C41.349 80.0328 41.8406 79.7367 42.2789 79.4227C42.4803 79.2806 42.7587 79.328 42.9008 79.5234C43.043 79.7248 42.9956 80.0032 42.8001 80.1454C42.3263 80.483 41.7991 80.8087 41.2246 81.099C41.1535 81.1286 41.0824 81.1464 41.0173 81.1464Z" fill="#1B2543"/>
<path d="M30.2254 18.658L15.9626 11.9175L16.5905 11.5858L30.178 14.2867L31.5403 13.57C31.7891 13.4397 32.1918 13.4575 32.4406 13.6115C32.6834 13.7655 32.6775 13.9965 32.4288 14.1327L31.5936 14.571L36.2788 15.5484L30.2254 18.658Z" fill="#8B221E"/>
<path opacity="0.1" d="M30.2254 18.658L15.9626 11.9175L16.5905 11.5858L30.178 14.2867L31.5403 13.57C31.7891 13.4397 32.1918 13.4575 32.4406 13.6115C32.6834 13.7655 32.6775 13.9965 32.4288 14.1327L31.5936 14.571L36.2788 15.5484L30.2254 18.658Z" fill="black"/>
<path d="M34.2117 15.0923C40.6382 11.7221 45.8387 9.80893 47.4083 10.7981C48.9779 11.7872 45.2167 14.6007 38.8198 17.9946L33.1633 20.7311C27.4949 23.278 21.6725 25.4695 21.6725 25.4695L21.9391 29.3906L21.3764 29.6868L18.8295 26.8615C18.8295 26.8615 17.4079 27.5426 16.6142 27.0392C15.8205 26.5416 17.1236 25.7835 17.1236 25.7835L12.4681 24.0717L13.0308 23.7755L19.7831 24.2731C19.7831 24.2731 24.0891 21.122 28.9875 18.0953L34.2117 15.0923Z" fill="#8B221E"/>
<path d="M41.2129 19.6649L39.8506 20.3816L43.3216 28.4192L42.6937 28.7509L33.1635 20.7369L38.82 18.0005L39.4893 19.5464L40.3245 19.1081C40.5732 18.9778 40.976 18.9956 41.2248 19.1496C41.4676 19.2976 41.4617 19.5346 41.2129 19.6649Z" fill="#8B221E"/>
<path opacity="0.1" d="M41.213 19.6648L39.8507 20.3815L43.3216 28.4191L42.6938 28.7508L31.9256 19.7122L38.1685 16.5315L39.4894 19.5523L40.3245 19.114C40.5733 18.9836 40.9761 19.0014 41.2248 19.1554C41.4677 19.2976 41.4618 19.5345 41.213 19.6648Z" fill="black"/>
<path d="M182.709 63.6674C176.466 67.3693 171.372 69.549 169.755 68.6428C168.138 67.7365 171.745 64.7276 177.953 61.0079L183.461 57.9753C188.988 55.1381 194.691 52.6445 194.691 52.6445L194.224 48.7472L194.774 48.4214L197.463 51.1105C197.463 51.1105 198.849 50.3582 199.667 50.8143C200.484 51.2704 199.229 52.0937 199.229 52.0937L203.967 53.5567L203.416 53.8825L196.652 53.7344C196.652 53.7344 192.518 57.1046 187.779 60.386L182.709 63.6674Z" fill="#DB2761"/>
<path d="M175.483 59.474L176.804 58.6862L172.918 50.8381L173.528 50.4768L183.467 57.9873L177.959 61.0199L177.207 59.5036L176.395 59.9893C176.152 60.1373 175.75 60.1373 175.495 59.9952C175.246 59.8471 175.24 59.6161 175.483 59.474Z" fill="#DB2761"/>
<path opacity="0.1" d="M175.483 59.474L176.804 58.6862L172.918 50.8381L173.528 50.4768L183.467 57.9873L177.959 61.0199L177.207 59.5036L176.395 59.9893C176.152 60.1373 175.75 60.1373 175.495 59.9952C175.246 59.8471 175.24 59.6161 175.483 59.474Z" fill="black"/>
<path d="M186.506 59.9062L201.1 65.8886L200.49 66.2499L186.778 64.2597L185.457 65.0475C185.215 65.1956 184.812 65.1956 184.557 65.0534C184.302 64.9112 184.297 64.6802 184.545 64.5322L185.357 64.0465L180.624 63.312L186.506 59.9062Z" fill="#DB2761"/>
<path opacity="0.1" d="M186.506 59.9062L201.1 65.8886L200.49 66.2499L186.778 64.2597L185.457 65.0475C185.215 65.1956 184.812 65.1956 184.557 65.0534C184.302 64.9112 184.297 64.6802 184.545 64.5322L185.357 64.0465L180.624 63.312L186.506 59.9062Z" fill="black"/>
<path d="M202.99 46.8933C202.883 46.8933 202.776 46.8578 202.693 46.7808C202.51 46.615 202.492 46.3366 202.658 46.153C203.428 45.2882 204.115 44.3464 204.701 43.3573C204.826 43.144 205.098 43.0789 205.311 43.2033C205.525 43.3277 205.59 43.6001 205.465 43.8133C204.849 44.8499 204.133 45.839 203.321 46.7453C203.232 46.846 203.108 46.8933 202.99 46.8933ZM206.378 41.373C206.324 41.373 206.271 41.3612 206.218 41.3434C205.987 41.2546 205.874 40.994 205.963 40.7689C206.384 39.6968 206.697 38.5773 206.905 37.4342C206.946 37.1913 207.183 37.0314 207.42 37.0788C207.663 37.1203 207.823 37.3513 207.775 37.5941C207.556 38.7906 207.225 39.9693 206.786 41.0887C206.721 41.2664 206.555 41.373 206.378 41.373ZM207.639 35.0176C207.633 35.0176 207.633 35.0176 207.627 35.0176C207.385 35.0117 207.189 34.8043 207.195 34.5615C207.201 34.4075 207.201 34.2594 207.201 34.1054C207.201 33.1104 207.124 32.1034 206.97 31.1024C206.934 30.8596 207.1 30.6345 207.343 30.593C207.592 30.5575 207.811 30.7234 207.852 30.9662C208.012 32.0146 208.095 33.0689 208.095 34.1054C208.095 34.2654 208.095 34.4253 208.089 34.5852C208.078 34.8221 207.882 35.0176 207.639 35.0176ZM206.751 28.591C206.561 28.591 206.384 28.4667 206.324 28.2771C205.993 27.1814 205.566 26.0915 205.051 25.0372C204.944 24.818 205.033 24.5515 205.258 24.4449C205.477 24.3383 205.744 24.433 205.85 24.6522C206.384 25.748 206.828 26.8793 207.171 28.0224C207.242 28.2594 207.112 28.5081 206.875 28.5792C206.834 28.5851 206.792 28.591 206.751 28.591ZM203.997 22.7094C203.848 22.7094 203.706 22.6384 203.623 22.5081C203.001 21.5485 202.297 20.6067 201.533 19.7124C201.373 19.5287 201.396 19.2444 201.58 19.0845C201.764 18.9246 202.048 18.9424 202.208 19.1319C203.001 20.0559 203.73 21.0273 204.376 22.0224C204.506 22.2297 204.453 22.5021 204.245 22.6384C204.162 22.6857 204.079 22.7094 203.997 22.7094ZM199.821 17.7281C199.714 17.7281 199.602 17.6867 199.519 17.6097C198.689 16.8278 197.789 16.0697 196.836 15.3589C196.64 15.2108 196.599 14.9324 196.747 14.737C196.895 14.5415 197.173 14.5001 197.369 14.6481C198.346 15.3767 199.27 16.1585 200.129 16.9641C200.306 17.1299 200.318 17.4142 200.147 17.5919C200.058 17.6807 199.939 17.7281 199.821 17.7281ZM194.656 13.7774C194.579 13.7774 194.496 13.7538 194.425 13.7123C194.016 13.4576 193.602 13.2088 193.175 12.9719C192.583 12.6343 191.973 12.3085 191.363 11.9946C191.143 11.8821 191.061 11.6155 191.167 11.3964C191.28 11.1772 191.546 11.0884 191.765 11.2009C192.387 11.5208 193.009 11.8524 193.613 12.196C194.052 12.4448 194.478 12.6994 194.899 12.9541C195.106 13.0844 195.171 13.3569 195.041 13.5642C194.952 13.7004 194.804 13.7774 194.656 13.7774ZM141.556 13.4754C141.402 13.4754 141.253 13.3984 141.171 13.2503C141.046 13.0371 141.123 12.7646 141.33 12.6461C142.361 12.0538 143.427 11.4852 144.493 10.964C144.712 10.8574 144.979 10.9462 145.086 11.1654C145.192 11.3845 145.103 11.6511 144.884 11.7577C143.83 12.273 142.788 12.8298 141.775 13.4102C141.71 13.4576 141.633 13.4754 141.556 13.4754ZM188.887 10.7685C188.828 10.7685 188.768 10.7567 188.709 10.733C187.637 10.2651 186.541 9.82675 185.44 9.42991C185.209 9.34699 185.09 9.09229 185.173 8.86129C185.256 8.63029 185.511 8.51183 185.742 8.59476C186.861 8.99752 187.981 9.44175 189.07 9.92152C189.295 10.0222 189.396 10.2828 189.295 10.5079C189.218 10.6678 189.059 10.7685 188.887 10.7685ZM147.39 10.5849C147.218 10.5849 147.052 10.4842 146.981 10.3124C146.886 10.0874 146.993 9.82675 147.218 9.73199C148.314 9.27591 149.439 8.84352 150.564 8.45852C150.801 8.3756 151.05 8.49999 151.127 8.73691C151.204 8.96791 151.08 9.2226 150.849 9.2996C149.741 9.67868 148.634 10.0992 147.556 10.5494C147.508 10.5731 147.449 10.5849 147.39 10.5849ZM182.768 8.54145C182.727 8.54145 182.685 8.53552 182.644 8.52368C181.524 8.19791 180.375 7.90176 179.232 7.64706C178.995 7.59376 178.841 7.35683 178.895 7.11991C178.948 6.88299 179.185 6.72899 179.422 6.78229C180.589 7.03699 181.755 7.33906 182.893 7.67076C183.13 7.74183 183.266 7.98468 183.195 8.2216C183.141 8.41114 182.964 8.54145 182.768 8.54145ZM153.538 8.44076C153.342 8.44076 153.165 8.31045 153.111 8.11499C153.046 7.87806 153.182 7.63522 153.419 7.57006C154.563 7.25022 155.735 6.95999 156.902 6.71714C157.139 6.66383 157.376 6.81783 157.429 7.06068C157.483 7.30353 157.329 7.53453 157.086 7.58783C155.937 7.83068 154.788 8.11499 153.662 8.42891C153.621 8.43483 153.579 8.44076 153.538 8.44076ZM176.419 7.10806C176.395 7.10806 176.371 7.10806 176.348 7.10214C175.193 6.91853 174.02 6.77045 172.853 6.66383C172.61 6.64014 172.427 6.42691 172.45 6.17814C172.474 5.9353 172.687 5.7576 172.936 5.77537C174.121 5.88199 175.317 6.03599 176.49 6.22553C176.733 6.26699 176.898 6.49206 176.857 6.73491C176.821 6.94814 176.632 7.10806 176.419 7.10806ZM159.899 7.0666C159.686 7.0666 159.496 6.90668 159.461 6.68753C159.425 6.44468 159.591 6.2196 159.834 6.17814C161.013 5.99453 162.209 5.85237 163.394 5.75168C163.637 5.73391 163.856 5.9116 163.874 6.15445C163.897 6.3973 163.714 6.61645 163.471 6.63422C162.31 6.73491 161.131 6.87706 159.97 7.05476C159.947 7.06068 159.923 7.0666 159.899 7.0666ZM169.939 6.4743C169.933 6.4743 169.927 6.4743 169.921 6.4743C168.748 6.43283 167.57 6.43283 166.397 6.46837C166.148 6.48614 165.947 6.28476 165.941 6.03599C165.935 5.79314 166.124 5.58583 166.373 5.57991C167.564 5.54437 168.76 5.54437 169.957 5.58583C170.199 5.59176 170.395 5.79906 170.383 6.04783C170.371 6.28476 170.176 6.4743 169.939 6.4743Z" fill="#37474F"/>
</svg>
