<svg width="197" height="208" viewBox="0 0 197 208" fill="none" xmlns="http://www.w3.org/2000/svg">
<path d="M177.897 132.067H4.15394C1.85121 132.067 0 130.2 0 127.912V20.7291C0 18.4258 1.86626 16.5742 4.15394 16.5742H177.897C180.2 16.5742 182.051 18.4409 182.051 20.7291V127.912C182.051 130.215 180.2 132.067 177.897 132.067Z" fill="#F9FBFC"/>
<path d="M63.8442 120.761H13.124C12.0404 120.761 11.1675 119.888 11.1675 118.804V30.6193C11.1675 29.5355 12.0404 28.6624 13.124 28.6624H63.8442C64.9279 28.6624 65.8008 29.5355 65.8008 30.6193V118.804C65.8008 119.888 64.9279 120.761 63.8442 120.761Z" fill="#98CFD6"/>
<path d="M54.3474 43.8817H22.1092C21.2513 43.8817 20.5439 43.1893 20.5439 42.3162V37.6344C20.5439 36.7764 21.2363 36.0688 22.1092 36.0688H54.3624C55.2203 36.0688 55.9277 36.7613 55.9277 37.6344V42.3162C55.9126 43.1893 55.2203 43.8817 54.3474 43.8817Z" fill="#6DB8FF"/>
<path d="M32.3737 87.2668H25.3451C23.6896 87.2668 22.3501 85.927 22.3501 84.2711C22.3501 82.6152 23.6896 81.2754 25.3451 81.2754H32.3737C34.0293 81.2754 35.3688 82.6152 35.3688 84.2711C35.3688 85.927 34.0293 87.2668 32.3737 87.2668Z" fill="#6DB8FF"/>
<path d="M52.6616 87.2668H45.633C43.9774 87.2668 42.6379 85.927 42.6379 84.2711C42.6379 82.6152 43.9774 81.2754 45.633 81.2754H52.6616C54.3171 81.2754 55.6566 82.6152 55.6566 84.2711C55.6566 85.927 54.3171 87.2668 52.6616 87.2668Z" fill="#9570EE"/>
<path d="M57.7336 51.6946H19.7612V57.6709H57.7336V51.6946Z" fill="#F9FBFC"/>
<path d="M57.7336 61.8408H19.7612V67.8172H57.7336V61.8408Z" fill="#F9FBFC"/>
<path d="M49.8021 71.5957H27.9487V72.9656H49.8021V71.5957Z" fill="#CDD4FF"/>
<path d="M178.348 103.72H110.079C105.88 103.72 102.479 100.318 102.479 96.1183C102.479 91.9183 105.88 88.5161 110.079 88.5161H178.348C182.547 88.5161 185.949 91.9183 185.949 96.1183C185.964 100.318 182.547 103.72 178.348 103.72Z" fill="#7A4866"/>
<path d="M119.245 39.1999H76.7274C73.2808 39.1999 70.4814 36.4 70.4814 32.9526C70.4814 29.5053 73.2808 26.7053 76.7274 26.7053H119.245C122.692 26.7053 125.491 29.5053 125.491 32.9526C125.491 36.415 122.692 39.1999 119.245 39.1999Z" fill="#E3EAFF"/>
<path d="M86.8714 32.9526C86.8714 34.0365 85.9984 34.9096 84.9148 34.9096C83.8312 34.9096 82.9583 34.0365 82.9583 32.9526C82.9583 31.8687 83.8312 30.9956 84.9148 30.9956C85.9984 31.0107 86.8714 31.8838 86.8714 32.9526Z" fill="#FFC240"/>
<path d="M100.266 32.9526C100.266 34.0365 99.3935 34.9096 98.3098 34.9096C97.2262 34.9096 96.3533 34.0365 96.3533 32.9526C96.3533 31.8687 97.2262 30.9956 98.3098 30.9956C99.3935 30.9956 100.266 31.8838 100.266 32.9526Z" fill="#90C240"/>
<path d="M112.608 32.9526C112.608 34.0365 111.735 34.9096 110.651 34.9096C109.568 34.9096 108.695 34.0365 108.695 32.9526C108.695 31.8687 109.568 30.9956 110.651 30.9956C111.735 31.0107 112.608 31.8838 112.608 32.9526Z" fill="#EB4F24"/>
<path d="M125.416 79.4838H89.7309C88.0302 79.4838 86.6606 78.0988 86.6606 76.4128V55.0666C86.6606 53.3655 88.0453 51.9956 89.7309 51.9956H125.431C127.131 51.9956 128.501 53.3806 128.501 55.0666V76.4128C128.501 78.0988 127.116 79.4838 125.416 79.4838Z" fill="#E3EAFF"/>
<path d="M107.611 65.529H107.536C107.355 65.529 107.159 65.4838 106.994 65.3935L90.8596 56.4215C90.3329 56.1204 90.1372 55.458 90.4382 54.9312C90.7392 54.4043 91.4014 54.2086 91.9282 54.5096L107.566 63.1957L123.203 54.5096C123.73 54.2086 124.407 54.4043 124.693 54.9312C124.994 55.458 124.798 56.1355 124.272 56.4215L108.138 65.3935C107.987 65.4688 107.806 65.529 107.611 65.529Z" fill="#FD4940"/>
<path d="M187.123 76.6688H140.692C139.187 76.6688 137.968 75.4494 137.968 73.944V12.2838C137.968 10.7784 139.187 9.55908 140.692 9.55908H187.123C188.628 9.55908 189.847 10.7784 189.847 12.2838V73.944C189.862 75.4343 188.643 76.6688 187.123 76.6688Z" fill="#152B49"/>
<path d="M149.572 18.5462H146.11C145.93 18.5462 145.779 18.2451 145.779 17.8838C145.779 17.5075 145.93 17.2214 146.11 17.2214H149.572C149.752 17.2214 149.903 17.5225 149.903 17.8838C149.903 18.2451 149.752 18.5462 149.572 18.5462Z" fill="#00CCFF"/>
<path d="M170.973 18.5462H151.197C151.016 18.5462 150.866 18.2451 150.866 17.8838C150.866 17.5075 151.016 17.2214 151.197 17.2214H170.973C171.154 17.2214 171.305 17.5225 171.305 17.8838C171.305 18.2451 171.154 18.5462 170.973 18.5462Z" fill="#00CCFF"/>
<path d="M157.503 21.3009H151.197C151.016 21.3009 150.866 20.9999 150.866 20.6386C150.866 20.2622 151.016 19.9762 151.197 19.9762H157.503C157.684 19.9762 157.834 20.2773 157.834 20.6386C157.834 21.0149 157.684 21.3009 157.503 21.3009Z" fill="#FF56A9"/>
<path d="M167.873 21.3009H158.783C158.602 21.3009 158.451 20.9999 158.451 20.6386C158.451 20.2622 158.602 19.9762 158.783 19.9762H167.873C168.054 19.9762 168.204 20.2773 168.204 20.6386C168.204 21.0149 168.054 21.3009 167.873 21.3009Z" fill="#E3EAFF"/>
<path d="M170.973 34.7591H151.197C151.016 34.7591 150.866 34.458 150.866 34.0967C150.866 33.7203 151.016 33.4343 151.197 33.4343H170.973C171.154 33.4343 171.305 33.7354 171.305 34.0967C171.305 34.458 171.154 34.7591 170.973 34.7591Z" fill="#E3EAFF"/>
<path d="M149.572 37.529H146.11C145.93 37.529 145.779 37.2279 145.779 36.8666C145.779 36.4902 145.93 36.2042 146.11 36.2042H149.572C149.752 36.2042 149.903 36.5053 149.903 36.8666C149.903 37.2279 149.752 37.529 149.572 37.529Z" fill="#00CCFF"/>
<path d="M157.503 37.529H151.197C151.016 37.529 150.866 37.2279 150.866 36.8666C150.866 36.4902 151.016 36.2042 151.197 36.2042H157.503C157.684 36.2042 157.834 36.5053 157.834 36.8666C157.834 37.2279 157.684 37.529 157.503 37.529Z" fill="#E3EAFF"/>
<path d="M167.873 37.529H158.783C158.602 37.529 158.451 37.2279 158.451 36.8666C158.451 36.4902 158.602 36.2042 158.783 36.2042H167.873C168.054 36.2042 168.204 36.5053 168.204 36.8666C168.204 37.2279 168.054 37.529 167.873 37.529Z" fill="#FF56A9"/>
<path d="M175.865 24.0709H151.182C151.002 24.0709 150.851 23.7699 150.851 23.4086C150.851 23.0322 151.002 22.7462 151.182 22.7462H175.865C176.046 22.7462 176.196 23.0473 176.196 23.4086C176.211 23.7699 176.061 24.0709 175.865 24.0709Z" fill="#FF56A9"/>
<path d="M170.703 26.8408H164.953C164.758 26.8408 164.607 26.6903 164.607 26.4946V25.8623C164.607 25.6667 164.758 25.5161 164.953 25.5161H170.703C170.898 25.5161 171.049 25.6667 171.049 25.8623V26.4946C171.049 26.6753 170.898 26.8408 170.703 26.8408Z" fill="#00CCFF"/>
<path d="M159.385 26.8408H151.182C151.002 26.8408 150.851 26.5398 150.851 26.1785C150.851 25.8021 151.002 25.5161 151.182 25.5161H159.385C159.565 25.5161 159.716 25.8172 159.716 26.1785C159.716 26.5398 159.58 26.8408 159.385 26.8408Z" fill="#E3EAFF"/>
<path d="M163.749 26.8408H160.499C160.318 26.8408 160.167 26.5398 160.167 26.1785C160.167 25.8021 160.318 25.5161 160.499 25.5161H163.749C163.93 25.5161 164.081 25.8172 164.081 26.1785C164.081 26.5398 163.93 26.8408 163.749 26.8408Z" fill="#00CCFF"/>
<path d="M149.572 29.5053H146.11C145.93 29.5053 145.779 29.2042 145.779 28.8429C145.779 28.4666 145.93 28.1805 146.11 28.1805H149.572C149.752 28.1805 149.903 28.4816 149.903 28.8429C149.903 29.2042 149.752 29.5053 149.572 29.5053Z" fill="#E3EAFF"/>
<path d="M175.865 29.5053H151.182C151.002 29.5053 150.851 29.2042 150.851 28.8429C150.851 28.4666 151.002 28.1805 151.182 28.1805H175.865C176.046 28.1805 176.196 28.4816 176.196 28.8429C176.211 29.2042 176.061 29.5053 175.865 29.5053Z" fill="#E3EAFF"/>
<path d="M149.572 40.0882H146.11C145.93 40.0882 145.779 39.7871 145.779 39.4258C145.779 39.0494 145.93 38.7634 146.11 38.7634H149.572C149.752 38.7634 149.903 39.0645 149.903 39.4258C149.903 39.7871 149.752 40.0882 149.572 40.0882Z" fill="#E3EAFF"/>
<path d="M173.111 40.0881H165.014C164.788 40.0881 164.592 39.9075 164.592 39.6666V39.1548C164.592 38.929 164.773 38.7333 165.014 38.7333H173.111C173.337 38.7333 173.532 38.9139 173.532 39.1548V39.6666C173.532 39.8924 173.337 40.0881 173.111 40.0881Z" fill="#E3EAFF"/>
<path d="M159.385 40.0882H151.182C151.002 40.0882 150.851 39.7871 150.851 39.4258C150.851 39.0494 151.002 38.7634 151.182 38.7634H159.385C159.565 38.7634 159.716 39.0645 159.716 39.4258C159.716 39.7871 159.58 40.0882 159.385 40.0882Z" fill="#E3EAFF"/>
<path d="M163.749 40.0882H160.499C160.318 40.0882 160.167 39.7871 160.167 39.4258C160.167 39.0494 160.318 38.7634 160.499 38.7634H163.749C163.93 38.7634 164.081 39.0645 164.081 39.4258C164.081 39.7871 163.93 40.0882 163.749 40.0882Z" fill="#E3EAFF"/>
<path d="M149.572 42.7526H146.11C145.93 42.7526 145.779 42.4515 145.779 42.0902C145.779 41.7139 145.93 41.4279 146.11 41.4279H149.572C149.752 41.4279 149.903 41.7289 149.903 42.0902C149.903 42.4515 149.752 42.7526 149.572 42.7526Z" fill="#FFC359"/>
<path d="M155.471 42.7526H151.197C151.016 42.7526 150.866 42.4515 150.866 42.0902C150.866 41.7139 151.016 41.4279 151.197 41.4279H155.471C155.652 41.4279 155.803 41.7289 155.803 42.0902C155.803 42.4515 155.652 42.7526 155.471 42.7526Z" fill="#00CCFF"/>
<path d="M146.11 32.2752C145.93 32.2752 145.779 31.9741 145.779 31.6128C145.779 31.2365 145.93 30.9504 146.11 30.9504H149.572C149.752 30.9504 149.903 31.2515 149.903 31.6128C149.903 31.9891 149.752 32.2752 149.572 32.2752" fill="#00CCFF"/>
<path d="M174.24 32.2752H165.044C164.803 32.2752 164.607 32.0795 164.607 31.8386V31.387C164.607 31.1461 164.803 30.9504 165.044 30.9504H174.24C174.48 30.9504 174.676 31.1461 174.676 31.387V31.8386C174.691 32.0795 174.48 32.2752 174.24 32.2752Z" fill="#E3EAFF"/>
<path d="M159.385 32.2752H151.182C151.002 32.2752 150.851 31.9741 150.851 31.6128C150.851 31.2365 151.002 30.9504 151.182 30.9504H159.385C159.565 30.9504 159.716 31.2515 159.716 31.6128C159.716 31.9741 159.58 32.2752 159.385 32.2752Z" fill="#FFC359"/>
<path d="M163.749 32.2752H160.499C160.318 32.2752 160.167 31.9741 160.167 31.6128C160.167 31.2365 160.318 30.9504 160.499 30.9504H163.749C163.93 30.9504 164.081 31.2515 164.081 31.6128C164.081 31.9741 163.93 32.2752 163.749 32.2752Z" fill="#FFC359"/>
<path d="M170.973 45.5978H151.197C151.016 45.5978 150.866 45.2967 150.866 44.9354C150.866 44.5591 151.016 44.2731 151.197 44.2731H170.973C171.154 44.2731 171.305 44.5741 171.305 44.9354C171.305 45.2967 171.154 45.5978 170.973 45.5978Z" fill="#E3EAFF"/>
<path d="M157.503 48.3677H151.197C151.016 48.3677 150.866 48.0666 150.866 47.7053C150.866 47.329 151.016 47.043 151.197 47.043H157.503C157.684 47.043 157.834 47.344 157.834 47.7053C157.834 48.0666 157.684 48.3677 157.503 48.3677Z" fill="#E3EAFF"/>
<path d="M167.873 48.3677H158.783C158.602 48.3677 158.451 48.0666 158.451 47.7053C158.451 47.329 158.602 47.043 158.783 47.043H167.873C168.054 47.043 168.204 47.344 168.204 47.7053C168.204 48.0666 168.054 48.3677 167.873 48.3677Z" fill="#E3EAFF"/>
<path d="M170.973 61.8107H151.197C151.016 61.8107 150.866 61.5096 150.866 61.1483C150.866 60.772 151.016 60.486 151.197 60.486H170.973C171.154 60.486 171.305 60.787 171.305 61.1483C171.305 61.5247 171.154 61.8107 170.973 61.8107Z" fill="#E3EAFF"/>
<path d="M149.572 64.5806H146.11C145.93 64.5806 145.779 64.2795 145.779 63.9182C145.779 63.5419 145.93 63.2559 146.11 63.2559H149.572C149.752 63.2559 149.903 63.5569 149.903 63.9182C149.903 64.2795 149.752 64.5806 149.572 64.5806Z" fill="#FF56A9"/>
<path d="M157.503 64.5806H151.197C151.016 64.5806 150.866 64.2795 150.866 63.9182C150.866 63.5419 151.016 63.2559 151.197 63.2559H157.503C157.684 63.2559 157.834 63.5569 157.834 63.9182C157.834 64.2795 157.684 64.5806 157.503 64.5806Z" fill="#00CCFF"/>
<path d="M167.873 64.5806H158.783C158.602 64.5806 158.451 64.2795 158.451 63.9182C158.451 63.5419 158.602 63.2559 158.783 63.2559H167.873C168.054 63.2559 168.204 63.5569 168.204 63.9182C168.204 64.2795 168.054 64.5806 167.873 64.5806Z" fill="#E3EAFF"/>
<path d="M149.572 51.1226H146.11C145.93 51.1226 145.779 50.8215 145.779 50.4602C145.779 50.0839 145.93 49.7979 146.11 49.7979H149.572C149.752 49.7979 149.903 50.0989 149.903 50.4602C149.903 50.8215 149.752 51.1226 149.572 51.1226Z" fill="#FF56A9"/>
<path d="M168.851 51.1225H151.272C151.047 51.1225 150.866 50.9419 150.866 50.716V50.1892C150.866 49.9634 151.047 49.7827 151.272 49.7827H168.851C169.077 49.7827 169.258 49.9634 169.258 50.1892V50.716C169.243 50.9419 169.062 51.1225 168.851 51.1225Z" fill="#FF56A9"/>
<path d="M149.572 53.8924H146.11C145.93 53.8924 145.779 53.5913 145.779 53.23C145.779 52.8536 145.93 52.5676 146.11 52.5676H149.572C149.752 52.5676 149.903 52.8687 149.903 53.23C149.903 53.5913 149.752 53.8924 149.572 53.8924Z" fill="#E3EAFF"/>
<path d="M159.385 53.8924H151.182C151.002 53.8924 150.851 53.5913 150.851 53.23C150.851 52.8536 151.002 52.5676 151.182 52.5676H159.385C159.565 52.5676 159.716 52.8687 159.716 53.23C159.716 53.5913 159.58 53.8924 159.385 53.8924Z" fill="#E3EAFF"/>
<path d="M163.749 53.8924H160.499C160.318 53.8924 160.167 53.5913 160.167 53.23C160.167 52.8536 160.318 52.5676 160.499 52.5676H163.749C163.93 52.5676 164.081 52.8687 164.081 53.23C164.081 53.5913 163.93 53.8924 163.749 53.8924Z" fill="#E3EAFF"/>
<path d="M149.572 56.5569H146.11C145.93 56.5569 145.779 56.2558 145.779 55.8945C145.779 55.5182 145.93 55.2322 146.11 55.2322H149.572C149.752 55.2322 149.903 55.5333 149.903 55.8945C149.903 56.2558 149.752 56.5569 149.572 56.5569Z" fill="#E3EAFF"/>
<path d="M173.562 56.5569H151.303C151.047 56.5569 150.851 56.3612 150.851 56.1053V55.6688C150.851 55.4129 151.047 55.2172 151.303 55.2172H173.562C173.818 55.2172 174.014 55.4129 174.014 55.6688V56.1053C174.014 56.3612 173.818 56.5569 173.562 56.5569Z" fill="#E3EAFF"/>
<path d="M149.572 67.1397H146.11C145.93 67.1397 145.779 66.8386 145.779 66.4773C145.779 66.101 145.93 65.8149 146.11 65.8149H149.572C149.752 65.8149 149.903 66.116 149.903 66.4773C149.903 66.8386 149.752 67.1397 149.572 67.1397Z" fill="#E3EAFF"/>
<path d="M175.85 67.1397H164.938C164.758 67.1397 164.607 66.8386 164.607 66.4773C164.607 66.101 164.758 65.8149 164.938 65.8149H175.85C176.031 65.8149 176.181 66.116 176.181 66.4773C176.181 66.8386 176.031 67.1397 175.85 67.1397Z" fill="#E3EAFF"/>
<path d="M159.385 67.1397H151.182C151.002 67.1397 150.851 66.8386 150.851 66.4773C150.851 66.101 151.002 65.8149 151.182 65.8149H159.385C159.565 65.8149 159.716 66.116 159.716 66.4773C159.716 66.8386 159.58 67.1397 159.385 67.1397Z" fill="#E3EAFF"/>
<path d="M163.749 67.1397H160.499C160.318 67.1397 160.167 66.8386 160.167 66.4773C160.167 66.101 160.318 65.8149 160.499 65.8149H163.749C163.93 65.8149 164.081 66.116 164.081 66.4773C164.081 66.8386 163.93 67.1397 163.749 67.1397Z" fill="#E3EAFF"/>
<path d="M165.796 69.8194H151.227C151.032 69.8194 150.866 69.6538 150.866 69.4581V68.8559C150.866 68.6602 151.032 68.4946 151.227 68.4946H165.796C165.992 68.4946 166.157 68.6602 166.157 68.8559V69.4581C166.157 69.6538 165.992 69.8194 165.796 69.8194Z" fill="#FFC359"/>
<path d="M174.826 59.3268H165.059C164.803 59.3268 164.607 59.1311 164.607 58.8752V58.4387C164.607 58.1828 164.803 57.9871 165.059 57.9871H174.826C175.082 57.9871 175.278 58.1828 175.278 58.4387V58.8752C175.278 59.1161 175.067 59.3268 174.826 59.3268Z" fill="#FF56A9"/>
<path d="M159.385 59.3268H151.182C151.002 59.3268 150.851 59.0257 150.851 58.6644C150.851 58.2881 151.002 58.0021 151.182 58.0021H159.385C159.565 58.0021 159.716 58.3031 159.716 58.6644C159.716 59.0257 159.58 59.3268 159.385 59.3268Z" fill="#FFC359"/>
<path d="M163.749 59.3268H160.499C160.318 59.3268 160.167 59.0257 160.167 58.6644C160.167 58.2881 160.318 58.0021 160.499 58.0021H163.749C163.93 58.0021 164.081 58.3031 164.081 58.6644C164.081 59.0257 163.93 59.3268 163.749 59.3268Z" fill="#FFC359"/>
<path d="M185.678 21.8581C191.713 21.8581 196.605 16.965 196.605 10.929C196.605 4.89309 191.713 0 185.678 0C179.643 0 174.751 4.89309 174.751 10.929C174.751 16.965 179.643 21.8581 185.678 21.8581Z" fill="#98CFD6"/>
<path d="M184.88 9.90535L180.546 11.501L184.88 13.0817V14.7075L178.679 12.3441V10.643L184.88 8.27954V9.90535Z" fill="#F9FBFC"/>
<path d="M186.295 8.29456L192.496 10.658V12.3591L186.295 14.7225V13.0967L190.629 11.5161L186.295 9.92036V8.29456Z" fill="#F9FBFC"/>
<path d="M155.472 128.68C155.472 128.68 154.569 131.374 154.057 133.015C154.057 133.015 158.512 132.925 160.077 130.847L158.406 126.858L155.472 128.68Z" fill="#F7D3A9"/>
<path d="M154.809 203.121L155.186 204.822L157.654 204.957L157.127 202.88L154.809 203.121Z" fill="#F79A74"/>
<path d="M155.185 204.822C155.185 204.822 151.062 206.974 151.092 207.11C151.122 207.245 158.06 206.523 158.06 206.523L157.639 204.957L155.185 204.822Z" fill="#544DB8"/>
<path d="M175.609 199.703L176.572 201.148L178.92 200.396L177.686 198.634L175.609 199.703Z" fill="#F79A74"/>
<path d="M176.572 201.148C176.572 201.148 173.502 204.641 173.577 204.761C173.653 204.882 179.868 201.705 179.868 201.705L178.92 200.396L176.572 201.148Z" fill="#544DB8"/>
<path d="M150.234 158.23C150.234 158.23 143.16 181.323 154.388 203.572H157.714C157.714 203.572 151.062 178.402 159.385 158.019L150.234 158.23Z" fill="#12B4BA"/>
<path d="M156.375 159.043C156.375 159.043 157.473 183.159 175.519 200.351L178.649 199.237C178.649 199.237 163.93 177.77 164.923 155.776L156.375 159.043Z" fill="#12B4BA"/>
<path d="M153.139 104.699L153.154 103.269C153.154 103.209 153.154 103.148 153.124 103.088L152.853 102.065L152.04 102.275L151.212 101.508C150.866 101.191 150.309 101.297 150.098 101.718C149.843 102.26 149.557 102.953 149.466 103.495C149.436 103.705 149.496 103.916 149.647 104.082L150.911 105.467C151.092 105.662 151.378 105.738 151.634 105.662L152.642 105.361C152.928 105.271 153.139 105 153.139 104.699Z" fill="#F79A74"/>
<path d="M165.33 135.92C165.33 135.92 156.104 126.03 155.502 122.342C154.9 118.639 153.545 104.88 153.545 104.88L150.701 105.421C150.701 105.421 149.722 125.112 150.595 127.37C151.453 129.643 157.007 141.189 160.619 142.258C164.216 143.327 166.76 139.759 165.33 135.92Z" fill="#FF4F72"/>
<path d="M152.521 119.617C152.521 119.617 150.445 126.542 151.754 128.288C153.078 130.034 157.925 128.454 159.806 125.654C161.687 122.869 162.064 116.576 158.858 116.049C155.667 115.523 153.274 116.817 152.521 119.617Z" fill="#F79A74"/>
<path d="M164.998 160.097C164.998 160.097 166.865 140.136 166.865 134.716C166.865 134.475 166.865 134.234 166.85 134.009C165.465 130.486 162.003 130.561 160.619 130.832C159.234 131.103 153.831 132.849 153.861 133.045L153.846 133.03C151.98 134.385 150.565 135.981 150.429 136.372C150.429 136.372 145.433 146.774 149.812 159.254L164.998 160.097Z" fill="#FF4F72"/>
<path d="M138.57 105.723L138.329 104.323C138.314 104.262 138.299 104.202 138.269 104.142L137.817 103.194L137.05 103.54L136.102 102.938C135.695 102.682 135.168 102.877 135.048 103.344C134.897 103.916 134.732 104.654 134.732 105.196C134.732 105.406 134.837 105.602 135.003 105.738L136.493 106.882C136.704 107.047 136.989 107.077 137.23 106.957L138.178 106.49C138.464 106.325 138.615 106.024 138.57 105.723Z" fill="#F79A74"/>
<path d="M156.058 134.31C156.058 134.31 145.252 126.196 144.003 122.658C142.754 119.12 139.006 105.813 139.006 105.813L136.297 106.852C136.297 106.852 138.796 126.406 140.045 128.484C141.294 130.561 148.774 140.963 152.522 141.385C156.269 141.791 158.135 137.847 156.058 134.31Z" fill="#FF4F72"/>
<path d="M160.212 116.004C160.212 116.004 154.674 113.641 152.04 118.503C150.655 121.559 155.095 118.639 155.923 119.617C156.751 120.581 154.809 122.523 155.366 123.215C155.923 123.908 156.886 121.966 157.443 123.08C158 124.194 156.615 124.329 155.637 125.579C154.674 126.828 156.465 128.634 155.08 129.733C153.696 130.847 149.813 131.675 152.175 137.637C154.538 143.598 148.292 145.118 150.926 153.308C153.56 161.482 171.44 166.058 174.766 156.363C178.092 146.654 167 144.305 167.693 140C168.385 135.695 170.883 134.596 167.557 130.29C164.231 125.985 162.154 123.501 163.117 120.716C164.095 117.946 161.462 116.004 160.212 116.004Z" fill="#544DB8"/>
<path d="M67.6218 141.761C67.6218 141.761 86.3446 172.095 84.0118 193.2L96.7596 193.471L91.2962 190.31L92.8615 190.039C92.8615 190.039 88.1808 157.327 83.756 145.72C79.1204 133.557 77.7809 138.073 77.7809 138.073L67.6218 141.761Z" fill="#544DB8"/>
<path d="M60.8491 139.879C60.8491 139.879 61.8876 160.955 60.3224 169.008C58.7571 177.077 54.0764 192.944 54.0764 192.944L66.0416 193.2L62.896 190.987L60.9093 189.828C60.9093 189.828 69.4279 166.931 70.2106 156.002C70.9932 145.073 72.2875 138.826 72.2875 138.826L60.8491 139.879Z" fill="#544DB8"/>
<path d="M85.336 77.5117L87.2926 76.1418L88.1655 72.9203L87.1872 72.7246L86.6003 73.8988L87.1872 68.344L86.2089 68.5397L85.2457 73.8988L84.0718 76.4429L85.1404 77.1203" fill="#F7D3A9"/>
<path d="M96.8799 83.2924L97.1357 80.9591L99.9953 78.0989L100.643 79.0021L99.604 80.1763L105.067 78.8817V80.0408L99.9953 81.9978L98.9568 83.8193L96.8799 83.2924Z" fill="#F7D3A9"/>
<path d="M83.9816 75.5397C83.9816 75.5397 61.767 102.501 59.1784 107.89C59.1784 107.89 58.0947 109.832 58.0947 115.432C58.0947 121.047 60.0362 141.746 60.0362 141.746L82.6722 143.041C82.6722 143.041 75.3426 117.811 75.1319 117.163C74.9212 116.516 71.2489 112.632 67.8023 111.774L86.781 77.4816L83.9816 75.5397Z" fill="#12B4BA"/>
<path d="M69.9245 109.17C69.9245 109.17 70.8727 111.97 71.3844 113.656C71.3844 113.656 66.7639 113.566 65.1384 111.413L66.8692 107.273L69.9245 109.17Z" fill="#F7D3A9"/>
<path d="M73.4312 100.424C73.4312 100.424 74.8008 108.387 73.4312 110.193C72.0616 112 67.3809 108.929 65.4243 106.039C63.4677 103.148 63.0764 96.63 66.4026 96.0881C69.7287 95.5311 72.6485 97.5182 73.4312 100.424Z" fill="#F7D3A9"/>
<path d="M71.3391 115.161C71.3391 115.161 89.1439 103.961 90.5887 101.658C92.0185 99.3547 96.0521 82.2687 96.0521 82.2687L99.4986 83.1267C99.4986 83.1267 97.4818 102.23 96.9099 104.247C96.338 106.264 78.8192 124.931 74.8007 124.931C70.7521 124.931 69.3224 119.753 71.3391 115.161Z" fill="#12B4BA"/>
<path d="M72.1671 98.6472C72.1671 98.6472 73.0702 95.5311 71.1287 93.9655C69.1721 92.3999 65.8008 92.6709 65.274 93.1827C65.274 94.0859 67.351 94.6128 66.8393 95.1397C66.3125 95.6666 63.5884 95.1397 62.9412 97.8644C62.294 100.589 63.197 101.116 63.197 101.116C63.197 101.116 61.7672 102.802 63.4529 105.15C65.1386 107.499 68.9614 109.426 69.9096 109.17C70.8577 108.914 70.346 105.271 70.346 105.271C70.346 105.271 68.1336 105.015 67.9982 103.585C67.8627 102.155 69.0366 102.019 69.5634 102.546C70.0902 103.073 70.2106 104.232 70.6019 103.976C70.9932 103.72 70.4664 100.981 70.4664 100.981C70.4664 100.981 71.9113 99.8214 72.1671 98.6472Z" fill="#544DB8"/>
</svg>
