<svg width="193" height="205" viewBox="0 0 193 205" fill="none" xmlns="http://www.w3.org/2000/svg">
<ellipse cx="76.4345" cy="192.351" rx="28.3151" ry="4.21714" fill="#C4C4C4"/>
<ellipse cx="129.851" cy="186.126" rx="55.6261" ry="6.02449" fill="#C4C4C4"/>
<path d="M97.1139 0.9729C62.2435 0.9729 56.8599 26.2484 49.2573 42.5056C38.1021 66.3574 10.7892 68.8138 5.14465 92.6569C-0.49988 116.5 28.4717 138.044 49.2573 150.49C81.3184 169.687 111.8 162.406 136.876 159.038C149.589 157.33 201.222 140.886 187.055 100.049C168.8 47.4391 131.984 0.9729 97.1139 0.9729Z" fill="url(#paint0_linear)" fill-opacity="0.3"/>
<path d="M173.146 183.1H134.47C131.902 183.1 129.818 181.014 129.818 178.443V123.214C129.818 120.643 131.902 118.557 134.47 118.557H173.146C175.714 118.557 177.798 120.64 177.798 123.214V178.443C177.795 181.017 175.714 183.1 173.146 183.1Z" fill="#007BFF"/>
<path d="M139.501 141.393C150.421 132.916 164.377 128.915 177.795 130.338V123.214C177.795 120.643 175.714 118.557 173.143 118.557H134.467C131.899 118.557 129.815 120.64 129.815 123.214V154.154C131.697 149.016 135.156 144.714 139.501 141.393Z" fill="#007BFF"/>
<path d="M142.052 183.1H134.883V184.68H142.052V183.1Z" fill="#133265"/>
<path d="M172.733 183.1H165.564V184.68H172.733V183.1Z" fill="#133265"/>
<path d="M172.73 183.1H134.883V147.428C134.883 145.185 136.697 143.369 138.938 143.369H168.682C170.919 143.369 172.733 145.185 172.733 147.428V183.1H172.73Z" fill="#133265"/>
<path d="M171.986 183.1H135.63V147.875C135.63 145.803 137.308 144.124 139.374 144.124H168.238C170.308 144.124 171.983 145.803 171.983 147.875V183.1H171.986Z" fill="#007BFF"/>
<path d="M168.142 150.31H139.466C139.306 150.31 139.173 150.18 139.173 150.016C139.173 149.856 139.303 149.722 139.466 149.722H168.142C168.303 149.722 168.436 149.852 168.436 150.016C168.436 150.18 168.306 150.31 168.142 150.31Z" fill="#DADADA"/>
<path d="M140.551 150.014H139.89L139.784 151.216C139.76 151.472 139.965 151.694 140.22 151.694C140.476 151.694 140.681 151.472 140.657 151.216L140.551 150.014ZM140.452 150.618H139.985V150.188H140.452V150.618Z" fill="#DADADA"/>
<path d="M140.22 150.446C140.166 150.446 140.118 150.402 140.118 150.344V149.948C140.118 149.893 140.162 149.845 140.22 149.845C140.275 149.845 140.323 149.89 140.323 149.948V150.344C140.323 150.402 140.275 150.446 140.22 150.446Z" fill="#DADADA"/>
<path d="M170.912 134.698H136.701C135.695 134.698 134.879 133.882 134.879 132.875V126.89C134.879 125.883 135.695 125.067 136.701 125.067H170.912C171.918 125.067 172.733 125.883 172.733 126.89V132.875C172.73 133.882 171.918 134.698 170.912 134.698Z" fill="#133265"/>
<path d="M170.847 133.977H136.762C136.135 133.977 135.626 133.469 135.626 132.841V126.928C135.626 126.3 136.135 125.791 136.762 125.791H170.847C171.475 125.791 171.983 126.3 171.983 126.928V132.841C171.987 133.469 171.475 133.977 170.847 133.977Z" fill="#007BFF"/>
<path d="M168.142 129.481H139.466C139.306 129.481 139.173 129.352 139.173 129.188C139.173 129.027 139.303 128.894 139.466 128.894H168.142C168.303 128.894 168.436 129.024 168.436 129.188C168.436 129.352 168.306 129.481 168.142 129.481Z" fill="#DADADA"/>
<path d="M140.551 129.19H139.89L139.784 130.391C139.76 130.647 139.965 130.869 140.22 130.869C140.476 130.869 140.681 130.647 140.657 130.391L140.551 129.19ZM140.452 129.79H139.985V129.36H140.452V129.79Z" fill="#DADADA"/>
<path d="M140.22 129.621C140.166 129.621 140.118 129.577 140.118 129.519V129.123C140.118 129.068 140.162 129.021 140.22 129.021C140.275 129.021 140.323 129.065 140.323 129.123V129.519C140.323 129.577 140.275 129.621 140.22 129.621Z" fill="#DADADA"/>
<path d="M129.815 170.697H128.16V174.087H129.815V170.697Z" fill="#282F39"/>
<path d="M129.815 127.573H128.161V130.963H129.815V127.573Z" fill="#133265"/>
<path d="M177.794 145.236V147.24C178.231 147.24 178.586 147.984 178.586 148.906V152.757C178.586 153.675 178.231 154.423 177.794 154.423V156.427C178.756 156.427 179.534 154.785 179.534 152.757V148.906C179.537 146.878 178.756 145.236 177.794 145.236Z" fill="#133265"/>
<path d="M167.055 95.79C167.055 92.4444 164.347 89.7338 161.005 89.7338H146.728C143.386 89.7338 140.678 92.4444 140.678 95.79V98.7874H144.208V96.8107C144.208 94.8921 145.763 93.3354 147.68 93.3354H160.05C161.966 93.3354 163.522 94.8921 163.522 96.8107V98.7874H167.052V95.79H167.055Z" fill="#133265"/>
<path d="M166.339 98.7908H164.173V118.561H166.339V98.7908Z" fill="#DADADA"/>
<path d="M143.56 98.7908H141.394V118.561H143.56V98.7908Z" fill="#DADADA"/>
<path d="M166.339 98.7908H164.173V101.344H166.339V98.7908Z" fill="#ADADAD"/>
<path d="M143.56 98.7908H141.394V101.344H143.56V98.7908Z" fill="#ADADAD"/>
<path d="M79.0454 144.585V181.745C79.0454 182.741 79.8503 183.547 80.8462 183.547H132.185C133.181 183.547 133.986 182.741 133.986 181.745V144.585C133.986 143.588 133.178 142.782 132.185 142.782H80.8462C79.8503 142.782 79.0454 143.588 79.0454 144.585Z" fill="#6DB0FF"/>
<path opacity="0.5" d="M130.006 158.496C124.999 163.805 119.256 168.226 112.039 169.994C110.863 170.288 109.683 170.585 108.356 170.585C101.432 170.585 94.219 170.731 87.8856 168.226C84.6797 166.983 81.2589 164.651 79.0454 161.483V181.745C79.0454 182.741 79.8503 183.547 80.8462 183.547H132.185C133.181 183.547 133.986 182.741 133.986 181.745V153.99C132.758 155.591 131.288 157.072 130.006 158.496Z" fill="#6DB0FF"/>
<path d="M127.956 142.782C127.956 146.117 130.657 148.821 133.989 148.821V144.585C133.989 143.588 133.181 142.782 132.189 142.782H127.956Z" fill="#ACC2E2"/>
<path d="M79.0454 144.585V148.821C82.3741 148.821 85.0787 146.117 85.0787 142.782H80.8462C79.8503 142.782 79.0454 143.588 79.0454 144.585Z" fill="#ACC2E2"/>
<path d="M127.957 183.547H132.189C133.185 183.547 133.99 182.741 133.99 181.745V177.508C130.654 177.508 127.957 180.215 127.957 183.547Z" fill="#ACC2E2"/>
<path d="M79.0454 177.508V181.745C79.0454 182.741 79.8503 183.547 80.8462 183.547H85.0787C85.0787 180.215 82.3741 177.508 79.0454 177.508Z" fill="#ACC2E2"/>
<path opacity="0.5" d="M80.4885 145.059C80.4885 145.469 80.8194 145.8 81.2286 145.8C81.6379 145.8 81.9687 145.469 81.9687 145.059C81.9687 144.65 81.6379 144.318 81.2286 144.318C80.8194 144.318 80.4885 144.65 80.4885 145.059Z" fill="#787C85"/>
<path opacity="0.5" d="M80.488 181.27C80.488 181.68 80.8189 182.011 81.2281 182.011C81.6374 182.011 81.9682 181.68 81.9682 181.27C81.9682 180.86 81.6374 180.529 81.2281 180.529C80.8189 180.529 80.488 180.86 80.488 181.27Z" fill="#787C85"/>
<g opacity="0.5">
<path opacity="0.5" d="M131.067 145.059C131.067 145.469 131.398 145.8 131.807 145.8C132.216 145.8 132.547 145.469 132.547 145.059C132.547 144.649 132.216 144.318 131.807 144.318C131.398 144.318 131.067 144.649 131.067 145.059Z" fill="#787C85"/>
<path opacity="0.5" d="M131.067 181.27C131.067 181.68 131.398 182.011 131.807 182.011C132.216 182.011 132.547 181.68 132.547 181.27C132.547 180.86 132.216 180.529 131.807 180.529C131.398 180.529 131.067 180.86 131.067 181.27Z" fill="#787C85"/>
</g>
<path d="M98.8914 142.782H101.623C101.623 141.526 102.64 140.508 103.895 140.508H109.147C110.402 140.508 111.415 141.526 111.415 142.782H114.147C114.147 140.017 111.906 137.774 109.144 137.774H103.891C101.129 137.774 98.8914 140.017 98.8914 142.782Z" fill="#133265"/>
<path d="M90.2729 183.547H85.0786V184.68H90.2729V183.547Z" fill="#133265"/>
<path d="M127.956 183.547H122.762V184.68H127.956V183.547Z" fill="#133265"/>
<path d="M94.6348 142.782H90.2727V183.551H94.6348V142.782Z" fill="#ACC2E2"/>
<path d="M95.4231 142.782H89.4819V145.011C89.4819 146.653 90.8121 147.985 92.4525 147.985C94.093 147.985 95.4231 146.653 95.4231 145.011V142.782Z" fill="#ACC2E2"/>
<path d="M91.7122 145.383C91.7122 145.793 92.043 146.124 92.4523 146.124C92.8615 146.124 93.1923 145.793 93.1923 145.383C93.1923 144.974 92.8615 144.643 92.4523 144.643C92.043 144.643 91.7122 144.974 91.7122 145.383Z" fill="#787C85"/>
<path d="M89.4817 183.547H95.4229V181.318C95.4229 179.676 94.0928 178.344 92.4523 178.344C90.8118 178.344 89.4817 179.676 89.4817 181.318V183.547Z" fill="#ACC2E2"/>
<path d="M93.1923 180.946C93.1923 180.536 92.8615 180.205 92.4523 180.205C92.043 180.205 91.7122 180.536 91.7122 180.946C91.7122 181.355 92.043 181.687 92.4523 181.687C92.8615 181.687 93.1923 181.355 93.1923 180.946Z" fill="#787C85"/>
<path d="M93.1921 171.759C93.1921 171.349 92.8613 171.018 92.452 171.018C92.0427 171.018 91.7119 171.349 91.7119 171.759C91.7119 172.169 92.0427 172.5 92.452 172.5C92.8613 172.5 93.1921 172.169 93.1921 171.759Z" fill="#787C85"/>
<path d="M93.1921 163.163C93.1921 162.753 92.8613 162.422 92.452 162.422C92.0427 162.422 91.7119 162.753 91.7119 163.163C91.7119 163.573 92.0427 163.904 92.452 163.904C92.8613 163.904 93.1921 163.573 93.1921 163.163Z" fill="#787C85"/>
<path d="M93.1926 154.57C93.1926 154.16 92.8618 153.829 92.4525 153.829C92.0432 153.829 91.7124 154.16 91.7124 154.57C91.7124 154.98 92.0432 155.311 92.4525 155.311C92.8618 155.311 93.1926 154.976 93.1926 154.57Z" fill="#787C85"/>
<path d="M122.762 142.782H118.4V183.551H122.762V142.782Z" fill="#ACC2E2"/>
<path d="M123.553 142.782H117.612V145.011C117.612 146.653 118.942 147.985 120.583 147.985C122.223 147.985 123.553 146.653 123.553 145.011V142.782Z" fill="#ACC2E2"/>
<path d="M119.842 145.383C119.842 145.793 120.173 146.124 120.582 146.124C120.992 146.124 121.322 145.793 121.322 145.383C121.322 144.974 120.992 144.643 120.582 144.643C120.173 144.643 119.842 144.974 119.842 145.383Z" fill="#787C85"/>
<path d="M117.612 183.547H123.553V181.318C123.553 179.676 122.223 178.344 120.582 178.344C118.942 178.344 117.612 179.676 117.612 181.318V183.547Z" fill="#ACC2E2"/>
<path d="M121.322 180.946C121.322 180.536 120.992 180.205 120.582 180.205C120.173 180.205 119.842 180.536 119.842 180.946C119.842 181.355 120.173 181.687 120.582 181.687C120.992 181.687 121.322 181.355 121.322 180.946Z" fill="#787C85"/>
<path d="M121.322 171.759C121.322 171.349 120.992 171.018 120.582 171.018C120.173 171.018 119.842 171.349 119.842 171.759C119.842 172.169 120.173 172.5 120.582 172.5C120.992 172.5 121.322 172.169 121.322 171.759Z" fill="#787C85"/>
<path d="M121.322 163.163C121.322 162.753 120.992 162.422 120.582 162.422C120.173 162.422 119.842 162.753 119.842 163.163C119.842 163.573 120.173 163.904 120.582 163.904C120.992 163.904 121.322 163.573 121.322 163.163Z" fill="#787C85"/>
<path d="M121.322 154.57C121.322 154.16 120.992 153.829 120.582 153.829C120.173 153.829 119.842 154.16 119.842 154.57C119.842 154.98 120.173 155.311 120.582 155.311C120.992 155.311 121.322 154.976 121.322 154.57Z" fill="#787C85"/>
<path d="M180.917 102.186C180.917 81.7779 164.212 65.2341 143.606 65.2341C123 65.2341 106.296 81.7779 106.296 102.186M106.296 101.959C106.296 122.367 89.5913 138.911 68.9852 138.911C48.3792 138.911 31.6747 122.367 31.6747 101.959" stroke="white"/>
<circle r="3.48125" transform="matrix(-4.37114e-08 -1 -1 4.37114e-08 181.1 101.716)" fill="#21CF7B"/>
<circle r="2.99114" transform="matrix(-1 8.74228e-08 8.74228e-08 1 31.8319 100.655)" fill="#21CF7B"/>
<circle r="2.99114" transform="matrix(-1 8.74228e-08 8.74228e-08 1 115.773 77.4628)" fill="#21CF7B"/>
<path d="M65.3745 60.6665C65.3745 60.6665 55.5437 77.0675 53.7422 76.6808C51.9406 76.294 34.6276 62.738 33.0114 66.3527C32.3588 67.8122 33.8146 70.3691 35.8228 72.3772C37.831 74.3854 52.9447 87.339 56.9611 85.5317C60.9774 83.7244 74.4833 61.7646 74.4833 61.7646L65.3745 60.6665Z" fill="white"/>
<path d="M75.2295 62.9445C74.627 67.7641 70.5058 74.0196 70.5058 74.0196C70.5058 74.0196 65.8074 76.3977 57.7514 70.0911C57.7514 70.0911 61.7748 62.9445 66.7952 58.1248C71.8156 53.305 75.8319 58.125 75.2295 62.9445Z" fill="#787C85"/>
<path d="M87.5252 31.5005C87.5252 31.5005 89.6796 31.8559 90.0399 34.253C90.3931 36.6541 90.3878 44.3433 85.8469 46.6147C85.6583 46.709 85.4011 32.6825 85.4011 32.6825L87.5252 31.5005Z" fill="#007BFF"/>
<path d="M98.2404 184.616C98.2404 184.616 99.8619 191.833 98.182 192.788C96.1334 193.961 79.1337 197.418 74.2922 193.898C72.3094 192.456 75.4624 191.334 82.3798 190.127C89.2935 188.925 90.4451 182.755 90.4451 182.755L98.2404 184.616Z" fill="#133265"/>
<path d="M77.9175 182.81L77.4193 190.433C77.4193 190.433 53.9219 193.502 53.6749 190.08C53.4847 187.48 55.4046 187.483 62.4039 186.921C69.3993 186.365 70.5234 179.839 70.5234 179.839L77.9175 182.81Z" fill="#0E2447"/>
<path d="M68.5919 92.5452L67.3978 111.02L93.9055 103.499L68.5919 92.5452Z" fill="#E0A584"/>
<path d="M93.9055 104.193C93.9055 104.193 70.8015 105.798 67.7294 104.666C64.1863 133.299 67.7294 149.51 68.8365 184.921L77.8402 183.716L81.9468 126.193L82.6997 126.378L93.9055 104.193Z" fill="#0E2447"/>
<path d="M98.5244 185.322C98.5244 185.322 92.8798 185.322 89.4877 185.322C86.5195 164.834 83.2397 149.357 81.2062 123.858L67.7995 104.594C67.7995 104.594 74.5622 104.964 76.821 104.957C81.1361 104.942 96.7171 104.594 96.7171 104.594C97.9891 113.614 95.1323 148.188 98.5244 185.322Z" fill="#133265"/>
<path d="M92.7597 58.2056C92.7598 59.2097 92.7597 67.347 92.7597 67.347C92.7597 67.347 94.4592 85.3062 94.9551 89.5834C95.7265 96.2437 98.4755 111.321 98.4755 111.321C90.8107 115.553 72.7604 116.116 65.0372 112.007C65.8069 93.632 65.7913 64.7475 68.0002 59.2331C70.2092 53.7186 77.9611 53.7186 77.9611 53.7186C81.8566 53.1853 92.7597 57.2015 92.7597 58.2056Z" fill="#ADADAD"/>
<path d="M73.1209 61.4864C73.1209 61.4864 76.4119 53.2962 75.1298 51.4744C74.8049 51.011 73.5337 50.6898 72.9285 50.1018C69.6592 46.9649 69.8429 34.1034 72.146 30.1308C73.9528 27.0057 72.6879 27.5226 80.4322 28.0238C88.1765 28.525 88.4638 36.6877 87.7451 41.3892C87.0639 45.8309 85.0469 48.6989 82.69 50.3014L83.8912 60.7609L73.1209 61.4864Z" fill="white"/>
<path d="M85.5753 58.4277C85.1438 55.4776 81.6884 53.379 77.8477 53.7449C74.0129 54.1074 71.2526 56.7936 71.6841 59.7438C72.1156 62.6939 77.2524 64.6291 79.4117 64.4266C81.5675 64.2176 86.0068 61.3778 85.5753 58.4277Z" fill="white"/>
<path d="M87.9605 41.4762C87.9605 41.4762 89.9216 40.2153 90.9935 41.6199C92.0731 43.0203 88.1215 45.2193 86.015 44.8878L87.9605 41.4762Z" fill="white"/>
<path d="M87.7399 43.2977C86.6989 40.5481 88.1441 37.268 86.6405 34.8591C85.444 35.5353 83.7822 34.3587 83.5667 32.6789C83.4785 32.0206 83.5883 31.3562 83.5265 30.6936C83.4647 30.031 83.1343 29.2994 82.6148 29.1932C82.3669 29.144 82.1266 29.2465 81.8936 29.3449C80.011 30.1325 77.2873 32.4075 75.2875 32.6569C73.3858 32.8933 71.0399 32.6072 70.0518 30.4523C69.1876 28.5718 69.8433 26.3032 70.5763 24.4494C70.9916 23.3861 72.2764 20.5073 73.1952 20.1937C74.5903 19.7191 75.9189 21.3828 76.8716 22.8707C77.2493 21.4642 78.6397 20.8778 79.8241 21.1965C81.0084 21.5153 82.0332 22.4951 83.0065 23.4514C83.9799 24.4078 85.0017 25.3995 86.1832 25.7303C87.2869 26.042 88.7079 25.9586 89.2289 27.2395C89.8531 28.775 88.4078 30.2451 88.2903 31.9125C88.3201 31.5006 89.5582 33.3291 89.6222 33.72C89.8217 34.8885 89.3347 36.0125 89.1351 37.1015C88.7098 39.4395 88.9583 41.4026 87.7399 43.2977Z" fill="#007BFF"/>
<path d="M73.6201 43.7782L79.545 43.4578C79.5491 43.465 76.0843 50.4144 73.6201 43.7782Z" fill="#E45E5E"/>
<path d="M80.1273 41.2697C80.1507 41.8748 80.8853 42.3589 81.7639 42.3509C82.6424 42.3428 83.3433 41.8448 83.3199 41.2397C83.2965 40.6345 82.5618 40.1504 81.6833 40.1585C80.8048 40.1666 80.1039 40.6646 80.1273 41.2697Z" fill="#F4B19F"/>
<path d="M71.409 39.8793C71.4324 40.4845 72.1671 40.9686 73.0456 40.9605C73.9241 40.9524 74.625 40.4544 74.6016 39.8493C74.5782 39.2442 73.8435 38.7601 72.965 38.7681C72.0792 38.7802 71.3856 39.2742 71.409 39.8793Z" fill="#F4B19F"/>
<path d="M76.5472 41.5704C76.551 41.528 76.4144 41.4631 76.1447 41.4218C75.889 41.3727 75.4991 41.3782 75.1192 41.2372C74.7504 41.1 74.3741 40.6044 74.6662 40.3412C74.9493 40.0125 75.6021 40.2333 76.3022 40.4077C76.4737 40.4532 76.648 40.4872 76.8152 40.525C76.9798 40.5744 77.2886 40.604 77.4947 40.449C77.8845 40.1314 77.8931 39.7036 77.9408 39.3951C78.0104 38.732 77.9458 38.1234 77.8178 37.6307C77.5645 36.6337 77.1475 36.1306 77.096 36.1694C77.015 36.2044 77.2866 36.7582 77.4284 37.6863C77.4916 38.1446 77.5149 38.6955 77.4278 39.2778C77.3898 39.5708 77.3014 39.8717 77.1662 39.9571C77.1104 39.9881 77.053 39.9999 76.8884 39.9505C76.7212 39.9127 76.5496 39.8671 76.3824 39.8293C76.0366 39.7498 75.7188 39.6548 75.3424 39.6024C74.9773 39.5538 74.5391 39.6365 74.2796 39.942C73.9795 40.24 74.0296 40.8062 74.2678 41.0866C74.4894 41.3862 74.7616 41.5469 75.0231 41.6229C75.5517 41.7518 75.9084 41.654 76.1551 41.6375C76.4018 41.6211 76.5434 41.6128 76.5472 41.5704Z" fill="#E45E5E"/>
<path d="M82.7458 50.2294C82.7458 50.2294 79.9484 51.8068 77.8541 51.6364C77.8541 51.6364 80.1001 52.644 82.9273 51.6506L82.7458 50.2294Z" fill="#EDA091"/>
<path d="M73.8172 37.24C73.9542 37.4171 74.3847 37.2575 74.9449 37.2791C75.501 37.2763 76.0077 37.461 76.0629 37.2837C76.1367 37.1226 75.5402 36.5345 74.7805 36.5172C74.0265 36.5102 73.6785 37.0772 73.8172 37.24Z" fill="#133265"/>
<path d="M81.6601 38.148C81.7045 38.0044 81.2744 37.5741 80.6355 37.2599C79.9874 36.9292 79.4354 37.0095 79.4674 37.1862C79.4948 37.3545 79.9614 37.5378 80.5285 37.8271C81.1036 38.1012 81.6202 38.2998 81.6601 38.148Z" fill="#133265"/>
<path d="M83.5682 35.8926C83.7356 35.5873 83.5554 34.7747 82.0335 34.3859C80.4916 33.9807 79.4641 34.7737 79.4801 35.1153C79.4839 35.4544 80.0653 35.6195 81.42 35.9814C82.7751 36.3247 83.3837 36.2258 83.5682 35.8926Z" fill="#007BFF"/>
<path d="M76.3107 34.6729C76.3057 34.3784 75.7951 33.7798 74.4254 33.938C73.0296 34.0828 72.5766 35.0318 72.7377 35.3046C72.8917 35.5813 73.4264 35.5346 74.655 35.4084C75.8789 35.257 76.3134 34.9967 76.3107 34.6729Z" fill="#007BFF"/>
<path d="M43.4027 57.4191H38.3892H36.8749H31.8613L33.8156 73.8944C33.8156 73.8944 35.1389 74.2051 36.8749 74.2904V74.3007C37.1307 74.3109 37.383 74.3143 37.632 74.3109C37.881 74.3109 38.1334 74.3109 38.3892 74.3007V74.2904C40.1251 74.2051 41.4484 73.8944 41.4484 73.8944L43.4027 57.4191Z" fill="#ACC2E2"/>
<path d="M44.0131 56.3983H31.2507V58.3954H44.0131V56.3983Z" fill="#ADADAD"/>
<path d="M33.0787 67.6743H42.185L42.9148 61.5225H32.3489L33.0787 67.6743Z" fill="#ADADAD"/>
<path d="M30.8711 64.8259C30.9021 64.5176 30.964 64.2135 31.0833 63.9265C32.0163 61.7337 35.7879 60.83 37.9103 60.4531C38.1579 60.4103 38.4409 60.3718 38.6399 60.5217C38.8521 60.6801 38.8786 60.9971 38.7681 61.2283C38.6576 61.4639 38.4365 61.6309 38.2154 61.7808C36.5927 62.8558 34.4393 63.2199 33.1969 64.6932C34.3244 64.2991 35.4519 63.9008 36.5838 63.5068C37.4018 63.2199 38.348 62.9415 39.2103 63.207C39.2677 63.2241 39.3252 63.2456 39.3739 63.2798C39.5463 63.3997 39.5463 63.6653 39.4313 63.8409C39.1882 64.2049 38.6354 64.4747 38.2463 64.6589C37.7379 64.8987 37.2073 65.0915 36.6811 65.2842C35.6288 65.6654 34.5455 66.0423 33.639 66.7061C34.9567 66.265 36.3097 65.9223 37.6804 65.6825C38.4851 65.5412 39.3827 65.4512 40.0548 65.9009C40.3776 66.1151 40.6208 66.5476 40.4085 66.8646C40.2891 67.0445 40.0636 67.1216 39.8514 67.1901C38.0297 67.7469 35.6464 67.7511 34.0635 68.8261C35.0982 68.8861 36.1328 68.9418 37.1675 69.0017C37.477 69.0189 37.7998 69.0403 38.0739 69.1816C38.348 69.3229 38.5603 69.627 38.4895 69.9225C38.4099 70.2566 38.0297 70.4236 37.6936 70.5136C36.5219 70.8305 32.8785 71.1946 31.919 70.2609C30.8844 69.2544 30.8976 66.9545 30.8578 65.644C30.8446 65.3699 30.8446 65.0958 30.8711 64.8259Z" fill="white"/>
<path d="M85.6012 61.8289C86.7539 55.9092 91.9858 57.0358 93.0737 58.357C92.9475 57.524 92.3234 56.732 91.6208 56.2916C90.2532 55.4347 88.258 55.4449 86.7539 55.9092C84.5575 56.5886 82.8795 58.4218 82.0269 60.5145C80.7923 63.546 80.9764 66.9497 81.2663 70.2099C82.3782 82.5886 84.7997 94.8479 88.4797 106.714C88.5308 106.878 88.5888 107.052 88.715 107.165C88.9435 107.363 89.2914 107.302 89.5847 107.223C90.6454 106.95 91.7061 106.674 92.7668 106.4C92.9407 106.356 93.1249 106.305 93.2408 106.168C93.425 105.957 93.3739 105.636 93.3091 105.363C90.5704 93.6257 87.2178 81.9878 85.799 70.0187C85.4886 67.3389 85.0862 64.4814 85.6012 61.8289Z" fill="#192231"/>
<path d="M90.7674 106.657C90.7265 106.514 90.6753 106.33 90.6139 106.108L90.7504 106.07C90.8118 106.292 90.8629 106.476 90.9038 106.62L90.7674 106.657ZM90.4605 105.558L90.3104 105.008L90.4468 104.971L90.5969 105.52L90.4605 105.558ZM90.1603 104.459L90.0103 103.909L90.1467 103.872L90.2968 104.421L90.1603 104.459ZM89.8602 103.359L89.7136 102.81L89.85 102.772L89.9966 103.322L89.8602 103.359ZM89.5669 102.26L89.4202 101.711L89.5567 101.673L89.7033 102.223L89.5669 102.26ZM89.2736 101.161L89.1269 100.611L89.2634 100.574L89.4066 101.123L89.2736 101.161ZM88.9837 100.062L88.8405 99.512L88.9769 99.4745L89.1201 100.024L88.9837 100.062ZM88.6972 98.9624L88.554 98.4127L88.6904 98.3786L88.8336 98.9282L88.6972 98.9624ZM88.4107 97.8597L88.2709 97.3101L88.4073 97.2759L88.5471 97.8256L88.4107 97.8597ZM88.1311 96.757L87.9912 96.2074L88.1276 96.1732L88.2675 96.7229L88.1311 96.757ZM87.8514 95.6577L87.7116 95.1047L87.848 95.0706L87.9878 95.6236L87.8514 95.6577ZM87.5751 94.5551L87.4387 94.0054L87.5751 93.9679V93.9713L87.7116 94.5209L87.5751 94.5551ZM87.2989 93.449L87.1625 92.8959L87.2989 92.8618L87.4319 93.408L87.2989 93.449ZM87.026 92.3463L86.893 91.7932L87.0294 91.7591L87.1625 92.3122L87.026 92.3463ZM86.76 91.2402C86.7157 91.0558 86.6713 90.8715 86.627 90.6871L86.7634 90.653C86.8078 90.8374 86.8521 91.0217 86.8964 91.2061L86.76 91.2402ZM86.494 90.1341L86.361 89.5811L86.4974 89.5469L86.6304 90.1L86.494 90.1341ZM86.2314 89.028L86.1018 88.475L86.2382 88.4442L86.3678 88.9973L86.2314 89.028ZM85.9722 87.9219L85.8426 87.3689L85.979 87.3381L86.1086 87.8912L85.9722 87.9219ZM85.7164 86.8158L85.5902 86.2628L85.73 86.232L85.8562 86.7851L85.7164 86.8158ZM85.4606 85.7063L85.3344 85.1498L85.4742 85.1191L85.6004 85.6722L85.4606 85.7063ZM85.2116 84.5968L85.0888 84.0403L85.2287 84.0096L85.3514 84.5627L85.2116 84.5968ZM84.9695 83.4873L84.8467 82.9308L84.9865 82.9001L85.1093 83.4566L84.9695 83.4873ZM84.7273 82.3709L84.6079 81.8145L84.7478 81.7838L84.8671 82.3402L84.7273 82.3709ZM84.4886 81.258L84.3726 80.7016L84.5124 80.6743L84.6284 81.2307L84.4886 81.258ZM84.2566 80.1485L84.1441 79.5921L84.2839 79.5647L84.3965 80.1212L84.2566 80.1485ZM84.0316 79.0356C83.994 78.8512 83.9565 78.6635 83.919 78.4791L84.0588 78.4518C84.0964 78.6362 84.1339 78.8239 84.1714 79.0083L84.0316 79.0356ZM83.8099 77.9227L83.7007 77.3662L83.8406 77.3389L83.9497 77.8954L83.8099 77.9227ZM83.5916 76.8063C83.5575 76.6186 83.52 76.4342 83.4859 76.2465L83.6257 76.2191C83.6598 76.4035 83.6939 76.5913 83.7314 76.779L83.5916 76.8063ZM83.3801 75.6866C83.346 75.4988 83.3119 75.3145 83.2778 75.1267L83.4177 75.1028C83.4518 75.2872 83.4859 75.4749 83.52 75.6627L83.3801 75.6866ZM83.1789 74.5668C83.1448 74.3791 83.1107 74.1913 83.08 74.007L83.2198 73.9831C83.2539 74.1674 83.2846 74.3552 83.3187 74.5429L83.1789 74.5668ZM82.9811 73.4471C82.9504 73.2593 82.9163 73.0716 82.8856 72.8872L83.0254 72.8633C83.0561 73.0477 83.0868 73.2354 83.1209 73.4232L82.9811 73.4471ZM82.7935 72.3273L82.7048 71.7675L82.8447 71.7436L82.9334 72.3034L82.7935 72.3273ZM82.6162 71.2008C82.5855 71.0096 82.5616 70.8218 82.5343 70.6375L82.6741 70.617C82.698 70.8013 82.7253 70.9891 82.756 71.1769L82.6162 71.2008ZM82.4627 70.0742C82.4388 69.883 82.4184 69.6952 82.4013 69.5075L82.5411 69.4938C82.5616 69.6782 82.5821 69.8659 82.6025 70.0571L82.4627 70.0742ZM82.3467 68.9408C82.3297 68.7496 82.316 68.5584 82.3058 68.3741L82.449 68.3638C82.4593 68.5482 82.4729 68.7393 82.49 68.9305L82.3467 68.9408ZM82.2785 67.8039C82.2717 67.6128 82.2649 67.4216 82.2615 67.2338L82.4047 67.2304C82.4081 67.4148 82.4115 67.6059 82.4218 67.7971L82.2785 67.8039ZM82.4013 66.6671H82.2581C82.2615 66.4725 82.2649 66.2848 82.2717 66.097L82.4149 66.1038C82.4081 66.2848 82.4047 66.4759 82.4013 66.6671ZM82.4456 65.5371L82.3058 65.5269C82.3194 65.3323 82.3331 65.1445 82.3536 64.9602L82.4934 64.9738C82.4729 65.1548 82.4559 65.346 82.4456 65.5371ZM82.5548 64.4106L82.4149 64.3935C82.4388 64.2023 82.4695 64.0145 82.5002 63.8302L82.64 63.8541C82.6093 64.035 82.5787 64.2194 82.5548 64.4106ZM82.7458 63.2976L82.6059 63.2669C82.6469 63.0791 82.6878 62.8914 82.7355 62.7104L82.872 62.7446C82.8276 62.9255 82.7833 63.1133 82.7458 63.2976ZM83.0254 62.2052L82.889 62.1642C82.9436 61.9833 83.005 61.7989 83.0698 61.6214L83.2028 61.6692C83.138 61.8433 83.08 62.0243 83.0254 62.2052ZM83.4074 61.1435L83.2778 61.0889C83.3529 60.9147 83.4313 60.7406 83.5166 60.5699L83.6427 60.6348C83.5609 60.7987 83.4825 60.9728 83.4074 61.1435ZM83.9088 60.1364L83.786 60.0647C83.8815 59.8974 83.9838 59.7335 84.0861 59.5799L84.2055 59.6584C84.0998 59.8121 84.0009 59.9725 83.9088 60.1364ZM84.5329 59.201L84.4204 59.1122C84.5363 58.962 84.6625 58.8152 84.7887 58.6718L84.8944 58.7674C84.7682 58.9074 84.6489 59.0542 84.5329 59.201ZM85.2866 58.3714L85.1877 58.269C85.3276 58.1393 85.4708 58.013 85.6209 57.8935L85.7096 58.0061C85.5663 58.1188 85.4231 58.2417 85.2866 58.3714ZM86.1632 57.6682L86.0847 57.5521C86.2416 57.4463 86.4053 57.3438 86.5724 57.2517L86.6406 57.3746C86.4769 57.4667 86.3166 57.5623 86.1632 57.6682ZM87.142 57.1219L87.084 56.9922C87.2579 56.9137 87.4387 56.842 87.6161 56.7771L87.6638 56.9103C87.4865 56.9751 87.3125 57.0434 87.142 57.1219ZM92.002 57.0741C91.8622 56.982 91.6951 56.8966 91.5109 56.8249L91.5621 56.6918C91.7565 56.7669 91.9338 56.8557 92.0805 56.9547L92.002 57.0741ZM88.1993 56.7464L88.1652 56.6099C88.3493 56.5621 88.5403 56.5211 88.7245 56.4904L88.7484 56.6303C88.5642 56.6611 88.38 56.702 88.1993 56.7464ZM90.9755 56.6645C90.8015 56.6235 90.6139 56.5928 90.423 56.5723L90.44 56.4323C90.6378 56.4528 90.8288 56.487 91.0062 56.5279L90.9755 56.6645ZM89.3043 56.5586L89.2941 56.4187C89.468 56.405 89.6419 56.3982 89.8091 56.3982H89.867L89.8636 56.5416H89.8056C89.6453 56.5382 89.4748 56.545 89.3043 56.5586Z" fill="#F6A821"/>
<path d="M96.7478 61.9486C96.7478 61.9486 106.389 72.0912 112.876 104.455C112.999 105.076 112.631 105.691 112.027 105.878C110.963 106.209 110.199 106.377 109.664 106.455C109.029 106.547 108.432 106.138 108.289 105.513C107.099 100.351 101.359 76.0172 97.6959 70.176C93.593 63.6282 96.7478 61.9486 96.7478 61.9486Z" fill="#192231"/>
<path d="M90.8225 102.988C88.9774 103.346 86.8219 104.435 85.8022 106.081C84.6323 107.972 85.1576 109.853 85.3895 111.901C85.676 114.417 86.2114 116.899 86.8867 119.34C87.5484 121.737 87.9747 124.328 89.1138 126.557C89.414 127.148 89.7311 127.755 90.2393 128.182C90.6486 128.527 91.1602 128.728 91.6717 128.885C93.2543 129.367 95.0482 129.479 96.6921 129.401" fill="#192231"/>
<path d="M88.6817 103.632C92.9586 101.911 103.623 98.0843 115.182 97.5176C116.345 97.4596 117.423 98.1321 117.886 99.1973C119.677 103.308 122.555 112.996 122.948 120.032C123.009 121.142 122.405 122.183 121.416 122.688C116.655 125.129 102.273 129.984 94.3091 129.693C93.2178 129.652 92.2492 128.98 91.8297 127.973C90.1483 123.941 87.8325 114.16 86.9321 106.599C86.7752 105.329 87.4914 104.11 88.6817 103.632Z" fill="#133265"/>
<path d="M99.1331 129.282H98.8501C98.8501 127.424 96.3876 114.82 96.3604 114.694L96.64 114.64C96.7423 115.158 99.1331 127.397 99.1331 129.282Z" fill="#ACC2E2"/>
<path d="M102.544 128.793H102.261C102.261 125.052 99.9824 114.363 99.9619 114.257L100.238 114.199C100.262 114.305 102.544 125.024 102.544 128.793Z" fill="#ACC2E2"/>
<path d="M115.21 125.195H114.927C114.927 121.365 112.1 111.161 112.073 111.058L112.346 110.983C112.376 111.082 115.21 121.324 115.21 125.195Z" fill="#ACC2E2"/>
<path d="M118.737 123.864H118.454C118.454 118.163 115.466 109.976 115.436 109.894L115.702 109.795C115.729 109.881 118.737 118.111 118.737 123.864Z" fill="#ACC2E2"/>
<path d="M98.5807 116.387C98.9254 116.387 99.2048 116.108 99.2048 115.763C99.2048 115.418 98.9254 115.138 98.5807 115.138C98.236 115.138 97.9565 115.418 97.9565 115.763C97.9565 116.108 98.236 116.387 98.5807 116.387Z" fill="#ACC2E2"/>
<path d="M114.416 112.581C114.761 112.581 115.04 112.301 115.04 111.956C115.04 111.611 114.761 111.332 114.416 111.332C114.071 111.332 113.792 111.611 113.792 111.956C113.792 112.301 114.071 112.581 114.416 112.581Z" fill="#ACC2E2"/>
<path d="M88.0726 116.582C87.0631 116.582 85.9308 116.333 85.8728 116.319L85.9342 116.043C85.9512 116.046 87.7111 116.435 88.7445 116.248C88.9866 116.207 112.867 112.004 120.637 107.406L120.78 107.651C116.694 110.068 108.209 112.356 101.814 113.844C94.8903 115.459 88.8502 116.517 88.7922 116.528C88.574 116.565 88.325 116.582 88.0726 116.582Z" fill="#ACC2E2"/>
<path d="M110.108 111.671C109.746 111.794 109.385 111.9 109.016 111.992L109.364 113.679C109.436 114.027 109.368 114.382 109.173 114.679C108.979 114.976 108.679 115.181 108.331 115.252L105.081 115.928C104.992 115.945 104.9 115.956 104.808 115.956C104.18 115.956 103.635 115.508 103.508 114.894L103.178 113.293C102.816 113.412 102.451 113.511 102.079 113.579L102.4 115.123C102.635 116.263 103.652 117.089 104.811 117.089C104.978 117.089 105.149 117.072 105.313 117.038L108.563 116.362C109.207 116.229 109.763 115.85 110.125 115.3C110.486 114.75 110.613 114.088 110.476 113.443L110.108 111.671Z" fill="#ACC2E2"/>
<path d="M89.4448 64.591C89.8274 68.5007 97.2684 80.9851 98.139 85.2163C99.0096 89.4476 100.229 97.0061 100.229 108.406L94.3544 112.833C94.3544 112.833 95.763 114.651 98.139 112.741C98.139 112.741 98.6541 122.899 99.7431 123.23C100.832 123.562 100.697 116.062 100.697 116.062C100.697 116.062 102.234 123.659 103.49 124.069C104.746 124.479 103.468 116.346 103.468 116.346C103.468 116.346 105.774 123.639 106.75 123.343C107.727 123.047 105.163 117.155 105.163 117.155C105.163 117.155 108.692 121.909 109.596 121.333C110.501 120.757 106.309 116.08 106.309 116.08C106.309 116.08 107.515 112.278 105.058 109.192C105.058 109.192 107.394 88.2174 105.058 82.8584C105.058 82.8584 99.4241 67.1075 95.6701 61.4847C91.9161 55.8618 89.0623 60.6814 89.4448 64.591Z" fill="white"/>
<path d="M87.6344 61.3074C86.0788 64.8349 91.1652 76.31 90.7301 76.9544C90.7301 76.9544 100.656 77.4521 102.98 74.3241C102.98 74.3241 93.4779 48.0533 87.6344 61.3074Z" fill="#B6B6B6"/>
<circle cx="5.22627" cy="48.6424" r="5.22627" fill="#6DB0FF"/>
<circle cx="189.28" cy="59.4931" r="3.64412" fill="#6DB0FF"/>
<circle cx="31.5108" cy="158.099" r="3.64412" fill="#6DB0FF"/>
<defs>
<linearGradient id="paint0_linear" x1="97.3192" y1="0.9729" x2="97.3192" y2="163.233" gradientUnits="userSpaceOnUse">
<stop stop-color="#6DB0FF"/>
<stop offset="0.0718232" stop-color="#76B3FB"/>
<stop offset="0.447514" stop-color="#94BBED"/>
<stop offset="0.801105" stop-color="#A6C0E5"/>
<stop offset="1" stop-color="#ACC2E2"/>
</linearGradient>
</defs>
</svg>
