<svg width="216" height="189" viewBox="0 0 216 189" fill="none" xmlns="http://www.w3.org/2000/svg">
<path d="M118.486 188.337C170.385 188.337 212.458 146.265 212.458 94.3653C212.458 42.4662 170.385 0.393555 118.486 0.393555C66.587 0.393555 24.5144 42.4662 24.5144 94.3653C24.5144 146.265 66.587 188.337 118.486 188.337Z" fill="#039BE5"/>
<path d="M127.714 81.6268C126.539 91.1301 122.352 101.517 115.968 108.654C109.583 115.791 101.402 125.164 92.0827 127.376L81.2119 128.214C91.8983 120.754 104.382 107.148 108.746 98.3594C113.509 88.7562 115.799 70.1338 117.404 65.9545C119.01 61.7752 121.968 57.8417 126.201 56.3897C127.837 55.8289 129.673 55.6138 130.964 54.4614C132.324 53.2476 132.723 51.2194 132.424 49.4217C132.124 47.6163 131.241 45.9799 130.365 44.3742L134.283 43.0989L140.367 33.2039C140.367 33.2039 142.964 48.3077 148.987 49.4908C155.018 50.6739 143.533 74.6741 143.533 74.6741L137.978 81.3502L127.707 80.0903" fill="#CDAE6E"/>
<g opacity="0.45">
<path opacity="0.45" d="M140.368 33.2039L134.283 43.0989L130.365 44.3742C131.241 45.9799 132.124 47.624 132.424 49.4217C132.508 49.9133 132.531 50.4204 132.501 50.9198C137.371 48.3384 140.36 41.2244 140.936 35.8927C140.56 34.2871 140.368 33.2039 140.368 33.2039Z" fill="#F9D5C5"/>
</g>
<g opacity="0.45">
<path opacity="0.45" d="M134.229 74.7356C133.907 73.8675 133.4 73.0762 132.869 72.3079C131.448 70.2413 129.858 68.2823 128.137 66.4539L116.813 73.4219C119.179 77.486 127.714 81.6269 116.191 104.452C114.531 107.747 111.912 110.436 109.614 113.325C108.216 115.092 106.903 116.997 106.004 119.056C109.661 115.73 113.01 111.95 115.96 108.654C122.344 101.517 126.531 91.1301 127.707 81.6268V80.0827L134.828 80.9585C134.852 79.9213 134.836 78.8919 134.767 77.8547C134.713 76.8022 134.598 75.7267 134.229 74.7356Z" fill="#F9D5C5"/>
</g>
<path d="M134.244 6.71453C133.138 5.57751 132.962 3.64152 133.853 2.32012C134.513 1.34444 135.62 0.76057 136.741 0.414856C138.132 -0.0230476 139.645 -0.153651 141.059 0.215111C142.472 0.583872 143.771 1.47504 144.478 2.75803C145.023 3.75675 145.184 4.9245 145.231 6.06151C145.292 7.41364 145.177 8.86563 144.362 9.94887C143.694 10.8324 142.634 11.3548 141.551 11.5929C139.33 12.0769 136.895 11.4316 135.205 9.91046" fill="#562D20"/>
<g opacity="0.5">
<path opacity="0.5" d="M145.223 6.05377C145.177 4.91676 145.015 3.74901 144.47 2.75028C144.262 2.37384 143.993 2.02813 143.694 1.72083C143.732 2.34311 143.771 2.97308 143.809 3.59536C143.863 4.43276 143.917 5.28552 143.755 6.11523C143.602 6.94494 143.21 7.75929 142.534 8.25865C141.612 8.9424 140.69 8.35084 139.607 7.95903C138.523 7.56723 137.586 6.86812 136.618 6.25351C135.788 5.7311 134.521 5.82329 133.561 5.66964C133.722 6.04609 133.945 6.39948 134.229 6.6991L135.182 9.89503C136.872 11.4162 139.307 12.0615 141.527 11.5775C142.611 11.3393 143.678 10.8246 144.339 9.93344C145.169 8.85789 145.284 7.41358 145.223 6.05377Z" fill="#562D20"/>
</g>
<path d="M132.094 138.385L185.141 138.969C183.728 132.562 183.49 120.155 179.456 110.114C175.938 101.355 171.336 97.3913 169.761 93.6499C167.886 89.194 167.633 84.2465 167.41 79.4142C167.256 76.1875 167.11 72.9685 166.957 69.7418C166.957 69.7418 165.881 51.3806 152.698 50.3665C143.179 49.6367 149.402 56.428 149.402 56.428L137.21 56.405L129.113 55.8288C125.863 56.1361 121.499 57.4268 119.433 59.9543C117.735 62.0363 116.759 64.6022 115.822 67.1144C115.184 68.8123 114.547 70.5024 113.917 72.2003C113.863 72.3385 113.817 72.4845 113.848 72.6228C113.886 72.7764 114.024 72.884 114.155 72.9839C116.944 74.9967 120.009 76.6254 123.243 77.8008C123.965 81.7727 125.533 85.5832 127.853 88.8944C130.611 92.8355 134.483 96.2542 135.635 100.933C136.135 102.984 136.065 105.12 135.996 107.233C135.743 114.055 132.324 131.548 132.094 138.385Z" fill="#C19FB9"/>
<path d="M134.275 14.4969C127.392 7.89761 116.644 11.0474 113.102 14.0897C110.675 16.1794 109.622 19.4905 109.415 22.6865C109.238 25.4061 108.04 26.2204 109.023 28.7557C109.906 31.0374 111.274 33.0963 112.634 35.1245C113.732 36.7685 114.831 38.4049 115.922 40.049C117.151 41.8928 118.411 43.7673 120.116 45.1886C122.045 46.7942 124.426 47.7238 126.77 48.6227C127.722 48.9914 128.721 49.6675 129.72 49.437C137.225 47.7315 141.197 35.5086 140.222 29.9465C139.63 26.5738 141.167 21.7185 138.339 19.7978" fill="#CDAE6E"/>
<path d="M141.051 32.1743C145.853 32.8427 146.176 23.0475 145.138 19.7056C143.525 14.5122 140.529 9.93342 136.603 7.02942C132.677 4.12543 125.771 3.84118 120.946 4.5787C116.121 5.31622 111.335 7.98974 109.991 14.5199C107.97 13.429 96.8076 25.9899 111.819 39.0118C114.401 41.2551 115.084 45.5419 113.978 48.7763C116.813 44.3819 114.977 38.2743 112.203 33.9183C117.089 31.3216 115.714 26.1051 114.946 22.4252C123.796 32.52 136.319 26.1666 139.154 24.2844" fill="#562D20"/>
<path d="M137.202 27.196C137.202 26.4969 138.324 22.7325 141.574 24.776C144.823 26.8196 143.817 34.6711 140.291 34.9938C139.361 35.0783 138.985 34.7787 138.769 33.8721" fill="#F4CAAB"/>
<path d="M135.689 24.3689C139.338 33.5418 137.256 39.0118 137.256 39.0118C137.256 39.0118 142.188 32.6737 138.416 23.0475" fill="#562D20"/>
<g opacity="0.63">
<g opacity="0.63">
<path opacity="0.63" d="M141.827 27.6879C141.597 26.5355 140.298 25.4446 139.207 26.3357C138.639 26.7967 138.47 27.5726 138.516 28.2794C138.57 29.1399 139.738 29.7621 139.438 30.6303C139.215 31.2833 138.631 31.606 138.793 32.428C138.877 32.8736 139.192 33.3115 139.653 33.4344C141.566 33.9414 141.366 30.976 141.428 29.9926C141.443 29.7698 141.097 29.7314 141.044 29.9388C140.99 30.1309 140.967 30.6917 140.89 30.8761C141.013 31.3985 140.752 31.6213 140.114 31.5599C139.177 32.0362 139.084 31.8518 139.822 31.0067C140.029 30.6994 140.352 30.4459 140.36 30.031C140.367 29.5317 140.068 29.3473 139.761 29.0323C139.446 28.7173 139.461 28.9094 139.223 28.4484C138.431 26.9273 140.944 26.0976 141.489 27.7647C141.558 27.9952 141.866 27.9107 141.827 27.6879Z" fill="#F9D5C5"/>
</g>
</g>
<path d="M139.837 67.4525C139.837 68.1823 139.246 68.7739 138.516 68.7739C137.786 68.7739 137.195 68.1823 137.195 67.4525C137.195 66.7227 137.786 66.1311 138.516 66.1311C139.246 66.1311 139.837 66.7227 139.837 67.4525Z" fill="white"/>
<path d="M143.54 87.6039C144.27 87.6039 144.862 87.0122 144.862 86.2825C144.862 85.5527 144.27 84.9611 143.54 84.9611C142.81 84.9611 142.219 85.5527 142.219 86.2825C142.219 87.0122 142.81 87.6039 143.54 87.6039Z" fill="white"/>
<path d="M140.137 78.2387C139.484 77.916 139.223 77.1247 139.545 76.4717C139.868 75.8187 140.659 75.5575 141.312 75.8802C141.965 76.2028 142.227 76.9941 141.904 77.6471C141.581 78.3002 140.79 78.5614 140.137 78.2387Z" fill="white"/>
<path d="M135.881 24.0771C136.757 22.7941 137.41 21.3114 137.333 19.8056C137.218 17.5316 133.761 13.89 133.684 13.8977C133.615 13.8977 127.161 19.5828 135.881 24.0771Z" fill="#747400"/>
<path opacity="0.57" d="M134.729 22.2025C135.704 21.7031 136.58 21.0348 137.325 20.2588C137.333 20.1052 137.333 19.9592 137.325 19.8055C137.287 19.0988 136.926 18.2537 136.442 17.4316C136.288 18.7607 135.712 19.721 135.051 20.3741C134.982 20.4432 134.905 20.5123 134.875 20.6045C134.821 20.7428 134.875 20.8888 134.921 21.0271C135.136 21.6494 134.867 21.5648 134.729 22.2025ZM134.137 17.5853C134.022 17.2165 134.053 17.2012 133.868 16.8555C134.298 16.4252 134.383 15.6877 134.552 14.8273C134.775 15.0885 135.021 15.3881 135.274 15.7184C134.898 16.3023 134.667 17.109 134.137 17.5853Z" fill="#757504"/>
<path d="M133.684 13.8977C133.699 13.8977 135.013 20.8043 135.889 24.0617C135.889 24.0694 135.881 24.0694 135.881 24.077C127.161 19.5828 133.615 13.8977 133.684 13.8977Z" fill="#757504"/>
<path opacity="0.57" d="M132.27 21.2423C132.685 21.8108 133.261 22.3793 134.037 22.9401C134.559 22.9324 135.074 22.9017 135.597 22.8633C135.497 22.4638 135.405 22.0489 135.305 21.611C134.283 21.5265 133.253 21.4574 132.27 21.2423ZM131.963 16.095C132.716 16.5021 133.507 16.8479 134.329 17.1014C134.49 17.8927 134.675 18.7685 134.859 19.6443C133.63 19.5598 132.424 19.2525 131.325 18.7378C131.279 17.7621 131.571 16.8555 131.963 16.095Z" fill="#757504"/>
<path d="M136.427 24.0848C135.482 23.4241 134.398 22.9247 133.277 22.9631C131.594 23.0246 128.859 25.5445 128.859 25.6059C128.867 25.652 133.008 30.4997 136.427 24.0848Z" fill="#747400"/>
<path opacity="0.57" d="M135.028 24.9146C134.667 24.1848 134.183 23.5318 133.614 22.9709C133.499 22.9633 133.392 22.9633 133.276 22.9633C132.754 22.9863 132.124 23.2398 131.509 23.5932C132.493 23.7161 133.2 24.154 133.676 24.6534C133.73 24.7072 133.776 24.761 133.845 24.784C133.945 24.8224 134.06 24.784 134.16 24.7533C134.621 24.6073 134.552 24.8071 135.028 24.9146ZM131.602 25.3064C131.325 25.3909 131.317 25.3602 131.056 25.4985C130.741 25.1758 130.196 25.1067 129.558 24.9684C129.75 24.8071 129.981 24.6227 130.226 24.4383C130.657 24.7302 131.256 24.9069 131.602 25.3064Z" fill="#757504"/>
<path d="M128.859 25.5983C128.859 25.5906 133.991 24.6841 136.411 24.0695C136.418 24.0695 136.418 24.0771 136.426 24.0771C133.007 30.4997 128.867 25.6521 128.859 25.5983Z" fill="#757504"/>
<path opacity="0.57" d="M134.29 26.7276C134.713 26.428 135.143 26.0054 135.573 25.4369C135.573 25.0528 135.558 24.6687 135.535 24.2845C135.243 24.3537 134.928 24.4228 134.605 24.492C134.521 25.2372 134.459 25.9977 134.29 26.7276ZM130.472 26.8966C130.779 26.3435 131.048 25.7596 131.248 25.1527C131.84 25.0374 132.485 24.9145 133.138 24.7839C133.061 25.6981 132.823 26.5816 132.424 27.3883C131.701 27.4267 131.033 27.1962 130.472 26.8966Z" fill="#757504"/>
<path d="M135.589 24.7454C136.572 23.3549 137.84 22.0873 139.446 21.5188C141.866 20.666 147.105 22.4791 147.128 22.5636C147.159 22.625 143.902 31.3217 135.589 24.7454Z" fill="#747400"/>
<path opacity="0.57" d="M138.025 25.0681C138.148 23.9081 138.478 22.771 138.977 21.7109C139.131 21.6417 139.285 21.5726 139.446 21.5188C140.199 21.2499 141.228 21.2499 142.288 21.3651C140.959 22.0796 140.199 23.0399 139.792 23.9618C139.746 24.0617 139.707 24.1616 139.623 24.2307C139.5 24.3383 139.323 24.346 139.162 24.3613C138.432 24.4381 138.632 24.6609 138.025 25.0681ZM143.087 23.6776C143.518 23.6315 143.525 23.5931 143.956 23.6238C144.224 23.0246 144.962 22.6251 145.792 22.095C145.431 21.9874 145.008 21.8799 144.555 21.7723C144.117 22.4023 143.372 22.9708 143.087 23.6776Z" fill="#757504"/>
<path d="M147.136 22.5559C147.128 22.5405 139.377 24.1923 135.604 24.7224C135.597 24.73 135.597 24.7377 135.589 24.7377C143.902 31.3217 147.159 22.625 147.136 22.5559Z" fill="#757504"/>
<path opacity="0.57" d="M140.045 27.0579C139.277 26.8966 138.447 26.5739 137.533 26.0668C137.326 25.5598 137.141 25.0374 136.965 24.5227C137.418 24.4458 137.902 24.3613 138.394 24.2768C138.916 25.2141 139.415 26.1898 140.045 27.0579ZM145.546 25.168C144.808 24.6149 144.117 23.9926 143.51 23.2935C142.619 23.4702 141.628 23.6622 140.637 23.8543C141.236 25.0143 142.058 26.0592 143.049 26.9042C144.094 26.5355 144.924 25.8671 145.546 25.168Z" fill="#757504"/>
<path d="M142.742 26.8888C143.056 25.3831 142.281 23.7159 140.928 22.9784C142.726 23.0322 144.424 21.5187 144.578 19.7287C144.593 19.5828 144.593 19.4368 144.516 19.3139C144.416 19.1448 144.217 19.0757 144.032 19.0296C143.179 18.8068 142.258 18.7377 141.405 18.9758C140.552 19.2217 139.776 19.8055 139.43 20.6199C141.313 17.447 137.617 16.1487 137.302 16.4483C136.442 17.2934 136.48 19.529 136.857 20.6814C134.759 19.1372 133.653 21.4727 133.3 22.2947C133.254 22.4099 133.207 22.5328 133.238 22.6558C133.277 22.8017 133.407 22.9016 133.53 22.9938C134.406 23.6314 135.558 24.2921 136.511 23.762C135.62 25.3216 135.32 26.1974 136.396 27.6417C136.473 27.7416 136.557 27.8491 136.672 27.8876C136.841 27.9567 137.033 27.8799 137.195 27.8031C138.209 27.3037 139.015 26.4048 139.407 25.3446C139.814 26.3357 140.606 27.1654 141.581 27.611C141.735 27.6801 141.904 27.7416 142.081 27.7262C142.465 27.6725 142.665 27.2576 142.742 26.8888Z" fill="white"/>
<path d="M138.87 21.1884C138.954 20.3894 138.847 19.5673 138.57 18.8145C138.094 19.0142 137.809 19.5366 137.748 20.0513C137.687 20.5661 137.809 21.0808 137.932 21.5878C137.871 21.3574 137.564 21.2421 137.356 21.3651C137.41 21.4726 137.456 21.5725 137.51 21.68C136.918 21.4572 136.258 21.4342 135.651 21.6263C135.574 21.6493 135.489 21.6877 135.459 21.7645C135.436 21.826 135.466 21.8951 135.489 21.9489C135.797 22.5943 136.588 22.9553 137.279 22.771C137.11 22.9246 136.98 23.1167 136.888 23.3318C137.218 23.3471 137.548 23.3164 137.871 23.2242C137.564 23.7236 137.318 24.2537 137.133 24.8068C137.057 25.0373 137.003 25.3292 137.179 25.5059C137.31 25.6289 137.518 25.6365 137.694 25.5828C138.409 25.383 138.739 24.5763 138.97 23.8696C139.1 24.2767 139.392 24.6224 139.768 24.8299C139.799 24.4842 139.745 24.1384 139.615 23.8158C139.876 24.4227 140.468 24.8683 141.113 24.9528C141.19 24.9605 141.274 24.9682 141.336 24.9297C141.466 24.8529 141.459 24.6685 141.42 24.5226C141.228 23.7466 140.621 23.0936 139.876 22.8247C140.168 22.6096 140.475 22.4252 140.798 22.2793C140.475 22.1179 140.091 22.0949 139.745 22.2101C140.429 21.7876 141.167 21.3036 141.42 20.543C140.345 20.6198 139.3 21.0347 138.47 21.7261" fill="#FCE1BA"/>
<path d="M138.954 22.9476C138.947 22.9169 138.939 22.8862 138.916 22.8631C138.747 22.6864 138.455 22.6019 138.263 22.7786C138.04 22.9784 138.163 23.3164 138.332 23.5008C138.516 23.7005 138.854 23.762 139.054 23.5469C139.231 23.3625 139.185 23.0552 138.954 22.9476ZM138.67 23.1627C138.67 23.1858 138.67 23.2088 138.685 23.2396C138.647 23.1627 138.593 23.132 138.67 23.1627Z" fill="#63513D"/>
<path d="M139.146 22.1718C139.146 22.3101 139.338 22.4407 139.461 22.3408C139.538 22.2794 139.607 22.2179 139.676 22.1565C139.769 22.072 139.715 21.9337 139.623 21.8799C139.592 21.8568 139.561 21.8338 139.523 21.8184C139.346 21.7032 139.139 21.8799 139.139 22.0643C139.146 22.095 139.146 22.1334 139.146 22.1718Z" fill="#63513D"/>
<path d="M139.823 22.8861C139.799 22.8708 139.776 22.8631 139.746 22.8708C139.746 22.8631 139.753 22.8631 139.753 22.8554C139.753 22.84 139.753 22.817 139.753 22.8016C139.753 22.7478 139.715 22.6941 139.669 22.671C139.2 22.4559 139.146 23.1627 139.469 23.3701C139.776 23.5852 140.153 23.1012 139.823 22.8861ZM139.569 22.9706C139.584 22.986 139.607 22.986 139.623 22.986C139.623 22.9937 139.615 23.009 139.615 23.0167C139.615 23.1473 139.607 23.0014 139.569 22.9706Z" fill="#63513D"/>
<path d="M138.878 21.5803C138.87 21.5649 138.855 21.5572 138.839 21.5419C138.793 21.3805 138.647 21.2653 138.455 21.3037C138.186 21.3652 138.102 21.6725 138.163 21.9029C138.347 22.5713 139.093 22.095 138.878 21.5803Z" fill="#63513D"/>
<path d="M137.986 22.0179C137.925 21.9181 137.817 21.9258 137.748 21.9872C137.587 21.9719 137.395 22.1255 137.479 22.3406C137.633 22.7478 138.232 22.4098 137.986 22.0179Z" fill="#63513D"/>
<path d="M126.508 36.3691C127.991 37.3985 130.142 37.3985 131.563 36.2538C132.208 35.7391 133.338 34.1027 132.262 33.4343C131.993 33.273 131.732 33.5419 131.778 33.8108C131.94 34.7711 131.678 35.3857 130.803 35.9619C129.473 36.83 128.037 36.4843 126.6 36.1539C126.47 36.1232 126.4 36.2922 126.508 36.3691Z" fill="#753519"/>
<path d="M133.507 35.2319C132.977 35.4471 132.662 35.2319 132.185 35.0168C132.131 34.9938 132.07 35.0476 132.101 35.1013C132.393 35.6237 133.084 35.593 133.545 35.3318C133.599 35.3011 133.568 35.2089 133.507 35.2319Z" fill="#753519"/>
<path d="M133.061 35.7545C132.531 35.9696 132.216 35.7545 131.74 35.5394C131.686 35.5164 131.624 35.5701 131.655 35.6239C131.947 36.1463 132.639 36.1156 133.1 35.8544C133.153 35.8237 133.115 35.7315 133.061 35.7545Z" fill="#753519"/>
<path d="M133.461 34.5098C133.069 34.7863 132.769 34.5482 132.377 34.4176C132.324 34.4022 132.277 34.4637 132.308 34.5098C132.6 34.9323 133.176 34.9323 133.53 34.5943C133.568 34.5482 133.514 34.4713 133.461 34.5098Z" fill="#753519"/>
<path d="M132.416 30.515C130.634 29.7237 128.844 29.7237 126.977 30.2538C125.993 30.5304 124.534 30.9913 123.957 31.9286C123.696 32.3512 124.365 32.7353 124.618 32.3127C125.071 31.5829 126.593 31.0374 127.338 30.7839C128.966 30.2385 130.703 30.177 132.347 30.6687C132.439 30.6917 132.5 30.5534 132.416 30.515Z" fill="#753519"/>
<path d="M121.13 38.6662C120.631 39.6803 120.247 41.0016 118.894 41.0708C118.51 41.0938 118.111 40.9786 117.796 40.7558C117.496 40.533 117.45 40.2027 117.197 39.9645C117.012 39.7878 116.72 39.8723 116.643 40.1105C116.313 41.1783 118.134 41.8083 118.887 41.7622C120.369 41.67 121.414 40.1489 121.345 38.7276C121.353 38.6201 121.191 38.5509 121.13 38.6662Z" fill="#753519"/>
<path d="M117.296 42.2616C117.765 42.154 118.057 41.647 117.849 41.1937C117.826 41.1399 117.75 41.163 117.734 41.2091C117.634 41.5932 117.704 41.985 117.266 42.1617C117.204 42.1848 117.227 42.2846 117.296 42.2616Z" fill="#753519"/>
<path d="M117.849 42.3769C118.318 42.2694 118.61 41.7623 118.403 41.3091C118.38 41.2553 118.303 41.2783 118.287 41.3244C118.187 41.7086 118.257 42.1004 117.819 42.2771C117.757 42.3001 117.773 42.4 117.849 42.3769Z" fill="#753519"/>
<path d="M116.836 41.7086C117.273 41.7547 117.535 41.2861 117.389 40.9019C117.366 40.8405 117.289 40.8405 117.266 40.9019C117.166 41.1785 117.227 41.5703 116.836 41.601C116.766 41.6087 116.766 41.7009 116.836 41.7086Z" fill="#753519"/>
<path d="M114.93 38.0668C115.368 36.8069 116.229 35.7083 117.443 35.1091C117.865 34.9016 119.002 34.3792 119.494 34.602C119.939 34.8095 120.331 34.1411 119.878 33.9413C119.071 33.5726 117.973 34.0719 117.281 34.4714C115.921 35.2627 115.03 36.4535 114.761 38.0131C114.746 38.1283 114.892 38.1744 114.93 38.0668Z" fill="#753519"/>
<path d="M126.377 44.9276C126.961 45.4961 128.275 45.0736 128.92 44.7355C129.719 44.3053 130.265 43.6753 130.472 42.7919C130.58 42.3539 129.85 42.3079 129.919 42.7919C130.011 43.4525 129.22 44.1286 128.759 44.4666C128.29 44.8047 127.883 44.9967 127.284 44.8738C126.946 44.8047 126.8 44.6894 126.462 44.7278C126.37 44.7355 126.3 44.8508 126.377 44.9276Z" fill="#753519"/>
<g opacity="0.63">
<g opacity="0.63">
<path opacity="0.63" d="M123.473 38.9734C123.627 39.4882 123.581 39.9337 123.535 40.4562C123.504 40.7788 123.481 41.1015 123.704 41.3627C124.126 41.8697 125.156 42.0157 125.747 41.816C125.916 41.7545 125.886 41.5163 125.701 41.501C124.941 41.4549 123.781 41.5471 123.873 40.4562C123.919 39.8876 123.888 39.419 123.658 38.8966C123.612 38.7814 123.435 38.8582 123.473 38.9734Z" fill="#F9D5C5"/>
</g>
</g>
<g opacity="0.63">
<g opacity="0.63">
<path opacity="0.63" d="M128.283 46.2719C128.974 46.2258 129.758 45.98 130.242 45.4499C130.326 45.3577 130.219 45.2425 130.119 45.2886C129.489 45.5805 128.928 45.9185 128.267 46.1413C128.198 46.1644 128.206 46.2719 128.283 46.2719Z" fill="#F9D5C5"/>
</g>
</g>
<g opacity="0.46">
<g opacity="0.46">
<g opacity="0.46">
<path opacity="0.46" d="M120.331 45.0041C120.193 44.282 120.177 43.5598 120.093 42.83C120.085 42.7455 119.97 42.7455 119.962 42.83C119.901 43.5598 120.039 44.3281 120.185 45.0426C120.2 45.1424 120.346 45.104 120.331 45.0041Z" fill="#F49F8E"/>
</g>
</g>
<g opacity="0.46">
<g opacity="0.46">
<path opacity="0.46" d="M121.445 45.2807C121.23 44.5815 121.084 43.8594 121.015 43.1295C120.999 43.0066 120.823 43.0066 120.823 43.1295C120.838 43.9132 120.999 44.62 121.314 45.3344C121.345 45.4113 121.468 45.3575 121.445 45.2807Z" fill="#F49F8E"/>
</g>
</g>
<g opacity="0.46">
<g opacity="0.46">
<path opacity="0.46" d="M122.159 45.3807C121.721 43.9594 121.691 42.5458 121.645 41.0785C121.645 40.9556 121.437 40.9172 121.422 41.0478C121.199 42.5228 121.529 44.0286 122.013 45.4191C122.044 45.5113 122.182 45.4729 122.159 45.3807Z" fill="#F49F8E"/>
</g>
</g>
<g opacity="0.46">
<g opacity="0.46">
<path opacity="0.46" d="M122.643 44.3052C122.482 43.6445 122.421 42.9838 122.336 42.3154C122.328 42.2386 122.221 42.2386 122.213 42.3154C122.19 42.9915 122.336 43.6906 122.505 44.3436C122.536 44.4281 122.666 44.3974 122.643 44.3052Z" fill="#F49F8E"/>
</g>
</g>
<g opacity="0.46">
<g opacity="0.46">
<path opacity="0.46" d="M123.343 42.9837C123.404 42.4152 123.396 41.839 123.25 41.2859C123.235 41.2398 123.158 41.2474 123.166 41.2935C123.243 41.862 123.289 42.4075 123.235 42.9837C123.235 43.0528 123.335 43.0451 123.343 42.9837Z" fill="#F49F8E"/>
</g>
</g>
</g>
<g opacity="0.46">
<g opacity="0.46">
<g opacity="0.46">
<path opacity="0.46" d="M129.827 39.3731C129.827 39.0427 129.835 38.72 129.835 38.3897C129.835 38.3359 129.758 38.3359 129.758 38.3897C129.75 38.72 129.742 39.0427 129.735 39.3731C129.727 39.4345 129.827 39.4345 129.827 39.3731Z" fill="#F49F8E"/>
</g>
</g>
<g opacity="0.46">
<g opacity="0.46">
<path opacity="0.46" d="M131.018 40.971C130.849 40.4409 130.795 39.8801 130.826 39.3269C130.834 39.227 130.672 39.204 130.657 39.3039C130.542 39.9031 130.588 40.4562 130.772 41.0401C130.826 41.1938 131.072 41.1246 131.018 40.971Z" fill="#F49F8E"/>
</g>
</g>
<g opacity="0.46">
<g opacity="0.46">
<path opacity="0.46" d="M131.678 40.0184C131.632 39.2041 131.702 38.3974 131.694 37.5831C131.694 37.5063 131.579 37.4909 131.556 37.5677C131.371 38.3667 131.425 39.2118 131.509 40.0184C131.525 40.126 131.686 40.126 131.678 40.0184Z" fill="#F49F8E"/>
</g>
</g>
<g opacity="0.46">
<g opacity="0.46">
<path opacity="0.46" d="M132.769 40.9171C132.577 39.6725 132.585 38.4049 132.401 37.1603C132.385 37.0681 132.262 37.1066 132.255 37.1834C132.132 38.3972 132.385 39.7724 132.585 40.9709C132.6 41.1015 132.792 41.0477 132.769 40.9171Z" fill="#F49F8E"/>
</g>
</g>
<g opacity="0.46">
<g opacity="0.46">
<path opacity="0.46" d="M133.461 39.7034C133.515 38.4127 133.538 37.0913 133.484 35.8006C133.476 35.6777 133.307 35.6854 133.3 35.8006C133.169 37.0836 133.346 38.4127 133.323 39.7034C133.315 39.7956 133.453 39.7956 133.461 39.7034Z" fill="#F49F8E"/>
</g>
</g>
<g opacity="0.46">
<g opacity="0.46">
<path opacity="0.46" d="M134.398 38.9581C134.621 38.067 134.314 37.0606 134.052 36.2078C134.037 36.1694 133.983 36.1847 133.991 36.2232C134.175 37.0606 134.49 38.067 134.291 38.9274C134.275 38.9966 134.383 39.0273 134.398 38.9581Z" fill="#F49F8E"/>
</g>
</g>
</g>
<path d="M123.236 78.5614C123.189 78.5614 123.143 78.5614 123.097 78.546C118.011 77.6395 113.494 73.3526 113.302 73.1683C112.995 72.8763 112.987 72.3923 113.279 72.085C113.571 71.7777 114.055 71.77 114.362 72.062C114.408 72.1004 118.534 76.1721 123.151 76.9942L123.374 78.546C123.335 78.5614 123.282 78.5614 123.236 78.5614Z" fill="#BC6F8B"/>
<path d="M56.4129 145.031C57.089 146.168 59.4552 146.613 60.0928 145.453C61.4373 145.784 62.3745 145.645 63.719 145.983C64.0186 146.06 64.3413 146.129 64.6409 146.045C64.9174 145.968 65.1402 145.753 65.4168 145.661C65.7011 145.561 66.0084 145.599 66.3003 145.63C67.5065 145.768 68.7049 145.899 69.9111 146.037C70.4335 146.099 71.1787 145.945 71.1172 145.422C72.5155 145.469 73.9137 145.515 75.3119 145.553C76.3337 145.584 77.3862 145.615 78.3311 145.23C79.2761 144.846 80.0904 143.94 80.0213 142.918C79.9598 141.942 79.1532 141.197 78.6922 140.329C78.116 139.246 78.0853 137.978 77.8932 136.772C77.7012 135.566 77.2479 134.267 76.18 133.668C75.5424 133.307 74.7741 133.253 74.0443 133.215C69.55 132.954 65.0557 132.685 60.5615 132.424C59.048 132.331 57.5192 132.247 56.0211 132.485C54.4769 132.731 53.0018 133.322 51.5499 133.914C49.5831 134.713 47.6087 135.504 45.642 136.303C43.4755 137.179 41.0632 138.308 40.3257 140.529C41.8545 141.612 43.8366 142.019 45.665 141.635" fill="#EF7A5F"/>
<g opacity="0.33">
<g opacity="0.33">
<path opacity="0.33" d="M61.2143 144.339C62.4435 144.647 63.6958 144.954 64.9711 144.754C65.9468 144.593 66.7765 144.186 67.7906 144.132C68.7202 144.078 69.6728 144.247 70.6101 144.278C72.3694 144.339 74.3361 144.431 76.0723 144.07C76.7638 143.924 77.0557 143.801 77.3169 143.125C78.3233 140.536 76.9251 138.57 74.8662 137.179C73.5525 136.296 72.4539 136.38 70.8943 136.495C69.0889 136.626 67.2835 136.803 65.4935 137.056C63.9416 137.279 59.4013 137.579 58.9864 139.753C58.6176 141.666 63.0351 141.612 64.0338 141.75C66.7534 142.127 69.5422 142.542 72.2925 142.626C73.3143 142.657 75.573 142.772 75.9571 141.443C76.372 139.999 73.9366 139.591 72.9993 139.445C71.0787 139.138 69.0582 139.23 67.1376 139.476C66.2233 139.591 65.2016 139.568 64.8866 140.552C64.7867 140.859 65.2861 141.082 65.4167 140.775C65.8699 139.737 69.2503 139.922 70.2106 139.922C71.2323 139.922 72.2925 139.953 73.299 140.16C73.5832 140.221 74.121 140.298 74.3591 140.452C74.9891 140.475 75.1504 140.744 74.8508 141.243C74.92 141.65 74.774 141.85 74.4206 141.858C73.9366 142.157 72.8534 142.019 72.2849 142.004C70.7483 141.965 69.1965 141.75 67.66 141.589C65.9852 141.412 64.3181 141.22 62.6586 140.959C62.1209 140.874 61.3219 140.905 60.8609 140.644C59.5472 139.914 60.3616 138.969 61.3373 138.57C63.8341 137.548 66.8149 137.456 69.4654 137.202C71.1325 137.041 72.7535 136.641 74.3361 137.456C75.9417 138.278 77.6396 140.168 76.9635 142.111C77.025 143.01 76.5026 143.525 75.3886 143.64C75.1581 143.663 74.9353 143.679 74.7048 143.702C74.0442 143.794 73.322 143.794 72.6536 143.809C71.386 143.848 70.1337 143.786 68.8738 143.725C67.7829 143.679 66.9609 143.778 65.9314 144.063C64.2873 144.516 62.9583 144.416 61.3065 143.986C61.0837 143.917 60.9839 144.278 61.2143 144.339Z" fill="#EF7A5F"/>
</g>
</g>
<path d="M206.314 127.13C201.121 125.563 195.935 123.996 190.665 122.751C180.77 120.408 172.565 111.128 156.17 122.206C153.266 124.173 149.917 125.356 146.475 125.233C143.033 125.11 139.676 124.126 136.342 123.22C126.562 120.554 107.348 116.674 94.4182 118.211C85.0301 119.333 75.258 124.027 66.2617 120.923L69.5345 136.18C90.6076 142.541 147.935 144.308 197.487 144.7C201.006 139.207 203.971 133.322 206.314 127.13Z" fill="#F9D3C5"/>
<g opacity="0.63">
<g opacity="0.63">
<path opacity="0.63" d="M99.1125 120.301C109.43 119.893 119.44 122.022 129.474 124.127C136.98 125.701 145.5 127.753 153.113 125.671C153.328 125.609 153.236 125.31 153.021 125.348C144.478 126.892 136.219 125.164 127.837 123.404C118.357 121.415 108.846 119.671 99.1125 120.162C99.0279 120.17 99.0279 120.301 99.1125 120.301Z" fill="#F9D5C5"/>
</g>
</g>
<path d="M155.894 146.682C157.699 143.264 158.775 139.399 158.606 135.504C158.46 132.193 156.747 129.305 155.31 126.401C155.026 125.817 154.48 125.048 154.396 124.418C154.334 123.927 154.089 124.104 154.519 123.719C154.88 123.397 155.479 123.735 155.825 123.888C157.262 124.549 158.322 125.924 159.136 127.23C160.811 129.888 161.633 132.854 162.409 135.858C162.447 136.004 162.708 135.981 162.685 135.819C162.301 132.677 160.957 129.282 159.205 126.646C158.452 125.517 157.538 124.418 156.347 123.735C155.925 123.497 154.35 122.713 153.904 123.197C153.528 123.612 154.004 124.472 154.158 124.856C154.788 126.393 155.617 127.845 156.347 129.343C157.646 132.017 158.383 134.629 158.183 137.625C157.976 140.752 157.085 143.771 155.687 146.567C155.633 146.698 155.825 146.813 155.894 146.682Z" fill="#AF878F"/>
<path d="M180.063 123.374C183.774 126.838 185.218 132.086 184.188 137.018C183.182 141.835 180.124 145.784 176.514 148.987C176.437 149.056 176.552 149.164 176.629 149.102C184.281 142.918 188.406 130.826 180.186 123.251C180.101 123.166 179.978 123.289 180.063 123.374Z" fill="#AF878F"/>
<path d="M174.739 119.21C181.453 121.223 187.945 125.74 190.419 132.547C192.762 138.977 190.719 146.152 185.441 150.439C185.341 150.524 185.471 150.693 185.579 150.616C191.241 146.805 193.039 138.954 190.849 132.7C188.383 125.663 181.722 121 174.777 119.071C174.685 119.048 174.647 119.187 174.739 119.21Z" fill="#AF878F"/>
<path d="M145.545 149.325L163.123 147.812C173.64 148.15 184.15 148.496 194.667 148.834C199.692 141.865 203.779 134.175 206.752 125.955C205.684 125.579 204.609 125.21 203.541 124.833C201.482 124.119 199.4 123.389 197.218 123.135C195.428 122.928 193.615 123.036 191.825 122.797C188.061 122.298 184.726 120.301 181.208 118.941C172.757 115.683 162.816 116.229 154.803 120.393C153.366 121.138 149.755 121.837 150.508 123.305C148.772 122.713 147.988 124.28 148.495 125.148C152.882 128.175 160.311 140.075 145.545 149.325Z" fill="white"/>
<g opacity="0.63">
<path opacity="0.63" d="M171.359 138.892C170.529 138.708 169.669 138.647 168.831 138.708C167.986 138.777 167.157 138.961 166.327 139.146C165.497 139.33 164.652 139.484 163.792 139.561C162.939 139.622 162.086 139.653 161.233 139.699C157.815 139.784 154.404 139.591 151 139.276C144.201 138.631 137.479 137.517 130.718 136.795C123.965 135.996 117.166 135.566 110.383 134.882C106.995 134.544 103.599 134.198 100.219 133.753C98.5285 133.515 96.8461 133.261 95.1713 132.908C94.3339 132.731 93.5042 132.531 92.6898 132.262C92.2827 132.124 91.8832 131.97 91.5144 131.755C91.1533 131.548 90.7615 131.271 90.677 130.833C90.7769 131.264 91.1764 131.517 91.5374 131.701C91.9139 131.894 92.3134 132.032 92.7206 132.147C93.5349 132.385 94.3646 132.554 95.202 132.7C96.8768 132.992 98.567 133.192 100.257 133.369C103.637 133.737 107.033 134.014 110.421 134.283L120.6 135.089C123.996 135.351 127.399 135.643 130.787 136.019C137.563 136.803 144.293 137.909 151.046 138.677C154.419 139.061 157.815 139.315 161.21 139.307C162.055 139.292 162.908 139.292 163.753 139.253C164.598 139.207 165.436 139.084 166.265 138.931C167.103 138.777 167.948 138.616 168.801 138.577C169.684 138.57 170.537 138.67 171.359 138.892Z" fill="#F9D5C5"/>
</g>
<g opacity="0.63">
<path opacity="0.63" d="M71.9162 122.652L69.5347 136.181C71.8317 136.872 74.8356 137.525 77.1096 137.994C77.4938 138.57 77.6858 139.522 78.3542 140.175C80.5975 137.003 84.1315 128.498 82.9099 125.609C79.9061 126.769 78.9458 127.538 77.7242 128.114C76.0802 125.771 73.8446 123.842 71.9162 122.652Z" fill="#F9D5C5"/>
</g>
<path d="M48.9682 115.768C39.8337 118.511 37.2831 129.412 38.182 133.991C38.8043 137.133 41.1705 139.676 43.844 141.435C46.118 142.933 46.241 144.378 48.9375 144.77C51.3575 145.123 53.8236 144.946 56.259 144.762C58.2257 144.616 60.2001 144.47 62.1668 144.324C64.3794 144.163 66.6304 143.986 68.7047 143.202C71.0478 142.319 73.0376 140.698 74.9659 139.107C75.7572 138.454 76.8328 137.924 77.1324 136.941C79.345 129.566 70.6637 120.093 65.3474 118.203C62.1284 117.059 58.6482 113.333 55.5829 114.838" fill="#F9D3C5"/>
<g opacity="0.32">
<path opacity="0.32" d="M74.897 137.248C74.9815 137.801 75.0968 138.355 75.2504 138.892C75.9956 138.332 76.8714 137.817 77.1326 136.941C77.6935 135.082 77.5552 133.084 76.9559 131.118C75.5039 132.831 74.5744 135.036 74.897 137.248Z" fill="#F9D5C5"/>
</g>
<path d="M168.14 139.399C171.781 138.739 172.903 138.408 176.575 138.877C179.133 139.2 182.445 140.682 181.661 141.136C180.439 141.843 178.012 141.574 177.243 141.781C176.514 141.981 178.234 142.334 179.08 142.388C181.5 142.526 183.935 142.695 186.317 143.164C187.046 143.31 187.838 143.533 188.26 144.147C188.306 144.209 188.345 144.278 188.337 144.355C188.329 144.47 188.214 144.547 188.107 144.593C187.415 144.939 186.631 145.061 185.856 145.1C185.034 145.146 184.211 145.1 183.389 145.061C178.926 144.831 174.47 144.601 170.006 144.362" fill="#F4BDAB"/>
<path d="M86.4438 124.034C83.97 125.056 81.4425 126.109 79.4374 127.891C77.4245 129.673 76.1339 132.347 76.3874 135.036C77.1326 142.826 81.6499 144.14 85.2838 144.969C94.9791 147.197 103.829 145.361 113.425 145.277C144.969 144.992 185.464 145.968 189.213 144.892C187.83 142.857 181.876 143.663 177.743 143.056C174.724 142.611 174.332 139.607 171.366 138.892C168.255 138.147 167.333 139.223 164.137 139.392C152.368 140.006 140.306 137.102 123.804 135.727C102.738 133.968 91.0149 133.107 90.6846 130.849" fill="#F9D3C5"/>
<path d="M64.6948 131.893C66.2697 131.025 67.2838 129.128 66.9074 127.33C66.7307 126.493 65.8241 124.826 64.7255 125.425C64.472 125.563 64.5411 125.955 64.8023 126.032C65.7396 126.293 66.1929 126.869 66.3004 127.891C66.4618 129.466 65.5091 130.595 64.5565 131.709C64.4566 131.801 64.5642 131.963 64.6948 131.893Z" fill="#753519"/>
<path d="M66.8687 125.148C66.8457 125.402 66.7689 125.64 66.5922 125.832C66.4385 126.001 66.2311 126.078 66.0621 126.224C66.016 126.262 66.0544 126.331 66.1082 126.331C66.7074 126.331 66.9993 125.663 66.9763 125.148C66.9763 125.079 66.8764 125.079 66.8687 125.148Z" fill="#753519"/>
<path d="M67.13 125.794C67.1069 126.047 67.0301 126.285 66.8534 126.477C66.6997 126.646 66.5 126.723 66.3233 126.869C66.2772 126.908 66.3156 126.977 66.3694 126.977C66.9686 126.977 67.2606 126.308 67.2375 125.794C67.2375 125.725 67.1376 125.725 67.13 125.794Z" fill="#753519"/>
<path d="M66.208 124.864C66.2771 125.34 65.9238 125.486 65.6318 125.771C65.5934 125.809 65.6165 125.886 65.6779 125.878C66.185 125.824 66.4538 125.294 66.3079 124.833C66.2925 124.764 66.2003 124.795 66.208 124.864Z" fill="#753519"/>
<path d="M62.1592 123.973C60.6073 125.21 59.7853 126.9 59.4319 128.828C59.2552 129.781 59.0017 131.241 59.5625 132.116C59.8314 132.531 60.4921 132.147 60.2232 131.732C59.7776 131.033 59.9773 129.543 60.0772 128.782C60.2923 127.023 61.0375 125.363 62.2744 124.096C62.3512 124.011 62.2437 123.911 62.1592 123.973Z" fill="#753519"/>
<path d="M63.6109 138.101C64.3177 138.992 65.3011 140.022 64.6788 141.243C64.2793 142.034 63.7031 142.011 62.9733 142.165C62.6737 142.226 62.6813 142.618 62.8965 142.772C63.7799 143.402 65.0322 142.196 65.3472 141.443C65.9157 140.06 65.0168 138.539 63.7569 137.917C63.6263 137.855 63.5264 138.001 63.6109 138.101Z" fill="#753519"/>
<path d="M65.0474 143.141C65.1626 142.68 64.8553 142.18 64.356 142.157C64.3022 142.157 64.2715 142.226 64.3099 142.265C64.6095 142.534 64.986 142.649 64.9399 143.133C64.9322 143.187 65.032 143.195 65.0474 143.141Z" fill="#753519"/>
<path d="M65.4012 142.703C65.5164 142.242 65.2014 141.743 64.7097 141.719C64.656 141.719 64.6252 141.789 64.6636 141.827C64.9633 142.096 65.3397 142.211 65.2936 142.695C65.2859 142.749 65.3858 142.764 65.4012 142.703Z" fill="#753519"/>
<path d="M64.3409 143.294C64.5867 142.91 64.2717 142.488 63.8569 142.434C63.7954 142.426 63.78 142.503 63.8108 142.542C64.0182 142.764 64.387 142.887 64.2333 143.256C64.218 143.318 64.3101 143.348 64.3409 143.294Z" fill="#753519"/>
<path d="M60.2309 143.333C59.2937 142.334 58.7021 141.051 58.7405 139.668C58.7559 139.138 58.8404 138.016 59.2937 137.632C59.6701 137.317 59.1246 136.772 58.7482 137.087C58.0568 137.671 58.0491 138.992 58.1182 139.791C58.2488 141.312 58.9095 142.534 60.1234 143.456C60.2079 143.525 60.3001 143.402 60.2309 143.333Z" fill="#753519"/>
<path d="M71.7622 136.511C72.5381 136.326 72.8761 135.082 72.953 134.383C73.0605 133.43 72.8224 132.585 72.154 131.901C71.8544 131.594 71.4395 132.178 71.8083 132.347C72.492 132.669 72.638 133.714 72.661 134.383C72.6764 134.928 72.6149 135.312 72.2001 135.727C71.816 136.111 71.839 135.927 71.6393 136.342C71.5855 136.434 71.6546 136.534 71.7622 136.511Z" fill="#753519"/>
<g opacity="0.63">
<g opacity="0.63">
<path opacity="0.63" d="M65.4394 135.743C66.0309 135.988 66.3382 136.442 66.8146 136.826C67.0143 136.987 67.2371 137.095 67.4983 137.064C68.159 136.995 68.8351 136.334 69.0655 135.75C69.127 135.604 68.9042 135.481 68.7967 135.597C68.2128 136.25 67.675 137.033 66.7608 136.303C66.3459 135.965 66.0156 135.704 65.4855 135.543C65.3626 135.504 65.3242 135.689 65.4394 135.743Z" fill="#F9D5C5"/>
</g>
</g>
<g opacity="0.63">
<g opacity="0.63">
<path opacity="0.63" d="M73.9133 135.627C74.2514 135.005 74.4511 134.229 74.2744 133.53C74.2437 133.407 74.09 133.453 74.0747 133.561C73.9902 134.244 73.9594 134.905 73.7904 135.581C73.775 135.65 73.8749 135.696 73.9133 135.627Z" fill="#F9D5C5"/>
</g>
</g>
<path d="M48.5461 120.654C51.8496 124.265 52.6255 129.527 52.4412 134.413C52.349 136.772 52.1108 139.307 53.34 141.328C53.7549 142.011 54.3234 142.603 54.9533 143.102C55.7677 143.755 56.7664 144.293 57.8036 144.178C58.8407 144.07 59.1557 143.54 58.9329 142.518C60.1775 143.387 60.4771 144.501 59.5629 145.138C59.2863 145.33 58.979 145.868 58.6486 145.914C56.0289 146.26 52.2337 146.275 49.5909 146.214C47.6089 146.168 45.6344 146.467 43.6524 146.583C38.1056 146.913 33.0658 145.814 27.519 146.175C20.9274 146.606 20.405 145.046 20.8276 144.239C21.4422 143.064 26.8123 142.019 28.0799 141.62C29.1938 141.274 29.9083 140.137 30.1234 138.985C30.3309 137.832 30.1311 136.657 29.9698 135.497C29.5472 132.516 25.6752 122.636 39.3962 115.998C40.2106 115.607 38.4052 111.366 46.1799 106.464C47.7318 105.481 49.614 105.174 51.4347 104.966C57.3733 104.283 63.5347 106.51 68.7127 109.499C73.8908 112.488 77.732 118.203 77.3556 124.173C77.2404 126.016 76.6795 127.922 75.3428 129.189C73.8216 130.626 71.5322 130.995 69.458 130.664C71.0175 130.833 72.2544 129.089 72.1392 127.522C72.0162 125.955 72.9305 125.34 71.8472 124.203C70.4259 122.713 68.8664 121.353 67.2454 120.093C65.9624 119.087 65.3785 118.518 63.8036 118.096C62.2287 117.673 61.5603 120.147 56.582 122.052C54.7536 122.751 50.0212 121.922 48.5461 120.654Z" fill="#5B412C"/>
<g opacity="0.39">
<g opacity="0.39">
<path opacity="0.39" d="M47.2396 123.512C48.3689 126.14 49.0834 128.867 49.3523 131.717C49.5597 133.899 49.5904 136.119 50.1512 138.247C50.9579 141.313 53.2703 144.601 56.8043 144.309C57.0425 144.286 57.0425 143.963 56.8043 143.94C51.3804 143.371 50.3663 137.986 49.9745 133.492C49.6672 129.95 48.9835 126.624 47.447 123.397C47.3855 123.251 47.1858 123.374 47.2396 123.512Z" fill="#5B412C"/>
</g>
</g>
<g opacity="0.39">
<g opacity="0.39">
<path opacity="0.39" d="M50.4817 119.164C55.3217 120.793 59.2859 117.443 63.9799 117.12C66.6073 116.936 69.7495 118.641 71.5856 120.478C72.4844 121.376 73.1451 122.483 73.7674 123.581C74.3436 124.611 75.1503 125.84 74.4435 127.123C74.0594 127.822 73.222 128.314 72.5766 128.729C72.446 128.813 72.5613 129.013 72.6996 128.944C74.6586 127.899 75.7572 126.67 74.7738 124.457C73.6445 121.914 71.8698 119.74 69.4575 118.357C67.0529 116.974 64.8787 116.337 62.1591 117.013C58.2795 117.973 54.6456 120.186 50.5432 118.933C50.3895 118.887 50.3357 119.11 50.4817 119.164Z" fill="#5B412C"/>
</g>
</g>
<g opacity="0.39">
<g opacity="0.39">
<path opacity="0.39" d="M57.2882 118.057C61.0911 117.451 64.7633 115.492 68.6276 116.928C72.6302 118.419 75.8492 121.691 76.1412 126.078C76.1488 126.239 76.3716 126.239 76.387 126.078C76.7173 121.929 73.483 118.726 69.9951 117.028C65.5777 114.877 61.675 117.066 57.2345 117.85C57.0962 117.881 57.15 118.081 57.2882 118.057Z" fill="#5B412C"/>
</g>
</g>
<g opacity="0.39">
<g opacity="0.39">
<path opacity="0.39" d="M48.2152 133.976C48.8759 136.073 49.5059 138.47 47.8542 140.329C46.9553 141.343 45.7184 142.104 44.4969 142.665C43.091 143.302 41.6236 143.295 40.2254 143.825C39.9258 143.94 39.2113 144.186 39.196 144.624C39.1499 145.753 41.6083 145.584 42.2382 145.584C45.3112 145.561 48.3305 145.546 51.4035 145.653C51.5802 145.661 51.6263 145.361 51.4496 145.338C48.8222 144.962 46.1333 144.985 43.4828 145.092C42.8605 145.115 42.2382 145.169 41.6159 145.138C40.2177 145.077 40.1025 144.508 41.155 144.086C42.0846 143.709 43.1985 143.694 44.1589 143.31C45.8721 142.626 47.9003 141.435 48.7914 139.738C49.7517 137.901 49.0373 135.743 48.4227 133.93C48.3766 133.791 48.1768 133.845 48.2152 133.976Z" fill="#5B412C"/>
</g>
</g>
<g opacity="0.39">
<g opacity="0.39">
<path opacity="0.39" d="M40.2257 118.096C36.3691 120.577 33.2115 124.088 32.812 128.828C32.5047 132.47 34.6021 136.088 33.4343 139.668C32.7045 141.912 30.5918 142.903 28.4561 143.402C27.442 143.64 25.7825 143.594 24.9221 144.232C23.0937 145.592 27.6033 145.868 28.1334 145.907C32.6968 146.206 37.4677 146.191 42.0157 145.707C42.2078 145.684 42.2231 145.4 42.0157 145.392C38.4357 145.369 34.8633 145.592 31.2832 145.546C29.57 145.522 27.78 145.538 26.0898 145.215C25.6519 145.131 24.8606 145.092 25.1603 144.639C25.36 144.339 26.3741 144.293 26.7044 144.224C29.3703 143.702 32.4126 143.133 33.6648 140.391C35.04 137.387 33.6418 134.437 33.273 131.44C32.5739 125.755 35.6315 121.215 40.2795 118.18C40.3332 118.15 40.2871 118.057 40.2257 118.096Z" fill="#5B412C"/>
</g>
</g>
<path d="M65.5162 121.706C64.579 121.053 63.7646 116.89 67.168 118.004C69.0425 118.61 70.6482 120.047 71.5624 121.791C71.7007 122.052 71.8159 122.329 71.8543 122.621C71.9235 123.135 71.7083 123.681 71.3012 124.011C70.9017 124.342 70.3255 124.449 69.8261 124.288" fill="#F9D3C5"/>
<g opacity="0.63">
<g opacity="0.63">
<path opacity="0.63" d="M68.3436 119.878C67.8519 119.571 65.7853 118.165 65.6471 119.409C65.5933 119.909 66.0081 120.631 66.4076 120.923C66.5766 121.046 66.6612 121.023 66.8532 121.092C67.0991 121.176 67.2911 121.146 67.4294 121.522C67.4601 121.614 67.4294 121.745 67.4525 121.837C67.6138 122.498 68.7815 122.836 69.3808 122.936C70.1797 123.059 70.4563 122.59 70.2105 121.86C70.126 121.607 69.7265 121.714 69.811 121.968C70.1106 122.836 69.2655 122.513 68.7508 122.321C68.5664 122.252 68.3129 122.183 68.1516 122.068C67.6599 121.714 67.9518 121.468 67.7905 121.054C67.6138 120.6 67.3679 120.746 66.9915 120.677C66.6227 120.608 66.2617 120.293 66.1387 119.924C66.1387 119.709 66.1387 119.494 66.1387 119.271C66.277 119.31 66.4153 119.348 66.5459 119.386C67.1221 119.571 67.6752 119.809 68.2053 120.101C68.359 120.185 68.4896 119.963 68.3436 119.878Z" fill="#F9D5C5"/>
</g>
</g>
<path d="M84.5693 80.1749C86.6128 79.7678 88.0648 77.9701 87.9649 75.9649C89.2018 78.1391 92.2595 79.3836 94.5258 78.6308C94.7102 78.5693 94.8946 78.4925 94.9868 78.3465C95.1174 78.1468 95.0559 77.8625 94.9791 77.6167C94.6334 76.472 94.0495 75.3426 93.1353 74.4515C92.221 73.5603 90.9534 72.938 89.7242 72.9457C94.9099 73.5449 93.796 68.436 93.2044 68.2286C91.5603 67.6371 88.8945 68.8509 87.7882 69.9111C88.1263 66.5999 84.5155 66.4847 83.2632 66.5C83.0942 66.5 82.9098 66.5154 82.7869 66.6153C82.6409 66.7382 82.6102 66.9456 82.5948 67.1377C82.4642 68.5205 82.5027 70.2414 83.824 71.1019C81.2965 70.8484 80.0212 70.9482 79.0609 72.9841C78.9917 73.1301 78.9303 73.2837 78.961 73.445C79.0071 73.6832 79.2299 73.8753 79.445 74.0289C80.7818 74.9816 82.4489 75.4809 84.0084 75.3887C83.1096 76.3951 82.687 77.778 82.8637 79.1762C82.8945 79.399 82.9406 79.6372 83.0865 79.8292C83.4322 80.2441 84.0776 80.2748 84.5693 80.1749Z" fill="white"/>
<path d="M88.6332 72.5694C89.655 72.2467 90.5692 71.7012 91.276 70.9714C90.6921 70.5028 89.8547 70.4336 89.194 70.6334C88.5333 70.8331 87.9956 71.248 87.4732 71.6551C87.7036 71.4631 87.6268 71.0328 87.3272 70.8485C87.235 70.9637 87.1505 71.0789 87.0583 71.1942C86.9046 70.3721 86.4437 69.5655 85.7753 68.9432C85.6908 68.8664 85.5832 68.7819 85.468 68.7896C85.3758 68.7972 85.3144 68.8587 85.2683 68.9278C84.7151 69.6346 84.8534 70.7716 85.5756 71.4938C85.2683 71.3786 84.9379 71.3171 84.6153 71.3171C84.8304 71.7243 85.1146 72.1007 85.4526 72.4387C84.6306 72.3312 83.8086 72.3158 83.0096 72.385C82.6716 72.4157 82.2798 72.5002 82.2029 72.8075C82.1492 73.0303 82.2951 73.2761 82.4795 73.4605C83.2401 74.2134 84.4539 74.1827 85.468 74.0905C85.0762 74.4593 84.8611 74.9893 84.8918 75.5425C85.322 75.3965 85.7062 75.1507 85.9981 74.8357C85.4603 75.458 85.3451 76.4029 85.7139 77.2326C85.7599 77.3325 85.8137 77.4324 85.9059 77.4862C86.0903 77.6014 86.3131 77.4939 86.4591 77.3786C87.2504 76.741 87.6038 75.6808 87.381 74.6436C87.8496 74.8818 88.2952 75.1507 88.71 75.4657C88.6716 74.997 88.4181 74.5207 88.0263 74.175C89.0327 74.7742 90.1467 75.4042 91.253 75.3043C90.3848 74.0521 89.1172 73.0226 87.6883 72.385" fill="#FCE1BA"/>
<path d="M86.5745 73.5835C86.6052 73.5604 86.6359 73.5374 86.6513 73.4913C86.7435 73.1994 86.6359 72.8076 86.2749 72.6616C85.8754 72.5003 85.5527 72.8229 85.4528 73.1225C85.3453 73.4452 85.522 73.8831 85.9215 74.0137C86.2749 74.1289 86.6129 73.9138 86.5745 73.5835ZM86.1058 73.3453C86.0828 73.3607 86.0521 73.3684 86.029 73.3991C86.0905 73.3223 86.0905 73.2455 86.1058 73.3453Z" fill="#63513D"/>
<path d="M87.6502 73.4067C87.4812 73.4835 87.4658 73.7755 87.681 73.8677C87.8116 73.9214 87.9345 73.9752 88.0651 74.029C88.2341 74.0904 88.357 73.9598 88.3647 73.8216C88.3647 73.7755 88.3724 73.7217 88.3724 73.6756C88.3877 73.4067 88.0113 73.2454 87.7962 73.3452C87.7424 73.3683 87.6963 73.3837 87.6502 73.4067Z" fill="#63513D"/>
<path d="M87.2736 74.5822C87.2736 74.5438 87.2583 74.5131 87.2429 74.4823C87.2506 74.4823 87.2583 74.4823 87.266 74.4823C87.289 74.4747 87.3121 74.467 87.3351 74.4593C87.3966 74.4363 87.4427 74.3594 87.435 74.2903C87.3505 73.6219 86.467 73.9215 86.4439 74.4132C86.4132 74.8972 87.2583 75.097 87.2736 74.5822ZM86.9894 74.3287C86.9894 74.3594 86.9971 74.3825 87.0124 74.4055C86.9971 74.4055 86.9817 74.4055 86.974 74.4132C86.8127 74.4747 86.9894 74.3902 86.9894 74.3287Z" fill="#63513D"/>
<path d="M88.1649 72.7769C88.1803 72.7615 88.1726 72.7308 88.1803 72.7154C88.3493 72.5772 88.3723 72.339 88.1879 72.1316C87.919 71.8396 87.4888 71.9011 87.2507 72.1008C86.5823 72.654 87.6963 73.307 88.1649 72.7769Z" fill="#63513D"/>
<path d="M86.9971 71.9395C87.0739 71.8088 86.9817 71.6859 86.8588 71.6322C86.7589 71.4324 86.4363 71.2788 86.2365 71.4939C85.8601 71.901 86.6898 72.4388 86.9971 71.9395Z" fill="#63513D"/>
<path d="M198.839 104.191C200.883 103.784 202.335 101.986 202.235 99.9807C203.472 102.155 206.529 103.399 208.796 102.646C208.98 102.585 209.165 102.508 209.257 102.362C209.387 102.163 209.326 101.878 209.249 101.632C208.903 100.488 208.32 99.3584 207.405 98.4672C206.491 97.576 205.223 96.9537 203.994 96.9614C209.18 97.5607 208.066 92.4518 207.474 92.2444C205.83 91.6528 203.165 92.8666 202.058 93.9268C202.396 90.6157 198.785 90.5004 197.533 90.5158C197.364 90.5158 197.18 90.5312 197.057 90.631C196.911 90.754 196.88 90.9614 196.865 91.1534C196.734 92.5363 196.773 94.2572 198.094 95.1176C195.567 94.8641 194.291 94.964 193.331 96.9998C193.262 97.1458 193.2 97.2995 193.231 97.4608C193.277 97.699 193.5 97.891 193.715 98.0447C195.052 98.9973 196.719 99.4967 198.278 99.4045C197.38 100.411 196.957 101.794 197.134 103.192C197.164 103.415 197.211 103.653 197.357 103.845C197.695 104.268 198.34 104.291 198.839 104.191Z" fill="white"/>
<path d="M202.895 96.5851C203.917 96.2624 204.831 95.717 205.538 94.9871C204.954 94.5185 204.117 94.4494 203.456 94.6491C202.796 94.8488 202.258 95.2637 201.735 95.6709C201.966 95.4788 201.889 95.0486 201.589 94.8642C201.497 94.9795 201.413 95.0947 201.32 95.2099C201.167 94.3879 200.706 93.5812 200.038 92.9589C199.953 92.8821 199.845 92.7976 199.73 92.8053C199.638 92.813 199.577 92.8744 199.53 92.9436C198.977 93.6504 199.116 94.7874 199.838 95.5095C199.53 95.3943 199.2 95.3328 198.877 95.3328C199.093 95.74 199.377 96.1165 199.715 96.4545C198.893 96.3469 198.071 96.3316 197.272 96.4007C196.934 96.4314 196.542 96.516 196.465 96.8233C196.411 97.046 196.557 97.2919 196.742 97.4763C197.502 98.2292 198.716 98.1984 199.73 98.1062C199.338 98.475 199.123 99.0051 199.154 99.5582C199.584 99.4123 199.968 99.1664 200.26 98.8514C199.723 99.4737 199.607 100.419 199.976 101.248C200.022 101.348 200.076 101.448 200.168 101.502C200.352 101.617 200.575 101.51 200.721 101.394C201.513 100.757 201.866 99.6965 201.643 98.6594C202.112 98.8975 202.557 99.1664 202.972 99.4814C202.934 99.0128 202.68 98.5365 202.289 98.1907C203.295 98.79 204.409 99.4199 205.515 99.3201C204.647 98.0678 203.379 97.0384 201.95 96.4007" fill="#FCE1BA"/>
<path d="M200.837 97.6068C200.867 97.5838 200.898 97.5607 200.914 97.5146C201.006 97.2227 200.898 96.8309 200.537 96.6849C200.138 96.5236 199.815 96.8462 199.715 97.1459C199.607 97.4685 199.784 97.9064 200.184 98.037C200.537 98.1523 200.875 97.9295 200.837 97.6068ZM200.376 97.3686C200.353 97.384 200.322 97.3917 200.299 97.4224C200.353 97.3379 200.353 97.2688 200.376 97.3686Z" fill="#63513D"/>
<path d="M201.912 97.4226C201.743 97.4994 201.728 97.7913 201.943 97.8835C202.074 97.9373 202.197 97.9911 202.327 98.0449C202.496 98.1063 202.619 97.9757 202.627 97.8374C202.627 97.7913 202.635 97.7376 202.635 97.6915C202.65 97.4226 202.274 97.2612 202.058 97.3611C202.012 97.3842 201.966 97.4072 201.912 97.4226Z" fill="#63513D"/>
<path d="M201.536 98.6057C201.536 98.5672 201.52 98.5365 201.505 98.5058C201.513 98.5058 201.52 98.5058 201.528 98.5058C201.551 98.4981 201.574 98.4904 201.597 98.4827C201.659 98.4597 201.705 98.3829 201.697 98.3137C201.613 97.6453 200.729 97.945 200.706 98.4366C200.675 98.9206 201.52 99.1127 201.536 98.6057ZM201.259 98.3444C201.259 98.3752 201.267 98.3982 201.282 98.4213C201.267 98.4213 201.252 98.4213 201.244 98.429C201.075 98.4904 201.252 98.4059 201.259 98.3444Z" fill="#63513D"/>
<path d="M202.427 96.7926C202.442 96.7773 202.435 96.7466 202.442 96.7312C202.611 96.5929 202.634 96.3547 202.45 96.1473C202.181 95.8554 201.751 95.9168 201.513 96.1166C200.844 96.6774 201.966 97.3227 202.427 96.7926Z" fill="#63513D"/>
<path d="M201.259 95.9552C201.336 95.8246 201.244 95.7017 201.121 95.6479C201.021 95.4482 200.699 95.2945 200.499 95.5096C200.122 95.9168 200.96 96.4546 201.259 95.9552Z" fill="#63513D"/>
<path d="M78.2927 28.7942C77.0251 30.5996 77.1019 33.2347 78.4694 34.9633C76.1339 33.8801 73.0455 34.9172 71.8317 37.1836C71.7318 37.3679 71.6473 37.56 71.6703 37.7674C71.7011 38.044 71.9315 38.2437 72.1466 38.4204C73.1454 39.2041 74.3131 39.811 75.5731 39.9723C76.833 40.1336 78.1851 39.8033 79.0993 38.9198C74.8278 42.0312 78.961 45.8341 79.5449 45.6113C81.1582 44.989 82.3721 42.0159 82.5181 40.295C84.4003 43.5063 87.1813 41.0709 88.1109 40.1797C88.2415 40.0568 88.3645 39.9108 88.3952 39.7418C88.4259 39.5267 88.3184 39.327 88.2031 39.1349C87.4041 37.7982 86.2671 36.2847 84.7153 36.4383C86.7742 34.8865 87.6577 33.9031 87.0661 31.3986C87.0277 31.2219 86.9662 31.0375 86.8433 30.9146C86.6513 30.7302 86.367 30.7149 86.0981 30.7302C84.4848 30.8147 82.9099 31.5446 81.7959 32.72C81.8189 31.1835 81.2428 29.647 80.2056 28.51C80.0366 28.3256 79.8522 28.1489 79.6141 28.0798C79.0993 27.9261 78.6 28.3563 78.2927 28.7942Z" fill="white"/>
<path d="M80.1596 38.4819C79.5988 39.4883 79.2761 40.6253 79.2147 41.7777C79.9599 41.7854 80.6206 41.2629 80.997 40.6176C81.3658 39.9723 81.4964 39.2271 81.627 38.4896C81.5809 38.8276 81.9189 39.1579 82.257 39.1118C82.2493 38.9428 82.2416 38.7815 82.2339 38.6125C82.8792 39.2424 83.7474 39.6419 84.6462 39.7264C84.7615 39.7341 84.8921 39.7341 84.9766 39.6496C85.038 39.5805 85.0457 39.4806 85.038 39.3884C84.9919 38.3666 84.1545 37.4447 83.1481 37.2988C83.4554 37.1835 83.7397 37.0145 83.9778 36.784C83.5553 36.5766 83.0944 36.4306 82.6257 36.3692C83.3095 35.8852 83.9394 35.3244 84.4926 34.7021C84.7307 34.4409 84.9612 34.0875 84.8229 33.7571C84.7231 33.519 84.4465 33.396 84.193 33.3653C83.1404 33.227 82.2493 34.1028 81.5502 34.9018C81.6039 34.2949 81.4196 33.6726 81.0431 33.1886C80.8126 33.6265 80.682 34.1105 80.6744 34.6022C80.6744 33.6573 80.1519 32.7353 79.3453 32.2513C79.2531 32.1976 79.1455 32.1438 79.0303 32.1592C78.8152 32.1899 78.723 32.4357 78.6923 32.6508C78.5079 33.7802 78.9304 34.9863 79.7755 35.7546C79.2761 35.8698 78.7614 35.939 78.2467 35.9543C78.5847 36.3461 79.0764 36.5997 79.5911 36.6381C78.4464 36.8071 77.2095 37.0222 76.449 37.8903C77.9087 38.3974 79.522 38.4358 81.0047 37.9979" fill="#FCE1BA"/>
<path d="M81.0504 36.1235C81.0428 36.1696 81.0351 36.208 81.0504 36.2618C81.1657 36.5845 81.5037 36.8687 81.8648 36.7458C82.2643 36.6075 82.3027 36.0928 82.1798 35.7471C82.0492 35.386 81.6343 35.1094 81.2502 35.2784C80.9198 35.4167 80.8046 35.8546 81.0504 36.1235ZM81.5498 36.0083C81.5575 35.9775 81.5729 35.9468 81.5729 35.9007C81.5805 36.0159 81.6266 36.0851 81.5498 36.0083Z" fill="#63513D"/>
<path d="M80.3592 37.0376C80.436 36.8532 80.2593 36.5767 80.0365 36.6381C79.9059 36.6765 79.7753 36.715 79.6447 36.7611C79.4757 36.8225 79.468 37.0299 79.5525 37.1529C79.5832 37.199 79.6139 37.2451 79.6447 37.2911C79.806 37.5447 80.1901 37.4217 80.29 37.1913C80.3131 37.1452 80.3361 37.0914 80.3592 37.0376Z" fill="#63513D"/>
<path d="M79.8751 35.7163C79.8981 35.7547 79.9288 35.7701 79.9596 35.7778C79.9519 35.7855 79.9519 35.7855 79.9442 35.7932C79.9365 35.8162 79.9212 35.8392 79.9135 35.8623C79.8827 35.9314 79.8981 36.0236 79.9519 36.0774C80.4512 36.6229 80.9199 35.7317 80.6126 35.2707C80.3206 34.8252 79.5601 35.2477 79.8751 35.7163ZM80.2515 35.7471C80.2361 35.7163 80.2131 35.701 80.1824 35.6933C80.19 35.6779 80.2054 35.6702 80.2131 35.6625C80.2976 35.4935 80.2208 35.6933 80.2515 35.7471Z" fill="#63513D"/>
<path d="M80.3821 37.9673C80.3821 37.9903 80.4051 38.0134 80.4051 38.0364C80.3667 38.2746 80.505 38.5127 80.7739 38.5665C81.1657 38.6433 81.4423 38.2823 81.496 37.9366C81.642 36.9609 80.3821 37.1683 80.3821 37.9673Z" fill="#63513D"/>
<path d="M81.7958 37.8981C81.8188 38.0671 81.9648 38.1132 82.0954 38.0825C82.3028 38.19 82.6408 38.1055 82.6485 37.7675C82.6716 37.1375 81.6959 37.2374 81.7958 37.8981Z" fill="#63513D"/>
<path d="M179.817 39.9492C180.762 38.5126 180.639 36.4614 179.541 35.1477C181.384 35.939 183.766 35.0555 184.657 33.2654C184.726 33.1195 184.796 32.9658 184.765 32.8045C184.734 32.5894 184.55 32.4357 184.381 32.3128C183.582 31.7289 182.66 31.2833 181.676 31.1835C180.693 31.0913 179.648 31.3755 178.957 32.0823C182.214 29.5625 178.903 26.6969 178.457 26.8813C177.213 27.4037 176.345 29.7468 176.268 31.0913C174.724 28.6329 172.619 30.5996 171.912 31.3064C171.812 31.4063 171.72 31.5215 171.705 31.6598C171.681 31.8288 171.774 31.9825 171.866 32.1284C172.519 33.1502 173.441 34.3103 174.639 34.1489C173.072 35.4089 172.404 36.1925 172.926 38.1285C172.964 38.2668 173.011 38.405 173.11 38.5049C173.264 38.6432 173.487 38.6432 173.694 38.6278C174.954 38.528 176.16 37.921 176.998 36.9838C177.013 38.1823 177.497 39.3654 178.335 40.2258C178.465 40.3641 178.619 40.5024 178.803 40.5485C179.203 40.6483 179.587 40.3026 179.817 39.9492Z" fill="white"/>
<path d="M178.135 32.4512C178.55 31.6522 178.78 30.761 178.795 29.8622C178.219 29.8699 177.712 30.3001 177.436 30.8071C177.159 31.3142 177.075 31.9057 176.998 32.4742C177.028 32.213 176.76 31.9595 176.498 32.0056C176.506 32.1362 176.521 32.2591 176.529 32.3897C176.007 31.9134 175.323 31.6215 174.624 31.5754C174.532 31.5677 174.432 31.5754 174.37 31.6445C174.324 31.6983 174.324 31.7828 174.324 31.852C174.378 32.6433 175.054 33.3501 175.845 33.4346C175.607 33.5267 175.392 33.6727 175.208 33.8494C175.538 34.0031 175.899 34.1029 176.268 34.1413C175.745 34.5332 175.269 34.9864 174.854 35.4858C174.678 35.6932 174.501 35.9775 174.616 36.231C174.701 36.4154 174.916 36.4999 175.116 36.5229C175.938 36.6074 176.614 35.9006 177.136 35.263C177.105 35.7393 177.267 36.2233 177.574 36.5844C177.743 36.2387 177.835 35.8546 177.827 35.4704C177.85 36.2079 178.281 36.9147 178.918 37.2681C178.995 37.3065 179.08 37.345 179.164 37.3373C179.326 37.3065 179.395 37.1145 179.418 36.9455C179.533 36.062 179.18 35.1324 178.504 34.5485C178.888 34.4487 179.287 34.3795 179.687 34.3565C179.418 34.0568 179.026 33.8725 178.626 33.8571C179.51 33.7034 180.47 33.5037 181.046 32.8123C179.902 32.4512 178.642 32.4589 177.497 32.8353" fill="#FCE1BA"/>
<path d="M177.497 34.3103C177.497 34.2796 177.505 34.2412 177.489 34.2028C177.39 33.9492 177.121 33.7418 176.844 33.8494C176.537 33.9646 176.514 34.3641 176.621 34.633C176.729 34.9096 177.059 35.117 177.351 34.9787C177.612 34.8558 177.689 34.5177 177.497 34.3103ZM177.113 34.4102C177.105 34.4409 177.098 34.464 177.098 34.4947C177.09 34.4102 177.052 34.3564 177.113 34.4102Z" fill="#63513D"/>
<path d="M178.02 33.5804C177.966 33.7264 178.112 33.9415 178.281 33.8801C178.381 33.8493 178.481 33.8109 178.58 33.7725C178.711 33.7187 178.711 33.5574 178.642 33.4652C178.619 33.4268 178.596 33.3961 178.565 33.3577C178.434 33.1656 178.135 33.2655 178.066 33.4498C178.05 33.4959 178.035 33.542 178.02 33.5804Z" fill="#63513D"/>
<path d="M178.419 34.6021C178.404 34.5791 178.373 34.5637 178.35 34.556C178.35 34.5483 178.358 34.5483 178.358 34.5407C178.365 34.5253 178.373 34.5022 178.381 34.4869C178.404 34.4331 178.388 34.3563 178.35 34.3179C177.95 33.9107 177.605 34.6098 177.851 34.9632C178.096 35.3012 178.68 34.9632 178.419 34.6021ZM178.127 34.5867C178.143 34.6098 178.158 34.6175 178.181 34.6252C178.173 34.6328 178.166 34.6405 178.158 34.6559C178.096 34.7865 178.158 34.6252 178.127 34.5867Z" fill="#63513D"/>
<path d="M177.973 32.8582C177.973 32.8352 177.958 32.8198 177.95 32.8045C177.973 32.6124 177.858 32.4357 177.651 32.3973C177.343 32.3512 177.136 32.6354 177.105 32.9043C177.021 33.6726 177.989 33.4805 177.973 32.8582Z" fill="#63513D"/>
<path d="M176.875 32.9429C176.852 32.8123 176.737 32.7815 176.637 32.8123C176.475 32.7354 176.214 32.8123 176.207 33.0658C176.207 33.5575 176.967 33.4576 176.875 32.9429Z" fill="#63513D"/>
<path d="M205.738 68.3668C207.728 67.5371 209.049 65.3169 208.819 63.1735C210.179 65.2861 213.275 66.0467 215.464 64.8098C215.641 64.71 215.818 64.5947 215.902 64.4103C216.018 64.1645 215.941 63.8802 215.849 63.6267C215.434 62.459 214.788 61.345 213.828 60.5537C212.868 59.7624 211.577 59.3322 210.363 59.578C215.518 59.24 214.097 53.9391 213.498 53.8161C211.838 53.4858 209.28 55.3065 208.258 56.6587C208.381 53.0172 204.809 53.578 203.58 53.8238C203.41 53.8545 203.234 53.9083 203.119 54.0389C202.98 54.2003 202.965 54.4231 202.957 54.6382C202.919 56.1593 203.065 58.0108 204.425 58.6945C201.912 58.902 200.66 59.2477 199.846 61.6293C199.792 61.7983 199.738 61.975 199.777 62.1517C199.838 62.3975 200.069 62.5665 200.291 62.6894C201.667 63.4654 203.349 63.6882 204.886 63.2964C204.064 64.5563 203.733 66.1235 203.994 67.6063C204.033 67.8444 204.094 68.0903 204.256 68.267C204.617 68.6588 205.254 68.5666 205.738 68.3668Z" fill="white"/>
<path d="M209.264 59.3783C210.255 58.8405 211.123 58.0723 211.769 57.1504C211.162 56.7509 210.332 56.8431 209.687 57.1811C209.041 57.5191 208.542 58.0723 208.058 58.6101C208.273 58.3565 208.166 57.9033 207.866 57.7727C207.789 57.9109 207.705 58.0569 207.628 58.1952C207.42 57.3348 206.913 56.5511 206.214 56.0057C206.122 55.9365 206.014 55.8674 205.907 55.8981C205.822 55.9212 205.761 56.0057 205.715 56.0825C205.216 56.943 205.423 58.1491 206.184 58.8021C205.869 58.733 205.546 58.7253 205.231 58.7868C205.469 59.1862 205.776 59.5396 206.13 59.8393C205.315 59.8854 204.501 60.016 203.71 60.2388C203.379 60.3309 202.995 60.5 202.941 60.8457C202.903 61.0992 203.064 61.3374 203.256 61.4987C204.055 62.1671 205.246 61.9059 206.245 61.6139C205.884 62.0826 205.707 62.6972 205.769 63.2964C206.184 63.0582 206.545 62.7202 206.813 62.3207C206.322 63.0967 206.268 64.1415 206.683 64.9635C206.729 65.0634 206.79 65.1556 206.89 65.2017C207.082 65.2862 207.29 65.1325 207.428 64.9789C208.166 64.1415 208.45 62.9276 208.158 61.8444C208.634 62.0134 209.088 62.2208 209.525 62.4744C209.456 61.975 209.18 61.5064 208.773 61.2068C209.802 61.6677 210.947 62.1363 212.03 61.8214C211.093 60.6382 209.779 59.7548 208.319 59.3476" fill="#FCE1BA"/>
<path d="M207.29 60.8689C207.313 60.8381 207.344 60.8074 207.359 60.7536C207.428 60.4233 207.298 60.0161 206.937 59.9239C206.529 59.824 206.23 60.2312 206.153 60.5846C206.068 60.9534 206.268 61.3913 206.675 61.4604C207.029 61.5142 207.351 61.2146 207.29 60.8689ZM206.821 60.6998C206.798 60.7229 206.767 60.7383 206.744 60.7767C206.798 60.6768 206.798 60.6 206.821 60.6998Z" fill="#63513D"/>
<path d="M208.342 60.477C208.181 60.5922 208.189 60.9149 208.396 60.9763C208.527 61.0147 208.65 61.0455 208.78 61.0762C208.957 61.1146 209.064 60.9456 209.064 60.7996C209.064 60.7458 209.064 60.6921 209.064 60.6383C209.064 60.3464 208.68 60.2465 208.481 60.3848C208.435 60.4078 208.388 60.4385 208.342 60.477Z" fill="#63513D"/>
<path d="M208.05 61.8215C208.05 61.7831 208.035 61.7447 208.012 61.7217C208.019 61.7217 208.027 61.7217 208.035 61.714C208.058 61.6986 208.073 61.6909 208.096 61.6756C208.158 61.6371 208.196 61.545 208.181 61.4758C208.058 60.769 207.197 61.2607 207.205 61.7985C207.213 62.3209 208.066 62.3747 208.05 61.8215ZM207.751 61.591C207.751 61.6218 207.758 61.6448 207.774 61.6679C207.758 61.6756 207.743 61.6756 207.735 61.6832C207.589 61.7831 207.751 61.6602 207.751 61.591Z" fill="#63513D"/>
<path d="M208.811 59.6933C208.826 59.6702 208.819 59.6472 208.827 59.6241C208.98 59.4398 208.996 59.1786 208.796 58.9942C208.512 58.7253 208.089 58.8789 207.866 59.1325C207.244 59.8623 208.389 60.354 208.811 59.6933Z" fill="#63513D"/>
<path d="M207.605 59.0095C207.674 58.8559 207.574 58.7407 207.451 58.7022C207.336 58.5025 207.013 58.4026 206.829 58.6715C206.483 59.1786 207.336 59.6011 207.605 59.0095Z" fill="#63513D"/>
<path d="M52.5255 86.4439C52.802 83.9548 51.2886 81.3657 48.9761 80.3901C51.8955 80.1903 54.4077 77.4707 54.377 74.5513C54.377 74.3209 54.3539 74.075 54.2156 73.883C54.0312 73.6294 53.6932 73.5449 53.3859 73.4988C51.9646 73.2684 50.4666 73.2991 49.1221 73.8292C47.7777 74.3593 46.6099 75.4272 46.1797 76.81C48.738 71.3708 42.5382 69.842 42.0849 70.3874C40.8173 71.8932 41.2322 75.5117 42.0311 77.3094C38.3973 75.1352 36.953 79.0917 36.5151 80.4823C36.4536 80.6743 36.4075 80.8817 36.4767 81.0738C36.5612 81.3043 36.784 81.4503 36.9991 81.5732C38.5279 82.472 40.487 83.3632 41.9466 82.3568C40.7482 85.0303 40.3948 86.49 42.3615 88.6641C42.4998 88.8178 42.6534 88.9714 42.8532 89.0252C43.1374 89.102 43.437 88.9561 43.6906 88.8024C45.2578 87.8344 46.4255 86.2518 46.8942 84.4695C47.7085 86.0137 49.1298 87.2275 50.7815 87.796C51.0427 87.8882 51.3347 87.965 51.6036 87.9036C52.1951 87.7576 52.464 87.0508 52.5255 86.4439Z" fill="white"/>
<path d="M45.3656 77.8086C45.3732 76.4949 45.0736 75.1812 44.5051 74.0057C43.7599 74.4052 43.3835 75.2887 43.3681 76.1338C43.3527 76.9789 43.6293 77.8009 43.9059 78.5922C43.7676 78.2311 43.2529 78.0852 42.9456 78.3156C43.0454 78.477 43.1376 78.6383 43.2375 78.7996C42.2465 78.5231 41.1632 78.5999 40.2183 79.0071C40.0953 79.0608 39.9647 79.13 39.934 79.2606C39.911 79.3605 39.9571 79.468 40.0185 79.5602C40.6178 80.5512 41.9622 81.0199 43.0454 80.6127C42.7996 80.8893 42.6075 81.2273 42.4923 81.5807C43.0301 81.5577 43.5602 81.4501 44.0672 81.258C43.6524 82.1108 43.3297 83.0173 43.1223 83.9469C43.0301 84.3387 42.9917 84.8227 43.3066 85.0686C43.5371 85.253 43.8752 85.2222 44.1517 85.1147C45.2811 84.6768 45.6882 83.317 45.9494 82.1338C46.226 82.7715 46.7484 83.2939 47.3861 83.5628C47.3784 83.002 47.2401 82.4488 46.9789 81.9495C47.4936 82.8867 48.5231 83.5244 49.591 83.5628C49.7139 83.5705 49.8522 83.5628 49.952 83.486C50.1441 83.34 50.1057 83.0404 50.0289 82.8099C49.591 81.5884 48.5154 80.6127 47.2555 80.3054C47.6934 79.9136 48.162 79.5679 48.669 79.2683C48.1236 79.0608 47.4859 79.0762 46.9558 79.322C48.0007 78.5307 49.1223 77.6319 49.4066 76.3566C47.678 76.6408 46.0416 77.4936 44.8047 78.7382" fill="#FCE1BA"/>
<path d="M45.7723 80.6513C45.757 80.6052 45.7416 80.5591 45.6955 80.5206C45.4036 80.2594 44.9119 80.1672 44.62 80.4899C44.2896 80.8433 44.5355 81.3811 44.8504 81.6577C45.1808 81.9496 45.7416 81.9957 46.0335 81.6192C46.2871 81.2812 46.1642 80.7895 45.7723 80.6513ZM45.3421 81.0354C45.3498 81.0738 45.3498 81.1122 45.3805 81.1506C45.3037 81.0507 45.2192 81.0046 45.3421 81.0354Z" fill="#63513D"/>
<path d="M45.9647 79.3606C45.9878 79.591 46.3181 79.7677 46.5025 79.5833C46.61 79.4681 46.7176 79.3606 46.8252 79.2453C46.9634 79.0917 46.8482 78.8842 46.7022 78.7997C46.6485 78.769 46.5947 78.7383 46.5332 78.7075C46.2336 78.5462 45.9186 78.8689 45.9493 79.1608C45.9493 79.2299 45.957 79.2914 45.9647 79.3606Z" fill="#63513D"/>
<path d="M47.163 80.4207C47.1169 80.3977 47.0785 80.3977 47.0401 80.4054C47.0401 80.3977 47.0478 80.39 47.0478 80.3823C47.0478 80.3516 47.0478 80.3285 47.0401 80.2978C47.0324 80.2133 46.9632 80.1288 46.8864 80.0981C46.0951 79.8292 46.1105 80.9739 46.6713 81.2658C47.2091 81.5424 47.7392 80.7127 47.163 80.4207ZM46.7712 80.5898C46.8019 80.6051 46.8326 80.6128 46.8634 80.6051C46.8634 80.6205 46.8557 80.6358 46.8557 80.6512C46.8711 80.8663 46.8403 80.6282 46.7712 80.5898Z" fill="#63513D"/>
<path d="M45.4346 78.4464C45.4192 78.4233 45.3885 78.4156 45.3731 78.3926C45.2733 78.1314 45.0121 77.97 44.7125 78.0699C44.2822 78.2082 44.1977 78.7229 44.336 79.0917C44.7278 80.1365 45.8648 79.2453 45.4346 78.4464Z" fill="#63513D"/>
<path d="M44.0591 79.2915C43.9438 79.1379 43.7671 79.1686 43.6596 79.2761C43.3907 79.2838 43.1064 79.5527 43.2755 79.8907C43.5981 80.5284 44.5123 79.8907 44.0591 79.2915Z" fill="#63513D"/>
<path d="M61.6599 114.815C62.6971 115.968 63.9723 116.966 65.4551 117.251C67.6907 117.681 72.0544 115.207 72.0697 115.13C72.0851 115.061 68.1132 107.432 61.6599 114.815Z" fill="#747400"/>
<path opacity="0.57" d="M63.7571 114.154C64.0106 115.222 64.4485 116.236 65.017 117.143C65.163 117.189 65.3089 117.227 65.4549 117.258C66.154 117.396 67.0606 117.243 67.9748 116.974C66.7149 116.505 65.9236 115.722 65.4472 114.923C65.3935 114.838 65.3474 114.746 65.2629 114.692C65.1399 114.608 64.9863 114.623 64.8403 114.638C64.1873 114.677 64.341 114.439 63.7571 114.154ZM68.3743 114.684C68.7584 114.661 68.7661 114.7 69.1425 114.6C69.4575 115.115 70.1566 115.384 70.9479 115.752C70.6406 115.906 70.2872 116.075 69.9031 116.244C69.4421 115.729 68.7123 115.314 68.3743 114.684Z" fill="#757504"/>
<path d="M72.0697 115.13C72.0697 115.146 65.0479 114.761 61.6753 114.831C61.6676 114.823 61.6676 114.823 61.6599 114.815C68.1132 107.432 72.0851 115.061 72.0697 115.13Z" fill="#757504"/>
<path opacity="0.57" d="M65.2706 111.996C64.6176 112.265 63.9262 112.687 63.1963 113.302C63.0811 113.809 62.9812 114.316 62.8967 114.831C63.3039 114.831 63.7341 114.838 64.1874 114.846C64.5177 113.878 64.8327 112.895 65.2706 111.996ZM70.3488 112.933C69.7726 113.563 69.2502 114.247 68.7969 114.984C67.9902 114.953 67.0991 114.915 66.2002 114.892C66.5767 113.717 67.1682 112.626 67.9288 111.681C68.8968 111.873 69.7034 112.364 70.3488 112.933Z" fill="#757504"/>
<path d="M61.5215 115.353C62.3896 114.592 63.1348 113.663 63.3653 112.564C63.711 110.912 61.9209 107.655 61.8595 107.64C61.8134 107.632 56.113 110.49 61.5215 115.353Z" fill="#747400"/>
<path opacity="0.57" d="M61.0527 113.793C61.844 113.617 62.5969 113.302 63.2807 112.887C63.3114 112.779 63.3421 112.672 63.3652 112.564C63.4727 112.049 63.3729 111.373 63.1808 110.697C62.8197 111.627 62.2282 112.203 61.6289 112.549C61.5675 112.587 61.4983 112.625 61.4599 112.679C61.3984 112.771 61.4061 112.887 61.4138 112.994C61.4445 113.471 61.2678 113.355 61.0527 113.793ZM61.4983 110.367C61.483 110.083 61.5137 110.075 61.4445 109.791C61.8287 109.56 62.0361 109.045 62.3204 108.469C62.4279 108.7 62.5508 108.961 62.6737 109.245C62.2819 109.591 61.9593 110.129 61.4983 110.367Z" fill="#757504"/>
<path d="M61.8595 107.64C61.8672 107.64 61.5138 112.841 61.5291 115.338L61.5215 115.345C56.113 110.49 61.8134 107.632 61.8595 107.64Z" fill="#757504"/>
<path opacity="0.57" d="M59.4624 112.641C59.6545 113.125 59.9618 113.647 60.4074 114.193C60.7838 114.285 61.1603 114.362 61.5367 114.431C61.5444 114.131 61.5521 113.809 61.5598 113.478C60.853 113.225 60.1308 112.979 59.4624 112.641ZM60.2153 108.892C60.6763 109.33 61.1756 109.722 61.7211 110.06C61.6904 110.659 61.652 111.32 61.6212 111.98C60.7531 111.688 59.9464 111.243 59.2627 110.667C59.4163 109.96 59.7928 109.36 60.2153 108.892Z" fill="#757504"/>
<path d="M61.0843 114.377C62.206 115.66 63.1279 117.204 63.2892 118.895C63.535 121.453 60.5158 126.093 60.4313 126.109C60.3622 126.116 52.7027 120.869 61.0843 114.377Z" fill="#747400"/>
<path opacity="0.57" d="M60.185 116.667C61.2836 117.066 62.3054 117.658 63.2119 118.395C63.2427 118.564 63.2734 118.733 63.2888 118.902C63.3656 119.701 63.1274 120.7 62.751 121.699C62.3822 120.239 61.6217 119.271 60.8227 118.649C60.7382 118.58 60.646 118.518 60.5999 118.418C60.5231 118.272 60.5538 118.096 60.5845 117.934C60.6998 117.205 60.4309 117.35 60.185 116.667ZM60.3156 121.914C60.2542 122.344 60.2926 122.359 60.1543 122.774C60.669 123.182 60.8841 123.996 61.1991 124.918C61.3912 124.587 61.5986 124.211 61.8137 123.796C61.3144 123.212 60.9379 122.352 60.3156 121.914Z" fill="#757504"/>
<path d="M60.4307 126.109C60.4461 126.109 60.7073 118.18 61.0914 114.393C61.0837 114.385 61.0837 114.385 61.076 114.377C52.7021 120.869 60.3615 126.116 60.4307 126.109Z" fill="#757504"/>
<path opacity="0.57" d="M57.7723 118.149C58.1181 117.443 58.6251 116.713 59.3396 115.952C59.885 115.868 60.4305 115.814 60.976 115.776C60.9375 116.236 60.9068 116.72 60.8684 117.228C59.8236 117.489 58.7634 117.742 57.7723 118.149ZM58.2794 123.942C58.9939 123.358 59.7698 122.843 60.5842 122.413C60.6226 121.499 60.6763 120.5 60.7301 119.486C59.4625 119.786 58.2487 120.339 57.1885 121.1C57.3037 122.206 57.7493 123.166 58.2794 123.942Z" fill="#757504"/>
<path d="M57.2807 120.808C58.6713 121.476 60.4767 121.123 61.5138 119.986C61.0375 121.714 62.0977 123.727 63.7955 124.303C63.9338 124.349 64.0798 124.388 64.2181 124.349C64.4024 124.295 64.5177 124.119 64.6099 123.95C65.0324 123.174 65.3244 122.298 65.2859 121.415C65.2552 120.531 64.8711 119.632 64.1643 119.102C66.7917 121.691 68.9428 118.411 68.72 118.042C68.1054 117.005 65.9236 116.505 64.7174 116.598C66.7149 114.938 64.7251 113.294 64.003 112.756C63.9031 112.679 63.7879 112.61 63.6649 112.61C63.5113 112.61 63.3884 112.71 63.2731 112.81C62.4434 113.509 61.5292 114.47 61.8134 115.514C60.5074 114.277 59.7315 113.77 58.072 114.47C57.9568 114.516 57.8339 114.577 57.7648 114.677C57.6572 114.831 57.6802 115.03 57.7263 115.207C57.9645 116.313 58.6482 117.312 59.5855 117.942C58.5253 118.096 57.5343 118.672 56.8659 119.509C56.7583 119.648 56.6585 119.794 56.6354 119.963C56.5893 120.347 56.9427 120.639 57.2807 120.808Z" fill="white"/>
<path d="M63.7415 118.418C64.502 118.687 65.3164 118.787 66.1231 118.695C66.0462 118.18 65.6083 117.781 65.1243 117.596C64.6403 117.412 64.1102 117.412 63.5878 117.404C63.826 117.396 64.018 117.128 63.9412 116.905C63.826 116.928 63.7184 116.951 63.6032 116.974C63.9643 116.459 64.141 115.814 64.1026 115.184C64.0949 115.099 64.0795 115.007 64.0104 114.969C63.9566 114.93 63.8874 114.938 63.8183 114.953C63.1192 115.099 62.5814 115.783 62.5891 116.49C62.4739 116.29 62.3202 116.113 62.1435 115.975C62.0436 116.29 61.9975 116.62 62.0129 116.951C61.6057 116.536 61.1448 116.167 60.6531 115.852C60.4457 115.722 60.1768 115.599 59.9694 115.729C59.8157 115.829 59.7619 116.029 59.7696 116.206C59.7927 116.951 60.4994 117.458 61.1294 117.85C60.7069 117.88 60.292 118.08 60.0078 118.395C60.3304 118.503 60.6838 118.533 61.0219 118.487C60.3688 118.595 59.7927 119.056 59.5545 119.67C59.5238 119.74 59.5007 119.824 59.5238 119.893C59.5699 120.039 59.7466 120.078 59.9002 120.07C60.6992 120.07 61.4828 119.64 61.9207 118.971C62.059 119.302 62.1589 119.647 62.228 120.001C62.4585 119.724 62.5814 119.355 62.543 118.994C62.7888 119.763 63.0808 120.592 63.7645 121.023C63.9489 119.962 63.7952 118.841 63.3266 117.873" fill="#FCE1BA"/>
<path d="M62.013 118.072C62.0438 118.072 62.0745 118.072 62.1052 118.057C62.3127 117.942 62.4663 117.673 62.3434 117.442C62.2051 117.181 61.844 117.212 61.6212 117.335C61.3831 117.465 61.2448 117.78 61.4061 118.026C61.5444 118.241 61.8594 118.272 62.013 118.072ZM61.8824 117.742C61.8594 117.742 61.8363 117.734 61.8056 117.742C61.8824 117.719 61.9209 117.68 61.8824 117.742Z" fill="#63513D"/>
<path d="M62.7278 118.449C62.5895 118.418 62.4205 118.572 62.4896 118.718C62.5357 118.802 62.5741 118.887 62.6202 118.971C62.6817 119.079 62.8277 119.064 62.9045 118.987C62.9352 118.964 62.9583 118.933 62.989 118.91C63.1426 118.772 63.0197 118.518 62.843 118.48C62.8046 118.464 62.7662 118.457 62.7278 118.449Z" fill="#63513D"/>
<path d="M61.8672 118.925C61.8902 118.902 61.8979 118.879 61.9056 118.856C61.9133 118.856 61.9133 118.864 61.9209 118.864C61.9363 118.871 61.9517 118.871 61.9747 118.879C62.0208 118.894 62.09 118.871 62.1207 118.833C62.4357 118.434 61.7673 118.203 61.4907 118.464C61.2065 118.725 61.5829 119.202 61.8672 118.925ZM61.8441 118.664C61.8288 118.679 61.8211 118.695 61.8134 118.718C61.8057 118.71 61.798 118.702 61.7827 118.702C61.6674 118.664 61.8134 118.695 61.8441 118.664Z" fill="#63513D"/>
<path d="M63.3577 118.326C63.373 118.326 63.3884 118.311 63.4038 118.303C63.5728 118.303 63.7187 118.18 63.7264 117.988C63.7341 117.711 63.4499 117.558 63.2117 117.558C62.528 117.573 62.8122 118.41 63.3577 118.326Z" fill="#63513D"/>
<path d="M63.1578 117.358C63.2731 117.319 63.2884 117.212 63.25 117.135C63.3038 116.981 63.2039 116.759 62.9735 116.789C62.5279 116.843 62.7122 117.496 63.1578 117.358Z" fill="#63513D"/>
<g opacity="0.3">
<path opacity="0.3" d="M166.058 69.5423C165.42 67.0915 166.819 64.8713 165.582 62.6587C165.566 62.628 165.543 62.5896 165.52 62.5589C164.652 59.8239 163.277 56.8046 161.087 54.4461C158.998 53.1401 157.477 53.8008 155.018 53.8008L152.744 63.9417C152.898 67.3528 151.461 74.2132 151.553 77.9085C151.569 78.3618 151.907 78.7459 152.36 78.7844C153.32 78.8612 154.803 78.8689 155.756 78.8228C156.693 85.7754 154.25 96.3927 151.715 100.764C145.331 111.758 140.575 116.483 130.373 123.151C124.903 123.558 122.46 125.348 118.526 129.174C118.211 129.481 117.881 129.896 118.019 130.311C118.595 130.795 119.471 130.442 120.086 130.004C120.7 129.566 122.483 128.513 122.106 129.197C121.73 129.881 121.115 130.503 120.447 131.002C118.357 132.577 116.636 134.629 115.446 136.949C115.907 137.164 116.383 137.118 116.851 136.933C116.821 136.964 116.79 136.995 116.767 137.026C116.56 137.256 116.344 137.54 116.421 137.84C116.583 138.462 117.535 138.147 118.012 137.717C119.563 136.319 121.392 134.022 122.951 132.616C121.661 133.86 118.196 137.417 119.072 137.494C119.94 137.563 120.47 137.394 121.031 136.941C122.029 136.142 123.935 134.475 125.064 133.545C123.735 134.652 120.793 137.31 121.891 137.394C123.074 137.479 125.256 135.489 126.562 134.736C130.119 132.677 131.571 132.04 134.26 128.944C144.14 125.817 154.895 115.768 159.313 110.459C160.803 108.677 162.209 106.818 163.354 104.797C169.646 93.7345 169.246 81.8497 166.058 69.5423Z" fill="#CDAE6E"/>
</g>
<path d="M168.286 65.893C167.648 63.4423 166.818 61.0223 165.589 58.8097C163.845 55.6829 161.287 53.0171 158.245 51.1272L155.026 73.6677C156.424 80.5205 154.427 92.2518 151.722 96.9074C145.338 107.901 140.583 112.626 130.38 119.294C124.91 119.701 122.467 121.491 118.534 125.317C118.219 125.625 117.888 126.039 118.027 126.454C118.603 126.938 119.479 126.585 120.093 126.147C120.708 125.709 122.49 124.657 122.114 125.34C121.737 126.024 121.123 126.646 120.454 127.146C118.365 128.721 116.644 130.772 115.453 133.092C115.914 133.307 116.39 133.261 116.859 133.077C116.828 133.107 116.798 133.138 116.775 133.169C116.567 133.399 116.352 133.684 116.429 133.983C116.59 134.606 117.543 134.291 118.019 133.86C119.571 132.462 121.399 130.165 122.959 128.759C121.668 130.004 118.203 133.561 119.079 133.638C119.947 133.707 120.477 133.538 121.038 133.084C122.114 132.216 124.257 130.342 125.333 129.481C124.18 130.403 120.723 133.453 121.906 133.538C123.09 133.622 125.271 131.632 126.577 130.872C130.134 128.813 131.586 128.175 134.275 125.079C144.155 121.952 154.911 111.904 159.328 106.595C160.818 104.813 162.224 102.954 163.369 100.933C169.646 89.8855 171.466 78.2004 168.286 65.893Z" fill="#CDAE6E"/>
<g opacity="0.45">
<path opacity="0.45" d="M169.769 75.8803C169.653 73.0377 169.261 70.1491 168.593 67.2374C168.163 65.8853 167.694 64.5562 167.103 63.2656C165.728 60.2847 163.784 57.4883 161.11 55.5753C160.365 55.0376 159.167 54.4537 157.838 53.939L155.018 73.6677C155.371 75.4116 155.51 77.4705 155.471 79.6524C164.936 79.153 169.599 75.9417 169.769 75.8803Z" fill="#F9D5C5"/>
</g>
<path d="M153.359 49.8751C155.979 49.8751 160.719 51.5499 162.616 52.9097C165.29 54.8227 167.233 57.6114 168.609 60.5999C169.984 63.5807 170.744 66.8074 171.666 69.9572C172.504 72.7998 172.504 72.7998 170.683 73.4221C165.113 75.3273 159.351 77.4708 153.512 76.9868C153.059 76.9483 152.713 76.5642 152.706 76.1109C152.614 72.4157 152.89 66.9918 152.737 63.5807" fill="#C19FB9"/>
<g opacity="0.63">
<path opacity="0.63" d="M122.014 132.639C122.667 131.817 123.428 131.102 124.219 130.426C125.026 129.765 125.863 129.143 126.777 128.636C126.04 129.381 125.256 130.05 124.465 130.718C124.065 131.048 123.666 131.379 123.259 131.694C122.852 132.016 122.444 132.339 122.014 132.639Z" fill="#F9D5C5"/>
</g>
<g opacity="0.63">
<path opacity="0.63" d="M119.271 132.616C119.633 132.116 120.047 131.655 120.47 131.21C120.885 130.756 121.338 130.342 121.791 129.927C122.706 129.112 123.651 128.329 124.68 127.66C123.843 128.567 122.944 129.389 122.045 130.211C121.138 131.033 120.224 131.832 119.271 132.616Z" fill="#F9D5C5"/>
</g>
<g opacity="0.63">
<path opacity="0.63" d="M117.266 132.339C117.996 131.148 118.91 130.073 119.909 129.089C120.916 128.114 122.014 127.23 123.22 126.523C122.191 127.468 121.161 128.39 120.17 129.358C119.179 130.319 118.234 131.325 117.266 132.339Z" fill="#F9D5C5"/>
</g>
<path d="M152.706 76.1108C152.706 76.1108 159.382 78.4847 172.204 72.7228" stroke="#BC6F8B" stroke-width="2" stroke-miterlimit="10" stroke-linecap="round" stroke-linejoin="round"/>
<path d="M130.964 54.4614C129.42 55.1068 128.529 55.4525 126.593 56.1209C128.076 60.1926 129.85 63.0428 133.384 63.8034C138.708 64.9558 137.633 58.0261 137.202 56.3974C137.202 56.3974 135.804 56.4512 133.784 55.9595" fill="white"/>
<path d="M146.345 51.9953C146.229 53.6471 139.884 56.0056 137.202 56.4051C138.37 57.8801 139.154 64.756 146.114 61.7675C150.055 60.0773 155.149 55.3065 155.026 49.9287C152.375 49.2066 149.264 48.9377 147.551 48.3922" fill="white"/>
<path d="M130.964 54.4614C135.689 59.2015 147.95 54.6688 147.543 48.3922" stroke="#BC6F8B" stroke-width="2" stroke-miterlimit="10" stroke-linecap="round" stroke-linejoin="round"/>
<g opacity="0.63">
<path opacity="0.63" d="M197.48 144.693C198.647 142.88 199.746 141.021 200.791 139.123C186.908 137.233 173.18 134.214 159.797 130.073C159.021 129.835 151.868 126.769 151.116 127.092C149.11 127.953 152.921 133.691 151.938 135.635C150.831 137.825 147.935 137.425 145.538 136.887C129.013 133.131 115.307 133.684 98.3596 133.891L114.339 142.15C139.307 143.817 169.623 144.478 197.48 144.693Z" fill="#F9D5C5"/>
</g>
<path d="M197.579 144.547C113.548 144.946 17.4854 145.776 10.1716 145.814C-2.74272 145.884 -3.44952 154.142 8.56595 154.142C15.2958 154.142 108.585 153.32 191.802 152.598C193.861 150.017 195.797 147.336 197.579 144.547Z" fill="#BF8898"/>
</svg>
