<svg width="204" height="184" viewBox="0 0 204 184" fill="none" xmlns="http://www.w3.org/2000/svg">
<g clip-path="url(#clip0)">
<path d="M61.2002 173.852C61.2002 173.852 59.7676 178.849 61.2002 180.618C62.19 181.842 64.3439 181.742 66.1644 181.322C67.8358 180.938 70.1886 181.492 72.4618 181.557C75.1926 181.637 80.1519 180.898 78.7492 179.349C77.3465 177.8 67.801 173.852 67.801 173.852H61.2002Z" fill="#0A070A"/>
<path d="M70.4626 173.852C70.4626 173.852 69.0301 178.849 70.4626 180.618C71.4525 181.842 73.6063 181.742 75.4269 181.322C77.0982 180.938 79.451 181.492 81.7242 181.557C84.4551 181.637 89.4144 180.898 88.0116 179.349C86.6089 177.8 77.0634 173.852 77.0634 173.852H70.4626Z" fill="#272527"/>
<path d="M56.1083 118.527C56.1083 118.527 54.9841 126.281 57.7945 134.881C60.605 143.48 62.147 161.104 61.5849 164.766C61.0228 168.434 60.7443 175.339 60.7443 175.339H68.325C68.325 175.339 73.3788 153.628 72.8167 145.454C72.2546 137.279 69.4491 118.527 69.4491 118.527H56.1083Z" fill="#0D1639"/>
<path d="M59.4761 120.785C59.4761 120.785 58.3519 125.862 61.7195 132.907C65.087 139.958 70.5586 149.261 70.7029 161.383C70.8471 173.505 69.723 174.775 69.723 174.775C69.723 174.775 78.005 176.044 78.2836 174.775C78.5621 173.505 81.7904 157.151 81.6511 151.37C81.5118 145.589 82.7106 122.044 80.2136 120.78C77.7215 119.516 59.4761 120.785 59.4761 120.785Z" fill="#18234F"/>
<path d="M54.4678 63.5677C53.856 61.579 53.2392 59.5854 52.6224 57.5967C50.9361 57.5217 49.6379 55.6779 49.9164 53.999C50.195 52.3251 51.7917 51.046 53.473 50.8961C52.2792 50.4314 53.5327 47.943 55.3234 46.9986C57.1141 46.0543 59.3525 45.5446 61.5461 46.2192C62.9389 43.9257 67.7838 43.9756 69.3656 44.4103C70.9424 44.8451 72.1512 46.8537 71.1911 48.1879C72.0815 48.4077 72.5491 49.517 72.2805 50.4014C72.0119 51.2808 71.1911 51.9054 70.3157 52.1802C69.4402 52.455 68.5051 52.4351 67.5848 52.4101" fill="#18234F"/>
<path d="M53.8103 59.5706L55.1036 63.7028L57.3072 69.0743C57.3072 69.0743 58.312 71.3028 67.4546 70.5933C75.5576 69.9637 75.3238 65.6416 68.9966 52.885C67.6585 50.1867 64.7735 48.6827 62.0377 49.9169L57.143 52.1205C54.3127 53.3996 52.8801 56.5975 53.8103 59.5706Z" fill="#9FA4CD"/>
<path d="M56.7551 65.6116L59.1129 78.2532C59.6451 81.1014 62.4406 82.9252 65.2461 82.2506C67.8476 81.626 69.514 79.0777 69.0464 76.4294L67.768 69.1842L56.7551 65.6116Z" fill="#9FA4CD"/>
<path d="M71.7373 69.4789C71.7473 69.5039 71.4737 69.6488 70.9912 69.7338C70.5137 69.8237 69.8123 69.8287 69.0911 69.5988C68.3698 69.364 67.8077 68.9443 67.4695 68.5895C67.1262 68.2347 66.9919 67.9599 67.0168 67.9399C67.0467 67.9149 67.2357 68.1498 67.5888 68.4596C67.942 68.7694 68.4892 69.1391 69.1657 69.359C69.8422 69.5789 70.5037 69.5988 70.9713 69.5589C71.4389 69.5239 71.7224 69.4439 71.7373 69.4789Z" fill="#18234F"/>
<path d="M72.8217 62.5186C72.8515 62.6335 72.3889 62.8483 72.0258 63.323C71.6477 63.7877 71.5383 64.2874 71.4189 64.2824C71.3642 64.2774 71.3145 64.1375 71.3393 63.8976C71.3642 63.6628 71.4737 63.343 71.6975 63.0632C71.9213 62.7784 72.2098 62.5985 72.4287 62.5285C72.6575 62.4536 72.8067 62.4686 72.8217 62.5186Z" fill="#18234F"/>
<path d="M64.8133 63.7528C64.8233 63.7977 64.6392 63.9377 64.2512 63.9077C64.0672 63.8927 63.8085 63.7878 63.6543 63.5479C63.5747 63.433 63.52 63.2781 63.53 63.1032C63.53 62.9333 63.6394 62.7335 63.7936 62.6385C63.9976 62.4936 64.3258 62.4736 64.5298 62.6885L64.2313 62.9483C63.7936 62.3287 63.53 61.839 63.6046 61.7791C63.6792 61.7241 64.0722 62.1139 64.5497 62.7035L64.2512 62.9633C64.2214 62.9333 64.1219 62.9233 64.0324 62.9833C63.9229 63.0482 63.913 63.2031 63.9876 63.348C64.0572 63.488 64.1866 63.5729 64.3209 63.6229C64.5845 63.7078 64.8034 63.6928 64.8133 63.7528Z" fill="#18234F"/>
<path d="M67.201 56.5225C67.1462 56.4175 67.4994 56.1427 67.7979 55.708C68.1063 55.2833 68.2505 54.8636 68.3699 54.8786C68.4793 54.8836 68.5092 55.4282 68.1361 55.9479C67.763 56.4725 67.2408 56.6224 67.201 56.5225Z" fill="#18234F"/>
<path d="M63.7637 69.6838C64.7486 68.2648 62.2515 65.4666 62.1819 61.9489C62.157 60.6998 64.1567 61.2194 64.5447 60.385C65.4798 58.3863 63.4852 55.3933 65.1515 53.7144C66.8179 52.0355 70.3446 52.815 69.5985 51.6557C68.8523 50.5015 66.4548 47.2336 65.0968 47.0438C63.6443 46.8389 62.1968 47.4135 60.8986 48.0981C58.9437 49.1274 57.1281 50.4315 55.5264 51.9605C53.9546 53.4595 50.776 56.5775 50.4627 58.7361C50.1493 60.8896 52.3777 66.7258 56.755 72.0373C56.755 72.0323 60.0679 75.0003 63.7637 69.6838Z" fill="#18234F"/>
<path d="M68.7446 57.4964C68.9961 57.4375 69.1368 57.1174 69.0588 56.7814C68.9808 56.4455 68.7137 56.2209 68.4622 56.2798C68.2107 56.3387 68.0701 56.6588 68.148 56.9948C68.226 57.3307 68.4931 57.5553 68.7446 57.4964Z" fill="#18234F"/>
<path d="M63.7189 61.1645C63.1668 61.0196 62.5052 61.2494 62.361 61.7741C62.1968 62.2837 62.4107 62.8434 62.7042 63.313C62.9927 63.8027 63.3857 64.2075 63.8085 64.4923C64.2313 64.7871 64.7735 64.882 65.3704 64.867L65.3803 64.917C64.858 65.2118 64.1368 65.2518 63.5548 64.927C62.9678 64.6072 62.6296 64.0326 62.366 63.5029C62.0973 62.9733 61.8785 62.3037 62.1371 61.6841C62.2665 61.3793 62.5401 61.1595 62.8435 61.0795C63.1419 60.9946 63.4553 61.0246 63.7339 61.1195L63.7189 61.1645Z" fill="#18234F"/>
<path d="M54.218 124.048C54.218 124.048 73.8114 129.754 82.387 121.14L79.3179 100.569C78.3877 94.6574 78.9399 83.2749 74.4332 79.2426C73.5627 78.4631 72.7221 78.0734 72.7221 78.0734C69.5585 76.5394 63.5894 74.7755 57.7995 76.9691C51.6613 79.2975 54.1882 95.262 54.9343 104.206C55.6804 113.15 54.218 124.048 54.218 124.048Z" fill="#6976B0"/>
<path d="M75.2692 86.3529C75.2692 86.3529 74.9708 100.299 75.4732 104.726C76.3387 112.311 81.1736 129.589 81.1736 129.589L75.6174 130.289C74.7817 130.069 71.8022 120.301 68.569 113.985C66.9076 110.742 63.1371 99.4942 64.0275 91.6744L64.8632 86.6477L75.2692 86.3529Z" fill="#9FA4CD"/>
<path d="M77.0648 83.5097L78.0497 98.4399L62.1621 101.253L64.4254 83.3348L77.4329 83.4148" fill="#6976B0"/>
<path d="M81.0823 128.964C81.0823 128.964 82.4751 139.597 81.1569 139.947C79.8437 140.297 78.3067 140.167 78.3067 140.167L75.5261 129.669L81.0823 128.964Z" fill="#9FA4CD"/>
<path d="M69.355 80.157C58.6952 77.9984 63.0576 95.9116 63.8983 100.454C63.943 100.708 64.341 100.638 64.2962 100.384C63.4854 95.8067 59.7746 78.658 69.3152 80.3718C69.4346 80.3918 69.4793 80.187 69.355 80.157Z" fill="#192662"/>
<path d="M75.9208 98.5049C75.7815 97.2707 75.6522 96.0315 75.5377 94.7974C75.483 94.1778 75.3835 93.5632 75.3835 92.9436C75.3835 92.324 75.3985 91.6994 75.5029 91.0698L75.5527 91.0648C75.7218 91.6744 75.8113 92.294 75.881 92.9086C75.9506 93.5282 75.9208 94.1478 75.9357 94.7724C75.9606 96.0166 75.9705 97.2557 75.9705 98.4999L75.9208 98.5049Z" fill="#18234F"/>
</g>
<path d="M44.198 177.295H16.4424C15.6361 177.295 14.9824 176.642 14.9824 175.835V138.557C14.9824 137.125 16.1428 135.959 17.5809 135.959H43.0704C44.5031 135.959 45.6689 137.119 45.6689 138.557V175.835C45.6635 176.642 45.0043 177.295 44.198 177.295Z" fill="#7083E3"/>
<path d="M19.3837 154.35H41.2504C41.9967 154.35 42.6014 154.955 42.6014 155.701V171.265C42.6014 173.166 41.0598 174.713 39.1531 174.713H21.4864C19.5852 174.713 18.0381 173.172 18.0381 171.265V155.701C18.0381 154.955 18.6428 154.35 19.3837 154.35Z" fill="#1A2351"/>
<path d="M40.2807 140.829H20.3588C19.0786 140.829 18.0381 141.869 18.0381 143.15V149.758C18.0381 151.038 19.0786 152.078 20.3588 152.078H40.2807C41.5609 152.078 42.6014 151.038 42.6014 149.758V143.15C42.6014 141.864 41.5609 140.829 40.2807 140.829Z" fill="#4A7B92"/>
<path d="M45.6624 173.635V157.482C47.0025 157.482 48.092 158.572 48.092 159.912V171.21C48.0865 172.55 47.0025 173.635 45.6624 173.635Z" fill="#A6B3F6"/>
<path d="M14.9765 173.635V157.482C13.6364 157.482 12.5469 158.572 12.5469 159.912V171.21C12.5469 172.55 13.6364 173.635 14.9765 173.635Z" fill="#A6B3F6"/>
<path d="M23.1857 181.234H21.5241C20.7397 181.234 20.1023 180.597 20.1023 179.812V178.287H24.6075V179.812C24.6075 180.597 23.9701 181.234 23.1857 181.234Z" fill="#3849A1"/>
<path d="M37.4531 181.234H39.1146C39.8991 181.234 40.5364 180.597 40.5364 179.812V178.287H36.0312V179.812C36.0312 180.597 36.6686 181.234 37.4531 181.234Z" fill="#3849A1"/>
<path d="M19.3837 153.162H41.2504C41.9967 153.162 42.6014 153.767 42.6014 154.513V170.077C42.6014 171.978 41.0598 173.526 39.1531 173.526H21.4864C19.5852 173.526 18.0381 171.984 18.0381 170.077V154.513C18.0381 153.767 18.6428 153.162 19.3837 153.162Z" fill="#A6B3F6"/>
<path d="M40.2807 139.641H20.3588C19.0786 139.641 18.0381 140.682 18.0381 141.962V148.57C18.0381 149.85 19.0786 150.891 20.3588 150.891H40.2807C41.5609 150.891 42.6014 149.85 42.6014 148.57V141.962C42.6014 140.682 41.5609 139.641 40.2807 139.641Z" fill="#A6B3F6"/>
<path d="M40.1769 155.712H20.4619V156.18H40.1769V155.712Z" fill="#EDEDEC"/>
<path d="M21.0017 158.626H20.604C20.2771 158.626 20.032 158.332 20.0865 158.016L20.4678 155.712H21.1542L21.5355 158.016C21.5791 158.338 21.3285 158.626 21.0017 158.626Z" fill="#1A2351"/>
<path d="M40.1769 141.771H20.4619V142.24H40.1769V141.771Z" fill="#EDEDEC"/>
<path d="M21.0017 144.686H20.604C20.2771 144.686 20.032 144.392 20.0865 144.076L20.4678 141.771H21.1542L21.5355 144.076C21.5791 144.397 21.3285 144.686 21.0017 144.686Z" fill="#1A2351"/>
<path d="M40.5641 135.964H20.0811C20.0811 135.616 20.141 135.278 20.2499 134.967C20.397 134.537 20.6476 134.145 20.9636 133.829C21.5083 133.284 22.2601 132.946 23.099 132.946H37.5461C38.859 132.946 39.9812 133.791 40.3898 134.967C40.5042 135.278 40.5641 135.616 40.5641 135.964Z" fill="#3849A1"/>
<path d="M24.1662 120.035H23.093V132.941H24.1662V120.035Z" fill="#3849A1"/>
<path d="M36.471 132.947H37.5442V120.042H36.471V132.947Z" fill="#3849A1"/>
<path d="M22.914 117.557H37.7261C38.4887 117.557 39.1098 118.178 39.1098 118.94V120.133H21.5303V118.94C21.5303 118.178 22.1513 117.557 22.914 117.557Z" fill="#3849A1"/>
<path d="M41.61 178.287H19.0296C18.4848 178.287 18.0381 177.846 18.0381 177.295H42.6014C42.6014 177.846 42.1547 178.287 41.61 178.287Z" fill="#3849A1"/>
<path d="M40.5641 135.964H20.0811C20.0811 135.616 20.141 135.278 20.2499 134.967H40.3953C40.5042 135.278 40.5641 135.616 40.5641 135.964Z" fill="#1A2351"/>
<path d="M40.5364 178.287H36.0312V179.104H40.5364V178.287Z" fill="#1A2351"/>
<path d="M24.6075 178.287H20.1023V179.104H24.6075V178.287Z" fill="#1A2351"/>
<path d="M103.93 180.978H1.21127C0.541507 180.978 0 181.519 0 182.189C0 182.859 0.541507 183.4 1.21127 183.4H103.93C104.6 183.4 105.141 182.859 105.141 182.189C105.148 181.519 104.6 180.978 103.93 180.978Z" fill="#0A070A"/>
<path d="M186.179 180.978H138.726C138.056 180.978 137.514 181.519 137.514 182.189C137.514 182.859 138.056 183.4 138.726 183.4H186.179C186.849 183.4 187.39 182.859 187.39 182.189C187.39 181.519 186.849 180.978 186.179 180.978Z" fill="#0A070A"/>
<path d="M129.192 180.978H113.075C112.406 180.978 111.864 181.519 111.864 182.189C111.864 182.859 112.406 183.4 113.075 183.4H129.192C129.862 183.4 130.404 182.859 130.404 182.189C130.404 181.519 129.862 180.978 129.192 180.978Z" fill="#0A070A"/>
<path d="M156.474 48.0232H143.827C141.633 48.0232 139.858 46.2419 139.858 44.0545C139.858 41.86 141.64 40.0858 143.827 40.0858H156.474C158.669 40.0858 160.443 41.8671 160.443 44.0545C160.443 46.2419 158.669 48.0232 156.474 48.0232Z" fill="#8F8B8A"/>
<path d="M113.489 5.2298L121.077 4.25366L153.047 20.791H127.276L113.489 5.2298Z" fill="#8F8B8A"/>
<path d="M200.13 25.3368C198.933 24.4747 197.159 22.7433 194.814 20.905C192.47 19.0596 186.457 19.0382 186.457 19.0382L110.361 19.9645L79.7512 25.0589C77.8773 25.3724 76.5022 26.9898 76.5022 28.8922C76.5022 31.0226 78.2193 32.754 80.3426 32.7754L186.742 33.9368C192.2 33.9368 197.08 33.7302 199.61 33.3383C201.961 32.9749 203.65 32.3408 203.657 30.0465C203.671 27.7593 201.327 26.1989 200.13 25.3368Z" fill="#F0EBE1"/>
<path d="M72.6475 0H81.2902L110.09 19.936L82.2094 24.6386L72.6475 0Z" fill="#B2A9A0"/>
<path d="M113.78 59.288L103.406 58.4757L129.969 32.7042H170.981L113.78 59.288Z" fill="#B2A9A0"/>
<path d="M78.9317 40.0574H70.5383L86.8334 30.0894H108.109L78.9317 40.0574Z" fill="#B2A9A0"/>
<path d="M179.367 28.1014H177.907C177.372 28.1014 176.93 27.6668 176.93 27.1252V24.0828C176.93 23.5484 177.365 23.1067 177.907 23.1067H179.367C179.902 23.1067 180.343 23.5413 180.343 24.0828V27.1252C180.336 27.6668 179.902 28.1014 179.367 28.1014Z" fill="#99A0A2"/>
<path d="M116.018 28.1014H114.557C114.023 28.1014 113.581 27.6668 113.581 27.1252V24.0828C113.581 23.5484 114.016 23.1067 114.557 23.1067H116.018C116.552 23.1067 116.994 23.5413 116.994 24.0828V27.1252C116.987 27.6668 116.552 28.1014 116.018 28.1014Z" fill="#99A0A2"/>
<path d="M172.933 25.3938H171.907C171.565 25.3938 171.28 25.1159 171.28 24.7668V23.7408C171.28 23.3988 171.558 23.1138 171.907 23.1138H172.933C173.275 23.1138 173.56 23.3916 173.56 23.7408V24.7668C173.553 25.1159 173.275 25.3938 172.933 25.3938Z" fill="#99A0A2"/>
<path d="M167.276 25.3938H166.25C165.908 25.3938 165.623 25.1159 165.623 24.7668V23.7408C165.623 23.3988 165.901 23.1138 166.25 23.1138H167.276C167.618 23.1138 167.903 23.3916 167.903 23.7408V24.7668C167.896 25.1159 167.618 25.3938 167.276 25.3938Z" fill="#99A0A2"/>
<path d="M161.618 25.3938H160.592C160.25 25.3938 159.965 25.1159 159.965 24.7668V23.7408C159.965 23.3988 160.243 23.1138 160.592 23.1138H161.618C161.96 23.1138 162.245 23.3916 162.245 23.7408V24.7668C162.245 25.1159 161.96 25.3938 161.618 25.3938Z" fill="#99A0A2"/>
<path d="M155.961 25.3938H154.935C154.593 25.3938 154.308 25.1159 154.308 24.7668V23.7408C154.308 23.3988 154.586 23.1138 154.935 23.1138H155.961C156.303 23.1138 156.588 23.3916 156.588 23.7408V24.7668C156.588 25.1159 156.303 25.3938 155.961 25.3938Z" fill="#99A0A2"/>
<path d="M150.304 25.3938H149.278C148.936 25.3938 148.651 25.1159 148.651 24.7668V23.7408C148.651 23.3988 148.929 23.1138 149.278 23.1138H150.304C150.646 23.1138 150.931 23.3916 150.931 23.7408V24.7668C150.931 25.1159 150.646 25.3938 150.304 25.3938Z" fill="#99A0A2"/>
<path d="M144.646 25.3938H143.62C143.278 25.3938 142.993 25.1159 142.993 24.7668V23.7408C142.993 23.3988 143.271 23.1138 143.62 23.1138H144.646C144.988 23.1138 145.273 23.3916 145.273 23.7408V24.7668C145.273 25.1159 144.996 25.3938 144.646 25.3938Z" fill="#99A0A2"/>
<path d="M138.989 25.3938H137.963C137.621 25.3938 137.336 25.1159 137.336 24.7668V23.7408C137.336 23.3988 137.614 23.1138 137.963 23.1138H138.989C139.331 23.1138 139.616 23.3916 139.616 23.7408V24.7668C139.616 25.1159 139.338 25.3938 138.989 25.3938Z" fill="#99A0A2"/>
<path d="M133.332 25.3938H132.306C131.964 25.3938 131.679 25.1159 131.679 24.7668V23.7408C131.679 23.3988 131.957 23.1138 132.306 23.1138H133.332C133.674 23.1138 133.959 23.3916 133.959 23.7408V24.7668C133.959 25.1159 133.681 25.3938 133.332 25.3938Z" fill="#99A0A2"/>
<path d="M127.675 25.3938H126.648C126.306 25.3938 126.021 25.1159 126.021 24.7668V23.7408C126.021 23.3988 126.299 23.1138 126.648 23.1138H127.675C128.017 23.1138 128.302 23.3916 128.302 23.7408V24.7668C128.302 25.1159 128.024 25.3938 127.675 25.3938Z" fill="#99A0A2"/>
<path d="M122.017 25.3938H120.991C120.649 25.3938 120.364 25.1159 120.364 24.7668V23.7408C120.364 23.3988 120.642 23.1138 120.991 23.1138H122.017C122.359 23.1138 122.644 23.3916 122.644 23.7408V24.7668C122.644 25.1159 122.366 25.3938 122.017 25.3938Z" fill="#99A0A2"/>
<path d="M194.308 20.563C193.496 21.0404 191.743 21.8811 189.022 22.1804C188.252 22.2659 187.668 22.9071 187.668 23.6767C187.668 24.4889 188.309 25.1444 189.114 25.1872C192.933 25.3653 196.489 24.6385 198.42 23.9332C197.422 23.071 196.225 22.0023 194.807 20.8979C194.657 20.7839 194.494 20.6699 194.308 20.563Z" fill="#99A0A2"/>
<defs>
<clipPath id="clip0">
<rect x="49.8757" y="44.1757" width="38.4755" height="137.514" fill="white"/>
</clipPath>
</defs>
</svg>
