<svg width="224" height="210" viewBox="0 0 224 210" fill="none" xmlns="http://www.w3.org/2000/svg">
<path d="M0.669338 106.428C-4.29523 66.3925 18.7464 25.2196 56.8563 30.4429C99.8886 36.3403 100.201 62.6916 134.129 62.6916C188.673 62.6916 219.628 78.3315 221.782 109.341C223.937 140.35 198.891 191.072 100.201 192.89C44.1951 193.919 5.62789 146.367 0.669338 106.428Z" fill="#EC0000" fill-opacity="0.2"/>
<path d="M149.871 88.9947H107.579C106.911 88.9947 106.364 88.4531 106.364 87.7792C106.364 87.1112 106.905 86.5636 107.579 86.5636H149.871V88.9947Z" fill="white"/>
<path d="M161.558 54.9288V86.5697H169.645L175.898 56C176.012 55.4464 175.591 54.9288 175.025 54.9288H161.558Z" fill="#C1C7D3"/>
<path d="M168.4 88.9947H149.872V86.5696H169.646V87.749C169.646 88.4351 169.086 88.9947 168.4 88.9947Z" fill="#A9B2BF"/>
<path d="M129.448 54.9288H174.201L167.732 86.5697H121.799L128.033 56.0842C128.172 55.4102 128.762 54.9288 129.448 54.9288Z" fill="white"/>
<path d="M123.689 84.1325L129.237 56.9989C129.321 56.5837 129.688 56.2888 130.11 56.2888H171.445C172.005 56.2888 172.426 56.8063 172.317 57.3539L166.769 84.4876C166.685 84.9028 166.318 85.1977 165.897 85.1977H124.561C123.996 85.2037 123.574 84.6862 123.689 84.1325Z" fill="#444444"/>
<path d="M108.163 92.9481L102.435 208" stroke="#01004C" stroke-width="2.2654" stroke-miterlimit="10" stroke-linecap="round" stroke-linejoin="round"/>
<path d="M177.782 92.9482L183.511 208" stroke="#01004C" stroke-width="2.2654" stroke-miterlimit="10" stroke-linecap="round" stroke-linejoin="round"/>
<path d="M106.256 131.257H179.75" stroke="#01004C" stroke-width="2.2654" stroke-miterlimit="10" stroke-linecap="round" stroke-linejoin="round"/>
<path d="M130.814 92.9481L129.556 208" stroke="#01004C" stroke-width="1.1327" stroke-miterlimit="10" stroke-linecap="round" stroke-linejoin="round"/>
<path d="M177.914 94.6572H107.941V97.8045H177.914V94.6572Z" fill="#01004C"/>
<path d="M183.017 95.3313H102.928C101.177 95.3313 99.7563 93.9111 99.7563 92.1599C99.7563 90.4088 101.177 88.9886 102.928 88.9886H183.011C184.762 88.9886 186.182 90.4088 186.182 92.1599C186.182 93.9111 184.768 95.3313 183.017 95.3313Z" fill="#1BB3BC"/>
<path d="M150.72 26.0498H123.923C122.75 26.0498 121.799 25.099 121.799 23.9255V6.90759H150.72V26.0498Z" fill="#B30000"/>
<path d="M123.55 5.15637C122.581 5.15637 121.799 5.93867 121.799 6.90751C121.799 7.87636 122.581 8.65865 123.55 8.65865H150.72V5.15637H123.55Z" fill="#B30000"/>
<path d="M123.911 6.90759H150.72" stroke="#F98091" stroke-width="0.8495" stroke-miterlimit="10"/>
<path d="M136.223 23.5645V22.5897C134.587 22.5355 133.726 21.5245 133.636 19.5628L135.218 19.2318C135.254 20.5437 135.628 21.2056 136.344 21.2056C136.621 21.2056 136.825 21.1214 136.957 20.9529C137.09 20.7844 137.156 20.5617 137.156 20.2729C137.156 20.0622 137.132 19.8697 137.084 19.6952C137.036 19.5207 136.957 19.3642 136.855 19.2077C136.747 19.0573 136.645 18.9249 136.536 18.8106C136.428 18.6962 136.284 18.5638 136.097 18.4014L134.797 17.27C134.412 16.9331 134.129 16.584 133.943 16.223C133.756 15.8619 133.66 15.4106 133.66 14.869C133.66 14.1348 133.87 13.5511 134.292 13.1299C134.713 12.7026 135.291 12.468 136.019 12.4258V11.5051H136.542V12.4258C136.933 12.4559 137.27 12.5402 137.547 12.6906C137.824 12.841 138.047 13.0456 138.203 13.2984C138.366 13.5511 138.48 13.8279 138.558 14.1108C138.636 14.3996 138.691 14.7306 138.715 15.0977L137.162 15.4046C137.156 15.206 137.144 15.0315 137.12 14.881C137.102 14.7306 137.072 14.5862 137.03 14.4297C136.988 14.2793 136.927 14.1529 136.861 14.0626C136.795 13.9664 136.699 13.8941 136.584 13.84C136.47 13.7858 136.332 13.7617 136.169 13.7738C135.904 13.7918 135.694 13.8761 135.555 14.0386C135.411 14.201 135.345 14.4177 135.345 14.6885C135.345 15.0074 135.405 15.2722 135.531 15.4708C135.658 15.6754 135.85 15.898 136.121 16.1327L137.415 17.258C137.631 17.4566 137.818 17.6431 137.98 17.8297C138.143 18.0162 138.293 18.2208 138.444 18.4615C138.588 18.6962 138.703 18.955 138.775 19.2378C138.853 19.5207 138.889 19.8215 138.889 20.1345C138.889 20.7964 138.691 21.35 138.299 21.7893C137.908 22.2286 137.385 22.4813 136.735 22.5536V23.5405H136.223V23.5645Z" fill="#E4E9FF"/>
<path d="M185.345 18.305C185.267 14.1408 179.304 16.1688 179.304 16.1688C179.304 16.1688 177.39 10.1691 173.996 12.5822C169.122 16.0484 175.236 24.2324 175.236 24.2324C175.236 24.2324 185.454 24.2866 185.345 18.305Z" fill="#B30000"/>
<path d="M220.838 59.4117H196.045C194.583 59.4117 193.391 58.2262 193.391 56.7579V44.0426C193.391 42.5803 194.577 41.3888 196.045 41.3888H220.838C222.3 41.3888 223.492 42.5743 223.492 44.0426V56.7579C223.492 58.2262 222.306 59.4117 220.838 59.4117Z" fill="#B30000"/>
<path d="M223.491 45.6072H193.391V47.6532H223.491V45.6072Z" fill="#FCD98E"/>
<path d="M200.871 53.1052H196.737V55.1091H200.871V53.1052Z" fill="#E4E9FF"/>
<path d="M206.75 53.1052H202.616V55.1091H206.75V53.1052Z" fill="#E4E9FF"/>
<path d="M216.89 53.1052H208.495V55.1091H216.89V53.1052Z" fill="#E4E9FF"/>
<path d="M196.737 50.4032H210.752" stroke="#01004C" stroke-width="1.1327" stroke-miterlimit="10" stroke-linecap="round" stroke-linejoin="round"/>
<path d="M68.4341 107.511C77.2439 134.115 76.8708 173.061 74.1749 189.243L80.6018 191.06C80.6018 191.06 96.6569 147.24 90.549 114.167L68.4341 107.511Z" fill="#272626"/>
<path d="M80.6019 191.054L88.9303 201.766L71.5212 195.796L74.175 189.237L80.6019 191.054Z" fill="#E4E9FF"/>
<path d="M49.3822 111.621H82.5034L82.6719 115.196H49.1655L49.3822 111.621Z" fill="#01004C"/>
<path d="M49.3823 110.743L44.7065 208" stroke="#01004C" stroke-width="2.2654" stroke-miterlimit="10" stroke-linecap="round" stroke-linejoin="round"/>
<path d="M82.4556 110.743L87.1313 208" stroke="#01004C" stroke-width="2.2654" stroke-miterlimit="10" stroke-linecap="round" stroke-linejoin="round"/>
<path d="M85.2112 168.043H46.626" stroke="#01004C" stroke-width="2.2654" stroke-miterlimit="10" stroke-linecap="round" stroke-linejoin="round"/>
<path d="M86.2586 112.764H45.5852C44.0808 112.764 42.8652 111.549 42.8652 110.044V109.148C42.8652 107.643 44.0808 106.428 45.5852 106.428H86.2586C87.763 106.428 88.9786 107.643 88.9786 109.148V110.044C88.9726 111.549 87.757 112.764 86.2586 112.764Z" fill="#1BB3BC"/>
<path d="M77.5272 45.8962C70.637 30.7918 67.0324 4.22989 88.3831 1.80477C88.3831 1.80477 94.8581 -3.31626 102.428 3.69431C110.005 10.7049 99.8889 28.0959 100.972 41.1783C102.049 54.2547 116.341 66.2539 107.176 77.7176C98.0053 89.1752 86.1144 86.2266 81.6794 69.5035C77.2444 52.7804 77.5272 45.8962 77.5272 45.8962Z" fill="#01004C"/>
<path d="M79.9403 161.17L84.7966 165.756C84.7966 165.756 106.099 156.32 109.469 135.018C112.839 113.715 98.0113 97.1304 88.0341 89.4459L53.926 88.5011C53.926 88.5011 49.7437 103.467 65.1188 108.997C80.4879 114.527 88.9849 110.074 93.7027 126.256C98.4145 142.425 79.9403 161.17 79.9403 161.17Z" fill="#444444"/>
<path d="M84.7967 165.75L87.2218 179.097L74.5486 165.75L79.9404 161.171L84.7967 165.75Z" fill="#E4E9FF"/>
<path d="M77.5273 27.6746L82.9733 30.2562L85.4466 24.9185C85.4466 24.9185 93.2395 30.6594 97.1088 22.5656C97.1088 22.5656 98.3785 23.0711 99.4918 22.5656C99.4918 22.5656 98.5831 17.9501 100.202 13.7317C100.202 13.7317 97.0547 7.94874 93.6306 11.1682C91.4342 13.2322 89.2798 14.4358 88.4735 13.5632C87.6731 12.6967 89.8756 10.6085 88.2388 8.88749C86.8126 7.38308 84.219 7.58768 83.0937 9.30873C80.4339 13.3586 83.7677 15.2421 83.7677 15.2421L77.5273 27.6746Z" fill="#C85D6A"/>
<path opacity="0.51" d="M95.6286 20.8025C95.6286 18.7625 93.9738 17.1136 91.9398 17.1136C89.8998 17.1136 88.251 18.7685 88.251 20.8025C88.251 22.8364 89.9058 24.4913 91.9398 24.4913C93.9738 24.4913 95.6286 22.8364 95.6286 20.8025Z" fill="url(#paint0_radial)"/>
<path d="M94.4131 14.839C94.4131 14.839 95.8934 14.7969 96.8382 16.3675" stroke="#01004C" stroke-width="0.5663" stroke-miterlimit="10" stroke-linecap="round"/>
<path d="M83.5688 10.9879C83.7012 10.669 83.8818 10.332 84.1165 9.98295C84.4775 9.43534 85.1214 9.10437 85.8315 9.10437C86.343 9.10437 86.8184 9.27286 87.1855 9.57977" stroke="#EF8998" stroke-width="0.5663" stroke-miterlimit="10" stroke-linecap="round"/>
<path d="M85.1335 9.21851C85.1335 9.21851 85.0854 10.2596 85.6029 10.9877" stroke="#EF8998" stroke-width="0.5663" stroke-miterlimit="10" stroke-linecap="round"/>
<path opacity="0.75" d="M84.58 26.7901L85.4466 24.9186C84.2852 24.2566 83.1237 23.2938 83.1237 23.2938C83.1237 23.2938 82.6484 25.5143 84.58 26.7901Z" fill="url(#paint1_linear)"/>
<path d="M91.9333 92.7137C80.3433 99.9589 72.1833 104.274 50.1406 99.5497C50.1406 99.5497 53.9137 78.518 57.1512 58.6958C60.3887 38.8736 67.5317 26.4712 78.3213 27.2836C89.105 28.09 92.4749 51.1496 90.7237 66.248C88.9786 81.3463 91.9333 92.1359 91.9333 92.1359" fill="#EC0000"/>
<path opacity="0.5" d="M81.6795 36.0753C82.1007 36.99 74.5064 45.7397 74.5064 45.7397C74.4161 56.5414 78.3216 76.5681 90.2607 79.4747C90.0922 75.6836 90.1583 71.2004 90.73 66.2539C91.6929 57.9314 91.0971 47.202 88.5697 39.1022C84.4355 37.1103 81.5591 35.8105 81.6795 36.0753Z" fill="url(#paint2_linear)"/>
<path d="M122.455 81.8035C122.455 81.8035 116.16 79.1978 106.009 71.1943C100.894 67.1685 97.265 59.6344 94.0756 51.8837L79.7295 59.1831C91.6445 77.8318 119.578 86.5635 119.578 86.5635H133.78C132.974 80.8106 122.455 81.8035 122.455 81.8035Z" fill="#C85D6A"/>
<path d="M84.9469 31.4418C84.9469 31.4418 67.3572 33.8007 77.515 55.1935C78.171 56.5715 78.9111 57.8954 79.7296 59.1772C86.4212 57.3057 91.0127 54.4894 94.0757 51.8778C90.9344 44.2293 88.2205 36.3642 84.9469 31.4418Z" fill="#B30000"/>
<defs>
<radialGradient id="paint0_radial" cx="0" cy="0" r="1" gradientUnits="userSpaceOnUse" gradientTransform="translate(91.936 20.7997) scale(3.6907)">
<stop stop-color="#ED2828" stop-opacity="0.5"/>
<stop offset="1" stop-color="#D92525" stop-opacity="0"/>
</radialGradient>
<linearGradient id="paint1_linear" x1="83.3283" y1="25.2869" x2="85.2118" y2="24.4086" gradientUnits="userSpaceOnUse">
<stop offset="0.2087" stop-opacity="0"/>
<stop offset="1"/>
</linearGradient>
<linearGradient id="paint2_linear" x1="76.7982" y1="72.2753" x2="94.1059" y2="42.2974" gradientUnits="userSpaceOnUse">
<stop offset="0.053" stop-opacity="0"/>
<stop offset="1"/>
</linearGradient>
</defs>
</svg>
