<svg width="176" height="165" viewBox="0 0 176 165" fill="none" xmlns="http://www.w3.org/2000/svg">
<path d="M0.524722 83.4334C-3.36722 52.0479 14.6961 19.7707 44.572 23.8655C78.3069 28.4887 78.5522 49.1466 105.149 49.1466C147.909 49.1466 172.176 61.4074 173.865 85.7167C175.553 110.026 155.919 149.79 78.5522 151.214C34.6464 152.021 4.41194 114.743 0.524722 83.4334Z" fill="#CF1111"/>
<path d="M117.491 69.7667H84.3367C83.8131 69.7667 83.3838 69.3422 83.3838 68.8138C83.3838 68.2902 83.8084 67.8609 84.3367 67.8609H117.491V69.7667Z" fill="white"/>
<path d="M126.652 43.061V67.8657H132.993L137.894 43.9008C137.984 43.4668 137.654 43.061 137.21 43.061H126.652Z" fill="#C1C7D3"/>
<path d="M132.017 69.7667H117.492V67.8656H132.993V68.7902C132.993 69.328 132.555 69.7667 132.017 69.7667Z" fill="#A9B2BF"/>
<path d="M101.48 43.061H136.564L131.493 67.8657H95.4839L100.371 43.9668C100.48 43.4384 100.942 43.061 101.48 43.061Z" fill="white"/>
<path d="M96.9654 65.9551L101.315 44.6839C101.381 44.3584 101.669 44.1272 101.999 44.1272H134.404C134.842 44.1272 135.172 44.5329 135.088 44.9622L130.738 66.2334C130.672 66.5589 130.384 66.7901 130.054 66.7901H97.6495C97.206 66.7948 96.8758 66.3891 96.9654 65.9551Z" fill="#444444"/>
<path d="M84.7948 72.866L80.3037 163.06" stroke="#01004C" stroke-width="2.2654" stroke-miterlimit="10" stroke-linecap="round" stroke-linejoin="round"/>
<path d="M139.371 72.866L143.862 163.06" stroke="#01004C" stroke-width="2.2654" stroke-miterlimit="10" stroke-linecap="round" stroke-linejoin="round"/>
<path d="M83.2988 102.898H140.914" stroke="#01004C" stroke-width="2.2654" stroke-miterlimit="10" stroke-linecap="round" stroke-linejoin="round"/>
<path d="M102.55 72.866L101.564 163.06" stroke="#01004C" stroke-width="1.1327" stroke-miterlimit="10" stroke-linecap="round" stroke-linejoin="round"/>
<path d="M139.475 74.2058H84.6201V76.673H139.475V74.2058Z" fill="#01004C"/>
<path d="M143.475 74.7342H80.6897C79.3169 74.7342 78.2036 73.6209 78.2036 72.2481C78.2036 70.8753 79.3169 69.762 80.6897 69.762H143.47C144.843 69.762 145.956 70.8753 145.956 72.2481C145.956 73.6209 144.848 74.7342 143.475 74.7342Z" fill="#1BB3BC"/>
<path d="M118.155 20.4216H97.1482C96.2283 20.4216 95.4829 19.6762 95.4829 18.7563V5.41518H118.155V20.4216Z" fill="#B30000"/>
<path d="M96.8557 4.04235C96.0962 4.04235 95.4829 4.65563 95.4829 5.41514C95.4829 6.17466 96.0962 6.78794 96.8557 6.78794H118.155V4.04235H96.8557Z" fill="#B30000"/>
<path d="M97.1387 5.41518H118.155" stroke="#F98091" stroke-width="0.8495" stroke-miterlimit="10"/>
<path d="M106.791 18.4733V17.709C105.508 17.6666 104.833 16.874 104.763 15.3361L106.003 15.0767C106.032 16.1051 106.324 16.624 106.886 16.624C107.103 16.624 107.263 16.558 107.367 16.4259C107.471 16.2938 107.522 16.1192 107.522 15.8928C107.522 15.7277 107.504 15.5767 107.466 15.4399C107.428 15.3031 107.367 15.1805 107.287 15.0578C107.202 14.9399 107.121 14.8361 107.037 14.7464C106.952 14.6568 106.838 14.553 106.692 14.4257L105.673 13.5388C105.371 13.2746 105.15 13.001 105.003 12.7179C104.857 12.4349 104.782 12.0811 104.782 11.6565C104.782 11.0809 104.947 10.6233 105.277 10.2931C105.607 9.95818 106.06 9.77419 106.631 9.74117V9.01939H107.041V9.74117C107.348 9.76476 107.612 9.8308 107.829 9.94874C108.046 10.0667 108.221 10.2271 108.343 10.4252C108.471 10.6233 108.56 10.8403 108.622 11.0621C108.683 11.2885 108.725 11.548 108.744 11.8357L107.527 12.0763C107.522 11.9207 107.513 11.7838 107.494 11.6659C107.48 11.548 107.456 11.4348 107.423 11.3121C107.39 11.1942 107.343 11.0951 107.291 11.0243C107.239 10.9489 107.164 10.8922 107.074 10.8498C106.985 10.8073 106.876 10.7885 106.749 10.7979C106.541 10.812 106.376 10.8781 106.268 11.0055C106.154 11.1328 106.102 11.3027 106.102 11.515C106.102 11.765 106.15 11.9725 106.249 12.1282C106.348 12.2886 106.499 12.4632 106.711 12.6472L107.725 13.5293C107.895 13.685 108.041 13.8312 108.169 13.9775C108.296 14.1237 108.414 14.2841 108.532 14.4728C108.645 14.6568 108.735 14.8597 108.791 15.0814C108.853 15.3031 108.881 15.539 108.881 15.7843C108.881 16.3032 108.725 16.7372 108.419 17.0816C108.112 17.426 107.702 17.6241 107.192 17.6807V18.4544H106.791V18.4733Z" fill="#E4E9FF"/>
<path d="M145.3 14.3501C145.239 11.0856 140.564 12.6754 140.564 12.6754C140.564 12.6754 139.063 7.97205 136.403 9.86377C132.582 12.5811 137.375 18.9969 137.375 18.9969C137.375 18.9969 145.385 19.0393 145.3 14.3501Z" fill="#B30000"/>
<path d="M173.123 46.5753H153.687C152.541 46.5753 151.606 45.646 151.606 44.4949V34.5268C151.606 33.3804 152.536 32.4464 153.687 32.4464H173.123C174.269 32.4464 175.203 33.3757 175.203 34.5268V44.4949C175.203 45.646 174.274 46.5753 173.123 46.5753Z" fill="#B30000"/>
<path d="M175.203 35.7534H151.606V37.3573H175.203V35.7534Z" fill="#FCD98E"/>
<path d="M157.47 41.6315H154.229V43.2024H157.47V41.6315Z" fill="#E4E9FF"/>
<path d="M162.079 41.6315H158.838V43.2024H162.079V41.6315Z" fill="#E4E9FF"/>
<path d="M170.028 41.6315H163.447V43.2024H170.028V41.6315Z" fill="#E4E9FF"/>
<path d="M154.229 39.5132H165.217" stroke="#01004C" stroke-width="1.1327" stroke-miterlimit="10" stroke-linecap="round" stroke-linejoin="round"/>
<path d="M53.6489 84.2824C60.5553 105.138 60.2629 135.67 58.1494 148.355L63.1877 149.78C63.1877 149.78 75.774 115.427 70.9857 89.4999L53.6489 84.2824Z" fill="#272626"/>
<path d="M63.188 149.776L69.7171 158.173L56.0693 153.493L58.1498 148.351L63.188 149.776Z" fill="#E4E9FF"/>
<path d="M38.7138 87.5046H64.6789L64.811 90.3068H38.5439L38.7138 87.5046Z" fill="#01004C"/>
<path d="M38.7143 86.8159L35.0488 163.06" stroke="#01004C" stroke-width="2.2654" stroke-miterlimit="10" stroke-linecap="round" stroke-linejoin="round"/>
<path d="M64.6416 86.8159L68.3071 163.06" stroke="#01004C" stroke-width="2.2654" stroke-miterlimit="10" stroke-linecap="round" stroke-linejoin="round"/>
<path d="M66.8018 131.736H36.5532" stroke="#01004C" stroke-width="2.2654" stroke-miterlimit="10" stroke-linecap="round" stroke-linejoin="round"/>
<path d="M67.6224 88.4009H35.7368C34.5574 88.4009 33.6045 87.448 33.6045 86.2686V85.5657C33.6045 84.3863 34.5574 83.4334 35.7368 83.4334H67.6224C68.8018 83.4334 69.7547 84.3863 69.7547 85.5657V86.2686C69.75 87.448 68.7971 88.4009 67.6224 88.4009Z" fill="#1BB3BC"/>
<path d="M60.7776 35.98C55.3761 24.139 52.5503 3.31599 69.288 1.41483C69.288 1.41483 74.364 -2.59976 80.2986 2.89613C86.238 8.39202 78.3078 22.0256 79.157 32.2815C80.0014 42.5326 91.2055 51.9393 84.0207 60.9261C76.8313 69.9082 67.5095 67.5967 64.0327 54.4867C60.5559 41.3768 60.7776 35.98 60.7776 35.98Z" fill="#01004C"/>
<path d="M62.6694 126.348L66.4765 129.943C66.4765 129.943 83.1764 122.546 85.8182 105.846C88.46 89.1461 76.8361 76.1447 69.0145 70.1205L42.2757 69.3798C42.2757 69.3798 38.997 81.1122 51.0502 85.4476C63.0987 89.783 69.7599 86.292 73.4584 98.9774C77.1522 111.653 62.6694 126.348 62.6694 126.348Z" fill="#444444"/>
<path d="M66.4763 129.939L68.3774 140.402L58.4424 129.939L62.6693 126.349L66.4763 129.939Z" fill="#E4E9FF"/>
<path d="M60.7778 21.6953L65.0472 23.7191L66.9861 19.5347C66.9861 19.5347 73.0952 24.0352 76.1286 17.6901C76.1286 17.6901 77.124 18.0864 77.9967 17.6901C77.9967 17.6901 77.2844 14.0718 78.5534 10.7648C78.5534 10.7648 76.0861 6.23131 73.4019 8.75518C71.68 10.3733 69.9911 11.3168 69.359 10.6327C68.7315 9.95342 70.4581 8.31645 69.175 6.96724C68.0569 5.78787 66.0237 5.94826 65.1415 7.29747C63.0564 10.4723 65.6699 11.9489 65.6699 11.9489L60.7778 21.6953Z" fill="#C85D6A"/>
<path opacity="0.51" d="M74.9687 16.3081C74.9687 14.7088 73.6714 13.4162 72.0769 13.4162C70.4777 13.4162 69.1851 14.7136 69.1851 16.3081C69.1851 17.9026 70.4824 19.1999 72.0769 19.1999C73.6714 19.1999 74.9687 17.9026 74.9687 16.3081Z" fill="url(#paint0_radial)"/>
<path d="M74.0156 11.6329C74.0156 11.6329 75.1761 11.5999 75.9168 12.8312" stroke="#01004C" stroke-width="0.5663" stroke-miterlimit="10" stroke-linecap="round"/>
<path d="M65.5142 8.61399C65.6179 8.36396 65.7595 8.09978 65.9435 7.82617C66.2265 7.39688 66.7313 7.13741 67.2879 7.13741C67.6889 7.13741 68.0616 7.2695 68.3494 7.5101" stroke="#EF8998" stroke-width="0.5663" stroke-miterlimit="10" stroke-linecap="round"/>
<path d="M66.7407 7.22683C66.7407 7.22683 66.7029 8.04296 67.1086 8.61378" stroke="#EF8998" stroke-width="0.5663" stroke-miterlimit="10" stroke-linecap="round"/>
<path opacity="0.75" d="M66.3072 21.002L66.9865 19.5349C66.076 19.0159 65.1655 18.2611 65.1655 18.2611C65.1655 18.2611 64.7929 20.0019 66.3072 21.002Z" fill="url(#paint1_linear)"/>
<path d="M72.0712 72.6822C62.9852 78.3621 56.5883 81.7446 39.3081 78.0413C39.3081 78.0413 42.266 61.5537 44.804 46.0142C47.342 30.4748 52.9417 20.752 61.4002 21.3888C69.8539 22.021 72.4957 40.0985 71.1229 51.9347C69.7549 63.7709 72.0712 72.2294 72.0712 72.2294" fill="#EC0000"/>
<path opacity="0.5" d="M64.0322 28.281C64.3624 28.998 58.4089 35.8573 58.4089 35.8573C58.3381 44.3252 61.3998 60.0251 70.7593 62.3036C70.6272 59.3316 70.6791 55.817 71.1273 51.9393C71.8821 45.415 71.4151 37.0036 69.4337 30.6539C66.1928 29.0924 63.9378 28.0734 64.0322 28.281Z" fill="url(#paint2_linear)"/>
<path d="M95.9987 64.1292C95.9987 64.1292 91.0642 62.0866 83.1057 55.8123C79.0958 52.6563 76.2512 46.75 73.7509 40.6738L62.5044 46.3961C71.845 61.0157 93.7437 67.8608 93.7437 67.8608H104.877C104.245 63.3508 95.9987 64.1292 95.9987 64.1292Z" fill="#C85D6A"/>
<path d="M66.5945 24.6485C66.5945 24.6485 52.8052 26.4977 60.7683 43.2685C61.2826 44.3488 61.8628 45.3866 62.5044 46.3914C67.7503 44.9243 71.3497 42.7165 73.7509 40.6691C71.2884 34.6732 69.1608 28.5074 66.5945 24.6485Z" fill="#B30000"/>
<defs>
<radialGradient id="paint0_radial" cx="0" cy="0" r="1" gradientUnits="userSpaceOnUse" gradientTransform="translate(72.0739 16.3059) scale(2.89329)">
<stop stop-color="#ED2828" stop-opacity="0.5"/>
<stop offset="1" stop-color="#D92525" stop-opacity="0"/>
</radialGradient>
<linearGradient id="paint1_linear" x1="65.3259" y1="19.8236" x2="66.8024" y2="19.135" gradientUnits="userSpaceOnUse">
<stop offset="0.2087" stop-opacity="0"/>
<stop offset="1"/>
</linearGradient>
<linearGradient id="paint2_linear" x1="60.2055" y1="56.6597" x2="73.7738" y2="33.1588" gradientUnits="userSpaceOnUse">
<stop offset="0.053" stop-opacity="0"/>
<stop offset="1"/>
</linearGradient>
</defs>
</svg>
