<svg width="151" height="227" viewBox="0 0 151 227" fill="none" xmlns="http://www.w3.org/2000/svg">
<path opacity="0.95" d="M111.495 153.704H11.5065C5.15437 153.704 0 148.557 0 142.197V11.5065C0 5.15437 5.15437 0 11.5065 0H111.487C117.84 0 122.994 5.15437 122.994 11.5065V142.197C123.002 148.557 117.847 153.704 111.495 153.704Z" fill="url(#paint0_linear)"/>
<path d="M53.4217 100.205C47.9118 89.9967 33.3374 93.536 27.8198 83.32C30.3313 79.5025 32.8506 75.685 35.3698 71.8676C40.8796 82.0758 55.4618 78.5366 60.9716 88.7526C58.4524 92.5701 55.9332 96.3875 53.4217 100.205Z" fill="#B7D02D"/>
<path d="M53.3289 96.6734C47.5718 89.278 35.8875 90.8776 30.1304 83.4822C31.9077 80.7853 33.6851 78.096 35.4625 75.399C41.2196 82.7945 52.9116 81.1948 58.661 88.5902C56.8837 91.2872 55.1063 93.9764 53.3289 96.6734Z" fill="#99B528"/>
<path d="M47.9351 87.2689C46.7759 89.0308 44.1794 89.85 42.0929 89.1699C40.0064 88.4899 39.3109 86.4343 40.4778 84.6569C41.637 82.895 44.2258 82.0914 46.3122 82.7714C48.391 83.4514 49.1019 85.4915 47.9351 87.2689Z" fill="#B7D02D"/>
<path d="M42.8503 87.6088C42.5644 87.4774 42.3094 87.3229 42.0853 87.1452C41.8612 86.9597 41.6757 86.7588 41.5366 86.5347C41.8689 86.3647 42.2089 86.2024 42.5412 86.0324C42.6571 86.2178 42.7885 86.3724 42.9276 86.5038C43.0667 86.6351 43.2213 86.751 43.399 86.8438C43.5381 86.6351 43.6695 86.4265 43.8086 86.2178C43.5922 86.0865 43.4145 85.9628 43.2754 85.8314C43.1285 85.7078 43.0281 85.5764 42.9585 85.4451C42.889 85.3137 42.8658 85.1746 42.8812 85.0355C42.8967 84.8964 42.9585 84.7418 43.0667 84.5796L43.0744 84.5718C43.1749 84.4173 43.2985 84.2936 43.4531 84.1854C43.5999 84.0773 43.7699 84 43.9554 83.9459C44.1409 83.8918 44.3495 83.8686 44.5659 83.8686C44.79 83.8686 45.0141 83.9072 45.2614 83.9691C45.3232 83.8686 45.3927 83.7681 45.4546 83.6754C45.6709 83.745 45.8796 83.8145 46.0882 83.8841C46.0187 83.9923 45.9491 84.0927 45.8796 84.2009C46.1191 84.3091 46.3201 84.4327 46.4901 84.5718C46.6524 84.7109 46.7915 84.8655 46.9074 85.0355C46.5828 85.2132 46.266 85.391 45.9414 85.5687C45.8641 85.4528 45.7714 85.3446 45.6709 85.2441C45.5628 85.1437 45.4468 85.0587 45.3309 84.9814C45.1996 85.1823 45.0682 85.3832 44.9291 85.5842C45.1455 85.7155 45.3155 85.8392 45.4623 85.9705C45.6014 86.0942 45.7019 86.2256 45.7637 86.3492C45.8255 86.4806 45.8487 86.6197 45.8332 86.7588C45.81 86.9056 45.7482 87.0524 45.6478 87.2147L45.64 87.2224C45.5396 87.3847 45.4082 87.5161 45.2536 87.6165C45.0991 87.717 44.9291 87.7943 44.7436 87.8484C44.5582 87.9025 44.3572 87.9256 44.1409 87.9179C43.9245 87.9102 43.7081 87.887 43.4763 87.8329C43.3604 88.0029 43.2522 88.1729 43.1363 88.3429C42.9199 88.2734 42.7112 88.2038 42.5026 88.1343C42.6262 87.9566 42.7344 87.7788 42.8503 87.6088ZM44.7977 84.7418C44.6354 84.7032 44.5118 84.6955 44.4191 84.7187C44.3263 84.7418 44.2568 84.7959 44.2104 84.8578L44.2027 84.8655C44.1563 84.935 44.1486 84.9969 44.1718 85.0664C44.195 85.1282 44.28 85.2055 44.4268 85.2982C44.5504 85.1128 44.6741 84.9273 44.7977 84.7418ZM43.9631 87.0601C44.2568 87.1297 44.45 87.0833 44.5504 86.9288L44.5582 86.921C44.6045 86.8515 44.6122 86.7819 44.5891 86.7201C44.5581 86.6583 44.4809 86.581 44.3495 86.4883C44.2104 86.6815 44.0868 86.867 43.9631 87.0601Z" fill="#99B528"/>
<path d="M71.1954 99.4323C65.6855 89.224 51.1111 92.7633 45.5935 82.5473C48.105 78.7298 50.6242 74.9123 53.1435 71.0948C58.6533 81.3031 73.2355 77.7639 78.7453 87.9799C76.2261 91.7974 73.7069 95.6148 71.1954 99.4323Z" fill="#B7D02D"/>
<path d="M71.1024 95.9007C65.3452 88.5053 53.6609 90.1049 47.9038 82.7095C49.6812 80.0125 51.4586 77.3233 53.2359 74.6263C58.9931 82.0217 70.6851 80.4221 76.4345 87.8175C74.6571 90.5145 72.8797 93.2037 71.1024 95.9007Z" fill="#99B528"/>
<path d="M65.7085 86.4962C64.5493 88.2581 61.9528 89.0773 59.8664 88.3972C57.7799 87.7172 57.0844 85.6616 58.2513 83.8842C59.4104 82.1223 61.9992 81.3186 64.0857 81.9987C66.1644 82.6787 66.8754 84.7188 65.7085 86.4962Z" fill="#B7D02D"/>
<path d="M60.6238 86.8362C60.3378 86.7049 60.0828 86.5503 59.8587 86.3726C59.6346 86.1871 59.4492 85.9862 59.3101 85.7621C59.6423 85.5921 59.9824 85.4298 60.3147 85.2598C60.4306 85.4452 60.5619 85.5998 60.701 85.7312C60.8401 85.8625 60.9947 85.9785 61.1724 86.0712C61.3115 85.8625 61.4429 85.6539 61.582 85.4452C61.3656 85.3139 61.1879 85.1902 61.0488 85.0589C60.902 84.9352 60.8015 84.8038 60.732 84.6725C60.6624 84.5411 60.6392 84.402 60.6547 84.2629C60.6701 84.1238 60.732 83.9693 60.8401 83.807L60.8479 83.7992C60.9483 83.6447 61.072 83.521 61.2265 83.4129C61.3734 83.3047 61.5434 83.2274 61.7288 83.1733C61.9143 83.1192 62.1229 83.096 62.3393 83.096C62.5634 83.096 62.7875 83.1347 63.0348 83.1965C63.0966 83.096 63.1662 82.9956 63.228 82.9028C63.4444 82.9724 63.653 83.0419 63.8617 83.1115C63.7921 83.2197 63.7226 83.3201 63.653 83.4283C63.8926 83.5365 64.0935 83.6601 64.2635 83.7992C64.4258 83.9383 64.5649 84.0929 64.6808 84.2629C64.3562 84.4406 64.0394 84.6184 63.7148 84.7961C63.6376 84.6802 63.5448 84.572 63.4444 84.4716C63.3362 84.3711 63.2203 84.2861 63.1044 84.2088C62.973 84.4097 62.8416 84.6107 62.7025 84.8116C62.9189 84.9429 63.0889 85.0666 63.2357 85.198C63.3748 85.3216 63.4753 85.453 63.5371 85.5766C63.5989 85.708 63.6221 85.8471 63.6067 85.9862C63.5835 86.133 63.5217 86.2798 63.4212 86.4421L63.4135 86.4498C63.313 86.6121 63.1816 86.7435 63.0271 86.844C62.8725 86.9444 62.7025 87.0217 62.5171 87.0758C62.3316 87.1299 62.1307 87.1531 61.9143 87.1453C61.6979 87.1376 61.4815 87.1144 61.2497 87.0603C61.1338 87.2303 61.0256 87.4004 60.9097 87.5704C60.6933 87.5008 60.4847 87.4313 60.276 87.3617C60.3997 87.184 60.5078 87.0062 60.6238 86.8362ZM62.5711 83.9693C62.4089 83.9306 62.2852 83.9229 62.1925 83.9461C62.0998 83.9693 62.0302 84.0233 61.9838 84.0852L61.9761 84.0929C61.9297 84.1624 61.922 84.2243 61.9452 84.2938C61.9684 84.3556 62.0534 84.4329 62.2002 84.5256C62.3239 84.3402 62.4475 84.1547 62.5711 83.9693ZM61.7366 86.2876C62.0302 86.3571 62.2234 86.3107 62.3239 86.1562L62.3316 86.1485C62.378 86.0789 62.3857 86.0094 62.3625 85.9475C62.3316 85.8857 62.2543 85.8084 62.1229 85.7157C61.9838 85.9089 61.8602 86.0944 61.7366 86.2876Z" fill="#99B528"/>
<path d="M92.0599 99.4323C86.55 89.224 71.9756 92.7633 66.458 82.5473C68.9695 78.7298 71.4887 74.9123 74.008 71.0948C79.5178 81.3031 94.1 77.7639 99.6098 87.9799C97.0906 91.7974 94.5714 95.6148 92.0599 99.4323Z" fill="#B7D02D"/>
<path d="M91.9671 95.9007C86.21 88.5053 74.5257 90.1049 68.7686 82.7095C70.5459 80.0125 72.3233 77.3233 74.1007 74.6263C79.8578 82.0217 91.5498 80.4221 97.2992 87.8175C95.5218 90.5145 93.7445 93.2037 91.9671 95.9007Z" fill="#99B528"/>
<path d="M86.5732 86.4962C85.4141 88.2581 82.8176 89.0773 80.7311 88.3972C78.6446 87.7172 77.9491 85.6616 79.116 83.8842C80.2752 82.1223 82.8639 81.3186 84.9504 81.9987C87.0292 82.6787 87.7401 84.7188 86.5732 86.4962Z" fill="#B7D02D"/>
<path d="M81.4883 86.8362C81.2023 86.7049 80.9473 86.5503 80.7232 86.3726C80.4991 86.1871 80.3137 85.9862 80.1746 85.7621C80.5069 85.5921 80.8469 85.4298 81.1792 85.2598C81.2951 85.4452 81.4264 85.5998 81.5655 85.7312C81.7046 85.8625 81.8592 85.9785 82.0369 86.0712C82.176 85.8625 82.3074 85.6539 82.4465 85.4452C82.2301 85.3139 82.0524 85.1902 81.9133 85.0589C81.7665 84.9352 81.666 84.8038 81.5965 84.6725C81.5269 84.5411 81.5037 84.402 81.5192 84.2629C81.5346 84.1238 81.5965 83.9693 81.7046 83.807L81.7124 83.7992C81.8128 83.6447 81.9365 83.521 82.091 83.4129C82.2379 83.3047 82.4079 83.2274 82.5933 83.1733C82.7788 83.1192 82.9874 83.096 83.2038 83.096C83.4279 83.096 83.652 83.1347 83.8993 83.1965C83.9611 83.096 84.0307 82.9956 84.0925 82.9028C84.3089 82.9724 84.5175 83.0419 84.7262 83.1115C84.6566 83.2197 84.5871 83.3201 84.5175 83.4283C84.7571 83.5365 84.958 83.6601 85.128 83.7992C85.2903 83.9383 85.4294 84.0929 85.5453 84.2629C85.2207 84.4406 84.9039 84.6184 84.5793 84.7961C84.5021 84.6802 84.4093 84.572 84.3089 84.4716C84.2007 84.3711 84.0848 84.2861 83.9689 84.2088C83.8375 84.4097 83.7061 84.6107 83.567 84.8116C83.7834 84.9429 83.9534 85.0666 84.1002 85.198C84.2393 85.3216 84.3398 85.453 84.4016 85.5766C84.4634 85.708 84.4866 85.8471 84.4712 85.9862C84.448 86.133 84.3862 86.2798 84.2857 86.4421L84.278 86.4498C84.1775 86.6121 84.0461 86.7435 83.8916 86.844C83.737 86.9444 83.567 87.0217 83.3816 87.0758C83.1961 87.1299 82.9952 87.1531 82.7788 87.1453C82.5624 87.1376 82.346 87.1144 82.1142 87.0603C81.9983 87.2303 81.8901 87.4004 81.7742 87.5704C81.5578 87.5008 81.3492 87.4313 81.1405 87.3617C81.2642 87.184 81.3724 87.0062 81.4883 86.8362ZM83.4356 83.9693C83.2734 83.9306 83.1497 83.9229 83.057 83.9461C82.9643 83.9693 82.8947 84.0233 82.8483 84.0852L82.8406 84.0929C82.7942 84.1624 82.7865 84.2243 82.8097 84.2938C82.8329 84.3556 82.9179 84.4329 83.0647 84.5256C83.1884 84.3402 83.312 84.1547 83.4356 83.9693ZM82.6011 86.2876C82.8947 86.3571 83.0879 86.3107 83.1884 86.1562L83.1961 86.1485C83.2425 86.0789 83.2502 86.0094 83.227 85.9475C83.1961 85.8857 83.1188 85.8084 82.9874 85.7157C82.8483 85.9089 82.7247 86.0944 82.6011 86.2876Z" fill="#99B528"/>
<path d="M60.7319 105.329C60.7319 111.433 55.7862 116.379 49.6813 116.379C43.5764 116.379 38.6384 111.433 38.6384 105.329C38.6384 99.2237 43.5842 94.278 49.6813 94.278C55.7785 94.278 60.7319 99.2314 60.7319 105.329Z" fill="#FFD71C"/>
<path d="M57.8261 105.328C57.8261 109.826 54.1786 113.473 49.6811 113.473C45.1836 113.473 41.5361 109.826 41.5361 105.328C41.5361 100.831 45.1836 97.1835 49.6811 97.1835C54.1864 97.1912 57.8261 100.831 57.8261 105.328Z" fill="#FFE54E"/>
<path d="M49.148 109.532C48.5298 109.463 47.927 109.324 47.3397 109.115C46.7524 108.906 46.2192 108.628 45.7478 108.281L46.8838 106.604C47.2856 106.89 47.6797 107.114 48.0661 107.284C48.4448 107.454 48.8389 107.57 49.233 107.639V106.124C48.7307 106.009 48.2825 105.869 47.9038 105.723C47.5252 105.568 47.2006 105.39 46.9456 105.174C46.6906 104.958 46.4974 104.71 46.366 104.424C46.2346 104.138 46.1728 103.798 46.1728 103.404V103.381C46.1728 103.01 46.2424 102.67 46.3737 102.361C46.5051 102.052 46.6983 101.782 46.9611 101.55C47.2161 101.318 47.5329 101.132 47.9038 100.986C48.2748 100.846 48.7075 100.754 49.1866 100.723V100.004H50.5003V100.761C51.0258 100.823 51.4972 100.931 51.9377 101.101C52.3782 101.271 52.78 101.48 53.1587 101.743L52.1232 103.428C51.8604 103.242 51.5899 103.088 51.2963 102.964C51.0026 102.84 50.7167 102.74 50.4308 102.67V104.131C50.9331 104.247 51.3736 104.386 51.7445 104.54C52.1154 104.695 52.4323 104.88 52.6873 105.097C52.9423 105.313 53.1278 105.568 53.2514 105.862C53.375 106.155 53.4369 106.495 53.4369 106.882V106.905C53.4369 107.291 53.3673 107.639 53.2205 107.948C53.0737 108.257 52.8727 108.52 52.6177 108.752C52.355 108.976 52.0459 109.161 51.6749 109.293C51.3117 109.424 50.9022 109.517 50.4617 109.556V110.792H49.148V109.532ZM49.233 102.562C48.9239 102.585 48.6998 102.655 48.5684 102.771C48.437 102.887 48.3752 103.026 48.3752 103.196V103.219C48.3752 103.389 48.4293 103.52 48.5452 103.628C48.6611 103.737 48.8852 103.829 49.233 103.922V102.562ZM50.4076 107.716C50.9717 107.655 51.2499 107.446 51.2499 107.075V107.052C51.2499 106.882 51.1881 106.743 51.0722 106.635C50.9563 106.526 50.7322 106.426 50.4076 106.333V107.716Z" fill="#F9BE2C"/>
<path d="M87.779 105.329C87.779 111.433 82.8333 116.379 76.7284 116.379C70.6235 116.379 65.6855 111.433 65.6855 105.329C65.6855 99.2237 70.6313 94.278 76.7284 94.278C82.8256 94.278 87.779 99.2314 87.779 105.329Z" fill="#FFD71C"/>
<path d="M84.8732 105.328C84.8732 109.826 81.2258 113.473 76.7282 113.473C72.2307 113.473 68.5833 109.826 68.5833 105.328C68.5833 100.831 72.2307 97.1835 76.7282 97.1835C81.2335 97.1912 84.8732 100.831 84.8732 105.328Z" fill="#FFE54E"/>
<path d="M76.1951 109.532C75.5769 109.463 74.9741 109.324 74.3868 109.115C73.7995 108.906 73.2663 108.628 72.7949 108.281L73.9309 106.604C74.3327 106.89 74.7268 107.114 75.1132 107.284C75.4919 107.454 75.886 107.57 76.2801 107.639V106.124C75.7778 106.009 75.3296 105.869 74.9509 105.723C74.5723 105.568 74.2477 105.39 73.9927 105.174C73.7377 104.958 73.5445 104.71 73.4131 104.424C73.2818 104.138 73.2199 103.798 73.2199 103.404V103.381C73.2199 103.01 73.2895 102.67 73.4209 102.361C73.5522 102.052 73.7454 101.782 74.0082 101.55C74.2632 101.318 74.58 101.132 74.9509 100.986C75.3219 100.846 75.7546 100.754 76.2337 100.723V100.004H77.5475V100.761C78.0729 100.823 78.5443 100.931 78.9848 101.101C79.4253 101.271 79.8271 101.48 80.2058 101.743L79.1703 103.428C78.9075 103.242 78.6371 103.088 78.3434 102.964C78.0498 102.84 77.7638 102.74 77.4779 102.67V104.131C77.9802 104.247 78.4207 104.386 78.7916 104.54C79.1625 104.695 79.4794 104.88 79.7344 105.097C79.9894 105.313 80.1749 105.568 80.2985 105.862C80.4222 106.155 80.484 106.495 80.484 106.882V106.905C80.484 107.291 80.4144 107.639 80.2676 107.948C80.1208 108.257 79.9199 108.52 79.6648 108.752C79.4021 108.976 79.093 109.161 78.7221 109.293C78.3589 109.424 77.9493 109.517 77.5088 109.556V110.792H76.1951V109.532ZM76.2801 102.562C75.971 102.585 75.7469 102.655 75.6155 102.771C75.4842 102.887 75.4223 103.026 75.4223 103.196V103.219C75.4223 103.389 75.4764 103.52 75.5923 103.628C75.7083 103.737 75.9324 103.829 76.2801 103.922V102.562ZM77.4547 107.716C78.0188 107.655 78.297 107.446 78.297 107.075V107.052C78.297 106.882 78.2352 106.743 78.1193 106.635C78.0034 106.526 77.7793 106.426 77.4547 106.333V107.716Z" fill="#F9BE2C"/>
<path d="M60.7319 65.1445C60.7319 71.2494 55.7862 76.1951 49.6813 76.1951C43.5764 76.1951 38.6384 71.2494 38.6384 65.1445C38.6384 59.0396 43.5842 54.0939 49.6813 54.0939C55.7785 54.0939 60.7319 59.0473 60.7319 65.1445Z" fill="#FFD71C"/>
<path d="M57.8261 65.1445C57.8261 69.642 54.1786 73.2895 49.6811 73.2895C45.1836 73.2895 41.5361 69.642 41.5361 65.1445C41.5361 60.647 45.1836 56.9995 49.6811 56.9995C54.1864 57.0072 57.8261 60.647 57.8261 65.1445Z" fill="#FFE54E"/>
<path d="M49.148 69.3483C48.5298 69.2788 47.927 69.1397 47.3397 68.931C46.7524 68.7224 46.2192 68.4442 45.7478 68.0964L46.8838 66.4195C47.2856 66.7054 47.6797 66.9296 48.0661 67.0996C48.4448 67.2696 48.8389 67.3855 49.233 67.455V65.9404C48.7307 65.8245 48.2825 65.6854 47.9038 65.5386C47.5252 65.384 47.2006 65.2063 46.9456 64.9899C46.6906 64.7735 46.4974 64.5262 46.366 64.2403C46.2346 63.9544 46.1728 63.6144 46.1728 63.2203V63.1971C46.1728 62.8261 46.2424 62.4861 46.3737 62.177C46.5051 61.8679 46.6983 61.5974 46.9611 61.3656C47.2161 61.1338 47.5329 60.9483 47.9038 60.8015C48.2748 60.6624 48.7075 60.5697 49.1866 60.5387V59.8201H50.5003V60.5774C51.0258 60.6392 51.4972 60.7474 51.9377 60.9174C52.3782 61.0874 52.78 61.2961 53.1587 61.5588L52.1232 63.2434C51.8604 63.058 51.5899 62.9034 51.2963 62.7798C51.0026 62.6561 50.7167 62.5557 50.4308 62.4861V63.9467C50.9331 64.0626 51.3736 64.2017 51.7445 64.3562C52.1154 64.5108 52.4323 64.6962 52.6873 64.9126C52.9423 65.129 53.1278 65.384 53.2514 65.6777C53.375 65.9713 53.4369 66.3113 53.4369 66.6977V66.7209C53.4369 67.1073 53.3673 67.455 53.2205 67.7641C53.0737 68.0732 52.8727 68.336 52.6177 68.5678C52.355 68.7919 52.0459 68.9774 51.6749 69.1088C51.3117 69.2401 50.9022 69.3329 50.4617 69.3715V70.6079H49.148V69.3483ZM49.233 62.3779C48.9239 62.4011 48.6998 62.4707 48.5684 62.5866C48.437 62.7025 48.3752 62.8416 48.3752 63.0116V63.0348C48.3752 63.2048 48.4293 63.3362 48.5452 63.4444C48.6611 63.5525 48.8852 63.6453 49.233 63.738V62.3779ZM50.4076 67.5323C50.9717 67.4705 51.2499 67.2618 51.2499 66.8909V66.8677C51.2499 66.6977 51.1881 66.5586 51.0722 66.4504C50.9563 66.3422 50.7322 66.2418 50.4076 66.1491V67.5323Z" fill="#F9BE2C"/>
<path d="M87.779 65.1445C87.779 71.2494 82.8333 76.1951 76.7284 76.1951C70.6235 76.1951 65.6855 71.2494 65.6855 65.1445C65.6855 59.0396 70.6313 54.0939 76.7284 54.0939C82.8256 54.0939 87.779 59.0473 87.779 65.1445Z" fill="#FFD71C"/>
<path d="M84.8732 65.1445C84.8732 69.642 81.2258 73.2895 76.7282 73.2895C72.2307 73.2895 68.5833 69.642 68.5833 65.1445C68.5833 60.647 72.2307 56.9995 76.7282 56.9995C81.2335 57.0072 84.8732 60.647 84.8732 65.1445Z" fill="#FFE54E"/>
<path d="M76.1951 69.3483C75.5769 69.2788 74.9741 69.1397 74.3868 68.931C73.7995 68.7224 73.2663 68.4442 72.7949 68.0964L73.9309 66.4195C74.3327 66.7054 74.7268 66.9296 75.1132 67.0996C75.4919 67.2696 75.886 67.3855 76.2801 67.455V65.9404C75.7778 65.8245 75.3296 65.6854 74.9509 65.5386C74.5723 65.384 74.2477 65.2063 73.9927 64.9899C73.7377 64.7735 73.5445 64.5262 73.4131 64.2403C73.2818 63.9544 73.2199 63.6144 73.2199 63.2203V63.1971C73.2199 62.8261 73.2895 62.4861 73.4209 62.177C73.5522 61.8679 73.7454 61.5974 74.0082 61.3656C74.2632 61.1338 74.58 60.9483 74.9509 60.8015C75.3219 60.6624 75.7546 60.5697 76.2337 60.5387V59.8201H77.5475V60.5774C78.0729 60.6392 78.5443 60.7474 78.9848 60.9174C79.4253 61.0874 79.8271 61.2961 80.2058 61.5588L79.1703 63.2434C78.9075 63.058 78.6371 62.9034 78.3434 62.7798C78.0498 62.6561 77.7638 62.5557 77.4779 62.4861V63.9467C77.9802 64.0626 78.4207 64.2017 78.7916 64.3562C79.1625 64.5108 79.4794 64.6962 79.7344 64.9126C79.9894 65.129 80.1749 65.384 80.2985 65.6777C80.4222 65.9713 80.484 66.3113 80.484 66.6977V66.7209C80.484 67.1073 80.4144 67.455 80.2676 67.7641C80.1208 68.0732 79.9199 68.336 79.6648 68.5678C79.4021 68.7919 79.093 68.9774 78.7221 69.1088C78.3589 69.2401 77.9493 69.3329 77.5088 69.3715V70.6079H76.1951V69.3483ZM76.2801 62.3779C75.971 62.4011 75.7469 62.4707 75.6155 62.5866C75.4842 62.7025 75.4223 62.8416 75.4223 63.0116V63.0348C75.4223 63.2048 75.4764 63.3362 75.5923 63.4444C75.7083 63.5525 75.9324 63.6453 76.2801 63.738V62.3779ZM77.4547 67.5323C78.0188 67.4705 78.297 67.2618 78.297 66.8909V66.8677C78.297 66.6977 78.2352 66.5586 78.1193 66.4504C78.0034 66.3422 77.7793 66.2418 77.4547 66.1491V67.5323Z" fill="#F9BE2C"/>
<path fill-rule="evenodd" clip-rule="evenodd" d="M81.9136 27.047L61.4352 10.046L40.9568 27.047H81.9136ZM68.0038 27.047H54.8667V41.7296H68.0038V27.047Z" fill="#0074AC"/>
<path d="M114.404 213.826C114.404 213.826 113.005 216.624 112.163 217.175C111.314 217.726 106.574 222.354 105.599 222.78C104.625 223.206 101.492 223.799 101.534 225.286C101.576 226.772 109.623 226.305 111.189 225.753C112.755 225.202 115.379 221.636 116.437 221.677C117.494 221.719 117.111 226.046 117.111 226.046H118.252C118.252 226.046 119.694 221.46 119.652 219.848C119.61 218.236 118.719 213.826 118.719 213.826H114.404Z" fill="#162D40"/>
<path d="M134.004 212.08C134.004 212.08 133.388 214.853 132.38 215.822C131.372 216.791 127.582 220.884 126.624 221.327C125.666 221.769 123.817 222.07 123.25 222.78C122.676 223.482 123.017 225.553 126.624 225.336C130.231 225.119 131.405 225.152 132.263 224.425C133.121 223.699 135.887 221.193 136.712 221.126V225.119H137.703C137.703 225.119 139.444 219.873 138.819 217.66C138.194 215.446 138.228 212.448 138.228 212.448L134.004 212.08Z" fill="#162D40"/>
<path d="M132.572 93.2973C132.572 93.2973 134.213 97.5404 132.938 100.823C132.938 100.823 138.969 100.439 139.194 99.7539C139.419 99.069 138.952 92.7043 139.777 90.8249C140.61 88.9539 132.572 93.2973 132.572 93.2973Z" fill="#EEA886"/>
<path d="M143.492 150.22C143.492 150.22 143.142 151.148 143.192 151.832C143.234 152.375 142.934 153.261 142.818 153.737C142.701 154.213 142.434 156.326 142.501 156.852C142.526 157.061 143.217 158.297 143.217 158.732C143.226 159.174 143.134 160.068 143.517 160.043C143.9 160.018 144.2 159.241 144.2 159.241C144.2 159.241 144.3 159.567 144.642 159.642C145.308 159.801 145.508 159.458 145.508 159.458C145.508 159.458 145.808 159.926 146.108 159.926C146.758 159.918 147.008 159.509 147.008 159.509C147.008 159.509 147.349 159.701 147.782 159.6C148.332 159.467 148.432 158.949 148.432 158.949C148.432 158.949 149.198 158.991 149.348 158.615C149.49 158.239 149.398 157.888 149.432 157.562C149.465 157.245 148.932 154.514 147.691 152.743C146.441 150.964 147.074 148.734 147.074 148.734L143.492 150.22Z" fill="#EEA886"/>
<path d="M144.067 158.999C144.067 158.999 143.584 156.552 144.125 155.892C144.667 155.232 144.892 156.101 144.892 156.101C144.892 156.101 144.659 155.24 145.325 154.973C145.991 154.706 146.2 155.742 146.2 155.742C146.2 155.742 146.2 155.04 146.949 155.023C147.699 155.007 147.674 155.9 147.674 155.9C147.674 155.9 148.224 154.906 148.815 155.616C149.806 156.827 149.357 158.607 149.357 158.607C149.357 158.607 149.207 159.024 148.482 158.991C148.482 158.991 148.182 160.043 147.033 159.584C147.033 159.584 146.075 160.411 145.525 159.534C145.525 159.542 144.459 160.369 144.067 158.999Z" fill="#DB9C7C"/>
<path d="M150.998 131.536C151.023 134.008 148.465 150.88 148.465 150.88L143.625 151.089C143.625 151.089 145.175 134.35 145.725 130.508C145.883 129.372 145.75 127.61 145.475 125.689C145.3 124.469 145.075 123.183 144.833 121.955C144.167 118.564 143.392 115.607 143.392 115.607C143.392 115.607 139.036 101.19 145.741 102.251C145.741 102.251 148.057 105.024 148.815 109.351C149.573 113.678 150.323 120.134 150.181 122.673C150.04 125.221 150.981 129.715 150.998 131.536Z" fill="#0075AD"/>
<path d="M131.989 99.3948C131.989 99.3948 128.423 100.631 126.816 100.973C125.208 101.316 121.834 102.878 122.109 108.733C122.384 114.597 123.384 119.675 123.75 122.198C124.117 124.72 123.883 131.126 123.292 134.242C123.292 134.242 131.83 136.347 141.876 134.242C141.876 134.242 140.094 128.93 140.144 127.56C140.185 126.19 146.083 114.872 146.358 113.093C146.633 111.306 147.816 103.429 145.125 101.692C142.426 99.9544 140.235 100.18 139.094 99.4031C137.961 98.6096 133.663 98.8351 131.989 99.3948Z" fill="#1BA4D8"/>
<path d="M82.9413 95.8408C83.0163 94.8555 83.9622 94.2461 83.9622 94.2461C84.2316 93.5015 85.2341 92.8196 85.2341 92.8196C85.241 92.7732 85.2565 92.7238 85.2634 92.6774C84.4233 92.2381 82.1602 91.6582 81.987 91.463C81.7732 91.2202 81.7995 91.1759 82.1323 90.8582C82.4021 90.5887 86.0679 91.4129 87.2934 91.7011C87.5928 91.7646 87.8382 91.838 87.8898 91.8553C88.2427 91.9794 88.8752 91.945 89.5048 92.2637C89.5693 92.2942 89.6466 92.3378 89.7132 92.3763C90.3936 92.8182 92.9279 97.3966 92.9279 97.3966L90.9676 99.0792L89.2817 101.494C89.2817 101.494 86.3105 100.438 85.5238 100.059C84.7264 99.6755 84.261 99.0799 84.0105 98.8411C83.9484 98.7834 83.8433 98.7054 83.7274 98.6223C83.3477 98.3579 82.7808 98.0263 82.7808 98.0263C82.4912 97.8186 82.1794 97.161 82.1794 97.161C82.042 96.5573 82.9413 95.8408 82.9413 95.8408Z" fill="#EFAA88"/>
<path d="M132.737 105.212C132.737 105.212 131.358 101.89 124.463 102.605C117.567 103.32 113.885 104.517 112.824 104.416C111.761 104.309 107.711 104.114 105.329 103.099C102.947 102.084 92.4908 98.9157 92.4908 98.9157L89.006 103.614C89.006 103.614 102.413 109.063 104.445 109.413C106.477 109.763 121.095 110.736 123.013 110.255C124.921 109.772 132.582 109.755 132.737 105.212Z" fill="#1BA4D8"/>
<path d="M123.3 134.234C123.3 134.234 121.751 137.917 121.609 138.844C121.476 139.771 116.603 151.924 116.27 155.483C115.928 159.074 114.904 168.672 114.537 170.041C114.171 171.411 115.362 177.55 115.545 178.92C115.728 180.298 115.637 202.734 113.996 213.818C113.996 213.818 117.827 215.463 120.751 213.818C120.751 213.818 125.591 196.511 125.316 186.529C125.041 176.548 123.783 172.338 125.324 168.304C126.865 164.278 135.912 152.183 136.828 150.905C137.744 149.619 143.467 142.536 138.044 134.86C132.622 127.184 123.3 134.234 123.3 134.234Z" fill="#1D3B54"/>
<path d="M142.001 167.026C141.518 170.233 142.026 174.443 143.026 186.17C144.034 197.889 141.268 212.089 141.268 212.089C137.794 213.283 133.804 212.089 133.804 212.089C133.896 211.262 133.804 183.514 133.804 181.042C133.804 178.569 133.096 175.763 132.913 172.923C132.788 170.994 131.888 167.427 130.88 163.785C130.581 162.699 130.264 161.597 129.964 160.536C129.789 159.943 129.623 159.358 129.464 158.79C128.04 153.846 126.132 134.751 126.132 134.751C126.132 134.751 136.736 126.19 141.893 134.25C147.057 142.311 144.4 148.174 144.225 149.176C144.034 150.17 142.484 163.819 142.001 167.026Z" fill="#1D3B54"/>
<path d="M122.476 119.241C122.476 119.241 123.192 133.666 119.768 141.976C119.768 141.976 131.072 145.752 145.658 141.976C145.658 141.976 142.534 131.636 142.784 130.057C143.034 128.479 148.499 110.253 146.816 105.968C145.133 101.683 124.158 105.718 122.476 119.241Z" fill="#1BA4D8"/>
<path d="M135.953 76.5836C133.413 76.2912 126.824 76.8174 127.324 86.7487C127.823 96.6884 131.43 96.087 135.046 95.0346C138.652 93.9821 142.942 86.2893 142.942 84.2262C142.942 82.1631 143.217 77.4105 135.953 76.5836Z" fill="#EEA886"/>
<path d="M127.69 82.205C127.69 82.205 130.556 85.8718 133.438 86.7489C133.438 86.7489 135.654 90.7247 139.527 91.7354C139.527 91.7354 147.782 83.8171 140.843 77.87C133.896 71.9146 127.64 79.1647 127.69 82.205Z" fill="#323657"/>
<path d="M132.896 85.3789C132.996 84.836 134.196 83.7334 135.121 84.9696C136.045 86.2058 134.354 89.0875 133.721 89.0875C133.08 89.0875 132.53 87.442 132.896 85.3789Z" fill="#EEA886"/>
<path d="M142.001 79.6573C142.209 79.3399 148.465 76.5167 149.765 82.422C151.064 88.3273 144.725 95.1932 143.617 98.15C142.509 101.107 143.617 108.106 143.617 108.106C143.617 108.106 140.302 104.506 139.152 100.823C137.886 96.7802 137.461 86.5816 142.001 79.6573Z" fill="#323657"/>
<path d="M137.611 149.803C137.528 149.987 132.247 161.739 130.889 163.777C130.589 162.691 130.273 161.588 129.973 160.528C129.973 160.528 137.428 150.062 137.611 149.803Z" fill="#162D40"/>
<defs>
<linearGradient id="paint0_linear" x1="175.896" y1="76.8532" x2="-42.6989" y2="76.8532" gradientUnits="userSpaceOnUse">
<stop stop-color="#EDF4FF"/>
<stop offset="1" stop-color="#EDFFFE"/>
</linearGradient>
</defs>
</svg>
