<svg width="204" height="139" viewBox="0 0 204 139" fill="none" xmlns="http://www.w3.org/2000/svg">
<path d="M201.558 138.305H2.06249C0.930144 138.305 0 137.375 0 136.242C0 135.11 0.930144 134.18 2.06249 134.18H201.558C202.691 134.18 203.621 135.11 203.621 136.242C203.621 137.375 202.691 138.305 201.558 138.305Z" fill="#DAE8F7"/>
<path d="M9.77596 136.247H53.2905L53.2905 87.3943H9.77596L9.77596 136.247Z" fill="#B9D5EF"/>
<path d="M21.498 136.247H54.417L54.417 87.3943H21.498L21.498 136.247Z" fill="#D4E5F8"/>
<path d="M24.943 103.9H51.1892V92.6578H24.943V103.9Z" fill="#B9D5EF"/>
<path d="M26.5204 102.161H49.5718V94.3968H26.5204V102.161Z" stroke="#A0C5E0" stroke-width="0.8857" stroke-miterlimit="10"/>
<path d="M36.3159 98.3085C36.3159 99.2791 37.0843 100.047 38.0549 100.047C39.0255 100.047 39.7939 99.2791 39.7939 98.3085C39.7939 97.338 39.0255 96.5696 38.0549 96.5696C37.0843 96.5696 36.3159 97.338 36.3159 98.3085Z" fill="#84B0D1"/>
<path d="M24.943 117.86H51.1892V106.617H24.943V117.86Z" fill="#B9D5EF"/>
<path d="M26.5204 116.121H49.5718V108.356H26.5204V116.121Z" stroke="#A0C5E0" stroke-width="0.8857" stroke-miterlimit="10"/>
<path d="M36.3159 112.22C36.3159 113.191 37.0843 113.959 38.0549 113.959C39.0255 113.959 39.7939 113.191 39.7939 112.22C39.7939 111.25 39.0255 110.481 38.0549 110.481C37.0843 110.522 36.3159 111.29 36.3159 112.22Z" fill="#84B0D1"/>
<path d="M24.943 131.778H51.1892V120.536H24.943V131.778Z" fill="#B9D5EF"/>
<path d="M26.5204 130.04H49.5718V122.275H26.5204V130.04Z" stroke="#A0C5E0" stroke-width="0.8857" stroke-miterlimit="10"/>
<path d="M36.3159 126.172C36.3159 127.143 37.0843 127.911 38.0549 127.911C39.0255 127.911 39.7939 127.143 39.7939 126.172C39.7939 125.202 39.0255 124.433 38.0549 124.433C37.0843 124.433 36.3159 125.202 36.3159 126.172Z" fill="#84B0D1"/>
<path d="M31.2204 118.893C30.5733 120.025 29.441 120.308 28.2278 120.672C24.7498 121.683 21.0293 121.764 17.5109 120.915C16.9447 120.794 16.3381 120.591 16.055 120.066C15.7719 119.58 16.0955 118.731 16.6616 118.812C15.8528 118.327 15.044 117.801 14.5183 117.033C14.1947 116.547 13.9925 115.9 14.033 115.294C14.0734 114.97 14.1543 114.687 14.316 114.404C14.8418 113.636 16.1763 113.474 16.6616 114.242C16.5403 113.272 16.4594 112.261 16.6616 111.33C16.9043 110.36 17.4705 109.47 18.3602 109.066C19.4116 108.58 20.7057 108.944 21.5954 109.632C22.4851 110.36 23.0513 111.411 23.5366 112.463C23.9815 111.411 24.669 110.36 25.68 109.834C26.691 109.308 28.1064 109.389 28.8344 110.279C29.1579 110.683 29.3197 111.25 29.4006 111.775C29.4006 111.856 29.441 111.937 29.441 112.018C29.6028 113.191 29.4814 114.444 29.077 115.577C29.4006 115.172 30.0476 114.97 30.5733 115.172C31.9888 115.779 31.827 117.801 31.2204 118.893Z" fill="#77951E"/>
<path opacity="0.45" d="M31.2204 118.893C30.5733 120.025 29.441 120.308 28.2278 120.672C24.7498 121.683 21.0293 121.764 17.5109 120.915C16.9447 120.794 16.3381 120.592 16.055 120.066C15.7719 119.581 16.0955 118.731 16.6616 118.812C15.8528 118.327 15.044 117.801 14.5183 117.033C14.1947 116.547 13.9925 115.9 14.033 115.294C14.2352 115.617 14.3969 115.9 14.5587 116.143C15.1653 116.871 15.9741 117.478 16.8638 117.882C17.3087 118.084 17.7535 118.246 18.2388 118.165C18.7241 118.084 19.169 117.761 19.2499 117.275C19.4521 118.044 20.3013 118.61 21.1101 118.569C21.919 118.489 22.6469 117.801 22.6873 116.992C23.3748 117.356 24.305 117.275 24.9116 116.79C25.5587 116.305 25.8822 115.456 25.7204 114.687C26.2462 115.334 27.3381 115.132 28.0256 114.606C28.8344 114 29.3601 113.029 29.5219 112.058C29.6836 113.231 29.5623 114.485 29.1579 115.617C29.4814 115.213 30.1285 115.011 30.6542 115.213C31.9888 115.779 31.827 117.801 31.2204 118.893Z" fill="#4C5E0D"/>
<path d="M30.9374 119.742H16.3381V122.735H30.9374V119.742Z" fill="#599FC6"/>
<path d="M29.3601 122.735H17.9153L19.5329 135.959H27.7425L29.3601 122.735Z" fill="#599FC6"/>
<path d="M29.3601 122.735H17.9153L18.2388 125.242H29.0366L29.3601 122.735Z" fill="#4887AB"/>
<path opacity="0.45" d="M16.6614 113.959C16.7018 113.959 16.7827 113.959 16.8231 113.959C17.1062 114.323 17.3893 114.687 17.6724 115.051C17.8342 115.253 18.0364 115.496 18.3194 115.536C18.6025 115.536 18.8452 115.334 19.0474 115.091C19.654 115.375 20.3415 115.496 20.9886 115.375C21.393 115.294 21.7569 115.172 22.04 114.889C22.3231 114.606 22.404 114.161 22.2422 113.797C21.9591 114.283 21.4739 114.647 20.9077 114.727C20.3415 114.808 19.7349 114.606 19.3305 114.242C19.29 114.202 19.2092 114.121 19.1687 114.121C19.1283 114.121 19.0474 114.161 19.0069 114.202C18.4812 114.566 17.7128 114.283 17.3084 113.797C16.904 113.312 16.7422 112.665 16.6209 112.018C16.4187 112.746 16.4996 113.191 16.6614 113.959Z" fill="#4C5E0D"/>
<path d="M19.4117 110.4C19.4117 110.562 19.2499 110.724 19.0882 110.724C18.9264 110.724 18.7646 110.562 18.7646 110.4C18.7646 110.239 18.9264 110.077 19.0882 110.077C19.2499 110.077 19.4117 110.198 19.4117 110.4Z" fill="#FFC55A"/>
<path d="M26.7718 112.341C26.7718 112.503 26.61 112.665 26.4483 112.665C26.2865 112.665 26.1248 112.503 26.1248 112.341C26.1248 112.18 26.2865 112.018 26.4483 112.018C26.61 112.018 26.7718 112.18 26.7718 112.341Z" fill="#FFC55A"/>
<path d="M15.9336 115.213C15.9336 115.375 15.8123 115.496 15.6505 115.496C15.4888 115.496 15.3674 115.375 15.3674 115.213C15.3674 115.051 15.4888 114.93 15.6505 114.93C15.8123 114.93 15.9336 115.051 15.9336 115.213Z" fill="#FFC55A"/>
<path d="M25.8013 110.967C25.8683 110.967 25.9226 110.912 25.9226 110.845C25.9226 110.778 25.8683 110.724 25.8013 110.724C25.7342 110.724 25.6799 110.778 25.6799 110.845C25.6799 110.912 25.7342 110.967 25.8013 110.967Z" fill="#FFC55A"/>
<path d="M24.4668 114.161C24.5338 114.161 24.5881 114.107 24.5881 114.04C24.5881 113.973 24.5338 113.919 24.4668 113.919C24.3998 113.919 24.3455 113.973 24.3455 114.04C24.3455 114.107 24.3998 114.161 24.4668 114.161Z" fill="#FFC55A"/>
<path d="M17.3088 115.9C17.3088 115.981 17.2684 116.022 17.1875 116.022C17.1066 116.022 17.0662 115.981 17.0662 115.9C17.0662 115.819 17.1066 115.779 17.1875 115.779C17.2684 115.739 17.3088 115.819 17.3088 115.9Z" fill="#FFC55A"/>
<path d="M21.5146 115.9C21.5146 115.981 21.4742 116.022 21.3933 116.022C21.3124 116.022 21.272 115.981 21.272 115.9C21.272 115.819 21.3124 115.779 21.3933 115.779C21.4742 115.779 21.5146 115.819 21.5146 115.9Z" fill="#FFC55A"/>
<path d="M20.8676 111.088C20.8676 111.169 20.8272 111.209 20.7463 111.209C20.6654 111.209 20.625 111.169 20.625 111.088C20.625 111.007 20.6654 110.966 20.7463 110.966C20.8272 110.966 20.8676 111.047 20.8676 111.088Z" fill="#FFC55A"/>
<path d="M19.1286 112.463C19.1957 112.463 19.25 112.409 19.25 112.342C19.25 112.275 19.1957 112.22 19.1286 112.22C19.0616 112.22 19.0073 112.275 19.0073 112.342C19.0073 112.409 19.0616 112.463 19.1286 112.463Z" fill="#FFC55A"/>
<path d="M27.5808 111.25C27.5808 111.33 27.5403 111.371 27.4595 111.371C27.3786 111.371 27.3381 111.33 27.3381 111.25C27.3381 111.169 27.3786 111.128 27.4595 111.128C27.5403 111.088 27.5808 111.169 27.5808 111.25Z" fill="#FFC55A"/>
<path d="M26.4887 70.1615C25.8417 71.2938 24.7093 71.5769 23.4961 71.9409C20.0181 72.9519 16.2976 73.0328 12.7792 72.1835C12.213 72.0622 11.6064 71.86 11.3233 71.3343C11.0402 70.849 11.3638 69.9997 11.9299 70.0806C11.1211 69.5953 10.3123 69.0696 9.78656 68.3012C9.46303 67.8159 9.26083 67.1688 9.30127 66.5622C9.34171 66.2387 9.42259 65.9556 9.58436 65.6725C10.1101 64.9041 11.4446 64.7424 11.9299 65.5107C11.8086 64.5402 11.7277 63.5291 11.9299 62.599C12.1726 61.6284 12.7388 60.7387 13.6285 60.3343C14.6799 59.849 15.974 60.213 16.8637 60.9005C17.7534 61.6284 18.3196 62.6799 18.8049 63.7313C19.2498 62.6799 19.9373 61.6284 20.9483 61.1027C21.9593 60.5769 23.3748 60.6578 24.1027 61.5475C24.4262 61.9519 24.588 62.5181 24.6689 63.0438C24.6689 63.1247 24.7093 63.2056 24.7093 63.2865C24.8711 64.4593 24.7497 65.713 24.3453 66.8453C24.6689 66.4409 25.3159 66.2387 25.8417 66.4409C27.2571 67.0475 27.0953 69.0696 26.4887 70.1615Z" fill="#B9D5EF"/>
<path opacity="0.45" d="M26.4887 70.1616C25.8417 71.2939 24.7093 71.577 23.4961 71.941C20.0181 72.952 16.2976 73.0329 12.7792 72.1836C12.213 72.0623 11.6064 71.8601 11.3233 71.3344C11.0402 70.8491 11.3638 69.9998 11.9299 70.0807C11.1211 69.5954 10.3123 69.0697 9.78656 68.3013C9.46303 67.816 9.26083 67.1689 9.30127 66.5623C9.50348 66.8858 9.66524 67.1689 9.827 67.4116C10.4336 68.1395 11.2424 68.7461 12.1321 69.1505C12.577 69.3527 13.0218 69.5145 13.5071 69.4336C13.9924 69.3527 14.4373 69.0292 14.5182 68.5439C14.7204 69.3123 15.5696 69.8785 16.3785 69.838C17.1873 69.7572 17.9152 69.0697 17.9557 68.2608C18.6432 68.6248 19.5733 68.5439 20.1799 68.0586C20.827 67.5733 21.1505 66.7241 20.9887 65.9557C21.5145 66.6028 22.6064 66.4005 23.2939 65.8748C24.1027 65.2682 24.6284 64.2976 24.7902 63.327C24.952 64.4998 24.8306 65.7535 24.4262 66.8858C24.7497 66.4814 25.3968 66.2792 25.9225 66.4814C27.2571 67.0476 27.0953 69.0697 26.4887 70.1616Z" fill="#B9D5EF"/>
<path d="M26.2057 71.0109H11.6064V74.0035H26.2057V71.0109Z" fill="#B9D5EF"/>
<path d="M24.6287 74.0033H13.1838L14.8015 87.2275H23.011L24.6287 74.0033Z" fill="#B9D5EF"/>
<path d="M24.6287 74.0033H13.1838L13.5074 76.5106H24.3051L24.6287 74.0033Z" fill="#B9D5EF"/>
<path opacity="0.45" d="M11.93 65.2277C11.9704 65.2277 12.0513 65.2277 12.0917 65.2277C12.3748 65.5916 12.6579 65.9556 12.941 66.3196C13.1028 66.5218 13.305 66.7644 13.5881 66.8049C13.8711 66.8049 14.1138 66.6027 14.316 66.36C14.9226 66.6431 15.6101 66.7644 16.2572 66.6431C16.6616 66.5622 17.0255 66.4409 17.3086 66.1578C17.5917 65.8747 17.6726 65.4299 17.5108 65.0659C17.2277 65.5512 16.7425 65.9152 16.1763 65.9961C15.6101 66.0769 15.0035 65.8747 14.5991 65.5108C14.5586 65.4703 14.4778 65.3894 14.4373 65.3894C14.3969 65.3894 14.316 65.4299 14.2756 65.4703C13.7498 65.8343 12.9814 65.5512 12.577 65.0659C12.1726 64.5806 12.0109 63.9336 11.8895 63.2865C11.6873 64.0144 11.7278 64.4593 11.93 65.2277Z" fill="#B9D5EF"/>
<path d="M14.68 61.669C14.68 61.8307 14.5183 61.9925 14.3565 61.9925C14.1947 61.9925 14.033 61.8307 14.033 61.669C14.033 61.5072 14.1947 61.3455 14.3565 61.3455C14.5587 61.3455 14.68 61.4668 14.68 61.669Z" fill="#B9D5EF"/>
<path d="M22.0401 63.61C22.0401 63.7718 21.8784 63.9336 21.7166 63.9336C21.5548 63.9336 21.3931 63.7718 21.3931 63.61C21.3931 63.4483 21.5548 63.2865 21.7166 63.2865C21.8784 63.2865 22.0401 63.4483 22.0401 63.61Z" fill="#B9D5EF"/>
<path d="M11.2022 66.4813C11.2022 66.6431 11.0808 66.7644 10.9191 66.7644C10.7573 66.7644 10.636 66.6431 10.636 66.4813C10.636 66.3196 10.7573 66.1982 10.9191 66.1982C11.0808 66.1982 11.2022 66.3196 11.2022 66.4813Z" fill="#B9D5EF"/>
<path d="M21.2317 62.1138C21.2317 62.1947 21.1912 62.2351 21.1103 62.2351C21.0295 62.2351 20.989 62.1947 20.989 62.1138C20.989 62.0329 21.0295 61.9924 21.1103 61.9924C21.1508 61.952 21.2317 62.0329 21.2317 62.1138Z" fill="#B9D5EF"/>
<path d="M19.8567 65.3086C19.8567 65.3895 19.8162 65.4299 19.7353 65.4299C19.6545 65.4299 19.614 65.3895 19.614 65.3086C19.614 65.2277 19.6545 65.1873 19.7353 65.1873C19.7758 65.1873 19.8567 65.2681 19.8567 65.3086Z" fill="#B9D5EF"/>
<path d="M12.5771 67.1688C12.5771 67.2497 12.5367 67.2901 12.4558 67.2901C12.3749 67.2901 12.3345 67.2497 12.3345 67.1688C12.3345 67.0879 12.3749 67.0475 12.4558 67.0475C12.4962 67.0071 12.5771 67.0879 12.5771 67.1688Z" fill="#B9D5EF"/>
<path d="M16.7424 67.1688C16.7424 67.2497 16.702 67.2901 16.6211 67.2901C16.5402 67.2901 16.4998 67.2497 16.4998 67.1688C16.4998 67.0879 16.5402 67.0475 16.6211 67.0475C16.702 67.0071 16.7424 67.0879 16.7424 67.1688Z" fill="#B9D5EF"/>
<path d="M16.136 62.3563C16.136 62.4372 16.0955 62.4776 16.0146 62.4776C15.9338 62.4776 15.8933 62.4372 15.8933 62.3563C15.8933 62.2754 15.9338 62.235 16.0146 62.235C16.0955 62.235 16.136 62.3159 16.136 62.3563Z" fill="#B9D5EF"/>
<path d="M14.5183 63.6101C14.5183 63.691 14.4778 63.7314 14.397 63.7314C14.3161 63.7314 14.2756 63.691 14.2756 63.6101C14.2756 63.5292 14.3161 63.4888 14.397 63.4888C14.4374 63.4888 14.5183 63.5292 14.5183 63.6101Z" fill="#B9D5EF"/>
<path d="M22.8488 62.5181C22.8488 62.5989 22.8084 62.6394 22.7275 62.6394C22.6466 62.6394 22.6062 62.5989 22.6062 62.5181C22.6062 62.4372 22.6466 62.3967 22.7275 62.3967C22.8084 62.3967 22.8488 62.4372 22.8488 62.5181Z" fill="#B9D5EF"/>
<path d="M183.441 118.893C182.794 120.025 181.661 120.308 180.448 120.672C176.97 121.683 173.25 121.764 169.731 120.915C169.165 120.794 168.559 120.591 168.275 120.066C167.992 119.58 168.316 118.731 168.882 118.812C168.073 118.327 167.264 117.801 166.739 117.033C166.415 116.547 166.213 115.9 166.253 115.294C166.294 114.97 166.375 114.687 166.537 114.404C167.062 113.636 168.397 113.474 168.882 114.242C168.761 113.272 168.68 112.261 168.882 111.33C169.125 110.36 169.691 109.47 170.581 109.066C171.632 108.58 172.926 108.944 173.816 109.632C174.706 110.36 175.272 111.411 175.757 112.463C176.202 111.411 176.889 110.36 177.9 109.834C178.911 109.308 180.327 109.389 181.055 110.279C181.378 110.683 181.54 111.25 181.621 111.775C181.621 111.856 181.661 111.937 181.661 112.018C181.823 113.191 181.702 114.444 181.297 115.577C181.621 115.172 182.268 114.97 182.794 115.172C184.209 115.779 184.047 117.801 183.441 118.893Z" fill="#77951E"/>
<path opacity="0.45" d="M183.441 118.893C182.794 120.025 181.661 120.308 180.448 120.672C176.97 121.683 173.249 121.764 169.731 120.915C169.165 120.794 168.558 120.592 168.275 120.066C167.992 119.581 168.316 118.731 168.882 118.812C168.073 118.327 167.264 117.801 166.738 117.033C166.415 116.547 166.213 115.9 166.253 115.294C166.455 115.617 166.617 115.9 166.779 116.143C167.386 116.871 168.194 117.478 169.084 117.882C169.529 118.084 169.974 118.246 170.459 118.165C170.944 118.084 171.389 117.761 171.47 117.275C171.672 118.044 172.522 118.61 173.33 118.569C174.139 118.489 174.867 117.801 174.908 116.992C175.595 117.356 176.525 117.275 177.132 116.79C177.779 116.305 178.102 115.456 177.941 114.687C178.466 115.334 179.558 115.132 180.246 114.606C181.055 114 181.58 113.029 181.742 112.058C181.904 113.231 181.783 114.485 181.378 115.617C181.702 115.213 182.349 115.011 182.874 115.213C184.209 115.779 184.047 117.801 183.441 118.893Z" fill="#4C5E0D"/>
<path d="M183.157 119.742H168.558V122.735H183.157V119.742Z" fill="#599FC6"/>
<path d="M181.58 122.735H170.135L171.753 135.959H179.962L181.58 122.735Z" fill="#599FC6"/>
<path d="M181.58 122.735H170.135L170.459 125.242H181.257L181.58 122.735Z" fill="#4887AB"/>
<path opacity="0.45" d="M168.882 113.959C168.922 113.959 169.003 113.959 169.043 113.959C169.326 114.323 169.61 114.687 169.893 115.051C170.054 115.253 170.257 115.496 170.54 115.536C170.823 115.536 171.065 115.334 171.268 115.091C171.874 115.375 172.562 115.496 173.209 115.375C173.613 115.294 173.977 115.172 174.26 114.889C174.543 114.606 174.624 114.161 174.462 113.797C174.179 114.283 173.694 114.647 173.128 114.727C172.562 114.808 171.955 114.606 171.551 114.242C171.51 114.202 171.429 114.121 171.389 114.121C171.349 114.121 171.268 114.161 171.227 114.202C170.701 114.566 169.933 114.283 169.529 113.797C169.124 113.312 168.963 112.665 168.841 112.018C168.639 112.746 168.679 113.191 168.882 113.959Z" fill="#4C5E0D"/>
<path d="M171.632 110.4C171.632 110.562 171.47 110.724 171.308 110.724C171.146 110.724 170.985 110.562 170.985 110.4C170.985 110.239 171.146 110.077 171.308 110.077C171.51 110.077 171.632 110.198 171.632 110.4Z" fill="#FFC55A"/>
<path d="M178.992 112.341C178.992 112.503 178.83 112.665 178.669 112.665C178.507 112.665 178.345 112.503 178.345 112.341C178.345 112.18 178.507 112.018 178.669 112.018C178.83 112.018 178.992 112.18 178.992 112.341Z" fill="#FFC55A"/>
<path d="M168.154 115.213C168.154 115.375 168.032 115.496 167.87 115.496C167.709 115.496 167.587 115.375 167.587 115.213C167.587 115.051 167.709 114.93 167.87 114.93C168.032 114.93 168.154 115.051 168.154 115.213Z" fill="#FFC55A"/>
<path d="M178.183 110.845C178.183 110.926 178.143 110.967 178.062 110.967C177.981 110.967 177.94 110.926 177.94 110.845C177.94 110.764 177.981 110.724 178.062 110.724C178.102 110.683 178.183 110.764 178.183 110.845Z" fill="#FFC55A"/>
<path d="M176.687 114.161C176.754 114.161 176.808 114.107 176.808 114.04C176.808 113.973 176.754 113.919 176.687 113.919C176.62 113.919 176.565 113.973 176.565 114.04C176.565 114.107 176.62 114.161 176.687 114.161Z" fill="#FFC55A"/>
<path d="M169.529 115.9C169.529 115.981 169.488 116.022 169.407 116.022C169.327 116.022 169.286 115.981 169.286 115.9C169.286 115.819 169.327 115.779 169.407 115.779C169.448 115.739 169.529 115.819 169.529 115.9Z" fill="#FFC55A"/>
<path d="M173.694 115.9C173.694 115.981 173.654 116.022 173.573 116.022C173.492 116.022 173.451 115.981 173.451 115.9C173.451 115.819 173.492 115.779 173.573 115.779C173.654 115.739 173.694 115.819 173.694 115.9Z" fill="#FFC55A"/>
<path d="M173.088 111.088C173.088 111.169 173.047 111.209 172.966 111.209C172.885 111.209 172.845 111.169 172.845 111.088C172.845 111.007 172.885 110.966 172.966 110.966C173.047 110.966 173.088 111.047 173.088 111.088Z" fill="#FFC55A"/>
<path d="M171.308 112.463C171.375 112.463 171.429 112.409 171.429 112.342C171.429 112.275 171.375 112.22 171.308 112.22C171.241 112.22 171.187 112.275 171.187 112.342C171.187 112.409 171.241 112.463 171.308 112.463Z" fill="#FFC55A"/>
<path d="M179.801 111.25C179.801 111.33 179.76 111.371 179.679 111.371C179.599 111.371 179.558 111.33 179.558 111.25C179.558 111.169 179.599 111.128 179.679 111.128C179.76 111.088 179.801 111.169 179.801 111.25Z" fill="#FFC55A"/>
<path d="M87.7571 78.8159L106.441 0.724243H166.213L147.529 78.8159H87.7571Z" fill="#CADBEF"/>
<path d="M146.922 78.0474H88.7681L107.047 1.49255H165.242L146.922 78.0474Z" fill="white"/>
<path d="M136.124 78.0475H98.3525V81.121H136.124V78.0475Z" fill="#86B1CE"/>
<path d="M88.8893 137.536H85.9775L100.698 78.0475H103.65L88.8893 137.536Z" fill="#86B1CE"/>
<path d="M132.849 78.0475H129.896L144.657 137.536H147.61L132.849 78.0475Z" fill="#86B1CE"/>
<mask id="mask0" mask-type="alpha" maskUnits="userSpaceOnUse" x="88" y="1" width="77" height="77">
<path d="M146.154 77.5549H88L106.279 1H164.474L146.154 77.5549Z" fill="white"/>
</mask>
<g mask="url(#mask0)">
<path d="M104.257 63.8527C105.713 65.2681 107.978 65.4299 109.919 66.0769C114.529 67.6137 117.764 72.507 117.36 77.3195C117.198 79.1798 116.632 81.2019 117.603 82.7791C118.209 83.7497 119.382 84.3158 120.029 85.2864C121.404 87.268 120.069 90.2202 117.926 91.3526C115.783 92.4849 113.235 92.2827 110.808 91.9187C103.489 90.8268 96.3306 88.5217 89.7387 85.1246C87.7975 84.1136 85.735 82.9004 84.9667 80.8379C84.5218 79.7056 84.5623 78.4519 84.6027 77.2386C85.0071 66.8453 86.7461 52.5696 94.1872 44.5218C103.246 34.7756 100.9 60.6174 104.257 63.8527Z" fill="#AEB4FF"/>
<path d="M165.565 31.8233C168.437 31.2572 172.521 29.4373 169.246 26.4851C167.628 25.0293 165.485 25.7167 163.503 25.7572C157.639 25.8381 151.694 25.6359 147.246 30.2461C145.102 32.4704 143.849 35.4226 142.11 38.0108C139.562 41.8123 135.841 44.8049 131.635 46.5439C127.915 48.0806 123.264 49.0917 121.646 52.7718C120.514 55.36 121.202 58.7166 119.26 60.7387C117.926 62.1137 115.823 62.3159 114.003 62.9225C109.393 64.4593 106.238 69.2717 106.198 74.1247C106.198 78.9776 109.15 83.6283 113.356 86.0548C116.43 87.7938 119.988 88.4408 123.466 89.0474C131.312 90.4224 139.521 91.757 147.043 89.1687C153.554 86.9445 158.812 81.9702 163.099 76.5916C168.275 70.121 172.481 62.6799 173.775 54.5108C175.069 46.3417 173.087 37.4042 167.345 31.4594" fill="#B9D5EF"/>
<path d="M120.757 8.77201C122.172 10.8345 124.356 12.4926 124.801 14.9595C125.65 19.9337 118.614 23.7756 119.746 28.7094C120.434 31.783 124.316 33.2388 127.308 32.3896C130.342 31.5403 132.606 29.033 134.426 26.4852C136.246 23.9374 137.823 21.1065 140.25 19.1249C144.779 15.3639 151.492 15.0404 155.819 11.0367C158.731 8.32716 160.106 4.40438 161.36 0.602918C162.128 -1.70222 162.897 -4.33089 161.764 -6.51471C160.996 -7.97058 159.5 -8.90073 158.044 -9.62867C149.672 -13.9559 139.562 -14.8051 130.544 -12.0147C123.062 -9.70955 115.621 1.16909 120.757 8.77201Z" fill="#D9E8FF"/>
<path d="M126.217 7.35653C126.014 7.19477 125.812 7.07345 125.65 6.95212C125.57 6.99257 125.61 6.99257 125.529 7.03301C125.691 7.63962 126.257 8.08447 126.136 8.77197C125.974 9.82344 125.61 10.7536 124.842 11.4815C124.073 12.2499 123.062 11.6028 122.981 10.6727C122.941 10.2278 122.981 9.783 123.022 9.2977C123.345 9.33815 123.547 9.33815 123.75 9.37859C123.79 9.2977 123.79 9.29771 123.79 9.25727C123.628 9.0955 123.426 8.97417 123.224 8.81241C123.467 8.24624 123.709 7.63962 123.992 7.03301C124.518 6.99257 124.397 6.74992 124.195 6.46683C124.397 5.0514 124.599 3.55508 124.761 2.0992C124.842 1.33082 124.518 0.643322 124.154 -0.00373459C123.467 -1.17653 122.86 -2.38976 122.092 -3.52211C122.375 -1.62138 122.132 0.198469 120.878 1.73523C120.636 1.73523 120.474 1.61391 120.272 1.77567C120.353 1.89699 120.434 2.01832 120.555 2.18008C119.746 3.39331 118.209 3.75728 116.834 3.83817C116.025 3.91905 116.268 3.43375 115.742 3.15067C115.742 3.27199 115.742 3.35287 115.742 3.47419C114.65 2.9889 112.548 -0.610352 114.893 -0.52947C117.198 -0.165501 116.47 -0.731674 117.077 0.966848C117.441 0.683762 117.32 0.27935 117.441 -0.125059C119.059 0.400675 119.786 -0.489029 120.231 -1.86402C120.474 -1.78314 120.676 -1.70226 120.878 -1.62138C120.231 -2.87505 120.757 -4.2096 120.797 -5.54416C120.474 -7.08092 119.382 -8.45591 118.775 -9.91179C118.331 -10.8419 117.926 -11.7721 117.441 -12.6213C117.4 -11.5699 117.4 -10.5588 117.36 -9.46694C117.036 -9.54782 116.632 -9.4265 116.915 -9.10297C117.198 -8.90076 117.158 -8.65812 117.036 -8.41547C116.672 -7.48533 116.349 -6.55518 115.985 -5.62504C115.459 -5.94857 115.014 -6.19121 114.529 -6.4743C114.448 -6.35298 114.489 -6.39342 114.408 -6.2721C114.812 -5.94857 115.257 -5.62504 115.742 -5.26107C114.853 -3.88608 113.356 -1.25741 113.478 -4.85666C113.639 -4.73534 113.761 -4.61401 113.882 -4.53313C113.923 -4.57357 113.923 -4.61401 113.963 -4.65446C113.842 -5.18019 113.397 -5.38239 113.599 -5.94857C113.842 -6.79783 114.084 -7.68753 114.327 -8.57724C114.61 -8.37503 114.812 -8.21327 115.014 -8.0515C115.095 -8.09194 115.095 -8.09194 115.136 -8.13239C115.136 -8.61768 114.57 -9.02209 114.853 -9.4265C115.904 -11.0441 116.066 -12.9044 116.349 -14.7647C116.349 -14.886 116.349 -15.0882 116.268 -15.1287C115.742 -15.4522 116.025 -16.0588 115.783 -16.5037C115.54 -16.9485 115.459 -17.4743 115.297 -17.9596C115.338 -17.9596 115.378 -18 115.378 -18C115.783 -17.3934 116.187 -15.5331 116.875 -15.4927C117.441 -15.4118 117.967 -15.2905 118.533 -15.1287C118.775 -15.0074 118.897 -14.6838 119.059 -14.4412C119.139 -14.4412 119.139 -14.4412 119.18 -14.4816C119.22 -14.6838 119.261 -14.886 119.301 -15.0882C123.062 -14.9669 122.456 -12.0552 120.797 -13.3897C120.757 -13.1471 120.676 -13.0258 120.717 -12.7831C119.342 -12.8235 118.25 -13.5515 117.117 -14.2794C117.603 -13.0662 118.25 -11.9338 118.775 -10.7206C119.22 -10.1544 119.989 -9.91179 120.514 -9.46694C122.132 -8.81988 121.647 -7.44489 122.658 -7.72797L122.172 -8.77944C123.386 -8.45591 124.437 -8.86032 125.529 -9.02209C126.095 -9.10297 126.176 -8.33459 126.54 -8.0515C126.621 -8.09194 126.581 -8.09194 126.661 -8.13239C126.581 -8.45591 126.5 -8.739 126.419 -9.10297C128.077 -9.26473 130.261 -7.64709 128.36 -6.2721C127.592 -5.82725 126.742 -5.74636 125.893 -5.7868C125.61 -5.90813 125.408 -6.35298 125.206 -6.59562C125.125 -6.55518 125.125 -6.55518 125.044 -6.55518C125.084 -6.31254 125.125 -6.06989 125.165 -5.82725C123.386 -5.86769 121.809 -6.43386 120.434 -7.52577C120.393 -7.48533 120.353 -7.48533 120.353 -7.44489C121.081 -5.66548 122.172 -3.96696 123.143 -2.26843C123.426 -1.7427 123.426 -1.78314 123.952 -2.02579C124.518 -2.14711 125.489 -2.71329 125.772 -1.94491C125.853 -1.7427 125.974 -1.58094 126.095 -1.37873C126.176 -1.37873 126.136 -1.37873 126.217 -1.41917C126.217 -1.62138 126.217 -1.78314 126.217 -1.94491C126.945 -1.82358 127.632 -1.70226 128.36 -1.54049C128.764 -1.33829 128.683 -0.772114 128.805 -0.408146C128.926 -0.408146 128.886 -0.408146 128.967 -0.408146C129.007 -0.731674 129.047 -1.09564 129.088 -1.45961C135.033 -1.33829 135.397 3.15067 131.878 2.46317C131.353 2.22052 131.433 1.4117 130.827 1.24994C130.786 1.29038 130.786 1.33082 130.746 1.33082C130.867 1.61391 130.948 1.93743 131.11 2.3014C129.978 1.89699 129.128 1.57347 128.036 1.24994C127.511 1.16905 127.753 0.400675 127.592 -0.00373459C127.511 -0.00373459 127.43 -0.00373459 127.389 -0.00373459C127.389 0.319794 127.349 0.643322 127.349 0.926409C126.378 0.724203 124.558 -0.0846176 123.709 -1.54049C123.628 -1.01476 124.599 -0.0037365 124.842 0.562439C125.731 2.38229 126.459 4.24257 127.308 6.06242C127.551 6.6286 127.551 6.58815 128.158 6.54771C128.724 6.50727 129.29 6.38595 129.856 6.50727C131.878 6.74992 133.658 8.00359 135.72 8.04403C135.761 8.36756 135.801 8.65065 135.842 8.93373C135.922 8.93373 135.922 8.93373 136.003 8.97418C136.125 8.77197 136.206 8.52933 136.327 8.28668C137.419 8.65065 139.926 11.158 137.702 11.6837C136.165 12.0073 134.992 10.8749 133.779 10.147C133.253 9.82344 132.647 9.58079 132.081 9.2977C130.503 9.783 129.128 8.73153 127.996 7.76094C128.481 9.01462 128.926 10.2683 129.573 11.4006C129.614 12.3712 130.099 13.18 130.463 14.0697C130.867 14.4742 131.717 14.3933 132.283 14.4742C132.444 14.4742 132.566 14.3124 132.728 14.3124C133.415 14.3528 134.062 14.3933 134.75 14.4337C135.275 14.4337 135.114 14.8786 135.397 15.2425C135.518 15.0808 135.558 14.9999 135.639 14.8786C136.084 15.0808 136.529 15.6065 136.327 16.1322C136.003 16.7793 134.831 16.4153 134.224 16.4153C134.022 16.3749 133.86 16.1322 133.658 16.0918C133.496 16.0514 133.253 16.1727 133.132 16.1322C132.485 15.8896 131.878 15.5256 131.393 14.9999C131.272 14.8786 131.07 14.8381 130.867 14.7977C131.11 15.3639 131.272 15.93 131.717 16.3749C132.687 17.2646 133.253 18.3969 133.739 19.6102C133.658 19.6911 133.536 19.7719 133.456 19.8528C134.992 20.6212 134.183 23.533 132.525 20.4999C131.191 17.9925 130.827 15.2425 129.533 12.6948C129.331 13.9484 129.492 15.2021 128.845 16.2536C128.279 16.1322 128.239 16.2131 128.32 16.7389C128.32 16.8602 128.279 16.9815 128.198 17.0624C127.511 17.7903 126.823 18.5587 126.136 19.2866C125.367 20.1763 124.478 19.6102 124.922 18.5587C125.165 18.0734 125.367 17.3455 125.853 17.1028C126.338 15.8087 127.106 14.6764 127.834 13.544C128.036 12.6543 128.036 11.6837 128.36 10.8345C128.845 9.62123 127.834 8.56977 127.47 7.47786C126.742 5.77934 126.014 4.08081 125.246 2.38229C125.893 4.12125 126.257 5.69845 126.217 7.35653Z" fill="black"/>
<path d="M133.86 58.3931C134.022 58.5953 134.143 58.7571 134.264 58.9593C134.345 58.9189 134.345 58.9189 134.426 58.9189C134.466 58.2718 134.062 57.6652 134.426 57.099C134.911 56.1689 135.558 55.4005 136.529 54.9152C137.499 54.4299 138.227 55.3601 138.025 56.2498C137.944 56.6946 137.702 57.099 137.54 57.5034C137.257 57.3821 137.055 57.3012 136.852 57.1799C136.812 57.2203 136.812 57.2204 136.772 57.3012C136.893 57.5034 137.014 57.7056 137.176 57.9078C136.772 58.3527 136.327 58.8784 135.882 59.3233C135.397 59.202 135.397 59.485 135.518 59.8086C134.83 61.1027 134.224 62.4372 133.577 63.7314C133.253 64.4189 133.334 65.1872 133.455 65.9152C133.738 67.2497 133.941 68.5843 134.264 69.9188C134.628 68.0181 135.437 66.4005 137.095 65.3086C137.338 65.3894 137.419 65.5512 137.702 65.4703C137.661 65.3086 137.621 65.1872 137.58 65.0255C138.753 64.1358 140.29 64.2975 141.624 64.6615C142.433 64.8233 141.988 65.2277 142.433 65.6725C142.474 65.5916 142.514 65.4703 142.555 65.3894C143.444 66.1983 144.294 70.2828 142.069 69.474C140.007 68.4225 140.492 69.1505 140.492 67.3306C140.047 67.4924 140.047 67.9372 139.805 68.2607C138.47 67.2497 137.459 67.8563 136.61 68.9887C136.408 68.8269 136.246 68.7056 136.084 68.5438C136.327 69.9593 135.356 71.0512 134.871 72.2644C134.669 73.8416 135.316 75.4593 135.397 77.0365C135.518 78.0475 135.599 79.0585 135.801 80.0695C136.165 79.0989 136.529 78.1284 136.893 77.1173C137.176 77.2791 137.58 77.3195 137.459 76.9151C137.216 76.632 137.378 76.4298 137.54 76.2276C138.187 75.4593 138.794 74.6909 139.441 73.9225C139.845 74.4078 140.209 74.7718 140.533 75.1762C140.654 75.0953 140.613 75.1357 140.735 75.0548C140.452 74.61 140.128 74.1651 139.805 73.6394C141.099 72.5879 143.323 70.6063 142.069 74.0034C141.948 73.8012 141.867 73.6799 141.786 73.5585C141.746 73.599 141.705 73.599 141.665 73.6394C141.624 74.1651 141.988 74.4887 141.584 74.974C141.099 75.7019 140.573 76.4703 140.047 77.2387C139.845 76.9151 139.683 76.7129 139.562 76.5512C139.481 76.5916 139.481 76.5916 139.4 76.5916C139.279 77.0365 139.643 77.6026 139.279 77.8857C137.783 79.0989 137.014 80.7975 136.165 82.4556C136.124 82.5769 136.084 82.7791 136.124 82.8195C136.529 83.3048 136.044 83.7901 136.165 84.2754C136.286 84.7607 136.165 85.2864 136.124 85.8122C136.084 85.8122 136.044 85.8122 136.003 85.8122C135.801 85.0842 136.044 83.2239 135.397 82.9408C134.911 82.6982 134.426 82.3747 133.941 82.0511C133.738 81.8489 133.738 81.485 133.658 81.2423C133.577 81.2423 133.577 81.2423 133.536 81.2423C133.455 81.4041 133.334 81.6063 133.213 81.8085C129.694 80.4739 131.231 77.9262 132.323 79.746C132.444 79.5438 132.525 79.4225 132.606 79.1798C133.9 79.6651 134.669 80.6762 135.518 81.7276C135.477 80.3931 135.235 79.1394 135.073 77.8453C134.83 77.1982 134.183 76.7129 133.819 76.1063C132.485 74.9335 133.374 73.8012 132.363 73.7607L132.485 74.8931C131.433 74.1651 130.301 74.246 129.249 74.0438C128.683 73.9629 128.845 73.1946 128.602 72.7901C128.522 72.7901 128.522 72.7901 128.441 72.7901C128.4 73.1137 128.36 73.4372 128.36 73.8012C126.742 73.4372 125.205 71.2129 127.43 70.485C128.279 70.2828 129.128 70.485 129.937 70.8085C130.18 71.0107 130.22 71.496 130.301 71.7791C130.382 71.7791 130.382 71.7791 130.463 71.7791C130.503 71.5365 130.544 71.2938 130.584 71.0512C132.242 71.6578 133.536 72.7093 134.547 74.2056C134.588 74.2056 134.628 74.1651 134.669 74.1651C134.547 72.224 134.062 70.2828 133.698 68.3821C133.577 67.8159 133.617 67.8563 133.01 67.8563C132.444 67.8159 131.352 68.0181 131.312 67.1688C131.312 66.9666 131.231 66.724 131.191 66.5218C131.11 66.5218 131.15 66.5218 131.069 66.5218C130.988 66.6835 130.948 66.8858 130.908 67.0071C130.26 66.6431 129.613 66.3196 129.007 65.9556C128.683 65.6725 128.926 65.1064 128.926 64.7424C128.845 64.7019 128.845 64.7019 128.764 64.7019C128.602 65.0255 128.481 65.3086 128.319 65.6725C122.738 63.6505 123.83 59.2828 126.904 61.0622C127.349 61.4667 126.985 62.1946 127.511 62.5586C127.551 62.5181 127.591 62.5181 127.632 62.4777C127.632 62.1542 127.632 61.8711 127.591 61.4262C128.522 62.1542 129.249 62.7608 130.18 63.4078C130.665 63.6505 130.18 64.2975 130.22 64.7424C130.301 64.7424 130.341 64.7828 130.422 64.7828C130.544 64.4997 130.665 64.1762 130.746 63.8931C131.595 64.3784 133.051 65.713 133.374 67.4115C133.617 66.9262 133.051 65.6725 132.97 65.0659C132.727 63.0843 132.606 61.0622 132.404 59.0806C132.363 58.474 132.323 58.474 131.757 58.3527C131.191 58.2314 130.624 58.11 130.139 57.827C128.319 56.9373 127.025 55.1579 125.084 54.5108C125.124 54.1873 125.205 53.9042 125.246 53.6211C125.165 53.5807 125.165 53.5807 125.084 53.5402C124.922 53.702 124.72 53.9042 124.558 54.1064C123.628 53.3784 122.091 50.2645 124.356 50.4263C125.893 50.6285 126.661 52.0439 127.551 53.1358C127.955 53.6211 128.441 54.0255 128.885 54.4704C130.544 54.5108 131.474 55.9667 132.283 57.2203C132.202 55.8454 132.242 54.5512 131.959 53.2571C132.202 52.327 131.999 51.3968 131.999 50.4667C131.757 49.941 130.908 49.7792 130.422 49.4961C130.301 49.4557 130.099 49.5366 129.977 49.4961C129.371 49.2535 128.724 49.0108 128.117 48.7277C127.632 48.566 127.915 48.1616 127.753 47.7571C127.591 47.8785 127.51 47.9593 127.43 48.0402C127.106 47.7167 126.823 47.0696 127.147 46.6248C127.672 46.0991 128.643 46.827 129.249 47.0292C129.411 47.1101 129.492 47.3932 129.654 47.5145C129.775 47.5954 130.058 47.5549 130.18 47.6763C130.746 48.1211 131.191 48.6468 131.433 49.3343C131.514 49.4961 131.676 49.6174 131.838 49.6983C131.797 49.0917 131.838 48.4851 131.514 47.9189C130.908 46.7866 130.705 45.4924 130.665 44.1983C130.786 44.1579 130.908 44.1174 131.029 44.077C129.816 42.8638 131.514 40.3564 132.121 43.7939C132.606 46.5844 132.04 49.2939 132.444 52.1248C133.051 50.9924 133.253 49.7792 134.224 48.9704C134.709 49.2535 134.79 49.213 134.911 48.6873C134.911 48.566 135.033 48.4446 135.154 48.4042C136.044 47.9189 136.933 47.4336 137.823 46.9483C138.834 46.3417 139.521 47.1505 138.713 48.0402C138.308 48.4042 137.904 49.0513 137.338 49.1321C136.488 50.1836 135.356 50.9924 134.305 51.8417C133.819 52.6101 133.496 53.5402 132.93 54.2277C132.08 55.2387 132.727 56.5329 132.687 57.7056C132.849 59.5659 132.97 61.3858 133.172 63.2461C133.132 61.588 133.294 59.9703 133.86 58.3931Z" fill="black"/>
<path d="M106.886 40.6395C106.36 42.1358 106.845 43.9961 108.18 44.9262C108.989 45.4924 110.04 45.6542 111.011 45.7755C111.698 45.8564 112.426 45.9373 113.073 45.7351C114.206 45.3711 114.933 44.2387 115.378 43.1468C115.864 41.8932 116.106 40.4777 115.742 39.1432C115.378 37.8491 114.286 36.6763 112.911 36.5145C110.849 36.2314 107.492 38.7388 106.886 40.6395Z" fill="#AEB4FF"/>
</g>
<path d="M97.7053 124.919C97.8671 128.073 98.7568 131.592 100.132 132.522C101.507 133.452 111.132 130.944 112.021 129.084C112.911 127.224 106.966 128.882 105.753 126.86C104.499 124.838 101.83 121.562 101.83 121.562L97.7053 124.919Z" fill="#4887AB"/>
<path d="M53.1394 129.691C52.2902 132.724 52.0071 136.364 53.0181 137.658C54.0291 138.952 60.2975 139.639 61.7129 138.183C63.1284 136.728 60.6615 136.404 60.0953 134.099C59.5291 131.794 58.0328 127.831 58.0328 127.831L53.1394 129.691Z" fill="#4887AB"/>
<path d="M72.4296 69.7167C71.9039 75.6211 68.709 83.4262 67.4554 92.2828C67.0509 95.0732 66.6465 97.9041 66.2017 100.694C66.2017 100.735 66.2017 100.735 66.2017 100.775C63.7348 117.114 61.1466 132.239 61.1466 132.239H51.6833L55.687 63.974C55.687 63.974 66.4443 56.088 69.6796 59.8086C70.084 60.2535 70.3671 60.8601 70.4884 61.6689C70.7311 62.9226 72.7127 66.1983 72.4296 69.7167Z" fill="#383952"/>
<path d="M105.672 124.231L96.3709 128.033L77.4041 92.2422L66.5659 73.9628L64.9482 68.7864C64.9482 68.7864 66.7681 64.0548 69.2754 60.7386C70.3673 59.3232 71.5806 58.1504 72.8342 57.746C73.2387 57.6247 73.6431 57.5842 74.0475 57.6247C74.7754 57.7055 75.4629 58.11 76.1504 58.8379C76.9997 59.768 78.4151 62.1945 80.1136 65.5916C88.768 82.6577 105.672 124.231 105.672 124.231Z" fill="#383952"/>
<path d="M71.5807 63.9741V77.6836L70.1653 79.1395V63.9741" stroke="#55587C" stroke-width="1.076" stroke-miterlimit="10"/>
<path opacity="0.54" d="M56.6173 90.5842C55.2423 99.4812 55.5658 107.893 60.257 108.297C64.6651 108.661 66.0401 101.625 66.1614 100.775C63.6945 117.113 61.1063 132.238 61.1063 132.238H51.6431L55.6467 63.974C55.6467 63.974 66.404 56.088 69.6393 59.8085C71.1356 58.7975 72.632 58.0696 73.9665 58.11L75.1798 58.3931C75.8268 58.7166 76.393 59.2828 76.7974 60.2129C77.3231 61.3857 77.8893 64.1357 78.4555 67.8563C75.3011 67.8159 72.5915 68.2607 70.2864 69.0291C67.779 69.8783 65.757 71.132 64.0989 72.6688C58.9224 77.5217 57.4666 85.0437 56.6173 90.5842Z" fill="#232433"/>
<path opacity="0.54" d="M94.4298 96.6504C97.0989 110.764 82.985 99.8857 80.1946 94.3049C77.4041 88.724 74.8159 83.7498 74.8159 83.7498L77.6064 92.7277L96.2901 127.992L105.592 124.191L94.0659 96.0034L94.4298 96.6504Z" fill="#232433"/>
<path d="M58.7203 97.3784C59.8931 97.1357 60.7423 96.0843 61.2681 95.0328C61.7938 93.9409 62.0769 92.7681 62.7239 91.7571C63.2901 90.8674 64.1394 89.9372 63.735 88.9666C63.4923 88.36 62.8857 88.0365 62.4004 87.6321C61.9151 87.2277 61.4703 86.5402 61.7938 85.974C61.5511 86.4189 59.6909 86.985 59.1651 87.5916C58.4776 88.4005 57.871 89.5733 57.7497 90.6247C57.507 92.849 59.246 95.235 58.7203 97.3784Z" fill="#77951E"/>
<path d="M86.4224 96.4481C86.6246 97.2973 86.9481 98.1062 87.3121 98.8745C87.4738 99.1981 87.676 99.562 87.9996 99.7238C88.3231 99.8856 88.8084 99.7643 88.8893 99.4003C88.8893 99.6429 89.2128 99.8451 89.4554 99.7643C89.6981 99.6834 89.8598 99.4812 89.9812 99.2385C90.3856 98.2679 89.779 97.176 89.1723 96.2863C88.8488 95.801 88.5657 95.3562 88.2422 94.8709C88.04 94.5878 87.7974 94.2643 87.4738 94.3047C87.2716 94.3047 87.0694 94.4665 86.9481 94.5878C86.3819 95.1944 86.301 96.2459 86.7863 96.9334L86.4224 96.4481Z" fill="#AEB4FF"/>
<path d="M49.4998 31.2572C49.7829 27.941 47.0733 27.941 45.2939 28.2645C43.5145 28.6285 38.8638 28.6689 39.1469 29.8013C39.3895 30.6505 42.1395 30.4079 42.827 30.327C43.5145 30.2461 45.9005 32.6322 45.9005 32.6322L49.9447 31.2167" fill="#F4B8AB"/>
<path d="M108.018 32.3087C107.209 33.8859 105.592 33.8859 104.783 33.6837C103.933 33.4815 104.176 31.2572 104.176 31.2572L105.834 28.5477L107.047 27.0109L109.514 27.5367C109.474 27.4962 109.919 31.419 108.018 32.3087Z" fill="#E59689"/>
<path d="M106.32 35.5034C105.996 35.4225 105.713 35.0586 105.794 34.6946C106.562 29.9226 107.856 25.191 109.676 20.702C109.838 20.3785 110.242 20.1763 110.566 20.2572C110.89 20.338 111.132 20.702 111.092 21.066C110.323 25.838 109.029 30.5696 107.209 35.0586C107.048 35.3821 106.643 35.5843 106.32 35.5034Z" fill="#383952"/>
<path d="M112.709 15.2829C112.709 15.2829 112.628 15.202 112.75 15.4042C112.831 15.5256 112.912 15.6873 112.992 15.8895C113.073 16.1322 113.195 16.3748 113.235 16.6579C113.276 16.9814 113.276 17.3454 113.154 17.7094C112.871 18.6395 112.345 19.327 111.658 19.6101C111.577 19.6505 111.456 19.691 111.375 19.691C111.173 19.7314 111.011 19.7314 110.809 19.691C110.768 19.691 110.728 19.691 110.647 19.6505C110.323 19.5697 110.04 19.3675 109.838 19.1653C109.312 18.5182 109.312 17.4667 110 16.5366C110.404 16.0108 111.051 15.6873 111.496 15.3638C111.779 15.1616 111.981 14.9594 111.941 14.7167C111.941 14.7167 112.467 15.6064 112.184 16.0513C112.224 16.0917 112.952 15.8895 112.709 15.2829Z" fill="#AEB4FF"/>
<path d="M110.768 23.1285L108.868 22.6432L109.838 19.1653L111.739 19.6101L110.768 23.1285Z" fill="#61648A"/>
<path d="M103.044 32.1064C104.5 30.691 104.661 28.5072 104.864 27.7792C105.066 27.0109 107.29 26.5256 107.937 25.9998C108.584 25.4741 109.11 26.6469 107.492 27.6175C107.492 27.6175 107.209 31.1358 106.239 32.1064C105.228 33.1175 103.448 33.1983 103.448 33.1983L103.044 32.1064Z" fill="#F4B8AB"/>
<path d="M109.11 27.0108C110.404 26.8086 111.375 27.4557 110.445 28.5072C110.445 28.5072 111.253 28.7094 111.132 29.4777C111.011 30.2461 110.323 30.3674 110.323 30.3674C110.323 30.3674 110.728 30.7314 110.445 31.1763C110.161 31.6211 109.676 31.5402 109.676 31.5402C109.676 31.5402 110.04 32.2682 109.717 32.5108C109.353 32.7535 108.342 32.7939 108.058 32.3086C107.775 31.8233 108.099 31.2571 108.584 31.338C108.584 31.338 107.654 30.9741 107.937 30.3674C108.22 29.7608 108.908 29.8013 108.908 29.8013C108.908 29.8013 107.775 29.8417 107.897 29.2351C108.018 28.6285 109.11 28.2645 109.11 28.2645C109.11 28.2645 107.816 28.7094 107.897 28.1027C107.897 27.5366 108.422 27.1322 109.11 27.0108Z" fill="#F4B8AB"/>
<path d="M105.592 33.4411C104.459 37.1616 102.599 40.4778 100.617 43.066V43.1065C98.2717 46.0991 95.7239 48.0807 93.8232 48.4851C90.2644 49.2131 81.5695 46.544 81.5695 46.544L79.6688 63.3674C72.8747 68.099 55.202 66.7645 55.202 66.7645C54.5954 63.3674 57.7498 51.3969 57.7498 51.3969C57.7498 51.3969 48.8527 55.5623 46.3454 51.7608C45.5366 50.5072 45.0108 47.919 44.6873 44.9668C43.9998 38.941 44.1616 31.5403 44.1616 31.5403L50.1873 30.044C50.1873 30.044 53.5843 44.0366 54.0292 43.7535C54.474 43.4704 63.1689 35.5035 69.6799 35.5035C69.6799 35.5035 74.6137 34.5734 78.6982 34.7756C82.7828 34.9374 91.4776 40.3969 91.4776 40.3969L102.397 30.6506L105.592 33.4411Z" fill="#61648A"/>
<path d="M69.3159 35.0587C68.224 39.8712 75.9482 43.8748 77.0401 34.7756C77.0401 34.7756 72.3085 34.0072 69.3159 35.0587Z" fill="#8C91B5"/>
<path d="M100.577 43.1064C98.2314 46.099 95.6836 48.0806 93.7828 48.485C90.224 49.213 81.5292 46.5439 81.5292 46.5439L79.6285 63.3673C72.8344 68.099 55.1616 66.7644 55.1616 66.7644C54.555 63.3673 57.7094 51.3968 57.7094 51.3968C57.7094 51.3968 48.8124 55.5622 46.3051 51.7608C45.4962 50.5071 44.9705 47.9189 44.647 44.9667C47.1948 54.1064 55.2021 52.4483 59.4888 47.8784C63.816 43.3086 63.169 47.2718 60.7425 51.5586C58.316 55.8453 61.5109 62.8012 69.9631 62.5181C78.3748 62.1946 79.1432 54.4703 80.2755 48.5255C81.4079 42.5402 81.5292 42.4189 85.8968 44.9667C90.3454 47.474 96.2902 48.4446 100.577 43.1064Z" fill="#505477"/>
<path d="M37.2462 14.3933C44.6064 9.98521 49.6616 12.8161 47.5182 16.2536C45.3748 19.6911 49.6616 20.4594 54.6762 20.2572C59.6909 20.055 58.0329 25.7168 53.3417 27.5366C48.691 29.3565 40.441 30.2057 35.3859 28.5072C30.3712 26.8491 25.4374 21.43 37.2462 14.3933Z" fill="#BED6EA"/>
<path d="M39.4301 16.2536C42.7058 14.9595 42.8676 17.9522 39.875 18.8014C36.8823 19.6507 36.5992 17.3455 39.4301 16.2536Z" fill="#54D15F"/>
<path d="M51.6432 22.1175C55.1615 21.8749 54.4336 24.7462 51.3196 24.7058C48.2057 24.6249 48.6101 22.3602 51.6432 22.1175Z" fill="#EC755F"/>
<path d="M35.9926 20.783C39.511 20.419 38.8235 23.3308 35.75 23.3712C32.636 23.3712 33 21.0661 35.9926 20.783Z" fill="#D35473"/>
<path d="M43.3124 22.6433C47.9631 21.8345 46.8712 26.1212 42.7462 26.4043C38.6617 26.6874 39.3087 23.3308 43.3124 22.6433Z" fill="#599FC6"/>
<path d="M74.0809 22.4394C73.9407 29.6751 72.2665 34.0799 69.3234 33.7386C63.0911 33.0159 62.3215 27.6655 65.7551 25.4129C69.1887 23.2285 74.0809 22.4394 74.0809 22.4394Z" fill="#562B37"/>
<path d="M75.4628 36.191C75.3414 37.3233 74.29 38.1322 73.1576 38.0108H73.1172C71.9848 37.8491 71.2165 36.8381 71.3378 35.7057L71.54 34.1689C72.3892 34.7351 74.6539 34.5329 75.665 34.3307L75.4628 36.191Z" fill="#F4B8AB"/>
<path opacity="0.53" d="M75.6651 34.2094C74.007 34.1689 71.9849 33.4005 72.0658 34.2902C72.2276 35.6248 75.4629 36.191 75.4629 36.191L75.6651 34.2094Z" fill="#DD6595"/>
<path d="M76.1101 34.2903C75.1395 34.6542 72.9557 35.18 71.9851 34.8564C71.9851 34.8564 68.8307 34.0072 67.9814 32.2278C67.1322 30.4484 67.941 31.9447 67.941 31.9447L66.6064 24.3418L78.213 22.7241L78.2939 23.9374C79.8711 28.1837 79.6689 33.0366 76.1101 34.2903Z" fill="#F4B8AB"/>
<path d="M67.6981 29.0329C66.5253 27.4557 65.5143 28.3049 65.4334 29.3564C65.3526 30.3674 67.6981 32.5108 68.0621 31.6211C68.4261 30.6909 67.6981 29.0329 67.6981 29.0329Z" fill="#F4B8AB"/>
<path d="M72.349 28.8307C72.1063 28.8712 71.985 28.5881 71.9041 28.0219C71.8232 27.4557 71.9041 27.1727 72.1468 27.1322C72.3894 27.0918 72.5107 27.3749 72.5916 27.941C72.6725 28.5072 72.5916 28.8307 72.349 28.8307Z" fill="#191918"/>
<path d="M76.3932 28.3049C76.1505 28.3454 76.0292 28.0623 75.9483 27.4961C75.8674 26.9299 75.9483 26.6468 76.1909 26.6064C76.4336 26.566 76.5549 26.849 76.6358 27.4152C76.7167 27.941 76.6358 28.2645 76.3932 28.3049Z" fill="#191918"/>
<path d="M75.6248 31.3785C73.6836 31.702 71.9851 30.4888 71.9851 30.4888C71.9851 30.4888 72.1064 32.066 73.9263 32.7939C75.7866 33.5623 75.6248 31.3785 75.6248 31.3785Z" fill="#E56A85"/>
<path opacity="0.53" d="M67.658 29.5182C66.6874 28.7499 66.3234 29.1543 66.5256 30.0844C66.7278 30.9741 67.9006 31.4999 68.2241 31.1763C68.5477 30.8528 67.658 29.5182 67.658 29.5182Z" fill="#DD6595"/>
<path d="M76.507 26.0076C76.507 26.0076 77.8671 25.2131 77.5554 24.1206C77.4987 23.9551 77.4421 23.8226 77.3287 23.6571C76.507 22.5316 70.7551 24.551 68.2334 22.6971C67.8367 22.3991 67.4967 22.0019 67.2983 21.4722L67.5533 21.3729L71.4918 19.6183L72.4269 19.1879C73.3619 18.89 78.3204 18.0293 79.0855 21.4722C79.8222 24.9151 76.507 26.0076 76.507 26.0076Z" fill="#6D3744"/>
<path d="M77.871 24.6433C77.8413 24.7132 77.8117 24.7482 77.7821 24.8182C77.7229 24.6433 77.6636 24.5033 77.5452 24.3284C76.6863 23.139 70.6745 25.273 68.0387 23.314C67.8018 23.0341 67.6241 22.7542 67.5056 22.6143C67.3576 22.4044 67.2983 22.1595 67.2983 21.9147C67.2983 21.4949 67.5056 21.1101 67.5056 21.1101L69.3122 20.0606H71.4148C70.7633 23.5938 79.1444 22.1246 77.871 24.6433Z" fill="#562B37"/>
<path d="M70.0035 22.0771C69.9226 26.3638 66.3638 29.316 64.6653 29.1138C62.9668 28.9521 64.0587 26.0808 66.0403 24.7462C68.0219 23.4521 70.0035 22.0771 70.0035 22.0771Z" fill="#6D3744"/>
<path d="M68.1836 26.1616L68.3049 29.8418L66.5659 27.8601L68.1836 26.1616Z" fill="#6D3744"/>
<path d="M75.9078 19.0844L63.8564 27.9006C62.3196 25.7572 61.9961 23.3712 62.5218 21.3491C62.9667 19.6506 64.0182 18.1947 65.474 17.2646C67.9409 15.7278 72.1468 15.4043 74.4924 17.1028C75.099 17.5881 75.6247 18.2352 75.9078 19.0844Z" fill="#599FC6"/>
<path d="M66.485 17.2241C67.9813 15.7278 65.5144 14.555 64.6247 15.93C63.735 17.305 65.6357 18.0734 66.485 17.2241Z" fill="#F4B8AB"/>
<path d="M75.9078 19.0845L63.8564 27.9006C62.3196 25.7573 61.9961 23.3712 62.5218 21.3492C64.0586 24.9484 72.2681 21.0257 74.452 17.1433C75.099 17.5882 75.6247 18.2352 75.9078 19.0845Z" fill="#4887AB"/>
<path d="M148.419 132.036C147.974 131.955 147.61 131.47 147.651 130.985C148.257 124.716 149.592 118.529 151.614 112.584C151.776 112.139 152.301 111.856 152.746 111.937C153.191 112.018 153.555 112.503 153.514 112.988C152.908 119.257 151.573 125.444 149.551 131.389C149.39 131.834 148.904 132.117 148.419 132.036Z" fill="#FFC55A"/>
<path d="M153.11 111.209C151.29 110.966 150.643 108.864 151.816 107.165C152.584 106.033 154.323 105.547 154.202 104.739C154.202 104.739 154.97 105.871 154.647 106.477C154.647 106.477 155.294 105.911 154.97 105.183C154.97 105.183 156.466 106.882 156.022 108.58C155.577 110.279 154.525 111.411 153.11 111.209Z" fill="#544644"/>
<path opacity="0.5" d="M152.584 110.885C152.382 110.885 152.261 110.683 152.18 110.522C151.897 109.753 152.22 108.823 152.908 108.419C152.948 108.661 152.867 108.944 152.786 109.147C153.029 108.904 153.272 108.621 153.474 108.297C153.595 108.135 153.676 107.974 153.757 107.772C153.838 107.529 153.797 107.286 153.757 107.044C153.959 107.448 154.121 107.852 154.323 108.257C154.404 108.459 154.525 108.702 154.525 108.944C154.525 109.187 154.404 109.43 154.202 109.551C154.444 109.106 154.647 108.702 154.889 108.257C155.172 108.621 155.415 109.066 155.334 109.51C155.253 110.117 154.728 110.522 154.242 110.885C153.878 111.128 153.474 111.411 153.069 111.29C152.746 111.209 152.503 110.926 152.301 110.643" fill="#302726"/>
<path d="M154.259 111.088L151.769 110.55L150.777 115.135L153.268 115.673L154.259 111.088Z" fill="white"/>
<path d="M145.669 129.893C145.426 129.852 145.224 129.61 145.224 129.367C145.386 122.816 146.356 116.305 148.055 109.955C148.136 109.713 148.378 109.511 148.661 109.551C148.904 109.592 149.106 109.834 149.106 110.077C148.944 116.628 147.974 123.139 146.275 129.489C146.154 129.772 145.911 129.933 145.669 129.893Z" fill="#FFC55A"/>
<path d="M148.621 109.268C148.014 109.308 147.893 107.569 148.378 105.911C148.702 104.819 149.349 104.172 149.349 103.444C149.349 103.444 149.551 104.334 149.389 104.9C149.389 104.9 149.672 104.334 149.551 103.728C149.551 103.728 149.996 104.981 149.713 106.558C149.551 108.095 149.106 109.228 148.621 109.268Z" fill="#544644"/>
<path opacity="0.5" d="M148.459 109.025C148.378 109.066 148.338 108.904 148.338 108.742C148.297 108.136 148.459 107.246 148.702 106.801C148.702 107.003 148.661 107.246 148.621 107.448C148.742 107.205 148.823 106.922 148.904 106.639C148.944 106.478 148.985 106.316 149.025 106.154C149.066 105.952 149.066 105.75 149.066 105.547C149.106 105.871 149.147 106.194 149.187 106.518C149.227 106.68 149.227 106.882 149.227 107.084C149.227 107.286 149.147 107.529 149.066 107.65C149.187 107.246 149.268 106.841 149.389 106.437C149.47 106.68 149.511 107.044 149.47 107.448C149.389 107.974 149.187 108.419 149.025 108.783C148.904 109.066 148.742 109.349 148.58 109.308C148.459 109.268 148.419 109.066 148.338 108.864" fill="#302726"/>
<path d="M149.596 108.562L147.955 108.323L147.277 112.965L148.918 113.204L149.596 108.562Z" fill="white"/>
<path d="M135.033 131.632C134.79 131.713 134.507 131.592 134.385 131.349C131.595 125.404 129.573 119.136 128.279 112.706C128.238 112.463 128.4 112.18 128.643 112.099C128.886 112.018 129.169 112.139 129.29 112.382C132.08 118.327 134.102 124.595 135.397 131.025C135.437 131.268 135.275 131.551 135.033 131.632Z" fill="#AF2F48"/>
<path d="M128.481 111.816C127.915 112.099 127.066 110.603 126.783 108.904C126.58 107.772 126.863 106.922 126.58 106.275C126.58 106.275 127.147 106.963 127.268 107.569C127.268 107.569 127.268 106.922 126.904 106.437C126.904 106.437 127.834 107.367 128.319 108.864C128.805 110.36 128.926 111.573 128.481 111.816Z" fill="#544644"/>
<path opacity="0.5" d="M128.238 111.694C128.198 111.775 128.077 111.654 127.996 111.492C127.672 110.966 127.43 110.117 127.47 109.591C127.551 109.794 127.632 109.996 127.672 110.239C127.632 109.955 127.632 109.672 127.551 109.389C127.511 109.227 127.511 109.066 127.43 108.904C127.349 108.702 127.268 108.5 127.187 108.338C127.389 108.621 127.551 108.864 127.753 109.147C127.834 109.308 127.955 109.43 128.036 109.632C128.117 109.834 128.158 110.077 128.158 110.198C128.077 109.794 127.996 109.389 127.875 108.944C128.077 109.147 128.279 109.43 128.4 109.834C128.562 110.319 128.602 110.805 128.602 111.25C128.602 111.533 128.602 111.856 128.441 111.897C128.319 111.937 128.158 111.775 128.036 111.613" fill="#302726"/>
<path d="M129.043 110.759L127.467 111.276L128.93 115.734L130.505 115.217L129.043 110.759Z" fill="white"/>
<path d="M138.996 130.661C138.753 130.661 138.51 130.459 138.47 130.176C137.701 123.665 137.701 117.073 138.47 110.562C138.51 110.319 138.753 110.077 138.996 110.077C139.238 110.077 139.481 110.279 139.521 110.562C140.29 117.073 140.29 123.665 139.521 130.176C139.481 130.459 139.279 130.661 138.996 130.661Z" fill="#EC755F"/>
<path d="M138.187 107.003C138.349 106.963 138.47 106.963 138.632 106.922C138.632 107.044 138.632 107.165 138.672 107.327C138.713 107.084 138.753 106.841 138.793 106.639C138.793 106.599 138.793 106.558 138.834 106.558C138.834 106.518 138.874 106.518 138.915 106.518C139.077 106.477 139.279 106.437 139.441 106.437C139.441 106.437 139.441 107.529 139.441 107.65C139.521 107.529 139.562 107.408 139.562 107.246C139.562 107.205 139.602 107.125 139.643 107.125H139.683C139.966 107.165 139.845 107.408 139.845 107.65C139.885 107.974 139.885 108.297 139.885 108.621C139.885 108.783 139.885 108.904 139.845 109.066C139.804 109.227 139.764 109.47 139.562 109.511C139.4 109.551 139.198 109.511 138.996 109.511C138.632 109.511 138.349 109.389 138.308 108.985C138.268 108.742 138.146 107.003 138.187 107.003Z" fill="#544644"/>
<path opacity="0.5" d="M138.47 108.135C138.51 108.135 138.551 108.095 138.591 108.095C138.591 108.176 138.632 108.257 138.632 108.338C138.672 108.095 138.713 107.852 138.753 107.65C138.794 107.691 138.794 107.691 138.834 107.731C138.834 107.974 138.834 108.216 138.834 108.459C138.834 108.378 138.915 108.338 138.915 108.257C138.915 108.216 138.915 108.176 138.915 108.135C138.915 108.055 138.915 107.933 138.915 107.852C138.955 107.974 138.955 108.095 138.996 108.216C139.077 108.095 139.158 107.933 139.198 107.771C139.319 108.014 139.4 108.297 139.36 108.54C139.4 108.419 139.4 108.297 139.441 108.216C139.481 108.419 139.481 108.621 139.481 108.823C139.481 108.944 139.481 109.106 139.36 109.187C139.198 109.268 138.672 109.268 138.551 109.066C138.51 109.025 138.43 108.176 138.47 108.135Z" fill="#302726"/>
<path d="M139.845 108.985H138.187V113.676H139.845V108.985Z" fill="white"/>
<path d="M136.32 107.751L133.066 108.125L135.892 132.754L139.146 132.381L136.32 107.751Z" fill="#FFC55A"/>
<path d="M139.117 132.345L135.862 132.718L135.918 133.2L139.172 132.827L139.117 132.345Z" fill="#61648A"/>
<path d="M137.782 135.11C136.893 135.231 136.084 134.584 135.963 133.654L135.922 133.169L139.157 132.805L139.198 133.29C139.319 134.22 138.672 135.029 137.782 135.11Z" fill="#D35473"/>
<path d="M134.345 105.224L133.051 108.095L136.286 107.731L134.345 105.224Z" fill="white"/>
<path d="M134.102 105.79L134.749 105.709L134.345 105.224L134.102 105.79Z" fill="#544644"/>
<path d="M133.698 108.014L136.529 132.643" stroke="#F49B51" stroke-width="0.7749" stroke-miterlimit="10"/>
<path d="M134.749 107.893L137.58 132.522" stroke="#F49B51" stroke-width="0.7749" stroke-miterlimit="10"/>
<path d="M135.76 107.772L138.591 132.4" stroke="#F49B51" stroke-width="0.7749" stroke-miterlimit="10"/>
<path d="M145.124 107.978L141.851 107.832L140.749 132.598L144.021 132.743L145.124 107.978Z" fill="#FF5AF4"/>
<path d="M144.018 132.715L140.746 132.569L140.724 133.054L143.996 133.2L144.018 132.715Z" fill="#768A61"/>
<path d="M142.231 135.231C141.341 135.191 140.613 134.422 140.654 133.533L140.694 133.047L143.97 133.209L143.929 133.694C143.929 134.584 143.161 135.272 142.231 135.231Z" fill="#5472D3"/>
<path d="M143.606 105.184L141.827 107.812L145.102 107.974L143.606 105.184Z" fill="white"/>
<path d="M143.242 105.709L143.889 105.75L143.606 105.184L143.242 105.709Z" fill="#454454"/>
<path d="M142.474 107.853L141.382 132.602" stroke="#AB51F4" stroke-width="0.7749" stroke-miterlimit="10"/>
<path d="M143.525 107.893L142.433 132.643" stroke="#AB51F4" stroke-width="0.7749" stroke-miterlimit="10"/>
<path d="M144.577 107.933L143.445 132.683" stroke="#AB51F4" stroke-width="0.7749" stroke-miterlimit="10"/>
<path d="M149.43 137.536H134.628C131.393 137.536 128.805 134.908 128.805 131.713V121.602H155.253V131.713C155.253 134.908 152.665 137.536 149.43 137.536Z" fill="#599FC6"/>
<path d="M155.253 121.441H128.805V123.139H155.253V121.441Z" fill="#4887AB"/>
<path d="M155.577 118.933H128.481V121.4H155.577V118.933Z" fill="#599FC6"/>
<path d="M170.459 52.772L177.455 40.6396L184.452 52.772" stroke="#61648A" stroke-width="0.8857" stroke-miterlimit="10"/>
<path d="M179.679 40.6396C179.679 41.8528 178.668 42.8639 177.455 42.8639C176.242 42.8639 175.231 41.8528 175.231 40.6396C175.231 39.4264 176.242 38.4153 177.455 38.4153C178.668 38.4153 179.679 39.4264 179.679 40.6396Z" fill="#CADBEF"/>
<path d="M191.609 89.5328H164.433C162.209 89.5328 160.389 87.713 160.389 85.4887V50.7499C160.389 48.5256 162.209 46.7057 164.433 46.7057H191.609C193.834 46.7057 195.654 48.5256 195.654 50.7499V85.4887C195.654 87.713 193.874 89.5328 191.609 89.5328Z" fill="#CADBEF"/>
<path d="M192.176 50.022H163.867V86.1763H192.176V50.022Z" fill="#DEF9EF"/>
<path d="M172.238 74.9336C167.466 68.18 167.264 62.9226 174.22 60.941C181.176 58.9594 188.374 57.544 188.051 63.5697C187.727 69.555 190.518 76.1873 182.834 78.1689C175.15 80.1505 172.238 74.9336 172.238 74.9336Z" fill="#599FC6"/>
<path d="M170.702 56.6946C166.172 59.6873 166.617 63.8527 170.702 65.2277C174.786 66.6027 179.356 65.713 179.356 62.1542C179.356 58.5549 173.654 54.713 170.702 56.6946Z" fill="#AEB4FF"/>
<path d="M176.444 75.6616C178.952 76.4705 181.216 79.7866 176.889 79.9079C172.562 80.0293 169.327 80.6359 170.176 78.6138C171.066 76.5513 174.786 75.1359 176.444 75.6616Z" fill="#6D3744"/>
</svg>
