<svg width="182" height="166" viewBox="0 0 182 166" fill="none" xmlns="http://www.w3.org/2000/svg">
<path opacity="0.2" d="M145.139 160.733C145.139 163.641 112.647 166 72.5693 166C32.4914 166 0 163.641 0 160.733C0 157.824 32.4914 155.465 72.5693 155.465C112.647 155.47 145.139 157.824 145.139 160.733Z" fill="black"/>
<path d="M132.785 125.288H7.78955V58.8631C7.78955 54.7701 11.1393 51.4203 15.2323 51.4203H125.838C129.658 51.4203 132.785 54.5471 132.785 58.3676V125.288Z" fill="#182632"/>
<path d="M121.581 136.492H18.9933C12.8042 136.492 7.78955 131.477 7.78955 125.288H132.79C132.785 131.477 127.77 136.492 121.581 136.492Z" fill="white"/>
<path d="M81.5431 136.492H58.863V155.366H81.5431V136.492Z" fill="#E1E1E1"/>
<path d="M81.5431 136.492H58.863V142.473H81.5431V136.492Z" fill="#BBBBBB"/>
<path d="M96.424 162.546H43.9878V161.312C43.9878 158.042 46.6636 155.366 49.9341 155.366H90.4777C93.7482 155.366 96.424 158.042 96.424 161.312V162.546Z" fill="white"/>
<path d="M14.9847 56.8067C13.9094 56.8067 13.0273 57.6887 13.0273 58.764V60.1713L80.1012 118.162H89.0157H91.5875L20.6187 56.8067H14.9847Z" fill="#003948"/>
<path d="M13.0273 81.5977V89.1792V106.349V116.205C13.0273 117.28 13.9094 118.162 14.9847 118.162H15.8419H33.0663H38.2296H70.3742L13.0273 68.5803V81.5977Z" fill="#003948"/>
<path d="M125.422 56.8067H113.435H108.272H91.0472H73.7535H52.7086H48.5562L119.525 118.162H125.422C126.497 118.162 127.379 117.28 127.379 116.205V94.4466V86.8651V58.764C127.384 57.6887 126.502 56.8067 125.422 56.8067Z" fill="#003948"/>
<path opacity="0.57" d="M43.4176 56.8067H20.6187L91.5874 118.162H98.3116H119.525L48.5562 56.8067H43.4176Z" fill="url(#paint0_linear)"/>
<path opacity="0.57" d="M13.0273 68.5803L70.3742 118.162H80.1012L13.0273 60.1713V68.5803Z" fill="url(#paint1_linear)"/>
<path d="M73.2978 130.516C73.2978 132.468 71.7171 134.049 69.7648 134.049C67.8124 134.049 66.2317 132.468 66.2317 130.516C66.2317 128.563 67.8124 126.983 69.7648 126.983C71.7171 126.983 73.2978 128.563 73.2978 130.516Z" fill="#BBBBBB"/>
<path d="M60.0028 70.4936C52.233 86.3949 58.095 99.0704 58.095 99.0704L50.1419 99.7691L44.9587 100.225C38.9877 74.9632 62.9958 57.9371 63.1642 57.8231C50.8356 73.2636 52.9862 88.4712 52.9862 88.4712C52.8425 80.8054 59.8938 70.6522 60.0028 70.4936Z" fill="white"/>
<path d="M50.1419 99.7635L44.9587 100.219C38.9877 74.9576 62.9958 57.9315 63.1642 57.8175C63.0404 57.9513 47.3273 75.2302 47.139 87.0632C47.035 93.8965 48.7049 97.7368 50.1419 99.7635Z" fill="#E1E1E1"/>
<path d="M117.33 106.081C116.309 106.081 115.323 106.235 114.396 106.518C112.89 103.049 109.912 100.373 106.25 99.273C106.176 99.2482 106.096 99.2234 106.017 99.2036C105.972 99.1937 105.928 99.1788 105.883 99.164C104.813 98.8766 103.683 98.723 102.524 98.723C101.874 98.723 101.235 98.7725 100.611 98.8617C99.3126 96.2156 96.5922 94.3971 93.4456 94.3971C93.0095 94.3971 92.5834 94.4317 92.1672 94.5011C90.1454 94.8282 88.3764 95.9134 87.1624 97.4544C86.1119 97.1968 85.0118 97.058 83.882 97.058C83.7383 97.058 83.5946 97.063 83.4509 97.0679C80.9436 93.6736 76.915 91.4784 72.376 91.4784C69.2294 91.4784 66.3306 92.5339 64.0116 94.3128C62.4705 95.4922 61.1871 96.9886 60.2605 98.7081C59.4082 98.2473 58.4964 97.8707 57.55 97.5981C57.0148 97.4445 56.4697 97.3206 55.9098 97.2314C55.2012 97.1175 54.4678 97.058 53.7245 97.058C52.0843 97.058 50.5135 97.3454 49.0567 97.8707C48.7098 97.9945 48.3679 98.1333 48.0359 98.2869C47.0994 96.3544 45.7218 94.6696 44.0371 93.3713C43.5267 92.9799 42.9915 92.6181 42.4266 92.301V92.2366C42.4266 91.6965 42.3969 91.1662 42.3374 90.6459C42.2433 89.8283 42.0798 89.0355 41.8469 88.2674C41.8369 88.2278 41.827 88.1931 41.8122 88.1535C40.7121 84.6055 38.2097 81.6671 34.9541 79.9922C33.6113 79.2985 32.1396 78.8228 30.5886 78.6048C29.9593 78.5156 29.3151 78.471 28.666 78.471C27.4123 78.471 26.2032 78.6394 25.0486 78.9516C24.2955 79.1548 23.567 79.4224 22.8733 79.7445C21.58 78.3966 19.9051 77.4205 18.0172 76.9893C18.2253 76.6375 18.4186 76.2758 18.5969 75.9042C18.6861 75.7159 18.7704 75.5276 18.8447 75.3393C18.8943 75.2104 18.9488 75.0865 18.9934 74.9528C19.0677 74.7595 19.1321 74.5613 19.1965 74.3631C19.2362 74.2392 19.2709 74.1153 19.3055 73.9914C19.6128 72.9112 19.7763 71.7665 19.7763 70.5872C19.7763 69.2196 19.5583 67.9015 19.147 66.6726C18.9438 66.0581 18.696 65.4635 18.3987 64.8937C18.369 64.8391 18.3393 64.7797 18.3095 64.7252C18.2402 64.5914 18.1658 64.4576 18.0866 64.3288C18.0469 64.2643 18.0122 64.195 17.9726 64.1305C17.8933 64.0017 17.814 63.8729 17.7298 63.749C17.2739 63.0553 16.7486 62.4061 16.1639 61.8214C16.0153 61.6728 15.8617 61.5241 15.708 61.3804C16.4266 60.3101 16.8428 59.0217 16.8428 57.6342C16.8428 57.3518 16.8279 57.0743 16.7932 56.7968H14.9895C13.9143 56.7968 13.0322 57.6788 13.0322 58.7541V116.195C13.0322 117.27 13.9143 118.152 14.9895 118.152H125.427C126.393 118.152 127.201 117.444 127.359 116.522V114.882C126.715 109.922 122.473 106.081 117.33 106.081Z" fill="white"/>
<path d="M117.33 106.082C116.309 106.082 115.323 106.235 114.396 106.518C112.89 103.049 109.912 100.373 106.25 99.2733C110.016 100.468 109.892 105.106 106.384 106.795C105.66 107.142 104.798 107.365 103.797 107.41C97.8161 107.663 96.8449 105.443 96.8449 105.443C96.8449 105.443 95.4971 110.824 89.5211 111.513C86.989 111.805 84.8681 111.463 83.1982 110.908C80.3044 109.952 78.7583 108.361 78.7583 108.361C78.7583 108.361 76.5186 110.517 72.7278 111.78C70.6218 112.484 68.0352 112.915 65.0918 112.548C64.5814 112.484 64.0958 112.41 63.63 112.325C55.7413 110.893 54.8494 106.711 54.8494 106.711C53.1745 109.6 49.7752 111.533 44.2997 110.393C38.8291 109.253 37.9719 105.7 37.9719 105.7C35.5686 109.605 28.329 110.269 26.1735 105.7C24.018 101.132 26.1735 97.8314 26.1735 97.8314C22.6206 98.0841 19.0132 92.0932 21.4858 85.9091C22.6404 83.0152 24.7513 81.4494 26.9614 80.6268C30.762 79.2096 34.8699 79.9876 34.9541 80.0074C33.6113 79.3137 32.1396 78.838 30.5886 78.62C29.9593 78.5308 29.3151 78.4862 28.666 78.4862C27.4123 78.4862 26.2032 78.6546 25.0486 78.9668C24.2955 79.17 23.567 79.4376 22.8733 79.7597C21.58 78.4118 19.9051 77.4357 18.0172 77.0045C18.2253 76.6527 18.4186 76.291 18.5969 75.9194C18.6861 75.7311 18.7704 75.5428 18.8447 75.3545C18.8943 75.2256 18.9488 75.1017 18.9934 74.9679C19.0677 74.7747 19.1321 74.5765 19.1965 74.3783C19.2362 74.2544 19.2709 74.1305 19.3055 74.0066C19.6128 72.9264 19.7763 71.7817 19.7763 70.6024C19.7763 69.2348 19.5583 67.9167 19.147 66.6878C18.9438 66.0733 18.696 65.4787 18.3987 64.9089C18.369 64.8543 18.3393 64.7949 18.3095 64.7404C18.2402 64.6066 18.1658 64.4728 18.0866 64.344C18.0469 64.2795 18.0122 64.2102 17.9726 64.1457C17.8933 64.0169 17.814 63.8881 17.7298 63.7642C17.2739 63.0705 16.7486 62.4213 16.1639 61.8366C16.0153 61.688 15.8617 61.5393 15.708 61.3956C16.4266 60.3253 16.8428 59.0369 16.8428 57.6494C16.8428 57.367 16.8279 57.0895 16.7932 56.812H14.9895C13.9143 56.812 13.0322 57.694 13.0322 58.7693V116.21C13.0322 117.286 13.9143 118.168 14.9895 118.168H125.427C126.393 118.168 127.201 117.459 127.359 116.537V114.897C126.715 109.922 122.473 106.082 117.33 106.082Z" fill="#E1E1E1"/>
<path d="M34.7461 71.5287C35.2763 72.5048 34.9146 73.7238 33.9434 74.254C32.9672 74.7842 31.7482 74.4225 31.218 73.4513C30.6878 72.4751 31.0495 71.2561 32.0208 70.7259C32.992 70.1957 34.2159 70.5525 34.7461 71.5287Z" fill="#E1E1E1"/>
<path d="M34.6518 71.3552C35.0384 72.0638 34.7757 72.9508 34.0671 73.3323C33.3585 73.7188 32.4715 73.4562 32.09 72.7476C31.7035 72.039 31.9661 71.152 32.6747 70.7705C33.3784 70.384 34.2653 70.6466 34.6518 71.3552Z" fill="white"/>
<path d="M72.7475 86.8799C73.0795 87.4943 72.8566 88.2574 72.2421 88.5894C71.6277 88.9214 70.8646 88.6984 70.5326 88.084C70.2006 87.4696 70.4235 86.7065 71.038 86.3745C71.6475 86.0425 72.4106 86.2704 72.7475 86.8799Z" fill="#E1E1E1"/>
<path d="M72.6882 86.7709C72.931 87.2169 72.7674 87.7719 72.3215 88.0147C71.8755 88.2575 71.3205 88.094 71.0777 87.648C70.8349 87.202 70.9984 86.647 71.4444 86.4042C71.8904 86.1614 72.4453 86.325 72.6882 86.7709Z" fill="white"/>
<path d="M48.353 68.0253C48.5314 68.3524 48.4125 68.7587 48.0854 68.9371C47.7584 69.1155 47.3521 68.9965 47.1737 68.6695C46.9953 68.3424 47.1142 67.9361 47.4413 67.7577C47.7634 67.5744 48.1746 67.6983 48.353 68.0253Z" fill="#E1E1E1"/>
<path d="M48.3185 67.9658C48.4474 68.2036 48.3582 68.5009 48.1253 68.6298C47.8874 68.7586 47.5901 68.6694 47.4613 68.4365C47.3324 68.1987 47.4216 67.9014 47.6545 67.7725C47.8924 67.6387 48.1897 67.7279 48.3185 67.9658Z" fill="white"/>
<path d="M41.9411 85.1902L42.9965 74.2491L41.0788 79.3282L42.06 61.5439L40.1274 82.8018L41.9857 79.0408L41.9411 85.1902Z" fill="white"/>
<path d="M58.4321 93.0541L66.3308 85.4082L61.5787 88.0345L73.8528 75.1261L58.6006 90.0611L62.4558 88.4011L58.4321 93.0541Z" fill="white"/>
<path opacity="0.2" d="M111.881 121.941L99.5144 122.12L99.7044 135.225L112.071 135.046L111.881 121.941Z" fill="black"/>
<path d="M111.213 121.653L98.8464 121.832L99.0258 134.199L111.393 134.02L111.213 121.653Z" fill="#F1BC03"/>
<path opacity="0.5" d="M106.01 118.738L103.944 118.768L104.005 122.979L106.071 122.95L106.01 118.738Z" fill="white"/>
<path d="M132.919 45.3004C132.922 45.2549 132.926 45.2094 132.93 45.1638C132.938 45.0571 132.938 44.9584 132.929 44.852C132.929 44.805 132.923 44.7565 132.916 44.7127C132.903 44.6048 132.878 44.5034 132.852 44.402C132.842 44.3677 132.837 44.3349 132.827 44.3006C132.825 44.2896 132.824 44.2787 132.822 44.2677C132.784 44.1571 132.73 44.0468 132.674 43.946C132.661 43.9211 132.648 43.8963 132.628 43.8747C132.561 43.7599 132.485 43.6531 132.392 43.5513C132.384 43.5436 132.376 43.5359 132.368 43.5282C132.284 43.4341 132.186 43.3465 132.082 43.2669C132.061 43.25 132.045 43.2346 132.023 43.2225C131.912 43.1461 131.79 43.0714 131.662 43.0157C131.635 43.0021 131.611 42.9947 131.584 42.9811C131.447 42.9224 131.307 42.8731 131.152 42.8351C131.003 42.7986 130.842 42.7638 130.677 42.7276C130.643 42.7219 130.605 42.7101 130.57 42.7044C130.438 42.6785 130.303 42.6465 130.157 42.6161C130.108 42.606 130.059 42.5959 130.01 42.5858C129.878 42.56 129.741 42.5326 129.598 42.5085C129.54 42.4954 129.48 42.4871 129.421 42.4787C129.282 42.4561 129.141 42.4273 128.993 42.4017C128.929 42.3919 128.859 42.3806 128.795 42.3707C128.652 42.3466 128.503 42.3258 128.355 42.3002C128.281 42.2874 128.206 42.2793 128.127 42.265C127.978 42.2442 127.828 42.2233 127.675 42.201C127.59 42.1899 127.51 42.1804 127.425 42.1693C127.269 42.1517 127.115 42.1294 126.954 42.115C126.864 42.1025 126.773 42.0947 126.682 42.0869C126.527 42.0693 126.365 42.0549 126.198 42.0391C126.137 42.0355 126.078 42.0271 126.018 42.0188C125.993 42.0161 125.968 42.0134 125.947 42.0122C125.544 41.9739 125.126 41.9468 124.693 41.92C124.617 41.9167 124.546 41.9101 124.469 41.9067C124.034 41.8847 123.594 41.8658 123.136 41.852C123.059 41.8487 122.976 41.8486 122.898 41.85C122.427 41.8427 121.946 41.8371 121.445 41.846C121.382 41.8471 121.324 41.8497 121.261 41.8508C120.729 41.8602 120.188 41.8777 119.629 41.9048C119.44 41.9129 119.254 41.9271 119.063 41.9399C118.936 41.9469 118.801 41.9618 118.67 41.9673C118.494 41.9798 118.314 41.9908 118.133 42.0066C118.058 42.0142 117.99 42.0138 117.92 42.0229C117.781 42.0363 117.635 42.053 117.496 42.0664C117.255 42.0895 117.019 42.1141 116.773 42.1357C116.547 42.1632 116.315 42.1893 116.082 42.22C115.851 42.2461 115.622 42.2783 115.389 42.3091C115.303 42.3185 115.222 42.3293 115.136 42.3387C114.923 42.3707 114.7 42.4044 114.486 42.4411C114.35 42.4608 114.214 42.4804 114.076 42.5048C114.026 42.5151 113.978 42.5206 113.923 42.5295C113.54 42.5911 113.154 42.6622 112.762 42.7365C112.684 42.7536 112.606 42.7707 112.525 42.7815C112.155 42.8523 111.777 42.9311 111.398 43.0146C111.259 43.0437 111.118 43.0776 110.979 43.1067C110.622 43.1867 110.257 43.2747 109.89 43.3674C109.778 43.3944 109.671 43.4182 109.558 43.45C109.09 43.568 108.618 43.6955 108.144 43.8324C108.035 43.8657 107.922 43.8975 107.808 43.9293C107.43 44.0394 107.052 44.1543 106.671 44.2739C106.522 44.3204 106.366 44.3702 106.216 44.4167C105.817 44.546 105.411 44.6833 105.004 44.8206C104.904 44.8569 104.808 44.8837 104.708 44.9199C104.211 45.0964 103.707 45.2809 103.204 45.4763C103.073 45.5288 102.938 45.5798 102.807 45.6322C102.416 45.7849 102.024 45.9423 101.629 46.1092C101.474 46.1746 101.313 46.2386 101.156 46.3088C100.694 46.5066 100.231 46.7091 99.7644 46.9212C99.6976 46.9521 99.637 46.9798 99.5716 47.0061C99.0446 47.2458 98.5116 47.5044 97.9771 47.7678C97.8295 47.8409 97.6805 47.9188 97.5282 47.9905C97.1212 48.1952 96.7127 48.4046 96.3013 48.6235C96.1398 48.7078 95.983 48.7937 95.8215 48.878C95.5157 49.0417 95.2131 49.2117 94.9058 49.3801C94.9134 49.3721 94.9149 49.3674 94.9226 49.3594C94.9226 49.3594 94.9226 49.3594 94.9179 49.3579L88.1473 49.4357L79.1046 49.5381C79.4336 49.3504 79.6293 49.0743 79.7071 48.7767C79.7982 48.4365 79.7416 48.0708 79.5716 47.7682C79.3324 47.3556 78.8775 47.0675 78.285 47.1516C75.0272 47.62 70.887 48.8814 67.7095 52.1067C61.6577 58.2525 63.2846 64.8029 63.3282 64.962L63.3267 64.9667C63.3267 64.9667 70.8096 60.5993 76.9298 60.5253C78.1661 60.5081 79.346 60.6705 80.3937 61.0719C80.3937 61.0719 80.4061 61.0654 80.4248 61.0557C80.2297 61.2801 80.0252 61.5016 79.8349 61.7275L76.7461 65.365L72.8022 70.0065L70.9232 72.2214C69.3345 72.6007 64.7056 73.9632 62.1287 77.4756C58.9978 81.7438 57.5006 84.8108 49.1137 91.9274C49.0936 91.9419 49.0782 91.9578 49.0566 91.977C49.0799 91.9687 49.1033 91.9605 49.1267 91.9522C59.4947 88.2876 62.9001 88.5406 68.1639 87.9849C72.5956 87.5161 76.1609 84.0645 77.2039 82.9584L85.9558 81.3989L90.6536 80.5618L91.6831 80.3759C91.5885 80.4293 91.5326 80.4585 91.5326 80.4585C91.3548 81.5712 90.8963 82.6686 90.2631 83.7267C87.1152 88.9763 79.5757 93.2428 79.5757 93.2428C79.5757 93.2428 79.5757 93.2428 79.5804 93.2443C79.6953 93.3582 84.5337 98.065 92.8899 95.9295C97.2755 94.8127 100.453 91.8679 102.494 89.2882C102.865 88.8177 102.846 88.282 102.608 87.8647C102.436 87.5668 102.147 87.3306 101.807 87.2394C101.509 87.1616 101.173 87.1911 100.844 87.3787L105.486 79.617L108.961 73.8052L108.963 73.8005C108.892 73.8096 108.825 73.8249 108.755 73.834C115.727 69.7374 120.769 65.1391 124.388 60.7854C124.646 60.4768 124.899 60.1667 125.14 59.8631C125.741 59.1064 126.297 58.3615 126.818 57.6267C127.041 57.3124 127.254 56.9999 127.466 56.6874C127.584 56.5113 127.7 56.34 127.811 56.1672C130.669 51.7926 132.12 48.0102 132.813 45.7348C132.872 45.5974 132.898 45.4497 132.919 45.3004Z" fill="#A8023D" fill-opacity="0.8"/>
<path d="M113.68 64.013C108.396 64.3101 105.005 63.8952 94.4717 67.0428C94.4479 67.0499 94.4242 67.057 94.4004 67.0641C94.4213 67.0506 94.4374 67.0354 94.4599 67.0173C103.184 60.3248 104.829 57.3349 108.167 53.2206C111.521 49.0911 117.77 48.3146 117.77 48.3146L120.927 53.4913L120.938 53.5168L123.283 59.1071C123.283 59.1071 118.992 63.7152 113.68 64.013Z" fill="#F68E37"/>
<path d="M103.119 62.6087C105.477 60.2932 106.926 58.44 108.42 56.5193C108.908 55.8965 109.41 55.2521 109.943 54.5931C111.703 52.4267 116.279 50.6118 118.05 50.1499L119.918 53.8063L121.839 57.5663C120.432 58.7326 116.407 61.6167 113.608 61.7737C112.762 61.8208 111.942 61.8516 111.156 61.8788C108.726 61.9658 106.375 62.0552 103.119 62.6087Z" fill="#F1BC03"/>
<path d="M108.07 60.0764C108.937 59.1441 109.723 58.2563 110.496 57.379L110.505 57.3668C111.095 56.697 111.711 55.9998 112.349 55.3002C113.559 53.9819 116.539 52.4871 118.782 51.5868L121.121 56.161C118.946 57.6356 116.11 59.2103 114.446 59.3996C113.497 59.5094 112.577 59.5982 111.684 59.6863L111.673 59.6875C110.515 59.8049 109.337 59.9201 108.07 60.0764Z" fill="#FAF8A8"/>
<path d="M127.218 37.7381C126.188 37.2794 125.021 37.0657 123.785 37.0224C117.669 36.7965 109.981 40.7919 109.981 40.7919C109.981 40.7919 109.981 40.7919 109.982 40.7873C109.951 40.628 108.646 34.0104 114.988 28.1621C118.32 25.0964 122.517 24.0394 125.794 23.7312C126.39 23.6761 126.83 23.9862 127.049 24.4101C127.205 24.716 127.242 25.0887 127.135 25.424C127.038 25.7157 126.833 25.9836 126.491 26.1532L135.528 26.494L142.294 26.7481L142.299 26.7498C136.979 32.7164 127.218 37.7381 127.218 37.7381Z" fill="#DC3645"/>
<path d="M109.977 40.7854C109.946 40.6261 108.64 34.0085 114.983 28.1602C118.315 25.0945 122.512 24.0375 125.789 23.7293C126.385 23.6743 126.825 23.9844 127.044 24.4082C127.2 24.7141 127.237 25.0869 127.13 25.4221C126.931 25.6605 126.715 25.903 126.486 26.1514C126.486 26.1514 119.417 27.2486 114.709 32.1729C110.075 37.0243 109.981 40.6758 109.977 40.7854Z" fill="#EF4C65"/>
<path d="M127.217 37.738C126.188 37.2793 125.02 37.0656 123.785 37.0223C126.878 32.5114 131.54 28.959 135.525 26.4986L142.292 26.7526L142.296 26.7544C136.979 32.7163 127.217 37.738 127.217 37.738Z" fill="#BE292C"/>
<path d="M137.39 57.6406C137.158 58.7433 136.646 59.8169 135.962 60.8427C132.56 65.9318 124.821 69.8237 124.821 69.8237C124.821 69.8237 124.821 69.8237 124.826 69.8255C124.935 69.9449 129.537 74.8831 137.987 73.1596C142.423 72.259 145.741 69.4735 147.905 66.9968C148.299 66.5451 148.306 66.0091 148.089 65.5806C147.932 65.2747 147.655 65.0246 147.32 64.9169C147.026 64.8246 146.689 64.8376 146.351 65.0089L151.368 57.4839L155.124 51.8494L155.125 51.8447C147.181 52.6669 137.39 57.6406 137.39 57.6406Z" fill="#DC3645"/>
<path d="M124.824 69.8301C124.933 69.9496 129.535 74.8878 137.986 73.1643C142.421 72.2637 145.739 69.4782 147.903 67.0015C148.297 66.5498 148.304 66.0138 148.087 65.5853C147.931 65.2794 147.653 65.0293 147.318 64.9216C147.008 64.9448 146.686 64.9739 146.349 65.0135C146.349 65.0135 141.322 70.1003 134.572 71.0351C127.934 71.953 124.916 69.8957 124.824 69.8301Z" fill="#EF4C65"/>
<path d="M137.39 57.6406C137.158 58.7433 136.646 59.8169 135.962 60.8427C141.431 60.9778 147.037 59.2783 151.371 57.4903L155.127 51.8557L155.128 51.8511C147.181 52.6669 137.39 57.6406 137.39 57.6406Z" fill="#BE292C"/>
<path d="M154.326 52.1944C151.841 53.4649 149.837 54.4322 147.794 55.2164C145.754 55.996 143.677 56.5879 141.041 57.1059C140.956 57.122 140.871 57.1381 140.787 57.1496L136.503 57.6991L131.769 58.305L122.769 59.4563L117.149 48.4661L117.855 47.7121L123.355 41.8437L126.618 38.362C130.722 33.9597 135.61 30.2105 141.046 27.3815C141.202 27.3018 141.358 27.222 141.515 27.1422C148.992 23.3173 155.808 21.5302 161.587 20.8504C162.001 20.8022 162.407 20.7616 162.808 20.7193C163.77 20.6302 164.7 20.5715 165.6 20.5385C165.986 20.5224 166.369 20.5156 166.745 20.5117C166.936 20.5083 167.126 20.5095 167.313 20.5044C169.722 20.4998 171.865 20.6766 173.697 20.9346C175.836 21.2367 177.555 21.6433 178.787 21.997C180.135 22.3825 180.793 23.6761 180.319 24.9907C179.516 27.2294 177.881 30.9361 174.812 35.1655C174.692 35.3326 174.566 35.5027 174.442 35.6681C174.221 35.9669 173.989 36.2669 173.749 36.5745C173.196 37.2847 172.6 37.9997 171.963 38.726C171.706 39.0221 171.44 39.3148 171.167 39.6104C167.236 43.9021 161.797 48.3725 154.326 52.1944Z" fill="white"/>
<path d="M127.48 58.8528L122.773 59.458C122.401 59.0513 122.047 58.6357 121.708 58.2207C121.422 57.8668 121.148 57.507 120.882 57.1397C119.946 55.839 119.157 54.4817 118.538 53.0655C117.899 51.6047 117.433 50.0757 117.157 48.4742L120.402 45.0123C120.846 47.0188 121.471 48.9337 122.267 50.7584C123.21 52.9122 124.395 54.9435 125.832 56.8463C126.07 57.161 126.317 57.4791 126.568 57.788C126.859 58.1436 127.166 58.4997 127.48 58.8528Z" fill="#182632"/>
<path d="M118.535 53.0591C117.896 51.5984 117.43 50.0693 117.154 48.4678L120.399 45.0059L123.359 41.8455L126.622 38.3637C130.727 33.9614 135.615 30.2123 141.051 27.3833C141.207 27.3035 141.363 27.2237 141.519 27.144C151.642 21.9705 160.543 20.5183 167.317 20.5061C169.727 20.5016 171.869 20.6784 173.702 20.9364C173.462 22.575 174.057 22.9683 171.281 24.8976C171.281 24.8976 152.313 23.8336 139.66 33.1922C128.066 41.7686 132.918 44.1529 132.918 44.1529L122.264 50.7521L118.535 53.0591Z" fill="#E1E1E1"/>
<path d="M114.886 57.3173C114.557 57.3494 114.29 57.1717 114.164 56.9247C114.039 56.6778 114.05 56.3599 114.27 56.1081C122.496 46.8979 140.686 40.8999 148.193 38.7284C148.577 38.6165 148.895 38.8131 149.04 39.0935C149.183 39.3786 149.153 39.7477 148.84 39.9965C142.686 44.816 127.173 56.0463 114.886 57.3173Z" fill="#DC3645"/>
<path d="M149.045 39.0957L114.169 56.9269C114.044 56.68 114.055 56.3621 114.275 56.1103C122.5 46.9001 140.691 40.9021 148.197 38.7305C148.576 38.6216 148.896 38.8135 149.045 39.0957Z" fill="#BE292C"/>
<path d="M161.367 40.5516C157.97 42.289 153.809 40.9406 152.072 37.5438C150.335 34.147 151.683 29.9861 155.08 28.2487C158.477 26.5113 162.638 27.8597 164.375 31.2565C166.112 34.6533 164.764 38.8142 161.367 40.5516Z" fill="#182632"/>
<path d="M160.71 39.269C160.689 39.2825 160.665 39.2896 160.645 39.3031C157.996 40.6139 154.773 39.5739 153.392 36.9581C153.378 36.9372 153.37 36.9182 153.358 36.8927C153.124 36.437 152.962 35.9601 152.864 35.4804C152.689 34.608 152.738 33.7174 152.977 32.8815C153.187 32.1669 153.534 31.4973 154.017 30.9198C154.475 30.3651 155.055 29.8925 155.734 29.5407C158.416 28.1681 161.714 29.2355 163.086 31.917C163.436 32.6005 163.625 33.3198 163.672 34.0392C163.722 34.7918 163.616 35.5394 163.363 36.2385C163.073 37.0556 162.585 37.8054 161.934 38.4106C161.579 38.7444 161.167 39.0309 160.71 39.269Z" fill="#33C8CB"/>
<path opacity="0.1" d="M161.939 38.4123C162.59 37.8071 163.077 37.0573 163.368 36.2402C163.62 35.5411 163.727 34.7935 163.677 34.0409C163.63 33.3214 163.436 32.6005 163.091 31.9187C161.718 29.2372 158.42 28.1698 155.739 29.5423C155.603 29.6087 155.476 29.6831 155.351 29.7638C157.952 28.6945 160.988 29.7866 162.289 32.331C162.639 33.0145 162.829 33.7338 162.875 34.4533C162.925 35.2058 162.819 35.9534 162.566 36.6525C162.276 37.4697 161.788 38.2195 161.138 38.8246C160.883 39.0581 160.603 39.2719 160.301 39.4616C160.418 39.4151 160.533 39.3622 160.649 39.3047C160.668 39.2959 160.694 39.2842 160.714 39.2707C161.167 39.0309 161.579 38.7444 161.939 38.4123Z" fill="black"/>
<path d="M162.207 34.3022C162.207 34.3022 161.237 37.2662 158.673 37.8319C155.863 38.4494 154.373 36.5591 153.868 34.002C153.868 34.002 153.16 36.4397 155.61 38.3616C158.161 40.3682 162.056 38.2968 162.207 34.3022Z" fill="#00EEED"/>
<path d="M174.816 35.1672C171.467 30.7119 168.969 25.8254 167.322 20.5078C172.547 20.5005 176.509 21.3425 178.792 21.9987C179.614 22.2329 180.179 22.8056 180.387 23.516C180.52 23.9717 180.508 24.4793 180.322 24.9971C179.515 27.2294 177.879 30.9408 174.816 35.1672Z" fill="#DC3645"/>
<path d="M178.353 27.3451C178.55 26.9264 178.728 26.6591 179.049 26.017C179.553 25.02 179.519 24.511 178.807 24.2645C177.511 23.8132 174.232 28.5988 174.967 31.0879C175.535 33.0293 177.505 29.1606 178.353 27.3451Z" fill="#EF4C65"/>
<path opacity="0.2" d="M174.816 35.1672C171.467 30.7119 168.969 25.8254 167.322 20.5078C172.547 20.5005 176.509 21.3425 178.792 21.9987C179.614 22.2329 180.179 22.8056 180.387 23.516C179.94 23.3405 176.693 22.1493 174.194 23.4257C171.508 24.7965 170.931 29.4582 174.816 35.1672Z" fill="black"/>
<defs>
<linearGradient id="paint0_linear" x1="103.276" y1="114.471" x2="-11.7349" y2="20.994" gradientUnits="userSpaceOnUse">
<stop stop-color="#00556A"/>
<stop offset="1" stop-color="#007D8D"/>
</linearGradient>
<linearGradient id="paint1_linear" x1="91.1668" y1="129.37" x2="-23.8444" y2="35.8931" gradientUnits="userSpaceOnUse">
<stop stop-color="#00556A"/>
<stop offset="1" stop-color="#007D8D"/>
</linearGradient>
</defs>
</svg>
