<svg width="164" height="171" viewBox="0 0 164 171" fill="none" xmlns="http://www.w3.org/2000/svg">
<path d="M35.3012 114.633C40.6032 109.158 52.0755 92.9151 42.4258 79.4581C-5.81876 12.1786 82.3509 -11.9527 131.489 28.2214C180.628 68.3955 150.746 156.38 54.1901 131.723C41.842 128.57 29.8336 137.198 22.5431 137.198C17.1036 137.198 29.502 120.495 35.3012 114.633Z" fill="url(#paint0_linear)"/>
<path d="M107.899 95.1842C107.899 95.1842 101.392 90.5057 94.4326 89.4575L100.073 75.1899C100.073 75.1899 109.542 78.0616 112.03 81.7569L107.899 95.1842Z" fill="#FF2E2E"/>
<path d="M107.899 95.1841C107.899 95.1841 115.911 94.9728 122.254 98.017L125.612 83.0459C125.612 83.0459 116.165 80.0963 112.03 81.7568L107.899 95.1841Z" fill="#FF2E2E"/>
<path d="M112.03 81.7568L107.899 95.1842C107.899 95.1842 103.112 89.4232 94.3118 87.2369L99.9172 72.3439C99.9172 72.3439 110.499 74.9005 112.03 81.7568Z" fill="#D6D6D6"/>
<path d="M112.03 81.7567L107.899 95.184C107.899 95.184 115.096 93.1099 123.603 96.2487L127.342 80.782C127.342 80.782 117.152 76.9488 112.03 81.7567Z" fill="#CCCCCC"/>
<path d="M112.707 79.5573L107.899 95.1841C107.899 95.1841 104.484 87.7068 96.7656 85.9391L102.613 69.8384C102.613 69.8339 111.892 71.8778 112.707 79.5573Z" fill="white"/>
<path d="M112.707 79.5573L107.899 95.1841C107.899 95.1841 114.928 90.9196 122.305 93.7953L126.527 77.1944C126.523 77.1944 117.696 73.6677 112.707 79.5573Z" fill="#F0F0F0"/>
<path d="M142.649 89.0308C142.649 89.3242 142.412 89.5657 142.114 89.5657C141.821 89.5657 141.579 89.3287 141.579 89.0308C141.579 88.738 141.817 88.4965 142.114 88.4965C142.407 88.4965 142.649 88.7334 142.649 89.0308Z" fill="white"/>
<path d="M103.76 86.6292C103.76 87.4358 103.109 88.0869 102.302 88.0869C101.496 88.0869 100.845 87.4358 100.845 86.6292C100.845 85.8231 101.496 85.172 102.302 85.172C103.109 85.172 103.76 85.8231 103.76 86.6292Z" fill="white"/>
<path d="M125.096 62.7759C125.096 63.03 124.888 63.2328 124.638 63.2328C124.388 63.2328 124.181 63.026 124.181 62.7759C124.181 62.5213 124.388 62.3185 124.638 62.3185C124.888 62.3185 125.096 62.5213 125.096 62.7759Z" fill="white"/>
<path d="M118.398 55.825C118.896 55.825 119.3 55.4217 119.3 54.9238C119.3 54.4259 118.896 54.0226 118.398 54.0226C117.901 54.0226 117.497 54.4259 117.497 54.9238C117.497 55.4217 117.901 55.825 118.398 55.825Z" fill="white"/>
<path d="M120.585 34.6836C120.585 35.0373 120.296 35.3263 119.942 35.3263C119.589 35.3263 119.3 35.0373 119.3 34.6836C119.3 34.33 119.589 34.041 119.942 34.041C120.296 34.041 120.585 34.33 120.585 34.6836Z" fill="white"/>
<path d="M53.0479 35.6194C53.0479 36.1369 52.6292 36.5553 52.112 36.5553C51.5942 36.5553 51.176 36.1369 51.176 35.6194C51.176 35.1018 51.5942 34.6834 52.112 34.6834C52.6292 34.6834 53.0479 35.1018 53.0479 35.6194Z" fill="white"/>
<path d="M52.1115 51.8795C52.1115 52.0691 51.9565 52.2247 51.7668 52.2247C51.5771 52.2247 51.4216 52.0691 51.4216 51.8795C51.4216 51.6898 51.5771 51.5342 51.7668 51.5342C51.9565 51.5342 52.1115 51.6898 52.1115 51.8795Z" fill="white"/>
<path d="M91.7121 38.5819C92.1627 38.5819 92.5273 38.217 92.5273 37.7668C92.5273 37.3166 92.1627 36.9516 91.7121 36.9516C91.2621 36.9516 90.897 37.3166 90.897 37.7668C90.897 38.217 91.2621 38.5819 91.7121 38.5819Z" fill="white"/>
<path d="M67.7553 76.6732C67.7553 77.1175 67.3975 77.4752 66.9532 77.4752C66.5089 77.4752 66.1511 77.1175 66.1511 76.6732C66.1511 76.2288 66.5089 75.8711 66.9532 75.8711C67.3975 75.8751 67.7553 76.2334 67.7553 76.6732Z" fill="white"/>
<path d="M160.065 24.5506C160.065 25.0121 159.689 25.3873 159.228 25.3873C158.767 25.3873 158.391 25.0121 158.391 24.5506C158.391 24.0892 158.767 23.7139 159.228 23.7139C159.694 23.7139 160.065 24.0892 160.065 24.5506Z" fill="white"/>
<path d="M162.833 59.6498C163.238 59.6498 163.566 59.3216 163.566 58.9166C163.566 58.5116 163.238 58.1835 162.833 58.1835C162.428 58.1835 162.1 58.5116 162.1 58.9166C162.1 59.3216 162.428 59.6498 162.833 59.6498Z" fill="white"/>
<path d="M121.766 128.804C122.04 128.804 122.262 128.582 122.262 128.308C122.262 128.034 122.04 127.812 121.766 127.812C121.492 127.812 121.27 128.034 121.27 128.308C121.27 128.582 121.492 128.804 121.766 128.804Z" fill="white"/>
<path d="M159.357 127.812C160.164 127.812 160.819 127.158 160.819 126.351C160.819 125.543 160.164 124.889 159.357 124.889C158.55 124.889 157.896 125.543 157.896 126.351C157.896 127.158 158.55 127.812 159.357 127.812Z" fill="white"/>
<path d="M117.316 141.964C117.978 141.964 118.515 141.427 118.515 140.765C118.515 140.103 117.978 139.566 117.316 139.566C116.654 139.566 116.118 140.103 116.118 140.765C116.118 141.427 116.654 141.964 117.316 141.964Z" fill="white"/>
<path d="M102.303 103.786C102.777 103.786 103.16 103.402 103.16 102.929C103.16 102.454 102.777 102.07 102.303 102.07C101.829 102.07 101.444 102.454 101.444 102.929C101.444 103.402 101.829 103.786 102.303 103.786Z" fill="white"/>
<path d="M137.716 106.917C137.716 107.215 137.475 107.456 137.177 107.456C136.879 107.456 136.638 107.215 136.638 106.917C136.638 106.619 136.879 106.378 137.177 106.378C137.475 106.382 137.716 106.623 137.716 106.917Z" fill="white"/>
<path d="M163.157 94.6925C163.157 95.085 162.842 95.4 162.449 95.4C162.057 95.4 161.742 95.085 161.742 94.6925C161.742 94.3 162.061 93.985 162.449 93.985C162.838 93.985 163.157 94.3 163.157 94.6925Z" fill="white"/>
<path d="M124.638 73.5857C124.638 73.8404 124.431 74.0432 124.18 74.0432C123.926 74.0432 123.724 73.8358 123.724 73.5857C123.724 73.3311 123.93 73.1283 124.18 73.1283C124.431 73.1283 124.638 73.3311 124.638 73.5857Z" fill="white"/>
<path d="M109.106 30.2465H108.404C107.692 30.2465 107.114 29.6687 107.114 28.9572V28.2544C107.114 28.0215 106.946 27.8102 106.717 27.7887C106.45 27.7628 106.226 27.9698 106.226 28.2285V28.9572C106.226 29.6687 105.648 30.2465 104.937 30.2465H104.234C104.001 30.2465 103.79 30.4146 103.768 30.6432C103.743 30.9105 103.949 31.1347 104.208 31.1347H104.937C105.648 31.1347 106.226 31.7125 106.226 32.424V33.1268C106.226 33.3597 106.394 33.571 106.623 33.5925C106.89 33.6184 107.114 33.4114 107.114 33.1527V32.424C107.114 31.7125 107.692 31.1347 108.404 31.1347H109.132C109.391 31.1347 109.602 30.9105 109.572 30.6432C109.55 30.4146 109.335 30.2465 109.106 30.2465Z" fill="white"/>
<path d="M82.7264 83.6709L82.2303 83.1753C81.7261 82.6706 81.7261 81.856 82.2303 81.3512L82.7264 80.8557C82.8899 80.6916 82.9201 80.4244 82.7737 80.2433C82.6057 80.0359 82.2992 80.0234 82.1141 80.2085L81.6008 80.7218C81.0961 81.2265 80.2815 81.2265 79.7768 80.7218L79.2812 80.2262C79.1171 80.0621 78.85 80.0319 78.6688 80.1783C78.462 80.3464 78.4489 80.6529 78.634 80.838L79.1473 81.3512C79.652 81.856 79.652 82.6706 79.1473 83.1753L78.6517 83.6709C78.4877 83.8349 78.4575 84.1021 78.6039 84.2833C78.7725 84.4906 79.0784 84.5031 79.2635 84.318L79.7768 83.8047C80.2815 83.3 81.0961 83.3 81.6008 83.8047L82.1141 84.318C82.2992 84.5031 82.6057 84.4906 82.7737 84.2833C82.9201 84.1021 82.8899 83.8349 82.7264 83.6709Z" fill="white"/>
<path d="M135.495 126.795L135 126.299C134.495 125.794 134.495 124.979 135 124.475L135.495 123.979C135.659 123.815 135.689 123.548 135.542 123.367C135.374 123.16 135.069 123.147 134.883 123.332L134.37 123.845C133.865 124.35 133.05 124.35 132.546 123.845L132.05 123.349C131.886 123.185 131.619 123.155 131.438 123.302C131.231 123.47 131.218 123.776 131.403 123.961L131.917 124.475C132.421 124.979 132.421 125.794 131.917 126.299L131.42 126.795C131.256 126.958 131.227 127.225 131.373 127.407C131.541 127.614 131.847 127.626 132.033 127.441L132.546 126.928C133.05 126.424 133.865 126.424 134.37 126.928L134.883 127.441C135.069 127.626 135.374 127.614 135.542 127.407C135.689 127.225 135.659 126.958 135.495 126.795Z" fill="white"/>
<path d="M120.847 134.418C121.305 130.9 119.86 127.312 117.514 124.652C116.406 123.397 115 122.013 115.268 120.361C115.457 119.214 116.656 117.877 115.742 116.765C115.044 115.912 113.263 115.618 112.25 115.407C109.472 114.82 106.536 115.01 103.859 115.941C102.328 116.472 100.883 117.248 99.6112 118.253C97.7747 119.701 96.2565 121.638 95.6402 123.892C94.739 127.187 95.8686 130.757 97.7616 133.599C100.556 137.794 105.057 140.817 109.994 141.822C111.413 142.11 112.884 142.235 114.297 141.946C117.777 141.231 120.386 137.937 120.847 134.418ZM112.245 121.012C111.473 121.176 110.632 120.978 110.007 120.49C109.688 120.24 109.412 119.874 109.425 119.468C109.434 119.158 109.615 118.878 109.839 118.666C110.439 118.114 111.417 118.063 112.129 118.434C112.784 118.775 113.608 119.663 113.159 120.447C112.974 120.767 112.607 120.939 112.245 121.012Z" fill="#FFF7D9"/>
<path d="M108.416 126.665C108.071 127.678 108.602 128.757 108.955 129.769C109.102 130.192 109.223 130.637 109.456 131.016C109.689 131.395 110.072 131.727 110.516 131.762C111.072 131.809 111.573 131.4 111.9 130.947C112.228 130.49 112.456 129.964 112.849 129.563C113.069 129.338 113.341 129.158 113.517 128.895C113.884 128.351 113.746 127.596 113.41 127.036C112.5 125.51 109.184 124.406 108.416 126.665Z" fill="#FFC400"/>
<path d="M101.746 120.227C101.061 120.715 100.91 121.642 100.668 122.444C100.569 122.78 100.444 123.117 100.418 123.466C100.392 123.815 100.483 124.199 100.754 124.427C101.086 124.712 101.591 124.677 102.005 124.54C102.419 124.402 102.807 124.169 103.238 124.095C103.479 124.052 103.734 124.061 103.967 123.979C104.45 123.802 104.704 123.259 104.747 122.746C104.872 121.361 103.268 119.145 101.746 120.227Z" fill="#FF2F00"/>
<path d="M111.909 134.569C111.301 135.242 110.65 136.014 110.689 136.919C110.711 137.475 110.999 137.993 111.366 138.415C112.008 139.161 113.052 139.687 113.979 139.355C114.69 139.101 115.165 138.38 115.294 137.635C115.423 136.889 115.255 136.121 114.997 135.414C114.794 134.849 114.453 133.896 113.819 133.676C113.069 133.418 112.357 134.073 111.909 134.569Z" fill="#2228B3"/>
<path d="M100.858 130.486C100.703 131.085 100.85 131.719 101.039 132.305C101.19 132.775 101.375 133.245 101.677 133.633C101.979 134.021 102.419 134.327 102.911 134.375C103.484 134.431 104.049 134.121 104.411 133.668C104.773 133.219 104.95 132.65 105.04 132.077C105.144 131.408 105.126 130.701 104.842 130.089C104.062 128.403 101.337 128.67 100.858 130.486Z" fill="#009245"/>
<path d="M143.507 48.9644C142.946 48.2443 141.912 48.115 141.191 48.6756L112.103 71.3002L108.692 76.0431L114.129 73.9046L143.218 51.2797C143.938 50.7194 144.067 49.6845 143.507 48.9644Z" fill="#494ED1"/>
<path d="M143.654 49.15C143.015 48.3263 141.912 48.1151 141.196 48.6756L112.125 71.3259L111.763 71.8739L112.634 73.0075L143.671 49.1844C143.662 49.1715 143.658 49.1586 143.654 49.15Z" fill="#2228B3"/>
<path d="M114.129 73.9001C114.147 73.715 114.151 73.5122 113.94 73.2233C113.742 72.9602 113.241 72.9949 113.025 72.6884C112.806 72.3694 113 71.99 112.793 71.6494C112.655 71.421 112.414 71.2529 112.146 71.2569L112.103 71.2917L108.692 76.0346L114.129 73.9001Z" fill="#FAB594"/>
<path d="M109.516 74.8965L108.692 76.0438L110.003 75.526C109.999 75.3835 109.956 75.2457 109.866 75.1295C109.775 75.0087 109.654 74.9352 109.516 74.8965Z" fill="#0D0B30"/>
<path d="M143.507 48.9645C142.946 48.2444 141.911 48.115 141.191 48.6756L138.522 50.7539L140.549 53.3584L143.218 51.2797C143.938 50.7194 144.067 49.6846 143.507 48.9645Z" fill="#1FDDFF"/>
<path d="M139.337 50.1196L138.987 50.3922L141.014 52.9995L141.365 52.7272L139.337 50.1196Z" fill="#0D0B30"/>
<path d="M138.702 50.6188L138.351 50.8915L140.379 53.4991L140.729 53.2262L138.702 50.6188Z" fill="#0D0B30"/>
<path d="M83.9976 51.9873C80.8457 51.4609 77.6288 52.0391 74.7054 53.1904C71.0795 54.6219 67.7721 56.9888 65.5818 60.2661C63.3909 63.5433 62.3997 67.773 63.3009 71.7531C63.6199 73.163 64.2363 74.6117 65.4177 75.4183C67.0862 76.5565 69.3677 76.009 70.8551 74.741C72.3424 73.4735 73.2397 71.6409 74.2012 69.912C75.1668 68.1871 76.3095 66.4451 78.0601 65.5872C80.0653 64.604 82.4715 64.9572 84.6834 65.479C86.8954 66.0008 89.1723 66.6735 91.3757 66.2639C92.298 66.0913 93.2083 65.7119 93.8332 65.009C94.8079 63.9227 94.9458 62.2279 94.5145 60.7708C93.8378 58.4722 91.9272 56.3292 90.1464 54.8071C88.3919 53.3111 86.2187 52.3581 83.9976 51.9873Z" fill="url(#paint1_linear)"/>
<path d="M85.331 55.2816C85.6631 55.9669 85.3743 56.7952 84.6884 57.1227C84.0026 57.4548 83.1749 57.166 82.8473 56.4801C82.5152 55.7948 82.804 54.9711 83.4899 54.639C84.1752 54.3069 84.9989 54.5957 85.331 55.2816Z" fill="#0D0B30"/>
<path d="M87.5638 59.8952C87.8959 60.581 87.6071 61.4088 86.9213 61.7363C86.236 62.0684 85.4122 61.7796 85.0801 61.0937C84.748 60.4084 85.0374 59.5807 85.7227 59.2526C86.4086 58.9205 87.2317 59.2099 87.5638 59.8952Z" fill="#0D0B30"/>
<path d="M82.2947 58.0627C82.9806 57.7305 83.8043 58.0194 84.1364 58.7052C84.468 59.3911 84.1791 60.2188 83.4938 60.5464C82.808 60.8785 81.9803 60.5896 81.6527 59.9038C81.3246 59.2185 81.6094 58.3948 82.2947 58.0627Z" fill="#0D0B30"/>
<path d="M86.9129 55.8291C87.5988 55.497 88.4265 55.7858 88.754 56.4716C89.0861 57.1575 88.7973 57.9807 88.112 58.3128C87.4262 58.6449 86.5985 58.3561 86.2709 57.6702C85.9388 56.9889 86.2276 56.1612 86.9129 55.8291Z" fill="#0D0B30"/>
<path d="M68.8678 63.2413C69.1999 63.9266 68.9111 64.7548 68.2252 65.0824C67.5399 65.4145 66.7122 65.1257 66.3841 64.4398C66.052 63.7545 66.3414 62.9262 67.0267 62.5987C67.7125 62.2711 68.5357 62.5554 68.8678 63.2413Z" fill="#0D0B30"/>
<path d="M71.1007 67.8595C71.4328 68.5447 71.144 69.3725 70.4587 69.7006C69.7729 70.0327 68.9451 69.7433 68.6176 69.058C68.2855 68.3721 68.5743 67.5444 69.2596 67.2169C69.9455 66.8848 70.7692 67.1736 71.1007 67.8595Z" fill="#0D0B30"/>
<path d="M65.8363 66.027C66.5221 65.6949 67.3498 65.9837 67.6774 66.669C68.0095 67.3548 67.7207 68.1785 67.0354 68.5106C66.3495 68.8422 65.5218 68.5534 65.1943 67.8681C64.8621 67.1822 65.151 66.3585 65.8363 66.027Z" fill="#0D0B30"/>
<path d="M70.4495 63.7934C71.1354 63.4613 71.9631 63.7501 72.2912 64.4359C72.6228 65.1212 72.334 65.9489 71.6487 66.2771C70.9628 66.6086 70.1391 66.3198 69.8075 65.6345C69.4754 64.9486 69.7642 64.1255 70.4495 63.7934Z" fill="#0D0B30"/>
<path d="M77.5904 59.9858L74.6801 61.3957C74.2961 61.5814 74.1366 62.0382 74.3223 62.4222C74.5075 62.8055 74.9649 62.965 75.3483 62.7799L78.2592 61.37C78.6426 61.1843 78.8021 60.7275 78.617 60.3435C78.4358 59.9641 77.9744 59.8046 77.5904 59.9858Z" fill="white"/>
<path d="M73.9038 106.05C66.0346 100.932 58.7083 94.3905 60.0709 92.2947C61.4335 90.2035 70.3851 94.2441 78.2543 99.3624C86.1235 104.48 93.4492 111.026 92.0872 113.117C90.7246 115.209 81.773 111.164 73.9038 106.05ZM78.056 99.6638C68.6647 93.5542 61.3344 91.0227 60.3814 92.489C59.4283 93.9553 64.7147 99.6296 74.1061 105.74C83.4974 111.849 90.8277 114.381 91.7853 112.915C92.7338 111.448 87.4474 105.774 78.056 99.6638Z" fill="white"/>
<path d="M78.0801 112.205C83.3192 111.117 86.6841 105.988 85.5967 100.749C84.5086 95.5099 79.3795 92.1444 74.1403 93.2324C68.9012 94.3204 65.5357 99.4491 66.6238 104.689C67.7118 109.928 72.841 113.293 78.0801 112.205Z" fill="#1FDDFF"/>
<path d="M74.5468 107.533C74.3092 107.02 73.8957 106.61 73.4428 106.279C73.1061 106.033 72.7398 105.821 72.455 105.515C72.1708 105.213 71.968 104.787 72.0631 104.381C72.2095 103.735 73.0372 103.307 72.9512 102.648C72.8908 102.152 72.3519 101.889 71.8819 101.721C70.7392 101.311 69.5617 100.949 68.5443 100.289C68.0185 99.9486 67.5355 99.5129 67.1686 99.0042C65.4916 103.027 66.7163 107.757 70.2607 110.439C70.9289 110.176 71.6962 110.211 72.4248 110.164C73.24 110.107 74.1412 109.87 74.5468 109.159C74.814 108.672 74.7792 108.046 74.5468 107.533Z" fill="#0AABE0"/>
<path d="M83.0927 96.0072C83.0409 96.21 83.0067 96.4168 82.9286 96.5854C82.7088 97.077 82.3425 97.5077 81.864 97.7709C81.5535 97.9389 81.2083 98.0471 80.9024 98.2192C80.5959 98.3963 80.3117 98.6635 80.2467 99.0127C80.1522 99.5391 80.5703 100.004 80.9366 100.392C81.6008 101.095 82.2086 101.872 82.5709 102.768C82.9332 103.666 83.0278 104.7 82.6746 105.597C82.433 106.214 81.9973 106.739 81.7472 107.356C81.5017 107.96 81.4498 108.642 81.6008 109.275C81.6914 109.654 81.864 110.025 82.1226 110.314C82.9247 109.681 83.6401 108.909 84.2309 108.003C86.7408 104.153 86.154 99.1853 83.0927 96.0072Z" fill="#0AABE0"/>
<path d="M72.4983 93.7349C72.7096 94.1747 73.1796 94.4595 73.6627 94.5632C74.1885 94.6794 74.7359 94.6144 75.2754 94.5757C75.8142 94.537 76.3748 94.5244 76.8749 94.7267C77.276 94.8907 77.6337 95.1881 78.065 95.2314C78.6038 95.2832 79.0869 94.934 79.5096 94.5973C79.7551 94.4037 80.0137 94.1923 80.1647 93.9246C77.6941 92.7819 74.917 92.7648 72.4983 93.7349Z" fill="#0AABE0"/>
<path d="M81.7859 110.604C81.8895 110.525 81.9932 110.448 82.0963 110.366C79.7123 109.172 77.0087 107.628 74.1024 105.739C71.2307 103.872 68.7425 102.044 66.7031 100.367C66.6684 100.492 66.6382 100.621 66.6125 100.746C68.7943 102.527 71.3168 104.364 73.9041 106.046C76.5171 107.749 79.2509 109.327 81.7859 110.604Z" fill="white"/>
<path d="M141.634 111.757C144.896 110.158 146.243 106.218 144.645 102.958C143.047 99.6964 139.107 98.348 135.846 99.9465C132.585 101.545 131.237 105.484 132.835 108.745C134.433 112.007 138.373 113.354 141.634 111.757Z" fill="#E61E64"/>
<path d="M144.83 103.416C144.567 102.764 144.214 102.169 143.782 101.652C142.894 101.919 141.963 102.083 141.045 102.212C139.247 102.458 137.414 102.579 135.672 103.087C134.357 103.476 133.219 104.105 132.214 105.011C132.128 105.67 132.136 106.352 132.261 107.033C133.05 106.524 133.951 106.175 134.866 105.942C136.336 105.571 137.858 105.477 139.363 105.295C140.868 105.11 142.39 104.829 143.731 104.114C144.114 103.907 144.477 103.67 144.83 103.416Z" fill="#A8023D"/>
<path d="M144.701 108.598C145.02 107.9 145.218 107.15 145.279 106.369C143.248 107.49 140.954 108.142 138.63 108.228C137.423 108.271 136.198 108.172 135.025 108.461C134.352 108.663 133.723 108.931 133.206 109.422C133.667 110.138 134.258 110.745 134.934 111.225C136.284 111.371 137.638 111.591 138.992 111.393C140.441 111.181 141.782 110.508 143.015 109.724C143.589 109.366 144.145 108.982 144.701 108.598Z" fill="#A8023D"/>
<path d="M140.17 100.083C140.282 100.457 140.071 100.854 139.695 100.967C139.32 101.079 138.923 100.868 138.811 100.492C138.699 100.117 138.91 99.7203 139.286 99.6081C139.661 99.4959 140.057 99.7072 140.17 100.083Z" fill="#A8023D"/>
<path d="M138.85 101.173C138.889 101.303 138.816 101.436 138.686 101.475C138.557 101.514 138.423 101.441 138.384 101.311C138.346 101.182 138.419 101.048 138.548 101.009C138.673 100.975 138.811 101.044 138.85 101.173Z" fill="#A8023D"/>
<path d="M140.687 101.355C140.76 101.6 140.622 101.859 140.377 101.932C140.13 102.006 139.872 101.868 139.798 101.622C139.725 101.376 139.863 101.117 140.109 101.044C140.355 100.971 140.613 101.108 140.687 101.355Z" fill="#A8023D"/>
<path d="M75.5061 5.08836C73.6473 5.57997 71.6644 4.98924 69.9782 4.06646C68.292 3.148 66.8001 1.90621 65.1316 0.957568C64.2993 0.483274 63.4027 0.0736361 62.4451 0.00898037C61.492 -0.0600389 60.4661 0.26766 59.8885 1.03088C59.0949 2.07865 59.3883 3.68268 60.2895 4.63993C61.1907 5.59717 62.5442 6.00681 63.855 6.11032C64.3853 6.15344 64.9333 6.15344 65.4249 6.35179C65.9165 6.55015 66.3563 7.01151 66.3301 7.54186C66.2874 8.45598 65.0712 8.77505 64.17 8.61982C60.5738 8.00322 58.3185 4.26914 54.8994 2.9971C54.1663 2.72543 53.3602 2.5702 52.5923 2.72543C51.825 2.88066 51.0964 3.38088 50.8201 4.11818C50.5057 4.95905 50.8378 5.9335 51.4371 6.60187C52.0363 7.27019 52.8641 7.67983 53.6878 8.03774C54.8521 8.54223 56.0507 8.9648 57.2755 9.30112C58.0559 9.51674 59.026 9.93065 58.9782 10.737C58.9394 11.3665 58.2496 11.7546 57.6201 11.8279C56.4859 11.9616 55.3608 11.483 54.4033 10.8534C53.4462 10.2238 52.5969 9.44342 51.6091 8.86562C50.6219 8.28349 49.4364 7.9127 48.3325 8.21024C47.2285 8.50771 46.3143 9.65471 46.5817 10.7672C46.7973 11.6554 47.6596 12.2505 48.5347 12.5006C49.1471 12.673 49.7896 12.7161 50.4191 12.7765C51.0662 12.8369 51.6182 13.0525 52.2602 13.156C52.61 13.212 52.9894 13.3543 53.1312 13.6734C53.2309 13.8933 53.1962 14.1563 53.0668 14.359C52.6442 15.0446 51.2559 14.8807 50.5746 14.829C49.7896 14.7686 49.0092 14.6306 48.2248 14.635C47.043 14.6436 45.8486 14.9929 44.9043 15.7043C43.9643 16.4201 43.2917 17.5153 43.1882 18.6925C43.1321 19.3004 43.2313 19.9171 43.4599 20.4819C44.0118 21.8315 45.5037 22.1161 46.793 21.7194C47.6683 21.4521 48.4356 20.9217 49.1647 20.3698C49.8415 19.8567 50.5057 19.3565 51.2343 18.921C51.9241 18.5027 52.5063 18.0931 53.3511 18.0327C53.653 18.0112 53.9766 18.0371 54.2136 18.2181C54.4511 18.395 54.5628 18.7054 54.5628 18.9986C54.5628 19.6282 54.3303 20.2275 54.0415 20.7708C53.8302 21.1675 53.6359 21.5944 53.649 22.0385C53.6661 22.7629 54.2483 23.4011 54.9467 23.5994C56.0507 23.9099 57.0465 23.3192 57.685 22.4395C58.0126 21.9868 58.2023 21.4995 58.392 20.9821C58.6683 20.2405 58.6722 19.6411 58.556 18.8477C58.4655 18.2311 58.3789 17.5886 58.5817 17.0022C58.7799 16.4115 59.3621 15.9027 59.9745 16.0062C60.3151 16.0622 60.6085 16.2951 60.7805 16.5969C61.173 17.2738 60.9492 17.9077 60.7464 18.5933C60.5179 19.3824 60.4701 20.2405 60.7378 21.0166C61.005 21.7927 61.6128 22.4697 62.3932 22.7112C63.7991 23.1467 65.3213 22.0342 65.83 20.6544C66.3387 19.2703 66.0886 17.7353 65.7479 16.3037C65.597 15.6785 65.4289 15.0317 65.5582 14.4021C65.6665 13.8804 66.1364 13.0741 66.7357 13.0353C67.3783 12.9921 67.969 13.7984 68.1712 14.3072C68.439 14.9886 68.439 15.7388 68.4732 16.4718C68.5506 18.0629 69.4695 20.3095 71.4052 20.2793C72.6949 20.2577 73.6131 18.99 74.0096 17.7611C74.9239 14.9109 74.2472 11.6209 75.6742 8.98633C76.045 8.30075 76.5583 7.66263 76.6876 6.89507C76.83 6.11892 76.2603 4.89006 75.5061 5.08836Z" fill="url(#paint2_linear)"/>
<path d="M85.807 5.94654C84.4484 7.76613 82.1761 8.67598 79.9385 9.0597C77.7003 9.4478 75.4108 9.39608 73.1687 9.741C72.0522 9.91349 70.918 10.1938 69.9866 10.8319C69.0552 11.4701 68.3437 12.5265 68.3653 13.6562C68.3995 15.2128 69.8487 16.4762 71.3879 16.7004C72.9271 16.9246 74.4794 16.308 75.7686 15.4414C76.2904 15.0921 76.7991 14.6911 77.3989 14.5143C78.0022 14.3375 78.7439 14.441 79.1107 14.9498C79.7402 15.8251 78.8476 17.0152 77.9031 17.5326C74.1217 19.6023 69.2922 17.8 65.1918 19.1323C64.3123 19.4169 63.4538 19.8654 62.8545 20.5725C62.2552 21.2797 61.9533 22.2801 62.2381 23.164C62.5611 24.173 63.5877 24.8327 64.6313 25.0095C65.6749 25.1863 66.7441 24.9577 67.7701 24.6861C69.2193 24.298 70.6377 23.8064 72.0174 23.2244C72.897 22.8535 74.1001 22.5215 74.6475 23.302C75.0747 23.9143 74.7164 24.781 74.1906 25.307C73.2376 26.2643 71.8448 26.6437 70.4953 26.7644C69.1498 26.8851 67.7877 26.786 66.4462 26.9757C65.1098 27.1611 63.7386 27.6872 62.932 28.7738C62.1299 29.8604 62.1259 31.5938 63.1866 32.426C64.036 33.09 65.2738 33.0081 66.2696 32.5942C66.964 32.3052 67.5889 31.8741 68.2184 31.4644C68.8609 31.0462 69.5337 30.8392 70.2019 30.4684C70.5688 30.2657 71.0211 30.1191 71.3919 30.3088C71.642 30.4382 71.8061 30.7099 71.8363 30.9901C71.9485 31.9345 70.5426 32.8055 69.8698 33.2539C69.0985 33.7713 68.2748 34.2197 67.5502 34.8019C66.4593 35.6772 65.6099 36.8759 65.2647 38.2298C64.9201 39.5838 65.1052 41.0886 65.8731 42.2572C66.2696 42.8608 66.813 43.361 67.438 43.7146C68.939 44.5597 70.53 43.7275 71.4312 42.4124C72.043 41.5198 72.3666 40.4677 72.6338 39.4199C72.8839 38.4497 73.1345 37.4968 73.4837 36.5568C73.8198 35.6642 74.0568 34.8579 74.7945 34.1809C75.0571 33.9395 75.3721 33.7282 75.7298 33.7196C76.079 33.7109 76.4111 33.9136 76.627 34.1853C77.0925 34.7673 77.3169 35.496 77.4462 36.2119C77.5408 36.7336 77.6746 37.2682 78.0153 37.6779C78.5627 38.3376 79.5722 38.5015 80.3651 38.1694C81.6155 37.6477 82.1071 36.3671 82.0467 35.0865C82.0166 34.4267 81.8354 33.836 81.6332 33.2194C81.3444 32.3311 80.9086 31.7706 80.2187 31.1195C79.6838 30.615 79.1318 30.0846 78.8863 29.3904C78.6408 28.7005 78.8043 27.7993 79.4468 27.4414C79.8006 27.2431 80.2489 27.2431 80.6283 27.394C81.4862 27.7303 81.7448 28.4849 82.0644 29.2697C82.4307 30.1665 83.0169 30.9944 83.8366 31.5162C84.6512 32.0379 85.7119 32.2233 86.6176 31.8697C88.2389 31.2402 88.8296 29.0929 88.2862 27.4414C87.7427 25.7857 86.3847 24.5481 85.0135 23.4745C84.4142 23.0088 83.7848 22.5301 83.4441 21.8532C83.1593 21.2926 83.0043 20.1974 83.5301 19.7231C84.0907 19.2143 85.2334 19.5204 85.7939 19.8482C86.5402 20.2837 87.0922 20.9778 87.6613 21.6289C88.8985 23.0433 91.3993 24.449 93.1715 23.0002C94.353 22.0343 94.271 20.1845 93.7321 18.7572C92.4862 15.4457 89.442 12.8973 88.8296 9.40901C88.6701 8.50349 88.6741 7.53331 88.2303 6.72696C87.7906 5.92495 86.359 5.20485 85.807 5.94654Z" fill="url(#paint3_linear)"/>
<path d="M62.0632 136.833C61.0156 134.379 59.7994 132.003 58.4197 129.718C58.0921 129.175 57.7423 128.623 57.2336 128.243C56.6002 127.769 55.7765 127.609 54.9829 127.605C54.0601 127.596 53.1373 127.777 52.2839 128.127C52.068 128.217 51.8265 128.351 51.7838 128.58C51.749 128.765 51.8652 128.955 52.0253 129.059C52.1848 129.162 52.3745 129.196 52.5642 129.222C53.1373 129.3 53.7194 129.304 54.276 129.464C54.832 129.623 55.3754 129.968 55.5782 130.507C55.0866 130.352 54.5648 130.313 54.0476 130.313C53.9393 130.313 53.8317 130.318 53.7371 130.365C53.642 130.412 53.5645 130.511 53.577 130.619C53.5947 130.74 53.7109 130.813 53.8146 130.87C54.7158 131.361 55.6774 131.753 56.6646 132.029C57.1345 132.547 57.3806 133.31 57.5572 133.987C57.7298 134.664 57.8244 135.358 58.0101 136.031C58.1952 136.703 58.4801 137.372 58.9757 137.863C59.4718 138.355 60.205 138.652 60.8817 138.489C61.567 138.325 62.3389 137.475 62.0632 136.833Z" fill="#FFB77D"/>
<path d="M62.0633 136.833C61.6366 135.832 61.1752 134.854 60.6921 133.879C60.2045 134.207 59.653 134.422 59.0709 134.517C58.6134 134.591 58.152 134.595 57.6912 134.56C57.7943 135.056 57.8809 135.552 58.0142 136.039C58.1999 136.712 58.4841 137.38 58.9803 137.872C59.4759 138.363 60.209 138.661 60.8858 138.497C61.5671 138.325 62.339 137.475 62.0633 136.833Z" fill="#F0974F"/>
<path d="M14.5675 163.808L12.5625 167.857L16.068 167.878L17.547 164.684L14.5675 163.808Z" fill="#FFB77D"/>
<path d="M51.2444 148.729C46.2213 145.06 40.7021 142.067 34.8853 139.86C32.6819 139.023 30.2414 138.29 27.9992 139.019C25.7182 139.756 24.1659 141.826 22.8637 143.835C18.5906 150.424 15.3265 157.668 13.2266 165.235C14.4468 165.753 16.0983 166.279 17.4221 166.231C21.3761 159.798 24.5065 155.823 27.3222 150.087C34.3248 150.42 41.4265 150.497 48.4292 150.834C49.2182 150.872 50.0504 150.898 50.7403 150.515C51.4347 150.131 51.883 149.195 51.2444 148.729Z" fill="url(#paint4_linear)"/>
<path d="M9.7683 167.952C9.03527 168.146 8.26344 168.37 7.75896 168.93C7.44417 169.284 7.26307 169.81 7.4657 170.241C7.62093 170.573 7.97452 170.781 8.3367 170.854C8.69462 170.927 9.06973 170.888 9.43625 170.858C11.0877 170.711 12.7521 170.677 14.4079 170.751C14.9598 170.776 15.5204 170.811 16.0507 170.664C16.5811 170.518 17.0899 170.147 17.2322 169.616C17.3357 169.237 17.2451 168.831 17.1546 168.448C17.064 168.059 16.9433 167.633 16.6113 167.413C16.3785 167.257 16.0809 167.24 15.8007 167.227C15.2703 167.202 14.7399 167.176 14.2096 167.15C13.787 167.128 13.2954 167.02 12.8858 167.116C11.838 167.357 10.8031 167.672 9.7683 167.952Z" fill="#0D0B30"/>
<path d="M17.2623 169.414C13.9939 169.893 10.6824 170.044 7.38379 169.854C7.38379 169.988 7.40965 170.117 7.46571 170.242C7.62094 170.574 7.97452 170.781 8.33671 170.854C8.69462 170.928 9.06974 170.889 9.43625 170.859C11.0877 170.712 12.7521 170.678 14.4079 170.751C14.9598 170.777 15.5203 170.811 16.0507 170.664C16.5811 170.518 17.0899 170.147 17.2322 169.617C17.2494 169.548 17.2537 169.483 17.2623 169.414Z" fill="#D4E4EB"/>
<path d="M9.5185 168.017C8.86311 168.198 8.20772 168.431 7.75929 168.931C7.4531 169.276 7.27633 169.785 7.4531 170.207C8.29391 170.263 9.13905 170.319 9.97991 170.376C10.1825 169.776 10.1394 169.099 9.86348 168.534C9.7729 168.349 9.65652 168.176 9.5185 168.017Z" fill="#D4E4EB"/>
<path d="M3.11529 155.672L6.75453 154.11L6.72007 157.103L2.74878 158.565L3.11529 155.672Z" fill="#FFB77D"/>
<path d="M30 146.642C27.318 146.897 14.904 150.032 4.99521 154.442C4.81412 155.663 5.10299 156.914 6.3707 157.78C16.6115 154.378 24.3341 155.594 29.7887 152.502C42.5434 154.865 45.1434 160.91 58.4546 159.901C59.4851 159.824 60.4467 159.289 61.2875 158.694C62.1283 158.095 62.8096 157.206 62.956 156.189C63.0984 155.227 62.7578 154.244 62.2098 153.442C61.6623 152.64 60.9252 151.989 60.1789 151.368C58.8551 150.265 57.4628 149.208 55.8803 148.527C54.2978 147.845 31.6213 146.491 30 146.642Z" fill="url(#paint5_linear)"/>
<path opacity="0.54" d="M62.2141 153.438C61.6667 152.636 60.929 151.985 60.1833 151.364C58.8594 150.26 57.4666 149.203 55.8841 148.523C55.4273 148.324 53.2022 148.074 50.2315 147.815C49.3861 149.191 49.5889 151.601 49.7917 152.864C50.0458 154.46 50.6883 155.978 51.581 157.327C53.1287 159.668 56.9363 160.009 58.4584 159.897C59.4889 159.819 60.4505 159.285 61.2913 158.69C62.1321 158.09 62.8134 157.202 62.9598 156.184C63.0982 155.223 62.7576 154.24 62.2141 153.438Z" fill="#232563"/>
<path d="M70.489 119.533C70.4975 122.34 72.7699 125.816 73.8476 128.407C72.0065 129.162 70.023 129.209 68.195 128.425C67.9836 127.45 68.1602 123.902 67.6561 123.039C68.6 121.978 66.4268 121.262 67.3667 120.202C68.048 119.443 69.8162 120.288 70.489 119.533Z" fill="#FFB77D"/>
<path d="M53.504 146.142C52.3613 146.59 50.5458 147.095 50.4683 148.315C50.4034 149.333 55.9832 163.174 64.5422 157.043C75.8225 148.966 76.4258 136.552 74.7402 128.989C74.5636 128.205 73.3947 127.575 72.9594 127.558C65.2497 127.221 63.6325 134.077 62.9899 135.88C60.1616 143.809 58.6047 144.128 53.504 146.142Z" fill="url(#paint6_linear)"/>
<path opacity="0.51" d="M61.8562 138.799C60.7654 141.334 59.7821 142.735 58.5403 143.715C61.6705 143.719 64.8139 143.188 67.5653 141.726C68.863 141.037 70.0444 140.127 71.0317 139.041C71.877 138.113 75.1497 133.883 72.2348 133.659C70.9804 133.564 69.7898 134.703 68.8242 135.362C67.5693 136.22 66.3149 137.087 64.9221 137.708C63.9343 138.148 62.8867 138.454 61.8562 138.799Z" fill="#5F9E09"/>
<path d="M45.8937 135.626C46.036 135.388 45.9799 135.086 45.7557 134.923C44.4276 133.944 40.0381 130.675 37.9468 128.821C37.7226 128.623 37.6364 128.308 37.7269 128.019L40.4046 118.757C40.5081 118.434 40.3831 118.084 40.1071 117.895C39.6932 117.614 39.1283 117.791 38.9558 118.261C37.99 120.913 36.2738 124.233 35.6098 129.166C35.5796 129.39 40.2106 132.607 45.1434 135.789C45.3935 135.957 45.7384 135.88 45.8937 135.626Z" fill="#0D0B30"/>
<path d="M3.33932 151.799C3.21428 151.054 3.06765 150.26 2.55456 149.704C2.23111 149.354 1.72663 149.126 1.2782 149.285C0.933271 149.411 0.696124 149.743 0.588288 150.092C0.480509 150.441 0.484839 150.816 0.48051 151.183C0.467579 152.843 0.346812 154.499 0.113994 156.142C0.0363501 156.689 -0.0541681 157.245 0.0406794 157.789C0.135527 158.332 0.45892 158.871 0.972064 159.065C1.33858 159.203 1.75249 159.151 2.1406 159.099C2.5373 159.044 2.9728 158.97 3.22288 158.655C3.39965 158.435 3.44277 158.142 3.48589 157.866C3.56354 157.34 3.63685 156.814 3.71444 156.288C3.77482 155.87 3.93005 155.391 3.874 154.977C3.7317 153.917 3.51608 152.86 3.33932 151.799Z" fill="#0D0B30"/>
<path d="M1.17042 159.121C1.00226 155.823 1.17042 152.512 1.67057 149.248C1.53693 149.235 1.40756 149.248 1.2782 149.29C0.933271 149.416 0.696124 149.748 0.588288 150.097C0.48051 150.446 0.484839 150.821 0.48051 151.188C0.467579 152.848 0.346812 154.504 0.113994 156.146C0.0363501 156.694 -0.0541681 157.25 0.0406794 157.794C0.135527 158.337 0.45892 158.876 0.972065 159.07C1.03672 159.096 1.10143 159.104 1.17042 159.121Z" fill="#D4E4EB"/>
<path d="M3.29644 151.545C3.17567 150.876 3.01184 150.2 2.55475 149.704C2.24001 149.363 1.75273 149.139 1.31296 149.277C1.17493 150.109 1.04129 150.941 0.90332 151.778C1.48112 152.037 2.1581 152.058 2.74883 151.838C2.94285 151.765 3.12395 151.666 3.29644 151.545Z" fill="#D4E4EB"/>
<path d="M68.4235 129.86C67.2637 130.675 66.4098 131.84 65.5001 132.926C64.5858 134.008 60.6489 137.268 59.4674 136.613C53.4393 133.28 50.5894 133.353 47.5193 130.736C46.7992 131.313 46.2472 131.576 45.9238 132.585C48.4161 134.673 57.5055 142.046 60.7093 141.473C63.189 141.028 67.8801 138.04 69.7816 136.388C70.5016 135.763 71.1789 135.074 71.6614 134.25C72.1405 133.426 72.4117 132.456 72.2653 131.512C72.1229 130.572 71.5196 129.675 70.6395 129.317C69.7559 128.959 69.2039 129.313 68.4235 129.86Z" fill="#FFB77D"/>
<path d="M64.0121 140.916C66.7288 140.523 70.3683 138.1 71.8511 136.621C73.2957 135.181 74.0807 133.383 74.0847 131.585C74.0847 130.986 73.9941 130.369 73.6449 129.86C73.1106 129.08 72.0066 128.636 70.881 128.597C69.7513 128.558 68.6132 128.89 67.626 129.39C65.5302 130.455 62.1624 133.84 60.7827 135.505C60.977 137.66 62.2359 139.838 64.0121 140.916Z" fill="url(#paint7_linear)"/>
<path d="M46.7947 128.11C46.2298 127.743 45.5658 127.571 44.9017 127.472C44.0695 127.347 43.1942 127.325 42.4137 127.644C42.1852 127.739 41.948 127.886 41.8877 128.123C41.8359 128.317 41.9222 128.528 42.0645 128.679C42.2025 128.826 42.3879 128.92 42.569 129.011C43.0907 129.269 43.9531 129.809 44.5007 130.011C44.5912 132.525 46.2039 132.87 46.6868 132.986C47.2215 133.116 47.7993 132.874 48.1659 132.469C48.5367 132.055 47.7433 128.722 46.7947 128.11Z" fill="#FFB77D"/>
<path d="M68.0614 126.337C68.4151 126.225 68.6994 125.911 68.8891 125.592C69.2474 124.979 69.4069 124.255 69.342 123.552C69.3289 123.401 69.3032 123.25 69.2212 123.125C69.1392 123 68.9928 122.91 68.8418 122.935C68.4841 123 68.1605 123.682 67.9275 124.112C68.0055 124.763 68.0357 125.574 68.0614 126.337Z" fill="#F0974F"/>
<path d="M62.197 119.344C62.3263 120.68 62.7097 121.974 63.1495 123.241C63.3608 123.858 63.6069 124.496 64.1071 124.914C64.728 125.432 65.6377 125.497 66.4011 125.238C67.1638 124.979 67.8024 124.436 68.3499 123.845C69.3331 122.78 70.0919 121.491 70.3978 120.077C70.7043 118.662 70.5277 117.123 69.7814 115.885C69.0357 114.648 67.6857 113.751 66.2416 113.682C64.8829 113.618 63.5807 114.346 62.8088 115.45C62.0848 116.485 62.0848 118.141 62.197 119.344Z" fill="#FFB77D"/>
<path d="M60.5241 117.058C61.6367 117.545 62.5937 118.636 66.5995 116.748C66.677 117.787 66.3454 121.616 70.9158 121.892C71.3988 120.499 71.8517 118.119 71.8255 117.248C71.7999 116.355 71.5971 115.441 71.0536 114.734C70.5107 114.027 69.8334 113.527 68.967 113.747C68.652 113.108 68.0396 112.643 67.3628 112.432C66.6861 112.22 65.9182 112.298 65.2973 112.643C64.8273 112.902 64.465 113.316 63.995 113.579C63.5684 113.82 60.0844 116.864 60.5241 117.058Z" fill="#0D0B30"/>
<path d="M59.8643 112.168C58.885 112.388 58.161 113.337 58.083 114.338C58.0055 115.338 58.5142 116.33 59.2906 116.963C60.0665 117.597 61.0799 117.895 62.0802 117.929C63.0806 117.964 64.0769 117.748 65.0299 117.446C66.0126 117.136 67.0305 116.679 67.5524 115.791C67.9403 115.127 67.9876 114.277 67.6686 113.579C67.427 113.048 66.8927 112.401 66.2587 112.388C65.681 112.376 65.1028 112.764 64.5469 112.884C63.7664 113.052 63.0247 112.837 62.2876 112.583C61.5112 112.311 60.692 111.983 59.8643 112.168Z" fill="#0D0B30"/>
<path d="M68.7855 119.533C68.7855 120.253 68.2677 120.836 67.6251 120.836C66.9871 120.836 66.4653 120.253 66.4653 119.533C66.4653 118.813 66.9831 118.231 67.6251 118.231C68.2637 118.231 68.7855 118.813 68.7855 119.533Z" fill="#FFB77D"/>
<path d="M63.6589 120.029L63.6116 119.934L67.1081 118.184L67.156 118.279L63.6589 120.029Z" fill="#0D0B30"/>
<path d="M63.909 120.21C64.1112 121.111 63.8486 121.935 63.3223 122.056C62.7965 122.177 62.2012 121.543 61.9984 120.641C61.7962 119.74 62.0588 118.916 62.5851 118.796C63.1155 118.679 63.7062 119.309 63.909 120.21Z" fill="white"/>
<path d="M49.5286 98.4568C51.1282 94.5974 51.7623 90.247 50.7403 86.1939C49.7138 82.1402 46.8897 78.458 43.0004 76.9319C40.7107 76.0307 37.7182 76.078 36.209 78.0267C35.1009 79.4583 35.144 81.5153 35.7865 83.21C36.429 84.9042 37.5803 86.3443 38.5936 87.8453C40.2364 90.2771 41.5731 92.9676 42.0992 95.8524C42.5691 98.4306 42.3536 101.186 41.2109 103.571C40.5943 104.856 38.2443 107.551 40.6288 108.249C44.738 109.448 48.4463 101.074 49.5286 98.4568Z" fill="#9B0260"/>
<path d="M37.8476 115.209C39.2336 115.209 40.3572 114.085 40.3572 112.699C40.3572 111.313 39.2336 110.189 37.8476 110.189C36.4617 110.189 35.3381 111.313 35.3381 112.699C35.3381 114.085 36.4617 115.209 37.8476 115.209Z" fill="#AB026A"/>
<path d="M95.6488 153.986C97.1106 154.451 98.6498 154.839 99.8398 155.801C101.03 156.767 101.75 158.535 100.996 159.867C100.241 161.199 98.4686 161.497 96.938 161.484C92.6217 161.445 88.2969 160.057 84.8949 157.405C81.4884 154.753 79.0565 150.829 78.3923 146.569C78.0647 144.477 79.2679 143.249 81.3243 144.206C82.6613 144.827 83.1312 146.194 84.0712 147.237C86.969 150.458 91.5866 152.687 95.6488 153.986Z" fill="#6A2484"/>
<defs>
<linearGradient id="paint0_linear" x1="49.7348" y1="2.96848" x2="116.996" y2="154.551" gradientUnits="userSpaceOnUse">
<stop stop-color="#FF5900"/>
<stop offset="0.152898" stop-color="#D83C48"/>
<stop offset="0.482414" stop-color="#BD179B"/>
<stop offset="1" stop-color="#4D023D"/>
</linearGradient>
<linearGradient id="paint1_linear" x1="63.6398" y1="59.2236" x2="84.9922" y2="67.6522" gradientUnits="userSpaceOnUse">
<stop stop-color="#F0FF5E"/>
<stop offset="1" stop-color="#D100A6"/>
</linearGradient>
<linearGradient id="paint2_linear" x1="39.9886" y1="16.0352" x2="60.3761" y2="11.8532" gradientUnits="userSpaceOnUse">
<stop stop-color="#F9DF18"/>
<stop offset="1" stop-color="#4DC106"/>
</linearGradient>
<linearGradient id="paint3_linear" x1="67.2397" y1="57.3813" x2="85.0938" y2="-1.15561" gradientUnits="userSpaceOnUse">
<stop stop-color="#F9DF18"/>
<stop offset="1" stop-color="#4DC106"/>
</linearGradient>
<linearGradient id="paint4_linear" x1="12.9088" y1="146.311" x2="31.7642" y2="156.331" gradientUnits="userSpaceOnUse">
<stop stop-color="#4654A3"/>
<stop offset="0.3501" stop-color="#394693"/>
<stop offset="1" stop-color="#18256B"/>
</linearGradient>
<linearGradient id="paint5_linear" x1="7.90011" y1="164.714" x2="60.4974" y2="147.558" gradientUnits="userSpaceOnUse">
<stop stop-color="#4654A3"/>
<stop offset="0.5196" stop-color="#3A4893"/>
<stop offset="1" stop-color="#2D3A80"/>
</linearGradient>
<linearGradient id="paint6_linear" x1="50.4678" y1="143.077" x2="75.4431" y2="143.077" gradientUnits="userSpaceOnUse">
<stop stop-color="#F9DF18"/>
<stop offset="1" stop-color="#4DC106"/>
</linearGradient>
<linearGradient id="paint7_linear" x1="70.8963" y1="139.476" x2="65.2904" y2="130.205" gradientUnits="userSpaceOnUse">
<stop stop-color="#F9DF18"/>
<stop offset="1" stop-color="#4DC106"/>
</linearGradient>
</defs>
</svg>
