<svg width="201" height="136" viewBox="0 0 201 136" fill="none" xmlns="http://www.w3.org/2000/svg">
<path d="M118.373 114.161H80.4939V124.341H118.373V114.161Z" fill="#21397D"/>
<path d="M165.289 30.194V110.393C165.289 114.313 162.112 117.486 158.189 117.486H41.0845C37.1609 117.486 33.9844 114.313 33.9844 110.393V30.194C33.9844 26.274 37.1609 23.1002 41.0845 23.1002H158.189C162.105 23.1002 165.289 26.274 165.289 30.194Z" fill="#2C49AA"/>
<path d="M156.92 108.429H41.9477C39.5762 108.429 37.6543 106.509 37.6543 104.139V33.2518C37.6543 30.8824 39.5762 28.9622 41.9477 28.9622H156.92C159.291 28.9622 161.213 30.8824 161.213 33.2518V104.132C161.22 106.502 159.298 108.429 156.92 108.429Z" fill="#AAC7F9"/>
<path d="M134.655 129.87H64.2124V128.986C64.2124 125.928 66.6927 123.457 69.746 123.457H129.107C132.167 123.457 134.64 125.935 134.64 128.986V129.87H134.655Z" fill="#2C49AA"/>
<path d="M42.6729 105.907L54.9801 75.1989L69.6444 98.4513L84.5843 56.555L95.1801 88.5098L106.32 63.9966L121.753 94.082L131.703 53.0117L145.062 100.625L150.124 76.6119L156.056 105.907H42.6729Z" fill="#D9E8FF"/>
<path d="M158.414 34.0924H46.6689V36.2517H158.414V34.0924Z" fill="#D9E8FF"/>
<path d="M146.237 39.5849H46.6689V41.7442H146.237V39.5849Z" fill="#D9E8FF"/>
<path d="M158.414 45.0773H67.7083V47.2366H158.414V45.0773Z" fill="#D9E8FF"/>
<path d="M158.414 50.577H67.7083V52.7363H158.414V50.577Z" fill="#D9E8FF"/>
<path d="M145.461 56.0695H67.7083V58.2288H145.461V56.0695Z" fill="#D9E8FF"/>
<path d="M65.5251 43.5919H46.6689V62.4315H65.5251V43.5919Z" fill="#D9E8FF"/>
<path d="M170.749 123.457C170.749 127.428 167.529 130.652 163.548 130.652C159.573 130.652 156.346 127.435 156.346 123.457C156.346 119.486 159.566 116.262 163.548 116.262C167.529 116.262 170.749 119.479 170.749 123.457Z" fill="#3C57AB"/>
<path d="M163.548 117.726C160.386 117.726 157.819 120.298 157.819 123.45C157.819 126.609 160.393 129.174 163.548 129.174C166.703 129.174 169.278 126.602 169.278 123.45C169.285 120.298 166.71 117.726 163.548 117.726ZM163.548 126.044C162.112 126.044 160.952 124.885 160.952 123.45C160.952 122.015 162.112 120.856 163.548 120.856C164.984 120.856 166.145 122.015 166.145 123.45C166.145 124.885 164.984 126.044 163.548 126.044Z" fill="#C3D4FB"/>
<path d="M175.674 126.008C175.848 125.182 175.943 124.327 175.943 123.45C175.943 122.573 175.848 121.718 175.674 120.892H172.817C172.606 120.117 172.295 119.385 171.91 118.704L173.926 116.689C172.984 115.248 171.751 114.016 170.307 113.074L168.291 115.088C167.61 114.704 166.877 114.392 166.101 114.182V111.327C165.274 111.154 164.419 111.059 163.541 111.059C162.663 111.059 161.808 111.154 160.981 111.327V114.182C160.205 114.392 159.472 114.704 158.791 115.088L156.775 113.074C155.331 114.016 154.098 115.248 153.156 116.689L155.172 118.704C154.787 119.385 154.476 120.117 154.265 120.892H151.408C151.234 121.718 151.139 122.573 151.139 123.45C151.139 124.327 151.234 125.182 151.408 126.008H154.265C154.476 126.783 154.787 127.515 155.172 128.196L153.156 130.21C154.098 131.652 155.331 132.884 156.775 133.826L158.791 131.812C159.472 132.196 160.205 132.507 160.981 132.718V135.573C161.808 135.746 162.663 135.841 163.541 135.841C164.419 135.841 165.274 135.746 166.101 135.573V132.718C166.877 132.507 167.61 132.196 168.291 131.812L170.307 133.826C171.751 132.884 172.984 131.652 173.926 130.21L171.91 128.196C172.295 127.515 172.606 126.783 172.817 126.008H175.674ZM163.548 129.913C159.98 129.913 157.079 127.015 157.079 123.45C157.079 119.885 159.98 116.987 163.548 116.987C167.116 116.987 170.017 119.885 170.017 123.45C170.017 127.015 167.116 129.913 163.548 129.913Z" fill="#D9E8FF"/>
<path d="M146.396 117.726C146.396 120.109 144.46 122.044 142.074 122.044C139.688 122.044 137.751 120.109 137.751 117.726C137.751 115.342 139.688 113.407 142.074 113.407C144.46 113.407 146.396 115.342 146.396 117.726Z" fill="#3C57AB"/>
<path d="M142.074 114.284C140.174 114.284 138.629 115.827 138.629 117.726C138.629 119.624 140.174 121.167 142.074 121.167C143.974 121.167 145.519 119.624 145.519 117.726C145.519 115.827 143.974 114.284 142.074 114.284ZM142.074 119.283C141.211 119.283 140.515 118.588 140.515 117.726C140.515 116.863 141.211 116.168 142.074 116.168C142.937 116.168 143.633 116.863 143.633 117.726C143.633 118.588 142.937 119.283 142.074 119.283Z" fill="#C3D4FB"/>
<path d="M149.355 119.262C149.457 118.769 149.515 118.255 149.515 117.726C149.515 117.197 149.457 116.689 149.355 116.189H147.636C147.506 115.726 147.324 115.284 147.092 114.878L148.304 113.668C147.738 112.806 146.998 112.059 146.135 111.501L144.924 112.711C144.518 112.48 144.075 112.298 143.611 112.168V110.451C143.118 110.349 142.603 110.291 142.074 110.291C141.544 110.291 141.037 110.349 140.536 110.451V112.168C140.072 112.298 139.63 112.48 139.224 112.711L138.012 111.501C137.149 112.067 136.402 112.806 135.844 113.668L137.055 114.878C136.823 115.284 136.642 115.726 136.511 116.189H134.792C134.691 116.682 134.633 117.197 134.633 117.726C134.633 118.255 134.691 118.762 134.792 119.262H136.511C136.642 119.726 136.823 120.168 137.055 120.573L135.844 121.783C136.41 122.646 137.149 123.392 138.012 123.95L139.224 122.74C139.63 122.972 140.072 123.153 140.536 123.283V125.001C141.029 125.102 141.544 125.16 142.074 125.16C142.603 125.16 143.111 125.102 143.611 125.001V123.283C144.075 123.153 144.518 122.972 144.924 122.74L146.135 123.95C146.998 123.385 147.745 122.646 148.304 121.783L147.092 120.573C147.324 120.168 147.506 119.726 147.636 119.262H149.355ZM142.074 121.609C139.934 121.609 138.186 119.87 138.186 117.726C138.186 115.588 139.927 113.842 142.074 113.842C144.213 113.842 145.961 115.581 145.961 117.726C145.961 119.87 144.213 121.609 142.074 121.609Z" fill="#D9E8FF"/>
<path opacity="0.1" d="M75.301 43.4107V69.5107C75.301 70.489 74.1696 71.2933 72.7989 71.2933H37.5378V41.6282H72.7989C74.1696 41.6282 75.301 42.4325 75.301 43.4107Z" fill="black"/>
<path opacity="0.1" d="M161.01 48.4756L161.22 78.1407H133.074C131.478 78.1407 130.173 77.3364 130.173 76.3582V50.2582C130.173 49.28 131.478 48.4756 133.074 48.4756H161.01Z" fill="black"/>
<path d="M195.705 65.5256C196.996 66.5256 196.075 68.7139 194.603 69.4167C192.964 70.1993 189.968 70.6123 184.718 68.7501L181.621 67.5038C181.621 67.5038 172.606 62.0911 170.293 58.5695L171.888 56.7725C171.888 56.7725 180.968 62.6852 184.536 63.7142C184.529 63.7069 192.369 62.9388 195.705 65.5256Z" fill="#EB9F8A"/>
<path d="M164.07 54.7435C164.288 54.4174 165.238 55.1928 165.796 55.4971C166.355 55.8014 166.5 55.7869 166.471 55.6927C166.442 55.5985 165.397 54.7725 164.904 54.4319C164.411 54.0914 163.613 53.5769 163.853 53.2363C164.099 52.8958 164.861 53.4755 165.542 53.9175C166.224 54.3595 166.761 54.9247 166.884 54.7797C167.007 54.6276 164.708 52.7291 164.549 52.577C164.389 52.4248 163.831 51.9611 164.048 51.6785C164.266 51.3886 164.795 51.7582 165.064 51.9538C165.332 52.1494 166.065 52.7219 166.645 53.2436C167.225 53.7581 167.406 53.932 167.508 53.8523C167.609 53.7726 166.442 52.3958 166.007 51.9031C165.571 51.4176 165.281 50.8524 165.666 50.6785C166.043 50.5046 166.797 51.5118 167.268 52.0552C167.733 52.5987 168.538 53.5479 168.944 53.845C169.35 54.1421 169.655 54.4899 169.778 54.258C169.807 54.2073 169.836 54.1638 169.85 54.1421C169.952 53.9972 169.945 53.5045 169.872 53.1566C169.8 52.8088 169.995 52.3378 170.198 52.0915C170.401 51.8451 170.677 51.8161 170.648 52.5915C170.619 53.3595 170.909 54.4319 171.214 54.9536C171.518 55.4754 171.758 55.7869 171.518 56.3956C171.439 56.5985 175.217 59.4172 175.79 59.8085C176.363 60.1997 174.383 62.3083 173.955 61.946C173.52 61.5837 170.075 58.1201 169.72 58.2071C169.364 58.2868 169.067 58.2288 168.19 57.7868C167.747 57.5694 166.935 57.0912 166.268 56.6782C166.268 56.6782 164.998 55.9174 164.542 55.5768C164.092 55.2145 163.853 55.0696 164.07 54.7435Z" fill="#EB9F8A"/>
<path d="M185.516 63.2285L185.197 69.9021L193.486 70.3006C195.234 70.3876 196.713 69.0398 196.8 67.2935L196.815 66.9385C196.902 65.1922 195.553 63.714 193.805 63.6271L185.516 63.2285Z" fill="#234599"/>
<path d="M172.751 75.6917H129.861C128.882 75.6917 128.077 74.8874 128.077 73.9092V47.8164C128.077 46.8382 128.882 46.0339 129.861 46.0339H172.751C173.73 46.0339 174.535 46.8382 174.535 47.8164V73.9092C174.535 74.8947 173.73 75.6917 172.751 75.6917Z" fill="#D4DEFE"/>
<path d="M172.751 75.1627H129.861C128.882 75.1627 128.077 74.3584 128.077 73.3801V47.2873C128.077 46.3091 128.882 45.5048 129.861 45.5048H172.751C173.73 45.5048 174.535 46.3091 174.535 47.2873V73.3874C174.535 74.3656 173.73 75.1627 172.751 75.1627Z" fill="#FEFFFF"/>
<path d="M133.182 48.896C133.182 49.5916 132.617 50.164 131.913 50.164C131.217 50.164 130.644 49.5988 130.644 48.896C130.644 48.1931 131.21 47.6279 131.913 47.6279C132.617 47.6352 133.182 48.2004 133.182 48.896Z" fill="#D9E8FF"/>
<path d="M137.048 48.8959C137.048 49.5915 136.482 50.164 135.778 50.164C135.082 50.164 134.509 49.5988 134.509 48.8959C134.509 48.1931 135.075 47.6279 135.778 47.6279C136.482 47.6351 137.048 48.2003 137.048 48.8959Z" fill="#D9E8FF"/>
<path d="M140.971 48.8959C140.971 49.5915 140.406 50.164 139.702 50.164C139.006 50.164 138.433 49.5988 138.433 48.8959C138.433 48.1931 138.999 47.6279 139.702 47.6279C140.406 47.6351 140.971 48.2003 140.971 48.8959Z" fill="#D9E8FF"/>
<path d="M170.438 63.3083H131.507C131.036 63.3083 130.651 62.9242 130.651 62.4532V53.8667C130.651 53.3958 131.036 53.0117 131.507 53.0117H170.438C170.909 53.0117 171.293 53.3958 171.293 53.8667V62.4532C171.293 62.9242 170.909 63.3083 170.438 63.3083Z" fill="#5D8EDF"/>
<path d="M171.293 65.4169H130.651V67.011H171.293V65.4169Z" fill="#D9E8FF"/>
<path d="M171.293 69.1123H130.651V70.7065H171.293V69.1123Z" fill="#D9E8FF"/>
<path d="M195.161 124.544C195.161 124.544 195.538 129.66 195.894 131.399C195.894 131.399 195.698 133.957 192.623 133.957C189.548 133.957 191.31 131.899 191.31 131.899C191.31 131.899 192.761 130.088 192.159 124.552H195.161V124.544Z" fill="#EB9F8A"/>
<path d="M184.333 135.015C184.333 135.051 184.333 135.08 184.341 135.109C184.341 135.138 184.348 135.16 184.355 135.189C184.363 135.218 184.37 135.247 184.377 135.276C184.384 135.297 184.384 135.319 184.399 135.341C184.406 135.377 184.421 135.413 184.435 135.45C184.442 135.479 184.457 135.5 184.471 135.529C184.508 135.602 184.544 135.674 184.58 135.739C184.674 135.906 184.848 136 185.037 136H196.104L196.068 135.181L196.046 134.703C196.314 133.87 196.155 132.674 195.901 131.399C192.674 133.928 191.557 131.66 191.513 131.566C191.506 131.58 191.506 131.587 191.499 131.602C191.484 131.638 191.463 131.674 191.434 131.718C191.267 131.964 190.933 132.225 190.505 132.479C190.476 132.5 190.447 132.515 190.418 132.529C190.23 132.638 190.019 132.747 189.795 132.855C189.758 132.87 189.729 132.884 189.7 132.899C189.504 132.986 189.309 133.08 189.098 133.167C189.062 133.182 189.033 133.196 188.997 133.211C187.764 133.725 186.371 134.145 185.487 134.305C185.363 134.326 185.255 134.341 185.153 134.355C184.515 134.421 184.333 134.703 184.333 135.015Z" fill="#00468D"/>
<path d="M185.661 135.993H196.097L196.061 135.174L196.039 134.696C195.93 134.616 195.814 134.529 195.712 134.442C195.256 134.051 194.82 133.682 194.233 133.5C193.174 133.167 192.021 133.464 190.984 133.863C189.947 134.261 188.931 134.776 187.822 134.884C187.416 134.921 187.002 134.906 186.596 134.964C186.263 135.008 185.9 135.131 185.755 135.428C185.697 135.551 185.682 135.689 185.668 135.819C185.668 135.877 185.661 135.935 185.661 135.993Z" fill="#2E81C5"/>
<path d="M184.333 135.015C184.333 135.051 184.333 135.08 184.341 135.109C184.341 135.138 184.348 135.16 184.355 135.189C184.363 135.218 184.37 135.247 184.377 135.276C184.384 135.297 184.384 135.319 184.399 135.341C184.406 135.377 184.421 135.413 184.435 135.45C184.442 135.479 184.457 135.5 184.471 135.529C184.508 135.602 184.544 135.674 184.58 135.739C184.674 135.906 184.848 136 185.037 136H196.104L196.068 135.181C195.821 135.131 195.56 135.123 195.35 135.123C194.422 135.094 193.479 135.167 192.55 135.196C191.441 135.232 190.331 135.261 189.222 135.297C188.003 135.334 186.661 135.334 185.74 134.537C185.653 134.464 185.574 134.384 185.487 134.305C185.363 134.326 185.255 134.341 185.153 134.355C184.515 134.421 184.333 134.703 184.333 135.015Z" fill="#C3CEE2"/>
<path d="M190.404 132.522C190.498 132.703 190.636 132.892 190.81 133.029C190.918 133.116 191.049 133.174 191.194 133.196H191.201C191.23 133.196 191.252 133.174 191.252 133.153C191.259 133.124 191.238 133.102 191.209 133.095C191.056 133.073 190.926 133.008 190.817 132.906C190.679 132.783 190.578 132.624 190.498 132.472C190.469 132.486 190.433 132.508 190.404 132.522Z" fill="white"/>
<path d="M189.686 132.899C189.845 133.138 190.07 133.363 190.382 133.406H190.389C190.411 133.406 190.44 133.384 190.44 133.363C190.447 133.334 190.426 133.312 190.397 133.305C190.135 133.269 189.932 133.073 189.787 132.856C189.751 132.863 189.722 132.877 189.686 132.899Z" fill="white"/>
<path d="M188.99 133.203C189.142 133.385 189.33 133.529 189.577 133.558H189.584C189.613 133.558 189.635 133.537 189.635 133.515C189.642 133.486 189.62 133.464 189.591 133.457C189.388 133.435 189.222 133.312 189.091 133.153C189.055 133.182 189.026 133.189 188.99 133.203Z" fill="white"/>
<path d="M186.262 90.4808C186.262 90.4808 188.663 108.002 189.91 111.827C191.158 115.653 191.716 129.616 191.716 129.616H195.959C195.959 129.616 198.185 117.697 195.959 111.204C195.959 111.204 199.36 92.0822 196.945 89.0533C194.545 86.0318 186.98 86.126 186.262 90.4808Z" fill="#ACBEE2"/>
<path d="M196.554 124.544C196.554 124.544 196.931 129.66 197.286 131.399C197.286 131.399 197.09 133.957 194.015 133.957C190.94 133.957 192.703 131.899 192.703 131.899C192.703 131.899 194.153 130.087 193.551 124.551H196.554V124.544Z" fill="#FEAC95"/>
<path d="M185.726 135.015C185.726 135.051 185.726 135.08 185.733 135.109C185.733 135.138 185.74 135.16 185.748 135.189C185.755 135.218 185.762 135.247 185.769 135.276C185.777 135.297 185.777 135.319 185.791 135.341C185.798 135.377 185.813 135.413 185.827 135.45C185.835 135.479 185.849 135.5 185.864 135.529C185.9 135.602 185.936 135.674 185.972 135.739C186.067 135.906 186.241 136 186.429 136H197.496L197.46 135.181L197.438 134.703C197.707 133.87 197.547 132.674 197.293 131.399C194.066 133.928 192.949 131.66 192.906 131.566C192.898 131.58 192.898 131.587 192.891 131.602C192.877 131.638 192.855 131.674 192.826 131.718C192.659 131.964 192.325 132.225 191.898 132.479C191.869 132.5 191.84 132.515 191.811 132.529C191.622 132.638 191.412 132.747 191.187 132.855C191.151 132.87 191.122 132.884 191.093 132.899C190.897 132.986 190.701 133.08 190.491 133.167C190.454 133.182 190.425 133.196 190.389 133.211C189.156 133.725 187.764 134.145 186.879 134.305C186.756 134.326 186.647 134.341 186.545 134.355C185.907 134.421 185.726 134.703 185.726 135.015Z" fill="#0054AA"/>
<path d="M187.046 135.993H197.482L197.446 135.174L197.424 134.696C197.315 134.616 197.199 134.529 197.097 134.442C196.641 134.051 196.205 133.682 195.618 133.5C194.559 133.167 193.406 133.464 192.369 133.863C191.332 134.261 190.316 134.776 189.207 134.884C188.801 134.921 188.387 134.906 187.981 134.964C187.648 135.008 187.285 135.131 187.14 135.428C187.082 135.551 187.067 135.689 187.053 135.819C187.053 135.877 187.053 135.935 187.046 135.993Z" fill="#3494E2"/>
<path d="M185.726 135.015C185.726 135.051 185.726 135.08 185.733 135.109C185.733 135.138 185.74 135.16 185.748 135.189C185.755 135.218 185.762 135.247 185.769 135.276C185.777 135.297 185.777 135.319 185.791 135.341C185.798 135.377 185.813 135.413 185.827 135.45C185.835 135.479 185.849 135.5 185.864 135.529C185.9 135.602 185.936 135.674 185.972 135.739C186.067 135.906 186.241 136 186.429 136H197.496L197.46 135.181C197.214 135.131 196.953 135.123 196.742 135.123C195.814 135.094 194.871 135.167 193.943 135.196C192.833 135.232 191.724 135.261 190.614 135.297C189.396 135.334 188.054 135.334 187.133 134.537C187.046 134.464 186.966 134.384 186.879 134.305C186.756 134.326 186.647 134.341 186.545 134.355C185.907 134.421 185.726 134.703 185.726 135.015Z" fill="#DCE9FF"/>
<path d="M191.796 132.522C191.89 132.703 192.028 132.892 192.202 133.029C192.311 133.116 192.441 133.174 192.586 133.196H192.594C192.623 133.196 192.644 133.174 192.644 133.152C192.652 133.123 192.63 133.102 192.601 133.095C192.449 133.073 192.318 133.008 192.209 132.906C192.071 132.783 191.97 132.624 191.89 132.471C191.854 132.486 191.825 132.508 191.796 132.522Z" fill="white"/>
<path d="M191.078 132.899C191.238 133.138 191.463 133.363 191.774 133.406H191.782C191.803 133.406 191.832 133.384 191.832 133.363C191.84 133.334 191.818 133.312 191.789 133.305C191.528 133.268 191.325 133.073 191.18 132.855C191.143 132.863 191.114 132.877 191.078 132.899Z" fill="white"/>
<path d="M190.382 133.203C190.534 133.384 190.723 133.529 190.969 133.558H190.977C191.006 133.558 191.027 133.537 191.027 133.515C191.035 133.486 191.013 133.464 190.984 133.457C190.781 133.435 190.614 133.312 190.483 133.153C190.447 133.182 190.411 133.189 190.382 133.203Z" fill="white"/>
<path d="M187.655 90.4808C187.655 90.4808 190.056 108.002 191.303 111.827C192.55 115.653 193.109 129.616 193.109 129.616H197.351C197.351 129.616 199.578 117.697 197.351 111.204C197.351 111.204 200.753 92.0822 198.338 89.0533C195.937 86.0318 188.373 86.126 187.655 90.4808Z" fill="#D1DEFE"/>
<path d="M195.93 129.653L196.01 129.595C194.726 127.856 193.5 91.3937 193.486 91.0242H193.384C193.384 91.1184 193.696 100.335 194.16 109.661C194.784 122.182 195.379 128.906 195.93 129.653Z" fill="#0054AA"/>
<path opacity="0.2" d="M199.099 91.5676C199.099 91.5676 191.832 94.85 186.56 92.5603L186.27 90.4807L198.809 89.7198C198.809 89.7198 199.055 91.1473 199.099 91.5676Z" fill="#8BA2C6"/>
<path d="M200.782 89.8576C200.782 89.8576 197.424 92.3864 192.311 92.5531C191.187 92.5893 189.983 92.5168 188.707 92.2777C187.851 92.1183 186.959 91.8792 186.045 91.5531C186.045 91.5531 185.943 88.9808 186.045 85.3723C186.096 83.5173 186.197 81.387 186.4 79.1915C186.451 78.5973 186.516 77.9959 186.589 77.4017C186.654 76.8003 186.734 76.1989 186.821 75.5974C187.785 68.8369 189.86 62.5257 194.24 62.7358C194.24 62.7358 198.874 62.5619 200.114 66.6487C201.362 70.7354 200.47 74.8294 200.47 74.8294C200.47 74.8294 199.578 85.5027 200.782 89.8576Z" fill="#2E4CAC"/>
<path d="M189.961 56.084C187.851 55.7724 185.842 54.8087 184.29 53.345C183.274 52.3886 182.426 51.1567 182.259 49.7728C182.092 48.3815 182.745 46.8381 184.021 46.2802C185.486 45.6353 187.133 46.3889 188.67 46.8236C189.867 47.1642 191.121 47.3164 192.369 47.2656C193.399 47.2222 194.429 47.0483 195.458 47.0555C196.488 47.07 197.569 47.2946 198.359 47.954C199.324 48.7583 199.701 50.0698 199.846 51.3162C200.071 53.2363 199.839 55.258 198.867 56.9318C197.902 58.6056 196.133 59.8809 194.196 59.9461C192.906 59.9896 191.665 59.5259 190.462 59.0549C189.671 58.7433 188.859 58.41 188.213 57.8593C187.561 57.3086 187.089 56.4825 187.162 55.6348" fill="#203983"/>
<path d="M196.017 59.6635C196.017 59.6635 196.684 64.8661 196.191 65.8733C195.995 66.2718 193.341 68.6847 191.491 66.5544C191.143 66.1559 191.006 65.6197 191.078 65.0979C191.187 64.2864 191.383 62.8807 191.586 61.4749L196.017 59.6635Z" fill="#FEAC95"/>
<path d="M196.017 59.6635C196.017 59.6635 196.38 63.3444 191.216 64.098L191.455 62.2793C191.455 62.2793 194.298 61.9822 196.017 59.6635Z" fill="#F29E8B"/>
<path d="M192.362 48.8235C191.506 48.7003 190.643 48.9611 189.99 49.5191C188.808 50.5263 186.995 52.4682 187.118 54.8811C187.3 58.4389 187.931 63.9241 191.832 63.243C195.734 62.5619 198.113 56.026 197.359 53.4102C196.713 51.1567 195.023 49.193 192.362 48.8235Z" fill="#FEAC95"/>
<path d="M194.806 52.9537C194.806 52.9537 190.374 54.142 187.648 52.4102C187.648 52.4102 187.43 52.7943 187.241 53.5334C187.241 53.5334 193.348 55.0768 194.806 52.9537Z" fill="#F29E8B"/>
<path d="M187.386 52.2146C187.386 52.2146 190.534 54.9391 194.806 52.9537C194.806 52.9537 193.841 58.2361 197.67 58.4752C197.67 58.4752 200.361 51.6857 195.545 49.3307C190.737 46.9758 187.662 49.5481 187.386 52.2146Z" fill="#203983"/>
<path d="M196.662 56.8231C196.503 57.3665 195.937 57.6781 195.393 57.526C194.849 57.3665 194.537 56.8014 194.69 56.2579C194.849 55.7145 195.415 55.4029 195.959 55.555C196.503 55.7145 196.822 56.2796 196.662 56.8231Z" fill="#FEAC95"/>
<path d="M196.169 56.6854C196.089 56.9608 195.806 57.113 195.538 57.0332C195.27 56.9535 195.11 56.6709 195.19 56.4028C195.27 56.1275 195.553 55.9753 195.821 56.055C196.089 56.1275 196.249 56.4101 196.169 56.6854Z" fill="#ED9783"/>
<path d="M196.575 75.3221L191.977 81.4377L191.31 80.9377C190.208 82.2203 189.171 83.3289 188.533 84.0173C187.488 85.1404 186.654 85.4158 186.052 85.3723C186.103 83.5173 186.205 81.387 186.408 79.1915C186.596 78.764 186.814 78.2712 187.053 77.7423L186.596 77.3945C186.661 76.793 186.741 76.1916 186.828 75.5902L190.469 70.7426C191.738 69.0616 194.124 68.721 195.814 69.9818C197.496 71.2499 197.837 73.6338 196.575 75.3221Z" fill="#1B418C"/>
<path d="M195.19 69.902C195.19 69.902 192.398 68.3876 190.469 71.0179C188.539 73.6554 186.132 79.329 186.132 79.329L177.458 73.2641L177.24 76.4669L185.16 83.3723C185.16 83.3723 186.414 85.1983 188.822 82.6984C191.237 80.1986 199.229 72.112 195.19 69.902Z" fill="#FEAC95"/>
<path d="M167.95 69.8441C168.168 69.5181 169.118 70.2934 169.676 70.5977C170.235 70.902 170.38 70.8875 170.351 70.7933C170.322 70.6991 169.277 69.8731 168.784 69.5325C168.291 69.192 167.493 68.6775 167.733 68.337C167.979 67.9964 168.741 68.5761 169.423 69.0181C170.104 69.4601 170.641 70.0253 170.764 69.8804C170.888 69.7282 168.589 67.8297 168.429 67.6703C168.269 67.5182 167.711 67.0544 167.929 66.7718C168.146 66.482 168.676 66.8515 168.944 67.0472C169.212 67.2428 169.945 67.8152 170.525 68.337C171.105 68.8514 171.286 69.0253 171.388 68.9456C171.489 68.8659 170.322 67.4892 169.887 66.9964C169.452 66.5037 169.161 65.9458 169.546 65.7719C169.923 65.598 170.677 66.6052 171.141 67.1486C171.605 67.6921 172.411 68.6413 172.817 68.9384C173.223 69.2355 173.52 69.5833 173.651 69.3514C173.68 69.3007 173.709 69.2572 173.723 69.2355C173.825 69.0905 173.825 68.5978 173.745 68.25C173.672 67.9022 173.868 67.4312 174.071 67.1848C174.274 66.9385 174.55 66.9095 174.521 67.6848C174.492 68.4529 174.782 69.5253 175.087 70.047C175.391 70.5687 175.631 70.8803 175.391 71.489C175.311 71.6919 179.09 74.5105 179.663 74.9018C180.236 75.2931 178.256 77.3944 177.821 77.0394C177.386 76.6771 173.941 73.2135 173.585 73.2932C173.23 73.3729 172.933 73.315 172.055 72.8729C171.613 72.6556 170.8 72.1773 170.133 71.7643C170.133 71.7643 168.864 71.0035 168.407 70.6557C167.972 70.3151 167.733 70.1702 167.95 69.8441Z" fill="#FEAC95"/>
<path d="M186.299 75.496L192.318 80.1769L197.018 74.1483C198.316 72.4889 198.011 70.0905 196.351 68.8007C194.69 67.5109 192.289 67.808 190.998 69.4674L186.299 75.496Z" fill="#2E4CAC"/>
<path d="M14.4829 59.4462C13.4966 60.3447 14.3887 62.062 15.6361 62.5403C17.0213 63.0692 19.4871 63.2142 23.6427 61.3519L26.0795 60.1346C26.0795 60.1346 33.0635 55.1421 34.7171 52.1205L33.3029 50.7583C33.3029 50.7583 26.2971 56.1638 23.4614 57.229C23.4614 57.2362 17.0285 57.1203 14.4829 59.4462Z" fill="#FFC4B6"/>
<path d="M39.5256 48.6062C39.3298 48.3525 38.6046 49.0482 38.1694 49.3308C37.7343 49.6133 37.611 49.6133 37.6327 49.5336C37.6472 49.4539 38.445 48.7148 38.8221 48.4033C39.2065 48.0989 39.823 47.6207 39.5981 47.3671C39.3806 47.1062 38.7931 47.6279 38.2637 48.0337C37.7343 48.4323 37.3354 48.9322 37.2266 48.8235C37.1178 48.7076 38.8656 47.012 38.9889 46.8744C39.1122 46.7367 39.5329 46.3309 39.3371 46.1063C39.1412 45.8889 38.7351 46.215 38.5248 46.3961C38.3145 46.57 37.756 47.0917 37.3209 47.5482C36.8785 48.0047 36.7407 48.1569 36.6537 48.0989C36.5666 48.041 37.4224 46.8454 37.7488 46.4179C38.0751 45.9903 38.271 45.5194 37.9446 45.3962C37.6255 45.2802 37.0743 46.1498 36.7334 46.6207C36.3853 47.099 35.7979 47.9178 35.486 48.1859C35.1742 48.454 34.9494 48.7583 34.8333 48.5772C34.8043 48.5337 34.7826 48.5047 34.7681 48.4902C34.6738 48.3743 34.6448 47.9758 34.681 47.6859C34.7173 47.3961 34.5287 47.0265 34.3474 46.8381C34.1661 46.6497 33.9413 46.6497 34.0138 47.2729C34.0863 47.896 33.9195 48.7873 33.7092 49.2293C33.4916 49.6786 33.3176 49.9394 33.5569 50.4249C33.6367 50.5843 30.743 53.1204 30.3006 53.4755C29.8654 53.8305 31.606 55.4174 31.9396 55.0986C32.266 54.7797 34.8478 51.7292 35.1452 51.7799C35.4425 51.8234 35.6746 51.7582 36.3636 51.3379C36.7044 51.1278 37.3354 50.6858 37.8576 50.309C37.8576 50.309 38.8439 49.6061 39.192 49.2945C39.5401 48.9902 39.7287 48.8598 39.5256 48.6062Z" fill="#FFC4B6"/>
<path d="M22.6273 56.9101L23.3235 62.3156L16.6006 63.1779C15.1864 63.359 13.8882 62.3591 13.7069 60.9461L13.6706 60.6563C13.4893 59.2433 14.4901 57.9463 15.9044 57.7651L22.6273 56.9101Z" fill="#EFEDDF"/>
<path d="M71.8419 69.7789H28.9586C27.9796 69.7789 27.1746 68.9746 27.1746 67.9964V41.8964C27.1746 40.9182 27.9796 40.1139 28.9586 40.1139H71.8492C72.8283 40.1139 73.6333 40.9182 73.6333 41.8964V67.9964C73.6333 68.9746 72.8283 69.7789 71.8419 69.7789Z" fill="#D4DEFE"/>
<path d="M71.8422 69.25H28.9589C27.9798 69.25 27.1748 68.4457 27.1748 67.4675V41.3674C27.1748 40.3892 27.9798 39.5849 28.9589 39.5849H71.8494C72.8285 39.5849 73.6335 40.3892 73.6335 41.3674V67.4675C73.6335 68.4457 72.8285 69.25 71.8422 69.25Z" fill="#FEFFFF"/>
<path d="M32.28 42.9832C32.28 43.6788 31.7143 44.2512 31.0109 44.2512C30.3074 44.2512 29.7417 43.6861 29.7417 42.9832C29.7417 42.2876 30.3074 41.7151 31.0109 41.7151C31.7143 41.7151 32.28 42.2876 32.28 42.9832Z" fill="#D9E8FF"/>
<path d="M36.1384 42.9832C36.1384 43.6788 35.5727 44.2512 34.8693 44.2512C34.173 44.2512 33.6001 43.6861 33.6001 42.9832C33.6001 42.2876 34.1658 41.7151 34.8693 41.7151C35.5727 41.7151 36.1384 42.2876 36.1384 42.9832Z" fill="#D9E8FF"/>
<path d="M40.0691 42.9832C40.0691 43.6788 39.5034 44.2512 38.7999 44.2512C38.1037 44.2512 37.5308 43.6861 37.5308 42.9832C37.5308 42.2876 38.0964 41.7151 38.7999 41.7151C39.5034 41.7151 40.0691 42.2876 40.0691 42.9832Z" fill="#D9E8FF"/>
<path d="M71.1603 51.403H50.8391V52.9971H71.1603V51.403Z" fill="#D9E8FF"/>
<path d="M71.1603 55.1057H50.8391V56.6999H71.1603V55.1057Z" fill="#D9E8FF"/>
<path d="M63.7121 58.9752H50.8391V60.5693H63.7121V58.9752Z" fill="#D9E8FF"/>
<path d="M46.0305 49.2003H32.28V62.9387H46.0305V49.2003Z" fill="#D9E8FF"/>
<path d="M4.43845 117.936C4.43845 117.936 2.50206 122.964 1.61002 124.602C1.61002 124.602 1.02258 127.232 4.11209 128.167C7.2016 129.102 6.06298 126.501 6.06298 126.501C6.06298 126.501 5.15643 124.24 7.45543 118.856L4.43845 117.936Z" fill="#FFC4B6"/>
<path d="M12.126 131.761C12.1187 131.797 12.1042 131.826 12.0897 131.855C12.0825 131.884 12.068 131.906 12.0534 131.928C12.0389 131.957 12.0244 131.986 12.0027 132.007C11.9954 132.029 11.9809 132.051 11.9664 132.065C11.9447 132.094 11.9229 132.131 11.8939 132.16C11.8721 132.181 11.8576 132.21 11.8359 132.232C11.7779 132.297 11.7198 132.355 11.6618 132.406C11.5168 132.544 11.3137 132.587 11.1179 132.529L0 129.167L0.290095 128.356L0.4569 127.877C0.442395 126.957 0.964566 125.805 1.61728 124.602C4.09034 128.124 5.90343 126.189 5.97596 126.109C5.97596 126.124 5.97596 126.138 5.98321 126.153C5.99046 126.196 5.99771 126.24 6.01222 126.283C6.1065 126.58 6.36033 126.943 6.7157 127.334C6.73746 127.363 6.76647 127.385 6.78822 127.414C6.94778 127.58 7.12183 127.754 7.3104 127.935C7.3394 127.957 7.36841 127.986 7.39017 128.008C7.55698 128.16 7.73103 128.312 7.91234 128.457C7.94135 128.486 7.97036 128.508 7.99937 128.529C9.07998 129.421 10.3564 130.268 11.1904 130.696C11.3065 130.754 11.4152 130.805 11.5095 130.848C12.1187 131.109 12.2203 131.45 12.126 131.761Z" fill="#EF5E43"/>
<path d="M10.4942 132.348L0 129.167L0.290095 128.355L0.4569 127.877C0.594695 127.826 0.73249 127.776 0.863033 127.718C1.44322 127.464 1.9944 127.225 2.63986 127.218C3.8075 127.203 4.8736 127.855 5.79465 128.573C6.7157 129.29 7.58599 130.116 8.65934 130.565C9.05822 130.732 9.47886 130.841 9.87048 131.015C10.1896 131.16 10.5159 131.391 10.574 131.739C10.5957 131.884 10.574 132.022 10.545 132.16C10.5232 132.225 10.5087 132.283 10.4942 132.348Z" fill="#E2412B"/>
<path d="M12.126 131.761C12.1187 131.797 12.1042 131.826 12.0897 131.855C12.0825 131.884 12.068 131.906 12.0534 131.928C12.0389 131.957 12.0244 131.986 12.0027 132.007C11.9954 132.029 11.9809 132.051 11.9664 132.065C11.9447 132.094 11.9229 132.131 11.8939 132.16C11.8721 132.181 11.8576 132.21 11.8359 132.232C11.7779 132.297 11.7198 132.355 11.6618 132.406C11.5168 132.544 11.3137 132.587 11.1179 132.529L0 129.167L0.290095 128.355C0.558433 128.384 0.819518 128.457 1.02984 128.515C1.97265 128.768 2.8937 129.131 3.822 129.442C4.92436 129.819 6.03398 130.189 7.13634 130.558C8.34748 130.964 9.69643 131.37 10.8713 130.855C10.9801 130.805 11.0889 130.754 11.1977 130.696C11.3137 130.754 11.4225 130.805 11.5168 130.848C12.1187 131.109 12.2203 131.449 12.126 131.761Z" fill="#DCE9FF"/>
<path d="M8.34732 79.5537C8.34732 79.5537 7.55682 86.4954 10.0879 88.517L7.50605 105.654L2.34961 121.609L6.65752 122.928L12.8656 107.965L16.412 80.2131C16.4192 80.2204 11.5601 74.1555 8.34732 79.5537Z" fill="#343754"/>
<path d="M10.3127 120.53C10.3127 120.53 9.92107 125.906 9.54395 127.725C9.54395 127.725 9.74701 130.413 12.9743 130.413C16.2016 130.413 14.3595 128.254 14.3595 128.254C14.3595 128.254 12.8365 126.348 13.4675 120.53H10.3127Z" fill="#FFC4B6"/>
<path d="M21.6918 131.529C21.6918 131.565 21.6918 131.594 21.6846 131.631C21.6846 131.66 21.6773 131.681 21.6701 131.71C21.6628 131.739 21.6556 131.776 21.6483 131.805C21.6411 131.826 21.6411 131.848 21.6266 131.87C21.6193 131.906 21.5976 131.942 21.583 131.978C21.5758 132.007 21.5613 132.036 21.5468 132.065C21.5105 132.145 21.4743 132.218 21.438 132.283C21.3365 132.457 21.1552 132.558 20.9521 132.558H9.33378L9.37005 131.696L9.3918 131.189C9.10896 130.312 9.27576 129.058 9.5441 127.718C12.931 130.37 14.1058 127.993 14.1494 127.892C14.1566 127.906 14.1566 127.913 14.1639 127.928C14.1784 127.964 14.2074 128.008 14.2291 128.044C14.4032 128.305 14.7513 128.573 15.2082 128.841C15.2372 128.863 15.2735 128.877 15.3025 128.899C15.5056 129.015 15.7231 129.131 15.9552 129.247C15.9915 129.261 16.0205 129.276 16.0567 129.297C16.2598 129.392 16.4701 129.486 16.6877 129.58C16.724 129.595 16.753 129.609 16.7965 129.623C18.0874 130.167 19.5596 130.609 20.4807 130.776C20.6112 130.797 20.7273 130.819 20.8288 130.826C21.496 130.906 21.6918 131.203 21.6918 131.529Z" fill="#EF5E43"/>
<path d="M20.2991 132.565H9.3335L9.36976 131.703L9.39152 131.196C9.50755 131.109 9.62359 131.022 9.73238 130.928C10.211 130.515 10.6679 130.131 11.2844 129.935C12.394 129.58 13.6124 129.892 14.7003 130.312C15.7881 130.732 16.8615 131.268 18.0218 131.384C18.4497 131.428 18.8849 131.406 19.3128 131.464C19.6609 131.515 20.038 131.638 20.1903 131.949C20.2556 132.08 20.2701 132.225 20.2846 132.362C20.2918 132.435 20.2991 132.5 20.2991 132.565Z" fill="#E2412B"/>
<path d="M21.6915 131.529C21.6915 131.565 21.6915 131.594 21.6843 131.631C21.6843 131.66 21.677 131.681 21.6698 131.71C21.6625 131.739 21.6553 131.776 21.648 131.805C21.6408 131.826 21.6408 131.848 21.6263 131.87C21.619 131.906 21.5973 131.942 21.5828 131.978C21.5755 132.007 21.561 132.036 21.5465 132.065C21.5102 132.145 21.474 132.218 21.4377 132.283C21.3362 132.457 21.1549 132.558 20.9518 132.558H9.3335L9.36976 131.696C9.63084 131.645 9.90643 131.638 10.124 131.631C11.1031 131.602 12.0894 131.681 13.0685 131.71C14.2361 131.747 15.4037 131.783 16.5641 131.819C17.8405 131.855 19.2547 131.855 20.2266 131.022C20.3136 130.942 20.4079 130.855 20.4949 130.776C20.6254 130.797 20.7415 130.819 20.843 130.826C21.4957 130.906 21.6915 131.203 21.6915 131.529Z" fill="#DCE9FF"/>
<path d="M15.3098 128.913C15.2082 129.102 15.0704 129.305 14.8891 129.442C14.7731 129.529 14.6353 129.594 14.483 129.616H14.4757C14.4467 129.616 14.425 129.594 14.425 129.566C14.4177 129.537 14.4395 129.508 14.4757 129.508C14.6353 129.486 14.7731 129.413 14.8891 129.312C15.0342 129.181 15.143 129.015 15.23 128.855C15.2445 128.877 15.2808 128.899 15.3098 128.913Z" fill="white"/>
<path d="M16.0639 129.305C15.8971 129.558 15.6578 129.79 15.3314 129.834H15.3241C15.2951 129.834 15.2734 129.812 15.2734 129.783C15.2661 129.754 15.2879 129.725 15.3169 129.725C15.5925 129.689 15.8101 129.486 15.9624 129.254C15.9986 129.276 16.0276 129.29 16.0639 129.305Z" fill="white"/>
<path d="M16.7967 129.631C16.6372 129.819 16.4341 129.979 16.1803 130.008H16.173C16.144 130.008 16.1222 129.986 16.1222 129.957C16.115 129.928 16.1367 129.899 16.173 129.899C16.3833 129.87 16.5574 129.747 16.6952 129.58C16.7314 129.602 16.7605 129.616 16.7967 129.631Z" fill="white"/>
<path d="M9.97174 81.5246C9.97174 81.5246 8.6373 86.6113 10.4794 90.4372C12.2635 94.1399 9.6889 124.551 9.6889 124.551H13.5762L20.3571 81.5246C20.3571 81.5246 13.025 77.9814 9.97174 81.5246Z" fill="#46486A"/>
<path d="M11.6906 124.566L11.5818 124.537C13.859 116.617 14.8671 82.4667 14.8744 82.1262H14.9832C14.9759 82.4667 13.9678 116.632 11.6906 124.566Z" fill="#3D28E0"/>
<path d="M19.0447 43.447C19.828 44.4035 19.8715 45.7367 20.0528 46.9541C20.2559 48.3453 20.6765 49.7075 21.2857 50.9756C21.6918 51.8161 22.1923 52.6422 22.243 53.5769C22.2938 54.4102 21.9747 55.2145 21.9312 56.0478C21.8804 56.9608 22.1705 57.8593 22.3083 58.765C22.3518 59.0549 22.3808 59.3592 22.2648 59.6345C22.0327 60.178 21.351 60.3374 20.7708 60.4026C19.7337 60.5186 18.6821 60.5765 17.6378 60.562C17.442 60.562 17.2244 60.5475 17.0721 60.4244C16.8835 60.2722 16.8473 59.9968 16.782 59.765C16.3541 58.3013 14.3814 57.9172 13.5619 56.6347C13.1195 55.9391 13.0688 55.0623 12.7279 54.3087C12.3073 53.3885 11.4805 52.7219 10.8278 51.9393C9.52236 50.3742 8.92041 48.2366 9.2105 46.2222C9.24677 45.9614 9.30478 45.6933 9.43533 45.4614C9.58037 45.215 9.8052 45.0266 10.001 44.8237C10.5594 44.2368 10.9003 43.476 11.4515 42.8891C12.5466 41.7297 13.7722 41.7514 15.1647 42.0775C16.5862 42.3891 18.0221 42.1934 19.0447 43.447Z" fill="#203983"/>
<path d="M20.466 84.0173C20.466 84.0173 18.6891 82.9232 15.6939 82.7348C14.9324 82.6841 14.0984 82.6913 13.1918 82.7928C12.0097 82.9232 11.0596 82.8507 10.3054 82.6696C8.20219 82.1768 7.61475 80.8798 7.61475 80.8798C9.17401 73.6845 9.56564 67.424 9.54388 61.9098C9.54388 61.7142 9.54388 61.5185 9.54388 61.3229C9.53663 61.149 9.53663 60.9823 9.53663 60.8157C9.55113 55.0768 14.635 55.5551 14.635 55.5551C18.5223 56.4246 20.0961 62.2431 20.6473 68.395C20.7415 69.4964 20.8141 70.605 20.8503 71.6991C21.0969 78.1336 20.466 84.0173 20.466 84.0173Z" fill="white"/>
<path opacity="0.5" d="M20.8577 71.699C18.711 72.2642 16.8326 72.7932 16.4773 72.9743C16.4773 72.9743 14.8092 73.9091 14.5481 71.9889C14.4394 71.1918 14.055 69.3586 13.6416 67.4746L13.2935 67.5254L12.3434 61.3155C12.1621 60.1344 12.9744 59.0258 14.1565 58.8447L14.7585 58.7505C15.9406 58.5693 17.0502 59.3809 17.2315 60.562L18.1816 66.7718L17.4563 66.8805C17.5434 67.779 17.6087 68.4021 17.6087 68.4021C17.6087 68.4021 18.9431 68.4021 20.6546 68.3731C20.7562 69.4963 20.8215 70.6049 20.8577 71.699Z" fill="#F2F0E2"/>
<path d="M14.0549 51.5842C14.0549 51.5842 12.7567 55.8521 13.0323 56.7578C13.1411 57.1201 15.0267 59.5186 16.8688 57.9969C17.2169 57.7143 17.4055 57.2868 17.42 56.8375C17.4417 56.1419 17.478 54.9318 17.507 53.729L14.0549 51.5842Z" fill="#FEAC95"/>
<path d="M14.0623 51.5842C14.0623 51.5842 13.2356 54.6203 17.4564 55.9753L17.5145 54.4174C17.5145 54.4174 15.1719 53.7725 14.0623 51.5842Z" fill="#F29E8B"/>
<path d="M14.0549 42.7369C14.7512 42.4978 15.5054 42.5775 16.1436 42.9325C17.2895 43.5847 19.1171 44.9179 19.3999 46.9468C19.8206 49.9467 20.176 54.6203 16.8108 54.6783C13.4457 54.7362 10.4143 49.6641 10.6173 47.3598C10.7986 45.3817 11.8937 43.4832 14.0549 42.7369Z" fill="#FEAC95"/>
<path d="M14.5189 59.3157C14.5189 59.3157 16.8542 58.5549 17.079 59.9171C17.3039 61.2721 17.9711 68.0399 17.9711 68.0399C17.9711 68.0399 26.3766 68.0544 28.0374 67.5544L28.4363 69.4818C28.4363 69.4818 17.7245 72.1339 16.8325 72.5976C16.8325 72.5976 15.1644 73.5323 14.9033 71.6122C14.6858 70.0615 13.4311 64.5111 12.9524 62.446C12.7711 61.6489 12.9162 60.7939 13.4021 60.1345C13.6632 59.7867 14.0258 59.4751 14.5189 59.3157Z" fill="#FFC4B6"/>
<path d="M18.5441 66.4023L13.656 67.1486L12.706 60.9388C12.5247 59.7577 13.3369 58.6491 14.5191 58.468L15.121 58.3738C16.3032 58.1926 17.4128 59.0042 17.5941 60.1853L18.5441 66.4023Z" fill="#FFFEF3"/>
<path d="M35.1304 69.1558C35.1086 68.8297 34.1078 69.0036 33.5784 68.9891C33.0489 68.9747 32.9547 68.9094 33.0127 68.8515C33.0707 68.7935 34.1586 68.6269 34.6517 68.5834C35.1449 68.5399 35.9281 68.4964 35.8919 68.1486C35.8556 67.8081 35.0651 67.9095 34.3979 67.9457C33.7307 67.982 33.107 68.1776 33.078 68.0182C33.0489 67.8588 35.4785 67.424 35.6598 67.3805C35.8411 67.3371 36.4286 67.2356 36.385 66.9385C36.3415 66.6414 35.8121 66.6922 35.5438 66.7212C35.2682 66.7501 34.5067 66.8661 33.8757 67.0037C33.2448 67.1414 33.0417 67.1849 33.0054 67.0907C32.9619 66.9965 34.3689 66.4748 34.8838 66.3009C35.3987 66.127 35.8339 65.8371 35.6308 65.5618C35.4277 65.2792 34.4777 65.6995 33.9192 65.9024C33.3608 66.1052 32.3962 66.4531 31.9828 66.5038C31.5695 66.5545 31.2068 66.6849 31.2141 66.4603C31.2141 66.4096 31.2068 66.3733 31.2068 66.3444C31.1923 66.1922 31.3954 65.8444 31.5912 65.627C31.787 65.4096 31.8378 64.9894 31.787 64.7285C31.7363 64.4677 31.555 64.3372 31.2576 64.9024C30.9603 65.4676 30.3221 66.1197 29.8869 66.3733C29.4518 66.627 29.1544 66.7501 29.0819 67.2863C29.0601 67.4602 25.1874 67.953 24.6144 67.9964C24.0487 68.0472 24.6072 70.3659 25.0641 70.2862C25.521 70.2065 29.4155 69.1123 29.6403 69.3225C29.8652 69.5254 30.0972 69.6051 30.9095 69.6413C31.3156 69.663 32.0989 69.6485 32.7443 69.6268C32.7443 69.6268 33.97 69.5978 34.4414 69.5326C34.9201 69.4891 35.1521 69.4819 35.1304 69.1558Z" fill="#FFC4B6"/>
<path d="M12.3653 42.4616C11.5313 42.6065 10.748 43.063 10.2114 43.7224C9.67469 44.3818 9.3846 45.2368 9.41361 46.0846C9.43536 46.8092 9.71095 47.5555 10.3056 47.9758C10.8713 48.3743 11.6328 48.396 12.3073 48.2366C12.9818 48.0772 13.6055 47.7584 14.2509 47.5048C15.143 47.157 16.093 46.9396 17.0431 46.8671C17.7176 46.8164 18.3993 46.8381 19.0665 46.7005C19.7265 46.5628 20.3937 46.244 20.7563 45.6788C21.3148 44.8093 21.0029 43.5919 20.2922 42.8528C19.5742 42.1138 18.5516 41.7587 17.5508 41.5196C16.724 41.3239 15.8755 41.2008 15.0342 41.2515C14.1857 41.3022 13.3444 41.5486 12.6554 42.0413C12.3073 42.2949 11.9955 42.6137 11.5893 42.7586" fill="#203983"/>
<path opacity="0.5" d="M14.8961 82.5971C14.1346 82.5464 13.3006 82.5536 12.3941 82.6551C11.5963 82.742 10.9001 82.7348 10.3054 82.6695C8.20219 82.1768 7.61475 80.8798 7.61475 80.8798C9.17401 73.6845 9.56564 67.424 9.54388 61.9098C10.4867 63.3517 10.7115 66.3298 10.5955 67.2936C10.4142 68.8732 9.85573 70.3948 9.68893 71.9745C9.4496 74.2859 10.0225 76.7568 9.01445 78.8509C8.70986 79.5031 8.28196 80.3508 8.81139 80.8363C9.05797 81.0609 9.41334 81.0899 9.74694 81.1044C10.5302 81.1479 11.3135 81.1914 12.0967 81.2348C13.1773 81.2928 14.49 81.5174 14.8599 82.5319C14.8816 82.5609 14.8889 82.5753 14.8961 82.5971Z" fill="#F2F0E2"/>
<path d="M7.91218 45.8599C6.8896 47.7729 7.11442 50.1061 7.56407 52.2291C8.01371 54.3522 8.66643 56.497 8.39809 58.6563C8.25304 59.8084 7.85416 60.9098 7.49154 62.0185C7.28122 62.6561 7.09266 63.3952 7.42627 63.9749C7.75988 64.5546 8.48512 64.7647 9.14508 64.8951C11.5239 65.3589 13.9679 65.4748 16.3757 65.2284C17.4128 65.1197 18.5877 64.8589 19.1026 63.9459C19.3637 63.4822 19.3999 62.9242 19.3782 62.388C19.2912 60.2722 18.3919 58.2433 17.1517 56.5188C16.5715 55.7072 15.9043 54.9391 15.5127 54.0189C15.0485 52.9175 15.0123 51.6857 14.9832 50.4901C14.9542 49.3307 14.9615 48.0699 15.665 47.1497C16.499 46.0556 18.2178 45.5773 18.4499 44.2223C18.6094 43.3021 17.9205 42.4036 17.0719 42.0123C14.0985 40.6283 9.34815 43.1716 7.91218 45.8599Z" fill="#203983"/>
<path opacity="0.1" d="M58.0259 23.1002V30.0926C58.0259 31.0708 57.2209 31.8751 56.2418 31.8751H33.9771V30.194C33.9771 26.274 37.1536 23.1002 41.0771 23.1002H58.0259Z" fill="black"/>
<path d="M54.5521 30.1941H11.6615C10.6825 30.1941 9.87744 29.3898 9.87744 28.4116V2.31151C9.87744 1.3333 10.6825 0.528992 11.6615 0.528992H54.5521C55.5311 0.528992 56.3362 1.3333 56.3362 2.31151V28.4116C56.3362 29.3898 55.5311 30.1941 54.5521 30.1941Z" fill="#D4DEFE"/>
<path d="M54.5526 29.6651H11.662C10.6829 29.6651 9.87793 28.8608 9.87793 27.8826V1.78251C9.87793 0.804305 10.6829 0 11.662 0H54.5526C55.5316 0 56.3366 0.804305 56.3366 1.78251V27.8826C56.3366 28.8608 55.5316 29.6651 54.5526 29.6651Z" fill="#FEFFFF"/>
<path d="M14.4753 3.39833C14.4753 4.09394 13.9097 4.66638 13.2062 4.66638C12.5099 4.66638 11.937 4.10119 11.937 3.39833C11.937 2.69547 12.5027 2.13028 13.2062 2.13028C13.9097 2.13028 14.4753 2.69547 14.4753 3.39833Z" fill="#D9E8FF"/>
<path d="M18.3337 3.39836C18.3337 4.09397 17.7681 4.66641 17.0646 4.66641C16.3611 4.66641 15.7954 4.10122 15.7954 3.39836C15.7954 2.6955 16.3611 2.13031 17.0646 2.13031C17.7681 2.13031 18.3337 2.6955 18.3337 3.39836Z" fill="#D9E8FF"/>
<path d="M22.2644 3.39836C22.2644 4.09397 21.6987 4.66641 20.9952 4.66641C20.2918 4.66641 19.7261 4.10122 19.7261 3.39836C19.7261 2.6955 20.2918 2.13031 20.9952 2.13031C21.6987 2.13031 22.2644 2.6955 22.2644 3.39836Z" fill="#D9E8FF"/>
<path d="M24.721 22.616C27.4654 19.874 27.4654 15.4283 24.721 12.6863C21.9766 9.94436 17.5271 9.94436 14.7827 12.6863C12.0383 15.4283 12.0383 19.874 14.7827 22.616C17.5271 25.3579 21.9766 25.3579 24.721 22.616Z" fill="#ED4F24"/>
<path d="M23.0185 17.2455L18.1956 14.463C17.7823 14.2239 17.2673 14.521 17.2673 14.9992V20.5641C17.2673 21.0351 17.7823 21.3322 18.1956 21.1003L23.0185 18.3179C23.4319 18.0787 23.4319 17.4846 23.0185 17.2455Z" fill="#FEFFFF"/>
<path d="M54.2766 12.8399H30.0972V14.3253H54.2766V12.8399Z" fill="#D9E8FF"/>
<path d="M54.2763 17.0426H30.0969V18.5281H54.2763V17.0426Z" fill="#D9E8FF"/>
<path d="M54.2763 21.2381H30.0969V22.7235H54.2763V21.2381Z" fill="#D9E8FF"/>
</svg>
