<svg width="674" height="592" viewBox="0 0 674 592" fill="none" xmlns="http://www.w3.org/2000/svg">
<path fill-rule="evenodd" clip-rule="evenodd" d="M363.664 207.455C364.239 206.932 364.343 206.043 363.925 205.364C361.206 201.077 358.958 197.783 356.239 194.908C353.52 192.033 350.278 189.628 345.52 187.275C337.101 183.093 328.369 183.459 320.997 186.909C313.572 190.412 307.611 197.104 305.049 205.573C304.84 206.2 305.049 206.88 305.572 207.35C308.029 209.546 312.264 212.892 317.807 215.244C321.938 217.022 326.801 218.329 332.238 218.224C338.775 218.12 344.265 217.022 348.762 215.558C358.644 212.369 363.664 207.507 363.664 207.455ZM360.265 205.887C358.435 207.298 354.252 210.173 347.663 212.264C343.428 213.624 338.252 214.669 332.082 214.774C327.219 214.878 322.827 213.728 319.114 212.108C314.565 210.121 310.957 207.455 308.604 205.468C311.062 198.463 316.134 192.869 322.408 189.942C328.84 186.909 336.578 186.648 344.003 190.308C348.343 192.451 351.324 194.594 353.834 197.208C356.134 199.613 358.069 202.436 360.265 205.887Z" fill="white"/>
<path fill-rule="evenodd" clip-rule="evenodd" d="M207.845 204.109C207.845 204.109 208.263 206.566 210.46 208.866C211.505 209.964 212.917 211.01 214.852 211.69C215.427 211.899 216.159 211.951 217.048 211.742C218.46 211.428 220.342 210.383 222.068 208.762C224.42 206.566 226.564 203.325 227.035 199.561C227.401 196.476 227.139 193.863 226.617 191.771C225.466 187.275 223.113 185.028 222.8 184.714C221.231 183.145 219.401 182.884 217.623 183.302C215.479 183.825 213.388 185.55 212.028 187.171C210.041 189.523 208.839 192.294 208.211 195.274C207.584 198.149 207.479 201.129 207.741 203.952L207.845 204.109ZM216.002 208.553C214.643 208.03 213.649 207.298 212.917 206.566C211.505 205.05 211.139 203.482 211.139 203.482L211.192 203.639C210.982 201.129 211.035 198.515 211.61 195.954C212.133 193.549 213.074 191.196 214.695 189.314C215.479 188.373 216.63 187.328 217.832 186.805C218.721 186.439 219.662 186.334 220.447 187.119C220.708 187.38 222.486 189.158 223.375 192.608C223.845 194.385 224.054 196.529 223.741 199.195C223.479 201.6 222.277 203.691 220.813 205.312C219.61 206.671 218.198 207.716 217.048 208.239C216.63 208.448 216.054 208.553 216.002 208.553Z" fill="white"/>
<path fill-rule="evenodd" clip-rule="evenodd" d="M202.198 174.101C203.139 175.774 204.969 176.559 207.322 176.663C210.669 176.82 215.165 175.461 217.466 175.304C220.708 175.042 223.793 175.095 226.773 175.618C229.702 176.14 232.525 177.186 235.349 178.859C238.643 180.793 244.133 185.916 248.055 187.746C250.303 188.792 252.238 188.792 253.44 187.798C254.277 187.119 255.009 185.394 254.852 182.936C254.643 179.225 252.865 173.526 249.048 168.612C245.44 163.959 240.002 159.986 232.421 159.15C224.734 158.313 217.571 160.352 212.185 163.071C206.852 165.789 203.244 169.24 202.25 171.331C201.675 172.481 201.78 173.474 202.198 174.101ZM251.297 185.184C251.14 185.289 250.878 185.184 250.617 185.132C249.832 184.923 248.944 184.453 247.95 183.877C244.29 181.63 239.845 177.656 237.022 175.983C233.832 174.101 230.643 172.951 227.349 172.324C224.054 171.697 220.708 171.644 217.152 171.958C215.218 172.115 211.714 173.108 208.682 173.317C207.845 173.37 207.009 173.37 206.329 173.213C205.963 173.108 205.597 173.004 205.335 172.794C205.492 172.533 205.806 171.958 206.172 171.54C208.002 169.449 211.767 166.73 216.577 164.796C221.022 163.018 226.355 161.868 232.002 162.496C238.538 163.228 243.244 166.626 246.329 170.651C249.676 174.938 251.244 179.852 251.453 183.093C251.506 183.773 251.453 184.348 251.349 184.819C251.401 184.923 251.349 185.08 251.297 185.184Z" fill="white"/>
<path fill-rule="evenodd" clip-rule="evenodd" d="M305.206 205.207C304.996 205.782 305.101 206.409 305.467 206.88C305.833 207.298 306.565 207.925 307.402 208.657C309.023 210.017 311.219 211.637 311.742 212.003C316.082 214.983 320.265 214.617 323.768 212.474C328.631 209.494 331.925 202.854 331.716 197.104C331.663 196.372 331.611 195.64 331.454 194.96C331.297 194.229 331.088 193.497 330.827 192.817C330.618 192.294 330.356 191.771 330.042 191.301C329.729 190.83 329.415 190.36 329.049 189.942C327.271 187.798 325.493 187.119 323.716 187.119C321.363 187.171 318.957 188.792 316.552 190.674C315.559 191.458 314.67 192.242 313.781 193.078C312.892 193.915 312.055 194.804 311.219 195.797C309.755 197.522 308.395 199.247 307.245 201.129C306.513 202.384 305.781 203.743 305.206 205.207ZM308.813 205.468C309.336 204.266 310.016 203.168 310.748 202.07C311.689 200.659 312.735 199.3 313.885 197.993C314.617 197.156 315.402 196.32 316.186 195.535C316.97 194.751 317.859 194.019 318.748 193.34C320.265 192.137 321.676 190.987 323.14 190.621C324.291 190.308 325.389 190.674 326.539 192.085C326.801 192.399 327.01 192.712 327.219 193.026C327.428 193.34 327.585 193.706 327.742 194.072C327.951 194.542 328.108 195.065 328.212 195.588C328.317 196.111 328.369 196.686 328.422 197.261C328.578 201.129 326.801 205.468 323.977 208.187C321.31 210.801 317.598 211.899 313.781 209.232C313.31 208.919 311.689 207.716 310.225 206.514C309.65 206.148 309.179 205.782 308.813 205.468Z" fill="white"/>
<path fill-rule="evenodd" clip-rule="evenodd" d="M246.8 211.271C245.911 211.48 244.133 212.16 243.14 212.526C239.532 213.728 235.872 214.669 232.107 215.088C228.394 215.506 224.63 215.401 220.656 214.617C218.303 214.147 215.845 212.996 213.701 211.585C211.139 209.912 208.995 207.873 208.107 206.357C208.002 206.2 207.95 206.043 207.897 205.834C207.375 203.691 207.27 200.972 207.427 198.359C207.584 195.013 208.263 191.981 208.891 190.778C210.198 188.321 212.08 186.282 214.329 184.871C216.577 183.459 219.244 182.675 222.12 182.727C223.845 182.78 225.728 183.146 227.505 183.721C229.283 184.296 230.956 185.028 232.421 185.812C235.924 187.694 238.852 190.412 241.257 193.601C244.761 198.254 247.166 203.9 248.63 209.18H248.578C248.63 209.389 248.682 209.546 248.682 209.651C248.682 210.487 248.055 211.219 247.218 211.324C247.061 211.271 246.904 211.271 246.8 211.271ZM244.813 208.344C243.872 208.657 242.721 209.076 241.989 209.337C238.591 210.487 235.192 211.376 231.689 211.742C228.342 212.108 224.891 212.003 221.283 211.324C219.349 210.905 217.309 209.912 215.531 208.762C213.492 207.455 211.819 205.887 210.982 204.736C210.616 202.959 210.564 200.711 210.669 198.62C210.826 195.901 211.192 193.392 211.714 192.451C212.76 190.517 214.224 188.896 216.002 187.798C217.728 186.7 219.767 186.125 221.963 186.178C223.375 186.23 224.943 186.544 226.407 187.014C227.976 187.485 229.44 188.164 230.747 188.844C234.564 190.883 237.649 194.124 240.002 197.836C242.146 201.077 243.715 204.736 244.813 208.344ZM245.283 209.912C245.336 210.278 245.493 210.539 245.754 210.801C245.545 210.592 245.388 210.33 245.336 210.069L245.283 209.912Z" fill="white"/>
<path fill-rule="evenodd" clip-rule="evenodd" d="M283.506 172.428C283.035 172.742 282.774 173.213 282.722 173.788C282.512 177.447 283.977 179.8 286.696 181.159C290.251 182.989 296.369 182.936 303.794 181.734C312.264 180.375 318.434 177.081 330.408 175.356C335.271 174.676 341.075 174.206 348.395 174.31C354.722 174.363 360.788 176.088 366.226 178.493C376.108 182.832 383.899 189.314 387.612 192.085C388.657 192.869 389.442 193.34 389.912 193.549C390.801 193.915 391.481 193.706 391.847 193.444C392.265 193.183 392.631 192.765 392.684 192.033C393.52 183.721 389.337 175.461 382.226 168.769C373.546 160.666 360.526 154.863 347.454 154.027C335.846 153.295 324.238 155.49 314.147 158.627C296.473 164.169 283.506 172.481 283.506 172.428ZM389.389 189.21C386.095 186.753 379.873 181.682 371.977 177.552C365.128 173.945 357.023 171.069 348.448 170.965C340.918 170.86 334.957 171.331 329.938 172.063C317.964 173.788 311.794 177.081 303.271 178.44C297.937 179.277 293.336 179.643 290.094 178.806C287.794 178.231 286.33 177.029 286.12 174.781C289.205 172.951 300.5 166.416 315.088 161.868C324.814 158.836 336.003 156.693 347.193 157.425C357.337 158.052 367.428 161.868 375.219 167.462C383.429 173.317 389.128 181.054 389.389 189.21Z" fill="white"/>
<path fill-rule="evenodd" clip-rule="evenodd" d="M253.911 189.158C254.12 192.869 254.486 196.686 254.486 200.502C254.486 202.959 254.382 205.416 254.016 207.821C253.545 211.01 252.604 214.356 251.453 217.597C249.728 222.563 247.427 227.425 245.283 231.764C242.669 236.992 239.532 242.22 236.917 247.657C235.087 251.369 233.571 255.185 232.577 259.158C232.107 261.093 231.584 263.184 231.375 265.275C231.218 266.791 231.166 268.255 231.427 269.718C231.689 271.391 232.264 272.855 232.996 274.214C234.041 276.149 235.401 277.874 236.76 279.651C237.963 281.22 239.113 282.788 240.264 284.356C241.414 285.925 242.512 287.545 243.61 289.166C244.133 289.95 245.179 290.159 245.911 289.637C246.695 289.114 246.904 288.12 246.381 287.336C245.283 285.663 244.133 284.043 242.983 282.422C241.832 280.801 240.63 279.233 239.427 277.612C238.172 275.992 236.865 274.424 235.924 272.646C235.349 271.6 234.93 270.45 234.721 269.196C234.564 268.046 234.564 266.843 234.721 265.641C234.93 263.706 235.401 261.772 235.872 259.995C236.813 256.283 238.277 252.676 240.002 249.173C242.617 243.788 245.754 238.561 248.368 233.333C250.617 228.889 252.917 223.87 254.748 218.799C255.95 215.297 256.944 211.794 257.467 208.396C257.885 205.782 257.989 203.168 257.989 200.554C257.989 196.686 257.623 192.817 257.414 189.053C257.362 188.112 256.525 187.38 255.584 187.432C254.591 187.432 253.859 188.217 253.911 189.158Z" fill="white"/>
<path fill-rule="evenodd" clip-rule="evenodd" d="M258.355 284.461C257.467 284.775 256.473 284.356 256.159 283.468C255.846 282.631 256.264 281.638 257.153 281.324V281.272C258.983 280.592 260.865 279.599 263.793 278.867C265.676 278.397 267.924 277.978 270.905 277.717C273.885 277.508 276.343 278.292 278.173 279.495C281.101 281.429 282.408 284.409 282.146 286.395C281.99 287.807 280.996 289.061 279.375 289.846C278.068 290.473 276.238 290.787 274.199 290.682C272.473 290.578 270.329 289.532 268.238 288.068C265.989 286.5 263.741 284.409 262.382 282.997C262.382 282.997 260.761 283.572 259.61 283.99C259.14 284.2 258.774 284.356 258.355 284.461ZM265.937 281.847C267.401 281.533 269.074 281.272 271.166 281.115C273.257 280.958 274.983 281.481 276.29 282.318C277.911 283.363 278.905 284.879 278.8 285.977C278.748 286.5 278.12 286.761 277.441 287.023C276.604 287.284 275.558 287.389 274.46 287.336C273.205 287.232 271.689 286.395 270.173 285.297C268.604 284.304 267.14 282.997 265.937 281.847Z" fill="white"/>
<path fill-rule="evenodd" clip-rule="evenodd" d="M290.251 296.276C294.12 293.819 297.31 290.525 299.036 286.709C300.866 282.788 301.127 278.292 299.088 273.535C298.67 272.594 298.147 271.653 297.571 270.816C296.996 269.98 296.369 269.196 295.741 268.411C295.166 267.732 294.068 267.627 293.388 268.202C292.709 268.777 292.604 269.875 293.179 270.555C293.754 271.235 294.277 271.914 294.8 272.646C295.271 273.326 295.689 274.11 296.003 274.842C297.624 278.606 297.415 282.108 295.951 285.245C294.486 288.486 291.715 291.205 288.421 293.296C287.637 293.819 287.375 294.864 287.898 295.649C288.369 296.59 289.467 296.799 290.251 296.276Z" fill="white"/>
<path fill-rule="evenodd" clip-rule="evenodd" d="M233.205 274.162C232.63 276.724 232.316 279.86 232.577 282.84C232.787 284.931 233.309 286.97 234.251 288.695C234.669 289.48 235.715 289.793 236.499 289.375C237.283 288.957 237.597 287.911 237.179 287.127C236.29 285.454 235.924 283.363 235.872 281.272C235.819 279.076 236.081 276.828 236.551 274.946C236.76 274.005 236.185 273.117 235.244 272.907C234.303 272.698 233.414 273.273 233.205 274.162Z" fill="white"/>
<path fill-rule="evenodd" clip-rule="evenodd" d="M239.166 278.815C238.643 278.292 237.859 278.135 237.179 278.449C236.499 278.763 236.133 279.494 236.238 280.226C236.499 281.481 236.813 283.624 237.231 285.245C237.545 286.395 237.911 287.388 238.277 287.807C238.957 288.695 240.63 289.689 242.198 289.689C243.453 289.689 244.604 289.218 245.336 288.016C245.545 287.702 245.702 287.232 245.545 286.604C245.493 286.343 245.283 285.925 244.865 285.297C243.401 283.415 239.166 278.763 239.166 278.815Z" fill="white"/>
<path fill-rule="evenodd" clip-rule="evenodd" d="M316.814 345.94C317.598 346.097 318.382 345.627 318.696 344.842C318.957 344.058 318.696 343.17 317.964 342.751C314.251 340.556 303.742 335.066 294.225 330.361C287.166 326.911 280.682 323.931 277.702 323.095C274.46 322.154 271.375 321.84 268.342 321.944C263.898 322.049 259.558 322.99 254.904 323.565C253.336 323.774 251.819 323.356 250.355 322.885C248.473 322.31 246.643 321.683 244.813 321.526C243.715 321.422 242.669 321.526 241.571 321.892C238.12 322.938 234.93 324.192 231.689 325.656C227.296 327.643 222.904 329.995 217.728 332.714C217.048 333.08 216.682 333.864 216.891 334.596C217.1 335.328 217.728 335.903 218.512 335.903C218.512 335.903 226.46 335.955 234.198 336.007C238.068 336.06 241.885 336.112 244.656 336.216C247.95 336.321 249.832 338.098 252.604 338.883C253.388 339.092 254.172 339.249 255.114 339.353C257.519 339.562 260.447 338.098 264.421 337.471C266.042 337.21 267.924 337.105 270.016 337.419C272.264 337.733 277.65 338.674 284.029 339.824C298.094 342.385 316.814 345.888 316.814 345.94ZM306.827 340.66C300.29 339.458 291.872 337.889 284.656 336.582C278.225 335.432 272.787 334.439 270.539 334.125C268.081 333.759 265.885 333.864 263.95 334.178C260.29 334.753 257.623 336.164 255.427 336.007C252.081 335.746 250.198 333.969 247.375 333.237C246.591 333.027 245.754 332.923 244.813 332.871C242.042 332.766 238.172 332.714 234.303 332.662C231.166 332.609 227.976 332.609 225.309 332.557C228.028 331.145 230.59 329.891 233.1 328.741C236.185 327.329 239.27 326.127 242.564 325.133C243.244 324.924 243.924 324.872 244.604 324.924C246.225 325.029 247.793 325.656 249.414 326.127C251.349 326.702 253.283 327.172 255.375 326.911C259.924 326.336 264.159 325.447 268.499 325.343C271.166 325.29 273.885 325.499 276.761 326.388C279.637 327.225 285.911 330.152 292.761 333.498C297.519 335.851 302.539 338.412 306.827 340.66Z" fill="white"/>
<path fill-rule="evenodd" clip-rule="evenodd" d="M303.48 337.889C301.911 337.367 300.291 337.994 298.931 339.51C297.362 341.288 296.003 344.424 295.114 346.202C294.487 347.404 291.924 351.795 291.192 355.246C290.67 357.703 291.14 359.742 292.604 360.735C293.911 361.624 295.428 361.362 296.944 359.951C299.036 357.912 301.284 352.841 302.277 350.907C303.48 348.502 305.153 344.215 305.362 341.653C305.467 339.615 304.63 338.308 303.48 337.889ZM301.964 341.288C301.911 341.758 301.859 342.438 301.702 343.013C301.179 345.156 300.081 347.77 299.245 349.391C298.565 350.75 297.153 353.939 295.689 356.135C295.271 356.71 294.643 357.337 294.33 357.651C294.277 357.442 294.33 357.232 294.33 356.971C294.382 356.291 294.539 355.56 294.8 354.775C295.741 351.848 297.676 348.659 298.147 347.718C298.722 346.568 299.558 344.738 300.447 343.17C300.866 342.49 301.284 341.915 301.755 341.444C301.807 341.444 301.859 341.34 301.964 341.288Z" fill="white"/>
<path fill-rule="evenodd" clip-rule="evenodd" d="M234.094 356.814C237.074 357.964 239.427 358.487 241.414 358.696C245.283 359.115 247.898 358.173 252.185 358.226C253.127 358.226 254.016 358.644 255.323 359.115C257.31 359.794 260.029 360.578 264.421 360.787C267.663 360.944 271.846 360.84 277.336 360.16C278.225 360.056 278.905 359.219 278.8 358.33C278.696 357.442 277.859 356.762 276.97 356.867C271.741 357.494 267.767 357.598 264.63 357.442C259.663 357.18 257.101 356.135 255.218 355.507C254.068 355.141 253.179 354.88 252.238 354.828C248.055 354.775 245.545 355.664 241.728 355.298C240.002 355.141 237.963 354.619 235.296 353.625C234.407 353.259 233.414 353.73 233.1 354.619C232.787 355.455 233.205 356.448 234.094 356.814Z" fill="white"/>
<path d="M243.506 86.6919C244.238 86.2214 245.022 85.8555 245.859 85.4895C267.924 76.0271 289.205 91.0833 296.996 91.1356C307.925 91.1878 335.376 75.9226 369.624 82.0914C394.043 86.4828 414.122 123.548 411.769 139.127C410.828 145.557 407.429 158.679 408.422 165.371C409.259 170.965 426.828 195.222 429.756 204.266C434.775 219.74 430.854 275.574 428.867 288.12C432.998 273.953 436.919 264.072 441.05 249.905C443.037 243.213 443.769 234.692 449.939 230.091C456.632 225.073 465.625 226.38 473.259 225.177C474.985 224.916 478.854 223.034 479.9 221.518C480.423 220.786 480.841 220.054 481.207 219.27C490.567 223.4 492.972 238.299 493.756 248.598C495.011 265.379 483.822 281.115 476.711 296.694C471.586 307.882 461.808 320.115 448.057 318.076C443.351 317.396 437.181 312.691 432.37 313.318C431.481 313.423 427.978 324.872 427.873 325.133C427.56 325.865 427.403 326.231 427.141 326.806C420.867 339.667 413.18 351.743 402.671 361.624C392.84 370.825 381.232 377.778 369.311 383.894C351.167 393.252 331.193 400.728 311.637 406.74C281.624 415.941 252.97 422.685 229.44 395.291C224.159 389.122 221.963 380.914 217.989 373.909C214.747 368.211 210.303 362.878 207.793 356.762C195.871 328.218 192.42 289.741 196.603 259.315C198.59 244.991 206.433 232.392 208.629 218.172C211.139 201.809 202.355 186.439 203.924 170.233C205.44 153.87 213.963 137.82 221.179 122.45C221.335 122.816 221.492 123.182 221.649 123.6C224.211 117.536 226.564 111.367 229.126 105.721C233.414 98.925 237.702 92.4948 243.506 86.6919Z" stroke="white" stroke-width="5" stroke-miterlimit="2.025" stroke-linecap="round" stroke-linejoin="round"/>
<path fill-rule="evenodd" clip-rule="evenodd" d="M212.747 154.849C212.395 154.198 211.819 153.753 211.088 153.644L200.198 152.469C199.351 152.38 198.471 152.772 198.031 153.514C197.541 154.241 197.537 155.167 197.959 155.948C198.536 156.938 199.144 157.829 199.751 158.719C201.136 160.66 202.666 162.48 203.921 164.491C204.217 164.962 204.709 165.327 205.26 165.491C207.594 166.078 210.327 164.602 211.951 162.086C213.435 159.855 213.857 156.98 212.747 154.849ZM204.678 157.57C205.455 158.62 206.283 159.686 207.031 160.836C207.031 160.836 207.046 160.786 207.096 160.801C207.516 160.49 207.901 160.114 208.216 159.608C208.531 159.101 208.796 158.58 208.895 158.064L204.678 157.57Z" fill="white"/>
<path fill-rule="evenodd" clip-rule="evenodd" d="M205.021 175.035C204.326 174.924 203.625 175.222 203.122 175.763C203.048 175.755 195.921 184.071 195.921 184.071C195.369 184.718 195.194 185.666 195.557 186.448C195.88 187.263 196.642 187.79 197.525 187.883C198.668 187.967 199.746 187.97 200.824 187.973C203.209 187.928 205.576 187.695 207.944 187.798C208.5 187.819 209.078 187.62 209.526 187.259C211.33 185.666 211.658 182.578 210.5 179.816C209.459 177.364 207.358 175.431 204.972 175.141L205.021 175.035ZM202.654 183.334C203.96 183.287 205.307 183.206 206.68 183.24C206.68 183.24 206.647 183.199 206.687 183.167C206.668 182.644 206.576 182.114 206.336 181.568C206.097 181.022 205.816 180.509 205.447 180.136L202.654 183.334Z" fill="white"/>
<path fill-rule="evenodd" clip-rule="evenodd" d="M444.919 295.23C446.906 293.035 448.37 290.316 450.148 287.964C450.828 287.075 451.508 286.238 452.344 285.507C454.174 283.886 457.05 282.318 458.776 280.226C459.821 278.972 460.501 277.508 460.658 275.887C460.867 273.796 460.397 272.123 459.665 270.659C458.985 269.3 457.991 268.15 456.946 267.052C455.743 265.798 454.384 264.647 453.495 263.131C453.024 262.347 452.344 261.668 451.665 260.936C451.037 260.308 450.305 259.786 449.939 259.054C449.625 258.374 450.044 257.642 451.037 256.44C453.076 254.349 455.22 252.362 457.416 250.48C460.763 247.552 464.266 244.729 467.769 241.854C468.554 241.227 469.704 240.233 471.011 239.554C471.743 239.136 472.527 238.717 473.207 238.979C475.299 239.868 476.397 241.802 477.077 243.945C478.279 247.866 478.122 252.623 478.227 255.917C478.331 260.204 478.488 264.595 477.756 268.83C477.286 271.444 476.449 274.005 474.985 276.358C474.514 277.09 474.044 277.769 473.521 278.397C471.116 281.324 468.188 283.834 466.044 286.97C464.161 289.741 462.488 292.825 460.344 295.439C459.089 297.008 457.625 298.419 455.795 299.413C454.697 300.04 454.331 301.399 454.959 302.497C455.586 303.595 456.946 303.961 458.044 303.333C460.397 302.026 462.227 300.249 463.848 298.262C466.044 295.544 467.769 292.407 469.756 289.532C471.848 286.5 474.671 284.095 477.024 281.272C477.652 280.488 478.279 279.651 478.802 278.763C480.632 275.887 481.626 272.803 482.201 269.614C482.985 265.118 482.828 260.361 482.724 255.812C482.671 252.153 482.724 246.925 481.416 242.586C480.318 239.083 478.384 236.208 475.037 234.744C473.73 234.169 472.318 234.169 470.854 234.587C468.554 235.267 466.148 237.149 464.789 238.247C461.286 241.122 457.73 243.945 454.331 246.925C452.031 248.912 449.782 251.003 447.638 253.199C447.586 253.251 447.586 253.303 447.534 253.303C445.547 255.656 445.076 257.538 445.181 259.054C445.285 260.465 445.965 261.72 446.959 262.765C447.795 263.654 448.893 264.438 449.468 265.432C450.985 267.889 453.39 269.614 454.959 271.81C455.638 272.803 456.109 273.901 456.004 275.417C455.9 276.41 455.272 277.142 454.593 277.874C452.972 279.442 450.776 280.697 449.259 282.004C448.214 282.945 447.272 283.99 446.436 285.141C444.71 287.441 443.298 290.002 441.416 292.094C440.579 293.035 440.632 294.498 441.573 295.387C442.566 296.276 444.03 296.171 444.919 295.23Z" fill="white"/>
<path fill-rule="evenodd" clip-rule="evenodd" d="M458.933 248.18C463.743 250.794 467.612 255.446 469.442 260.674C471.22 265.798 471.063 271.496 467.665 276.149C466.933 277.142 467.142 278.553 468.188 279.285C469.233 280.017 470.593 279.808 471.325 278.763C475.612 272.855 476.031 265.641 473.782 259.106C471.639 252.78 466.985 247.134 461.129 243.997C459.978 243.37 458.567 243.788 457.991 244.938C457.364 246.141 457.782 247.605 458.933 248.18Z" fill="white"/>
<path fill-rule="evenodd" clip-rule="evenodd" d="M290.303 9.99964C290.199 10.1042 289.99 10.2088 289.885 10.261C289.624 10.3656 289.31 10.4701 288.996 10.5747C286.8 11.202 284.447 10.7315 282.199 10.8884C281.467 10.9407 280.682 11.0452 279.95 11.2543C276.395 12.1953 273.101 14.0251 269.597 15.2798C268.813 15.5411 268.029 15.8025 267.244 15.9594C263.846 16.6913 260.29 16.3253 256.839 16.639C255.846 16.7435 254.852 16.8481 253.859 17.1095C253.022 17.3186 251.244 18.0505 249.153 19.0438C245.649 20.7167 241.205 23.0169 239.532 23.9057C236.499 25.4218 233.989 27.5652 231.741 30.0222C228.551 33.4203 225.937 37.3935 223.113 40.9484C221.44 43.0396 218.303 46.4377 216.159 49.6789C215.009 51.4041 214.12 53.077 213.754 54.5931C213.492 55.5341 213.335 56.5274 213.231 57.5207C212.865 60.971 213.231 64.526 212.551 67.9241C211.714 72.054 209.309 75.7135 208.054 79.739C207.427 81.7255 207.113 83.8167 207.27 86.0124C207.375 87.9989 208.002 89.8287 208.839 91.5539C210.564 94.8997 213.44 97.775 215.218 101.016C215.636 101.853 215.688 102.637 215.636 103.473C215.427 105.146 214.695 106.767 214.172 108.44C213.701 109.956 213.44 111.42 213.545 112.936C213.701 114.556 214.224 116.072 215.009 117.484C216.368 119.941 218.669 122.032 219.505 124.594C219.819 125.483 220.656 126.162 221.597 126.162C222.538 126.214 223.427 125.639 223.793 124.751C227.505 115.968 230.747 106.871 234.983 99.657C238.12 94.2723 241.832 89.9332 246.852 87.7898C253.597 84.9145 260.238 84.444 266.408 85.1236C274.408 86.0124 281.571 88.7831 287.166 90.8743C291.349 92.4426 294.748 93.5927 297.101 93.5927C304.735 93.645 320.317 86.326 340.605 83.869C349.389 82.8234 359.062 82.6666 369.363 84.5486C380.239 86.5351 390.174 95.4225 397.494 105.721C405.808 117.432 410.828 131.076 409.625 138.97C408.945 143.362 407.167 150.89 406.435 157.372C406.069 160.614 405.965 163.646 406.278 165.946C406.435 167.044 407.063 168.717 408.109 170.756C412.658 179.695 425.259 197.679 427.664 205.207C429.651 211.376 430.174 224.184 429.965 237.933C429.704 258.217 427.873 280.592 426.671 287.964C426.462 289.166 427.246 290.264 428.449 290.525C429.651 290.787 430.854 290.107 431.22 288.957C431.952 286.291 432.684 283.781 433.468 281.324C436.762 270.921 439.952 262.243 443.351 250.741C444.501 246.821 445.233 242.22 446.906 238.247C447.9 235.894 449.259 233.751 451.403 232.13C453.756 230.353 456.475 229.516 459.299 228.994C464.057 228.157 469.129 228.366 473.678 227.634C474.88 227.478 476.972 226.641 478.75 225.596C480.109 224.811 481.312 223.818 481.887 223.034C483.613 220.577 484.554 217.911 485.077 215.14C486.175 209.337 485.286 202.959 486.175 197.313C486.959 192.294 489.364 187.589 490.567 182.675C491.142 180.323 491.508 177.918 491.351 175.461L490.149 165.528C489.992 161.711 490.828 160.561 491.09 158.104C491.194 157.111 491.247 155.909 491.09 154.288C490.828 151.465 489.573 147.544 488.894 143.989C488.632 142.63 488.423 141.323 488.528 140.173C488.58 139.179 488.737 138.238 488.946 137.245C489.521 134.684 490.305 132.122 490.619 129.56C491.037 125.796 491.142 122.555 490.881 119.366C490.619 116.177 489.939 113.04 488.841 109.381C488.057 106.819 486.802 104.519 485.286 102.375C482.096 97.8796 477.704 94.1155 474.724 89.515C472.161 85.5419 470.959 80.5231 468.554 76.3931C467.351 74.3543 465.887 72.5246 463.9 71.0085C462.436 69.9106 461.181 69.1265 460.083 68.5514C457.364 67.1399 455.429 66.9308 451.821 64.2646C451.455 64.0032 451.089 63.6372 450.776 63.2713C449.73 62.1734 448.841 60.971 447.691 60.03C445.756 58.3571 444.24 57.8866 442.723 56.6319C442.253 56.266 441.834 55.7955 441.364 55.1681C440.841 54.4362 440.684 53.7043 440.475 53.0247C440.213 52.136 439.9 51.2995 439.429 50.5154C438.906 49.7312 438.226 48.9993 437.076 48.3197C436.449 47.9537 435.821 47.6401 435.142 47.3264C432.893 46.3331 430.488 45.758 428.292 44.6079C427.141 43.9806 426.88 42.7782 426.409 41.628C425.887 40.2688 425.311 38.9096 424.318 37.864C423.638 37.0798 422.749 36.4525 421.547 36.0865C419.56 35.4069 417.416 35.2501 415.377 34.8319C414.697 34.675 414.017 34.5182 413.39 34.2045C405.651 30.6496 398.749 25.4218 391.324 21.2918C387.978 19.462 384.527 17.8414 380.866 16.639C376.317 15.1752 371.664 14.1819 367.01 13.45C356.343 11.7771 345.415 11.4634 334.748 9.99964C332.657 9.68597 330.722 9.00635 328.84 8.06534C323.925 5.66054 319.48 2.00105 314.199 0.328145C312.892 -0.090082 311.532 -0.090082 310.068 0.223588C307.768 0.694093 305.415 2.00105 303.532 2.31472C299.349 2.94206 298.304 2.10561 295.741 2.15789C294.696 2.15789 293.493 2.26244 291.872 2.57611C290.356 2.88978 289.624 3.72624 289.31 4.7718C289.049 5.60826 289.101 6.81066 289.519 8.01306C289.676 8.58812 290.147 9.68597 290.303 9.99964ZM433.259 267C433.887 258.06 434.357 247.657 434.514 237.776C434.723 223.348 434.096 210.017 432.004 203.534C431.324 201.391 429.86 198.463 427.978 195.117C423.69 187.432 417.102 177.447 413.39 170.703C411.978 168.142 410.932 166.155 410.775 165.005C410.462 163.018 410.618 160.457 410.932 157.686C411.664 151.256 413.442 143.832 414.122 139.441C415.429 130.763 410.252 115.706 401.154 102.846C393.102 91.5016 382.069 81.9347 370.095 79.7912C359.271 77.8569 349.128 77.9615 339.977 79.1116C319.951 81.5687 304.578 88.8354 297.049 88.8354C295.114 88.8354 292.238 87.7376 288.735 86.4306C282.826 84.2349 275.245 81.3596 266.878 80.4186C259.976 79.6344 252.551 80.2095 245.022 83.3984C239.166 85.9078 234.721 90.8743 231.009 97.1477C227.349 103.369 224.42 110.897 221.335 118.477C220.499 117.327 219.662 116.177 218.983 115.027C218.512 114.19 218.146 113.354 218.094 112.413C217.989 111.211 218.407 110.008 218.773 108.806C219.296 107.185 219.924 105.564 220.133 103.944C220.342 102.219 220.185 100.441 219.192 98.716C217.675 95.9453 215.322 93.4359 213.597 90.6129C212.656 89.0968 211.924 87.4762 211.819 85.6464C211.714 84.0258 211.976 82.5097 212.447 81.0459C213.701 76.9159 216.159 73.0996 217.048 68.8128C217.78 65.2579 217.414 61.5984 217.832 57.9912C217.937 57.207 218.041 56.4751 218.25 55.6909C218.617 54.2794 219.662 52.6588 220.865 50.9859C222.852 48.2674 225.362 45.5489 226.773 43.7715C229.492 40.3211 232.055 36.4525 235.14 33.1067C237.022 31.0678 239.166 29.2381 241.676 27.9834C243.349 27.0947 247.741 24.8467 251.192 23.1738C252.865 22.3896 254.277 21.71 254.957 21.5532C258.355 20.769 261.911 21.1872 265.31 20.8735C266.303 20.769 267.297 20.6644 268.238 20.4553C269.231 20.2462 270.173 19.9325 271.114 19.6189C274.512 18.4165 277.702 16.639 281.153 15.698C283.349 15.1229 285.807 15.5934 288.055 15.3843C288.839 15.332 289.571 15.1752 290.303 14.9661C291.924 14.4956 293.179 13.8682 293.911 12.9272C294.591 12.0908 295.009 11.0452 294.905 9.52913C294.853 9.16319 294.643 8.43129 294.33 7.64711C294.225 7.438 294.121 7.07205 293.964 6.7061C294.643 6.60155 295.219 6.54927 295.741 6.54927C298.513 6.54927 299.663 7.33344 304.16 6.65383C306.094 6.39243 308.604 5.0332 310.957 4.56269C311.585 4.45813 312.212 4.35358 312.787 4.56269C317.807 6.18332 322.042 9.73825 326.801 12.0385C329.101 13.1886 331.506 14.0251 334.069 14.391C344.683 15.8548 355.611 16.1162 366.278 17.7891C370.723 18.4687 375.115 19.4097 379.455 20.8213C382.853 21.9191 386.043 23.4352 389.128 25.1081C396.71 29.2904 403.664 34.5705 411.507 38.1777C412.448 38.5959 413.442 38.9096 414.435 39.1187C416.318 39.5369 418.305 39.6415 420.135 40.2165C421.337 40.6348 421.651 41.6803 422.017 42.7259C422.54 43.9806 423.011 45.2875 423.743 46.3854C424.37 47.2218 425.102 47.9537 426.148 48.5288C428.135 49.5743 430.383 50.2017 432.475 51.0381C433.259 51.3518 433.991 51.6655 434.671 52.0837C435.246 52.4497 435.56 52.8156 435.717 53.2338C436.344 54.6453 436.449 56.1614 437.651 57.7298C438.383 58.7231 439.063 59.455 439.795 60.03C441.259 61.2847 442.828 61.7552 444.71 63.3758C445.704 64.2646 446.54 65.3624 447.481 66.3557C448.004 66.8785 448.527 67.4013 449.102 67.8195C450.044 68.4991 450.828 69.0219 451.612 69.4924C455.063 71.5313 457.05 71.3744 461.129 74.5111C462.593 75.609 463.691 77.0205 464.632 78.5888C467.142 82.7711 468.344 87.8421 470.907 91.8675C473.887 96.5203 478.331 100.337 481.573 104.885C482.828 106.61 483.822 108.492 484.501 110.583C485.495 113.877 486.122 116.752 486.384 119.627C486.645 122.503 486.541 125.43 486.122 128.881C485.809 131.756 484.763 134.474 484.292 137.35C484.135 138.134 484.031 138.97 483.979 139.807C483.874 141.271 484.083 142.996 484.449 144.773C485.129 148.171 486.332 151.883 486.593 154.602C486.698 155.804 486.698 156.745 486.593 157.529C486.332 160.195 485.443 161.502 485.6 165.632C485.652 166.364 485.704 167.096 485.809 167.776C486.122 170.39 486.75 172.951 486.854 175.565C486.959 177.604 486.645 179.538 486.175 181.473C484.92 186.544 482.515 191.353 481.678 196.477C480.789 202.07 481.678 208.396 480.58 214.147C480.162 216.29 479.43 218.381 478.122 220.315C477.756 220.838 476.815 221.413 475.874 221.884C474.828 222.459 473.678 222.929 472.998 223.034C467.56 223.87 461.495 223.504 456.004 224.916C453.39 225.596 450.933 226.641 448.684 228.314C445.913 230.405 444.03 233.176 442.723 236.26C440.945 240.443 440.161 245.2 438.959 249.278C437.024 255.812 435.142 261.459 433.259 267Z" fill="white"/>
<path fill-rule="evenodd" clip-rule="evenodd" d="M419.037 362.408C418.88 363.349 419.298 364.29 420.187 364.761C421.076 365.231 422.122 365.126 422.854 364.447C424.579 362.826 426.566 362.983 428.24 363.976C430.279 365.126 431.952 367.322 432.736 369.413C434.409 373.909 435.612 380.235 436.396 386.299C437.338 393.67 437.651 400.676 437.442 403.603C437.128 407.315 435.821 410.452 433.834 413.693C430.226 419.757 424.579 426.24 418.775 437.061C412.187 449.451 403.926 470.311 394.357 488.608C390.383 496.188 386.252 503.298 381.86 509.153C375.376 517.832 364.971 530.744 354.618 541.304C346.827 549.251 339.141 555.89 333.284 558.086C322.565 562.059 312.317 561.85 303.689 559.602C295.846 557.563 289.31 553.904 285.075 550.244C282.408 547.944 280.63 545.748 280.316 544.075C279.95 542.141 277.545 530.953 275.245 522.641C273.99 518.041 272.682 514.277 271.846 513.074C268.342 508.16 263.689 504.135 259.82 499.534C258.303 497.704 256.891 495.77 255.793 493.574C249.1 480.505 246.904 466.965 240.891 451.333C239.584 447.935 238.068 444.433 236.342 440.826C233.414 434.761 230.643 429.899 228.028 425.874C224.525 420.489 221.388 416.568 218.617 413.327C219.976 410.295 222.172 405.694 224.264 401.303C225.885 398.01 227.453 394.821 228.708 392.625C229.126 391.893 229.074 391.004 228.656 390.325C227.662 388.756 226.773 387.083 225.989 385.358C224.002 381.176 222.277 376.785 219.976 372.759L215.845 366.224C215.322 365.44 214.329 365.022 213.44 365.283C209.884 366.12 206.433 367.008 203.192 367.949C200.734 368.681 198.433 369.413 196.394 370.197C190.852 372.289 185.884 376.419 180.289 378.719C178.198 379.608 175.949 380.183 173.596 380.183C166.433 380.235 159.949 376.575 153.1 375.007C149.805 374.275 146.459 373.961 142.956 374.589C139.505 375.216 136.524 376.575 133.805 378.405C128.106 382.169 123.557 387.868 117.23 390.743C110.537 393.723 103.164 395.552 96.4193 398.741C93.3865 400.153 90.5107 401.878 87.844 404.022C82.5629 408.308 77.9093 413.223 73.5694 418.45C67.1902 426.135 61.5954 434.552 55.9483 442.708C48.2619 453.791 42.1442 462.573 36.1311 472.193C32.2095 478.414 28.3401 485.001 24.1571 492.686C19.3466 501.521 14.9544 510.303 10.9282 519.243C6.90203 528.235 3.29415 537.384 0.104576 546.951C0 547.212 0 547.526 0 547.787L1.67322 582.657C1.67322 583.075 1.83008 583.493 2.09152 583.807C2.30068 584.12 2.66669 584.486 3.29415 584.8C3.86932 585.062 5.01966 585.375 6.79745 585.584C11.608 586.264 21.6996 586.891 36.0265 587.466C91.0336 589.714 208.734 591.23 326.539 591.701C480.841 592.276 635.353 590.969 649.732 587.1C664.163 583.18 670.595 575.233 672.477 565.039C674.046 556.57 672.268 546.376 669.131 535.449C665.314 522.275 659.405 507.899 655.222 494.254C654.124 490.751 652.085 487.562 649.366 484.687C644.921 479.93 638.804 475.747 632.947 471.565C627.143 467.435 621.653 463.253 618.934 458.182C615.797 452.327 616.058 444.956 613.601 438.839C612.398 435.859 610.62 433.088 607.797 430.893C605.653 429.22 603.405 427.651 601.104 426.188C597.758 424.044 594.307 422.005 590.908 419.914C584.372 415.889 577.679 411.55 570.568 408.256C565.705 406.008 560.633 404.231 555.352 403.342C544.842 401.564 540.345 402.296 533.077 401.617C530.515 401.355 527.639 400.937 523.927 400.153C522.62 399.892 521.678 399.212 520.842 398.375C519.587 397.121 518.646 395.552 517.548 394.089C516.188 392.259 514.724 390.586 512.685 389.436C508.345 387.083 503.116 387.345 498.515 385.986C496.998 385.515 495.534 384.835 494.279 383.581C489.835 379.137 486.279 373.7 481.835 369.152C479.796 367.061 477.599 365.179 475.037 363.663C469.077 360.055 462.802 356.448 456.266 353.782C451.769 351.952 447.168 350.593 442.357 349.861C436.083 348.92 433.259 349.286 429.547 348.92C428.083 348.763 426.514 348.502 424.527 348.031C423.9 347.875 423.272 347.979 422.749 348.293C422.226 348.606 421.86 349.129 421.704 349.757L419.037 362.408ZM6.06542 580.879L4.49678 547.996C7.63406 538.743 11.1374 529.856 15.0067 521.125C18.9806 512.238 23.3205 503.56 28.0787 494.881C32.2095 487.249 36.0265 480.766 39.8958 474.597C45.8567 465.083 51.9744 456.3 59.6084 445.321C65.2033 437.271 70.6935 428.958 76.9681 421.378C81.0988 416.412 85.5433 411.706 90.6153 407.576C92.9682 405.642 95.5304 404.178 98.2493 402.871C104.942 399.735 112.315 397.905 118.955 394.925C125.544 391.998 130.302 386.142 136.21 382.221C138.459 380.758 140.812 379.608 143.635 379.085C146.511 378.562 149.283 378.876 152.001 379.451C159.165 381.071 165.962 384.731 173.492 384.731C176.472 384.731 179.244 383.999 181.91 382.901C187.453 380.601 192.42 376.523 197.91 374.432C199.897 373.7 202.093 372.968 204.394 372.289C207.113 371.504 209.937 370.773 212.865 370.041L216.002 375.007C218.564 379.503 220.394 384.469 222.747 389.122C223.166 389.959 223.636 390.743 224.107 391.579C222.956 393.723 221.597 396.493 220.185 399.316C217.675 404.44 215.166 409.877 213.858 412.804C213.492 413.589 213.649 414.53 214.224 415.209C217.048 418.555 220.447 422.633 224.211 428.383C226.773 432.304 229.44 437.009 232.264 442.864C239.898 458.757 242.512 472.349 247.166 485.158C248.473 488.765 249.937 492.267 251.715 495.77C252.97 498.227 254.538 500.475 256.264 502.566C260.029 507.114 264.63 511.035 268.081 515.845C268.97 517.1 270.225 521.752 271.584 526.928C273.571 534.561 275.454 543.343 275.767 545.016C276.133 546.794 277.388 549.094 279.584 551.447C283.977 556.152 292.186 561.432 302.487 564.098C311.951 566.555 323.14 566.816 334.801 562.425C341.128 560.072 349.441 553.067 357.807 544.546C368.317 533.829 378.88 520.707 385.468 511.924C389.965 505.912 394.305 498.541 398.383 490.751C407.952 472.454 416.161 451.595 422.802 439.257C428.501 428.54 434.148 422.11 437.756 416.098C440.057 412.229 441.625 408.465 441.939 404.022C442.2 400.885 441.887 393.514 440.893 385.776C440.057 379.346 438.749 372.655 436.972 367.897C435.612 364.29 432.266 360.474 428.501 359.219C427.194 358.801 425.887 358.644 424.527 358.853L425.677 353.155C426.932 353.416 427.978 353.521 429.024 353.625C432.684 353.991 435.455 353.625 441.625 354.566C446.07 355.194 450.305 356.501 454.436 358.173C460.763 360.735 466.776 364.185 472.58 367.688C474.776 369.047 476.711 370.668 478.436 372.445C482.881 376.994 486.436 382.483 490.933 386.927C492.763 388.756 494.855 389.802 497.103 390.481C501.391 391.788 506.358 391.37 510.384 393.566C511.796 394.35 512.789 395.605 513.731 396.859C514.933 398.532 516.084 400.258 517.443 401.669C518.855 403.081 520.58 404.231 522.829 404.701C526.698 405.538 529.783 405.956 532.502 406.217C539.665 406.897 544.11 406.165 554.463 407.89C559.378 408.727 564.032 410.347 568.529 412.438C575.431 415.627 581.967 419.862 588.346 423.835C591.744 425.926 595.143 427.913 598.49 430.056C600.686 431.468 602.777 432.932 604.816 434.5C606.96 436.173 608.267 438.264 609.156 440.512C611.666 446.785 611.457 454.313 614.699 460.325C617.209 464.978 621.653 469.004 626.725 472.82C633.209 477.682 640.738 482.282 645.81 487.771C648.006 490.176 649.784 492.686 650.621 495.561C656.843 515.74 666.778 537.331 668.137 554.479C668.712 561.536 667.824 567.81 664.32 572.776C661.235 577.167 656.111 580.513 648.372 582.604C633.993 586.525 480.109 587.675 326.382 587.1C208.63 586.63 90.9813 585.114 36.0265 582.918C21.9087 582.343 11.974 581.716 7.26805 581.088C6.84974 581.036 6.43144 580.932 6.06542 580.879ZM282.774 412.595C282.617 412.961 282.565 413.327 282.565 413.745C282.617 414.373 282.931 414.948 283.349 415.314L283.401 415.575L283.506 415.993V416.098V416.046L283.454 415.471L283.349 415.366L283.14 414.53C283.035 414.268 282.931 414.007 282.931 413.693C282.931 413.641 282.931 413.536 282.931 413.484L282.826 412.909L282.774 412.595C282.879 412.334 283.035 412.125 283.245 411.916L283.192 411.497C281.833 407.629 282.199 410.086 282.774 412.595ZM283.872 415.993H283.506V416.046L283.872 415.993ZM284.656 415.784V415.836H284.761H284.709H284.918V415.732H284.866C284.813 415.732 284.813 415.732 284.761 415.732H284.709L284.656 415.784ZM284.552 415.784V415.836V415.784V415.68V415.784ZM285.545 415.627L285.493 415.68L285.545 415.732H285.493H285.284H285.232H285.179H285.075V415.523V415.418H285.022C284.97 415.418 284.97 415.366 284.918 415.366L284.866 415.314L284.813 414.634C284.656 414.425 284.552 414.164 284.447 413.902L284.29 412.072L284.447 413.902L284.552 415.052C284.656 415.157 284.761 415.261 284.918 415.314V415.471L285.075 415.575V415.784V415.836H285.127H285.232H285.075V415.784C285.022 415.784 284.918 415.732 284.866 415.732V415.471C284.761 415.418 284.656 415.314 284.552 415.261V415.052L284.447 413.902C284.238 413.379 284.081 412.857 284.134 412.386C284.029 412.595 283.977 412.857 283.924 413.066C284.029 413.432 284.134 413.85 284.186 414.216L284.395 414.843L284.447 414.895C284.447 414.948 284.5 414.948 284.5 415V415.209V415.418L284.552 415.627C284.656 415.68 284.709 415.68 284.813 415.732V415.784C284.866 415.784 284.918 415.784 285.022 415.784V415.889H284.813H284.709H284.813H285.022H285.232L285.441 415.836H285.336H285.284H285.493H285.545H285.598H285.493H285.598H285.911L286.068 415.784V415.732L285.545 415.627ZM284.761 414.477V414.582L284.918 414.843L284.97 414.948L285.022 415.366V415.471L285.179 415.523V415.732H285.232H285.441V415.68L285.388 415.627C285.284 415.627 285.232 415.575 285.127 415.575V415.471C285.075 415.471 285.022 415.418 284.97 415.418L284.918 415V414.843L284.813 414.686L284.761 414.477ZM286.173 415.627H286.068H285.911H286.068H286.225H286.173ZM285.545 415.575V415.366V415.209H285.493V415.418L285.545 415.575V415.627C285.65 415.627 285.754 415.627 285.859 415.627V415.575C285.754 415.627 285.65 415.575 285.545 415.575ZM286.225 415.627H286.12H286.225ZM285.493 414.53L285.545 415.052L285.598 415.105V415.209C285.702 415.261 285.807 415.314 285.859 415.314V415.575C285.911 415.575 285.964 415.575 286.016 415.575L285.964 415.366L285.807 415.314V415.209L285.65 415.105L285.598 415.052V414.948L285.65 414.686L285.598 414.634L285.493 414.53ZM284.5 415.366V415.575V415.366V415.209L284.447 415.157L284.5 415.366ZM284.97 414.739V414.948L285.075 415.157L285.127 415.209V415.418C285.179 415.471 285.284 415.471 285.336 415.471L285.232 415.314L285.127 415.157V414.843C285.075 414.895 285.022 414.843 284.97 414.739ZM286.643 415.523H286.696H286.643ZM285.232 412.857C285.232 413.013 285.232 413.17 285.232 413.327V413.379L285.388 413.693L285.441 413.85L285.493 414.164C285.545 414.32 285.65 414.425 285.754 414.53V414.686V414.791L285.859 414.895L285.911 414.948L285.964 415.314L286.12 415.366V415.471C286.277 415.523 286.434 415.523 286.591 415.575V415.523C286.434 415.471 286.277 415.418 286.12 415.366L286.068 415.209L286.016 415L285.964 414.948V414.791L285.911 414.634L285.859 414.582V414.53L285.702 414.216L285.545 413.902L285.388 413.379C285.336 413.223 285.232 413.013 285.232 412.857ZM287.114 415.471L287.532 415.418L287.114 415.471H287.323L287.585 415.418L287.951 415.366H288.055H287.951L288.369 415.261C288.421 415.261 288.526 415.261 288.578 415.209H288.63L288.892 415.157C288.996 415.157 289.153 415.105 289.153 415.105L288.735 415.157L288.996 415.105L289.415 415.052H289.624H289.415L289.676 415L290.042 414.948H290.147H290.042L290.46 414.843C290.513 414.843 290.617 414.843 290.67 414.791H290.722L290.983 414.739C291.088 414.739 291.245 414.686 291.245 414.686L290.826 414.739L291.088 414.686L291.454 414.634H291.663H291.454L291.715 414.53L292.081 414.477H292.186H292.081L292.5 414.373C292.552 414.373 292.656 414.373 292.709 414.32H292.761L292.97 414.268C293.075 414.268 293.232 414.216 293.232 414.216L292.866 414.268L293.127 414.216L293.493 414.164H293.545L293.755 414.111H293.545L293.807 414.007L294.173 413.954H294.277H294.173L294.591 413.85C294.643 413.85 294.748 413.85 294.8 413.798H294.853L295.062 413.745C295.166 413.745 295.323 413.693 295.323 413.693L294.957 413.745L295.219 413.693L295.532 413.641H295.585L295.794 413.589H295.585L295.898 413.484L296.212 413.432H296.317H296.212L296.578 413.327C296.63 413.327 296.735 413.327 296.787 413.275L296.892 413.223L297.101 413.17H297.206H297.258H297.31H297.415H297.362H297.31H297.258C297.153 413.17 297.101 413.17 296.996 413.223H297.049L297.362 413.17H297.415V413.118H297.624H297.676L297.885 413.066L297.676 413.118L297.99 413.013L298.304 412.961H298.356H298.46H298.356L298.722 412.804C298.774 412.804 298.879 412.804 298.931 412.752L299.036 412.7L299.245 412.647L299.349 412.595H299.454H299.402H299.349H299.297C299.192 412.595 299.14 412.647 299.036 412.647H299.088L299.402 412.595H299.454V412.543H299.611H299.663L299.925 412.491L299.715 412.543L300.029 412.438L300.343 412.386H300.395H300.5H300.395L300.761 412.229C300.813 412.229 300.918 412.177 300.97 412.177L301.075 412.125L301.284 412.072L301.441 412.02H301.545H301.493H301.389H301.232H301.075H301.127L301.441 411.968H301.493V411.916C301.545 411.916 301.598 411.916 301.65 411.863L302.016 411.811H301.859L302.121 411.706L302.539 411.654L302.121 411.706L301.911 411.759L302.643 411.602L302.225 411.654L302.643 411.602L302.016 411.706L301.807 410.086V409.929L301.755 409.824C301.755 409.772 301.702 409.72 301.702 409.668L301.65 409.563L301.493 408.57L301.545 408.413C301.545 408.361 301.545 408.361 301.545 408.308V408.256V408.099L301.441 407.315H301.336V407.263L301.179 407.315L301.807 411.863H301.702H301.598H301.702L301.493 411.184L300.97 407.42L300.866 407.472L301.232 410.243L301.493 411.184L301.598 411.863H301.441L301.232 410.243V410.19L300.866 407.472L301.023 407.42L300.866 407.472V407.42L300.5 407.524C300.447 407.524 300.395 407.576 300.343 407.576V407.524L299.82 407.681H299.768V407.786C299.715 407.838 299.663 407.89 299.558 407.942L299.506 407.733L299.297 407.838L299.349 408.204V408.256L299.297 407.89C299.402 407.838 299.506 407.786 299.611 407.786L299.297 407.838L299.14 407.89C299.036 407.942 298.879 407.942 298.774 408.047V407.995L298.513 408.099H298.46L298.304 408.152V408.099L297.781 408.256H297.728V408.413C297.676 408.465 297.624 408.517 297.519 408.57L297.467 408.361L297.258 408.465L297.31 408.831L297.258 408.883L297.206 408.518C297.31 408.465 297.415 408.465 297.519 408.413L297.206 408.465L297.101 408.518C296.996 408.57 296.84 408.57 296.735 408.622V408.57L296.474 408.674H296.421C296.369 408.674 296.317 408.727 296.212 408.727V408.674L295.689 408.831H295.637V408.988C295.585 409.04 295.532 409.093 295.428 409.145L295.375 408.936L295.114 408.988L295.166 409.354L295.114 409.406L295.062 409.04C295.166 408.988 295.271 408.988 295.375 408.936L295.062 408.988L294.957 409.04C294.853 409.093 294.696 409.093 294.591 409.145V409.093L294.382 409.145H294.33C294.277 409.145 294.173 409.197 294.121 409.197V409.145L293.598 409.302V409.459C293.545 409.511 293.441 409.563 293.389 409.615L293.336 409.406L293.075 409.459L293.127 409.824L293.075 409.877L293.022 409.459C293.127 409.406 293.232 409.406 293.336 409.354L293.022 409.406L292.918 409.459C292.813 409.511 292.656 409.511 292.552 409.563H292.5V409.511L292.29 409.563H292.238C292.186 409.563 292.081 409.615 292.029 409.615V409.563L291.506 409.72V409.877C291.454 409.929 291.349 409.981 291.297 410.034L291.245 409.824L290.983 409.877L291.036 410.243L290.983 410.295L290.931 409.877C291.036 409.824 291.14 409.824 291.245 409.772L290.931 409.824L290.826 409.877C290.722 409.929 290.565 409.929 290.46 409.981H290.408V409.929L290.199 409.981C290.094 409.981 290.042 410.034 289.99 410.034V409.981L289.467 410.138V410.295C289.415 410.347 289.31 410.4 289.258 410.452V410.243L288.996 410.295L289.049 410.661L288.996 410.713L288.944 410.295C289.049 410.243 289.153 410.243 289.258 410.19L288.944 410.243H288.839C288.735 410.295 288.578 410.295 288.473 410.347H288.421V410.295L288.264 410.347C288.16 410.347 288.107 410.4 288.003 410.4V410.347L287.48 410.504V410.661C287.428 410.713 287.323 410.765 287.271 410.818V410.609L287.009 410.661L287.062 411.027L287.009 411.079L286.957 410.661C287.062 410.609 287.166 410.609 287.271 410.556L286.957 410.609H286.852C286.748 410.609 286.591 410.661 286.486 410.713H286.434V410.661L286.277 410.713C286.173 410.713 286.068 410.765 286.016 410.765V410.713L285.545 410.818C285.493 410.818 285.388 410.87 285.336 410.87H285.232C285.022 410.922 284.813 410.975 284.656 411.079V411.131L284.552 411.184L284.5 411.236L284.552 411.759V411.811V412.072V412.125L284.604 412.177L284.761 414.164C284.656 414.007 284.604 413.85 284.552 413.693L284.447 412.491C284.447 412.334 284.5 412.229 284.552 412.072L284.447 411.916L284.552 411.759L284.5 411.236H284.552V411.131L284.656 411.079V410.975L284.761 410.922C284.813 410.922 284.813 410.87 284.866 410.87H284.918H285.179C285.127 410.87 285.075 410.87 284.97 410.87H284.918C284.813 410.87 284.656 410.922 284.552 410.975H284.5V410.922L284.343 410.975C284.238 410.975 284.134 411.027 284.029 411.027V411.131C283.82 411.236 283.611 411.393 283.454 411.55L283.506 411.706L283.401 411.863L283.349 411.968L283.506 412.438L283.558 412.543C283.506 412.752 283.506 413.013 283.506 413.275C283.558 413.85 283.82 414.373 284.238 414.739L284.343 415.209C283.872 415 283.506 414.634 283.297 414.164L283.14 412.386L283.192 412.229C283.245 412.177 283.245 412.125 283.297 412.02L283.349 411.916L283.297 411.759C283.349 411.706 283.401 411.602 283.506 411.55V411.445V411.288C283.715 411.131 283.924 411.027 284.134 410.975C283.349 409.563 283.297 410.138 283.506 411.288C283.401 411.341 283.349 411.393 283.245 411.497L283.349 411.759L283.245 411.916L283.192 412.02L283.245 412.386L283.401 414.164L283.454 414.582C283.715 414.895 284.081 415.157 284.5 415.314L284.552 415.471V415.523V415.575V415.523C284.134 415.471 283.82 415.314 283.506 415.105L283.454 414.634L283.401 414.216C283.245 413.954 283.192 413.693 283.14 413.379C283.088 413.066 283.14 412.752 283.245 412.438L283.192 412.072L283.14 411.654L283.245 411.55L283.14 411.184L283.192 411.602L283.245 412.02C283.035 412.334 282.931 412.7 282.931 413.118L283.14 414.059V414.164C283.192 414.32 283.297 414.425 283.401 414.582L283.454 415.052L283.506 415.627V415.68V415.732C283.768 416.255 286.905 422.633 284.656 415.68C285.075 415.941 286.173 416.568 286.016 415.366L286.225 415.314C286.277 415.314 286.382 415.314 286.434 415.261L286.957 415.209H286.748H286.852L287.114 415.471ZM285.754 413.798L285.702 414.059V414.164C285.911 414.53 286.12 414.843 286.277 415.105L286.382 415.157V415.261V415.314L286.486 415.366V415.471V415.314H286.434V415.209L286.33 415.157L286.277 415.105L286.173 414.634C286.068 414.373 285.859 414.059 285.754 413.798ZM287.271 415.418H287.375H287.271ZM287.271 415.418H287.323H287.271ZM286.434 411.027L286.277 411.131L286.225 411.184L286.277 411.497C286.12 411.654 286.016 411.863 285.911 412.072L286.382 414.634L286.434 414.686L286.591 414.791L286.643 415.157L286.696 415.209V415.261C286.8 415.261 286.852 415.314 286.957 415.314V415.261C286.852 415.261 286.8 415.209 286.696 415.157L286.748 414.843L286.591 414.739L286.277 411.393C286.382 411.288 286.486 411.184 286.591 411.131V410.975L286.434 411.027H286.486H286.434ZM287.951 415.261L288.369 415.209H288.264H288.16L288.107 414.895C288.055 414.843 287.951 414.843 287.898 414.791L287.951 415.261ZM287.637 415.261L287.585 414.634L287.637 415.261ZM287.166 414.268L287.271 415.157C287.375 415.209 287.428 415.209 287.532 415.209L287.48 414.53C287.323 414.477 287.271 414.373 287.166 414.268ZM285.807 414.634V414.739L285.859 414.895V415C286.016 415.157 286.225 415.261 286.434 415.314V415.261L286.382 415.209L286.33 415.157C286.12 414.948 285.964 414.791 285.807 414.634ZM288.839 415.105C288.787 415.105 288.735 415.105 288.735 415.105V415.209L288.996 415.157H288.944L288.839 415.105ZM286.957 414.007L287.062 415.105L286.957 414.007ZM286.539 411.184L286.643 412.543C286.643 412.7 286.643 412.857 286.643 413.013C286.643 413.17 286.696 413.275 286.748 413.432L286.8 414.216C286.748 414.477 286.748 414.739 286.696 414.895H286.748L286.852 414.948L286.8 414.164V413.954V413.693C286.748 413.588 286.696 413.484 286.696 413.379L286.643 412.491V412.334C286.643 412.282 286.696 412.177 286.696 412.125L286.748 411.916L286.696 411.184L286.643 411.131C286.643 411.131 286.643 411.079 286.591 411.079V411.027L286.539 411.184ZM289.31 415H289.415H289.31ZM288.683 414.791V414.895C288.787 414.895 288.839 414.948 288.944 414.948V414.895L288.735 414.843L288.683 414.791ZM290.147 414.53C290.094 414.477 289.99 414.477 289.937 414.425L289.99 414.843L290.356 414.791C290.304 414.791 290.251 414.791 290.199 414.791L290.147 414.53ZM289.676 414.843L289.624 414.216L289.676 414.843ZM289.205 413.85L289.31 414.791H289.362L289.571 414.843L289.519 414.164C289.362 414.059 289.31 413.954 289.205 413.85ZM290.879 414.686C290.826 414.686 290.826 414.686 290.774 414.686V414.791L291.088 414.739H290.983L290.879 414.686ZM289.101 414.686L288.996 413.589V413.536L289.101 414.686ZM284.238 411.445L284.186 411.341L284.238 411.445L284.186 411.497C283.977 411.654 283.767 411.811 283.611 412.02L283.663 412.334L283.715 412.595L283.663 412.7L283.611 412.857L283.768 413.275C283.768 413.432 283.767 413.589 283.82 413.745C283.872 414.111 284.029 414.425 284.238 414.686L284.081 414.164L283.977 413.902L283.768 413.275V413.17C283.768 413.118 283.768 413.118 283.768 413.066V413.013V412.961L283.715 412.595C283.82 412.334 283.924 412.072 284.134 411.863L284.186 411.811L284.238 411.759V411.497V411.445ZM285.493 411.131H285.441L285.232 411.184C285.075 411.236 284.97 411.288 284.866 411.393L284.918 411.811V411.863L284.813 412.02V412.282V412.334V412.438L284.866 412.491L285.022 414.425L285.127 414.582L285.179 414.686L285.075 413.484C285.075 413.432 285.075 413.379 285.075 413.379C285.075 413.327 285.075 413.275 285.075 413.223L285.022 412.857L284.918 412.647L284.866 412.543V412.334L284.918 412.229L284.97 412.125V411.916L285.075 411.811C285.127 411.759 285.179 411.706 285.232 411.654L285.336 411.55V411.288C285.388 411.236 285.493 411.236 285.545 411.236L285.493 411.131ZM287.846 414.216V414.477L287.951 414.582L288.055 414.634V414.425C287.951 414.373 287.898 414.268 287.846 414.216ZM288.421 410.922L288.317 411.027L288.63 414.425L288.787 414.53L288.892 414.582L288.735 412.857C288.735 412.804 288.683 412.7 288.683 412.647C288.683 412.543 288.683 412.438 288.683 412.386L288.526 410.87L288.421 410.922ZM291.402 414.582H291.506H291.402ZM290.722 414.373V414.477C290.774 414.477 290.879 414.53 290.931 414.53V414.477L290.774 414.425L290.722 414.373ZM292.029 414.425L292.343 414.373H292.238L292.186 414.059C292.134 414.059 292.029 414.007 291.977 413.954L292.029 414.425ZM291.715 414.373L291.663 413.745L291.715 414.373ZM291.245 413.379L291.349 414.32H291.402L291.558 414.373L291.506 413.641C291.402 413.588 291.349 413.484 291.245 413.379ZM292.813 414.216V414.268L293.127 414.164H292.97H292.866L292.813 414.216ZM291.192 414.268L291.088 413.17V413.118L291.192 414.268ZM289.885 413.745L289.937 414.007L290.042 414.111L290.147 414.164V413.954C289.99 413.902 289.937 413.85 289.885 413.745ZM290.46 410.504L290.356 410.661L290.722 414.007C290.774 414.059 290.879 414.111 290.983 414.164L290.617 410.452L290.46 410.504ZM285.441 412.02C285.388 412.072 285.388 412.125 285.336 412.229L285.284 412.386L285.388 413.432C285.493 413.693 285.598 413.902 285.754 414.164V414.111L285.545 411.916L285.441 412.02ZM287.48 414.059V413.641V413.589V414.059ZM293.441 414.111H293.545H293.441ZM292.761 413.902V414.007H292.813L293.022 414.059V414.007L292.866 413.954L292.761 413.902ZM294.121 413.954L294.434 413.902H294.33L294.277 413.589C294.225 413.589 294.121 413.536 294.068 413.484L294.121 413.954ZM293.807 413.902L293.755 413.275L293.807 413.902ZM287.219 411.916C287.114 412.229 287.062 412.595 287.062 412.961C287.114 413.327 287.219 413.641 287.375 413.902L287.323 413.275C287.271 413.17 287.271 413.013 287.271 412.909C287.271 412.752 287.271 412.595 287.271 412.491L287.219 411.916ZM293.284 412.909L293.389 413.85H293.441L293.598 413.902L293.493 413.17C293.493 413.066 293.388 413.013 293.284 412.909ZM294.905 413.745V413.798L295.271 413.693H295.114H295.009L294.905 413.745ZM293.232 413.745L293.127 412.647V412.595L293.232 413.745ZM291.924 413.275L291.977 413.536L292.134 413.641L292.186 413.693V413.484L292.029 413.327L291.924 413.275ZM287.794 411.916C287.689 412.177 287.689 412.491 287.689 412.804C287.741 413.118 287.794 413.379 287.951 413.641L287.794 411.916ZM289.519 413.589V413.17V413.118V413.589ZM292.552 409.981C292.5 410.034 292.395 410.138 292.343 410.19L292.709 413.484C292.761 413.536 292.866 413.588 292.918 413.641L292.552 409.981ZM295.532 413.589H295.637H295.532ZM294.853 413.379V413.484H294.905L295.062 413.536V413.484L294.905 413.432L294.853 413.379ZM296.317 413.066L296.107 412.961L296.16 413.432L296.474 413.379H296.369L296.317 413.066ZM295.898 413.432L295.846 412.804L295.898 413.432ZM289.205 411.55C289.101 411.863 289.049 412.177 289.101 412.491C289.153 412.804 289.258 413.118 289.362 413.379L289.258 412.543V412.438C289.258 412.386 289.258 412.334 289.258 412.282L289.205 411.55ZM295.375 412.386L295.48 413.327H295.532L295.689 413.379L295.585 412.647C295.532 412.595 295.428 412.491 295.375 412.386ZM297.153 413.275L297.415 413.17H297.519H297.415L297.153 413.275C297.101 413.223 297.049 413.223 296.944 413.223V413.275H297.153ZM295.323 413.275L295.219 412.177L295.166 412.125L295.323 413.275ZM293.964 412.752L294.016 413.013C294.068 413.066 294.173 413.118 294.225 413.17V412.961L294.121 412.857L293.964 412.752ZM289.833 411.602C289.781 411.863 289.728 412.125 289.781 412.438C289.833 412.7 289.885 412.961 289.99 413.17L289.833 411.602ZM291.506 412.647L291.558 413.118V413.17L291.506 412.752V412.647ZM286.696 411.079V411.288V411.341V411.393L286.748 411.968V412.02L286.852 413.118V412.961L286.748 411.968L286.8 411.863C286.8 411.706 286.748 411.55 286.696 411.393V411.079ZM294.591 409.511C294.539 409.563 294.487 409.668 294.382 409.72L294.748 412.961C294.8 413.013 294.905 413.066 294.957 413.118L294.591 409.511ZM297.624 413.066H297.728H297.624ZM296.944 412.857V412.961H296.996L297.153 413.013V412.961L297.049 412.909L296.944 412.857ZM285.493 411.184V411.341C285.388 411.393 285.336 411.445 285.232 411.497V411.602C285.075 411.759 284.97 411.916 284.866 412.072L284.918 412.857L284.97 412.961C284.97 412.752 285.022 412.543 285.127 412.386C285.127 412.177 285.179 411.968 285.232 411.759V411.602L285.336 411.497L285.493 411.393V411.341L285.598 411.288C285.545 411.236 285.493 411.184 285.493 411.184ZM298.408 412.543L298.251 412.491L298.304 412.961L298.617 412.909H298.513L298.408 412.543ZM297.938 412.857L297.885 412.229L297.938 412.857ZM291.245 411.184C291.192 411.445 291.14 411.759 291.192 412.072C291.245 412.386 291.297 412.647 291.454 412.857L291.245 411.184ZM297.467 411.863L297.572 412.804L297.676 412.857L297.833 412.909L297.728 412.177C297.624 412.02 297.519 411.968 297.467 411.863ZM299.245 412.7L299.506 412.647H299.611H299.506H299.454L299.14 412.7H298.983V412.752L299.245 412.7ZM297.415 412.752L297.31 411.654L297.258 411.602L297.415 412.752ZM296.055 412.229L296.107 412.491C296.16 412.543 296.264 412.595 296.317 412.647V412.438L296.212 412.334L296.055 412.229ZM293.598 412.072L293.65 412.595V412.647L293.598 412.177V412.072ZM291.872 411.236C291.82 411.445 291.82 411.706 291.82 411.968C291.872 412.229 291.924 412.438 292.029 412.647L291.872 411.236ZM296.63 409.04C296.578 409.093 296.526 409.145 296.474 409.249L296.892 412.438L296.944 412.491L297.101 412.595L296.63 409.04ZM299.663 412.491H299.768H299.663ZM298.983 412.334V412.438H299.036H299.14V412.386L299.036 412.334H298.983ZM300.5 411.968C300.447 411.968 300.343 411.916 300.291 411.863L300.343 412.334L300.657 412.282H300.552L300.5 411.968ZM300.029 412.334L299.977 411.706L300.029 412.334ZM284.709 411.445V411.341H284.656L284.709 411.445L284.552 411.55V411.654C284.5 411.706 284.447 411.759 284.447 411.759L284.552 411.968L284.604 412.02V412.282L284.656 412.177L284.604 412.02L284.552 411.602C284.604 411.55 284.656 411.497 284.709 411.497V411.445ZM293.284 410.818C293.232 411.079 293.232 411.341 293.232 411.602C293.284 411.863 293.336 412.072 293.441 412.334L293.284 410.818ZM299.506 411.288L299.611 412.229L299.715 412.282L299.872 412.334L299.768 411.602C299.663 411.497 299.611 411.393 299.506 411.288ZM299.349 411.027L299.506 412.177L299.349 411.027ZM301.493 412.125C301.389 412.125 301.232 412.125 301.127 412.125V412.177L301.389 412.125H301.493C301.545 412.125 301.65 412.125 301.702 412.072V412.02L301.493 412.125ZM286.434 411.027C286.382 411.027 286.33 411.027 286.225 411.027H286.173V411.131L286.016 411.184C285.964 411.236 285.911 411.288 285.859 411.288L285.702 411.393V411.497L285.65 411.55C285.702 411.706 285.702 411.863 285.754 412.072L285.807 411.968L285.702 411.497C285.807 411.341 285.964 411.236 286.12 411.131V411.079H286.173L286.434 411.027ZM287.271 411.706L287.323 412.125V412.02L287.271 411.706ZM298.094 411.654L298.147 411.916L298.199 411.968L298.356 412.072V411.863L298.251 411.759L298.094 411.654ZM295.741 412.072L295.689 411.602L295.637 411.497L295.741 412.072ZM285.65 411.236L285.545 411.288L285.441 411.341V411.393C285.336 411.497 285.284 411.602 285.232 411.706V412.02L285.284 411.916C285.336 411.863 285.336 411.811 285.388 411.759L285.441 411.706L285.388 411.445L285.441 411.393L285.493 411.341L285.65 411.236H285.702V411.184L285.65 411.236ZM293.911 410.818C293.859 411.027 293.859 411.236 293.911 411.445C293.911 411.654 293.964 411.863 294.068 412.02L293.911 410.818ZM298.565 408.622L298.931 411.811L298.983 411.863L299.088 411.916L298.67 408.413L298.565 408.622ZM300.604 407.733L301.127 411.811C301.284 411.863 301.493 411.916 301.65 411.916V411.968V411.916L301.441 410.243L300.709 407.681L300.604 407.733ZM301.65 411.968H301.911V411.916L301.65 411.968ZM284.447 411.341C284.395 411.341 284.395 411.341 284.343 411.393L284.238 411.445V411.497L284.186 411.55V411.811V411.863V411.811L284.238 411.759L284.29 411.706L284.238 411.55C284.343 411.497 284.395 411.445 284.5 411.393L284.447 411.341ZM289.31 411.393L289.362 411.811V411.706L289.31 411.341V411.393ZM287.114 410.87C287.009 410.922 286.957 410.922 286.852 410.975L286.905 411.654L286.957 411.55C287.009 411.497 287.009 411.445 287.062 411.393L287.114 411.288V410.87ZM295.375 410.4C295.323 410.609 295.323 410.818 295.375 411.079C295.428 411.288 295.48 411.497 295.532 411.706L295.375 410.4ZM284.5 411.445C284.447 411.497 284.343 411.55 284.29 411.602L284.343 411.654L284.5 411.497V411.445ZM288.839 411.55L288.735 410.661H288.683L288.787 411.55H288.839ZM303.219 411.602L303.846 411.55L303.219 411.602L303.846 411.445L303.219 411.602L303.271 411.55V411.497C303.428 411.236 303.794 410.504 304.003 409.72L303.689 407.629C303.532 407.472 303.376 407.367 303.114 407.263C303.01 407.001 302.853 406.949 302.643 407.106L302.591 407.158C302.277 407.106 302.173 407.315 302.121 407.629C301.964 407.838 301.859 407.995 301.807 408.204V408.361L302.068 410.086V410.243C302.434 410.87 303.01 411.393 303.219 411.602ZM303.166 411.55V411.497V411.55ZM287.637 411.236L287.532 411.341V411.55C287.585 411.445 287.637 411.341 287.741 411.288V411.131L287.637 411.236ZM303.219 411.55L303.846 411.445L303.219 411.55ZM297.781 411.497L297.728 411.027L297.676 410.922L297.781 411.497ZM285.702 411.236C285.65 411.236 285.598 411.288 285.598 411.341C285.65 411.393 285.65 411.445 285.702 411.55L285.754 411.497L285.702 411.236ZM299.872 408.413L299.82 408.518L300.186 411.288L300.291 411.341L300.447 411.445L300.029 408.256L299.872 408.413ZM291.349 410.975L291.402 411.393V411.288L291.349 410.922V410.975ZM296.003 410.4C296.003 410.556 296.003 410.713 296.003 410.922C296.003 411.079 296.055 411.236 296.107 411.393L296.003 410.4ZM289.101 410.452C288.996 410.504 288.944 410.504 288.839 410.556L288.892 411.288L288.944 411.184C288.996 411.131 288.996 411.079 289.049 411.027L289.101 410.975V410.452ZM290.879 411.131L290.774 410.243H290.722L290.826 411.184L290.879 411.131ZM289.676 410.818L289.571 410.975V411.184C289.624 411.079 289.676 410.975 289.781 410.87V410.713L289.676 410.818ZM297.415 409.981C297.415 410.138 297.415 410.347 297.415 410.556C297.415 410.713 297.467 410.922 297.519 411.079L297.415 409.981ZM305.31 410.975L305.99 410.922L305.31 410.975L305.99 410.818L305.31 410.975L305.362 410.922C305.519 410.713 305.885 409.981 306.095 409.249L305.781 407.054C305.624 406.897 305.467 406.792 305.206 406.688C305.101 406.374 304.944 406.27 304.683 406.479L304.63 406.531C304.264 406.479 304.16 406.688 304.16 407.106C304.055 407.315 303.951 407.524 303.898 407.733V407.89V408.047L303.846 407.995V407.942V407.786L303.689 406.897H303.585V406.845L303.48 406.897L303.585 407.681L303.846 409.772L304.055 411.393H304.16L304.787 411.288L304.16 411.393L304.892 411.236L304.264 411.288L304.892 411.184L304.264 411.288L304.055 409.668V409.511L304.003 409.459L303.951 409.302V409.145V408.988L304.003 409.511V409.668C304.526 410.295 305.101 410.818 305.31 410.975ZM293.441 410.87L293.389 410.504L293.336 410.556L293.389 410.975V410.922L293.441 410.87ZM305.258 410.975V410.922V410.975ZM305.362 410.922L305.99 410.818L305.362 410.922ZM299.611 408.988V409.093L299.872 410.922L299.925 410.975L299.611 408.988ZM290.931 410.138L290.879 410.19L290.983 410.922L291.036 410.818C291.088 410.765 291.088 410.713 291.14 410.661L291.192 410.609L291.14 410.138H290.931ZM288.473 410.609L288.264 410.713V410.765C288.369 410.713 288.421 410.661 288.473 410.609ZM292.918 410.661L292.813 409.772L292.761 409.824L292.866 410.765L292.918 410.661ZM291.768 410.295C291.715 410.347 291.663 410.452 291.558 410.504V410.713C291.611 410.609 291.663 410.504 291.715 410.4L291.768 410.295ZM298.094 409.981C298.094 410.086 298.094 410.243 298.094 410.347C298.094 410.452 298.147 410.556 298.147 410.713L298.094 409.981ZM306.356 410.661L306.983 410.556L306.356 410.661L307.088 410.504L306.461 410.609L307.088 410.504L306.461 410.609L306.147 408.518C306.199 408.152 306.147 407.733 305.99 407.42L305.781 406.165H305.676V406.113L305.572 406.165L305.676 407.001L305.99 409.197L306.199 410.661H306.356ZM295.48 410.034L295.532 410.504V410.347L295.48 409.929V410.034ZM293.022 409.668L292.97 409.72L293.075 410.4L293.127 410.295C293.179 410.243 293.179 410.19 293.232 410.138L293.284 410.086L293.232 409.615L293.022 409.668ZM299.506 409.563C299.506 409.72 299.506 409.877 299.506 409.981C299.506 410.138 299.559 410.243 299.611 410.4L299.506 409.563ZM290.513 410.19C290.46 410.243 290.356 410.243 290.304 410.295V410.347C290.356 410.295 290.46 410.243 290.513 410.19ZM293.807 409.824C293.755 409.877 293.702 409.981 293.65 410.086V410.295L293.702 410.138L293.807 409.981V409.824ZM294.8 409.354L294.905 410.295V410.19L294.8 409.354ZM308.5 410.034L309.232 409.877L308.604 409.981L309.232 409.877L308.604 409.981V409.824C308.97 409.929 309.389 409.929 309.807 409.772L310.278 409.668V409.615L310.748 409.459C310.853 409.459 310.905 409.406 311.01 409.354L311.794 409.145C312.003 409.093 312.369 408.936 312.369 408.936H312.474L311.794 409.04L311.742 408.883C312.317 408.308 312.578 407.42 312.317 406.635C312.108 406.008 311.742 405.538 311.219 405.276L311.114 404.597H311.062L309.912 404.91V404.963H309.859V404.91C309.702 404.963 309.598 405.015 309.493 405.067L309.023 405.172V405.119L308.604 405.276C308.447 405.329 308.291 405.381 308.134 405.485H308.029V405.433L307.925 405.485V405.59C307.14 406.165 306.774 407.158 307.088 408.152C307.297 408.883 307.872 409.406 308.552 409.668L308.604 410.034L309.389 409.929L308.5 410.034ZM297.519 409.511L297.572 410.034V409.877L297.519 409.511ZM295.062 409.197L295.009 409.249L295.114 409.929C295.166 409.824 295.219 409.668 295.323 409.563L295.271 409.093L295.062 409.197ZM292.552 409.72C292.5 409.772 292.395 409.772 292.343 409.824V409.877H292.395L292.552 409.72ZM301.702 408.361V408.465L301.755 408.727C301.755 408.988 301.807 409.249 301.859 409.511L301.911 409.772L301.964 409.824L301.911 409.615L301.859 409.511L301.755 408.727V408.622L301.702 408.361ZM295.846 409.354C295.794 409.406 295.741 409.511 295.689 409.615V409.824L295.741 409.668L295.846 409.511V409.354ZM297.049 409.615L296.944 408.779L296.892 408.831L296.996 409.772L297.049 409.615ZM303.742 407.681L303.794 408.047C303.742 408.465 303.846 408.831 303.951 409.197L304.003 409.406V409.354V409.249V409.197L303.951 408.883C303.898 408.727 303.898 408.517 303.846 408.308L303.794 408.047V407.995L303.742 407.681ZM297.101 408.674L296.996 408.727L297.101 409.406C297.153 409.302 297.206 409.145 297.31 409.04L297.258 408.57L297.101 408.674ZM294.382 409.354L294.539 409.249L294.382 409.354ZM303.951 408.988L304.003 409.249V409.302V409.249V409.197C304.003 409.145 304.003 409.093 303.951 408.988ZM297.938 408.831C297.885 408.936 297.833 408.988 297.781 409.093V409.302L297.885 409.145L297.938 409.04V408.831ZM299.088 409.093L298.983 408.256L298.931 408.308L299.036 409.197L299.088 409.093ZM306.147 408.936L305.885 407.158L305.833 407.106L306.147 408.936ZM296.474 408.831L296.63 408.779L296.474 408.831ZM299.192 408.099L299.088 408.152L299.192 408.831C299.245 408.727 299.297 408.622 299.402 408.518L299.349 408.047L299.192 408.099ZM306.199 408.518L306.042 407.42L306.199 408.518ZM298.513 408.308L298.46 408.361L298.513 408.308L298.67 408.256L298.513 408.308ZM303.846 407.89V407.995L303.898 408.256C303.898 408.152 303.898 408.047 303.951 407.942L303.846 407.89V407.838V407.89ZM401.154 359.951L402.723 363.924C403.298 363.924 403.873 363.715 404.292 363.297L404.448 363.14L404.553 363.088C404.605 363.035 404.762 362.931 404.762 362.931L404.658 362.983C404.605 362.983 404.605 363.035 404.553 363.035L404.501 363.088L404.605 362.983H404.658L404.71 362.931V362.879L404.605 363.035L403.194 363.61L401.625 359.637L401.573 359.69V359.637L401.154 359.951ZM404.396 363.192L403.612 363.558C403.873 363.454 404.135 363.349 404.396 363.192ZM403.873 362.199L404.082 362.669C404.658 362.669 405.233 362.46 405.703 361.99L405.808 361.833L405.912 361.781C405.965 361.728 406.069 361.624 406.069 361.624L405.965 361.676C405.912 361.728 405.86 361.781 405.808 361.833L405.912 361.728H405.965L406.017 361.676L406.122 361.624L406.226 361.519L406.279 361.467H406.226L406.488 361.206L404.867 361.885L403.246 358.017L403.089 358.173L404.605 361.833H404.553L403.037 358.226C403.089 358.121 403.194 358.069 403.246 357.964L402.984 358.173V358.121L402.827 358.278L402.775 358.33L402.461 358.696V358.749C402.095 359.376 402.043 360.108 402.305 360.787C402.618 361.519 403.193 361.99 403.873 362.199ZM404.448 362.303L405.912 361.728L405.965 361.624H406.017V361.572L405.965 361.624L404.448 362.251H404.396L404.448 362.303ZM405.756 361.885L404.867 362.303C405.233 362.199 405.494 362.042 405.756 361.885ZM402.88 358.435L404.239 361.728H404.292L402.88 358.435ZM402.618 359.114C402.514 359.533 402.566 360.003 402.723 360.421C402.88 360.84 403.194 361.206 403.507 361.415L402.618 359.114ZM406.383 360.108H406.54L408.213 359.376L408.318 359.219L408.37 359.167L408.318 359.219L408.527 358.958L406.854 359.69L405.18 355.873L405.076 356.03L406.645 359.69H406.592L405.024 356.135C405.076 356.03 405.128 355.978 405.233 355.873L405.024 356.082V356.03L404.867 356.187C404.239 356.866 404.082 357.86 404.448 358.696C404.762 359.533 405.546 360.055 406.383 360.108ZM404.919 356.344C404.605 356.971 404.553 357.703 404.814 358.33C405.076 358.958 405.651 359.428 406.331 359.637L404.919 356.344ZM407.533 358.226L407.743 358.749C408.37 358.749 408.997 358.487 409.416 358.017L409.52 357.86L409.573 357.807C409.625 357.755 409.73 357.651 409.73 357.651L409.625 357.703C409.573 357.755 409.52 357.807 409.468 357.86L409.52 357.807L409.573 357.755L409.625 357.703L409.677 357.651C409.73 357.598 409.73 357.598 409.782 357.546L410.2 357.128L410.566 356.71L410.514 356.657C410.723 356.396 410.88 356.135 410.932 355.821C411.246 355.664 411.507 355.507 411.716 355.194L412.135 354.723L412.501 354.305L412.449 354.253L412.501 354.2C412.501 354.148 412.553 354.148 412.553 354.096L412.605 354.043C412.71 353.939 412.762 353.887 412.867 353.782L413.599 352.893L414.331 351.952V351.9C414.383 351.848 414.383 351.795 414.435 351.743L414.54 351.586L414.645 351.534L414.54 351.586L414.592 351.534C414.645 351.482 414.749 351.377 414.801 351.325L415.69 350.175L416.266 349.391V349.338C416.213 349.338 416.318 349.234 416.37 349.129L416.422 349.025L416.475 348.972L416.527 348.92L416.579 348.816H416.632H416.579L416.632 348.763L416.684 348.711L416.841 348.45C417.573 347.404 417.364 345.993 416.318 345.261C415.272 344.529 413.86 344.738 413.128 345.783L412.867 346.097L412.762 346.254C412.658 346.359 412.605 346.515 412.553 346.62C412.501 346.62 411.978 347.352 411.978 347.352L411.141 348.502C411.089 348.554 411.037 348.659 410.984 348.763V348.711L410.828 348.92L410.723 349.025L410.671 349.077L409.991 349.966L409.311 350.854C409.259 350.907 409.207 351.011 409.154 351.116C409.102 351.168 409.05 351.22 408.998 351.325C408.945 351.325 408.579 351.795 408.579 351.795L408.213 352.266C408.004 352.475 407.899 352.736 407.795 353.05C407.533 353.155 407.272 353.364 407.115 353.625C407.063 353.625 406.697 354.043 406.697 354.043L406.331 354.462L406.279 354.514V354.462L405.965 354.828L406.017 354.932C405.546 355.821 405.756 356.971 406.54 357.651C406.906 358.017 407.22 358.173 407.533 358.226ZM408.318 358.33C408.265 358.33 408.265 358.33 408.213 358.33H408.109L408.161 358.435L408.318 358.33ZM409.573 357.86L409.468 357.912C409.259 358.017 409.102 358.121 408.893 358.226L408.631 358.383C408.945 358.278 409.311 358.121 409.573 357.86ZM409.73 357.703L409.782 357.651L409.834 357.598V357.546L409.73 357.703Z" fill="white"/>
<path fill-rule="evenodd" clip-rule="evenodd" d="M253.493 409.772C252.604 409.458 251.61 409.72 250.983 410.4C250.355 411.079 250.251 412.072 250.669 412.909C250.721 412.909 250.878 413.223 250.878 413.223C252.447 419.653 252.185 438.368 253.127 450.34C253.493 454.784 254.068 458.339 254.852 460.273C267.454 490.804 301.389 507.585 336.317 501.312C363.141 496.502 390.644 478.1 409.311 441.767C412.971 434.657 415.533 399.369 419.037 378.405C419.769 374.118 420.501 370.511 421.337 367.845C421.808 366.277 422.226 365.126 422.802 364.604L422.906 364.499C423.272 364.133 423.534 363.715 423.638 363.192C425.102 355.089 426.985 346.724 429.128 338.517C431.272 330.205 433.73 321.997 436.24 314.207C436.501 313.319 436.24 312.378 435.56 311.75C434.88 311.123 433.887 311.018 433.05 311.384L430.645 312.534C430.174 312.744 429.756 313.162 429.547 313.685C429.076 314.782 428.449 316.403 427.873 318.024C426.828 321.004 425.886 324.088 425.834 324.193L425.102 325.761C422.017 332.087 418.566 338.203 414.645 344.006C410.723 349.704 406.278 355.089 401.154 359.899C396.344 364.395 391.115 368.368 385.572 371.923C380.03 375.53 374.174 378.771 368.317 381.803C359.324 386.456 349.86 390.638 340.186 394.402C330.513 398.166 320.735 401.512 311.01 404.492C299.14 408.099 287.532 411.393 276.343 412.229C268.499 412.804 260.865 412.229 253.545 409.668V409.772H253.493ZM424.998 336.06L424.632 337.419C422.54 345.522 420.658 353.73 419.194 361.728C418.618 362.46 417.991 363.506 417.468 364.917C416.37 367.74 415.377 372.236 414.488 377.726C411.089 398.219 408.788 432.775 405.233 439.728C387.402 474.545 361.206 492.267 335.533 496.868C302.748 502.723 270.852 487.196 259.035 458.548C258.355 456.875 257.937 453.791 257.676 449.974C256.787 439.309 256.839 423.469 255.793 415.261C262.538 417.039 269.493 417.457 276.656 416.882C288.16 415.993 300.134 412.7 312.369 408.936C322.199 405.956 332.134 402.558 341.86 398.741C351.637 394.925 361.258 390.691 370.409 385.986C376.422 382.901 382.383 379.555 388.082 375.896C393.834 372.184 399.324 368.054 404.292 363.349C409.677 358.33 414.331 352.684 418.409 346.672C420.762 343.222 422.958 339.667 424.998 336.06Z" fill="white"/>
<path fill-rule="evenodd" clip-rule="evenodd" d="M254.8 410.87C254.538 410.347 254.068 409.981 253.493 409.772C249.31 408.308 245.231 406.217 241.31 403.342C237.806 400.78 234.46 397.644 231.166 393.827L228.656 390.377C228.238 389.697 227.453 389.279 226.669 389.331C225.885 389.331 225.153 389.802 224.734 390.481C223.479 392.729 221.858 395.971 220.185 399.369C217.675 404.492 215.165 409.929 213.858 412.857C213.492 413.641 213.649 414.582 214.172 415.261C216.996 418.607 220.394 422.685 224.159 428.435C226.721 432.356 229.388 437.061 232.211 442.917C239.845 458.809 242.46 472.402 247.114 485.21C248.421 488.817 249.885 492.32 251.663 495.822C252.917 498.279 254.486 500.527 256.212 502.618C259.976 507.167 264.578 511.088 268.029 515.897C268.918 517.152 270.173 521.805 271.532 526.98C273.519 534.613 275.401 543.396 275.715 545.068C276.081 546.846 277.336 549.146 279.532 551.499C283.924 556.204 292.134 561.484 302.434 564.15C311.898 566.607 323.088 566.869 334.801 562.477C341.127 560.125 349.441 553.119 357.807 544.598C368.317 533.881 378.879 520.759 385.468 511.976C389.965 505.964 394.304 498.593 398.383 490.804C407.952 472.506 416.161 451.647 422.801 439.309C428.501 428.592 434.148 422.162 437.756 416.15C440.109 412.229 441.625 408.517 441.991 404.074C442.253 400.937 441.939 393.566 440.945 385.829C440.109 379.398 438.802 372.707 437.024 367.949C435.664 364.29 432.213 360.421 428.344 359.219C425.52 358.33 422.435 358.748 419.56 361.415C418.828 362.094 418.096 363.297 417.416 365.022C416.318 367.845 415.324 372.341 414.435 377.83C411.037 398.323 408.736 432.879 405.18 439.832C387.35 474.44 361.206 492.215 335.533 496.816C302.748 502.671 270.905 487.144 259.087 458.548C258.408 456.875 258.042 453.79 257.728 450.026C256.735 437.793 256.944 418.764 255.323 412.177L254.8 410.87ZM226.983 395.866C227.244 396.18 227.453 396.493 227.715 396.755C231.27 400.885 234.878 404.231 238.643 406.949C242.617 409.824 246.695 412.02 250.878 413.588C252.342 420.332 252.133 438.578 253.074 450.34C253.44 454.784 254.016 458.339 254.8 460.273C267.401 490.804 301.336 507.585 336.317 501.312C363.141 496.502 390.644 478.1 409.311 441.714C412.971 434.604 415.533 399.316 419.037 378.353C419.769 374.066 420.501 370.459 421.285 367.793C421.756 366.224 422.174 365.074 422.697 364.551C424.475 362.878 426.462 362.983 428.135 363.924C430.226 365.074 431.9 367.27 432.684 369.361C434.357 373.857 435.56 380.183 436.344 386.247C437.285 393.618 437.651 400.571 437.39 403.551C437.076 407.263 435.769 410.399 433.834 413.641C430.226 419.705 424.579 426.188 418.775 437.009C412.187 449.399 403.925 470.258 394.357 488.556C390.383 496.136 386.252 503.246 381.86 509.101C375.376 517.779 364.971 530.692 354.618 541.252C346.827 549.198 339.141 555.838 333.284 558.033C322.617 562.007 312.317 561.798 303.689 559.55C295.846 557.511 289.31 553.851 285.075 550.192C282.408 547.891 280.63 545.696 280.316 544.023C279.95 542.089 277.545 530.901 275.244 522.589C273.99 517.988 272.682 514.224 271.846 513.022C268.342 508.108 263.689 504.082 259.82 499.482C258.303 497.652 256.891 495.718 255.793 493.522C249.1 480.452 246.904 466.912 240.891 451.281C239.584 447.883 238.068 444.38 236.342 440.773C233.414 434.709 230.643 429.847 228.028 425.822C224.525 420.437 221.335 416.516 218.616 413.275C219.976 410.243 222.172 405.642 224.264 401.251C225.205 399.421 226.146 397.539 226.983 395.866Z" fill="white"/>
</svg>
